<?xml version="1.0" encoding="utf-8"?>
<!-- Generator: Adobe Illustrator 27.0.1, SVG Export Plug-In . SVG Version: 6.00 Build 0)  -->
<svg version="1.1" id="Layer_1" xmlns="http://www.w3.org/2000/svg" xmlns:xlink="http://www.w3.org/1999/xlink" x="0px" y="0px"
	 viewBox="0 0 884.7 855.7" style="enable-background:new 0 0 884.7 855.7;" xml:space="preserve">
<style type="text/css">
	.st0{opacity:0.1;fill:url(#SVGID_1_);enable-background:new    ;}
	.st1{opacity:0.5;}
	.st2{fill:none;}
	.st3{fill:#F1F1F1;}
</style>
<g>
	
		<linearGradient id="SVGID_1_" gradientUnits="userSpaceOnUse" x1="144.6711" y1="846.9371" x2="143.9031" y2="847.7382" gradientTransform="matrix(635.8561 158.5367 141.7662 -568.5933 -211426.1562 459345.4688)">
		<stop  offset="0" style="stop-color:#F8CD9A"/>
		<stop  offset="1" style="stop-color:#917CC4;stop-opacity:0"/>
	</linearGradient>
	<path class="st0" d="M638.2,174.7c24.3,6,43.5,24.6,50.3,48.6l71,247.5c6.9,24,0.4,50-16.9,67.9L563.7,724
		c-17.4,18-43,25.3-67.3,19.3l-250-62.3c-24.3-6-43.5-24.6-50.3-48.6l-71-247.5c-6.9-24-0.4-50,16.9-67.9l178.9-185.2
		c17.4-18,43-25.3,67.3-19.3L638.2,174.7z"/>
	<g class="st1">
		<path class="st2" d="M706.8,247.6c21.2,13.2,33.7,36.8,32.9,61.8l-8.9,257.4c-0.9,25-15,47.6-37.1,59.4L466.2,747
			c-22.1,11.7-48.7,10.8-69.9-2.5L177.7,608c-21.2-13.2-33.7-36.8-32.9-61.8l8.9-257.4c0.9-25,15-47.6,37.1-59.4l227.4-120.9
			c22.1-11.7,48.7-10.8,69.9,2.5L706.8,247.6z"/>
		<path class="st3" d="M487.7,111.9c-10.3-6.4-22-10-34.1-10.4c-12.1-0.4-24.1,2.3-34.8,8L191.4,230.4
			c-10.7,5.7-19.7,14.1-26.1,24.4c-6.4,10.3-10,22.1-10.4,34.2l-8.9,257.4c-0.4,12.1,2.4,24.1,8,34.8c5.7,10.7,14.1,19.7,24.4,26.1
			l218.5,136.6c10.3,6.4,22,10,34.1,10.4c12.1,0.4,24.1-2.3,34.8-8l227.4-120.9c10.7-5.7,19.7-14.1,26.1-24.4
			c6.4-10.3,10-22.1,10.4-34.2l8.9-257.4c0.4-12.1-2.4-24.1-8-34.8c-5.7-10.7-14.1-19.7-24.4-26.1L487.7,111.9 M488.3,111.1
			l218.5,136.6c21.2,13.2,33.7,36.8,32.9,61.8l-8.9,257.4c-0.9,25-15,47.6-37.1,59.4L466.2,747c-22.1,11.7-48.7,10.8-69.9-2.4
			c0,0,0,0,0,0L177.7,608c-21.2-13.2-33.7-36.8-32.9-61.8l8.9-257.4c0.9-25,15-47.6,37.1-59.4l227.4-120.9
			C440.4,96.9,467.1,97.8,488.3,111.1z"/>
	</g>
</g>
</svg>
