<?xml version="1.0" encoding="utf-8"?>
<!-- Generator: Adobe Illustrator 27.0.1, SVG Export Plug-In . SVG Version: 6.00 Build 0)  -->
<svg version="1.1" id="Layer_1" xmlns:svgjs="http://svgjs.com/svgjs"
	 xmlns="http://www.w3.org/2000/svg" xmlns:xlink="http://www.w3.org/1999/xlink" x="0px" y="0px" viewBox="0 0 512 512"
	 style="enable-background:new 0 0 512 512;" xml:space="preserve">
<style type="text/css">
	.st0{fill:url(#SVGID_1_);}
	.st1{fill:url(#SVGID_00000070076098309227707740000012147638628374847629_);}
	.st2{fill:#F8CD9A;}
	.st3{fill:url(#SVGID_00000143587192678273042880000006296338087596224699_);}
	.st4{fill:url(#SVGID_00000102510997795648529290000000008898669752737205_);}
	.st5{fill:url(#SVGID_00000052783144877851332590000011777158984810954369_);}
</style>
<g>
	<g>
		
			<linearGradient id="SVGID_1_" gradientUnits="userSpaceOnUse" x1="71.8565" y1="481.763" x2="448.4985" y2="105.1221" gradientTransform="matrix(1.0039 0 0 -1.0039 0.1608 514.5443)">
			<stop  offset="0" style="stop-color:#D0C7E6"/>
			<stop  offset="1" style="stop-color:#BEB2DC"/>
		</linearGradient>
		<path class="st0" d="M240.8,3C202.1,18.6,112.5,56.5,68.3,65.6c-9.8,2-16.7,10.7-16.7,20.6v127.7C51.6,314,96.7,408.8,174.4,472
			l24,19.5c33.6,27.3,81.7,27.3,115.3,0l24-19.5c77.7-63.2,122.8-158,122.8-258.1V86.2c0-10-7-18.6-16.7-20.6
			c-44.1-9.1-133.8-47-172.5-62.6C261.4-1,250.6-1,240.8,3L240.8,3z"/>
		<g>
			
				<linearGradient id="SVGID_00000148659110603567109540000013447335987867013515_" gradientUnits="userSpaceOnUse" x1="393.1638" y1="119.2104" x2="118.6479" y2="393.7263" gradientTransform="matrix(1.0039 0 0 -1.0039 0.1608 514.5443)">
				<stop  offset="0" style="stop-color:#D0C7E6"/>
				<stop  offset="1" style="stop-color:#BEB2DC"/>
			</linearGradient>
			<circle style="fill:url(#SVGID_00000148659110603567109540000013447335987867013515_);" cx="256" cy="256" r="170"/>
			<path class="st2" d="M406.8,256c0,45.5-20.1,86.3-52,113.9c-26.5,23-61,22.8-98.8,22.8c-37.4,0-71.7,0.4-98-22.1
				c-32.3-27.7-52.8-68.8-52.8-114.6c0-83.3,67.5-150.8,150.8-150.8S406.8,172.7,406.8,256L406.8,256z"/>
			
				<linearGradient id="SVGID_00000062879481221309842050000009804881846199723173_" gradientUnits="userSpaceOnUse" x1="368.192" y1="202.9005" x2="227.0609" y2="344.0325" gradientTransform="matrix(1.0039 0 0 -1.0039 0.1608 514.5443)">
				<stop  offset="0" style="stop-color:#AF9FD4;stop-opacity:0"/>
				<stop  offset="1" style="stop-color:#917CC4"/>
			</linearGradient>
			<path style="fill:url(#SVGID_00000062879481221309842050000009804881846199723173_);" d="M256.3,128.4
				c-39.1,0-68.9,29.9-68.9,68.9c0,20.9,7.3,39.6,21.6,52.6l121.7,121.7c5.1-3.4,19.5,2.3,24.1-1.7c31.9-27.7,52-68.4,52-113.9
				c0-2.8-0.1-5.5-0.2-8.2l-97.7-97.7C296,135.7,277.2,128.4,256.3,128.4L256.3,128.4z"/>
			
				<linearGradient id="SVGID_00000178176475494959578920000007312143409128106173_" gradientUnits="userSpaceOnUse" x1="51.3419" y1="519.7514" x2="398.8898" y2="172.2034" gradientTransform="matrix(1.0039 0 0 -1.0039 0.1608 514.5443)">
				<stop  offset="0" style="stop-color:#F4F2F5"/>
				<stop  offset="1" style="stop-color:#EEEBF0"/>
			</linearGradient>
			<circle style="fill:url(#SVGID_00000178176475494959578920000007312143409128106173_);" cx="256" cy="197.1" r="70.7"/>
			
				<linearGradient id="SVGID_00000146469094796168049560000004529135111346881432_" gradientUnits="userSpaceOnUse" x1="232.4763" y1="208.6491" x2="275.9534" y2="130.5671" gradientTransform="matrix(1.0039 0 0 -1.0039 0.1608 514.5443)">
				<stop  offset="0" style="stop-color:#F4F2F5"/>
				<stop  offset="1" style="stop-color:#EEEBF0"/>
			</linearGradient>
			<path style="fill:url(#SVGID_00000146469094796168049560000004529135111346881432_);" d="M349.8,316.6
				c19.2,12.3,21.1,39.7,3.7,54.4c-0.2,0.2-0.4,0.3-0.6,0.5c-26.2,22-60,35.3-96.9,35.3c-37.3,0-71.4-13.5-97.7-35.9
				c-0.1-0.1-0.2-0.2-0.3-0.3c-17.3-14.8-15.2-42.1,3.9-54.3c27.1-17.2,59.2-27.2,93.7-27.2C290.3,289.1,322.7,299.2,349.8,316.6
				L349.8,316.6z"/>
		</g>
	</g>
</g>
</svg>
