<?xml version="1.0" encoding="utf-8"?>
<!-- Generator: Adobe Illustrator 27.0.1, SVG Export Plug-In . SVG Version: 6.00 Build 0)  -->
<svg version="1.1" id="Layer_1" xmlns="http://www.w3.org/2000/svg" xmlns:xlink="http://www.w3.org/1999/xlink" x="0px" y="0px"
	 viewBox="0 0 1440 1005" style="enable-background:new 0 0 1440 1005;" xml:space="preserve">
<style type="text/css">
	.st0{opacity:0.6;fill:url(#SVGID_1_);fill-opacity:0.8;enable-background:new    ;}
	.st1{fill:url(#SVGID_00000026149975910314277340000002248988874028251822_);fill-opacity:0.67;}
	.st2{fill:url(#SVGID_00000147191175856823006990000008707604311665868955_);fill-opacity:0.67;}
	.st3{fill:url(#SVGID_00000035497918908366723190000004610901544049909638_);fill-opacity:0.67;}
	.st4{fill:url(#SVGID_00000175283481928794087140000000649486307868167320_);fill-opacity:0.67;}
	.st5{fill:url(#SVGID_00000022523897316571918950000011513384800558424216_);fill-opacity:0.67;}
	
		.st6{opacity:0.9;fill:url(#SVGID_00000114758155222012389200000015477577116807002043_);fill-opacity:0.67;enable-background:new    ;}
	.st7{fill:#8F7EC9;}
	.st8{fill:#AFA6CE;fill-opacity:0.73;}
	.st9{fill:none;stroke:#9F92CC;stroke-width:7;}
	.st10{fill:none;stroke:#E6B77E;stroke-width:7;}
	.st11{fill:#E6B77E;fill-opacity:0.61;}
</style>
<linearGradient id="SVGID_1_" gradientUnits="userSpaceOnUse" x1="65.9191" y1="590.4453" x2="1521.9191" y2="532.4453" gradientTransform="matrix(-1 0 0 -1 1440 1003.8898)">
	<stop  offset="0" style="stop-color:#7869AA;stop-opacity:0.68"/>
	<stop  offset="1" style="stop-color:#7869AA;stop-opacity:0.12"/>
</linearGradient>
<rect x="0" y="80" class="st0" width="1440" height="719"/>
<linearGradient id="SVGID_00000140696160463026698050000007971019915447519616_" gradientUnits="userSpaceOnUse" x1="186.5949" y1="417.4221" x2="436.6779" y2="563.7201" gradientTransform="matrix(-1 0 0 -1 1440 1003.8898)">
	<stop  offset="0" style="stop-color:#7869AA;stop-opacity:0.16"/>
	<stop  offset="0.4741" style="stop-color:#8274B0;stop-opacity:0.47"/>
	<stop  offset="1" style="stop-color:#7869AA;stop-opacity:0.2"/>
	<stop  offset="1" style="stop-color:#7869AA;stop-opacity:0.15"/>
</linearGradient>
<path style="fill:url(#SVGID_00000140696160463026698050000007971019915447519616_);fill-opacity:0.67;" d="M1073,798.5h135
	c-36.3-79.4-82.3-195.4-100.9-308c-29.9-182.1-76.6-352-76.6-352H1012c0,0,64.8,255.1,41,333.5C1038.6,519.3,1033.4,662,1073,798.5z
	"/>
<linearGradient id="SVGID_00000150067272265221626740000005808582996928175746_" gradientUnits="userSpaceOnUse" x1="1.2846" y1="307.4145" x2="400.7267" y2="694.5875" gradientTransform="matrix(-1 0 0 -1 1440 1003.8898)">
	<stop  offset="0" style="stop-color:#7869AA;stop-opacity:0.16"/>
	<stop  offset="0.4741" style="stop-color:#8274B0;stop-opacity:0.47"/>
	<stop  offset="1" style="stop-color:#7869AA;stop-opacity:0.2"/>
	<stop  offset="1" style="stop-color:#7869AA;stop-opacity:0.15"/>
</linearGradient>
<path style="fill:url(#SVGID_00000150067272265221626740000005808582996928175746_);fill-opacity:0.67;" d="M1134.2,350.2
	c40.9,101.1,152.6,341.8,192,447.8h113.1c-42.1-146.5-140.3-324-189.4-380c-57.3-73.4-99.1-118.5-130.1-176.5
	c-18.7-35-41-104.5-41-104.5h-24.5C1054.3,137,1105.8,280,1134.2,350.2z"/>
<linearGradient id="SVGID_00000173147941070106576720000016099729448197663635_" gradientUnits="userSpaceOnUse" x1="27.184" y1="503.333" x2="196.3611" y2="758.845" gradientTransform="matrix(-1 0 0 -1 1440 1003.8898)">
	<stop  offset="0" style="stop-color:#7869AA;stop-opacity:0.16"/>
	<stop  offset="0.4741" style="stop-color:#8274B0;stop-opacity:0.47"/>
	<stop  offset="1" style="stop-color:#7869AA;stop-opacity:0.2"/>
	<stop  offset="1" style="stop-color:#7869AA;stop-opacity:0.15"/>
</linearGradient>
<path style="fill:url(#SVGID_00000173147941070106576720000016099729448197663635_);fill-opacity:0.67;" d="M1256.5,364.1
	C1334,424.5,1400.2,489.6,1440,531V409.3c-51.8-29.2-112.1-56-162.3-75.2c-88.6-33.8-152.2-195.1-152.2-195.1h-16
	c0,0,44.6,145.5,146.8,225.1H1256.5z"/>
<linearGradient id="SVGID_00000134954790457226915960000015151875273171701913_" gradientUnits="userSpaceOnUse" x1="555.5258" y1="195.9126" x2="550.4738" y2="569.5256" gradientTransform="matrix(-1 0 0 -1 1440 1003.8898)">
	<stop  offset="0" style="stop-color:#7869AA;stop-opacity:0.16"/>
	<stop  offset="0.4741" style="stop-color:#8274B0;stop-opacity:0.47"/>
	<stop  offset="1" style="stop-color:#7869AA;stop-opacity:0.2"/>
	<stop  offset="1" style="stop-color:#7869AA;stop-opacity:0.15"/>
</linearGradient>
<path style="fill:url(#SVGID_00000134954790457226915960000015151875273171701913_);fill-opacity:0.67;" d="M954.3,506.7
	C911.8,606,914.6,734,908,800.7H764.5C779.8,724.4,885.3,516.5,923,472c96.5-114,55-334,55-334h17c0,0,44.1,183.2-12,314
	L954.3,506.7z"/>
<linearGradient id="SVGID_00000008854109801383498220000010283972846478693504_" gradientUnits="userSpaceOnUse" x1="76.3205" y1="639.4922" x2="149.7003" y2="809.3712" gradientTransform="matrix(-1 0 0 -1 1440 1003.8898)">
	<stop  offset="0" style="stop-color:#7869AA;stop-opacity:0.16"/>
	<stop  offset="0.4741" style="stop-color:#8274B0;stop-opacity:0.47"/>
	<stop  offset="1" style="stop-color:#7869AA;stop-opacity:0.2"/>
	<stop  offset="1" style="stop-color:#7869AA;stop-opacity:0.15"/>
</linearGradient>
<path style="fill:url(#SVGID_00000008854109801383498220000010283972846478693504_);fill-opacity:0.67;" d="M1302.5,298.6
	c60.7,30.2,89.2,44.4,137.5,59.4v-69.5c-50.2-0.5-111.4-13.6-147.7-29.3C1225,230.2,1173,138.5,1173,138.5h-15.5
	C1157.5,138.5,1191.5,243.5,1302.5,298.6z"/>
<linearGradient id="SVGID_00000145737513624587214670000007364305552364618913_" gradientUnits="userSpaceOnUse" x1="595.4201" y1="241.9259" x2="640.9501" y2="551.8599" gradientTransform="matrix(-1 0 0 -1 1440 1003.8898)">
	<stop  offset="0" style="stop-color:#7869AA;stop-opacity:0.16"/>
	<stop  offset="0.4741" style="stop-color:#8274B0;stop-opacity:0.47"/>
	<stop  offset="1" style="stop-color:#7869AA;stop-opacity:0.2"/>
	<stop  offset="1" style="stop-color:#7869AA;stop-opacity:0.15"/>
</linearGradient>
<path style="opacity:0.9;fill:url(#SVGID_00000145737513624587214670000007364305552364618913_);fill-opacity:0.67;enable-background:new    ;" d="
	M903.5,445.8C884.3,472.4,749.2,663.5,734,799h-98c28.8-137,219.2-336.6,243-367c87.5-125.2,68.5-297.2,68.5-297.2h19
	C966.5,254,977.4,343,903.5,445.8z"/>
<g>
	<ellipse class="st7" cx="1109.5" cy="445" rx="195.5" ry="200"/>
</g>
<path class="st8" d="M991,560v109c0,9.9-8.1,18-18,18H776c-9.9,0-18-8.1-18-18V560c0-9.9,8.1-18,18-18h197
	C982.9,542,991,550.1,991,560z"/>
<path class="st9" d="M974.5,580v109c0,11.9-9.6,21.5-21.5,21.5H756c-11.9,0-21.5-9.6-21.5-21.5V580c0-11.9,9.6-21.5,21.5-21.5h197
	C964.9,558.5,974.5,568.1,974.5,580z"/>
<path class="st10" d="M1354.5,381v192c0,8-6.5,14.5-14.5,14.5h-133c-8,0-14.5-6.5-14.5-14.5V381c0-8,6.5-14.5,14.5-14.5h133
	C1348,366.5,1354.5,373,1354.5,381z"/>
<path class="st11" d="M1333,406v142c0,9.9-8.1,18-18,18h-151c-9.9,0-18-8.1-18-18V406c0-9.9,8.1-18,18-18h151
	C1324.9,388,1333,396.1,1333,406z"/>
</svg>
