<svg width="1440" height="146" viewBox="0 0 1440 146" fill="none" xmlns="http://www.w3.org/2000/svg">
<rect width="1440" height="146" fill="url(#paint0_linear_1736_3516)"/>
<mask id="mask0_1736_3516" style="mask-type:alpha" maskUnits="userSpaceOnUse" x="85" y="0" width="453" height="146">
<path d="M85 0H537.394C537.394 0 531.749 33.4835 511.049 73C490.348 112.517 484.703 146 484.703 146H85V0Z" fill="#FCF8F4"/>
</mask>
<g mask="url(#mask0_1736_3516)">
<path d="M79.6043 172.016C100.406 97.4129 156.596 126.333 89.0586 -47.1089L96.602 -49.4536C96.602 -49.4536 138.869 46.8485 135.582 90.7508C132.473 131.957 96.4815 121.881 133.096 254.04L86.0034 255.459C77.4707 230.131 71.9434 199.684 79.6547 171.97L79.6043 172.016Z" fill="#9589EA" fill-opacity="0.09"/>
<path d="M157.763 108.083C169.447 72.8606 125.428 -15.5248 125.428 -15.5248L132.582 -18.0768C132.582 -18.0768 164.253 35.1486 182.698 115.576C194.133 165.311 220.268 216.102 240.769 250.796L183.34 252.527C160.359 192.515 150.706 129.368 157.765 108.127L157.763 108.083Z" fill="#9589EA" fill-opacity="0.09"/>
<path d="M109.416 -95.2664L118.124 -99.0131C118.124 -99.0131 141.201 -51.1482 173.585 11.1234C205.919 73.4406 230.198 75.0907 261.816 106.776C280.113 125.102 330.165 202.058 358.972 247.236L297.183 249.098C274.666 202.627 231.811 118.266 199.015 78.5002C180.492 56.0794 109.416 -95.2664 109.416 -95.2664Z" fill="#9589EA" fill-opacity="0.09"/>
<path d="M256.585 78.2886C200.853 44.5858 174.584 -17.3133 174.584 -17.3133L182.546 -19.5826C182.546 -19.5826 219.803 50.9854 267.623 64.5885C294.748 72.3299 378.333 107.926 424.102 152.788L357.841 154.785C336.011 137.046 298.963 103.879 256.688 78.2855L256.585 78.2886Z" fill="#9589EA" fill-opacity="0.09"/>
<path d="M207.13 -2.5178L213.762 -8.17049C213.762 -8.17049 259.15 29.4557 278.355 37.4767C333.711 60.5968 401.904 62.1926 477.599 151.178L442.949 152.222C374.952 76.3905 337.093 72.2172 287.24 53.1717C237.387 34.1263 207.078 -2.51624 207.078 -2.51624L207.13 -2.5178Z" fill="#9589EA" fill-opacity="0.09"/>
</g>
<defs>
<linearGradient id="paint0_linear_1736_3516" x1="-7.05646e-06" y1="73" x2="1225.8" y2="629.456" gradientUnits="userSpaceOnUse">
<stop stop-color="#A7A6CD"/>
<stop offset="0.4676" stop-color="#D2CCE2"/>
<stop offset="1" stop-color="#E7E4F0"/>
</linearGradient>
</defs>
</svg>
