<svg width="1440" height="807" viewBox="0 0 1440 807" fill="none" xmlns="http://www.w3.org/2000/svg">
<mask id="mask0_115_9557" style="mask-type:alpha" maskUnits="userSpaceOnUse" x="0" y="0" width="1440" height="807">
<rect width="1440" height="807" fill="red"/>
</mask>
<g mask="url(#mask0_115_9557)">
<path d="M1440.74 829.207C1472.05 675.131 1347.09 690.672 1623.39 412.166L1612.27 402.585C1612.27 402.585 1450.49 553.944 1416.34 638.457C1384.33 717.797 1456.69 723.671 1272.23 946.097L1353.63 981.142C1391.64 939.557 1429.03 886.314 1440.69 829.087L1440.74 829.207Z" fill="url(#paint0_linear_115_9557)" fill-opacity="0.17"/>
<path d="M1361.64 655.677C1373.15 581.651 1530.81 446.329 1530.81 446.329L1520.57 436.628C1520.57 436.628 1416.56 514.568 1311.04 652.566C1245.74 737.884 1153.66 815.07 1086.12 865.972L1185.39 908.709C1280.3 812.078 1354.67 700.409 1361.59 655.759L1361.64 655.677Z" fill="url(#paint1_linear_115_9557)" fill-opacity="0.17"/>
<path d="M1631.44 307.94L1619.55 294.932C1619.55 294.932 1535.51 368.738 1422.02 463.136C1308.58 557.654 1264.45 544.048 1180.12 581.668C1131.33 603.42 973.472 713.178 881.808 778.01L988.61 823.991C1070.4 752.412 1222.36 623.829 1316.11 571.881C1369.02 542.614 1631.44 307.94 1631.44 307.94Z" fill="url(#paint2_linear_115_9557)" fill-opacity="0.17"/>
<path d="M56.8974 510.682C128.313 336.978 -1.90658 350.362 349.073 43.8417L340.323 32.5971C340.323 32.5971 137.837 198.786 81.5217 293.488C28.7031 382.395 100.266 391.516 -143.479 637.545L-70.3209 680.06C-21.1893 634.182 30.3249 575.06 56.881 510.544L56.8974 510.682Z" fill="url(#paint3_linear_115_9557)" fill-opacity="0.2"/>
<path d="M57.7332 259.937C80.6234 187.568 254.591 68.2634 254.591 68.2634L246.227 57.6627C246.227 57.6627 133.261 125.122 9.29425 252.04C-67.4096 330.502 -168.716 398.347 -242.123 442.442L-152.906 494.289C-45.762 407.416 43.8964 303.667 57.6793 260.014L57.7332 259.937Z" fill="url(#paint4_linear_115_9557)" fill-opacity="0.2"/>
<path d="M307.442 -15.4554L298.538 -28.3675C298.538 -28.3675 213.532 30.0669 99.4485 104.218C-14.6091 178.482 -52.2908 161.872 -132.744 187.595C-179.29 202.465 -335.12 286.145 -425.75 335.728L-336.293 387.715C-253.599 331.072 -100.549 229.811 -9.76878 192.068C41.464 170.814 307.442 -15.4554 307.442 -15.4554Z" fill="url(#paint5_linear_115_9557)" fill-opacity="0.2"/>
<path d="M-64.2231 123.179C63.9982 110.767 178.591 23.3425 178.591 23.3425L168.609 12.5557C168.609 12.5557 26.3561 106.017 -65.6382 89.5153C-117.85 80.2001 -182.528 71.8775 -241.425 69.5159L-307.667 164.012C-252.101 151.106 -161.679 132.552 -64.3839 123.086L-64.2231 123.179Z" fill="url(#paint6_linear_115_9557)" fill-opacity="0.2"/>
<path d="M126.49 -7.55151L116.74 -13.2177C116.74 -13.2177 28.1497 30.7433 -41.3088 22.2039C-78.7987 17.5948 -134.788 -0.566557 -175.032 -23.4142L-212.916 30.6284C-166.236 41.3694 -135.631 42.6448 -70.9271 48.1432C51.0248 58.5065 126.49 -7.55151 126.49 -7.55151Z" fill="url(#paint7_linear_115_9557)" fill-opacity="0.2"/>
</g>
<defs>
<linearGradient id="paint0_linear_115_9557" x1="1553.5" y1="522.071" x2="1473.23" y2="894.227" gradientUnits="userSpaceOnUse">
<stop stop-color="#7869AA" stop-opacity="0.12"/>
<stop offset="1" stop-color="#7869AA"/>
</linearGradient>
<linearGradient id="paint1_linear_115_9557" x1="1400.16" y1="514.144" x2="1296.73" y2="845.497" gradientUnits="userSpaceOnUse">
<stop stop-color="#7869AA" stop-opacity="0.12"/>
<stop offset="1" stop-color="#7869AA"/>
</linearGradient>
<linearGradient id="paint2_linear_115_9557" x1="1362" y1="416" x2="1089.67" y2="843.973" gradientUnits="userSpaceOnUse">
<stop stop-color="#7869AA" stop-opacity="0.12"/>
<stop offset="1" stop-color="#7869AA"/>
</linearGradient>
<linearGradient id="paint3_linear_115_9557" x1="-122.409" y1="703.673" x2="519.309" y2="528.296" gradientUnits="userSpaceOnUse">
<stop stop-color="#7869AA"/>
<stop offset="0.270623" stop-color="#9589EA" stop-opacity="0.54"/>
<stop offset="1" stop-color="#9589EA" stop-opacity="0.05"/>
</linearGradient>
<linearGradient id="paint4_linear_115_9557" x1="-160.742" y1="530.392" x2="334.353" y2="155.877" gradientUnits="userSpaceOnUse">
<stop stop-color="#7869AA"/>
<stop offset="0.270623" stop-color="#9589EA" stop-opacity="0.54"/>
<stop offset="1" stop-color="#9589EA" stop-opacity="0.05"/>
</linearGradient>
<linearGradient id="paint5_linear_115_9557" x1="-238.382" y1="492.352" x2="281.264" y2="-59.3283" gradientUnits="userSpaceOnUse">
<stop stop-color="#7869AA"/>
<stop offset="0.270623" stop-color="#9589EA" stop-opacity="0.54"/>
<stop offset="1" stop-color="#9589EA" stop-opacity="0.05"/>
</linearGradient>
<linearGradient id="paint6_linear_115_9557" x1="-152.573" y1="280.185" x2="110.699" y2="-42.7766" gradientUnits="userSpaceOnUse">
<stop stop-color="#7869AA"/>
<stop offset="0.270623" stop-color="#9589EA" stop-opacity="0.54"/>
<stop offset="1" stop-color="#9589EA" stop-opacity="0.05"/>
</linearGradient>
<linearGradient id="paint7_linear_115_9557" x1="-84.5012" y1="119.572" x2="51.4781" y2="-65.4434" gradientUnits="userSpaceOnUse">
<stop stop-color="#7869AA"/>
<stop offset="0.270623" stop-color="#9589EA" stop-opacity="0.54"/>
<stop offset="1" stop-color="#9589EA" stop-opacity="0.05"/>
</linearGradient>
</defs>
</svg>
