<?xml version="1.0" encoding="utf-8"?>
<!-- Generator: Adobe Illustrator 27.0.1, SVG Export Plug-In . SVG Version: 6.00 Build 0)  -->
<svg version="1.1" id="Layer_1" xmlns:svgjs="http://svgjs.com/svgjs"
	 xmlns="http://www.w3.org/2000/svg" xmlns:xlink="http://www.w3.org/1999/xlink" x="0px" y="0px" viewBox="0 0 512 512"
	 style="enable-background:new 0 0 512 512;" xml:space="preserve">
<style type="text/css">
	.st0{fill:url(#SVGID_1_);}
	.st1{fill:url(#SVGID_00000141447778842148315800000004361663704980587920_);}
	.st2{fill:url(#SVGID_00000178198592740777119060000012116400132079687346_);}
	.st3{fill:url(#SVGID_00000046309369377165109320000003815558279045877684_);}
	.st4{fill:url(#SVGID_00000124883293214089715530000001717047118908393627_);}
	.st5{fill:url(#SVGID_00000003078796656980321640000001156156787075021452_);}
	.st6{fill:url(#SVGID_00000111909271619812653250000007659870442515348361_);}
	.st7{fill:url(#SVGID_00000172440154718104427540000004776560467318449333_);}
	.st8{fill:url(#SVGID_00000150824435388531241820000002237589081326662820_);}
	.st9{fill:url(#SVGID_00000088817837930597410300000011639671488183963020_);}
	.st10{fill:url(#SVGID_00000144312537982858133060000011464742275134044063_);}
	.st11{fill:url(#SVGID_00000095336434312099559330000012049057529642955906_);}
	.st12{fill:url(#SVGID_00000036249939489806147380000001786551820873509298_);}
	.st13{fill:url(#SVGID_00000168807234281904157590000009898519410614617761_);}
	.st14{fill:url(#SVGID_00000055666307966399601880000006177979040130119349_);}
	.st15{fill:url(#SVGID_00000028305299173661144100000017347007273034294955_);}
	.st16{fill:#F8CD9A;}
	.st17{fill:url(#SVGID_00000178894731478625816050000012723905338546537401_);}
	.st18{fill:url(#SVGID_00000112624783386819680270000002391496470710800549_);}
	.st19{fill:url(#SVGID_00000106113260468770066990000005178711360809369216_);}
</style>
<g>
	
		<linearGradient id="SVGID_1_" gradientUnits="userSpaceOnUse" x1="131.3548" y1="381.0194" x2="440.4218" y2="71.9524" gradientTransform="matrix(1.0039 0 0 -1.0039 0.1608 514.5443)">
		<stop  offset="0" style="stop-color:#CFC6E5"/>
		<stop  offset="1" style="stop-color:#BADDFC"/>
	</linearGradient>
	<circle class="st0" cx="256" cy="256" r="256"/>
	
		<linearGradient id="SVGID_00000074430051595835506600000012539781917660149908_" gradientUnits="userSpaceOnUse" x1="293.8146" y1="-23.2115" x2="202.0596" y2="637.7325" gradientTransform="matrix(1.0039 0 0 -1.0039 0.1608 514.5443)">
		<stop  offset="0" style="stop-color:#CFC6E5;stop-opacity:0"/>
		<stop  offset="1" style="stop-color:#DED8ED"/>
	</linearGradient>
	<path style="fill:url(#SVGID_00000074430051595835506600000012539781917660149908_);" d="M436.3,121.4
		c-8.8-6.5-18.1-12.4-27.9-17.7c-5.4-9.8-11.3-19.1-17.7-27.9C354.8,27,307,0.1,256,0.1S157.2,27,121.4,75.7
		c-6.5,8.8-12.4,18.1-17.7,27.9c-9.8,5.4-19.1,11.3-27.9,17.7C27,157.2,0.1,205,0.1,256S27,354.8,75.7,390.6
		c8.8,6.5,18.1,12.4,27.9,17.7c5.4,9.8,11.3,19.1,17.7,27.9C157.2,485,205,511.9,256,511.9s98.8-26.9,134.6-75.6
		c6.5-8.8,12.4-18.1,17.7-27.9c9.8-5.4,19.1-11.3,27.9-17.7C485,354.8,511.9,307,511.9,256S485,157.2,436.3,121.4z M256,499.9
		c-14.1,0-29-20.9-40.7-56.7c13.3,1.6,27,2.4,40.7,2.4c13.8,0,27.4-0.8,40.7-2.4C285,478.9,270.1,499.9,256,499.9z M256,433.5
		c-15.2,0-30.1-1-44.6-3c-8-28.4-13.9-62.4-17.2-99.6c20,1.4,40.7,2.2,61.8,2.2s41.8-0.7,61.8-2.2c-3.3,37.2-9.2,71.3-17.2,99.6
		C286.1,432.5,271.2,433.5,256,433.5L256,433.5z M256,12.1c14.1,0,29,20.9,40.7,56.7c-13.3-1.6-27-2.4-40.7-2.4
		c-13.8,0-27.4,0.8-40.7,2.4C227,33.1,241.9,12.1,256,12.1z M256,78.5c15.2,0,30.1,1,44.6,3c8,28.4,13.9,62.4,17.2,99.6
		c-20-1.4-40.7-2.2-61.8-2.2c-21.1,0-41.8,0.7-61.8,2.2c3.3-37.2,9.2-71.3,17.2-99.6C225.9,79.5,240.8,78.5,256,78.5L256,78.5z
		 M191,256c0-21.5,0.8-42.5,2.3-62.8c20.2-1.5,41.3-2.3,62.8-2.3c21.5,0,42.5,0.8,62.8,2.3c1.5,20.2,2.3,41.3,2.3,62.8
		c0,21.5-0.8,42.5-2.3,62.8c-20.2,1.5-41.3,2.3-62.8,2.3c-21.5,0-42.5-0.8-62.8-2.3C191.7,298.5,191,277.5,191,256z M181.1,317.8
		c-37.2-3.3-71.3-9.2-99.6-17.2c-2-14.5-3-29.4-3-44.6c0-15.2,1-30.1,3-44.6c28.4-8,62.4-13.9,99.6-17.2c-1.4,20-2.2,40.7-2.2,61.8
		C178.9,277.1,179.7,297.8,181.1,317.8z M330.9,194.2c37.2,3.3,71.3,9.2,99.6,17.2c2,14.5,3,29.4,3,44.6c0,15.2-1,30.1-3,44.6
		c-28.4,8-62.4,13.9-99.6,17.2c1.4-20,2.2-40.7,2.2-61.8S332.3,214.2,330.9,194.2L330.9,194.2z M330,182
		c-3.2-36.5-8.7-70.1-16.3-98.6c31.4,5.6,60.5,15.6,85.8,29c13.5,25.4,23.5,54.4,29,85.8C400,190.8,366.4,185.2,330,182z M182,182
		c-36.5,3.2-70.1,8.7-98.6,16.3c5.6-31.4,15.6-60.5,29-85.8c25.4-13.5,54.4-23.5,85.8-29C190.8,112,185.2,145.6,182,182z
		 M68.8,296.7C33.1,285,12.1,270.1,12.1,256c0-14.1,20.9-29,56.7-40.7c-1.6,13.3-2.4,27-2.4,40.7S67.2,283.4,68.8,296.7z M182,330
		c3.2,36.5,8.7,70.1,16.3,98.6c-31.4-5.6-60.5-15.6-85.8-29c-13.5-25.4-23.5-54.4-29-85.8C112,321.2,145.6,326.8,182,330z M330,330
		c36.5-3.2,70.1-8.7,98.6-16.3c-5.6,31.4-15.6,60.5-29,85.8c-25.4,13.5-54.4,23.5-85.8,29C321.3,400,326.8,366.4,330,330L330,330z
		 M443.2,215.3c35.7,11.8,56.7,26.7,56.7,40.7c0,14.1-20.9,28.9-56.7,40.7c1.6-13.3,2.4-27,2.4-40.7
		C445.6,242.2,444.8,228.6,443.2,215.3L443.2,215.3z M497,228.9c-11.8-10.1-30.5-19.1-55.6-26.8c-4.4-27.7-12.1-54.2-23-78.4
		C459.6,150.5,488.2,187.3,497,228.9L497,228.9z M388.3,93.6c-24.2-10.9-50.6-18.6-78.4-23c-7.7-25.2-16.8-43.8-26.8-55.6
		C324.7,23.8,361.5,52.4,388.3,93.6L388.3,93.6z M228.9,15c-10.1,11.8-19.1,30.5-26.8,55.6c-27.7,4.4-54.2,12.1-78.4,23
		C150.5,52.4,187.3,23.8,228.9,15z M93.6,123.7c-10.9,24.2-18.6,50.6-23,78.4c-25.2,7.7-43.8,16.8-55.6,26.8
		C23.8,187.3,52.4,150.5,93.6,123.7z M15,283.1c11.8,10.1,30.5,19.1,55.6,26.8c4.4,27.7,12.1,54.2,23,78.4
		C52.4,361.5,23.8,324.7,15,283.1z M123.7,418.4c24.2,10.9,50.6,18.6,78.4,23c7.7,25.2,16.8,43.8,26.8,55.6
		C187.3,488.2,150.5,459.6,123.7,418.4z M283.1,497c10.1-11.8,19.1-30.5,26.8-55.6c27.7-4.4,54.2-12.1,78.4-23
		C361.5,459.6,324.7,488.2,283.1,497L283.1,497z M418.4,388.3c10.9-24.2,18.6-50.6,23-78.4c25.2-7.7,43.8-16.8,55.6-26.8
		C488.2,324.7,459.6,361.5,418.4,388.3z"/>
	
		<linearGradient id="SVGID_00000031892695913768659270000015142271891769327497_" gradientUnits="userSpaceOnUse" x1="309.8948" y1="202.4794" x2="55.8278" y2="456.5464" gradientTransform="matrix(1.0039 0 0 -1.0039 0.1608 514.5443)">
		<stop  offset="0" style="stop-color:#CFC6E5;stop-opacity:0"/>
		<stop  offset="1" style="stop-color:#DED8ED"/>
	</linearGradient>
	<circle style="fill:url(#SVGID_00000031892695913768659270000015142271891769327497_);" cx="256" cy="256" r="228.5"/>
	
		<linearGradient id="SVGID_00000096782010914568298340000000798277300828428706_" gradientUnits="userSpaceOnUse" x1="354.1164" y1="163.9343" x2="4.8084" y2="305.4553" gradientTransform="matrix(1.0039 0 0 -1.0039 0.1608 514.5443)">
		<stop  offset="0" style="stop-color:#9ACDFB;stop-opacity:0"/>
		<stop  offset="1" style="stop-color:#9ACDFB"/>
	</linearGradient>
	<path style="fill:url(#SVGID_00000096782010914568298340000000798277300828428706_);" d="M462,408L241.6,187.6
		c-6.4-7.9-16.2-13-27.2-13c-19.4,0-35,15.7-35,35c0,11,5.1,20.8,13,27.2c1.5,1.9,17.1,17.3,17.8,18.1v13.4
		c-9,1.9-15.7,9.9-15.7,19.5c0,6.8,3.4,12.9,8.7,16.4l176.1,176.1C411.8,462.5,440,437.7,462,408L462,408z"/>
	
		<linearGradient id="SVGID_00000072997692935822275930000006714551446348747426_" gradientUnits="userSpaceOnUse" x1="92.7872" y1="244.2579" x2="494.5632" y2="-40.8201" gradientTransform="matrix(1.0039 0 0 -1.0039 0.1608 514.5443)">
		<stop  offset="0" style="stop-color:#E5E0F1"/>
		<stop  offset="1" style="stop-color:#C8BDE1"/>
	</linearGradient>
	<path style="fill:url(#SVGID_00000072997692935822275930000006714551446348747426_);" d="M232.1,266.7l9.9,9.9
		c3.6,3.6,5.7,8.5,5.7,13.7c0,10.7,8.7,19.3,19.3,19.3c11.1,0,20.2,9,20.2,20.2c0,14.5-3,28.8-8.9,42l-35.7,80.8
		c-4.9,11.1-19.4,13.8-27.9,5.2c-12.5-12.5-19.5-29.4-19.5-47v-9.4c0-24.5-9.7-48-27.1-65.3l-1.1-1.1
		c-16.3-16.3-25.5-38.4-25.5-61.5v-3.4c0-16,13-29,29-29C193.7,241.2,215.8,250.4,232.1,266.7L232.1,266.7z"/>
	
		<linearGradient id="SVGID_00000145026176133928283760000002381552488236482698_" gradientUnits="userSpaceOnUse" x1="365.294" y1="110.1622" x2="139.76" y2="275.3972" gradientTransform="matrix(1.0039 0 0 -1.0039 0.1608 514.5443)">
		<stop  offset="0" style="stop-color:#C8BDE1;stop-opacity:0"/>
		<stop  offset="1" style="stop-color:#B1A2D5"/>
	</linearGradient>
	<path style="fill:url(#SVGID_00000145026176133928283760000002381552488236482698_);" d="M267,309.6c-10.7,0-19.3-8.7-19.3-19.3
		c0-5.1-2-10-5.7-13.7l-9.9-9.9c-8.5-8.5-18.6-15.1-29.6-19.4c3.8,3.8,7.3,7.3,7.7,7.7v13.4c-9,1.9-15.7,9.9-15.7,19.5
		c0,6.8,3.4,12.9,8.7,16.4l72.8,72.8l2.3-5.3c5.8-13.2,8.9-27.6,8.9-42C287.1,318.6,278.1,309.6,267,309.6L267,309.6z"/>
	
		<linearGradient id="SVGID_00000108294878934061334280000016664535686403668626_" gradientUnits="userSpaceOnUse" x1="174.7328" y1="359.7473" x2="576.5078" y2="74.6702" gradientTransform="matrix(1.0039 0 0 -1.0039 0.1608 514.5443)">
		<stop  offset="0" style="stop-color:#E5E0F1"/>
		<stop  offset="1" style="stop-color:#C8BDE1"/>
	</linearGradient>
	<path style="fill:url(#SVGID_00000108294878934061334280000016664535686403668626_);" d="M168,15.5C103.9,39,51.8,87.4,23.4,149
		c-3.4,7.3-5,15.3-5,23.3c0,15,5.9,29.3,16.5,39.9l5.2,5.2c23.4,23.4,55.2,36.6,88.4,36.6c5,0,9-4,9-9s-4-9-9-9H101
		c-12.7,0-23-10.3-23-23s10.3-23,23-23h21.5c25.8,0,50.6-10.3,68.8-28.5l33.2-33.2c7.2-7.2,17.1-11.3,27.3-11.3
		c14.8,0,28.3-8.5,34.8-21.8c7.9-16.3-4-35.3-22.2-35.3h-42.9c-12.6,0-22.8-10.2-22.8-22.8C198.8,21,182.9,10.1,168,15.5L168,15.5z"
		/>
	
		<linearGradient id="SVGID_00000177448263894076639740000006722672073402857400_" gradientUnits="userSpaceOnUse" x1="192.3337" y1="338.7912" x2="78.5147" y2="452.6102" gradientTransform="matrix(1.0039 0 0 -1.0039 0.1608 514.5443)">
		<stop  offset="0" style="stop-color:#E5E0F1;stop-opacity:0"/>
		<stop  offset="1" style="stop-color:#FFF8E1"/>
	</linearGradient>
	<path style="fill:url(#SVGID_00000177448263894076639740000006722672073402857400_);" d="M264.5,59.8h-42.9
		c-12.6,0-22.8-10.2-22.8-22.8c0-0.7,0-1.5-0.1-2.2C115,56.4,49.9,124.2,32.3,209.3c0.8,1,1.7,1.9,2.6,2.8l5.2,5.2
		c23.4,23.4,55.2,36.6,88.4,36.6c5,0,9-4,9-9s-4-9-9-9H101c-12.7,0-23-10.3-23-23c0-12.7,10.3-23,23-23h21.5
		c25.8,0,50.6-10.3,68.8-28.5l33.2-33.2c7.2-7.2,17.1-11.3,27.3-11.3c14.8,0,28.3-8.5,34.8-21.8C294.6,78.8,282.6,59.8,264.5,59.8
		L264.5,59.8z"/>
	
		<linearGradient id="SVGID_00000128470246452106027730000017213073540843248803_" gradientUnits="userSpaceOnUse" x1="394.0538" y1="235.7823" x2="574.1019" y2="204.1073" gradientTransform="matrix(1.0039 0 0 -1.0039 0.1608 514.5443)">
		<stop  offset="0" style="stop-color:#E5E0F1"/>
		<stop  offset="1" style="stop-color:#C8BDE1"/>
	</linearGradient>
	<path style="fill:url(#SVGID_00000128470246452106027730000017213073540843248803_);" d="M506,200.8c-3.5-16.1-17.9-27.5-34.4-27.5
		h-36.1h-19.3c-32.8,0-59.4,26.6-59.4,59.4v7.2c0,28.8,23.3,52.1,52.1,52.1c14.6,0,26.5,11.9,26.5,26.5v69.2
		c0,18,23.4,25.2,33.5,10.2c20.8-31.2,35-67.2,40.5-106c1.7-11.8,2.5-23.8,2.5-36.1C512,237.1,509.9,218.6,506,200.8L506,200.8z"/>
	
		<linearGradient id="SVGID_00000129190367481041047910000008110241800040841614_" gradientUnits="userSpaceOnUse" x1="422.5988" y1="398.0383" x2="602.6478" y2="366.3633" gradientTransform="matrix(1.0039 0 0 -1.0039 0.1608 514.5443)">
		<stop  offset="0" style="stop-color:#E5E0F1"/>
		<stop  offset="1" style="stop-color:#C8BDE1"/>
	</linearGradient>
	<path style="fill:url(#SVGID_00000129190367481041047910000008110241800040841614_);" d="M484.5,140.5H408
		c-13.7,0-24.8-11.1-24.8-24.8s11.1-24.8,24.8-24.8h43.7C464.5,106.1,475.5,122.7,484.5,140.5L484.5,140.5z"/>
	
		<linearGradient id="SVGID_00000045598595257433788750000001290249453952355758_" gradientUnits="userSpaceOnUse" x1="205.963" y1="233.2325" x2="231.669" y2="207.5255" gradientTransform="matrix(1.0039 0 0 -1.0039 0.1608 514.5443)">
		<stop  offset="0" style="stop-color:#FBE0C0"/>
		<stop  offset="1" style="stop-color:#F9D2A3"/>
	</linearGradient>
	<circle style="fill:url(#SVGID_00000045598595257433788750000001290249453952355758_);" cx="214.4" cy="287.9" r="19.9"/>
	
		<linearGradient id="SVGID_00000016761194177430585350000002365218822330225087_" gradientUnits="userSpaceOnUse" x1="215.3663" y1="223.8289" x2="197.4043" y2="241.7909" gradientTransform="matrix(1.0039 0 0 -1.0039 0.1608 514.5443)">
		<stop  offset="0" style="stop-color:#FBE0C0;stop-opacity:0"/>
		<stop  offset="1" style="stop-color:#FFE99B"/>
	</linearGradient>
	<circle style="fill:url(#SVGID_00000016761194177430585350000002365218822330225087_);" cx="214.4" cy="287.9" r="16.6"/>
	
		<linearGradient id="SVGID_00000102516609510319956620000001162325896491500188_" gradientUnits="userSpaceOnUse" x1="214.0784" y1="218.1991" x2="241.3604" y2="268.9401" gradientTransform="matrix(1.0039 0 0 -1.0039 0.1608 514.5443)">
		<stop  offset="0" style="stop-color:#F9D2A3;stop-opacity:0"/>
		<stop  offset="1" style="stop-color:#F8CD9A"/>
	</linearGradient>
	<path style="fill:url(#SVGID_00000102516609510319956620000001162325896491500188_);" d="M223.3,270c1.3,2.7,2.1,5.7,2.1,8.9
		c0,11-8.9,19.9-19.9,19.9c-3.2,0-6.2-0.8-8.9-2.1c3.3,6.5,10,11,17.8,11c11,0,19.9-8.9,19.9-19.9
		C234.3,280.1,229.8,273.3,223.3,270L223.3,270z"/>
	
		<linearGradient id="SVGID_00000172428653003893056730000001869163836261597858_" gradientUnits="userSpaceOnUse" x1="209.3539" y1="250.3119" x2="217.4659" y2="250.3119" gradientTransform="matrix(1.0039 0 0 -1.0039 0.1608 514.5443)">
		<stop  offset="0" style="stop-color:#F9F7FC"/>
		<stop  offset="1" style="stop-color:#F0F8FE"/>
	</linearGradient>
	<path style="fill:url(#SVGID_00000172428653003893056730000001869163836261597858_);" d="M214.4,289.4c-2.3,0-4.2-1.9-4.2-4.2
		v-48.2h8.4v48.2C218.6,287.6,216.7,289.4,214.4,289.4z"/>
	
		<linearGradient id="SVGID_00000067235444645768099960000008591611798777410985_" gradientUnits="userSpaceOnUse" x1="208.3307" y1="249.4699" x2="220.5757" y2="251.8239" gradientTransform="matrix(1.0039 0 0 -1.0039 0.1608 514.5443)">
		<stop  offset="0" style="stop-color:#FFFFFF"/>
		<stop  offset="1" style="stop-color:#F4FAFF;stop-opacity:0"/>
	</linearGradient>
	<path style="fill:url(#SVGID_00000067235444645768099960000008591611798777410985_);" d="M215.7,289.2c1.7-0.6,2.9-2.1,2.9-4v-48.2
		h-5.8v48.2C212.8,287.1,214,288.7,215.7,289.2z"/>
	
		<linearGradient id="SVGID_00000006688429467336864320000016488015770563670206_" gradientUnits="userSpaceOnUse" x1="225.5316" y1="260.5841" x2="207.3256" y2="278.7891" gradientTransform="matrix(1.0039 0 0 -1.0039 0.1608 514.5443)">
		<stop  offset="0" style="stop-color:#F0F8FE;stop-opacity:0"/>
		<stop  offset="0.2889" style="stop-color:#DBEDFE;stop-opacity:0.289"/>
		<stop  offset="0.5915" style="stop-color:#C6E3FD;stop-opacity:0.592"/>
		<stop  offset="0.8395" style="stop-color:#BADDFC;stop-opacity:0.84"/>
		<stop  offset="1" style="stop-color:#B6DBFC"/>
	</linearGradient>
	<path style="fill:url(#SVGID_00000006688429467336864320000016488015770563670206_);" d="M210.2,244.4l8.4,8.4v-15.8h-8.4V244.4z"
		/>
	<circle class="st16" cx="214.4" cy="209.7" r="35"/>
	
		<linearGradient id="SVGID_00000014630427851604534630000000934650720411899561_" gradientUnits="userSpaceOnUse" x1="216.8658" y1="300.2244" x2="185.2798" y2="331.8104" gradientTransform="matrix(1.0039 0 0 -1.0039 0.1608 514.5443)">
		<stop  offset="0" style="stop-color:#FFF3C9;stop-opacity:0"/>
		<stop  offset="1" style="stop-color:#FFF5D1"/>
	</linearGradient>
	<circle style="fill:url(#SVGID_00000014630427851604534630000000934650720411899561_);" cx="214.4" cy="209.7" r="29.2"/>
	
		<linearGradient id="SVGID_00000057123145286233991670000012971907084260780978_" gradientUnits="userSpaceOnUse" x1="214.6012" y1="290.3252" x2="262.5772" y2="379.5522" gradientTransform="matrix(1.0039 0 0 -1.0039 0.1608 514.5443)">
		<stop  offset="0" style="stop-color:#FFF3C9;stop-opacity:0"/>
		<stop  offset="1" style="stop-color:#F8D0A0"/>
	</linearGradient>
	<path style="fill:url(#SVGID_00000057123145286233991670000012971907084260780978_);" d="M230.1,178.3c2.4,4.7,3.7,10,3.7,15.7
		c0,19.4-15.7,35-35,35c-5.6,0-11-1.3-15.7-3.7c5.8,11.5,17.6,19.4,31.3,19.4c19.4,0,35-15.7,35-35
		C249.4,195.9,241.5,184.1,230.1,178.3L230.1,178.3z"/>
	
		<linearGradient id="SVGID_00000134233676396725959150000016885052271110159511_" gradientUnits="userSpaceOnUse" x1="301.7248" y1="230.5344" x2="652.2347" y2="882.4334" gradientTransform="matrix(1.0039 0 0 -1.0039 0.1608 514.5443)">
		<stop  offset="0" style="stop-color:#9ACDFB;stop-opacity:0"/>
		<stop  offset="1" style="stop-color:#9ACDFB"/>
	</linearGradient>
	<path style="fill:url(#SVGID_00000134233676396725959150000016885052271110159511_);" d="M370.5,27c17.3,34.5,27,73.3,27,114.5
		c0,141.4-114.6,256-256,256c-41.2,0-80.1-9.7-114.5-27C69,454.4,155.8,512,256,512c141.4,0,256-114.6,256-256
		C512,155.8,454.4,69,370.5,27z"/>
</g>
</svg>
