<?xml version="1.0" encoding="utf-8"?>
<!-- Generator: Adobe Illustrator 27.0.1, SVG Export Plug-In . SVG Version: 6.00 Build 0)  -->
<svg version="1.1" id="Layer_1" xmlns="http://www.w3.org/2000/svg" xmlns:xlink="http://www.w3.org/1999/xlink" x="0px" y="0px"
	 viewBox="0 0 315.4 278.5" style="enable-background:new 0 0 315.4 278.5;" xml:space="preserve">
<style type="text/css">
	.st0{fill:#FEF9F3;}
	.st1{fill:url(#Path-10_00000165196561470554936040000015515987011804908734_);}
	.st2{fill:url(#Path-11_00000036211413425282026940000000440587971331156133_);}
	.st3{fill:#FFFFFF;}
	.st4{fill:#FEF7EF;}
	.st5{fill:#FDF1E3;}
	.st6{fill:#FEF8F1;}
	.st7{fill:url(#Path-46_00000066479914906727964720000001382784536232467365_);}
	.st8{fill:url(#Path-47_00000036238233202583117510000016214583012785546686_);}
	.st9{fill:url(#Path-48_00000129919465183871623650000005378533263698346932_);}
	.st10{fill:#FDEEDD;}
	.st11{fill:url(#Path-50_00000100380264029305074320000015278864837385175713_);}
	.st12{fill:url(#Path-51_00000093174954827873526120000001534333994897327274_);}
</style>
<g id="_18" transform="translate(30.297 4.902)">
	<path id="Path-5" class="st0" d="M128.6,250c69,0,125-56,125-125s-56-125-125-125C59.7,0,3.8,56,3.8,125S59.7,250,128.6,250z"/>
	<path id="Path-6" class="st0" d="M8.2,51.8c3.3-1.1,5.1-4.6,4.1-7.9s-4.6-5.1-7.9-4.1c-3.3,1.1-5.1,4.6-4.1,7.9l0,0
		C1.4,51,4.9,52.8,8.2,51.8z"/>
	<path id="Path-7" class="st0" d="M21.9,31.3c2.2-0.7,3.5-3.1,2.7-5.4s-3.1-3.5-5.4-2.7c-2.2,0.7-3.5,3.1-2.7,5.4l0,0
		C17.3,30.8,19.7,32,21.9,31.3z"/>
	<path id="Path-8" class="st0" d="M254.5,55.8c3.9-3.6,4.2-9.6,0.6-13.5s-9.6-4.2-13.5-0.6s-4.2,9.6-0.6,13.5l0,0
		C244.6,59,250.6,59.3,254.5,55.8z"/>
	<path id="Path-9" class="st0" d="M248,192.3c1.6-1.5,1.8-4,0.3-5.7c-1.5-1.6-4-1.8-5.7-0.3c-1.6,1.5-1.8,4-0.3,5.7l0,0
		C243.8,193.6,246.3,193.7,248,192.3z"/>
	
		<linearGradient id="Path-10_00000153668837178430714980000016405009326570796959_" gradientUnits="userSpaceOnUse" x1="-310.9488" y1="56.5909" x2="-309.9578" y2="56.5909" gradientTransform="matrix(10.056 0 0 10.056 3155.5388 -345.1782)">
		<stop  offset="0" style="stop-color:#AE9ED3"/>
		<stop  offset="1" style="stop-color:#917CC4"/>
	</linearGradient>
	<path id="Path-10" style="fill:url(#Path-10_00000153668837178430714980000016405009326570796959_);" d="M33.7,228.9
		c2.8,0,5-2.2,5-5s-2.2-5-5-5s-5,2.2-5,5l0,0C28.6,226.6,30.9,228.9,33.7,228.9L33.7,228.9z"/>
	
		<linearGradient id="Path-11_00000026142713013234636140000006408442681654171829_" gradientUnits="userSpaceOnUse" x1="-304.0246" y1="70.6027" x2="-303.0546" y2="70.6027" gradientTransform="matrix(8.046 0 0 8.046 2667.5925 -558.4689)">
		<stop  offset="0" style="stop-color:#AE9ED3"/>
		<stop  offset="1" style="stop-color:#917CC4"/>
	</linearGradient>
	<path id="Path-11" style="fill:url(#Path-11_00000026142713013234636140000006408442681654171829_);" d="M225.3,13.6
		c2.2,0,4-1.8,4-4s-1.8-4-4-4s-4,1.8-4,4l0,0C221.3,11.8,223.1,13.6,225.3,13.6L225.3,13.6z"/>
	<g transform="matrix(1, 0, 0, 1, -30.3, -4.9)">
		<path id="Path-12" class="st3" d="M282.4,113.5L240.5,224c-1.4,3.7-5.5,5.5-9.2,4.1h-0.1l-106.7-42c-3.7-1.4-5.5-5.6-4-9.2
			c0,0,0,0,0-0.1L176,35.3c1.4-3.7,5.5-5.5,9.2-4.1h0.1l77.3,30.4L282.4,113.5z"/>
	</g>
	<path id="Path-13" class="st4" d="M203.9,177.3l-64-25.1c-1-0.2-1.3-1.3-1-2.3s1.3-1.3,2.3-1l64,25.1c1,0.3,1.3,1.3,1,2.3
		C205.7,177.1,204.8,177.5,203.9,177.3z"/>
	<path id="Path-14" class="st4" d="M131.9,148.9l-11.3-4.5c-1-0.3-1.3-1.3-1-2.3s1.3-1.3,2.3-1l11.3,4.5c1,0.3,1.3,1.3,1,2.3
		S132.9,149.1,131.9,148.9z"/>
	<path id="Path-15" class="st4" d="M210.5,160l-28.6-11.3c-1-0.3-1.3-1.3-1-2.3s1.3-1.3,2.3-1l28.6,11.3c1,0.2,1.3,1.3,1,2.3
		S211.5,160.2,210.5,160z"/>
	<path id="Path-16" class="st4" d="M169.8,143.9l-41.7-16.3c-1-0.3-1.3-1.3-1-2.3s1.3-1.3,2.3-1l41.7,16.3c1,0.2,1.3,1.3,1,2.3
		S170.8,144.1,169.8,143.9z"/>
	<path id="Path-17" class="st4" d="M217.7,142.9l-11-4.3c-1-0.3-1.3-1.3-1-2.3s1.3-1.3,2.3-1l11,4.3c1,0.3,1.3,1.3,1,2.3
		C219.8,142.9,218.8,143.1,217.7,142.9z"/>
	<path id="Path-18" class="st4" d="M196.4,134.3l-61-24.1c-1-0.2-1.3-1.3-1-2.3s1.2-1.3,2.2-1l61,24.1c1,0.2,1.3,1.3,1,2.3
		c-0.2,0.8-1,1.4-1.8,1.2C196.7,134.4,196.5,134.4,196.4,134.3z"/>
	<path id="Path-19" class="st4" d="M147.9,177.1l-3.8-1.5c-1-0.2-1.3-1.3-1-2.3s1.2-1.3,2.2-1l3.8,1.5c1,0.2,1.3,1.3,1,2.3
		C149.8,176.9,148.8,177.3,147.9,177.1z"/>
	<path id="Path-20" class="st4" d="M137.1,172.8l-22.6-9.1c-1-0.3-1.3-1.3-1-2.3s1.3-1.3,2.3-1l22.6,9.1c1,0.2,1.3,1.3,1,2.3
		C139,172.7,138,173.1,137.1,172.8z"/>
	<path id="Path-21" class="st4" d="M225.3,125.8l-39.4-15.6c-1-0.2-1.3-1.3-1-2.3s1.2-1.3,2.2-1l39.4,15.6c1,0.3,1.3,1.3,1,2.3
		C227.2,125.6,226.2,126.1,225.3,125.8z"/>
	<path id="Path-22" class="st4" d="M173,105.1L142.6,93c-1-0.3-1.3-1.3-1-2.3s1.3-1.3,2.3-1l30.4,12.3c1,0.3,1.3,1.3,1,2.3
		C175,105.4,174,105.6,173,105.1z"/>
	<path id="Path-23" class="st5" d="M210,74.7l-51.2-20.1c-1.2-0.4-1.7-1.7-1.3-2.8c0-0.1,0-0.1,0.1-0.2c0.4-1.1,1.7-1.7,2.8-1.3
		c0.1,0,0.1,0,0.2,0.1l51.2,20.1c1.2,0.5,1.7,1.9,1.2,3C212.4,74.6,211.1,75.2,210,74.7z"/>
	<path id="Path-24" class="st5" d="M173.5,74.4L154,66.6c-1.2-0.4-1.7-1.7-1.3-2.8c0-0.1,0-0.1,0.1-0.2c0.4-1.1,1.7-1.7,2.8-1.3
		c0.1,0,0.1,0,0.2,0.1l19.6,7.8c1.2,0.4,1.7,1.7,1.3,2.8c0,0.1,0,0.1-0.1,0.2C176.1,74.4,174.7,74.9,173.5,74.4
		C173.6,74.5,173.6,74.4,173.5,74.4z"/>
	<path id="Path-25" class="st6" d="M232.3,56.8L220.5,87c-1.6,4.3,0.5,9.1,4.8,10.8l26.9,10.6"/>
	<g transform="matrix(1, 0, 0, 1, -30.3, -4.9)">
		<path id="Path-26" class="st3" d="M163.9,66.1l49,107.4c1.6,3.6,0,7.9-3.7,9.5h-0.1l-104.9,46.3c-3.6,1.6-7.9,0-9.5-3.6
			c0,0,0-0.1-0.1-0.1l-61-138.8c-1.6-3.6,0-7.9,3.7-9.5h0.1l76.1-33.7L163.9,66.1z"/>
	</g>
	<path id="Path-27" class="st4" d="M148.4,143.6l-63,27.9c-0.8,0.4-1.8,0.1-2.3-0.8c-0.4-0.8-0.1-1.8,0.8-2.3l63-27.9
		c0.8-0.4,1.8-0.1,2.3,0.8C149.6,142.2,149.3,143.2,148.4,143.6C148.5,143.6,148.4,143.6,148.4,143.6z"/>
	<path id="Path-28" class="st4" d="M77.6,174.8l-11,4.8c-0.8,0.4-1.8,0.1-2.3-0.8c-0.4-0.8-0.1-1.8,0.8-2.3l11-4.8
		c0.8-0.4,1.8-0.1,2.3,0.8C78.9,173.5,78.6,174.5,77.6,174.8z"/>
	<path id="Path-29" class="st4" d="M140.6,126.8l-28.1,12.3c-0.8,0.4-1.8,0.1-2.3-0.8c-0.4-0.8-0.1-1.8,0.8-2.3l28.1-12.3
		c0.8-0.4,1.8-0.1,2.3,0.8c0.5,0.7,0.3,1.7-0.5,2.1C140.8,126.7,140.7,126.7,140.6,126.8z"/>
	<path id="Path-30" class="st4" d="M100.7,144.4l-40.9,18.1c-0.8,0.4-1.8,0.1-2.3-0.8c-0.4-0.8-0.1-1.8,0.8-2.3l40.9-18.1
		c0.8-0.4,1.8-0.1,2.3,0.8C102,143.1,101.7,144.1,100.7,144.4z"/>
	<path id="Path-31" class="st4" d="M133.9,109.4l-10.8,4.8c-0.8,0.4-1.8,0.1-2.3-0.8c-0.4-0.8-0.1-1.8,0.8-2.3l10.8-4.8
		c0.8-0.4,1.8-0.1,2.3,0.8c0.4,0.8,0.2,1.7-0.6,2.2C134,109.3,133.9,109.4,133.9,109.4z"/>
	<path id="Path-32" class="st4" d="M112.8,118.7l-60,26.7c-0.8,0.4-1.8,0.1-2.3-0.8c-0.4-0.8-0.1-1.8,0.8-2.3l60.3-26.7
		c0.8-0.4,1.8-0.1,2.3,0.8C114,117.5,113.8,118.5,112.8,118.7z"/>
	<path id="Path-33" class="st4" d="M109,183.4l-3.8,1.8c-0.8,0.4-1.8,0.1-2.3-0.8c-0.4-0.8-0.1-1.8,0.8-2.3l3.8-1.8
		c0.8-0.4,1.8-0.1,2.3,0.8C110.2,181.9,109.8,182.9,109,183.4z"/>
	<path id="Path-34" class="st4" d="M98.2,188.1l-22.3,9.8c-0.8,0.4-1.8,0.1-2.3-0.8c-0.4-0.8-0.1-1.8,0.8-2.3l22.3-9.8
		c0.8-0.4,1.8-0.1,2.3,0.8c0.5,0.7,0.2,1.7-0.5,2.1C98.4,188,98.3,188.1,98.2,188.1z"/>
	<path id="Path-35" class="st4" d="M126.8,92.3l-38.7,17.1c-0.8,0.4-1.8,0.1-2.3-0.8c-0.4-0.8-0.1-1.8,0.8-2.3l38.7-17.1
		c0.8-0.4,1.8-0.1,2.3,0.8C128,90.9,127.6,91.9,126.8,92.3z"/>
	<path id="Path-36" class="st4" d="M75.6,114.9L45.7,128c-0.8,0.4-1.8,0.1-2.3-0.8c-0.4-0.8-0.1-1.8,0.8-2.3l29.9-13.1
		c0.8-0.4,1.8-0.1,2.3,0.8c0.5,0.7,0.2,1.7-0.5,2.1C75.8,114.9,75.7,114.9,75.6,114.9z"/>
	<path id="Path-37" class="st5" d="M79.8,67.2L29.4,89.3c-1.1,0.5-2.4,0-2.9-1.1c0-0.1,0-0.1-0.1-0.2c-0.5-1.1,0-2.4,1.1-2.9
		c0.1,0,0.1-0.1,0.2-0.1l50.2-22.1c1.1-0.5,2.4,0,2.9,1.1c0,0.1,0.1,0.1,0.1,0.2C81.4,65.2,80.9,66.6,79.8,67.2z"/>
	<path id="Path-38" class="st5" d="M54,93.1l-19.3,8.5c-1.1,0.5-2.4,0-2.9-1.1c0-0.1,0-0.1-0.1-0.2c-0.5-1.1,0-2.4,1.1-2.9
		c0.1,0,0.1,0,0.2-0.1l19.3-8.5c1.1-0.5,2.4,0,2.9,1.1c0,0.1,0.1,0.1,0.1,0.2C55.7,91.2,55.2,92.6,54,93.1L54,93.1z"/>
	<path id="Path-39" class="st6" d="M83.1,38.7l13.1,29.7c2,4.1,6.8,6,11,4.3l26.4-11.6"/>
	<g transform="matrix(1, 0, 0, 1, -30.3, -4.9)">
		<path id="Path-40" class="st3" d="M241,74.3l1.8,150.9c0,5.1-4.1,9.3-9.2,9.3l0,0H87.1c-5.1,0-9.3-4.1-9.3-9.3l0,0V31.3
			c0-5.1,4.1-9.3,9.2-9.3l0,0h106.2L241,74.3z"/>
	</g>
	<path id="Path-41" class="st4" d="M118.8,199.4h-5.3c-1.2,0-2.3-1-2.3-2.2l0,0c0-1.2,1-2.3,2.2-2.3l0,0h5.3c1.3,0,2.2,1.1,2.2,2.3
		C121,198.4,120,199.4,118.8,199.4z"/>
	<path id="Path-42" class="st4" d="M104,199.4H72.8c-1.3,0-2.2-1.1-2.2-2.3s1-2.2,2.2-2.2H104c1.3,0,2.2,1.1,2.2,2.3
		S105.2,199.4,104,199.4z"/>
	<path id="Path-43" class="st5" d="M144.6,48.8H74.4c-1.7,0-3-1.4-3-3c0-1.7,1.4-3,3-3h70.3c1.7,0,3,1.4,3,3
		C147.6,47.4,146.3,48.7,144.6,48.8z"/>
	<path id="Path-44" class="st5" d="M101.2,65.6H74.4c-1.7,0-3-1.4-3-3c0-1.7,1.4-3,3-3h26.9c1.7,0,3,1.4,3,3
		C104.1,64.2,102.8,65.5,101.2,65.6z"/>
	<path id="Path-45" class="st6" d="M163,17.3v41.5c0.1,5.9,4.9,10.5,10.8,10.6h36.9"/>
	<path id="Shape" class="st4" d="M76.9,175.8c-3.9-0.1-7.1-3.4-7-7.3v-63.9c-0.1-3.9,3-7.2,6.9-7.3c0.1,0,0.1,0,0.2,0h110.7
		c3.8,0,6.8,3.2,6.8,7c0,0.1,0,0.2,0,0.3v63.9c0.1,3.9-3,7.2-6.9,7.3c-0.1,0-0.1,0-0.2,0H76.9z"/>
	<g transform="matrix(1, 0, 0, 1, -30.3, -4.9)">
		
			<linearGradient id="Path-46_00000057106392060066446880000013724421838586605731_" gradientUnits="userSpaceOnUse" x1="-275.1507" y1="4.5559" x2="-274.5937" y2="5.3899" gradientTransform="matrix(109.0607 0 0 125.1533 30148.3672 -480.0896)">
			<stop  offset="0" style="stop-color:#FBDFBE"/>
			<stop  offset="1" style="stop-color:#F9D1A2"/>
		</linearGradient>
		<path id="Path-46" style="fill:url(#Path-46_00000057106392060066446880000013724421838586605731_);" d="M210.6,105.8
			c-2.5,0-8.5-2.3-10.5-3c-10.5-4.8-27.9-18.9-37.4-18.9s-26.9,13.8-37.4,18.9c-1.8,0.8-8,3-10.5,3c-3.8,0.2-6.7,3.4-6.6,7.2
			c0,0.1,0,0.2,0,0.4c1.9,16,5.2,31.9,10,47.3c8.5,26.4,32.1,42.2,41.2,47.5c2.2,1.3,4.9,1.3,7,0c9-5.3,32.6-21.1,40.7-47.5
			c4.8-15.4,8.2-31.2,10-47.3c0.5-3.6-2-7-5.6-7.5C211.2,105.8,210.9,105.8,210.6,105.8z"/>
	</g>
	
		<linearGradient id="Path-47_00000089561506108369243100000003428450570476452001_" gradientUnits="userSpaceOnUse" x1="-334.3356" y1="6.628" x2="-334.9306" y2="5.985" gradientTransform="matrix(81.841 0 0 96.3 27524.3105 -470.9236)">
		<stop  offset="0" style="stop-color:#FBDFBE"/>
		<stop  offset="1" style="stop-color:#F9D1A2"/>
	</linearGradient>
	<path id="Path-47" style="fill:url(#Path-47_00000089561506108369243100000003428450570476452001_);" d="M173.3,112.7
		c-1.2,9.1-2.9,18.1-5.3,26.9c-0.5,2.1-1.1,4.2-1.8,6.3c-0.5,2-1.1,3.9-1.8,5.8c-6.3,20.1-23.6,32.7-32.1,37.7h-0.5
		c-0.8-0.6-1.6-1.1-2.5-1.5c-9-6-23.6-17.9-29.1-36c-1.3-4.3-2.5-8.3-3.5-12.3c-2.3-8.8-4.1-17.8-5.3-26.9c3.5-0.7,6.8-1.8,10-3.3
		c4.4-2.2,8.7-4.6,12.8-7.3c5-3,13.8-8.5,17.3-9h0.5c3.3,0,12.6,5.8,17.8,9.1c4.1,2.6,8.4,5.1,12.8,7.3
		C166.2,110.8,169.7,111.9,173.3,112.7z"/>
	
		<linearGradient id="Path-48_00000011728394852022348880000010665779102850277038_" gradientUnits="userSpaceOnUse" x1="-334.4773" y1="6.8489" x2="-334.1893" y2="7.2478" gradientTransform="matrix(73.306 0 0 85.489 24639.9336 -470.9281)">
		<stop  offset="0" style="stop-color:#F8CD9A"/>
		<stop  offset="1" style="stop-color:#F9D4A8;stop-opacity:0"/>
	</linearGradient>
	<path id="Path-48" style="fill:url(#Path-48_00000011728394852022348880000010665779102850277038_);" d="M126.6,102.1l5.5-9.1
		l38.2,38.2L148.7,173l-12.6,5.5l-39.2-39l6.8-6l22.3-30.7L126.6,102.1z"/>
	<path id="Path-49" class="st10" d="M117.5,126.5l-18.3,10.1l-2.3,3l36.4,2.3l-1-48.8L117.5,126.5z"/>
	
		<linearGradient id="Path-50_00000018921011513299173220000010276096477571793822_" gradientUnits="userSpaceOnUse" x1="-331.7118" y1="12.6923" x2="-330.7108" y2="12.6923" gradientTransform="matrix(40.418 0 0 46.263 13498.9727 -470.9355)">
		<stop  offset="1.100000e-02" style="stop-color:#FDEFDF"/>
		<stop  offset="1" style="stop-color:#FFFFFF"/>
	</linearGradient>
	<path id="Path-50" style="fill:url(#Path-50_00000018921011513299173220000010276096477571793822_);" d="M132.1,93.1v46.3H97
		c-2.3-8.8-4.1-17.8-5.3-26.9c3.5-0.7,6.8-1.8,10-3.3c4.4-2.2,8.7-4.6,12.8-7.3C119.8,99.1,128.6,93.6,132.1,93.1z"/>
	
		<linearGradient id="Path-51_00000075854921266049980880000001048200484614607777_" gradientUnits="userSpaceOnUse" x1="-330.2146" y1="11.9283" x2="-330.9786" y2="11.3771" gradientTransform="matrix(35.9 0 0 49.784 12009.6357 -424.4031)">
		<stop  offset="1.100000e-02" style="stop-color:#FDEFDF"/>
		<stop  offset="1" style="stop-color:#FFFFFF"/>
	</linearGradient>
	<path id="Path-51" style="fill:url(#Path-51_00000075854921266049980880000001048200484614607777_);" d="M168,139.6
		c-0.5,2.1-1.1,4.2-1.8,6.3c-0.5,2-1.1,3.9-1.8,5.8c-6.3,20.1-23.6,32.7-32.1,37.7H132v-49.8H168z"/>
</g>
</svg>
