<?xml version="1.0" encoding="utf-8"?>
<!-- Generator: Adobe Illustrator 27.0.1, SVG Export Plug-In . SVG Version: 6.00 Build 0)  -->
<svg version="1.1" id="Layer_1" xmlns="http://www.w3.org/2000/svg" xmlns:xlink="http://www.w3.org/1999/xlink" x="0px" y="0px"
	 viewBox="0 0 280 316" style="enable-background:new 0 0 280 316;" xml:space="preserve">
<style type="text/css">
	.st0{fill:#FEFBF7;}
	.st1{filter:url(#i43qeip7bb);}
	.st2{fill:#FFFFFF;}
	.st3{filter:url(#iqnezsptdd);}
	.st4{fill:#FEFAF4;}
	.st5{fill:url(#SVGID_1_);}
	.st6{fill:url(#SVGID_00000173871909942731431560000016033097372174349490_);}
	.st7{fill:#F8CD9A;}
	.st8{filter:url(#ffj4j9ab7f);}
	.st9{fill:url(#SVGID_00000006679908216178024160000016726330888587920288_);}
	.st10{fill:url(#SVGID_00000182491600130084967780000017134767825862968194_);}
</style>
<filter  filterUnits="userSpaceOnUse" height="275.271" id="iqnezsptdd" width="228.128" x="28.855" y="17.39">
	<feOffset  dy="11"></feOffset>
	<feGaussianBlur  result="blur-3" stdDeviation="11"></feGaussianBlur>
	<feFlood  flood-color="#657a93" flood-opacity=".18"></feFlood>
	<feComposite  in2="blur-3" operator="in"></feComposite>
	<feComposite  in="SourceGraphic" operator="over"></feComposite>
</filter>
<filter  filterUnits="userSpaceOnUse" height="294.126" id="i43qeip7bb" width="267.94" x="12.05" y="9.519">
	<feOffset  dy="11"></feOffset>
	<feGaussianBlur  result="blur" stdDeviation="11"></feGaussianBlur>
	<feFlood  flood-color="#657a93" flood-opacity=".18"></feFlood>
	<feComposite  in2="blur" operator="in"></feComposite>
	<feComposite  in="SourceGraphic" operator="over"></feComposite>
</filter>
<filter  filterUnits="userSpaceOnUse" height="112.685" id="ffj4j9ab7f" width="112.176" x="152.248" y="168.716">
	<feOffset  dy="5"></feOffset>
	<feGaussianBlur  result="blur-4" stdDeviation="4"></feGaussianBlur>
	<feFlood  flood-color="#1d4bff" flood-opacity=".22"></feFlood>
	<feComposite  in2="blur-4" operator="in"></feComposite>
	<feComposite  in="SourceGraphic" operator="over"></feComposite>
</filter>
<g>
	<path class="st0" d="M27.2,57.2c3.1-1,4.8-4.4,3.8-7.5c-0.9-3.1-4.2-4.9-7.4-4c-3.1,0.9-4.9,4.2-4,7.4c0,0.1,0.1,0.2,0.1,0.3
		C20.7,56.5,24.1,58.2,27.2,57.2C27.2,57.2,27.2,57.2,27.2,57.2z"/>
	<path class="st0" d="M40.1,37.8c2.1-0.7,3.2-3.1,2.5-5.2c-0.7-2-2.9-3.1-4.9-2.5c-2.1,0.7-3.3,3-2.6,5.1
		C35.7,37.3,38,38.5,40.1,37.8C40.1,37.8,40.1,37.8,40.1,37.8z"/>
	<path class="st0" d="M233.9,58.2c3.7-3.4,3.9-9.1,0.6-12.8c-3.3-3.7-9-3.9-12.7-0.6c0,0,0,0,0,0c-3.7,3.4-3.9,9.1-0.6,12.8
		C224.5,61.3,230.2,61.6,233.9,58.2C233.8,58.3,233.9,58.3,233.9,58.2z"/>
	<path class="st0" d="M262.6,41.7c1.5-1.4,1.7-3.8,0.2-5.4c-1.4-1.5-3.8-1.7-5.3-0.3c0,0,0,0,0,0c-1.5,1.4-1.7,3.8-0.2,5.4
		C258.7,43,261.1,43.2,262.6,41.7C262.6,41.7,262.6,41.7,262.6,41.7z"/>
	<path class="st0" d="M37.6,253c1.5-1.4,1.7-3.8,0.2-5.4c-1.4-1.5-3.8-1.7-5.3-0.3c0,0,0,0,0,0c-1.5,1.4-1.7,3.8-0.2,5.4
		C33.6,254.3,36,254.4,37.6,253C37.6,253,37.6,253,37.6,253z"/>
	<path class="st0" d="M133,265.6c64.9,0,117.5-52.9,117.5-118.2c0-65.3-52.6-118.2-117.5-118.2S15.4,82.1,15.4,147.4
		C15.4,212.7,68.1,265.6,133,265.6z"/>
	<g class="st1">
		<path class="st2" d="M60.7,132.4L45.3,66.7c-1.2-4.8,1.8-9.7,6.6-10.9l101.4-24.3l57.4,39.2l35.9,144.4c1.2,4.8-1.8,9.7-6.6,10.9
			l-140,33.3c-4.8,1.2-9.7-1.8-10.9-6.7L59.5,127.4"/>
	</g>
	<g>
		<path class="st2" d="M237.7,127.9l-54.1,138.5c-1.8,4.6-7,6.9-11.6,5.1c-0.1,0-0.2-0.1-0.2-0.1L38.6,216.6
			c-4.6-1.9-6.9-7.1-5-11.7c0-0.1,0-0.1,0.1-0.2l71.6-177c1.8-4.6,7-6.9,11.6-5.1c0.1,0,0.2,0.1,0.2,0.1l96.7,39.7L237.7,127.9z"/>
	</g>
	<path class="st2" d="M213.6,62.4l-15.4,38.1c-2,5.5,0.6,11.5,5.9,13.8l33.7,13.6"/>
	<g class="st3">
		<path class="st2" d="M224,239.6c0,5-4,9-9,9c0,0,0,0,0,0H70.9c-5,0-9-4-9-9c0,0,0,0,0,0V48.4c0-5,4-9,9-9c0,0,0,0,0,0h104.5
			L222.3,91l0.9,86.5L224,239.6z"/>
	</g>
	<path class="st4" d="M197.4,194h-86.5c-1.4,0-2.6-1.2-2.6-2.6c0-1.4,1.2-2.6,2.6-2.6h86.5c1.4,0,2.6,1.2,2.6,2.6
		C199.9,192.8,198.8,193.9,197.4,194z"/>
	
		<linearGradient id="SVGID_1_" gradientUnits="userSpaceOnUse" x1="-149.296" y1="528.199" x2="-148.302" y2="528.199" gradientTransform="matrix(20.387 0 0 -5.24 3126.3599 2959.1255)">
		<stop  offset="0" style="stop-color:#AE9ED3"/>
		<stop  offset="1" style="stop-color:#917CC4"/>
	</linearGradient>
	<path class="st5" d="M100.4,194H85.2c-1.4,0-2.6-1.2-2.6-2.6c0-1.4,1.2-2.6,2.6-2.6h15.2c1.4,0,2.6,1.2,2.6,2.6
		C103,192.8,101.8,194,100.4,194z"/>
	<path class="st4" d="M197.1,170.4h-38.6c-1.4,0-2.6-1.2-2.6-2.6c0-1.4,1.2-2.6,2.6-2.6h38.6c1.4,0,2.6,1.2,2.6,2.6
		C199.5,169.5,198.5,170.4,197.1,170.4z"/>
	<path class="st4" d="M142.3,170.4H85.9c-1.4,0-2.6-1.2-2.6-2.6c0-1.4,1.2-2.6,2.6-2.6h56.4c1.4,0,2.6,1.2,2.6,2.6
		c0.1,1.4-1,2.6-2.4,2.6C142.5,170.4,142.4,170.4,142.3,170.4z"/>
	
		<linearGradient id="SVGID_00000181063752149452592690000002404615100376968081_" gradientUnits="userSpaceOnUse" x1="-149.2081" y1="528.3994" x2="-148.2121" y2="528.3994" gradientTransform="matrix(20.149 0 0 -5.261 3186.666 2924.4094)">
		<stop  offset="0" style="stop-color:#AE9ED3"/>
		<stop  offset="1" style="stop-color:#917CC4"/>
	</linearGradient>
	<path style="fill:url(#SVGID_00000181063752149452592690000002404615100376968081_);" d="M197.8,147.1h-14.9
		c-1.4,0-2.6-1.2-2.6-2.6c0-1.4,1.2-2.6,2.6-2.6h14.9c1.4,0,2.6,1.2,2.6,2.6C200.4,145.9,199.3,147.1,197.8,147.1z"/>
	<path class="st4" d="M169,147.1H86.6c-1.4,0-2.6-1.2-2.6-2.6c0-1.4,1.2-2.6,2.6-2.6H169c1.4,0,2.6,1.2,2.6,2.6
		C171.7,145.9,170.5,147.1,169,147.1z"/>
	<path class="st4" d="M132.1,219.7h-5.2c-1.4,0-2.6-1.2-2.6-2.6c0-1.4,1.2-2.6,2.6-2.6h5.2c1.4,0,2.6,1.2,2.6,2.6
		C134.5,218.4,133.4,219.5,132.1,219.7z"/>
	<path class="st4" d="M117.4,219.7H86.6c-1.4,0-2.6-1.2-2.6-2.6c0-1.4,1.2-2.6,2.6-2.6h30.6c1.4,0,2.6,1.2,2.6,2.6
		c0.2,1.3-0.7,2.4-2,2.6C117.7,219.7,117.6,219.7,117.4,219.7z"/>
	<path class="st4" d="M198.5,123.8h-53.1c-1.4,0-2.6-1.2-2.6-2.6c0-1.4,1.2-2.6,2.6-2.6h53.1c1.4,0,2.6,1.2,2.6,2.6
		C201.1,122.6,200,123.8,198.5,123.8z"/>
	<path class="st4" d="M128.6,123.8H87.3c-1.4,0-2.6-1.2-2.6-2.6c0-1.4,1.2-2.6,2.6-2.6h41c1.4,0,2.6,1.2,2.6,2.6
		C131,122.5,130,123.7,128.6,123.8C128.6,123.8,128.6,123.8,128.6,123.8z"/>
	<path class="st7" d="M157.4,71.1H88.2c-1.8,0-3.3-1.4-3.3-3.2c0-0.1,0-0.1,0-0.2c-0.1-1.8,1.4-3.3,3.1-3.3c0.1,0,0.1,0,0.2,0h69.2
		c1.8,0,3.3,1.4,3.3,3.2c0,0.1,0,0.1,0,0.2C160.6,69.5,159.2,71,157.4,71.1z"/>
	<path class="st7" d="M114.6,87.7H88.3c-1.8,0-3.3-1.4-3.3-3.2c0,0,0-0.1,0-0.1c0-1.8,1.4-3.3,3.2-3.3c0,0,0.1,0,0.1,0h26.5
		c1.8,0,3.3,1.4,3.3,3.2c0,0,0,0.1,0,0.1C117.9,86.1,116.4,87.5,114.6,87.7z"/>
	<path class="st0" d="M175.3,39.4v41c0.1,5.8,4.9,10.4,10.7,10.5h36.3"/>
	<g class="st8">
		
			<linearGradient id="SVGID_00000013872506293329940740000016764665478784093314_" gradientUnits="userSpaceOnUse" x1="-155.0014" y1="575.8309" x2="-154.4444" y2="574.9969" gradientTransform="matrix(88.6901 0 0 -88.686 13931.0889 51252.1602)">
			<stop  offset="0" style="stop-color:#FCE9D3"/>
			<stop  offset="1" style="stop-color:#FBE0BF"/>
		</linearGradient>
		<path style="fill:url(#SVGID_00000013872506293329940740000016764665478784093314_);" d="M252.4,220.1c0.1,5.5-1,10.9-3.1,16
			c-4.8,12.4-14.9,22-27.5,26.2c-4.4,1.4-8.9,2.2-13.5,2.1c-24.5,0.1-44.5-19.6-44.6-44.1c-0.1-24.5,19.6-44.5,44.1-44.6
			c24.5-0.1,44.5,19.6,44.6,44.1C252.4,219.9,252.4,220,252.4,220.1z"/>
	</g>
	
		<linearGradient id="SVGID_00000130612674113311023210000010859630961025335481_" gradientUnits="userSpaceOnUse" x1="-152.1516" y1="570.8481" x2="-152.8056" y2="571.5371" gradientTransform="matrix(39.6454 0 0 -36.5936 6254.1235 21122.416)">
		<stop  offset="1.100000e-02" style="stop-color:#FDF4E9"/>
		<stop  offset="1" style="stop-color:#FFFFFF"/>
	</linearGradient>
	<path style="fill:url(#SVGID_00000130612674113311023210000010859630961025335481_);" d="M208.1,201.8c-8.2,0.1-15.2,5.7-17.2,13.6
		c-2.6,0-3,0-3.5,0.7c-0.8,0.7-0.9,2-0.2,2.8c0,0.1,0.1,0.1,0.2,0.2l4.6,4.7c0.6,0.8,1.8,0.9,2.6,0.3c0.1-0.1,0.2-0.2,0.3-0.3
		l4.6-4.7c0.8-0.7,0.9-2,0.2-2.8c0-0.1-0.1-0.1-0.2-0.2c-0.3-0.4-0.8-0.6-1.3-0.7h-1.5c2.3-6.6,9.5-10,16.1-7.7
		c0.1,0,0.2,0.1,0.2,0.1c6.5,2.5,9.8,10.1,7.4,16.8c-1.8,4.9-6.5,8.2-11.7,8.3c-3.5,0.1-6.8-1.4-9.1-4c-0.9-1-2.5-1.1-3.5-0.2
		c-0.1,0.1-0.2,0.1-0.2,0.2c-1.1,1-1.1,2.7-0.1,3.7c0,0,0.1,0.1,0.1,0.1c6.5,7.1,17.5,7.7,24.7,1.2c0.2-0.2,0.4-0.3,0.5-0.5
		c7.1-7.1,7.4-18.5,0.6-26C217.4,203.8,212.9,201.8,208.1,201.8z"/>
</g>
</svg>
