<?xml version="1.0" encoding="utf-8"?>
<!-- Generator: Adobe Illustrator 27.0.1, SVG Export Plug-In . SVG Version: 6.00 Build 0)  -->
<svg version="1.1" id="Layer_1" xmlns="http://www.w3.org/2000/svg" xmlns:xlink="http://www.w3.org/1999/xlink" x="0px" y="0px"
	 viewBox="0 0 229.7 273.6" style="enable-background:new 0 0 229.7 273.6;" xml:space="preserve">
<style type="text/css">
	.st0{fill:#FEFBF7;}
	.st1{fill:none;stroke:#707070;stroke-width:2;stroke-linecap:round;stroke-linejoin:round;stroke-miterlimit:10;}
	.st2{filter:url(#zm4uu8zxkc);}
	.st3{fill:#FFFFFF;}
	.st4{fill:url(#SVGID_1_);}
	.st5{fill:#F5F5F5;}
	.st6{fill:url(#SVGID_00000085943436245625205140000010752141745444091015_);}
	.st7{fill:url(#SVGID_00000086670495441930241750000001302245121044991384_);}
	.st8{fill:url(#SVGID_00000156577243167768236260000004409759683906713021_);}
	.st9{fill:url(#SVGID_00000114035652274585117320000016392312762776216970_);}
	.st10{fill:url(#SVGID_00000018949887202294493750000016392254509925256074_);}
	.st11{fill:url(#SVGID_00000096771761737533106020000003671577646416102550_);}
	.st12{fill:url(#SVGID_00000045582705944104175300000014412228875165174436_);}
	.st13{fill:url(#SVGID_00000041253764773584596540000013717087976097069485_);}
	.st14{fill:url(#SVGID_00000103968345127186650080000015717234926571326128_);}
	.st15{fill:url(#SVGID_00000011009329392890509640000003718522372974629811_);}
	.st16{fill:#FEF9F3;}
	.st17{fill:url(#SVGID_00000135659923857941487730000008178025126841975944_);}
	.st18{fill:#F8CD9A;}
	.st19{fill:url(#SVGID_00000011003957326292465070000016444011916221324683_);}
	.st20{fill:url(#SVGID_00000151501220538705589090000016225604129744704691_);}
	.st21{fill:#FEFAF4;}
</style>
<filter  filterUnits="userSpaceOnUse" height="272.986" id="zm4uu8zxkc" width="213.086" x="9.528" y=".596">
	<feOffset  dy="11"></feOffset>
	<feGaussianBlur  result="blur" stdDeviation="11"></feGaussianBlur>
	<feFlood  flood-color="#657a93" flood-opacity=".18"></feFlood>
	<feComposite  in2="blur" operator="in"></feComposite>
	<feComposite  in="SourceGraphic" operator="over"></feComposite>
</filter>
<path class="st0" d="M8,44.1c3.2-0.9,5-4.3,4.1-7.5c-0.9-3.2-4.3-5-7.5-4.1c-0.1,0-0.2,0.1-0.4,0.1c-3.2,0.9-5,4.3-4.1,7.5
	c0.9,3.2,4.3,5,7.5,4.1C7.7,44.2,7.9,44.1,8,44.1z"/>
<path class="st0" d="M21.3,24.3c2.2-0.7,3.3-3,2.6-5.2s-3-3.3-5.2-2.6c0,0,0,0,0,0c-2.2,0.7-3.3,3-2.6,5.2S19.1,25.1,21.3,24.3z"/>
<path class="st0" d="M207.7,20.5c1.3-1.2,1.4-3.1,0.2-4.4c0,0,0,0,0,0c-1.2-1.3-3.2-1.4-4.5-0.2c-1.3,1.2-1.4,3.1-0.2,4.4
	c0,0,0,0,0,0C204.4,21.6,206.4,21.7,207.7,20.5z"/>
<path class="st0" d="M23.6,223.2c1.6-1.4,1.7-3.9,0.3-5.4c0,0,0,0,0,0c-1.5-1.6-3.9-1.7-5.5-0.2c-1.6,1.4-1.7,3.9-0.3,5.4
	c0,0,0,0,0,0C19.6,224.6,22,224.7,23.6,223.2z"/>
<path class="st0" d="M229.7,79.2v91.5c0,1.4,0,2.8-0.2,4.1c-1.3,10.5-7.4,19.8-16.6,25l-79.6,45.6c-7.5,4.4-16.5,5.6-24.9,3.4
	c-3.1-0.7-6-1.9-8.8-3.4l-79.9-45.9c-10.5-6-17-17.1-17.1-29.1V79.2C2.4,67.2,8.8,56,19.3,50.1L99.2,4.5c7.6-4.4,16.7-5.6,25.2-3.4
	c3,0.8,6,2,8.8,3.4l79.6,45.6C223.2,56.1,229.6,67.2,229.7,79.2L229.7,79.2z"/>
<path class="st1" d="M116.3,45.8l19-39.4"/>
<g class="st2">
	<path class="st3" d="M189.6,32.3v187.6c0,5.4-4.4,9.7-9.7,9.7H52.3c-5.4,0-9.7-4.4-9.7-9.7V32.3c0-5.4,4.4-9.7,9.7-9.7h127.6
		C185.2,22.6,189.6,26.9,189.6,32.3z"/>
</g>
<path class="st0" d="M51.3,109.6h-4.6v4.6h4.6V109.6z"/>
<path class="st0" d="M51.3,100.4h-4.6v4.6h4.6V100.4z"/>
<path class="st0" d="M51.3,91.1h-4.6v4.6h4.6V91.1z"/>
<linearGradient id="SVGID_1_" gradientUnits="userSpaceOnUse" x1="-142.6607" y1="495.6507" x2="-141.6507" y2="495.6507" gradientTransform="matrix(4.627 0 0 -4.6 706.801 2364.4482)">
	<stop  offset="0" style="stop-color:#AE9ED3"/>
	<stop  offset="1" style="stop-color:#917CC4"/>
</linearGradient>
<path class="st4" d="M51.3,82.2h-4.6v4.6h4.6V82.2z"/>
<path class="st5" d="M51.3,63.7h-4.6v4.6h4.6V63.7z"/>
<path class="st0" d="M60.8,118.6h-4.6v4.6h4.6V118.6z"/>
<path class="st0" d="M60.8,109.6h-4.6v4.6h4.6V109.6z"/>
<path class="st0" d="M60.8,82.2h-4.6v4.6h4.6V82.2z"/>
<linearGradient id="SVGID_00000074435587750403907060000001203411407939197096_" gradientUnits="userSpaceOnUse" x1="-142.6537" y1="495.6507" x2="-141.6437" y2="495.6507" gradientTransform="matrix(4.627 0 0 -4.6 716.329 2327.7852)">
	<stop  offset="0" style="stop-color:#AE9ED3"/>
	<stop  offset="1" style="stop-color:#917CC4"/>
</linearGradient>
<path style="fill:url(#SVGID_00000074435587750403907060000001203411407939197096_);" d="M60.8,45.5h-4.6v4.6h4.6V45.5z"/>
<path class="st0" d="M70.4,118.6h-4.6v4.6h4.6V118.6z"/>
<path class="st0" d="M70.4,100.4h-4.6v4.6h4.6V100.4z"/>
<path class="st0" d="M70.4,91.1h-4.6v4.6h4.6V91.1z"/>
<linearGradient id="SVGID_00000004544773327289017840000009554593519467781787_" gradientUnits="userSpaceOnUse" x1="-142.6477" y1="495.6507" x2="-141.6376" y2="495.6507" gradientTransform="matrix(4.627 0 0 -4.6 725.858 2364.4482)">
	<stop  offset="0" style="stop-color:#FCE9D3"/>
	<stop  offset="1" style="stop-color:#FBE0BF"/>
</linearGradient>
<path style="fill:url(#SVGID_00000004544773327289017840000009554593519467781787_);" d="M70.4,82.2h-4.6v4.6h4.6V82.2z"/>
<path class="st5" d="M70.4,72.9h-4.6v4.6h4.6V72.9z"/>
<path class="st0" d="M70.4,63.7h-4.6v4.6h4.6V63.7z"/>
<path class="st0" d="M70.4,45.5h-4.6v4.6h4.6V45.5z"/>
<path class="st5" d="M70.4,36.1h-4.6v4.6h4.6V36.1z"/>
<path class="st0" d="M79.9,109.6h-4.6v4.6h4.6V109.6z"/>
<path class="st0" d="M79.9,100.4h-4.6v4.6h4.6V100.4z"/>
<path class="st5" d="M79.9,72.9h-4.6v4.6h4.6V72.9z"/>
<path class="st0" d="M79.9,54.7h-4.6v4.6h4.6V54.7z"/>
<path class="st0" d="M89.7,118.6H85v4.6h4.6V118.6z"/>
<path class="st0" d="M89.7,109.6H85v4.6h4.6V109.6z"/>
<path class="st0" d="M89.7,82.2H85v4.6h4.6V82.2z"/>
<linearGradient id="SVGID_00000168802704102178870390000006143484348571875742_" gradientUnits="userSpaceOnUse" x1="-142.6877" y1="495.6507" x2="-141.6777" y2="495.6507" gradientTransform="matrix(4.627 0 0 -4.6 745.158 2355.2222)">
	<stop  offset="0" style="stop-color:#AE9ED3"/>
	<stop  offset="1" style="stop-color:#917CC4"/>
</linearGradient>
<path style="fill:url(#SVGID_00000168802704102178870390000006143484348571875742_);" d="M89.7,72.9H85v4.6h4.6V72.9z"/>
<path class="st5" d="M89.7,63.7H85v4.6h4.6V63.7z"/>
<path class="st0" d="M99.2,118.6h-4.6v4.6h4.6V118.6z"/>
<path class="st0" d="M99.2,109.6h-4.6v4.6h4.6V109.6z"/>
<path class="st0" d="M99.2,100.4h-4.6v4.6h4.6V100.4z"/>
<path class="st0" d="M99.2,91.1h-4.6v4.6h4.6V91.1z"/>
<path class="st0" d="M99.2,82.2h-4.6v4.6h4.6V82.2z"/>
<path class="st0" d="M99.2,72.9h-4.6v4.6h4.6V72.9z"/>
<path class="st0" d="M99.2,45.5h-4.6v4.6h4.6V45.5z"/>
<path class="st0" d="M108.7,118.6h-4.6v4.6h4.6V118.6z"/>
<path class="st0" d="M108.7,109.6h-4.6v4.6h4.6V109.6z"/>
<path class="st0" d="M108.7,100.4h-4.6v4.6h4.6V100.4z"/>
<path class="st0" d="M108.7,82.2h-4.6v4.6h4.6V82.2z"/>
<path class="st5" d="M108.7,72.9h-4.6v4.6h4.6V72.9z"/>
<linearGradient id="SVGID_00000054224876558820854590000006989697592833527186_" gradientUnits="userSpaceOnUse" x1="-142.6687" y1="495.6507" x2="-141.6587" y2="495.6507" gradientTransform="matrix(4.627 0 0 -4.6 773.743 2400.8672)">
	<stop  offset="0" style="stop-color:#FCE9D3"/>
	<stop  offset="1" style="stop-color:#FBE0BF"/>
</linearGradient>
<path style="fill:url(#SVGID_00000054224876558820854590000006989697592833527186_);" d="M118.3,118.6h-4.6v4.6h4.6V118.6z"/>
<path class="st0" d="M118.3,109.6h-4.6v4.6h4.6V109.6z"/>
<path class="st0" d="M118.3,100.4h-4.6v4.6h4.6V100.4z"/>
<path class="st5" d="M118.3,91.1h-4.6v4.6h4.6V91.1z"/>
<path class="st0" d="M118.3,82.2h-4.6v4.6h4.6V82.2z"/>
<path class="st0" d="M118.3,63.7h-4.6v4.6h4.6V63.7z"/>
<path class="st0" d="M127.8,118.6h-4.6v4.6h4.6V118.6z"/>
<path class="st0" d="M127.8,109.6h-4.6v4.6h4.6V109.6z"/>
<linearGradient id="SVGID_00000123436696167107692420000010983339800726885532_" gradientUnits="userSpaceOnUse" x1="-142.6627" y1="495.6507" x2="-141.6527" y2="495.6507" gradientTransform="matrix(4.627 0 0 -4.6 783.2729 2382.6572)">
	<stop  offset="0" style="stop-color:#AE9ED3"/>
	<stop  offset="1" style="stop-color:#917CC4"/>
</linearGradient>
<path style="fill:url(#SVGID_00000123436696167107692420000010983339800726885532_);" d="M127.8,100.4h-4.6v4.6h4.6V100.4z"/>
<path class="st0" d="M127.8,91.1h-4.6v4.6h4.6V91.1z"/>
<path class="st0" d="M127.8,82.2h-4.6v4.6h4.6V82.2z"/>
<path class="st0" d="M127.8,72.9h-4.6v4.6h4.6V72.9z"/>
<path class="st0" d="M137.3,118.6h-4.6v4.6h4.6V118.6z"/>
<path class="st0" d="M137.3,109.6h-4.6v4.6h4.6V109.6z"/>
<path class="st0" d="M137.3,100.4h-4.6v4.6h4.6V100.4z"/>
<path class="st5" d="M137.3,82.2h-4.6v4.6h4.6V82.2z"/>
<path class="st0" d="M137.3,63.7h-4.6v4.6h4.6V63.7z"/>
<path class="st5" d="M137.3,36.1h-4.6v4.6h4.6V36.1z"/>
<path class="st0" d="M146.8,109.6h-4.6v4.6h4.6V109.6z"/>
<path class="st5" d="M146.8,100.4h-4.6v4.6h4.6V100.4z"/>
<path class="st0" d="M146.8,91.1h-4.6v4.6h4.6V91.1z"/>
<path class="st0" d="M146.8,54.7h-4.6v4.6h4.6V54.7z"/>
<path class="st0" d="M156.4,118.6h-4.6v4.6h4.6V118.6z"/>
<path class="st0" d="M156.4,100.4h-4.6v4.6h4.6V100.4z"/>
<linearGradient id="SVGID_00000041976361895516052150000018322379184807003319_" gradientUnits="userSpaceOnUse" x1="-142.6437" y1="495.6507" x2="-141.6337" y2="495.6507" gradientTransform="matrix(4.627 0 0 -4.6 811.856 2373.4321)">
	<stop  offset="0" style="stop-color:#AE9ED3"/>
	<stop  offset="1" style="stop-color:#917CC4"/>
</linearGradient>
<path style="fill:url(#SVGID_00000041976361895516052150000018322379184807003319_);" d="M156.4,91.1h-4.6v4.6h4.6V91.1z"/>
<path class="st0" d="M156.4,82.2h-4.6v4.6h4.6V82.2z"/>
<path class="st5" d="M156.4,72.9h-4.6v4.6h4.6V72.9z"/>
<linearGradient id="SVGID_00000166635413343753253110000015974942437218623423_" gradientUnits="userSpaceOnUse" x1="-142.6437" y1="495.6507" x2="-141.6337" y2="495.6507" gradientTransform="matrix(4.627 0 0 -4.6 811.856 2345.9951)">
	<stop  offset="0" style="stop-color:#FCE9D3"/>
	<stop  offset="1" style="stop-color:#FBE0BF"/>
</linearGradient>
<path style="fill:url(#SVGID_00000166635413343753253110000015974942437218623423_);" d="M156.4,63.7h-4.6v4.6h4.6V63.7z"/>
<path class="st0" d="M166.1,118.6h-4.6v4.6h4.6V118.6z"/>
<path class="st5" d="M166.1,91.1h-4.6v4.6h4.6V91.1z"/>
<path class="st0" d="M166.1,72.9h-4.6v4.6h4.6V72.9z"/>
<path class="st0" d="M175.7,118.6H171v4.6h4.6V118.6z"/>
<path class="st0" d="M175.7,109.6H171v4.6h4.6V109.6z"/>
<path class="st0" d="M175.7,100.4H171v4.6h4.6V100.4z"/>
<path class="st0" d="M175.7,91.1H171v4.6h4.6V91.1z"/>
<path class="st5" d="M175.7,82.2H171v4.6h4.6V82.2z"/>
<path class="st0" d="M175.7,54.7H171v4.6h4.6V54.7z"/>
<path class="st0" d="M185.2,118.6h-4.6v4.6h4.6V118.6z"/>
<path class="st0" d="M185.2,100.4h-4.6v4.6h4.6V100.4z"/>
<path class="st5" d="M185.2,91.1h-4.6v4.6h4.6V91.1z"/>
<path class="st0" d="M180.5,150.8h4.6v-4.6h-4.6V150.8z"/>
<path class="st0" d="M180.5,141.5h4.6v-4.6h-4.6V141.5z"/>
<path class="st0" d="M180.5,132.4h4.6v-4.6h-4.6V132.4z"/>
<path class="st0" d="M170.9,159.8h4.6v-4.6h-4.6V159.8z"/>
<path class="st0" d="M170.9,150.8h4.6v-4.6h-4.6V150.8z"/>
<path class="st0" d="M170.9,132.4h4.6v-4.6h-4.6V132.4z"/>
<path class="st0" d="M161.3,159.8h4.6v-4.6h-4.6V159.8z"/>
<path class="st0" d="M161.3,150.8h4.6v-4.6h-4.6V150.8z"/>
<path class="st0" d="M161.3,141.5h4.6v-4.6h-4.6V141.5z"/>
<path class="st0" d="M161.3,132.4h4.6v-4.6h-4.6V132.4z"/>
<path class="st0" d="M152,159.8h4.6v-4.6H152V159.8z"/>
<path class="st0" d="M152,150.8h4.6v-4.6H152V150.8z"/>
<path class="st0" d="M152,141.5h4.6v-4.6H152V141.5z"/>
<path class="st0" d="M152,132.4h4.6v-4.6H152V132.4z"/>
<path class="st0" d="M142.4,159.8h4.6v-4.6h-4.6V159.8z"/>
<path class="st0" d="M142.4,150.8h4.6v-4.6h-4.6V150.8z"/>
<path class="st0" d="M142.4,141.5h4.6v-4.6h-4.6V141.5z"/>
<path class="st0" d="M132.8,159.8h4.6v-4.6h-4.6V159.8z"/>
<path class="st0" d="M132.8,150.8h4.6v-4.6h-4.6V150.8z"/>
<path class="st0" d="M132.8,141.5h4.6v-4.6h-4.6V141.5z"/>
<path class="st0" d="M132.8,132.4h4.6v-4.6h-4.6V132.4z"/>
<path class="st0" d="M123.2,159.8h4.6v-4.6h-4.6V159.8z"/>
<path class="st0" d="M123.2,150.8h4.6v-4.6h-4.6V150.8z"/>
<path class="st0" d="M123.2,141.5h4.6v-4.6h-4.6V141.5z"/>
<linearGradient id="SVGID_00000032618368548674553800000016054056954058579345_" gradientUnits="userSpaceOnUse" x1="-141.6607" y1="495.6507" x2="-142.6707" y2="495.6507" gradientTransform="matrix(4.627 0 0 -4.6 773.743 2437.5271)">
	<stop  offset="0" style="stop-color:#FCE9D3"/>
	<stop  offset="1" style="stop-color:#FBE0BF"/>
</linearGradient>
<path style="fill:url(#SVGID_00000032618368548674553800000016054056954058579345_);" d="M113.6,159.8h4.6v-4.6h-4.6V159.8z"/>
<path class="st0" d="M113.6,150.8h4.6v-4.6h-4.6V150.8z"/>
<path class="st0" d="M113.6,141.5h4.6v-4.6h-4.6V141.5z"/>
<path class="st5" d="M113.6,132.4h4.6v-4.6h-4.6V132.4z"/>
<path class="st0" d="M104,159.8h4.6v-4.6H104V159.8z"/>
<path class="st0" d="M104,150.8h4.6v-4.6H104V150.8z"/>
<linearGradient id="SVGID_00000152248136194200445940000016200418924828713641_" gradientUnits="userSpaceOnUse" x1="-141.6656" y1="495.6507" x2="-142.6767" y2="495.6507" gradientTransform="matrix(4.627 0 0 -4.6 764.215 2419.3181)">
	<stop  offset="0" style="stop-color:#AE9ED3"/>
	<stop  offset="1" style="stop-color:#917CC4"/>
</linearGradient>
<path style="fill:url(#SVGID_00000152248136194200445940000016200418924828713641_);" d="M104.1,141.6h4.6V137h-4.6V141.6z"/>
<path class="st0" d="M104,132.4h4.6v-4.6H104V132.4z"/>
<path class="st0" d="M94.5,159.8h4.6v-4.6h-4.6V159.8z"/>
<path class="st0" d="M94.5,150.8h4.6v-4.6h-4.6V150.8z"/>
<path class="st0" d="M94.5,141.5h4.6v-4.6h-4.6V141.5z"/>
<path class="st0" d="M84.9,150.8h4.6v-4.6h-4.6V150.8z"/>
<path class="st5" d="M84.9,141.5h4.6v-4.6h-4.6V141.5z"/>
<path class="st0" d="M84.9,132.4h4.6v-4.6h-4.6V132.4z"/>
<path class="st0" d="M75.5,159.8h4.6v-4.6h-4.6V159.8z"/>
<path class="st0" d="M75.5,141.5h4.6v-4.6h-4.6V141.5z"/>
<linearGradient id="SVGID_00000078045425727279626130000008468112849850331032_" gradientUnits="userSpaceOnUse" x1="-143.6473" y1="495.6507" x2="-144.6073" y2="495.6507" gradientTransform="matrix(4.87 0 0 -4.6 779.612 2410.0923)">
	<stop  offset="0" style="stop-color:#AE9ED3"/>
	<stop  offset="1" style="stop-color:#917CC4"/>
</linearGradient>
<path style="fill:url(#SVGID_00000078045425727279626130000008468112849850331032_);" d="M75.3,132.4h4.9v-4.6h-4.9V132.4z"/>
<path class="st0" d="M65.9,159.8h4.6v-4.6h-4.6V159.8z"/>
<path class="st5" d="M65.9,132.4h4.6v-4.6h-4.6V132.4z"/>
<path class="st0" d="M56.3,159.8H61v-4.6h-4.6V159.8z"/>
<path class="st0" d="M56.3,150.8H61v-4.6h-4.6V150.8z"/>
<path class="st0" d="M56.3,141.5H61v-4.6h-4.6V141.5z"/>
<path class="st0" d="M46.8,159.8h4.6v-4.6h-4.6V159.8z"/>
<path class="st0" d="M46.8,141.5h4.6v-4.6h-4.6V141.5z"/>
<path class="st5" d="M46.8,132.4h4.6v-4.6h-4.6V132.4z"/>
<path class="st0" d="M116.1,55.3c5.6,0,10.1-4.6,10.1-10.2c0-5.6-4.6-10.1-10.2-10.1c-5.6,0-10.1,4.6-10.1,10.2
	C105.9,50.7,110.4,55.3,116.1,55.3z"/>
<path class="st1" d="M115.8,45.8L96.6,6.4"/>
<path class="st0" d="M159.9,152c-0.8,0.9-1.7,1.8-2.7,2.7c-11.4,10.5-26.4,16.3-41.9,16.2c-12.5,0.1-24.8-3.7-35.1-10.9
	c-2.9-2-5.6-4.3-8-6.8c1.2-1.7,3.7-2.9,8.5-4.8l1.9-0.7c3.7-1.5,8.8-3.4,15.3-6c1-0.4,1.9-1,2.4-1.9c0.2-0.5,0.7-1,0.7-1.5
	c0.4-0.8,0.6-1.7,0.5-2.7v-12.3c-0.2-0.2-0.2-0.5-0.5-0.7c-1-1.6-1.7-3.4-1.9-5.3l-1-0.5c-3.2,0.7-2.9-2.7-3.7-9.2
	c-0.2-2.7,0-3.1,1.2-3.6l1-1.5c-2.4-5.3-3.4-9.7-3.4-13.6c0-6,2.7-10.2,6.3-12.1c-0.9-1.8-1.5-3.6-1.9-5.6c0,0,12.9,2.2,17.3,1.2
	c5.6-1.2,14.4,0.2,17.5,7.7c0.7,0.2,1.2,0.5,1.9,0.7c4.1,2.2,5.6,5.1,6.1,8.2c0.7,5.8-2.4,12.1-3.2,14.8c0,0.1,0.1,0.2,0.2,0.2
	c0,0,0,0,0,0c1,0.5,1.2,1.2,0.7,3.6c-0.7,6.3-0.5,9.9-3.7,9.2l-2.9,4.8c0,0.5-0.2,0.7-0.2,1.2v13.8c0.1,0.9,0.4,1.7,1,2.4l0.7,0.7
	c0.7,0.7,1.5,1.3,2.4,1.7c7.3,3.1,12.7,5.1,16.6,6.5C155,149.2,157.5,150.5,159.9,152z"/>
<path class="st16" d="M138.8,107.6c-0.7,6.3-0.5,9.9-3.7,9.2l-2.9,4.8c0,0.5-0.2,0.7-0.2,1.2v13.8h-14.1V80.8h17
	c4.1,2.2,5.6,5.1,6.1,8.2c0.7,5.8-2.4,12.1-3.2,14.8c0,0.1,0.1,0.2,0.2,0.2c0,0,0,0,0,0C138.8,104.5,139,105.2,138.8,107.6z"/>
<path class="st3" d="M165.7,170.3c-11,10.2-34.1,1-50.4,1c-12.9,0-39.9,10.2-49.9,3.4c-1.9-1.5,0.5-7,1.2-8.7
	c1.1-3.4,2.5-6.7,4.1-9.9c3.7-7,20.5-10.4,27.3-14c0.9-0.5,1.8-1.1,2.4-1.9c6.6,9.1,19.2,11.1,28.3,4.5c1.7-1.2,3.1-2.6,4.4-4.3
	c0.7,0.7,1.5,1.3,2.4,1.7c0.2,0,0.5,0.2,0.7,0.2c22.6,9.2,24.1,8,27,16.5C163.8,160.1,166.7,169.3,165.7,170.3z"/>
<linearGradient id="SVGID_00000116207162957316573610000003832957008391561389_" gradientUnits="userSpaceOnUse" x1="-180.2028" y1="549.2756" x2="-179.2028" y2="549.2756" gradientTransform="matrix(101.2684 0 0 -35.0004 18313.5254 19384.3164)">
	<stop  offset="0" style="stop-color:#FCE9D3"/>
	<stop  offset="1" style="stop-color:#FBE0BF"/>
</linearGradient>
<path style="fill:url(#SVGID_00000116207162957316573610000003832957008391561389_);" d="M165.7,170.3c-11,10.2-34.1,1-50.4,1
	c-12.9,0-39.9,10.2-49.9,3.4c-1.9-1.5,0.5-7,1.2-8.7c1.1-3.4,2.5-6.7,4.1-9.9c3.7-7,20.5-10.4,27.3-14h0.2
	c7.6,10.5,22.3,12.8,32.8,5.2c1.9-1.4,3.6-3,5-4.9h0.2c22.7,9.2,24.1,8,27,16.5C163.8,160.1,166.7,169.3,165.7,170.3z"/>
<path class="st18" d="M137.5,103.7c0.2-1.5-0.5-3.4-1-4.8c0-0.2-0.2-0.5-0.2-0.7c-2.4-4.8-8-7-13.2-7.3c-13.4-0.7-14.6,1.9-19-1.9
	c1.2,1.9,1.5,5.1-0.5,9c-1.5,2.7-4.1,3.9-6.6,4.6C91,88.7,93.9,80,100,76.8C99,75,98.3,73,97.8,71c0,0,12.9,2.2,17.3,1.2
	c5.6-1.2,14.4,0.2,17.5,7.7c5.4,2.2,7.5,5.6,8,9.2C141.6,95,138.2,101.3,137.5,103.7z"/>
<linearGradient id="SVGID_00000098907148506375222600000009924478015545828250_" gradientUnits="userSpaceOnUse" x1="-175.521" y1="537.9195" x2="-175.521" y2="538.4935" gradientTransform="matrix(30.44 0 0 -15 5459.5361 8206.5801)">
	<stop  offset="0" style="stop-color:#FEFBF7"/>
	<stop  offset="0.991" style="stop-color:#FEF5EA"/>
</linearGradient>
<path style="fill:url(#SVGID_00000098907148506375222600000009924478015545828250_);" d="M101.9,136v-12.3c-0.2-0.2-0.5-0.5-0.5-0.7
	v-0.7c0.6,1.2,1.5,2.2,2.7,2.9l9.7,6.8c2.2,1.9,5.6,1.9,7.8,0l9-8.2c0.2-0.2,0.7-0.5,1-1v12.8c-0.1,0.6,0,1.2,0.2,1.7h-30.2
	C101.9,137.2,101.9,136.5,101.9,136z"/>
<path class="st3" d="M189.6,160.6v59.3c0,5.4-4.4,9.7-9.7,9.7H52.3c-5.4,0-9.7-4.3-9.7-9.7v-59.3H189.6z"/>
<linearGradient id="SVGID_00000125576294095699241320000013016421330479612553_" gradientUnits="userSpaceOnUse" x1="-177.8246" y1="515.493" x2="-176.9796" y2="515.493" gradientTransform="matrix(44.8116 0 0 -6.7786 8067.3672 3674.053)">
	<stop  offset="0" style="stop-color:#AE9ED3"/>
	<stop  offset="1" style="stop-color:#917CC4"/>
</linearGradient>
<path style="fill:url(#SVGID_00000125576294095699241320000013016421330479612553_);" d="M135.1,183.1h-38c-1.8,0.1-3.4-1.4-3.4-3.2
	c0-0.1,0-0.1,0-0.2c0-1.8,1.4-3.3,3.2-3.4c0.1,0,0.1,0,0.2,0h38c1.8-0.1,3.4,1.4,3.4,3.2c0,0.1,0,0.1,0,0.2c0,1.8-1.4,3.4-3.2,3.4
	C135.2,183.1,135.1,183.1,135.1,183.1z"/>
<path class="st21" d="M150.6,198.2H81.7c-1.8,0.1-3.4-1.4-3.4-3.2c0-0.1,0-0.1,0-0.2c0-1.8,1.4-3.3,3.2-3.4c0.1,0,0.1,0,0.2,0h68.9
	c1.8-0.1,3.4,1.4,3.4,3.2c0,0.1,0,0.1,0,0.2C154,196.7,152.5,198.2,150.6,198.2z"/>
<path class="st21" d="M129.7,213.6h-27c-1.2,0-2.2-1-2.2-2.2c0,0,0,0,0,0V209c0-1.2,1-2.2,2.2-2.2c0,0,0,0,0,0h27
	c1.2,0,2.2,1,2.2,2.2c0,0,0,0,0,0v2.4C131.9,212.6,130.9,213.6,129.7,213.6C129.7,213.6,129.7,213.6,129.7,213.6z"/>
</svg>
