<?xml version="1.0" encoding="utf-8"?>
<!-- Generator: Adobe Illustrator 27.0.1, SVG Export Plug-In . SVG Version: 6.00 Build 0)  -->
<svg version="1.1" id="Vector" xmlns="http://www.w3.org/2000/svg" xmlns:xlink="http://www.w3.org/1999/xlink" x="0px" y="0px"
	 viewBox="0 0 1200 1200" style="enable-background:new 0 0 1200 1200;" xml:space="preserve">
<style type="text/css">
	.st0{fill:#F3F3F3;}
	.st1{fill:#DFDFDF;}
	.st2{fill:none;stroke:#F3F3F3;stroke-width:4;stroke-linecap:round;stroke-linejoin:round;}
	.st3{fill:none;stroke:#F3F3F3;stroke-width:2;stroke-linecap:round;stroke-linejoin:round;}
	.st4{fill:#D0D0D0;}
	.st5{fill:#DE8E68;}
	.st6{fill:#8C6FC4;}
	.st7{fill:#917CC4;}
	.st8{fill:#F8CD9A;}
	.st9{fill:#F8C692;}
	.st10{fill:none;stroke:#D0D0D0;stroke-width:3;stroke-linecap:round;stroke-linejoin:round;}
	.st11{fill:#DEDEDE;}
	.st12{fill:#FFFFFF;}
	.st13{fill:none;stroke:#F3F3F3;stroke-width:3;stroke-linecap:round;stroke-linejoin:round;}
	.st14{fill:none;stroke:#DFDFDF;stroke-width:4;stroke-miterlimit:10;}
	.st15{fill:none;stroke:#DFDFDF;stroke-width:4;stroke-linecap:round;stroke-linejoin:round;}
</style>
<rect x="805.8" y="528.4" class="st0" width="238.4" height="459.2"/>
<rect x="1043.6" y="528.4" class="st1" width="55.5" height="459.2"/>
<rect x="825.6" y="557.5" class="st1" width="198.9" height="38.3"/>
<circle class="st0" cx="839.9" cy="571.9" r="6.7"/>
<line class="st2" x1="955.8" y1="571.9" x2="852.3" y2="571.9"/>
<rect x="825.6" y="622.3" class="st1" width="198.9" height="38.3"/>
<circle class="st0" cx="839.9" cy="636.7" r="6.7"/>
<line class="st2" x1="955.8" y1="636.7" x2="852.3" y2="636.7"/>
<rect x="825.6" y="687.1" class="st1" width="198.9" height="38.3"/>
<circle class="st0" cx="839.9" cy="701.5" r="6.7"/>
<line class="st2" x1="955.8" y1="701.5" x2="852.3" y2="701.5"/>
<rect x="825.6" y="752" class="st1" width="198.9" height="38.3"/>
<circle class="st0" cx="839.9" cy="766.3" r="6.7"/>
<line class="st2" x1="955.8" y1="766.3" x2="852.3" y2="766.3"/>
<rect x="825.6" y="816.8" class="st1" width="198.9" height="38.3"/>
<circle class="st0" cx="839.9" cy="831.1" r="6.7"/>
<line class="st2" x1="955.8" y1="831.1" x2="852.3" y2="831.1"/>
<line class="st3" x1="1086.3" y1="585.1" x2="1056.4" y2="585.1"/>
<line class="st3" x1="1086.3" y1="592.8" x2="1056.4" y2="592.8"/>
<line class="st3" x1="1086.3" y1="637.6" x2="1056.4" y2="637.6"/>
<line class="st3" x1="1086.3" y1="645.3" x2="1056.4" y2="645.3"/>
<line class="st3" x1="1086.3" y1="701.5" x2="1056.4" y2="701.5"/>
<line class="st3" x1="1086.3" y1="709.2" x2="1056.4" y2="709.2"/>
<line class="st3" x1="1086.3" y1="763.3" x2="1056.4" y2="763.3"/>
<line class="st3" x1="1086.3" y1="771" x2="1056.4" y2="771"/>
<rect x="85.4" y="371.4" class="st0" width="423.1" height="241"/>
<path class="st4" d="M141.4,409.4h192.6c13.1,0,23.6,10.6,23.6,23.6v126.8c0,13.1-10.6,23.7-23.6,23.7H141.4
	c-13.1,0-23.6-10.6-23.6-23.7V433C117.7,420,128.3,409.4,141.4,409.4z"/>
<path class="st5" d="M736,633.5c4,3.3,32.7,25.1,44.5,38.9c10.9,3,58.2,21,99.5,27.3c-0.1,5.8-3.1,25.2-3.1,25.2
	s-99.5-12.4-111.5-15.7s-58.8-31.7-69-42.4C710,652.5,736,633.5,736,633.5z"/>
<ellipse class="st5" cx="890.7" cy="713.2" rx="22.3" ry="16.5"/>
<polygon class="st6" points="576.3,782.9 576.3,1000 650.1,1000 613.2,785.2 "/>
<polygon class="st7" points="700,791.5 700,1000 640.8,1000 592.8,780.7 "/>
<path class="st5" d="M561.1,640.3c-3.4,3.7-12.9,15.4-15.4,19.9c-6.5-5.6-114.5-104.9-117-104.9c-2.4,0-4.3,1.9-4.5,4.2
	c0,13.2,9.6,13.8,21.5,26.5c25,44.9,84.9,126.2,100.5,126.2c9,0,46.6-36.7,46.6-41.5S561.1,640.3,561.1,640.3z"/>
<path class="st8" d="M613.6,586.2c-25-15.1-64.8,40.3-64,49.5s37.5,36.2,52.8,33.2C612.5,667,639.7,602,613.6,586.2z"/>
<path class="st8" d="M648.5,568.3c74.2,0,69.3,210.2,56.2,220.8c-16.3,13.2-122.5,1-128.4-6.2S566.1,568.3,648.5,568.3z"/>
<path class="st5" d="M669.3,580.7c0,6.2-34.4,7.5-34.4,0v-42.2h34.4V580.7z"/>
<ellipse transform="matrix(0.3676 -0.93 0.93 0.3676 -74.8645 930.687)" class="st5" cx="646.9" cy="520.4" rx="41.4" ry="30.8"/>
<ellipse transform="matrix(0.5822 -0.8131 0.8131 0.5822 -155.2896 769.7125)" class="st5" cx="671.3" cy="536" rx="9.8" ry="6.9"/>
<path class="st7" d="M703.3,515.3c0-5.7-5.3-12-6.4-19.2c-0.5-3.6,0.6-18.8-3.7-24c-8.8-10.6-14.1-8.5-20.8-11
	c-11.8-4.3-16.3-11.5-26.1-11.5c-11.1,0-15.5,5.7-23.5,5.7c-9.1,0-16.5-4.2-29.2-4.2c-6.8,0-15.6,8.9-15.6,16.7
	c0,18.5,17.2,15.8,17.2,20.3c0,3.1-1,5.6-1,9.9c0,5.6,7.3,8.9,11.5,8.9c12.7,0,14.4-1.5,14.4-1.5c2.5-5,5.7-9.7,9.6-13.8
	c0.5-0.5,8.8,5.3,22.2,5.7c11,0.4,18.8,2.5,18.8,7.6c0,3.6-1.3,14.4-1.2,17.5s1.2,5,1.8,5s1.1-1,5.3-1c4.5,0,4.9,5.6,5.7,5.6
	C686.9,532.1,703.3,528.4,703.3,515.3z"/>
<path class="st9" d="M682.2,589.4c25-15.1,64.8,40.3,64,49.5s-37.5,36.2-52.8,33.2C683.3,670.2,656.1,605.2,682.2,589.4z"/>
<path class="st5" d="M448.3,583.7c-10.3,6.7-13.3,20.4-6.6,30.8s20.4,13.3,30.8,6.6c3.1-2,5.6-4.7,7.4-7.9L448.3,583.7z"/>
<rect x="206.6" y="161" class="st0" width="301.9" height="179"/>
<rect x="82.2" y="159" class="st0" width="106.2" height="179"/>
<path class="st10" d="M238.9,314c8.8-10.5,24.4-28.5,52.7-34.5c42.3-9.1,54.6-58.6,74.9-58.6c25.5,0,36.3,14.6,46.8,14.6
	c21.2,0,43.4-19.6,55-48.6"/>
<rect x="97.8" y="187.3" class="st11" width="75" height="6.9"/>
<rect x="97.8" y="210.4" class="st11" width="75" height="6.9"/>
<rect x="97.8" y="233.5" class="st11" width="75" height="6.9"/>
<rect x="97.7" y="256.6" class="st11" width="75" height="6.9"/>
<rect x="97.7" y="279.7" class="st11" width="75" height="6.9"/>
<rect x="97.7" y="302.8" class="st11" width="75" height="6.9"/>
<rect x="135.3" y="432.9" class="st12" width="101.2" height="6.9"/>
<rect x="135.3" y="456" class="st12" width="101.2" height="6.9"/>
<rect x="135.3" y="479.1" class="st12" width="101.2" height="6.9"/>
<rect x="135.1" y="502.2" class="st12" width="101.2" height="6.9"/>
<rect x="135.1" y="525.3" class="st12" width="101.2" height="6.9"/>
<rect x="135.1" y="548.4" class="st12" width="101.2" height="6.9"/>
<path class="st12" d="M301.1,393.8H424c13.1,0,23.6,10.6,23.6,23.6v55.3c0,13.1-10.6,23.6-23.6,23.6H301.1
	c-13.1,0-23.6-10.6-23.6-23.6v-55.3C277.5,404.4,288.1,393.8,301.1,393.8z"/>
<circle class="st0" cx="358.5" cy="407" r="5.7"/>
<circle class="st0" cx="358.5" cy="483.3" r="5.7"/>
<line class="st13" x1="358.5" y1="408.8" x2="358.5" y2="481.7"/>
<line class="st13" x1="372.3" y1="418.4" x2="372.3" y2="460.9"/>
<line class="st13" x1="358.5" y1="483.3" x2="372.3" y2="460.9"/>
<path class="st1" d="M892.3,399.5c-16-15.7-16.3-41.5-0.6-57.5c11.4-11.6,28.6-15.3,43.7-9.5c17-26.1,52-33.4,78.1-16.4
	c9.4,6.1,16.7,14.9,21.1,25.2c20.8-8.4,44.6,1.6,53,22.5c4.7,11.7,3.8,24.9-2.6,35.8L892.3,399.5z"/>
<line class="st14" x1="1063" y1="396.1" x2="1063" y2="533.2"/>
<path class="st15" d="M799.7,472.1c7.1,13.8,23.1,18.8,35.4,18.8c29.8,0,41.2-28.7,41.2-38.4"/>
<path class="st15" d="M797.8,327.2c6.6,12.5,9.8,25.7,9.8,37.3c0,27.4-4.6,46.1-8,62.6"/>
<path class="st15" d="M647.6,309.2c20.2-16.8,42.8-29.3,69.8-29.3c22.2,0,40.2,6.6,54.1,16.7"/>
<path class="st15" d="M539,396.6c21.1,0,40.5-18,61.1-39.9"/>
<rect x="607.3" y="315.3" class="st1" width="29.8" height="29.8"/>
<circle class="st1" cx="784.8" cy="309.6" r="13.1"/>
<polygon class="st1" points="821.1,450.2 791.9,431.2 790.1,466 "/>
</svg>
