<?xml version="1.0" encoding="utf-8"?>
<!-- Generator: Adobe Illustrator 27.0.1, SVG Export Plug-In . SVG Version: 6.00 Build 0)  -->
<svg version="1.1" id="Layer_1" xmlns="http://www.w3.org/2000/svg" xmlns:xlink="http://www.w3.org/1999/xlink" x="0px" y="0px"
	 viewBox="0 0 1200 1200" style="enable-background:new 0 0 1200 1200;" xml:space="preserve">
<style type="text/css">
	.st0{fill:#FFFFFF;}
	.st1{fill:#F3F3F3;}
	.st2{fill:#E2E2E2;}
	.st3{fill:#DE9268;}
	.st4{fill:#A18BC4;}
	.st5{fill:#917CC4;}
	.st6{fill:#F8CD9A;}
	.st7{fill:#333333;}
	.st8{fill:#D38059;}
</style>
<g id="Background_elements">
	<path class="st0" d="M876.4,595.5v496.2c0,36.3-29.4,65.7-65.7,65.7l0,0H425c-36.3,0-65.7-29.4-65.7-65.7l0,0V107
		c0-36.3,29.4-65.7,65.7-65.7h385.8c36.3,0,65.7,29.4,65.7,65.7V595.5"/>
	<path class="st1" d="M504.6,15.4h226.5c8.7,0,15.7,7,15.7,15.7v32.9c0,8.7-7,15.7-15.7,15.7H504.6c-8.7,0-15.7-7-15.7-15.7V31.1
		C488.9,22.5,496,15.4,504.6,15.4z"/>
	<path class="st1" d="M812.7,6H423c-52.5,0-95,42.6-95,95.1v996.6c0,52.5,42.5,95,95,95.1h389.7c52.5,0,95.1-42.6,95.1-95.1V101.1
		C907.8,48.6,865.2,6,812.7,6z M876.4,595.5v496.2c0,36.3-29.4,65.7-65.7,65.7l0,0H425c-36.3,0-65.7-29.4-65.7-65.7l0,0V107
		c0-36.3,29.4-65.7,65.7-65.7h385.8c36.3,0,65.7,29.4,65.7,65.7V595.5z"/>
	<rect x="405.9" y="149.3" class="st1" width="423.9" height="207.6"/>
	<rect x="429.6" y="525.6" class="st1" width="565.6" height="19.5"/>
	<rect x="429.6" y="577" class="st1" width="565.6" height="19.5"/>
	<rect x="429.6" y="628.3" class="st1" width="565.6" height="19.5"/>
	<rect x="429.6" y="679.7" class="st1" width="565.6" height="19.5"/>
	<rect x="429.6" y="731" class="st1" width="565.6" height="19.5"/>
	<rect x="429.6" y="782.4" class="st1" width="565.6" height="19.5"/>
	<rect x="429.6" y="833.8" class="st1" width="565.6" height="19.5"/>
	<rect x="429.6" y="885.1" class="st1" width="565.6" height="19.5"/>
	<rect x="540.7" y="974.2" class="st1" width="393.5" height="19.5"/>
	<rect x="540.7" y="1015.3" class="st1" width="433.8" height="19.5"/>
	<rect x="403.4" y="472.9" class="st1" width="63.9" height="20.3"/>
	<rect x="483.1" y="472.9" class="st1" width="63.9" height="20.3"/>
	<rect x="568.1" y="472.9" class="st1" width="63.9" height="20.3"/>
	
		<ellipse transform="matrix(0.1602 -0.9871 0.9871 0.1602 -589.3881 1310.8573)" class="st1" cx="475.7" cy="1001.8" rx="42.5" ry="42.4"/>
	<rect x="429.6" y="394.6" class="st2" width="525.9" height="41.7"/>
</g>
<g id="Vector">
	
		<rect x="327.3" y="1074.3" transform="matrix(0.5994 -0.8004 0.8004 0.5994 -734.5831 713.7311)" class="st3" width="37.1" height="33.1"/>
	<rect x="258.5" y="1129.1" class="st3" width="40.4" height="26.3"/>
	<path class="st4" d="M175.5,629.4c0,0-81.6,278.7-81.6,284.4s227.8,191.8,232,191.8s21.8-34,21.8-39.9s-54.2-50.6-54.2-50.6
		L175.5,629.4z"/>
	<path class="st5" d="M300.6,1129.7l25.3-504.8c-11.9,8.5-73.2,26-150.4,4.6c5.4,44.3,81,503,81,503h43.8L300.6,1129.7z"/>
	<path class="st3" d="M171.2,479.1c-10.2-5.6-118.6-77.3-136.4-77.3s-16.3,10.5-16.3,13.6s2.2,24.1,51.8,36.9
		c4.4,5.4,76.8,78.8,98.4,87.5C169,516.8,171.2,479.1,171.2,479.1z"/>
	<path class="st6" d="M255.5,259.1c-134.6,0-87.3,360-79.9,370.3s144.7,17.4,153.1-8.9C334.3,603.1,363,259.1,255.5,259.1z"/>
	<polygon class="st7" points="61.1,436.3 2.1,397.8 34.4,380 91.9,416.2 	"/>
	<path class="st3" d="M266.2,409.6c-0.2,10,8.3,77.8,20.6,110.4c-4.7,24-30.3,158.3-30.3,158.3l18,23.3c0,0,65.9-139.9,69.2-161.7
		s-4.7-130.3-6-135.6S266.2,409.6,266.2,409.6z"/>
	<path class="st6" d="M298.5,293.3c40.2-0.9,51.5,105.9,44.7,115.4s-78.3,16.7-86.5,7.7S256,294.3,298.5,293.3z"/>
	<path class="st8" d="M267.9,206.5h-44.7v70.3c0,9,44.7,8.5,44.7,0V206.5z"/>
	
		<ellipse transform="matrix(5.686708e-02 -0.9984 0.9984 5.686708e-02 48.1402 398.4209)" class="st3" cx="235" cy="173.7" rx="72.5" ry="42.2"/>
	<path class="st5" d="M147,152c0-7,4-15,4-23c0-7-3-15-3-25c0-17,17-25,26-25c17,0,21,12,48,12c16,0,23-4,32-4c28,0,32,35,32,39
		c0,17,23,18,23,36c0,17-18,37-32,37s-27-13-27-17c0-9,2-11,2-17c0-21-45.8-26-52.8-26c-3.5,10.7-5.6,21.8-6.2,33c-2,1-9,3-16,3
		C172,175,147,169,147,152z"/>
	<circle class="st3" cx="269.5" cy="201.5" r="10.5"/>
	<polygon points="299.8,1152.4 256.8,1152.4 187.9,1179.7 187.9,1190 299.8,1190 	"/>
	<polygon points="368.4,1083.7 344.8,1115.2 326.8,1181 334.5,1186.7 396.1,1104.4 	"/>
	<path class="st4" d="M722.2,706.1c-6.3,0-9.3,16.2-9.3,29.7c0.1,40.6,3.8,81.1,11.2,121c1.4,0,2.8-0.1,4.2-0.1
		c19.1,0,34.6,5.4,34.6,12s-15.2,11.9-34,12c0.3,1.3,0.6,2.6,0.9,3.9c18.4,0.3,33.2,5.5,33.2,12c0,5.8-11.8,10.6-27.4,11.7
		c33.8,131.2,98.6,234.7,142.2,283h56.7v-47.8C934.2,1060.3,790.8,706.1,722.2,706.1z"/>
	<path class="st5" d="M1156.8,845.3c-37.5,0-41.5,40.2-66.8,40.2c-9.8,0-12.5-10.3-12.5-20.1c0-16.7,26.9-78.5,29.2-118.3
		c-2.6,0.5-5.3,0.7-8,0.7c-17.7,0-32.1-10.3-32.1-23s14.4-23,32.1-23c0.8,0,1.6,0,2.4,0.1c-8.5-29.3-28.3-59.8-72-59.8
		c-71.7,0-91.3,127.2-102.2,178.8c-6.7,32-78.3,146.8-78.3,231.7c0,74.9,23,138.7,29,138.7h72.1c0-23,44.7-65.5,55.4-77.1
		c73.6-80.5,195-117.1,195-211.2C1200,882.3,1194.8,845.3,1156.8,845.3z"/>
</g>
</svg>
