<?xml version="1.0" encoding="utf-8"?>
<!-- Generator: Adobe Illustrator 27.0.1, SVG Export Plug-In . SVG Version: 6.00 Build 0)  -->
<svg version="1.1" id="Vector" xmlns="http://www.w3.org/2000/svg" xmlns:xlink="http://www.w3.org/1999/xlink" x="0px" y="0px"
	 viewBox="0 0 1200 1200" style="enable-background:new 0 0 1200 1200;" xml:space="preserve">
<style type="text/css">
	.st0{fill:#F3F3F3;}
	.st1{fill:#917CC4;}
	.st2{fill:#DE8E68;}
	.st3{fill:#F8CD9A;}
	.st4{fill:#DFDFDF;}
	.st5{fill:#F9F9F9;}
	.st6{fill:#FFFFFF;}
	.st7{fill:#D37C59;}
</style>
<rect x="594.8" y="89.2" class="st0" width="480.2" height="697.6"/>
<rect x="107" y="941.6" class="st1" width="143.8" height="170.9"/>
<rect x="292.8" y="812.3" class="st1" width="143.8" height="300.3"/>
<rect x="478.6" y="663.6" class="st1" width="143.8" height="449"/>
<rect x="345.7" y="825.1" class="st2" width="16.7" height="12.2"/>
<rect x="528.9" y="666.8" class="st2" width="16.7" height="12.2"/>
<path class="st1" d="M459.2,476.9c10,0,90.2,11.3,125.3,29.4c-4.8,23.5-36.4,162-36.4,162h-19.7c0,0-7.4-116.6-9-115.6
	c-10.6,5.5-52.8,19.3-97.9,19.9"/>
<polyline class="st1" points="459.2,476.9 363,826.7 345.7,826.7 345.7,476.9 "/>
<path class="st2" d="M477,329.9c4.9,2.1,21.5,16,24.4,21c27.1-33.8,71.9-67.9,75.6-71.8s4.8-25.9,4.8-30.7s6.6-17.6,13-17.6v57.5
	c0,0-74.9,105.1-87.2,105.1c-8,0-47.5-17.4-53-22.6"/>
<path class="st3" d="M416,310.5c9.9-16,67,8.8,67,16.4s-21.2,42.9-30.7,42.4C444.8,369,405.8,327.2,416,310.5z"/>
<path class="st3" d="M402.1,287.3c72.6,0,68.5,180.7,57.1,189.6s-105.5,13.1-114.1,0S333.1,287.3,402.1,287.3z"/>
<path class="st2" d="M323.6,344.4c-12.9,4-46,66.6-46,76.1c0,20,67.5,108.1,76.1,108.1c3.6-6.2,9.3-19.1,9.3-19.1
	s-40.6-75.6-48-85.4c6.4-6,29.8-37.5,33.6-47.2s2.4-30.8,2.4-30.8L323.6,344.4z"/>
<path class="st3" d="M369.9,306.7c16.5,9-5.2,67.3-12.9,67.8s-43.9-18.9-43.9-28.4C313.1,338.4,352.8,297.3,369.9,306.7z"/>
<polygon points="345.7,834.7 345.7,849.5 390.3,849.5 390.3,844.2 363.2,834.7 "/>
<polygon points="528.2,677.7 528.2,692.5 572.8,692.5 572.8,687.1 545.7,677.7 "/>
<rect x="594.8" y="89.2" class="st4" width="480.2" height="44.9"/>
<rect x="705.7" y="190.7" class="st4" width="403.3" height="114.9"/>
<rect x="729.2" y="213" class="st5" width="360.6" height="10.4"/>
<rect x="729.2" y="237.8" class="st5" width="360.6" height="10.4"/>
<rect x="729.2" y="262.6" class="st5" width="360.6" height="10.4"/>
<rect x="705.7" y="351.8" class="st4" width="403.3" height="114.9"/>
<circle class="st5" cx="759.4" cy="409.3" r="34.2"/>
<rect x="818.9" y="375.1" class="st5" width="262.5" height="33.1"/>
<rect x="818.9" y="419.4" class="st5" width="262.5" height="12.2"/>
<rect x="641.7" y="516.6" class="st6" width="378.8" height="186.4"/>
<path class="st7" d="M420.1,251.8h-28.8v40.8c0,10.1,28.8,10.3,28.8,0V251.8z"/>
<path class="st2" d="M441.1,233.1c-5.1-21.7-21.1-36.4-35.9-33c-12.7,3-20.3,18.3-19,36.3c-5,1.4-7.9,6.7-6.4,11.7
	c1.2,4,4.8,6.8,9,6.8c0.6,0,1.2-0.1,1.7-0.2c6.9,16.5,20.4,26.8,33,23.9C438.3,275.1,446.2,254.7,441.1,233.1z"/>
<path class="st1" d="M393.5,243.2c3.8,0,4.4-5.2,4.4-9.9c0-6.2,5.9-11.8,9.5-12.9c6.6-1.9,9.9-2.3,13.9-4.5s8.7-5.4,8.7-5.4
	c1.8,2.1,3.4,4.4,4.8,6.7c3.6-1,22.8-5.6,22.8-19.3c0-9-7.6-10.2-11-13c-3.7-3-2.1-12.1-12-12.1c-8.9,0-13.2,9.3-18.9,12.9
	c-6.9,4.4-20.4,0.9-29.2,10c-4.3,4.4-5.3,15.4-8,19.4c-3.7,5.4-10,7-10,15.3c0,6.1,5.1,16.3,11.4,17.8c0-6,2.2-11.7,6.6-11.7
	C391.3,236.6,388,243.2,393.5,243.2z"/>
</svg>
