<?xml version="1.0" encoding="utf-8"?>
<!-- Generator: Adobe Illustrator 27.0.1, SVG Export Plug-In . SVG Version: 6.00 Build 0)  -->
<svg version="1.1" id="Layer_1" xmlns="http://www.w3.org/2000/svg" xmlns:xlink="http://www.w3.org/1999/xlink" x="0px" y="0px"
	 viewBox="0 0 24 24" style="enable-background:new 0 0 24 24;" xml:space="preserve">
<style type="text/css">
	.st0{fill:#917CC4;}
	.st1{fill:#F8CD9A;}
</style>
<g>
	<g>
		<g id="Mask_Group_19" transform="translate(-25 -410)">
			<g id="reward" transform="translate(25 410)">
				<g id="Group_183">
					<g id="Group_182">
						<path id="Path_163" class="st0" d="M16.4,5.8c-0.5-0.3-1-0.6-1.5-0.8l-0.6,1.4c0.4,0.2,0.8,0.4,1.2,0.7L16.4,5.8z"/>
						<path id="Path_164" class="st0" d="M18.7,8.3c-0.3-0.5-0.6-1-1-1.4l-1.1,1c0.3,0.3,0.6,0.7,0.8,1.1L18.7,8.3z"/>
						<path id="Path_165" class="st0" d="M17.9,10.3c0.9,3.2-0.9,6.6-4.1,7.6S7.2,17,6.2,13.8s0.9-6.6,4.1-7.6
							c0.9-0.3,1.8-0.3,2.8-0.2l0.3-1.5c-0.4-0.1-0.9-0.1-1.3-0.1c-4.2,0-7.6,3.4-7.6,7.6s3.4,7.6,7.6,7.6s7.6-3.4,7.6-7.6
							c0-0.7-0.1-1.4-0.3-2.1L17.9,10.3z"/>
						<path id="Path_166" class="st0" d="M24,12l-2-2.7L22.4,6l-3-1.4l-1.4-3L14.7,2L12,0L9.3,2L6,1.6l-1.4,3L1.6,6L2,9.3L0,12
							l2,2.7L1.6,18l3,1.4l1.4,3L9.3,22l2.7,2l2.7-2l3.3,0.3l1.4-3l3-1.4L22,14.7L24,12z M18.2,18.2l-1.1,2.6l-2.8-0.3L12,22.1
							l-2.3-1.7l-2.8,0.3l-1.1-2.6L3.2,17l0.3-2.8L1.9,12l1.7-2.3L3.2,6.9l2.6-1.1l1.1-2.6l2.8,0.3L12,1.9l2.3,1.7l2.8-0.3l1.1,2.6
							L20.8,7l-0.3,2.8l1.7,2.3l-1.7,2.3l0.3,2.8L18.2,18.2z"/>
						<path id="Path_167" class="st1" d="M8.7,11.5l-1.1,1.1l2.8,2.8l5.1-5.1l-1.1-1.1l-4,4L8.7,11.5z"/>
					</g>
				</g>
			</g>
		</g>
	</g>
</g>
</svg>
