<?xml version="1.0" encoding="utf-8"?>
<!-- Generator: Adobe Illustrator 27.0.1, SVG Export Plug-In . SVG Version: 6.00 Build 0)  -->
<svg version="1.1" id="Layer_1" xmlns="http://www.w3.org/2000/svg" xmlns:xlink="http://www.w3.org/1999/xlink" x="0px" y="0px"
	 viewBox="0 0 24 24" style="enable-background:new 0 0 24 24;" xml:space="preserve">
<style type="text/css">
	.st0{fill:#A37EC4;}
	.st1{fill:#F8CD9A;}
</style>
<g>
	<g id="Mask_Group_20" transform="translate(-25 -410)">
		<g id="money_1_" transform="translate(25 410)">
			<path id="Path_168" class="st0" d="M21.2,18.4v-3.6c0-3.9-2.4-7.3-6.1-8.6c0.7-0.9,0.5-2.3-0.4-3c0,0-0.1-0.1-0.1-0.1
				c0.6-0.7,1-1.5,1-2.4c0-0.4-0.3-0.7-0.7-0.7H9.2C8.8,0,8.5,0.3,8.5,0.7c0,0.9,0.4,1.8,1,2.4c-1,0.6-1.3,1.9-0.7,2.9
				c0,0,0.1,0.1,0.1,0.1C5.3,7.5,2.8,11,2.8,14.8v3.6c-1.5,0.4-2.4,1.9-2,3.4C1.1,23.1,2.2,24,3.5,24h16.9c1.6,0,2.8-1.3,2.8-2.8
				C23.3,19.9,22.4,18.8,21.2,18.4L21.2,18.4z M14,1.4c-0.4,1.1-1.6,1.7-2.7,1.3C10.7,2.5,10.2,2,10,1.4H14z M10.6,5.6
				c-0.4,0-0.7-0.3-0.7-0.7c0-0.4,0.3-0.7,0.7-0.7h2.8c0.4,0,0.7,0.3,0.7,0.7s-0.3,0.7-0.7,0.7L10.6,5.6z M20.5,22.6H3.5
				c-0.8,0-1.4-0.6-1.4-1.4c0-0.8,0.6-1.4,1.4-1.4c0,0,0,0,0,0c0.4,0,0.7-0.3,0.7-0.7l0,0v-4.2c0-4.3,3.4-7.8,7.7-7.9
				s7.8,3.4,7.9,7.7c0,0.1,0,0.1,0,0.2v4.2c0,0.4,0.3,0.7,0.7,0.7h0c0.8,0,1.4,0.6,1.4,1.4C21.9,22,21.2,22.6,20.5,22.6
				C20.5,22.6,20.5,22.6,20.5,22.6L20.5,22.6z"/>
			<path id="Path_169" class="st1" d="M12,12.7h1.4c0.4,0,0.7-0.3,0.7-0.7s-0.3-0.7-0.7-0.7l0,0h-0.7v-0.7c0-0.4-0.3-0.7-0.7-0.7
				s-0.7,0.3-0.7,0.7v0.8c-1.1,0.4-1.7,1.6-1.3,2.7c0.3,0.8,1.1,1.4,2,1.4c0.4,0,0.7,0.3,0.7,0.7c0,0.4-0.3,0.7-0.7,0.7h-1.4
				c-0.4,0-0.7,0.3-0.7,0.7c0,0.4,0.3,0.7,0.7,0.7h0.7v0.7c0,0.4,0.3,0.7,0.7,0.7s0.7-0.3,0.7-0.7v-0.8c1.1-0.4,1.7-1.6,1.3-2.7
				c-0.3-0.8-1.1-1.4-2-1.4c-0.4,0-0.7-0.3-0.7-0.7S11.6,12.7,12,12.7z"/>
		</g>
	</g>
</g>
</svg>
