<?xml version="1.0" encoding="utf-8"?>
<!-- Generator: Adobe Illustrator 27.0.1, SVG Export Plug-In . SVG Version: 6.00 Build 0)  -->
<svg version="1.1" id="Layer_1" xmlns="http://www.w3.org/2000/svg" xmlns:xlink="http://www.w3.org/1999/xlink" x="0px" y="0px"
	 viewBox="0 0 24 24" style="enable-background:new 0 0 24 24;" xml:space="preserve">
<style type="text/css">
	.st0{fill:#917CC4;}
	.st1{fill:#F8CD9A;}
</style>
<g id="Group_1263" transform="translate(-161.102 -869.102)">
	<g id="power-button" transform="translate(161.102 869.102)">
		<path id="Path_1541" class="st0" d="M20.5,3.5c-4.7-4.7-12.3-4.7-16.9,0s-4.7,12.3,0,16.9s12.3,4.7,16.9,0c0,0,0,0,0,0
			C25.2,15.8,25.2,8.3,20.5,3.5C20.5,3.6,20.5,3.5,20.5,3.5z M12,22.6C6.2,22.6,1.4,17.8,1.4,12S6.2,1.4,12,1.4S22.6,6.2,22.6,12
			l0,0C22.6,17.8,17.8,22.6,12,22.6z"/>
		<path id="Path_1542" class="st1" d="M15.4,8.1c-0.3-0.3-0.7-0.2-1,0.1s-0.2,0.7,0.1,1c1.6,1.4,1.7,3.8,0.3,5.4
			c-1.4,1.6-3.8,1.7-5.4,0.3c-1.6-1.4-1.7-3.8-0.3-5.4c0.1-0.1,0.2-0.2,0.3-0.3c0.3-0.3,0.3-0.7,0.1-1s-0.7-0.3-1-0.1l0,0
			c-2.2,1.9-2.4,5.2-0.5,7.3s5.2,2.4,7.3,0.5c2.2-1.9,2.4-5.2,0.5-7.3C15.8,8.4,15.6,8.2,15.4,8.1L15.4,8.1z"/>
		<path id="Path_1543" class="st1" d="M12,10.8c0.4,0,0.7-0.3,0.7-0.7V6.4c0-0.4-0.3-0.7-0.7-0.7S11.3,6,11.3,6.4v3.7
			C11.3,10.5,11.6,10.8,12,10.8C12,10.8,12,10.8,12,10.8L12,10.8z"/>
	</g>
</g>
</svg>
