<?xml version="1.0" encoding="utf-8"?>
<!-- Generator: Adobe Illustrator 27.0.1, SVG Export Plug-In . SVG Version: 6.00 Build 0)  -->
<svg version="1.1" id="Layer_1" xmlns="http://www.w3.org/2000/svg" xmlns:xlink="http://www.w3.org/1999/xlink" x="0px" y="0px"
	 viewBox="0 0 24 24" style="enable-background:new 0 0 24 24;" xml:space="preserve">
<style type="text/css">
	.st0{fill:#F8CD9A;}
	.st1{fill:#917CC4;}
</style>
<g id="Group_1261" transform="translate(-180 -776.999)">
	<g id="price-tag" transform="translate(180 776.999)">
		<path id="Path_1553" class="st0" d="M9.5,16.2l3.3-9.9c0.1-0.4-0.1-0.8-0.4-0.9c-0.4-0.1-0.8,0.1-0.9,0.4l0,0l-3.3,9.9
			c-0.1,0.4,0.1,0.8,0.4,0.9C9,16.7,9.4,16.5,9.5,16.2L9.5,16.2z"/>
		<path id="Path_1554" class="st0" d="M14.5,13.1c1.2,0,2.1-0.9,2.1-2.1c0-1.2-0.9-2.1-2.1-2.1c-1.2,0-2.1,0.9-2.1,2.1
			C12.4,12.1,13.3,13.1,14.5,13.1z M14.5,10.3c0.4,0,0.7,0.3,0.7,0.7s-0.3,0.7-0.7,0.7c-0.4,0-0.7-0.3-0.7-0.7S14.1,10.3,14.5,10.3
			L14.5,10.3z"/>
		<path id="Path_1555" class="st0" d="M6.6,8.9c-1.2,0-2.1,0.9-2.1,2.1c0,1.2,0.9,2.1,2.1,2.1c1.2,0,2.1-0.9,2.1-2.1l0,0
			C8.7,9.8,7.7,8.9,6.6,8.9z M6.6,11.7c-0.4,0-0.7-0.3-0.7-0.7s0.3-0.7,0.7-0.7c0.4,0,0.7,0.3,0.7,0.7l0,0
			C7.3,11.4,6.9,11.7,6.6,11.7C6.6,11.7,6.6,11.7,6.6,11.7L6.6,11.7z"/>
		<path id="Path_1556" class="st1" d="M23.9,8.7l-2.5-3.3l0.1-0.7c0-0.2,0-0.4-0.2-0.6l-1.5-1.5l1.5-1.5c0.3-0.3,0.3-0.7,0-1
			c-0.3-0.3-0.7-0.3-1,0c0,0,0,0,0,0l-1.5,1.5l-1.5-1.5C17.2,0,16.9,0,16.7,0l-7,1C9.6,1,9.5,1.1,9.4,1.2L0.8,9.8c-1,1-1,2.6,0,3.6
			L8,20.8c0.1,0.1,0.3,0.3,0.5,0.4v0.3c0,1.4,1.2,2.6,2.6,2.6h10.3c1.4,0,2.6-1.2,2.6-2.6V9.1C24,9,24,8.8,23.9,8.7L23.9,8.7z
			 M1.7,12.5c-0.5-0.5-0.5-1.2,0-1.7l8.5-8.5l6.4-0.9l1.2,1.2l-1,1l-0.5-0.5c-0.3-0.3-0.7-0.3-1,0s-0.3,0.7,0,1l2,2
			c0.3,0.3,0.7,0.3,1,0c0.3-0.3,0.3-0.7,0-1l-0.5-0.5l1-1l1.2,1.2l-0.9,6.4l-8.4,8.5c-0.5,0.5-1.2,0.5-1.7,0L1.7,12.5z M22.6,21.4
			c0,0.6-0.5,1.2-1.2,1.2H11.1c-0.6,0-1.1-0.5-1.2-1.1c0.7,0,1.3-0.3,1.8-0.8l8.6-8.6c0.1-0.1,0.2-0.2,0.2-0.4l0.6-4.3l1.5,2
			L22.6,21.4z"/>
	</g>
</g>
</svg>
