<?xml version="1.0" encoding="utf-8"?>
<!-- Generator: Adobe Illustrator 27.0.1, SVG Export Plug-In . SVG Version: 6.00 Build 0)  -->
<svg version="1.1" id="Layer_1" xmlns="http://www.w3.org/2000/svg" xmlns:xlink="http://www.w3.org/1999/xlink" x="0px" y="0px"
	 viewBox="0 0 24 24" style="enable-background:new 0 0 24 24;" xml:space="preserve">
<style type="text/css">
	.st0{fill:#917CC4;}
	.st1{fill:#F8CD9A;}
</style>
<g id="Group_1282" transform="translate(-208.957 -447.957)">
	<g id="browser" transform="translate(208.957 447.957)">
		<g id="Group_1269">
			<g id="Group_1268">
				<path id="Path_1557" class="st0" d="M21.9,0H2.1C0.9,0,0,0.9,0,2.1v19.8C0,23.1,0.9,24,2.1,24h19.8c1.2,0,2.1-0.9,2.1-2.1V2.1
					C24,0.9,23.1,0,21.9,0z M22.6,21.9c0,0.4-0.3,0.7-0.7,0.7H2.1c-0.4,0-0.7-0.3-0.7-0.7V7h21.2L22.6,21.9z M22.6,5.6H1.4V2.1
					c0-0.4,0.3-0.7,0.7-0.7h19.8c0.4,0,0.7,0.3,0.7,0.7V5.6z"/>
			</g>
		</g>
		<g id="Group_1271" transform="translate(1.906 1.906)">
			<g id="Group_1270">
				<circle id="Ellipse_222" class="st0" cx="1.1" cy="1.1" r="1"/>
			</g>
		</g>
		<g id="Group_1273" transform="translate(5.227 1.906)">
			<g id="Group_1272">
				<circle id="Ellipse_223" class="st0" cx="0.8" cy="1.1" r="1"/>
			</g>
		</g>
		<g id="Group_1275" transform="translate(10.761 16.296)">
			<g id="Group_1274">
				<circle id="Ellipse_224" class="st1" cx="1.3" cy="0.7" r="1"/>
			</g>
		</g>
		<g id="Group_1277" transform="translate(8.453 2.818)">
			<g id="Group_1276">
				<path id="Path_1558" class="st0" d="M12.1,0H0.7C0.3,0,0,0.3,0,0.7c0,0.4,0.3,0.7,0.7,0.7h11.4c0.4,0,0.7-0.3,0.7-0.7
					C12.8,0.3,12.5,0,12.1,0L12.1,0z"/>
			</g>
		</g>
		<g id="Group_1279" transform="translate(5.635 8.453)">
			<g id="Group_1278">
				<path id="Path_1559" class="st1" d="M6.4,0C2.9,0,0,2.9,0,6.4c0,3.5,2.9,6.4,6.5,6.3c3.5,0,6.3-2.8,6.3-6.3
					C12.8,2.9,9.9,0,6.4,0z M6.4,11.4c-2.7,0-5-2.2-5-4.9c0-2.7,2.2-5,4.9-5s5,2.2,5,4.9c0,0,0,0.1,0,0.1
					C11.3,9.2,9.1,11.4,6.4,11.4z"/>
			</g>
		</g>
		<g id="Group_1281" transform="translate(11.317 11.27)">
			<g id="Group_1280">
				<path id="Path_1560" class="st1" d="M0.7,0C0.3,0,0,0.3,0,0.7v2.9C0,4,0.3,4.3,0.7,4.3S1.4,4,1.4,3.6V0.7C1.4,0.3,1.1,0,0.7,0
					C0.7,0,0.7,0,0.7,0z"/>
			</g>
		</g>
	</g>
</g>
</svg>
