<?xml version="1.0" encoding="utf-8"?>
<!-- Generator: Adobe Illustrator 27.0.1, SVG Export Plug-In . SVG Version: 6.00 Build 0)  -->
<svg version="1.1" id="Layer_1" xmlns="http://www.w3.org/2000/svg" xmlns:xlink="http://www.w3.org/1999/xlink" x="0px" y="0px"
	 viewBox="0 0 24 24" style="enable-background:new 0 0 24 24;" xml:space="preserve">
<style type="text/css">
	.st0{fill:#917CC4;}
	.st1{fill:#F8CD9A;}
</style>
<g>
	<g>
		<g id="Mask_Group_21" transform="translate(-25 -410)">
			<g id="online-class_1_" transform="translate(25 410)">
				<path id="Path_170" class="st0" d="M21.4,0H2.6C1.2,0,0,1.2,0,2.6v18.8C0,22.8,1.2,24,2.6,24h18.8c1.4,0,2.6-1.2,2.6-2.6V2.6
					C24,1.2,22.8,0,21.4,0z M1.4,2.6c0-0.6,0.5-1.2,1.2-1.2h18.8c0.6,0,1.2,0.5,1.2,1.2V16H1.4V2.6z M22.6,21.4
					c0,0.6-0.5,1.2-1.2,1.2H2.6c-0.6,0-1.2-0.5-1.2-1.2v-4h21.2V21.4z"/>
				<path id="Path_171" class="st0" d="M3.6,20.7h9.6V21c0,0.4,0.3,0.7,0.7,0.7s0.7-0.3,0.7-0.7l0,0v-0.2h5.9c0.4,0,0.7-0.3,0.7-0.7
					c0-0.4-0.3-0.7-0.7-0.7h-5.9v-0.2c0-0.4-0.3-0.7-0.7-0.7s-0.7,0.3-0.7,0.7v0.2H3.6c-0.4,0-0.7,0.3-0.7,0.7
					C2.9,20.4,3.2,20.7,3.6,20.7z"/>
				<path id="Path_172" class="st1" d="M20.2,6.1l-8-2.3c-0.1,0-0.3,0-0.4,0l-8,2.3C3.5,6.2,3.2,6.6,3.3,7c0.1,0.2,0.3,0.4,0.5,0.5
					l2.8,0.8V12c0,0.4,0.3,0.7,0.7,0.7h9.4c0.4,0,0.7-0.3,0.7-0.7l0,0V8.3l1.9-0.6V11c0,0.4,0.3,0.7,0.7,0.7c0.4,0,0.7-0.3,0.7-0.7
					l0,0V6.8C20.7,6.5,20.5,6.2,20.2,6.1z M16,11.2H8V8.7l3.8,1.1c0.1,0,0.3,0,0.4,0L16,8.7V11.2z M12,8.4L6.5,6.8L12,5.2l5.5,1.6
					L12,8.4z"/>
			</g>
		</g>
	</g>
</g>
</svg>
