<?xml version="1.0" encoding="utf-8"?>
<!-- Generator: Adobe Illustrator 27.0.1, SVG Export Plug-In . SVG Version: 6.00 Build 0)  -->
<svg version="1.1" id="Layer_1" xmlns="http://www.w3.org/2000/svg" xmlns:xlink="http://www.w3.org/1999/xlink" x="0px" y="0px"
	 viewBox="0 0 24 24" style="enable-background:new 0 0 24 24;" xml:space="preserve">
<style type="text/css">
	.st0{fill:#917CC4;}
	.st1{fill:#F8CD9A;}
</style>
<g>
	<g id="Mask_Group_24" transform="translate(-25 -410)">
		<g id="settings" transform="translate(25 410)">
			<path id="Path_177" class="st0" d="M12.8,24h-1.5C10,24,9,23,9,21.8v-0.5c-0.5-0.2-1-0.4-1.5-0.6L7.2,21c-0.9,0.9-2.3,0.9-3.1,0
				c0,0,0,0,0,0L3,20c-0.9-0.9-0.9-2.3,0-3.1c0,0,0,0,0,0l0.4-0.4c-0.2-0.5-0.5-1-0.6-1.5H2.2C1,15,0,14,0,12.8v-1.5C0,10,1,9,2.2,9
				h0.5c0.2-0.5,0.4-1,0.6-1.5L3,7.2C2.1,6.3,2.1,4.9,3,4.1c0,0,0,0,0,0L4,3c0.9-0.9,2.3-0.9,3.1,0c0,0,0,0,0,0l0.4,0.4
				C8,3.1,8.5,2.9,9,2.7V2.2C9,1,10,0,11.2,0h1.5C14,0,15,1,15,2.2v0.5c0.5,0.2,1,0.4,1.5,0.6L16.8,3c0.9-0.9,2.3-0.9,3.1,0
				c0,0,0,0,0,0L21,4c0.9,0.9,0.9,2.3,0,3.1c0,0,0,0,0,0l-0.4,0.4c0.2,0.5,0.5,1,0.6,1.5h0.5C23,9,24,10,24,11.2c0,0,0,0,0,0v1.5
				c0,1.2-1,2.2-2.2,2.2h-0.5c-0.2,0.5-0.4,1-0.6,1.5l0.4,0.4c0.9,0.9,0.9,2.3,0,3.1c0,0,0,0,0,0L20,21c-0.9,0.9-2.3,0.9-3.1,0
				c0,0,0,0,0,0l-0.4-0.4c-0.5,0.2-1,0.5-1.5,0.6v0.5C15,23,14,24,12.8,24C12.8,24,12.8,24,12.8,24z M7.8,19.2
				c0.7,0.4,1.4,0.7,2.1,0.9c0.3,0.1,0.5,0.4,0.5,0.7v1c0,0.4,0.4,0.8,0.8,0.8h1.5c0.4,0,0.8-0.4,0.8-0.8v-1c0-0.3,0.2-0.6,0.5-0.7
				c0.8-0.2,1.5-0.5,2.1-0.9c0.3-0.2,0.6-0.1,0.9,0.1l0.7,0.7c0.3,0.3,0.8,0.3,1.1,0c0,0,0,0,0,0L20,19c0.3-0.3,0.3-0.8,0-1.1
				c0,0,0,0,0,0l-0.7-0.7c-0.2-0.2-0.3-0.6-0.1-0.9c0.4-0.7,0.7-1.4,0.9-2.1c0.1-0.3,0.4-0.5,0.7-0.5h1c0.4,0,0.8-0.4,0.8-0.8v-1.5
				c0-0.4-0.4-0.8-0.8-0.8h-1c-0.3,0-0.6-0.2-0.7-0.5c-0.2-0.8-0.5-1.5-0.9-2.1c-0.2-0.3-0.1-0.6,0.1-0.9L20,6.2
				c0.3-0.3,0.3-0.8,0-1.1c0,0,0,0,0,0L19,4c-0.3-0.3-0.8-0.3-1.1,0c0,0,0,0,0,0l-0.7,0.7c-0.2,0.2-0.6,0.3-0.9,0.1
				c-0.7-0.4-1.4-0.7-2.1-0.9c-0.3-0.1-0.5-0.4-0.5-0.7v-1c0-0.4-0.4-0.8-0.8-0.8l0,0h-1.5c-0.4,0-0.8,0.4-0.8,0.8l0,0v1
				c0,0.3-0.2,0.6-0.5,0.7C9.2,4.1,8.4,4.4,7.8,4.8C7.5,5,7.1,4.9,6.9,4.7L6.2,4C5.9,3.7,5.4,3.7,5.1,4c0,0,0,0,0,0L4,5
				C3.7,5.4,3.7,5.9,4,6.2c0,0,0,0,0,0l0.7,0.7C4.9,7.1,5,7.5,4.8,7.8C4.4,8.4,4.1,9.2,3.9,9.9c-0.1,0.3-0.4,0.5-0.7,0.5h-1
				c-0.4,0-0.8,0.4-0.8,0.8l0,0v1.5c0,0.4,0.4,0.8,0.8,0.8l0,0h1c0.3,0,0.6,0.2,0.7,0.5c0.2,0.8,0.5,1.5,0.9,2.1
				c0.2,0.3,0.1,0.6-0.1,0.9L4,17.8c-0.3,0.3-0.3,0.8,0,1.1c0,0,0,0,0,0L5,20c0.3,0.3,0.8,0.3,1.1,0c0,0,0,0,0,0l0.7-0.7
				C7.1,19.1,7.5,19,7.8,19.2L7.8,19.2z"/>
			<path id="Path_178" class="st1" d="M12,17.2c-2.9,0-5.2-2.3-5.2-5.2S9.1,6.8,12,6.8s5.2,2.3,5.2,5.2C17.2,14.9,14.9,17.2,12,17.2
				z M12,8.2c-2.1,0-3.8,1.7-3.8,3.8s1.7,3.8,3.8,3.8s3.8-1.7,3.8-3.8l0,0C15.8,9.9,14.1,8.2,12,8.2z"/>
		</g>
	</g>
</g>
</svg>
