<?xml version="1.0" encoding="utf-8"?>
<!-- Generator: Adobe Illustrator 27.0.1, SVG Export Plug-In . SVG Version: 6.00 Build 0)  -->
<svg version="1.1" id="Layer_1" xmlns="http://www.w3.org/2000/svg" xmlns:xlink="http://www.w3.org/1999/xlink" x="0px" y="0px"
	 viewBox="0 0 24 24" style="enable-background:new 0 0 24 24;" xml:space="preserve">
<style type="text/css">
	.st0{display:none;}
	.st1{fill:#917CC4;}
	.st2{fill:#F8CD9A;}
</style>
<g id="Group_1288" transform="translate(-209 -396)">
	<path id="Rectangle_572" class="st0" d="M209,396h24v24h-24V396z"/>
	<g id="Group_1287" transform="translate(33.254 -307)">
		<g id="Group_1260" transform="translate(176.5 703)">
			<g id="student_2_">
				<g id="Group_1255">
					<g id="Group_1254">
						<path id="Path_1551" class="st1" d="M21.1,11.4c0-7.9,0-7.4-0.1-7.6c0.1-0.4,0-0.8-0.4-0.9c0,0-0.1,0-0.1,0L10.7,0
							c-0.1,0-0.3,0-0.4,0L0.5,2.8C0.1,2.9-0.1,3.3,0,3.7c0.1,0.2,0.3,0.4,0.5,0.5l3.7,1.1v3.2c0,2.6,1.3,4.9,3.5,6.3l-0.4,0.8
							c-1.9,0.1-3.7,0.9-5,2.3C0.8,19.3,0,21.2,0,23.3C0,23.7,0.3,24,0.7,24h0h19.7c0.4,0,0.7-0.3,0.7-0.7v0c0-2.1-0.8-4-2.3-5.5
							c-1.3-1.4-3.1-2.2-5-2.3l-0.4-0.8c2.2-1.3,3.5-3.7,3.5-6.3V5.3l2.8-0.8v6.9c-0.8,0.3-1.4,1.1-1.4,2v1.4c0,0.4,0.3,0.7,0.7,0.7
							l0,0h2.8c0.4,0,0.7-0.3,0.7-0.7c0,0,0,0,0,0v-1.4C22.5,12.5,21.9,11.7,21.1,11.4z M9.8,22.6H1.4c0.3-3.1,2.8-5.5,5.9-5.7
							l2.5,3.7V22.6z M8.5,16.1L9,15.3c1,0.3,2.1,0.3,3.1,0l0.4,0.9l-2,3L8.5,16.1z M13.7,16.9c3.1,0.2,5.6,2.6,5.9,5.7h-8.4v-2
							L13.7,16.9z M10.5,14.1C8.1,13.9,6,12,5.7,9.5c1.5,0.7,3.2,1,4.8,1c1.7,0,3.3-0.3,4.8-1C15.1,12,13,13.9,10.5,14.1L10.5,14.1z
							 M15.5,7.6c0,0.2-0.2,0.4-0.3,0.5c-1.4,0.7-3,1-4.6,1C9,9.1,7.4,8.8,6,8.1C5.8,8,5.6,7.7,5.6,7.5V5.7C10.7,7.1,10.4,7,10.5,7
							s-0.2,0.1,4.9-1.4C15.5,6.3,15.5,7,15.5,7.6L15.5,7.6z M10.5,5.6L3.3,3.5l7.3-2.1l7.3,2.1L10.5,5.6z M21.1,14.1h-1.4v-0.7
							c0-0.4,0.3-0.7,0.7-0.7s0.7,0.3,0.7,0.7L21.1,14.1z"/>
					</g>
				</g>
				<g id="Group_1257" transform="translate(14.062 19.688)">
					<g id="Group_1256">
						<path id="Path_1552" class="st2" d="M2.1,0H0.7C0.3,0,0,0.3,0,0.7s0.3,0.7,0.7,0.7h1.4c0.4,0,0.7-0.3,0.7-0.7S2.5,0,2.1,0
							L2.1,0z"/>
					</g>
				</g>
			</g>
		</g>
	</g>
</g>
</svg>
