<?xml version="1.0" encoding="utf-8"?>
<!-- Generator: Adobe Illustrator 27.0.1, SVG Export Plug-In . SVG Version: 6.00 Build 0)  -->
<svg version="1.1" id="Layer_1" xmlns="http://www.w3.org/2000/svg" xmlns:xlink="http://www.w3.org/1999/xlink" x="0px" y="0px"
	 viewBox="0 0 24 24" style="enable-background:new 0 0 24 24;" xml:space="preserve">
<style type="text/css">
	.st0{fill:#917CC4;}
</style>
<g>
	<g id="Mask_Group_22" transform="translate(-25 -410)">
		<g id="help" transform="translate(25 410)">
			<g id="Group_184">
				<path id="Path_173" class="st0" d="M20.5,3.5c-4.7-4.6-12.3-4.6-17,0.1c-4.6,4.7-4.6,12.2,0,16.8c4.7,4.6,12.3,4.6,17-0.1
					C25.1,15.7,25.1,8.2,20.5,3.5z M12,1.4c2.6,0,5,0.9,7,2.6l-3.3,3.3c-2.2-1.7-5.2-1.7-7.4,0L5,4C7,2.3,9.4,1.4,12,1.4z M16.6,12
					c0,2.5-2,4.6-4.6,4.6s-4.6-2-4.6-4.6s2-4.6,4.6-4.6C14.5,7.4,16.6,9.5,16.6,12z M1.4,12c0-2.6,0.9-5,2.6-7l3.3,3.3
					c-1.7,2.2-1.7,5.2,0,7.4L4,19C2.3,17,1.4,14.6,1.4,12z M12,22.6c-2.6,0-5-0.9-7-2.6l3.3-3.3c2.2,1.7,5.2,1.7,7.4,0L19,20
					C17,21.7,14.6,22.6,12,22.6z M20,19l-3.3-3.3c1.7-2.2,1.7-5.2,0-7.4L20,5C23.5,9,23.5,15,20,19L20,19z"/>
			</g>
		</g>
	</g>
</g>
</svg>
