<?xml version="1.0" encoding="utf-8"?>
<!-- Generator: Adobe Illustrator 27.0.1, SVG Export Plug-In . SVG Version: 6.00 Build 0)  -->
<svg version="1.1" id="Layer_1" xmlns="http://www.w3.org/2000/svg" xmlns:xlink="http://www.w3.org/1999/xlink" x="0px" y="0px"
	 viewBox="0 0 24 24" style="enable-background:new 0 0 24 24;" xml:space="preserve">
<style type="text/css">
	.st0{display:none;}
	.st1{fill:#917CC4;}
	.st2{fill:#F8CD9A;}
</style>
<g id="Group_1286" transform="translate(-162 -397)">
	<path id="Rectangle_571" class="st0" d="M162,397h24v24h-24V397z"/>
	<g id="Group_1285" transform="translate(-14 -268)">
		<g id="Group_1259">
			<g id="speech" transform="translate(177.274 665)">
				<path id="Path_1544" class="st1" d="M16.5,4.5V0.7c0-0.4-0.3-0.7-0.7-0.7H0.7C0.3,0,0,0.3,0,0.7c0,0,0,0,0,0V9
					c0,0.4,0.3,0.7,0.7,0.7h6c-0.1,0.5-0.2,1-0.2,1.5v1.7l-1.7,3.3c-0.1,0.2-0.1,0.5,0,0.7C5,17,5.3,17.1,5.5,17.1h1.1v3.6
					c0,0.4,0.3,0.7,0.7,0.7h3.4V23c0,0.4,0.3,0.7,0.7,0.7h6.9c0.4,0,0.7-0.3,0.7-0.7v-3.3c0-1.1,0.4-2.1,1-3c1-1.6,1.6-3.5,1.5-5.5
					C21.4,8.1,19.4,5.4,16.5,4.5z M1.5,8.3V1.4h13.6v6.9h-2.7c-0.2,0-0.4,0.1-0.5,0.2l-1.1,1.1L9.6,8.5C9.5,8.4,9.3,8.3,9.1,8.3
					L1.5,8.3z M18.7,16c-0.7,1.1-1.1,2.3-1.2,3.6v2.6h-5.4v-1.5c0-0.4-0.3-0.7-0.7-0.7H8v-3.6c0-0.4-0.3-0.7-0.7-0.7H6.7L8,13.3
					C8,13.2,8,13.1,8,13v-1.8c0-0.5,0.1-1,0.2-1.5h0.5l1.4,1.4c0.3,0.3,0.7,0.3,1,0l1.4-1.4h3.1c0.4,0,0.7-0.3,0.7-0.7V6
					c2.1,0.9,3.5,2.9,3.5,5.2C20.1,12.9,19.6,14.6,18.7,16z"/>
				<path id="Path_1545" class="st2" d="M0.7,16.2c-0.4,0-0.7,0.3-0.7,0.7l0,0v2.8c0,0.4,0.3,0.7,0.6,0.7c0.4,0,0.7-0.3,0.7-0.6
					c0,0,0,0,0-0.1v-2.8C1.3,16.5,1,16.2,0.7,16.2z"/>
				<path id="Path_1546" class="st2" d="M3.4,17.1c-0.4,0-0.7,0.3-0.7,0.7l0,0v1c0,0.4,0.3,0.7,0.6,0.7c0.4,0,0.7-0.3,0.7-0.6
					c0,0,0,0,0-0.1v-1C4,17.4,3.7,17.1,3.4,17.1z"/>
				<circle id="Ellipse_218" class="st2" cx="4.6" cy="4.7" r="0.7"/>
				<circle id="Ellipse_220" class="st2" cx="10.7" cy="4.7" r="0.7"/>
				<circle id="Ellipse_221" class="st2" cx="7.8" cy="4.7" r="0.7"/>
			</g>
		</g>
	</g>
</g>
</svg>
