<?xml version="1.0" encoding="utf-8"?>
<!-- Generator: Adobe Illustrator 27.0.1, SVG Export Plug-In . SVG Version: 6.00 Build 0)  -->
<svg version="1.1" id="Layer_1" xmlns="http://www.w3.org/2000/svg" xmlns:xlink="http://www.w3.org/1999/xlink" x="0px" y="0px"
	 viewBox="0 0 24 24" style="enable-background:new 0 0 24 24;" xml:space="preserve">
<style type="text/css">
	.st0{fill:#917CC4;}
	.st1{fill:#F8CD9A;}
</style>
<g>
	<g id="Mask_Group_17" transform="translate(-25 -410)">
		<g id="online-class" transform="translate(25 410)">
			<path id="Path_153" class="st0" d="M22.1,12.3c1.1-0.1,1.9-1,1.9-2.1V3.7c0-1.2-0.9-2.1-2.1-2.1h-7c-1.2,0-2.1,0.9-2.1,2.1v2.8H4
				c-1.2,0-2.1,0.9-2.1,2.1V17c0,0.2,0,0.5,0.1,0.7H1.3c-0.7,0-1.3,0.6-1.3,1.3c0,0,0,0,0,0c0,1.9,1.6,3.5,3.5,3.5h17
				c1.9,0,3.5-1.6,3.5-3.5c0-0.7-0.6-1.3-1.3-1.3H22c0.1-0.2,0.1-0.5,0.1-0.7V12.3z M14.2,3.7c0-0.4,0.3-0.7,0.7-0.7h7
				c0.4,0,0.7,0.3,0.7,0.7c0,0,0,0,0,0v6.6c0,0.4-0.3,0.7-0.7,0.7l0,0h-6.5c-0.1,0-0.3,0-0.4,0.1l-1.4,0.9l0.6-2c0-0.1,0-0.1,0-0.2
				L14.2,3.7z M20.5,21h-17c-1.1,0-2-0.9-2.1-2h21.2C22.5,20.2,21.6,21,20.5,21L20.5,21z M6.7,12.4c0-0.4,0.4-0.8,0.8-0.8
				s0.8,0.4,0.8,0.8s-0.4,0.8-0.8,0.8S6.7,12.8,6.7,12.4L6.7,12.4z M6.3,15.4c0-0.4,0.5-0.8,1.2-0.8c0.3,0,0.6,0.1,0.9,0.3
				c0.2,0.1,0.3,0.3,0.3,0.5v2.3H6.3L6.3,15.4z M10.1,17.7v-2.3c0-0.6-0.3-1.2-0.8-1.6l0,0c0.8-1,0.6-2.3-0.4-3.1S6.5,10.1,5.8,11
				c-0.6,0.8-0.6,1.9,0,2.7c-0.5,0.4-0.8,1-0.9,1.6v2.3H4c-0.4,0-0.7-0.3-0.7-0.7l0,0V8.5c0-0.4,0.3-0.7,0.7-0.7h8.8v1.8l-0.6,1.9
				c-0.2,0.7,0.2,1.5,0.9,1.8c0.4,0.1,0.8,0.1,1.2-0.2l1.2-0.8h5.1V17c0,0.4-0.3,0.7-0.7,0.7h0L10.1,17.7z"/>
			<path id="Path_154" class="st1" d="M19.1,7.9h-1.5c-0.4,0-0.7,0.3-0.7,0.7s0.3,0.7,0.7,0.7h1.5c0.4,0,0.7-0.3,0.7-0.7
				S19.5,7.9,19.1,7.9z"/>
			<path id="Path_155" class="st1" d="M16.5,6h3.8C20.6,6,21,5.6,21,5.2s-0.3-0.7-0.7-0.7h-3.8c-0.4,0-0.7,0.3-0.7,0.7
				S16.1,6,16.5,6z"/>
		</g>
	</g>
</g>
</svg>
