<?xml version="1.0" encoding="utf-8"?>
<!-- Generator: Adobe Illustrator 27.0.1, SVG Export Plug-In . SVG Version: 6.00 Build 0)  -->
<svg version="1.1" id="Layer_1" xmlns="http://www.w3.org/2000/svg" xmlns:xlink="http://www.w3.org/1999/xlink" x="0px" y="0px"
	 viewBox="0 0 354.4 313" style="enable-background:new 0 0 354.4 313;" xml:space="preserve">
<style type="text/css">
	.st0{fill:#EAEEF9;}
	.st1{fill:#917CC4;}
	.st2{fill:url(#Path-10_00000130631035356119166670000009096729505588803771_);}
	.st3{fill:url(#Path-11_00000174593256955469663720000017455336025933022106_);}
	.st4{filter:url(#Path);}
	.st5{fill:#FFFFFF;}
	.st6{fill:#E3EAF2;}
	.st7{fill:#CED7E2;stroke:#F8CD9A;stroke-miterlimit:10;}
	.st8{fill:#E6EDF5;}
	.st9{filter:url(#Path-2);}
	.st10{fill:#E3EAF2;stroke:#F8CD9A;stroke-miterlimit:10;}
	.st11{fill:#E6EDF5;stroke:#F8CD9A;stroke-miterlimit:10;}
	.st12{filter:url(#Path-3);}
	.st13{filter:url(#Path-4);}
	.st14{fill:url(#Path-46_00000014609856065344684500000014984443621597534903_);}
	.st15{fill:url(#Path-47_00000107561632837479111220000008965383342422889135_);}
	.st16{fill:url(#Path-48_00000170237010907388234670000004899226143236610693_);}
	.st17{fill:#F8CD9A;}
	.st18{fill:url(#Path-50_00000181767193728168058520000005820361079859592835_);}
	.st19{fill:url(#Path-51_00000026862841823810128950000012874593492660727457_);}
</style>
<filter  filterUnits="userSpaceOnUse" height="168.734" id="Path-4" width="150.13" x="107.832" y="87.812">
	<feOffset  dy="5" input="SourceAlpha"></feOffset>
	<feGaussianBlur  result="blur-4" stdDeviation="4"></feGaussianBlur>
	<feFlood  flood-color="#1d4bff" flood-opacity="0.22"></feFlood>
	<feComposite  in2="blur-4" operator="in"></feComposite>
	<feComposite  in="SourceGraphic" operator="over"></feComposite>
</filter>
<filter  filterUnits="userSpaceOnUse" height="311.706" id="Path-3" width="256.747" x="51.765" y="1.281">
	<feOffset  dy="11" input="SourceAlpha"></feOffset>
	<feGaussianBlur  result="blur-3" stdDeviation="11"></feGaussianBlur>
	<feFlood  flood-color="#657a93" flood-opacity="0.18"></feFlood>
	<feComposite  in2="blur-3" operator="in"></feComposite>
	<feComposite  in="SourceGraphic" operator="over"></feComposite>
</filter>
<filter  filterUnits="userSpaceOnUse" height="281.554" id="Path-2" width="274.63" x="0" y="25.996">
	<feOffset  dy="11" input="SourceAlpha"></feOffset>
	<feGaussianBlur  result="blur-2" stdDeviation="11"></feGaussianBlur>
	<feFlood  flood-color="#657a93" flood-opacity="0.18"></feFlood>
	<feComposite  in2="blur-2" operator="in"></feComposite>
	<feComposite  in="SourceGraphic" operator="over"></feComposite>
</filter>
<filter  filterUnits="userSpaceOnUse" height="294.635" id="Path" width="253.883" x="100.499" y="11.416">
	<feOffset  dy="11" input="SourceAlpha"></feOffset>
	<feGaussianBlur  result="blur" stdDeviation="11"></feGaussianBlur>
	<feFlood  flood-color="#657a93" flood-opacity="0.18"></feFlood>
	<feComposite  in2="blur" operator="in"></feComposite>
	<feComposite  in="SourceGraphic" operator="over"></feComposite>
</filter>
<g id="Group_1" transform="translate(-1277.626 -695)">
	<path id="Path-5" class="st0" d="M1594.1,791.4v111.4c0,1.7-0.1,3.4-0.3,5c-1.5,12.8-9,24.1-20.2,30.4l-96.9,55.5
		c-9.2,5.3-20.1,6.8-30.3,4.1c-3.7-0.9-7.3-2.3-10.7-4.1l-97.2-55.8c-12.8-7.3-20.7-20.8-20.8-35.5V791.4
		c-0.1-14.7,7.8-28.2,20.5-35.5l97.2-55.5c9.3-5.3,20.3-6.8,30.6-4.1c3.7,1,7.3,2.4,10.7,4.1l96.9,55.5
		C1586.3,763.3,1594.1,776.8,1594.1,791.4z"/>
	<g id="_18" transform="translate(1307.5 704.904)">
		<path id="Path-6" class="st0" d="M9.5,53.5c3.8-1.2,5.9-5.3,4.7-9.1S8.9,38.4,5,39.6c-3.8,1.2-5.9,5.3-4.7,9.1c0,0,0,0,0,0
			C1.6,52.6,5.7,54.7,9.5,53.5z"/>
		<path id="Path-7" class="st0" d="M25.3,29.7c2.6-0.8,4-3.6,3.2-6.2s-3.6-4-6.2-3.2c-2.6,0.8-4,3.6-3.2,6.2c0,0,0,0,0,0
			C20,29.2,22.8,30.6,25.3,29.7z"/>
		<path id="Path-8" class="st0" d="M294.2,58.1c4.5-4.1,4.8-11.1,0.7-15.6s-11.1-4.8-15.6-0.7c-4.5,4.1-4.8,11.1-0.7,15.6
			c0,0,0,0,0,0C282.7,61.9,289.7,62.2,294.2,58.1z"/>
		<path id="Path-9" class="st1" d="M289.9,245.4c1.9-1.7,2-4.7,0.3-6.6c-1.7-1.9-4.7-2-6.6-0.3c-1.9,1.7-2,4.7-0.3,6.6c0,0,0,0,0,0
			C285.1,247,288,247.1,289.9,245.4z"/>
		
			<linearGradient id="Path-10_00000119833177212741224800000015837130090361168536_" gradientUnits="userSpaceOnUse" x1="-139.5559" y1="544.7859" x2="-138.5649" y2="544.7859" gradientTransform="matrix(11.63 0 0 -11.63 1656.1521 6588.2563)">
			<stop  offset="0" style="stop-color:#F8CD9A"/>
			<stop  offset="1" style="stop-color:#F8CD9A"/>
		</linearGradient>
		<path id="Path-10" style="fill:url(#Path-10_00000119833177212741224800000015837130090361168536_);" d="M38.9,258.2
			c3.2,0,5.8-2.6,5.8-5.8s-2.6-5.8-5.8-5.8c-3.2,0-5.8,2.6-5.8,5.8c0,0,0,0,0,0C33.1,255.6,35.7,258.2,38.9,258.2
			C38.9,258.2,38.9,258.2,38.9,258.2z"/>
		
			<linearGradient id="Path-11_00000170251361403766656780000012524571636684006315_" gradientUnits="userSpaceOnUse" x1="-136.9583" y1="539.111" x2="-135.9883" y2="539.111" gradientTransform="matrix(9.304 0 0 -9.304 1530.2277 5020.5361)">
			<stop  offset="0" style="stop-color:#F8CD9A"/>
			<stop  offset="1" style="stop-color:#F8CD9A"/>
		</linearGradient>
		<path id="Path-11" style="fill:url(#Path-11_00000170251361403766656780000012524571636684006315_);" d="M260.4,9.3
			c2.6,0,4.7-2.1,4.7-4.6c0-2.6-2.1-4.7-4.6-4.7c-2.6,0-4.7,2.1-4.7,4.6c0,0,0,0,0,0C255.8,7.2,257.9,9.3,260.4,9.3z"/>
		<g transform="matrix(1, 0, 0, 1, -29.87, -9.9)" class="st4">
			<path id="Path-12_00000046335174953003715190000013167890781206998963_" class="st5" d="M321.4,129.1l-48.5,127.7
				c-1.6,4.2-6.4,6.3-10.6,4.7c0,0-0.1,0-0.1,0l-123.4-48.6c-4.2-1.7-6.3-6.4-4.7-10.7c0,0,0-0.1,0-0.1l64.2-163.4
				c1.6-4.2,6.4-6.3,10.6-4.7c0,0,0.1,0,0.1,0l89.4,35.2L321.4,129.1z"/>
		</g>
		<path id="Path-13" class="st6" d="M235.8,198.6l-74-29.1c-1.2-0.3-1.4-1.5-1.2-2.6c0.3-1.2,1.5-1.5,2.6-1.2l74,29.1
			c1.2,0.3,1.4,1.5,1.2,2.6C237.8,198.3,236.8,198.8,235.8,198.6z"/>
		<path id="Path-14" class="st6" d="M152.4,165.7l-13.1-5.2c-1.2-0.3-1.5-1.5-1.2-2.6s1.5-1.5,2.6-1.2l13.1,5.2
			c1.2,0.3,1.5,1.5,1.2,2.6C154.8,165.7,153.6,166,152.4,165.7z"/>
		<path id="Path-15" class="st6" d="M243.3,178.5l-33.1-13.1c-1.2-0.3-1.4-1.5-1.2-2.6c0.3-1.2,1.5-1.5,2.6-1.2l33.1,13.1
			c1.2,0.3,1.5,1.5,1.2,2.6C245.6,178.5,244.5,178.8,243.3,178.5z"/>
		<path id="Path-16" class="st6" d="M196.3,159.9L148.1,141c-1.2-0.3-1.4-1.5-1.2-2.6c0.3-1.2,1.5-1.5,2.6-1.2l48.2,18.9
			c1.2,0.3,1.5,1.5,1.2,2.6S197.4,160.2,196.3,159.9z"/>
		<path id="Path-17" class="st6" d="M251.7,158.8l-12.8-4.9c-1.2-0.3-1.5-1.5-1.2-2.6s1.5-1.5,2.6-1.2l12.8,4.9
			c1.2,0.3,1.5,1.5,1.2,2.6C254.1,158.8,252.9,159.1,251.7,158.8z"/>
		<path id="Path-18" class="st6" d="M227.1,148.9L156.5,121c-1.2-0.3-1.5-1.5-1.2-2.6s1.5-1.5,2.6-1.2l70.6,27.9
			c1.2,0.3,1.4,1.5,1.2,2.6c-0.2,1-1.1,1.6-2.1,1.4C227.4,149,227.2,149,227.1,148.9z"/>
		<path id="Path-19" class="st6" d="M171,198.3l-4.4-1.7c-1.2-0.3-1.5-1.5-1.2-2.6s1.5-1.5,2.6-1.2l4.4,1.8c1.2,0.3,1.5,1.4,1.2,2.6
			C173.2,198.1,172.1,198.6,171,198.3z"/>
		<path id="Path-20" class="st6" d="M158.5,193.4l-26.1-10.5c-1.2-0.3-1.4-1.5-1.2-2.6c0.3-1.2,1.5-1.5,2.6-1.2l26.1,10.5
			c1.2,0.3,1.5,1.5,1.2,2.6C160.7,193.2,159.6,193.8,158.5,193.4z"/>
		<path id="Path-21" class="st6" d="M260.4,139l-45.6-18c-1.2-0.3-1.5-1.5-1.2-2.6s1.5-1.5,2.6-1.2l45.6,18c1.2,0.3,1.5,1.5,1.2,2.6
			C262.7,138.9,261.5,139.4,260.4,139z"/>
		<path id="Path-22" class="st6" d="M200.1,115.2l-35.1-14c-1.2-0.3-1.5-1.5-1.2-2.6s1.5-1.5,2.6-1.2l35.1,14.2
			c1.2,0.3,1.5,1.5,1.2,2.6C202.4,115.4,201.2,115.7,200.1,115.2z"/>
		<path id="Path-23" class="st7" d="M242.7,80l-59.2-23.3c-1.3-0.5-2-2-1.5-3.3c0-0.1,0.1-0.1,0.1-0.2c0.5-1.3,1.9-2,3.3-1.5
			c0.1,0,0.1,0.1,0.2,0.1L244.8,75c1.4,0.6,2,2.1,1.5,3.5C245.7,79.9,244.1,80.5,242.7,80z"/>
		<path id="Path-24" class="st7" d="M200.6,79.7l-22.6-9c-1.3-0.5-2-2-1.5-3.3c0-0.1,0.1-0.1,0.1-0.2c0.5-1.3,1.9-2,3.3-1.5
			c0.1,0,0.1,0.1,0.2,0.1l22.6,9c1.3,0.5,2,2,1.5,3.3c0,0.1-0.1,0.1-0.1,0.2C203.6,79.6,202,80.2,200.6,79.7
			C200.7,79.7,200.6,79.7,200.6,79.7z"/>
		<path id="Path-25" class="st8" d="M268.6,59.3l-13.6,34.9c-1.9,5,0.6,10.5,5.5,12.5l31.1,12.2"/>
		<g transform="matrix(1, 0, 0, 1, -29.87, -9.9)" class="st9">
			<path id="Path-26_00000091012919576461655480000014973448602929906879_" class="st5" d="M184.3,74.2L241,198.3
				c1.7,4.4,0,9.3-4.4,11l-121.4,53.5c-4.4,1.7-9.3,0-11-4.4L33.7,98c-1.7-4.4,0-9.3,4.4-11l88-39L184.3,74.2z"/>
		</g>
		<path id="Path-27" class="st6" d="M171.6,159.6l-72.9,32.3c-1,0.5-2.1,0.1-2.6-0.9c-0.5-1-0.1-2.1,0.9-2.6l72.9-32.3
			c1-0.5,2.1-0.1,2.6,0.9C173,158,172.6,159.1,171.6,159.6C171.6,159.6,171.6,159.6,171.6,159.6z"/>
		<path id="Path-28" class="st10" d="M89.7,195.7L77,201.2c-1,0.5-2.1,0.1-2.6-0.9c-0.5-1-0.1-2.1,0.9-2.6l12.8-5.5
			c1-0.5,2.1-0.1,2.6,0.9C91.2,194.2,90.9,195.4,89.7,195.7z"/>
		<path id="Path-29" class="st10" d="M162.6,140.2l-32.5,14.2c-1,0.5-2.1,0.1-2.6-0.9c-0.5-1-0.1-2.1,0.9-2.6l32.5-14.2
			c1-0.5,2.1-0.1,2.6,0.9c0.5,0.8,0.3,1.9-0.5,2.5C162.8,140.1,162.7,140.1,162.6,140.2z"/>
		<path id="Path-30" class="st10" d="M116.4,160.5l-47.3,20.9c-1,0.5-2.1,0.1-2.6-0.9c-0.5-1-0.1-2.1,0.9-2.6l47.3-20.9
			c1-0.5,2.1-0.1,2.6,0.9C117.9,159.1,117.6,160.2,116.4,160.5z"/>
		<path id="Path-31" class="st10" d="M154.8,120.1l-12.5,5.5c-1,0.5-2.1,0.1-2.6-0.9c-0.5-1-0.1-2.1,0.9-2.6l12.5-5.5
			c1-0.5,2.1-0.1,2.6,0.9c0.5,0.9,0.2,2-0.7,2.5C154.9,120,154.8,120.1,154.8,120.1z"/>
		<path id="Path-32" class="st10" d="M130.4,130.9L61,161.7c-1,0.5-2.1,0.1-2.6-0.9c-0.5-1-0.1-2.1,0.9-2.6l69.7-30.8
			c1-0.5,2.1-0.1,2.6,0.9C131.8,129.4,131.5,130.6,130.4,130.9z"/>
		<path id="Path-33" class="st10" d="M126,205.6l-4.4,2c-1,0.5-2.1,0.1-2.6-0.9c-0.5-1-0.1-2.1,0.9-2.6l4.4-2c1-0.5,2.1-0.1,2.6,0.9
			C127.3,203.9,127,205.1,126,205.6z"/>
		<path id="Path-34" class="st10" d="M113.5,211.1l-25.8,11.3c-1,0.5-2.1,0.1-2.6-0.9c-0.5-1-0.1-2.1,0.9-2.6l25.8-11.3
			c1-0.5,2.1-0.1,2.6,0.9c0.5,0.8,0.3,1.9-0.5,2.5C113.8,211,113.7,211.1,113.5,211.1z"/>
		<path id="Path-35" class="st10" d="M146.6,100.3l-44.7,19.8c-1,0.5-2.1,0.1-2.6-0.9c-0.5-1-0.1-2.1,0.9-2.6l44.7-19.8
			c1-0.5,2.1-0.1,2.6,0.9C148,98.7,147.6,99.8,146.6,100.3z"/>
		<path id="Path-36" class="st10" d="M87.4,126.5l-34.5,15.1c-1,0.5-2.1,0.1-2.6-0.9c-0.5-1-0.1-2.1,0.9-2.6L85.7,123
			c1-0.5,2.1-0.1,2.6,0.9c0.5,0.8,0.3,1.9-0.5,2.5C87.6,126.4,87.5,126.4,87.4,126.5z"/>
		<path id="Path-37" class="st7" d="M92.3,71.2L34,96.8c-1.3,0.6-2.8,0-3.4-1.2c0-0.1-0.1-0.1-0.1-0.2c-0.6-1.3,0-2.8,1.3-3.4
			c0.1,0,0.1-0.1,0.2-0.1L90,66.3c1.3-0.6,2.8,0,3.4,1.3c0,0.1,0.1,0.1,0.1,0.2C94.1,69,93.6,70.6,92.3,71.2z"/>
		<path id="Path-38" class="st7" d="M62.4,101.2l-22.4,9.9c-1.3,0.6-2.8,0-3.4-1.2c0-0.1-0.1-0.1-0.1-0.2c-0.6-1.3,0-2.8,1.3-3.4
			c0.1,0,0.1-0.1,0.2-0.1l22.4-9.9c1.3-0.6,2.8,0,3.4,1.3c0,0.1,0.1,0.1,0.1,0.2C64.5,99.1,63.8,100.6,62.4,101.2
			C62.5,101.2,62.4,101.2,62.4,101.2z"/>
		<path id="Path-39" class="st11" d="M96.1,38.4l15.1,34.3c2.3,4.7,7.9,6.9,12.8,4.9l30.5-13.4"/>
		<g transform="matrix(1, 0, 0, 1, -29.87, -9.9)" class="st12">
			<path id="Path-40_00000079478191160870298150000001911340500813445049_" class="st5" d="M273.5,83.8l2,174.5
				c0,5.9-4.8,10.7-10.7,10.8c0,0,0,0-0.1,0H95.5c-5.9,0-10.7-4.8-10.7-10.7c0,0,0,0,0,0V34c0-5.9,4.8-10.7,10.7-10.8c0,0,0,0,0.1,0
				h122.8L273.5,83.8z"/>
		</g>
		<path id="Path-41" class="st6" d="M137.3,224.2h-6.1c-1.4,0-2.6-1.2-2.6-2.6c0,0,0,0,0,0c0-1.4,1.1-2.6,2.6-2.6c0,0,0,0,0,0h6.1
			c1.4,0,2.6,1.2,2.6,2.6C140,223,138.8,224.2,137.3,224.2L137.3,224.2z"/>
		<path id="Path-42" class="st10" d="M120.2,224.2h-36c-1.4-0.1-2.6-1.3-2.5-2.7c0.1-1.3,1.1-2.4,2.5-2.5h36c1.4,0,2.6,1.2,2.6,2.6
			C122.8,223,121.7,224.2,120.2,224.2z"/>
		<path id="Path-43" class="st7" d="M167.2,50H86c-1.9,0-3.5-1.6-3.5-3.5c0-1.9,1.6-3.5,3.5-3.5h81.3c1.9,0,3.5,1.6,3.5,3.5
			C170.6,48.4,169.1,49.9,167.2,50z"/>
		<path id="Path-44" class="st7" d="M117,69.5H86c-1.9,0-3.5-1.6-3.5-3.5c0-1.9,1.6-3.5,3.5-3.5H117c1.9,0,3.5,1.6,3.5,3.5
			C120.4,67.9,118.9,69.4,117,69.5z"/>
		<path id="Path-45" class="st8" d="M188.4,13.7v48c0.2,6.8,5.7,12.2,12.5,12.2h42.7"/>
		<path id="Shape" class="st6" d="M88.9,196.9c-4.6-0.1-8.2-3.9-8.1-8.4v-73.9c-0.1-4.5,3.4-8.3,7.9-8.4c0.1,0,0.1,0,0.2,0h128
			c4.4,0.1,7.9,3.7,7.9,8.1c0,0.1,0,0.2,0,0.4v73.9c0.1,4.5-3.4,8.3-7.9,8.4c-0.1,0-0.1,0-0.2,0H88.9z"/>
		<g transform="matrix(1, 0, 0, 1, -29.87, -9.9)" class="st13">
			
				<linearGradient id="Path-46_00000105399441737176284640000008857908396884644775_" gradientUnits="userSpaceOnUse" x1="-118.7577" y1="576.0128" x2="-118.2007" y2="575.1788" gradientTransform="matrix(126.1184 0 0 -144.7344 15134.5732 83470.7734)">
				<stop  offset="0" style="stop-color:#917CC4"/>
				<stop  offset="1" style="stop-color:#917CC4"/>
			</linearGradient>
			
				<path id="Path-46_00000134223290776886932810000004703088596709205935_" style="fill:url(#Path-46_00000105399441737176284640000008857908396884644775_);" d="
				M238.3,120.1c-2.9,0-9.9-2.6-12.2-3.5c-12.2-5.5-32.2-21.8-43.3-21.8s-31.1,16-43.3,21.8c-2,0.9-9.3,3.5-12.2,3.5
				c-4.4,0.2-7.8,3.9-7.6,8.3c0,0.1,0,0.3,0,0.4c2.2,18.5,6,36.8,11.6,54.7c9.9,30.5,37.2,48.9,47.6,55c2.5,1.5,5.6,1.5,8.1,0
				c10.5-6.1,37.7-24.4,47-55c5.6-17.8,9.5-36.1,11.6-54.7c0.6-4.2-2.3-8.1-6.5-8.6C239,120.1,238.7,120.1,238.3,120.1z"/>
		</g>
		
			<linearGradient id="Path-47_00000143587648886162793370000018301108810266291876_" gradientUnits="userSpaceOnUse" x1="-147.7445" y1="564.8441" x2="-148.3394" y2="565.4871" gradientTransform="matrix(94.646 0 0 -111.366 14170.6777 63091.5)">
			<stop  offset="0" style="stop-color:#917CC4"/>
			<stop  offset="1" style="stop-color:#917CC4"/>
		</linearGradient>
		<path id="Path-47" style="fill:url(#Path-47_00000143587648886162793370000018301108810266291876_);" d="M200.3,123.9
			c-1.4,10.5-3.4,20.9-6.1,31.1c-0.5,2.5-1.2,4.9-2,7.3c-0.5,2.3-1.2,4.5-2,6.7c-7.3,23.3-27.3,37.8-37.2,43.6h-0.6
			c-0.9-0.6-1.9-1.2-2.9-1.7c-10.5-7-27.3-20.6-33.7-41.6c-1.5-4.9-2.9-9.6-4.1-14.2c-2.7-10.2-4.7-20.6-6.1-31.1
			c4-0.8,7.9-2.1,11.6-3.8c5.1-2.6,10-5.4,14.8-8.4c5.8-3.5,16-9.9,20-10.5h0.6c3.8,0,14.5,6.7,20.6,10.5c4.8,3.1,9.7,5.9,14.8,8.4
			C189.9,120.7,195.4,123,200.3,123.9z"/>
		
			<linearGradient id="Path-48_00000085214895203284938670000001034233859526739346_" gradientUnits="userSpaceOnUse" x1="-148.1345" y1="565.0638" x2="-147.8465" y2="564.6648" gradientTransform="matrix(84.775 0 0 -98.865 12697.6572 55991.1094)">
			<stop  offset="0" style="stop-color:#917CC4"/>
			<stop  offset="1" style="stop-color:#917CC4;stop-opacity:0"/>
		</linearGradient>
		<path id="Path-48" style="fill:url(#Path-48_00000085214895203284938670000001034233859526739346_);" d="M146.3,111.7l6.4-10.5
			l44.1,44.2l-25,48.3l-14.5,6.4L112.1,155l7.8-7l25.8-35.5L146.3,111.7z"/>
		<path id="Path-49" class="st17" d="M135.9,139.9l-21.2,11.6l-2.6,3.5l42.1,2.6l-1.2-56.4L135.9,139.9z"/>
		
			<linearGradient id="Path-50_00000151544186668626886510000012944160538107825584_" gradientUnits="userSpaceOnUse" x1="-147.3027" y1="562.5513" x2="-146.3017" y2="562.5513" gradientTransform="matrix(46.742 0 0 -53.5 6991.4009 30224.4336)">
			<stop  offset="1.100000e-02" style="stop-color:#F8CD9A"/>
			<stop  offset="1" style="stop-color:#FFFFFF"/>
		</linearGradient>
		<path id="Path-50" style="fill:url(#Path-50_00000151544186668626886510000012944160538107825584_);" d="M152.7,101.2v53.5h-40.6
			c-2.7-10.2-4.7-20.6-6.1-31.1c4-0.8,7.9-2.1,11.6-3.8c5.1-2.6,10-5.4,14.8-8.4C138.5,108.2,148.7,101.8,152.7,101.2z"/>
		
			<linearGradient id="Path-51_00000119096881512541920560000006232945854312193422_" gradientUnits="userSpaceOnUse" x1="-146.3473" y1="562.8021" x2="-147.1113" y2="563.353" gradientTransform="matrix(41.517 0 0 -57.573 6255.0508 32591.6348)">
			<stop  offset="1.100000e-02" style="stop-color:#F8CD9A"/>
			<stop  offset="1" style="stop-color:#FFFFFF"/>
		</linearGradient>
		<path id="Path-51" style="fill:url(#Path-51_00000119096881512541920560000006232945854312193422_);" d="M194.2,155
			c-0.5,2.5-1.2,4.9-2,7.3c-0.5,2.3-1.2,4.5-2,6.7c-7.3,23.3-27.3,37.8-37.2,43.6h-0.3V155H194.2z"/>
	</g>
</g>
</svg>
