<svg width="22" height="22" viewBox="0 0 22 22" fill="none" xmlns="http://www.w3.org/2000/svg">
<path d="M11.1467 9.96433C11.055 9.95516 10.945 9.95516 10.8442 9.96433C8.66249 9.891 6.92999 8.1035 6.92999 5.9035C6.92999 3.65766 8.74499 1.8335 11 1.8335C13.2458 1.8335 15.07 3.65766 15.07 5.9035C15.0608 8.1035 13.3283 9.891 11.1467 9.96433Z" stroke="#7869AA" stroke-width="1.5" stroke-linecap="round" stroke-linejoin="round"/>
<path d="M6.56335 13.3465C4.34501 14.8315 4.34501 17.2515 6.56335 18.7273C9.08418 20.414 13.2183 20.414 15.7392 18.7273C17.9575 17.2423 17.9575 14.8223 15.7392 13.3465C13.2275 11.669 9.09335 11.669 6.56335 13.3465Z" stroke="#7869AA" stroke-width="1.5" stroke-linecap="round" stroke-linejoin="round"/>
</svg>
