<?xml version="1.0" encoding="utf-8"?>
<!-- Generator: Adobe Illustrator 27.0.1, SVG Export Plug-In . SVG Version: 6.00 Build 0)  -->
<svg version="1.1" id="Layer_1" xmlns="http://www.w3.org/2000/svg" xmlns:xlink="http://www.w3.org/1999/xlink" x="0px" y="0px"
	 viewBox="0 0 64 64" style="enable-background:new 0 0 64 64;" xml:space="preserve">
<style type="text/css">
	.st0{fill:#917CC4;}
	.st1{display:none;}
	.st2{display:inline;fill:#FFFFFF;}
	.st3{fill:#F8CD9A;}
</style>
<g>
	<path class="st0" d="M62.7,12h-8c-1.5,0-2.7-1.2-2.7-2.7v-8L62.7,12z"/>
	<g class="st1">
		<path class="st2" d="M62.7,12v48c0,1.5-1.2,2.7-2.7,2.7H17.3c-1.5,0-2.7-1.2-2.7-2.7V4c0-1.5,1.2-2.7,2.7-2.7H52v8
			c0,1.5,1.2,2.7,2.7,2.7H62.7z"/>
		<path class="st2" d="M52,40v6.7L50.7,48H48v-8H52z"/>
	</g>
	<g>
		<path class="st0" d="M44,34l-17.3,7.3L9.3,34l-8-3.4L26.7,20L52,30.7L44,34z"/>
		<path class="st0" d="M44,34v20.6l-17.3,8l-17.3-8V34l17.3,7.3L44,34z"/>
	</g>
	<g>
		<path class="st3" d="M21.3,8h13.3v2.7H21.3V8z"/>
		<path class="st3" d="M21.3,13.3H24V16h-2.7V13.3z"/>
		<path class="st3" d="M26.7,13.3h2.7V16h-2.7V13.3z"/>
		<path class="st3" d="M63.6,11.1L52.9,0.4C52.7,0.1,52.4,0,52,0H17.3c-2.2,0-4,1.8-4,4v14.7H16V4c0-0.7,0.6-1.3,1.3-1.3l0,0h33.3
			v6.7c0,2.2,1.8,4,4,4h2.7v-2.7h-2.7c-0.7,0-1.3-0.6-1.3-1.3V4.6l8,8V60c0,0.7-0.6,1.3-1.3,1.3H38.7V64H60c2.2,0,4-1.8,4-4V12
			C64,11.6,63.9,11.3,63.6,11.1z"/>
		<path class="st3" d="M45.3,54.7V34.9l5.3-2.2v6H48c-0.7,0-1.3,0.6-1.3,1.3v8c0,0.7,0.6,1.3,1.3,1.3c0,0,0,0,0,0h2.7
			c0.4,0,0.7-0.1,0.9-0.4l1.3-1.3c0.3-0.2,0.4-0.6,0.4-0.9v-16c0-0.5-0.3-1-0.8-1.2L27.2,18.8c-0.3-0.1-0.7-0.1-1,0L0.8,29.4
			c-0.7,0.3-1,1.1-0.7,1.7c0.1,0.3,0.4,0.6,0.7,0.7l7.2,3v19.7c0,0.5,0.3,1,0.8,1.2l17.3,8c0.4,0.2,0.8,0.2,1.1,0l17.3-8
			C45,55.7,45.3,55.2,45.3,54.7z M50.7,46.1l-0.6,0.6h-0.8v-5.3h1.3L50.7,46.1z M26.7,21.4l21.9,9.2l-21.9,9.2L4.8,30.7L26.7,21.4z
			 M26.7,61.2l-16-7.4V36l14.7,6.2v8.4H28v-8.4L42.7,36v17.8L26.7,61.2z"/>
		<path class="st3" d="M24,29.3h5.3V32H24V29.3z"/>
	</g>
</g>
</svg>
