<?xml version="1.0" encoding="utf-8"?>
<!-- Generator: Adobe Illustrator 27.0.1, SVG Export Plug-In . SVG Version: 6.00 Build 0)  -->
<svg version="1.1" id="Layer_1" xmlns="http://www.w3.org/2000/svg" xmlns:xlink="http://www.w3.org/1999/xlink" x="0px" y="0px"
	 viewBox="0 0 64 56" style="enable-background:new 0 0 64 56;" xml:space="preserve">
<style type="text/css">
	.st0{display:none;fill:#FFFFFF;}
	.st1{fill:#917CC4;}
	.st2{fill:#F8CD9A;}
</style>
<g id="pin" transform="translate(0 -4)">
	<path id="Path_2439" class="st0" d="M62.7,18.7v32c0,1.5-1.2,2.7-2.7,2.7H41.3L36,58.7v-5.3H17.3c-1.5,0-2.7-1.2-2.7-2.7v-8H24V48
		l5.3-5.3h17.3c1.5,0,2.7-1.2,2.7-2.7V16H60C61.5,16,62.7,17.2,62.7,18.7z"/>
	<path id="Path_2440" class="st1" d="M49.3,16v24c0,1.5-1.2,2.7-2.7,2.7H29.3L24,48v-5.3H4c-1.5,0-2.7-1.2-2.7-2.7V8
		c0-1.5,1.2-2.7,2.7-2.7h42.7c1.5,0,2.7,1.2,2.7,2.7V16z"/>
	<g id="Group_1804">
		<path id="Path_2441" class="st2" d="M36,60c-0.7,0-1.3-0.6-1.3-1.3l0,0v-4H17.3c-2.2,0-4-1.8-4-4v-4H16v4c0,0.7,0.6,1.3,1.3,1.3
			l0,0H36c0.7,0,1.3,0.6,1.3,1.3l0,0v2.1l3.1-3.1c0.2-0.3,0.6-0.4,0.9-0.4H60c0.7,0,1.3-0.6,1.3-1.3l0,0v-32c0-0.7-0.6-1.3-1.3-1.3
			c0,0,0,0,0,0h-6.7v-2.7H60c2.2,0,4,1.8,4,4v32c0,2.2-1.8,4-4,4H41.9l-4.9,4.9C36.7,59.9,36.4,60,36,60z"/>
		<path id="Path_2442" class="st2" d="M24,49.3c-0.7,0-1.3-0.6-1.3-1.3l0,0v-4H4c-2.2,0-4-1.8-4-4V8c0-2.2,1.8-4,4-4h42.7
			c2.2,0,4,1.8,4,4v32c0,2.2-1.8,4-4,4H29.9l-4.9,4.9C24.7,49.2,24.4,49.3,24,49.3L24,49.3z M4,6.7C3.3,6.7,2.7,7.3,2.7,8
			c0,0,0,0,0,0v32c0,0.7,0.6,1.3,1.3,1.3h0h20c0.7,0,1.3,0.6,1.3,1.3l0,0v2.1l3.1-3.1c0.2-0.3,0.6-0.4,0.9-0.4h17.3
			c0.7,0,1.3-0.6,1.3-1.3v0V8c0-0.7-0.6-1.3-1.3-1.3l0,0H4z"/>
		<path id="Path_2443" class="st2" d="M6.7,14.7h14.7v2.7H6.7V14.7z"/>
		<path id="Path_2444" class="st2" d="M6.7,22.7H44v2.7H6.7V22.7z"/>
		<path id="Path_2445" class="st2" d="M6.7,30.7H44v2.7H6.7V30.7z"/>
		<path id="Path_2446" class="st2" d="M41.3,14.7H44v2.7h-2.7V14.7z"/>
		<path id="Path_2447" class="st2" d="M36,14.7h2.7v2.7H36V14.7z"/>
	</g>
</g>
</svg>
