<?xml version="1.0" encoding="utf-8"?>
<!-- Generator: Adobe Illustrator 27.0.1, SVG Export Plug-In . SVG Version: 6.00 Build 0)  -->
<svg version="1.1" id="Layer_1" xmlns="http://www.w3.org/2000/svg" xmlns:xlink="http://www.w3.org/1999/xlink" x="0px" y="0px"
	 viewBox="0 0 56 64" style="enable-background:new 0 0 56 64;" xml:space="preserve">
<style type="text/css">
	.st0{fill:#917CC4;}
	.st1{display:none;fill:#FFFFFF;}
	.st2{fill:#FFFFFF;}
	.st3{fill:#F8CD9A;}
</style>
<g transform="translate(-4)">
	<path class="st0" d="M53.3,12h-8c-1.5,0-2.7-1.2-2.7-2.7v-8L53.3,12z"/>
	<path class="st1" d="M53.3,12v48c0,1.5-1.2,2.7-2.7,2.7H8c-1.5,0-2.7-1.2-2.7-2.7V4c0-1.5,1.2-2.7,2.7-2.7h34.7v8
		c0,1.5,1.2,2.7,2.7,2.7H53.3z"/>
	<path class="st0" d="M46.7,49.3c0,1.5,1.2,2.7,2.7,2.7s2.7-1.2,2.7-2.7s-1.2-2.7-2.7-2.7l0,0h9.3V60c0,1.5-1.2,2.7-2.7,2.7H42.7
		c-1.5,0-2.7-1.2-2.7-2.7V46.7h9.3C47.9,46.7,46.7,47.9,46.7,49.3z"/>
	<circle class="st2" cx="49.3" cy="49.3" r="2.7"/>
	<g>
		<path class="st3" d="M12,8h13.3v2.7H12V8z"/>
		<path class="st3" d="M12,13.3h2.7V16H12V13.3z"/>
		<path class="st3" d="M17.3,13.3H20V16h-2.7V13.3z"/>
		<path class="st3" d="M6.7,60V4c0-0.7,0.6-1.3,1.3-1.3c0,0,0,0,0,0h33.3v6.7c0,2.2,1.8,4,4,4H48v-2.7h-2.7c-0.7,0-1.3-0.6-1.3-1.3
			c0,0,0,0,0,0V4.6l8,8v18.1h2.7V12c0-0.4-0.1-0.7-0.4-0.9L43.6,0.4C43.4,0.1,43,0,42.7,0H8C5.8,0,4,1.8,4,4v56c0,2.2,1.8,4,4,4
			h26.7v-2.7H8C7.3,61.3,6.7,60.7,6.7,60L6.7,60z"/>
		<path class="st3" d="M45.3,34.7c-1.4,0-2.6,1.1-2.7,2.6c0,0,0,0,0,0v5.4h2.7v-5.3h8v5.3H56v-5.3c0-1.4-1.1-2.6-2.6-2.7
			c0,0,0,0,0,0L45.3,34.7L45.3,34.7z"/>
		<path class="st3" d="M58.7,45.3h-4V48h2.7v12c0,0.7-0.6,1.3-1.3,1.3c0,0,0,0,0,0H42.7c-0.7,0-1.3-0.6-1.3-1.3c0,0,0,0,0,0V48H44
			v-2.7h-4c-0.7,0-1.3,0.6-1.3,1.3l0,0V60c0,2.2,1.8,4,4,4H56c2.2,0,4-1.8,4-4V46.7C60,45.9,59.4,45.3,58.7,45.3
			C58.7,45.3,58.7,45.3,58.7,45.3z"/>
		<path class="st3" d="M50.7,58.7v-5.6c2.1-0.7,3.2-3,2.4-5.1c-0.7-2.1-3-3.2-5.1-2.4s-3.2,3-2.4,5.1c0.4,1.1,1.3,2,2.4,2.4v5.6
			H50.7z M49.3,48c0.7,0,1.3,0.6,1.3,1.3s-0.6,1.3-1.3,1.3S48,50.1,48,49.3S48.6,48,49.3,48L49.3,48z"/>
	</g>
</g>
</svg>
