<?xml version="1.0" encoding="utf-8"?>
<!-- Generator: Adobe Illustrator 27.0.1, SVG Export Plug-In . SVG Version: 6.00 Build 0)  -->
<svg version="1.1" id="Layer_1" xmlns="http://www.w3.org/2000/svg" xmlns:xlink="http://www.w3.org/1999/xlink" x="0px" y="0px"
	 viewBox="0 0 64 64" style="enable-background:new 0 0 64 64;" xml:space="preserve">
<style type="text/css">
	.st0{fill:#FFFFFF;}
	.st1{fill:#917CC4;}
	.st2{fill:#F8CD9A;}
</style>
<g>
	<g>
		<g id="Mask_Group_36" transform="translate(-454 -176)">
			<g id="wallet_1_" transform="translate(454 176)">
				<path id="Path_469" class="st0" d="M62.7,30.7V36c0,1.5-1.2,2.7-2.7,2.7H44c-1.5,0-2.7-1.2-2.7-2.7v-5.3c0-1.5,1.2-2.7,2.7-2.7
					h16C61.5,28,62.7,29.2,62.7,30.7z"/>
				<path id="Path_470" class="st1" d="M57.3,42.7v10.7c0,1.5-1.2,2.7-2.7,2.7H29.3l0,0c5.9-6.6,5.3-16.7-1.3-22.6
					s-16.7-5.3-22.6,1.3c-2.6,2.9-4,6.7-4,10.6v-40c0-1.5,1.2-2.7,2.7-2.7h29.3c1.5,0,2.7,1.2,2.7,2.7v5.3h18.7
					c1.5,0,2.7,1.2,2.7,2.7V28H44c-1.5,0-2.7,1.2-2.7,2.7V36c0,1.5,1.2,2.7,2.7,2.7h13.3V42.7L57.3,42.7z"/>
				<path id="Path_471" class="st0" d="M33.3,45.3c0,8.8-7.2,16-16,16s-16-7.2-16-16s7.2-16,16-16C26.2,29.3,33.3,36.5,33.3,45.3
					L33.3,45.3z"/>
				<g id="Group_517">
					<path id="Path_472" class="st2" d="M56,53.3c0,0.7-0.6,1.3-1.3,1.3l0,0h-20v2.7h20c2.2,0,4-1.8,4-4V42.7H56V53.3z"/>
					<path id="Path_473" class="st2" d="M2.7,5.3C2.7,4.6,3.3,4,4,4h29.3c0.7,0,1.3,0.6,1.3,1.3l0,0v4h-28V12h48
						c0.7,0,1.3,0.6,1.3,1.3V24h2.7V13.3c0-2.2-1.8-4-4-4H37.3v-4c0-2.2-1.8-4-4-4H4c-2.2,0-4,1.8-4,4v28h2.7V5.3L2.7,5.3z"/>
					<path id="Path_474" class="st2" d="M60,26.7H44c-2.2,0-4,1.8-4,4V36c0,2.2,1.8,4,4,4h16c2.2,0,4-1.8,4-4v-5.3
						C64,28.4,62.2,26.7,60,26.7z M61.3,36c0,0.7-0.6,1.3-1.3,1.3l0,0H44c-0.7,0-1.3-0.6-1.3-1.3l0,0v-5.3c0-0.7,0.6-1.3,1.3-1.3
						l0,0h16c0.7,0,1.3,0.6,1.3,1.3l0,0V36z"/>
					<path id="Path_475" class="st2" d="M17.3,28C7.8,28,0,35.7,0,45.3s7.8,17.3,17.3,17.3c9.6,0,17.3-7.8,17.3-17.3l0,0l0,0
						C34.7,35.8,26.9,28,17.3,28z M28.3,55.1c-5.4,6.1-14.7,6.6-20.7,1.2S1,41.6,6.4,35.6S21,29,27.1,34.4c3.1,2.8,4.9,6.8,4.9,11
						C32,48.9,30.7,52.4,28.3,55.1z"/>
					<path id="Path_476" class="st2" d="M20,38.7h-1.3V36H16v2.7h-1.3c-1.5,0-2.7,1.2-2.7,2.7l0,0V44c0,1.5,1.2,2.7,2.7,2.7l0,0H20
						v2.7h-5.3V48H12v1.3c0,1.5,1.2,2.7,2.7,2.7l0,0H16v2.7h2.7V52H20c1.5,0,2.7-1.2,2.7-2.7l0,0v-2.7c0-1.5-1.2-2.7-2.7-2.7l0,0
						h-5.3v-2.7H20v1.3h2.7v-1.3C22.7,39.8,21.5,38.7,20,38.7L20,38.7z"/>
					<path id="Path_477" class="st2" d="M45.3,32H48v2.7h-2.7V32z"/>
					<path id="Path_478" class="st2" d="M52,22.7v-5.3c0-0.7-0.6-1.3-1.3-1.3h-5.3v2.7h4v4L52,22.7L52,22.7z"/>
				</g>
			</g>
		</g>
	</g>
</g>
</svg>
