<?xml version="1.0" encoding="utf-8"?>
<!-- Generator: Adobe Illustrator 27.0.1, SVG Export Plug-In . SVG Version: 6.00 Build 0)  -->
<svg version="1.1" id="Layer_1" xmlns="http://www.w3.org/2000/svg" xmlns:xlink="http://www.w3.org/1999/xlink" x="0px" y="0px"
	 viewBox="0 0 64 64" style="enable-background:new 0 0 64 64;" xml:space="preserve">
<style type="text/css">
	.st0{fill:#FFFFFF;}
	.st1{fill:#917CC4;}
	.st2{fill:#F8CD9A;}
</style>
<g>
	<g>
		<g id="Mask_Group_37" transform="translate(-1048 -176)">
			<g id="money_2_" transform="translate(1048 176)">
				<g id="Group_518">
					<circle id="Ellipse_72" class="st0" cx="32" cy="30.7" r="12"/>
					<path id="Path_479" class="st0" d="M57.3,25.3V36c-3.7,0-6.7,3-6.7,6.7H32c6.6,0,12-5.4,12-12s-5.4-12-12-12h18.7
						C50.7,22.3,53.7,25.3,57.3,25.3z"/>
					<path id="Path_480" class="st0" d="M20,18.7h12c-6.6,0-12,5.4-12,12s5.4,12,12,12H13.3c0-3.7-3-6.7-6.7-6.7V25.3
						c3.7,0,6.7-3,6.7-6.7L20,18.7L20,18.7z"/>
				</g>
				<path id="Path_481" class="st1" d="M1.3,45.3V16c0-1.5,1.2-2.7,2.7-2.7h56c1.5,0,2.7,1.2,2.7,2.7v29.3c0,1.5-1.2,2.7-2.7,2.7H4
					C2.5,48,1.3,46.8,1.3,45.3z M57.3,36V25.3c-3.7,0-6.7-3-6.7-6.7H13.3c0,3.7-3,6.7-6.7,6.7V36c3.7,0,6.7,3,6.7,6.7h37.3
					C50.7,39,53.7,36,57.3,36L57.3,36z"/>
				<g id="Group_519">
					<path id="Path_482" class="st2" d="M60,12h-4c-0.7,0.1-1.3-0.4-1.3-1.1c0-0.1,0-0.2,0-0.2V4.6l3.1,3.1l1.9-1.9l-5.3-5.3
						C53.9,0,53,0,52.5,0.5l-5.3,5.3l1.9,1.9L52,4.6v6.1c-0.1,2.1,1.6,3.9,3.8,4l0,0H60c0.7,0,1.3,0.6,1.3,1.3l0,0v29.3
						c0,0.7-0.6,1.3-1.3,1.3l0,0H25.3v2.7H60c2.2,0,4-1.8,4-4V16C64,13.8,62.2,12,60,12z"/>
					<path id="Path_483" class="st2" d="M12,42.7c0,0.7,0.6,1.3,1.3,1.3l0,0H20v-2.7h-5.4c-0.6-3.4-3.2-6-6.6-6.6v-8.2
						c3.4-0.6,6-3.2,6.6-6.6H20v-2.7h-6.7c-0.7,0-1.3,0.6-1.3,1.3l0,0c0,2.9-2.4,5.3-5.3,5.3c-0.7,0-1.3,0.6-1.3,1.3l0,0V36
						c0,0.7,0.6,1.3,1.3,1.3l0,0C9.6,37.3,12,39.7,12,42.7L12,42.7z"/>
					<path id="Path_484" class="st2" d="M52,18.7c0-0.7-0.6-1.3-1.3-1.3l0,0H44V20h5.4c0.6,3.4,3.2,6,6.6,6.6v8.2
						c-3.4,0.6-6,3.2-6.6,6.6H44V44h6.7c0.7,0,1.3-0.6,1.3-1.3l0,0c0-2.9,2.4-5.3,5.3-5.3c0.7,0,1.3-0.6,1.3-1.3l0,0V25.3
						c0-0.7-0.6-1.3-1.3-1.3l0,0C54.4,24,52,21.6,52,18.7z"/>
					<path id="Path_485" class="st2" d="M5.3,17.3H8V20H5.3V17.3z"/>
					<path id="Path_486" class="st2" d="M56,17.3h2.7V20H56V17.3z"/>
					<path id="Path_487" class="st2" d="M56,41.3h2.7V44H56V41.3z"/>
					<path id="Path_488" class="st2" d="M5.3,41.3H8V44H5.3V41.3z"/>
					<path id="Path_489" class="st2" d="M32,44c7.4,0,13.3-6,13.3-13.3s-6-13.3-13.3-13.3s-13.3,6-13.3,13.3S24.6,44,32,44L32,44z
						 M32,20c5.9,0,10.7,4.8,10.7,10.7S37.9,41.3,32,41.3s-10.7-4.8-10.7-10.7S26.1,20,32,20L32,20z"/>
					<path id="Path_490" class="st2" d="M12,59.4v-8.8c0.1-2.1-1.6-3.9-3.8-4l0,0H4c-0.7,0-1.3-0.6-1.3-1.3l0,0V16
						c0-0.7,0.6-1.3,1.3-1.3l0,0h34.7V12H4c-2.2,0-4,1.8-4,4v29.3c0,2.2,1.8,4,4,4h4c0.7-0.1,1.3,0.4,1.3,1.1c0,0.1,0,0.2,0,0.2v8.8
						l-3.1-3.1l-1.9,1.9l5.3,5.3c0.5,0.5,1.4,0.5,1.9,0l5.3-5.3l-1.9-1.9L12,59.4z"/>
					<path id="Path_491" class="st2" d="M41.3,12H44v2.7h-2.7V12z"/>
					<path id="Path_492" class="st2" d="M46.7,12h2.7v2.7h-2.7V12z"/>
					<path id="Path_493" class="st2" d="M14.7,46.7h2.7v2.7h-2.7V46.7z"/>
					<path id="Path_494" class="st2" d="M20,46.7h2.7v2.7H20V46.7z"/>
				</g>
			</g>
		</g>
	</g>
</g>
</svg>
