<?xml version="1.0" encoding="utf-8"?>
<!-- Generator: Adobe Illustrator 27.0.1, SVG Export Plug-In . SVG Version: 6.00 Build 0)  -->
<svg version="1.1" id="Layer_1" xmlns="http://www.w3.org/2000/svg" xmlns:xlink="http://www.w3.org/1999/xlink" x="0px" y="0px"
	 viewBox="0 0 64 64" style="enable-background:new 0 0 64 64;" xml:space="preserve">
<style type="text/css">
	.st0{fill:#FFFFFF;}
	.st1{fill:#917CC4;}
	.st2{fill:#F8CD9A;}
</style>
<g>
	<g id="Mask_Group_38" transform="translate(-1631 -176)">
		<g id="commerce-and-shopping_1_" transform="translate(1631 176)">
			<g id="Group_520">
				<circle id="Ellipse_73" class="st0" cx="32" cy="18.7" r="12"/>
				<path id="Path_495" class="st0" d="M57.3,13.3V24c-3.7,0-6.7,3-6.7,6.7H32c6.6,0,12-5.4,12-12s-5.4-12-12-12h18.7
					C50.7,10.3,53.7,13.3,57.3,13.3z"/>
				<path id="Path_496" class="st0" d="M20,6.7h12c-6.6,0-12,5.4-12,12s5.4,12,12,12H13.3c0-3.7-3-6.7-6.7-6.7V13.3
					c3.7,0,6.7-3,6.7-6.7L20,6.7L20,6.7z"/>
			</g>
			<path id="Path_497" class="st1" d="M1.3,33.3V4c0-1.5,1.2-2.7,2.7-2.7h56c1.5,0,2.7,1.2,2.7,2.7v29.3c0,1.5-1.2,2.7-2.7,2.7H4
				C2.5,36,1.3,34.8,1.3,33.3z M57.3,24V13.3c-3.7,0-6.7-3-6.7-6.7H13.3c0,3.7-3,6.7-6.7,6.7V24c3.7,0,6.7,3,6.7,6.7h37.3
				C50.7,27,53.7,24,57.3,24C57.3,24,57.3,24,57.3,24z"/>
			<g id="Group_521">
				<path id="Path_498" class="st0" d="M62.7,36v8c0,1.5-1.2,2.7-2.7,2.7H4c-1.5,0-2.7-1.2-2.7-2.7v-8H62.7z"/>
				<path id="Path_499" class="st0" d="M45.3,57.3v4c0,0.7-0.6,1.3-1.3,1.3c0,0,0,0,0,0H20c-0.7,0-1.3-0.6-1.3-1.3l0,0v-4L45.3,57.3
					z"/>
			</g>
			<path id="Path_500" class="st1" d="M40,46.7l1.3,10.7H22.7L24,46.7H40z"/>
			<g id="Group_522">
				<path id="Path_501" class="st2" d="M61.3,44c0,0.7-0.6,1.3-1.3,1.3l0,0H4c-0.7,0-1.3-0.6-1.3-1.3l0,0v-4H0v4c0,2.2,1.8,4,4,4
					h18.5l-1,8h-2.8c-0.7,0-1.3,0.6-1.3,1.3l0,0v4h-2.7V64h34.7v-2.7h-2.7v-4c0-0.7-0.6-1.3-1.3-1.3c0,0,0,0,0,0h-2.8l-1-8H60
					c2.2,0,4-1.8,4-4v-4h-2.7V44z M44,61.3H20v-2.7h24V61.3z M39.8,56H24.2l1-8h13.6L39.8,56z"/>
				<path id="Path_502" class="st2" d="M60,0H4C1.8,0,0,1.8,0,4v29.3c0,2.2,1.8,4,4,4v-2.7c-0.7,0-1.3-0.6-1.3-1.3l0,0V4
					c0-0.7,0.6-1.3,1.3-1.3l0,0h56c0.7,0,1.3,0.6,1.3,1.3l0,0v29.3c0,0.7-0.6,1.3-1.3,1.3c0,0,0,0,0,0v2.7c2.2,0,4-1.8,4-4V4
					C64,1.8,62.2,0,60,0z"/>
				<path id="Path_503" class="st2" d="M5.3,24c0,0.7,0.6,1.3,1.3,1.3h0c2.9,0,5.3,2.4,5.3,5.3c0,0,0,0,0,0c0,0.7,0.6,1.3,1.3,1.3
					c0,0,0,0,0,0H20v-2.7h-5.4c-0.6-3.4-3.2-6-6.6-6.6v-8.2c3.4-0.6,6-3.2,6.6-6.6H20V5.3h-6.7c-0.7,0-1.3,0.6-1.3,1.3c0,0,0,0,0,0
					C12,9.6,9.6,12,6.7,12c-0.7,0-1.3,0.6-1.3,1.3l0,0L5.3,24L5.3,24z"/>
				<path id="Path_504" class="st2" d="M52,6.7c0-0.7-0.6-1.3-1.3-1.3l0,0H44V8h5.4c0.6,3.4,3.2,6,6.6,6.6v8.2
					c-3.4,0.6-6,3.2-6.6,6.6H44V32h6.7c0.7,0,1.3-0.6,1.3-1.3l0,0c0-2.9,2.4-5.3,5.3-5.3c0.7,0,1.3-0.6,1.3-1.3c0,0,0,0,0,0V13.3
					c0-0.7-0.6-1.3-1.3-1.3c0,0,0,0,0,0C54.4,12,52,9.6,52,6.7z"/>
				<path id="Path_505" class="st2" d="M5.3,5.3H8V8H5.3V5.3z"/>
				<path id="Path_506" class="st2" d="M56,5.3h2.7V8H56V5.3z"/>
				<path id="Path_507" class="st2" d="M56,29.3h2.7V32H56V29.3z"/>
				<path id="Path_508" class="st2" d="M5.3,29.3H8V32H5.3V29.3z"/>
				<path id="Path_509" class="st2" d="M32,5.3c-7.4,0-13.3,6-13.3,13.3S24.6,32,32,32c7.4,0,13.3-6,13.3-13.3
					C45.3,11.3,39.4,5.3,32,5.3C32,5.3,32,5.3,32,5.3z M32,29.3c-5.9,0-10.7-4.8-10.7-10.7S26.1,8,32,8s10.7,4.8,10.7,10.7
					c0,0,0,0,0,0C42.7,24.6,37.9,29.3,32,29.3z"/>
				<path id="Path_510" class="st2" d="M6.7,34.7h50.7v2.7H6.7V34.7z"/>
			</g>
		</g>
	</g>
</g>
</svg>
