<?xml version="1.0" encoding="utf-8"?>
<!-- Generator: Adobe Illustrator 27.0.1, SVG Export Plug-In . SVG Version: 6.00 Build 0)  -->
<svg version="1.1" id="Layer_1" xmlns="http://www.w3.org/2000/svg" xmlns:xlink="http://www.w3.org/1999/xlink" x="0px" y="0px"
	 viewBox="0 0 64 64" style="enable-background:new 0 0 64 64;" xml:space="preserve">
<style type="text/css">
	.st0{fill:#9B8CC4;}
	.st1{fill:#FFFFFF;}
	.st2{fill:#F8CD9A;}
</style>
<g>
	<g id="Mask_Group_39" transform="translate(-1631 -176)">
		<g id="business-and-finance_2_" transform="translate(1631 176)">
			<path id="Path_526" class="st0" d="M62.7,24v26.7c0,0.7-0.6,1.3-1.3,1.3c0,0,0,0,0,0h-40c-0.7,0-1.3-0.6-1.3-1.3l0,0V24h1.3
				l20,12l20-12l0.1-1.3C62.1,22.7,62.7,23.3,62.7,24z"/>
			<path id="Path_527" class="st1" d="M61.3,22.7c0,0,0.1,0,0.1,0L61.3,24l-20,12l-20-12H20c0-0.7,0.6-1.3,1.3-1.3l0,0H61.3z"/>
			<path id="Path_528" class="st0" d="M49.3,12h-8c-1.5,0-2.7-1.2-2.7-2.7v-8L49.3,12z"/>
			<path id="Path_529" class="st1" d="M49.3,57.3V60c0,1.5-1.2,2.7-2.7,2.7H4c-1.5,0-2.7-1.2-2.7-2.7V4c0-1.5,1.2-2.7,2.7-2.7h34.7
				v8c0,1.5,1.2,2.7,2.7,2.7h8v10.7h-28c-0.7,0-1.3,0.6-1.3,1.3l0,0v26.7c0,0.7,0.6,1.3,1.3,1.3l0,0h28V57.3z"/>
			<g id="Group_526">
				<path id="Path_530" class="st2" d="M8,8h13.3v2.7H8V8z"/>
				<path id="Path_531" class="st2" d="M8,13.3h2.7V16H8V13.3z"/>
				<path id="Path_532" class="st2" d="M13.3,13.3H16V16h-2.7V13.3z"/>
				<path id="Path_533" class="st2" d="M48,60c0,0.7-0.6,1.3-1.3,1.3l0,0H4c-0.7,0-1.3-0.6-1.3-1.3l0,0V4c0-0.7,0.6-1.3,1.3-1.3l0,0
					h33.3v6.7c0,2.2,1.8,4,4,4H44v-2.7h-2.7c-0.7,0-1.3-0.6-1.3-1.3c0,0,0,0,0,0V4.6l8,8v4.8h2.7V12c0-0.4-0.1-0.7-0.4-0.9L39.6,0.4
					C39.4,0.1,39,0,38.7,0H4C1.8,0,0,1.8,0,4v56c0,2.2,1.8,4,4,4h42.7c2.2,0,4-1.8,4-4v-2.7H48V60z"/>
				<path id="Path_534" class="st2" d="M61.7,21.4c-0.1,0-0.2,0-0.4,0h-40c-1.5,0-2.7,1.2-2.7,2.7v26.7c0,1.5,1.2,2.7,2.7,2.7h40
					c1.5,0,2.7-1.2,2.7-2.7V24C64,22.7,63,21.5,61.7,21.4z M58.7,24L41.3,34.4L23.9,24H58.7z M21.3,50.7V25.6l19.3,11.6
					c0.4,0.3,1,0.3,1.4,0l19.3-11.6v25.1H21.3L21.3,50.7z"/>
			</g>
		</g>
	</g>
</g>
</svg>
