<?xml version="1.0" encoding="utf-8"?>
<!-- Generator: Adobe Illustrator 27.0.1, SVG Export Plug-In . SVG Version: 6.00 Build 0)  -->
<svg version="1.1" id="Layer_1" xmlns="http://www.w3.org/2000/svg" xmlns:xlink="http://www.w3.org/1999/xlink" x="0px" y="0px"
	 viewBox="0 0 64 64" style="enable-background:new 0 0 64 64;" xml:space="preserve">
<style type="text/css">
	.st0{fill:#FFFFFF;}
	.st1{fill:#917CC4;}
	.st2{fill:#F8CD9A;}
</style>
<g>
	<g id="Mask_Group_40" transform="translate(-1048 -176)">
		<g id="mail" transform="translate(1048 176)">
			<path id="Path_535" class="st0" d="M17.3,9.3h13.3v5.3H17.3V9.3z"/>
			<path id="Path_536" class="st1" d="M30.7,14.7V9.3H17.3v5.3L30.7,14.7L30.7,14.7z M38.8,37.4L32,42.7l-6.8-5.2L9.3,25.1V2.7h45.3
				v22.5L38.8,37.4z"/>
			<g id="Group_527">
				<path id="Path_537" class="st0" d="M9.3,15.8v9.4l-6.4-4.9L9.3,15.8z"/>
				<path id="Path_538" class="st0" d="M54.7,15.8l6.4,4.5l-6.4,4.9V15.8z"/>
				<path id="Path_539" class="st0" d="M54.7,25.1l6.4-4.9l1.6,1.1v37.3c0,0.7-0.3,1.4-0.8,1.9L56,54.7L38.8,37.4L54.7,25.1z"/>
			</g>
			<path id="Path_540" class="st1" d="M56,54.7l5.9,5.9c-0.5,0.5-1.2,0.8-1.9,0.8H4c-0.7,0-1.4-0.3-1.9-0.8L8,54.7l17.2-17.2
				l6.8,5.2l6.8-5.2L56,54.7z"/>
			<path id="Path_541" class="st0" d="M9.3,25.1l15.9,12.3L8,54.7l-5.9,5.9c-0.5-0.5-0.8-1.2-0.8-1.9V21.3l1.6-1.1L9.3,25.1z"/>
			<g id="Group_528">
				<path id="Path_542" class="st2" d="M63.4,20.2L56,15.1V2.7c0-0.7-0.6-1.3-1.3-1.3l0,0H9.3C8.6,1.3,8,1.9,8,2.7v12.4l-7.4,5.2
					C0.2,20.5,0,20.9,0,21.3v37.3c0,1.1,0.4,2.1,1.2,2.8c0.7,0.8,1.8,1.2,2.8,1.2h56c2.2,0,4-1.8,4-4V21.3
					C64,20.9,63.8,20.5,63.4,20.2z M58.8,20.3L56,22.4v-4.1L58.8,20.3z M53.3,4v20.5L32,41L10.7,24.5V4H53.3z M8,22.4l-2.8-2.2
					L8,18.3V22.4z M61.3,58.7c0,0.4-0.1,0.7-0.4,1C60.7,59.9,60.3,60,60,60H4c-0.4,0-0.7-0.1-0.9-0.4c-0.2-0.2-0.4-0.6-0.4-0.9V22
					l0.2-0.2l20.3,15.7L7.1,53.7l1.9,1.9l16.4-16.4l5.8,4.5c0.5,0.4,1.1,0.4,1.6,0l5.8-4.5l16.4,16.4l1.9-1.9L40.8,37.6l14.7-11.4
					l5.6-4.3l0.2,0.2L61.3,58.7L61.3,58.7z"/>
				<path id="Path_543" class="st2" d="M17.3,16h13.3v-2.7h-12v-2.7h12V8H17.3C16.6,8,16,8.6,16,9.3l0,0v5.3
					C16,15.4,16.6,16,17.3,16C17.3,16,17.3,16,17.3,16z"/>
				<path id="Path_544" class="st2" d="M33.3,13.3H36V16h-2.7V13.3z"/>
				<path id="Path_545" class="st2" d="M38.7,13.3h2.7V16h-2.7V13.3z"/>
				<path id="Path_546" class="st2" d="M33.3,8H48v2.7H33.3V8z"/>
				<path id="Path_547" class="st2" d="M16,18.7h33.3v2.7H16V18.7z"/>
			</g>
		</g>
	</g>
</g>
</svg>
