<?xml version="1.0" encoding="utf-8"?>
<!-- Generator: Adobe Illustrator 27.0.1, SVG Export Plug-In . SVG Version: 6.00 Build 0)  -->
<svg version="1.1" id="Layer_1" xmlns="http://www.w3.org/2000/svg" xmlns:xlink="http://www.w3.org/1999/xlink" x="0px" y="0px"
	 viewBox="0 0 64 64" style="enable-background:new 0 0 64 64;" xml:space="preserve">
<style type="text/css">
	.st0{fill:#FFFFFF;}
	.st1{fill:#917CC4;}
	.st2{fill:#F8CD9A;}
</style>
<g>
	<g id="Mask_Group_41" transform="translate(-454 -176)">
		<g id="envelope" transform="translate(454 176)">
			<g id="Group_529">
				<path id="Path_548" class="st0" d="M9.3,4v22.5l15.9,12.3L32,44l6.8-5.2l15.9-12.3V4H9.3z"/>
				<path id="Path_549" class="st0" d="M9.3,17.1v9.4L3,21.6L9.3,17.1z"/>
				<path id="Path_550" class="st0" d="M54.7,17.1l6.4,4.5l-6.4,4.9L54.7,17.1z"/>
				<path id="Path_551" class="st0" d="M54.7,26.5l6.4-4.9l1.6,1.1V60c0,0.7-0.3,1.4-0.8,1.9L56,56L38.8,38.8L54.7,26.5z"/>
			</g>
			<path id="Path_552" class="st1" d="M56,56l5.9,5.9c-0.5,0.5-1.2,0.8-1.9,0.8H4c-0.7,0-1.4-0.3-1.9-0.8L8,56l17.2-17.2L32,44
				l6.8-5.2L56,56z"/>
			<path id="Path_553" class="st0" d="M9.3,26.5l15.9,12.3L8,56l-5.9,5.9c-0.5-0.5-0.8-1.2-0.8-1.9V22.7L3,21.6L9.3,26.5z"/>
			<circle id="Ellipse_77" class="st1" cx="32" cy="16" r="14.7"/>
			<path id="Path_554" class="st0" d="M34.7,38.7v3.3L32,44l-2.7-2.1v-3.3c0-1.5,1.2-2.7,2.7-2.7C33.5,36,34.7,37.2,34.7,38.7z"/>
			<g id="Group_530">
				<path id="Path_555" class="st2" d="M63.4,21.6L56,16.4V4c0-0.7-0.6-1.3-1.3-1.3l0,0h-5.3v2.7h4v20.5L36,39.2v-0.6
					c0-1.7-1.1-3.2-2.7-3.8v-3c8.8-0.7,15.3-8.5,14.6-17.3C47.2,5.9,39.5-0.7,30.7,0.1S15.3,8.5,16.1,17.3c0.7,7.8,6.8,14,14.6,14.6
					v3c-0.6,0.2-1.1,0.5-1.5,0.9c-0.8,0.7-1.2,1.8-1.2,2.8v0.6L10.7,25.8V5.3h4V2.7H9.3C8.6,2.7,8,3.3,8,4c0,0,0,0,0,0v12.4
					l-7.4,5.2C0.2,21.8,0,22.2,0,22.7V60c0,2.2,1.8,4,4,4h56c2.2,0,4-1.8,4-4V22.7C64,22.2,63.8,21.8,63.4,21.6z M56,19.7l2.8,2
					L56,23.8V19.7z M18.7,16c0-7.4,6-13.3,13.3-13.3s13.3,6,13.3,13.3s-6,13.3-13.3,13.3l0,0C24.6,29.3,18.7,23.4,18.7,16z
					 M30.7,38.7c0-0.4,0.1-0.7,0.4-1c0.2-0.2,0.6-0.4,0.9-0.4c0.7,0,1.3,0.6,1.3,1.3l0,0v2.6l-1.3,1l-1.3-1L30.7,38.7L30.7,38.7z
					 M8,23.8l-2.8-2.2L8,19.7V23.8z M61.3,60c0,0.7-0.6,1.3-1.3,1.3l0,0H4c-0.7,0-1.3-0.6-1.3-1.3l0,0V23.4l0.2-0.2l20.3,15.7
					L7.1,55.1l1.9,1.9l16.4-16.4l2.7,2.1v0.1h0.1l3.1,2.4c0.5,0.4,1.2,0.4,1.6,0l3.1-2.4H36v-0.1l2.7-2.1l16.4,16.4l1.9-1.9
					L40.8,38.9l14.7-11.4l5.6-4.3l0.2,0.2L61.3,60z"/>
				<path id="Path_556" class="st2" d="M32,6.7c-5.2,0-9.3,4.2-9.3,9.3h2.7c0-3.7,3-6.7,6.7-6.7V6.7z"/>
			</g>
		</g>
	</g>
</g>
</svg>
