<?xml version="1.0" encoding="utf-8"?>
<!-- Generator: Adobe Illustrator 27.0.1, SVG Export Plug-In . SVG Version: 6.00 Build 0)  -->
<svg version="1.1" id="Layer_1" xmlns="http://www.w3.org/2000/svg" xmlns:xlink="http://www.w3.org/1999/xlink" x="0px" y="0px"
	 viewBox="0 0 64 64" style="enable-background:new 0 0 64 64;" xml:space="preserve">
<style type="text/css">
	.st0{fill:#917CC4;}
	.st1{fill:#FFFFFF;}
	.st2{fill:#F8CD9A;}
</style>
<g>
	<g id="Mask_Group_43" transform="translate(-454 -176)">
		<g id="research" transform="translate(454 176)">
			<path id="Path_586" class="st0" d="M62.7,12h-8c-1.5,0-2.7-1.2-2.7-2.7v-8L62.7,12z"/>
			<path id="Path_587" class="st1" d="M62.7,12v48c0,1.5-1.2,2.7-2.7,2.7H17.3c-1.5,0-2.7-1.2-2.7-2.7V4c0-1.5,1.2-2.7,2.7-2.7H52v8
				c0,1.5,1.2,2.7,2.7,2.7L62.7,12L62.7,12z"/>
			<g id="Group_537">
				<path id="Path_588" class="st0" d="M34.7,21.3H56v13.3H34.7V21.3z"/>
				<path id="Path_589" class="st0" d="M21.3,46.7V60c0,1.5-1.2,2.6-2.7,2.6c-1.4,0-2.6-1.2-2.6-2.6V46.7c0-1.5,1.2-2.6,2.7-2.6
					C20.2,44.1,21.3,45.2,21.3,46.7z"/>
				<circle id="Ellipse_82" class="st0" cx="18.7" cy="18.7" r="17.3"/>
			</g>
			<g id="Group_538">
				<path id="Path_590" class="st2" d="M20,42.9v-5.6c10.3-0.7,18-9.7,17.3-19.9C36.5,7,27.6-0.7,17.3,0S-0.7,9.7,0.1,20
					c0.7,9.3,8,16.6,17.3,17.3v5.6c-1.6,0.6-2.7,2.1-2.7,3.8V60c0,2.2,1.8,4,4,4s4-1.8,4-4V46.7C22.7,45,21.6,43.5,20,42.9z
					 M2.7,18.7c0-8.8,7.2-16,16-16c8.8,0,16,7.2,16,16s-7.2,16-16,16c0,0,0,0,0,0C9.8,34.7,2.7,27.5,2.7,18.7z M20,60
					c0,0.7-0.6,1.3-1.3,1.3s-1.3-0.6-1.3-1.3l0,0V46.7c0-0.7,0.6-1.3,1.3-1.3l0,0c0.4,0,0.7,0.1,0.9,0.4c0.2,0.2,0.4,0.6,0.4,0.9V60
					z"/>
				<path id="Path_591" class="st2" d="M63.6,11.1L52.9,0.4C52.7,0.2,52.3,0,52,0H33.3v2.7h17.3v6.7c0,2.2,1.8,4,4,4h2.7v-2.7h-2.7
					c-0.7,0-1.3-0.6-1.3-1.3c0,0,0,0,0,0V4.6l8,8V60c0,0.7-0.6,1.3-1.3,1.3l0,0H25.3V64H60c2.2,0,4-1.8,4-4V12
					C64,11.7,63.9,11.3,63.6,11.1z"/>
				<path id="Path_592" class="st2" d="M17.3,17.3H20V20h-2.7V17.3z"/>
				<path id="Path_593" class="st2" d="M24,17.3h2.7V20H24V17.3z"/>
				<path id="Path_594" class="st2" d="M10.7,17.3h2.7V20h-2.7V17.3z"/>
				<path id="Path_595" class="st2" d="M34.7,33.3V36H56c0.7,0,1.3-0.6,1.3-1.3l0,0V21.3c0-0.7-0.6-1.3-1.3-1.3l0,0H41.3v2.7h13.3
					v10.7L34.7,33.3L34.7,33.3z"/>
				<path id="Path_596" class="st2" d="M30.7,40h26.7v2.7H30.7V40z"/>
				<path id="Path_597" class="st2" d="M54.7,46.7h2.7v2.7h-2.7V46.7z"/>
				<path id="Path_598" class="st2" d="M49.3,46.7H52v2.7h-2.7V46.7z"/>
			</g>
		</g>
	</g>
</g>
</svg>
