<?xml version="1.0" encoding="utf-8"?>
<!-- Generator: Adobe Illustrator 27.0.1, SVG Export Plug-In . SVG Version: 6.00 Build 0)  -->
<svg version="1.1" id="Layer_1" xmlns="http://www.w3.org/2000/svg" xmlns:xlink="http://www.w3.org/1999/xlink" x="0px" y="0px"
	 viewBox="0 0 64 64" style="enable-background:new 0 0 64 64;" xml:space="preserve">
<style type="text/css">
	.st0{fill:#917CC4;}
	.st1{fill:#FFFFFF;}
	.st2{fill:#F8CD9A;}
</style>
<g>
	<g id="Mask_Group_44" transform="translate(-1255 -176)">
		<g id="mathematics" transform="translate(1255 176)">
			<g id="Group_539">
				<path id="Path_599" class="st0" d="M60,16v30.7c0,0.7-0.6,1.3-1.3,1.3l0,0h-16v-2.7H21.3V48h-16C4.6,48,4,47.4,4,46.7l0,0V12h56
					V16z"/>
				<path id="Path_600" class="st0" d="M49.3,48h5.3v14.7h-5.3V48z"/>
				<path id="Path_601" class="st0" d="M9.3,48h5.3v14.7H9.3V48z"/>
			</g>
			<g id="Group_540">
				<path id="Path_602" class="st1" d="M62.7,6.7V12H1.3V6.7H62.7z"/>
				<path id="Path_603" class="st1" d="M42.7,48v2.7H21.3v-5.3h21.3V48z"/>
			</g>
			<path id="Path_604" class="st0" d="M25.3,1.3h13.3v5.3H25.3V1.3z"/>
			<g id="Group_541">
				<path id="Path_605" class="st2" d="M62.7,5.3H40v-4C40,0.6,39.4,0,38.7,0c0,0,0,0,0,0H25.3C24.6,0,24,0.6,24,1.3c0,0,0,0,0,0v4
					H1.3C0.6,5.3,0,5.9,0,6.7c0,0,0,0,0,0V12c0,0.7,0.6,1.3,1.3,1.3c0,0,0,0,0,0H24v-2.7H2.7V8h58.7v2.7H40v2.7h22.7
					c0.7,0,1.3-0.6,1.3-1.3c0,0,0,0,0,0V6.7C64,5.9,63.4,5.3,62.7,5.3C62.7,5.3,62.7,5.3,62.7,5.3z M26.7,2.7h10.7v2.7H26.7V2.7
					L26.7,2.7z"/>
				<path id="Path_606" class="st2" d="M58.7,46.7H44v-1.3c0-0.7-0.6-1.3-1.3-1.3l0,0H21.3c-0.7,0-1.3,0.6-1.3,1.3l0,0v1.3H5.3V16
					H2.7v30.7c0,1.5,1.2,2.7,2.7,2.7H8v13.3C8,63.4,8.6,64,9.3,64c0,0,0,0,0,0h5.3c0.7,0,1.3-0.6,1.3-1.3c0,0,0,0,0,0v-5.3h32v5.3
					c0,0.7,0.6,1.3,1.3,1.3c0,0,0,0,0,0h5.3c0.7,0,1.3-0.6,1.3-1.3c0,0,0,0,0,0V49.3h2.7c1.5,0,2.7-1.2,2.7-2.7V16h-2.7V46.7z
					 M13.3,61.3h-2.7v-12h2.7L13.3,61.3L13.3,61.3z M22.7,46.7h18.7v2.7H22.7L22.7,46.7z M16,54.7v-5.3h4v1.3c0,0.7,0.6,1.3,1.3,1.3
					c0,0,0,0,0,0h21.3c0.7,0,1.3-0.6,1.3-1.3l0,0v-1.3h4v5.3H16z M53.3,61.3h-2.7v-12h2.7L53.3,61.3z"/>
				<path id="Path_607" class="st2" d="M53.3,18.7H36c-0.4,0-0.7,0.1-0.9,0.4L22.7,31.4l-5.7-5.7c-0.2-0.3-0.6-0.4-0.9-0.4h-5.3V28
					h4.8l6.3,6.3c0.5,0.5,1.4,0.5,1.9,0l12.9-12.9h16.8V18.7z"/>
				<path id="Path_608" class="st2" d="M47.1,25.7l-4.4,4.4l-4.4-4.4l-1.9,1.9l4.4,4.4l-4.4,4.4l1.9,1.9l4.4-4.4l4.4,4.4l1.9-1.9
					L44.6,32l4.4-4.4L47.1,25.7z"/>
			</g>
		</g>
	</g>
</g>
</svg>
