<?xml version="1.0" encoding="utf-8"?>
<!-- Generator: Adobe Illustrator 27.0.1, SVG Export Plug-In . SVG Version: 6.00 Build 0)  -->
<svg version="1.1" id="Layer_1" xmlns="http://www.w3.org/2000/svg" xmlns:xlink="http://www.w3.org/1999/xlink" x="0px" y="0px"
	 viewBox="0 0 64 64" style="enable-background:new 0 0 64 64;" xml:space="preserve">
<style type="text/css">
	.st0{fill:#FFFFFF;}
	.st1{fill:#917CC4;}
	.st2{fill:#F8CD9A;}
</style>
<g>
	<g id="Mask_Group_45" transform="translate(-1653 -176)">
		<g id="art-and-design" transform="translate(1653 176)">
			<g id="Group_542">
				<path id="Path_609" class="st0" d="M28,58.7h8v4h-8V58.7z"/>
				<path id="Path_610" class="st0" d="M40,53.3v5.3H24v-5.3H40z"/>
			</g>
			<path id="Path_611" class="st1" d="M40,53.3H24V42.4C13.1,38,7.8,25.6,12.2,14.7S29.1-1.5,40,2.9s16.2,16.9,11.8,27.8
				C49.6,36,45.4,40.3,40,42.4V53.3z"/>
			<g id="Group_543">
				<path id="Path_612" class="st0" d="M34.7,24l0,20L32,48l-2.7-4l0-20H34.7z"/>
				<path id="Path_613" class="st0" d="M34.7,18.7V24h-5.3v-5.3H34.7L34.7,18.7z"/>
				<path id="Path_614" class="st0" d="M48,4v8H32V4c0-1.5,1.2-2.7,2.7-2.7h10.7C46.8,1.3,48,2.5,48,4z"/>
				<path id="Path_615" class="st0" d="M32,9.3V12h-4l-12,0V4c0-1.5,1.2-2.7,2.7-2.7h10.7c1.4,0,2.6,1.1,2.7,2.5c0,0,0,0,0,0V9.3z"
					/>
			</g>
			<g id="Group_544">
				<path id="Path_616" class="st2" d="M16,13.3l12,0v-2.7l-10.7,0V4c0-0.7,0.6-1.3,1.3-1.3l0,0h10.7c0.7,0,1.3,0.6,1.3,1.3v0h0v0h0
					v1.3h-9.3V8h9.3v9.3h-1.3c-0.7,0-1.3,0.6-1.3,1.3c0,0,0,0,0,0V44c0,0.3,0.1,0.5,0.2,0.7l2.7,4c0.4,0.6,1.2,0.8,1.8,0.4
					c0.1-0.1,0.3-0.2,0.4-0.4l2.7-4c0.1-0.2,0.2-0.5,0.2-0.7V18.7c0-0.7-0.6-1.3-1.3-1.3l0,0h-1.3V8h9.3V5.3h-9.3V4h0V3.9
					c0-0.7,0.6-1.3,1.3-1.3h10.7c0.7,0,1.3,0.6,1.3,1.3v6.7H36v2.7l12,0c0.7,0,1.3-0.6,1.3-1.3c0,0,0,0,0,0V4c0-2.2-1.8-4-4-4
					L34.7,0c-1,0-1.9,0.4-2.7,1c-0.7-0.7-1.7-1-2.7-1H18.7c-2.2,0-4,1.8-4,4v8C14.7,12.7,15.3,13.3,16,13.3C16,13.3,16,13.3,16,13.3
					z M33.3,20v2.7h-2.7V20H33.3z M32,45.6l-1.3-2V25.3h2.7v18.3L32,45.6z"/>
				<path id="Path_617" class="st2" d="M22.7,49.3h2.7v-6.9c0-0.5-0.3-1-0.8-1.2c-10.2-4.1-15.2-15.8-11-26c0,0,0,0,0,0l0,0l-2.5-1
					c-4.6,11.3,0.6,24.2,11.7,29.2V49.3L22.7,49.3z"/>
				<path id="Path_618" class="st2" d="M53,14.1l-2.5,1c4.2,10.2-0.8,21.9-11,26.1l0,0c-0.5,0.2-0.8,0.7-0.8,1.2v6.9h2.7v-6
					C52.4,38.3,57.6,25.4,53,14.1z"/>
				<path id="Path_619" class="st2" d="M20,54.7h2.7v4c0,0.7,0.6,1.3,1.3,1.3l0,0h2.7v2.7c0,0.7,0.6,1.3,1.3,1.3l0,0h8
					c0.7,0,1.3-0.6,1.3-1.3l0,0V60H40c0.7,0,1.3-0.6,1.3-1.3l0,0v-4H44V52H20V54.7z M34.7,61.3h-5.3V60h5.3L34.7,61.3z M38.7,57.3
					H25.3v-2.7h13.3L38.7,57.3z"/>
			</g>
		</g>
	</g>
</g>
</svg>
