<?xml version="1.0" encoding="utf-8"?>
<!-- Generator: Adobe Illustrator 27.0.1, SVG Export Plug-In . SVG Version: 6.00 Build 0)  -->
<svg version="1.1" id="Layer_1" xmlns="http://www.w3.org/2000/svg" xmlns:xlink="http://www.w3.org/1999/xlink" x="0px" y="0px"
	 viewBox="0 0 64 64" style="enable-background:new 0 0 64 64;" xml:space="preserve">
<style type="text/css">
	.st0{fill:#917CC4;}
	.st1{fill:#FFFFFF;}
	.st2{fill:#F8CB99;}
</style>
<g>
	<g id="Mask_Group_46" transform="translate(-454 -176)">
		<g id="exam" transform="translate(454 176)">
			<path id="Path_620" class="st0" d="M58,12h-8c-1.5,0-2.7-1.2-2.7-2.7v-8L58,12z"/>
			<path id="Path_621" class="st1" d="M58,12v48c0,1.5-1.2,2.7-2.7,2.7H12.7c-1.5,0-2.7-1.2-2.7-2.7V4c0-1.5,1.2-2.7,2.7-2.7h34.7v8
				c0,1.5,1.2,2.7,2.7,2.7H58z"/>
			<circle id="Ellipse_83" class="st0" cx="19.3" cy="17.3" r="16"/>
			<path id="Path_622" class="st1" d="M54,38.7h6.7V44H54V38.7z"/>
			<path id="Path_623" class="st0" d="M54,38.7V44H10l-4-2.7l4-2.7L54,38.7L54,38.7z"/>
			<g id="Group_553">
				<path id="Path_624" class="st2" d="M56.7,60c0,0.7-0.6,1.3-1.3,1.3l0,0H12.7c-0.7,0-1.3-0.6-1.3-1.3c0,0,0,0,0,0V49.3H8.7V60
					c0,2.2,1.8,4,4,4h42.7c2.2,0,4-1.8,4-4V49.3h-2.7V60z"/>
				<path id="Path_625" class="st2" d="M46,9.3c0,2.2,1.8,4,4,4h2.7v-2.7H50c-0.7,0-1.3-0.6-1.3-1.3c0,0,0,0,0,0V4.6l8,8V28h2.7V12
					c0-0.4-0.1-0.7-0.4-0.9L48.3,0.4C48,0.1,47.7,0,47.3,0h-8v2.7H46V9.3z"/>
				<path id="Path_626" class="st2" d="M19.3,34.7c9.6,0,17.3-7.8,17.3-17.3H34C34,25.4,27.4,32,19.3,32S4.7,25.4,4.7,17.3
					c0-8.1,6.6-14.7,14.7-14.7c0,0,0,0,0,0V0C9.8,0,2,7.8,2,17.3S9.8,34.7,19.3,34.7z"/>
				<path id="Path_627" class="st2" d="M60.7,37.3H58v-4c0-0.7-0.6-1.3-1.3-1.3l0,0h-20v2.7h18.7v2.7H10c-0.3,0-0.5,0.1-0.7,0.2
					l-4,2.7c-0.6,0.4-0.8,1.2-0.4,1.8c0.1,0.1,0.2,0.3,0.4,0.4l4,2.7c0.2,0.1,0.5,0.2,0.7,0.2h50.7c0.7,0,1.3-0.6,1.3-1.3
					c0,0,0,0,0,0v-5.3C62,37.9,61.4,37.3,60.7,37.3L60.7,37.3z M8.4,41.3l2-1.3h42.3v2.7H10.4L8.4,41.3z M59.3,42.7h-4V40h4V42.7z"
					/>
				<path id="Path_628" class="st2" d="M12.7,12v13.3h2.7v-6.7h8v6.7H26V12c0-2.2-1.8-4-4-4h-5.3C14.5,8,12.7,9.8,12.7,12z M23.3,12
					v4h-8v-4c0-0.7,0.6-1.3,1.3-1.3l0,0H22C22.7,10.7,23.3,11.3,23.3,12L23.3,12L23.3,12z"/>
				<path id="Path_629" class="st2" d="M15.3,49.3h13.3V52H15.3V49.3z"/>
				<path id="Path_630" class="st2" d="M15.3,54.7H18v2.7h-2.7V54.7z"/>
				<path id="Path_631" class="st2" d="M20.7,54.7h2.7v2.7h-2.7V54.7z"/>
				<path id="Path_632" class="st2" d="M31.3,12H34V8h4V5.3h-4v-4h-2.7v4h-4V8h4V12z"/>
			</g>
		</g>
	</g>
</g>
</svg>
