<?xml version="1.0" encoding="utf-8"?>
<!-- Generator: Adobe Illustrator 27.0.1, SVG Export Plug-In . SVG Version: 6.00 Build 0)  -->
<svg version="1.1" id="Layer_1" xmlns="http://www.w3.org/2000/svg" xmlns:xlink="http://www.w3.org/1999/xlink" x="0px" y="0px"
	 viewBox="0 0 64 64" style="enable-background:new 0 0 64 64;" xml:space="preserve">
<style type="text/css">
	.st0{fill:#FFFFFF;}
	.st1{fill:#917CC4;}
	.st2{fill:#F8CD9A;}
</style>
<g>
	<g id="Mask_Group_47" transform="translate(-1048 -176)">
		<g id="question" transform="translate(1048 176)">
			<path id="Path_633" class="st0" d="M57.3,20v26.7c0,0-1.3,6.7-6.7,6.7v9.3h-28V52c0-4-2.7-4-2.7-4h-8c-2.2,0-4-1.7-4-3.8
				c0,0,0,0,0,0V39c-1.1-1-2.5-1.6-4-1.7c-1.4,0-2.6-1.1-2.7-2.6c0,0,0,0,0,0v-0.1L8,22.6V20C8,9.7,16.4,1.3,26.7,1.3c0,0,0,0,0,0
				h10.7C47.6,1.3,57.3,9.7,57.3,20L57.3,20z"/>
			<circle id="Ellipse_84" class="st1" cx="42.7" cy="21.3" r="20"/>
			<g id="Group_554">
				<path id="Path_634" class="st2" d="M56,46.5c-0.2,0.8-1.5,5.5-5.3,5.5c-0.7,0-1.3,0.6-1.3,1.3l0,0v8H24V52c0-4.2-2.6-5.3-4-5.3
					h-8c-1.4,0.1-2.6-1-2.7-2.3c0-0.1,0-0.2,0-0.3v-5c0-0.4-0.2-0.7-0.4-1c-1.3-1.2-3.1-2-4.9-2c-0.6,0.1-1.2-0.4-1.3-1v0l6.5-11.7
					c0.1-0.2,0.2-0.4,0.2-0.6V20c0-9.6,7.8-17.3,17.3-17.3V0c-11,0-20,9-20,20v2.2L0.2,34C0.1,34.2,0,34.4,0,34.7
					c-0.1,2.1,1.6,3.9,3.8,4c0,0,0,0,0,0H4c1,0.1,1.9,0.4,2.7,1V44c-0.1,2.9,2.2,5.2,5,5.3H20c0.2,0,1.4,0.2,1.4,2.7v10.7
					c0,0.7,0.6,1.3,1.3,1.3c0,0,0,0,0,0h28c0.7,0,1.3-0.6,1.3-1.3l0,0v-8.1c4.2-0.8,6.2-5.2,6.6-7.6c0-0.1,0-0.2,0-0.3v-4H56
					C56,42.7,56,46.5,56,46.5z"/>
				<path id="Path_635" class="st2" d="M42.7,42.7c11.8,0,21.3-9.6,21.3-21.3S54.4,0,42.7,0S21.3,9.6,21.3,21.3c0,0,0,0,0,0
					C21.3,33.1,30.9,42.7,42.7,42.7z M42.7,2.7C53,2.7,61.3,11,61.3,21.3S53,40,42.7,40C32.4,40,24,31.6,24,21.3
					C24,11,32.4,2.7,42.7,2.7C42.7,2.7,42.7,2.7,42.7,2.7L42.7,2.7z"/>
				<path id="Path_636" class="st2" d="M37.3,13.3c0-0.7,0.6-1.3,1.3-1.3c0,0,0,0,0,0h8c0.7,0,1.3,0.6,1.3,1.3c0,0,0,0,0,0v5.3
					c0,0.7-0.6,1.3-1.3,1.3l0,0h-4c-1.4,0-2.6,1.1-2.7,2.6c0,0,0,0,0,0V28h2.7v-5.3h4c2.2,0,4-1.8,4-4v-5.3c0-2.2-1.8-4-4-4h-8
					c-2.2,0-4,1.8-4,4v5.3h2.7V13.3z"/>
				<path id="Path_637" class="st2" d="M40,30.7h2.7v2.7H40V30.7z"/>
			</g>
		</g>
	</g>
</g>
</svg>
