<?xml version="1.0" encoding="utf-8"?>
<!-- Generator: Adobe Illustrator 27.0.1, SVG Export Plug-In . SVG Version: 6.00 Build 0)  -->
<svg version="1.1" id="Layer_1" xmlns="http://www.w3.org/2000/svg" xmlns:xlink="http://www.w3.org/1999/xlink" x="0px" y="0px"
	 viewBox="0 0 64 64" style="enable-background:new 0 0 64 64;" xml:space="preserve">
<style type="text/css">
	.st0{fill:#FFFFFF;}
	.st1{fill:#917CC4;}
	.st2{fill:#F8CD9A;}
</style>
<g>
	<g id="Mask_Group_48" transform="translate(-1631 -176)">
		<g id="teamwork" transform="translate(1631 176)">
			<g id="Group_555">
				<path id="Path_638" class="st0" d="M45.3,29.1c1.2-0.7,2.6-1.1,4-1.1c4.4,0,8,3.6,8,8v4c0,3.4-2.1,6.4-5.3,7.5v1.8
					c2.2,1,4.4,1.9,6.7,2.7c4,1.3,4,4,4,4v8H36v-8c0,0,0-2.7,4-4c2.3-0.7,4.5-1.6,6.7-2.7v-1.8c-3.2-1.1-5.3-4.1-5.3-7.5v-4
					C41.3,33.2,42.8,30.5,45.3,29.1L45.3,29.1z"/>
				<path id="Path_639" class="st0" d="M28,62.7V64H1.3v-8c0,0,0-2.7,4-4c2.3-0.7,4.5-1.6,6.7-2.7v-1.8c-3.2-1.1-5.3-4.1-5.3-7.5v-4
					c0-4.4,3.6-8,8-8s8,3.6,8,8v4c0,3.4-2.1,6.4-5.3,7.5v1.8c2.2,1,4.4,1.9,6.7,2.7c4,1.3,4,4,4,4V62.7z"/>
			</g>
			<path id="Path_640" class="st1" d="M46.7,47.5v1.8c-2.2,1-4.4,1.9-6.7,2.7c-4,1.3-4,4-4,4v6.7h-8V56c0,0,0-2.7-4-4
				c-2.3-0.7-4.5-1.6-6.7-2.7v-1.8c3.2-1.1,5.3-4.1,5.3-7.5v-4c0-2.8-1.5-5.5-4-6.9c0.1-0.7,0.7-2.7,4-3.8c2.3-0.7,4.5-1.6,6.7-2.7
				v-1.8c-3.2-1.1-5.3-4.1-5.3-7.5v-4c0-4.4,3.6-8,8-8s8,3.6,8,8v4c0,3.4-2.1,6.4-5.3,7.5v1.8c2.2,1,4.4,1.9,6.7,2.7
				c3.3,1.1,3.9,3.1,4,3.8c-2.5,1.4-4,4.1-4,6.9v4C41.3,43.4,43.5,46.4,46.7,47.5z"/>
			<g id="Group_556">
				<path id="Path_641" class="st2" d="M59.1,50.7c-2-0.6-3.9-1.4-5.8-2.2v-0.1c3.3-1.5,5.3-4.8,5.3-8.4v-4c0-5.1-4.1-9.3-9.3-9.3
					c-1.1,0-2.3,0.2-3.4,0.6c-1-1.6-2.5-2.7-4.3-3.2c-2-0.6-3.9-1.4-5.8-2.2v-0.1c3.3-1.5,5.3-4.8,5.3-8.4v-4C41.3,4.2,37.2,0,32,0
					s-9.3,4.2-9.3,9.3v4c0,3.6,2.1,6.9,5.3,8.4v0.1c-1.9,0.8-3.8,1.6-5.8,2.2c-1.8,0.5-3.3,1.6-4.3,3.2c-4.8-1.8-10.2,0.6-12,5.4
					c-0.4,1.1-0.6,2.2-0.6,3.4v4c0,3.6,2.1,6.9,5.3,8.4v0.1c-1.9,0.8-3.8,1.6-5.8,2.2C0.1,52.4,0,55.9,0,56v8h2.7v-8
					c0-0.1,0.1-1.8,3.1-2.8c2.3-0.8,4.6-1.7,6.8-2.7c0.5-0.2,0.7-0.7,0.7-1.2v-1.8c0-0.6-0.4-1.1-0.9-1.3C9.8,45.3,8,42.8,8,40v-4
					c0-3.7,3-6.7,6.7-6.7c1.2,0,2.3,0.3,3.4,0.9c2,1.2,3.3,3.4,3.3,5.8v4c0,2.8-1.8,5.3-4.4,6.3C16.4,46.5,16,47,16,47.5v1.8
					c0,0.5,0.3,1,0.7,1.2c2.2,1.1,4.5,2,6.8,2.7c3,1,3.1,2.7,3.1,2.7v8h2.7v-8c0-0.1-0.1-3.6-4.9-5.3c-2-0.6-3.9-1.4-5.8-2.2v-0.1
					c3.3-1.5,5.3-4.8,5.3-8.4v-4c0-2.9-1.4-5.7-3.7-7.4c0.7-1,1.7-1.7,2.8-2c2.3-0.8,4.6-1.7,6.8-2.7c0.5-0.2,0.7-0.7,0.7-1.2v-1.8
					c0-0.6-0.4-1.1-0.9-1.3c-2.7-0.9-4.4-3.5-4.4-6.3v-4c0-3.7,3.1-6.6,6.7-6.6c3.6,0,6.5,3,6.6,6.6v4c0,2.8-1.8,5.3-4.4,6.3
					c-0.5,0.2-0.9,0.7-0.9,1.3v1.8c0,0.5,0.3,1,0.7,1.2c2.2,1.1,4.5,2,6.8,2.7c1.1,0.3,2.1,1,2.8,2C41.4,30.3,40,33.1,40,36v4
					c0,3.6,2.1,6.9,5.3,8.4v0.1c-1.9,0.8-3.8,1.6-5.8,2.2c-4.9,1.6-4.9,5.1-4.9,5.3v8h2.7v-8c0-0.1,0.1-1.8,3.1-2.8
					c2.3-0.8,4.6-1.7,6.8-2.7c0.5-0.2,0.7-0.7,0.7-1.2v-1.8c0-0.6-0.4-1.1-0.9-1.3c-2.7-0.9-4.4-3.5-4.4-6.3v-4
					c0-2.4,1.3-4.6,3.3-5.8c1-0.6,2.2-0.9,3.3-0.9c3.7,0,6.7,3,6.7,6.7v4c0,2.8-1.8,5.3-4.4,6.3c-0.5,0.2-0.9,0.7-0.9,1.3v1.8
					c0,0.5,0.3,1,0.7,1.2c2.2,1.1,4.5,2,6.8,2.7c3,1,3.1,2.7,3.1,2.7v8H64v-8C64,55.9,63.9,52.4,59.1,50.7z"/>
				<path id="Path_642" class="st2" d="M30.7,36h2.7v2.7h-2.7V36z"/>
				<path id="Path_643" class="st2" d="M30.7,30.7h2.7v2.7h-2.7V30.7z"/>
				<path id="Path_644" class="st2" d="M30.7,41.3h2.7V44h-2.7V41.3z"/>
				<path id="Path_645" class="st2" d="M20,57.3h2.7V64H20V57.3z"/>
				<path id="Path_646" class="st2" d="M6.7,57.3h2.7V64H6.7V57.3z"/>
				<path id="Path_647" class="st2" d="M41.3,57.3H44V64h-2.7V57.3z"/>
				<path id="Path_648" class="st2" d="M54.7,57.3h2.7V64h-2.7V57.3z"/>
			</g>
		</g>
	</g>
</g>
</svg>
