<?xml version="1.0" encoding="utf-8"?>
<!-- Generator: Adobe Illustrator 27.0.1, SVG Export Plug-In . SVG Version: 6.00 Build 0)  -->
<svg version="1.1" id="Layer_1" xmlns="http://www.w3.org/2000/svg" xmlns:xlink="http://www.w3.org/1999/xlink" x="0px" y="0px"
	 viewBox="0 0 64 64" style="enable-background:new 0 0 64 64;" xml:space="preserve">
<style type="text/css">
	.st0{fill:#917CC4;}
	.st1{fill:#FFFFFF;}
	.st2{fill:#F8CD9A;}
</style>
<g>
	<g id="Mask_Group_49" transform="translate(-454 -176)">
		<g id="target" transform="translate(454 176)">
			<circle id="Ellipse_89" class="st0" cx="32" cy="32" r="24"/>
			<path id="Path_657" class="st1" d="M45.3,48v8h-20l-6.7-4v-4c0,0,0-2.7,4-4c2.3-0.7,4.5-1.6,6.7-2.7v-1.8
				C26.1,38.4,24,35.4,24,32v-4c0-4.4,3.6-8,8-8s8,3.6,8,8v4c0,3.4-2.1,6.4-5.3,7.5v1.8c2.2,1,4.4,1.9,6.7,2.7
				C45.3,45.3,45.3,48,45.3,48z"/>
			<g id="Group_572">
				<path id="Path_658" class="st2" d="M57.3,32C57.3,18,46,6.7,32,6.7h-3.4l4.4-4.4l-1.9-1.9l-6.7,6.7c-0.5,0.5-0.5,1.4,0,1.9
					l6.7,6.7l1.9-1.9l-4.4-4.4H32c12.5,0,22.7,10.2,22.7,22.7H57.3z"/>
				<path id="Path_659" class="st2" d="M32.9,48.4l-1.9,1.9l4.4,4.4H32C19.5,54.7,9.3,44.5,9.3,32H6.7C6.7,46,18,57.3,32,57.3h3.4
					l-4.4,4.4l1.9,1.9l6.7-6.7c0.5-0.5,0.5-1.4,0-1.9L32.9,48.4z"/>
				<path id="Path_660" class="st2" d="M41.8,42.7c-2-0.6-3.9-1.4-5.8-2.2v-0.1c3.3-1.5,5.3-4.8,5.3-8.4v-4c0-5.2-4.2-9.3-9.3-9.3
					s-9.3,4.2-9.3,9.3v4c0,3.6,2.1,6.9,5.3,8.4v0.1c-1.9,0.8-3.8,1.6-5.8,2.2c-1.1,0.4-2.2,0.9-3,1.7l1.8,2c0.6-0.5,1.3-0.9,2.1-1.1
					c2.3-0.8,4.6-1.7,6.8-2.7c0.5-0.2,0.7-0.7,0.7-1.2v-1.8c0-0.6-0.4-1.1-0.9-1.3c-2.7-0.9-4.4-3.5-4.4-6.3v-4
					c0-3.7,3.1-6.6,6.7-6.6c3.6,0,6.5,3,6.6,6.6v4c0,2.8-1.8,5.3-4.4,6.3c-0.5,0.2-0.9,0.7-0.9,1.3v1.8c0,0.5,0.3,1,0.7,1.2
					c2.2,1.1,4.5,2,6.8,2.7c3,1,3.1,2.7,3.1,2.7v8h2.7v-8C46.7,47.9,46.6,44.4,41.8,42.7z"/>
				<path id="Path_661" class="st2" d="M6.7,24h2.7v-8c0.1-2.9-2.2-5.2-5-5.3H0v2.7h4c1.4-0.1,2.6,1,2.7,2.3c0,0.1,0,0.2,0,0.3V24z"
					/>
				<path id="Path_662" class="st2" d="M60,50.7c-1.4,0.1-2.6-1-2.7-2.3c0-0.1,0-0.2,0-0.3v-8h-2.7v8c-0.1,2.9,2.2,5.2,5,5.3H64
					v-2.7H60z"/>
				<path id="Path_663" class="st2" d="M6.7,26.7h2.7v2.7H6.7V26.7z"/>
				<path id="Path_664" class="st2" d="M12,26.7h2.7v2.7H12V26.7z"/>
				<path id="Path_665" class="st2" d="M17.3,26.7H20v2.7h-2.7V26.7z"/>
				<path id="Path_666" class="st2" d="M49.3,34.7H52v2.7h-2.7V34.7z"/>
				<path id="Path_667" class="st2" d="M44,34.7h2.7v2.7H44V34.7z"/>
				<path id="Path_668" class="st2" d="M54.7,34.7h2.7v2.7h-2.7V34.7z"/>
			</g>
		</g>
	</g>
</g>
</svg>
