<?xml version="1.0" encoding="utf-8"?>
<!-- Generator: Adobe Illustrator 27.0.1, SVG Export Plug-In . SVG Version: 6.00 Build 0)  -->
<svg version="1.1" id="Layer_1" xmlns="http://www.w3.org/2000/svg" xmlns:xlink="http://www.w3.org/1999/xlink" x="0px" y="0px"
	 viewBox="0 0 64 64" style="enable-background:new 0 0 64 64;" xml:space="preserve">
<style type="text/css">
	.st0{fill:#917CC4;}
	.st1{fill:#FFFFFF;}
	.st2{fill:#F8CD9A;}
</style>
<g>
	<g id="Mask_Group_50" transform="translate(-850 -176)">
		<g id="monitor" transform="translate(850 176)">
			<g id="Group_573">
				<path id="Path_669" class="st0" d="M56,32v4H8V8h48V32z"/>
				<path id="Path_670" class="st0" d="M45.3,57.3v4c0,0.7-0.6,1.3-1.3,1.3c0,0,0,0,0,0H20c-0.7,0-1.3-0.6-1.3-1.3l0,0v-4L45.3,57.3
					z"/>
			</g>
			<path id="Path_671" class="st1" d="M22.7,46.7h18.7v10.7H22.7V46.7z"/>
			<path id="Path_672" class="st0" d="M62.7,36v8c0,1.5-1.2,2.7-2.7,2.7H4c-1.5,0-2.7-1.2-2.7-2.7v-8H62.7z"/>
			<g id="Group_574">
				<path id="Path_673" class="st1" d="M62.7,4v32H56V8H8v28H1.3V4c0-1.5,1.2-2.7,2.7-2.7h56C61.5,1.3,62.7,2.5,62.7,4z"/>
				<path id="Path_674" class="st1" d="M41.3,13.3h9.3v5.3h-9.3V13.3z"/>
				<path id="Path_675" class="st1" d="M37.3,29.3V32H10.7v-2.7c0,0,0-2.7,4-4c2.3-0.7,4.5-1.6,6.7-2.7v-1.8
					c-3.2-1.1-5.3-4.1-5.3-7.5v-4c0-4.4,3.6-8,8-8s8,3.6,8,8v4c0,3.4-2.1,6.4-5.3,7.5v1.8c2.2,1,4.4,1.9,6.7,2.7
					C37.3,26.7,37.3,29.3,37.3,29.3z"/>
			</g>
			<g id="Group_575">
				<path id="Path_676" class="st2" d="M5.3,34.7h53.3v2.7H5.3V34.7z"/>
				<path id="Path_677" class="st2" d="M60,0H34.7v2.7H60c0.7,0,1.3,0.6,1.3,1.3l0,0v40c0,0.7-0.6,1.3-1.3,1.3l0,0H4
					c-0.7,0-1.3-0.6-1.3-1.3l0,0V4c0-0.7,0.6-1.3,1.3-1.3l0,0h9.3V0H4C1.8,0,0,1.8,0,4v40c0,2.2,1.8,4,4,4h17.3v8h-2.7
					c-0.7,0-1.3,0.6-1.3,1.3l0,0v4h-2.7V64h34.7v-2.7h-2.7v-4c0-0.7-0.6-1.3-1.3-1.3c0,0,0,0,0,0h-2.7v-8H60c2.2,0,4-1.8,4-4V4
					C64,1.8,62.2,0,60,0z M44,61.3H20v-2.7h24V61.3z M40,56H24v-8h16V56z"/>
				<path id="Path_678" class="st2" d="M56,6.7H37.3v2.7h17.3V32h2.7V8C57.3,7.3,56.7,6.7,56,6.7C56,6.7,56,6.7,56,6.7z"/>
				<path id="Path_679" class="st2" d="M14.2,24.1c-4.9,1.6-4.9,5.1-4.9,5.3V32H12v-2.6c0-0.1,0.1-1.8,3.1-2.8
					c2.3-0.8,4.6-1.7,6.8-2.7c0.5-0.2,0.7-0.7,0.7-1.2v-1.8c0-0.6-0.4-1.1-0.9-1.3c-2.7-0.9-4.4-3.5-4.4-6.3v-4
					c0-3.7,3.1-6.6,6.7-6.6c3.6,0,6.5,3,6.6,6.6v4c0,2.8-1.8,5.3-4.4,6.3c-0.5,0.2-0.9,0.7-0.9,1.3v1.8c0,0.5,0.3,1,0.7,1.2
					c2.2,1.1,4.5,2,6.8,2.7c3,1,3.1,2.7,3.1,2.7V32h2.7v-2.7c0-0.1-0.1-3.6-4.9-5.3c-2-0.6-3.9-1.4-5.8-2.2v-0.1
					c3.3-1.5,5.3-4.8,5.3-8.4v-4C33.3,4.2,29.2,0,24,0s-9.3,4.2-9.3,9.3v4c0,3.6,2.1,6.9,5.3,8.4v0.1C18.1,22.7,16.2,23.4,14.2,24.1
					z"/>
				<path id="Path_680" class="st2" d="M52,13.3c0-0.7-0.6-1.3-1.3-1.3l0,0h-9.3c-0.7,0-1.3,0.6-1.3,1.3l0,0v5.3
					c0,0.7,0.6,1.3,1.3,1.3c0,0,0,0,0,0h9.3c0.7,0,1.3-0.6,1.3-1.3c0,0,0,0,0,0V13.3z M49.3,17.3h-6.7v-2.7h6.7L49.3,17.3z"/>
				<path id="Path_681" class="st2" d="M44,22.7h2.7v2.7H44V22.7z"/>
				<path id="Path_682" class="st2" d="M49.3,22.7H52v2.7h-2.7V22.7z"/>
				<path id="Path_683" class="st2" d="M44,28h8v2.7h-8V28z"/>
			</g>
		</g>
	</g>
</g>
</svg>
