<?xml version="1.0" encoding="utf-8"?>
<!-- Generator: Adobe Illustrator 27.0.1, SVG Export Plug-In . SVG Version: 6.00 Build 0)  -->
<svg version="1.1" id="Layer_1" xmlns="http://www.w3.org/2000/svg" xmlns:xlink="http://www.w3.org/1999/xlink" x="0px" y="0px"
	 viewBox="0 0 64 64" style="enable-background:new 0 0 64 64;" xml:space="preserve">
<style type="text/css">
	.st0{fill:#F2F2F2;}
	.st1{fill:#917CC4;}
	.st2{fill:#FFFFFF;}
	.st3{fill:#F8CD9A;}
</style>
<g>
	<g id="Mask_Group_53" transform="translate(-1048 -176)">
		<g id="backup" transform="translate(1048 176)">
			<circle id="Ellipse_91" class="st0" cx="41.3" cy="45.3" r="4"/>
			<g id="Group_581">
				<path id="Path_710" class="st1" d="M8,41.3h25.3v8H8V41.3z"/>
				<path id="Path_711" class="st1" d="M24,17.3h32v8H24V17.3z"/>
				<path id="Path_712" class="st1" d="M57.3,6.7V12H6.7V6.7H57.3z"/>
				<path id="Path_713" class="st1" d="M56,58.7v4H8v-8h48V58.7z"/>
				<path id="Path_714" class="st1" d="M57.3,30.7V36H6.7v-5.3H57.3z"/>
			</g>
			<g id="Group_582">
				<path id="Path_715" class="st2" d="M33.3,49.3v-8H8v8H33.3z M37.3,45.3c0,2.2,1.8,4,4,4s4-1.8,4-4s-1.8-4-4-4
					S37.3,43.1,37.3,45.3z M56,54.7H4c-1.5,0-2.7-1.2-2.7-2.7V38.7C1.3,37.2,2.5,36,4,36h56c1.5,0,2.7,1.2,2.7,2.7V52
					c0,1.5-1.2,2.7-2.7,2.7H56z"/>
				<path id="Path_716" class="st2" d="M60,12H4c-1.5,0-2.7,1.2-2.7,2.7V28c0,1.5,1.2,2.7,2.7,2.7h56c1.5,0,2.7-1.2,2.7-2.7V14.7
					C62.7,13.2,61.5,12,60,12z M56,25.3H24v-8h32V25.3z"/>
				<path id="Path_717" class="st2" d="M52,1.3v5.3H12V1.3H52z"/>
				<circle id="Ellipse_92" class="st2" cx="45.3" cy="45.3" r="17.3"/>
			</g>
			<g id="Group_583">
				<path id="Path_718" class="st3" d="M60,10.7h-1.3v-4c0-0.7-0.6-1.3-1.3-1.3l0,0h-4v-4C53.3,0.6,52.7,0,52,0c0,0,0,0,0,0H12
					c-0.7,0-1.3,0.6-1.3,1.3c0,0,0,0,0,0v4h-4c-0.7,0-1.3,0.6-1.3,1.3c0,0,0,0,0,0v4H4c-2.2,0-4,1.8-4,4V28c0,2.2,1.8,4,4,4h1.3v2.7
					H4c-2.2,0-4,1.8-4,4V52c0,2.2,1.8,4,4,4h22.7v-2.7H4c-0.7,0-1.3-0.6-1.3-1.3l0,0V38.7c0-0.7,0.6-1.3,1.3-1.3c0,0,0,0,0,0h21.3
					v-2.7H8V32h20v-2.7H4c-0.7,0-1.3-0.6-1.3-1.3l0,0V14.7c0-0.7,0.6-1.3,1.3-1.3c0,0,0,0,0,0h56c0.7,0,1.3,0.6,1.3,1.3l0,0V28
					c0,0.7-0.6,1.3-1.3,1.3l0,0V32c2.2,0,4-1.8,4-4V14.7C64,12.5,62.2,10.7,60,10.7z M8,10.7V8h4c0.7,0,1.3-0.6,1.3-1.3v0v-4h37.3v4
					C50.7,7.4,51.3,8,52,8l0,0h4v2.7H8z"/>
				<path id="Path_719" class="st3" d="M9.3,58.7H6.7v4C6.7,63.4,7.3,64,8,64h0h25.3v-2.7h-24V58.7z"/>
				<path id="Path_720" class="st3" d="M16,5.3h32V8H16V5.3z"/>
				<path id="Path_721" class="st3" d="M6.7,16h2.7v10.7H6.7V16z"/>
				<path id="Path_722" class="st3" d="M12,16h2.7v5.3H12V16z"/>
				<path id="Path_723" class="st3" d="M17.3,16H20v5.3h-2.7V16z"/>
				<path id="Path_724" class="st3" d="M12,24h2.7v2.7H12V24z"/>
				<path id="Path_725" class="st3" d="M17.3,24H20v2.7h-2.7V24z"/>
				<path id="Path_726" class="st3" d="M52,24v2.7h4c0.7,0,1.3-0.6,1.3-1.3l0,0v-8c0-0.7-0.6-1.3-1.3-1.3c0,0,0,0,0,0H24
					c-0.7,0-1.3,0.6-1.3,1.3l0,0v8c0,0.7,0.6,1.3,1.3,1.3c0,0,0,0,0,0h13.3V24h-12v-5.3h29.3V24H52z"/>
				<path id="Path_727" class="st3" d="M24,42.7V40H8c-0.7,0-1.3,0.6-1.3,1.3l0,0v8c0,0.7,0.6,1.3,1.3,1.3c0,0,0,0,0,0h16V48H9.3
					v-5.3H24z"/>
				<path id="Path_728" class="st3" d="M45.3,26.7C35,26.7,26.7,35,26.7,45.3S35,64,45.3,64S64,55.6,64,45.3c0,0,0,0,0,0
					C64,35,55.6,26.7,45.3,26.7z M45.3,61.3c-8.8,0-16-7.2-16-16s7.2-16,16-16s16,7.2,16,16C61.3,54.2,54.2,61.3,45.3,61.3
					L45.3,61.3z"/>
				<path id="Path_729" class="st3" d="M45.3,50.7c0.4,0,0.7-0.1,0.9-0.4l5.3-5.3l-1.9-1.9l-3.1,3.1V34.7H44v11.4l-3.1-3.1l-1.9,1.9
					l5.3,5.3C44.6,50.5,45,50.7,45.3,50.7z"/>
				<path id="Path_730" class="st3" d="M52,53.3H38.7v-2.7H36v2.7c0,1.4,1.1,2.6,2.6,2.7H52c1.4,0,2.6-1.1,2.7-2.6c0,0,0,0,0,0v-2.8
					H52V53.3z"/>
			</g>
		</g>
	</g>
</g>
</svg>
