<?xml version="1.0" encoding="utf-8"?>
<!-- Generator: Adobe Illustrator 27.0.1, SVG Export Plug-In . SVG Version: 6.00 Build 0)  -->
<svg version="1.1" id="Layer_1" xmlns="http://www.w3.org/2000/svg" xmlns:xlink="http://www.w3.org/1999/xlink" x="0px" y="0px"
	 viewBox="0 0 64 64" style="enable-background:new 0 0 64 64;" xml:space="preserve">
<style type="text/css">
	.st0{fill:#FFFFFF;}
	.st1{fill:#917CC4;}
	.st2{fill:#F8CD9A;}
</style>
<g>
	<g id="Mask_Group_54" transform="translate(-1631 -176)">
		<g id="ui" transform="translate(1631 176)">
			<path id="Path_731" class="st0" d="M62.7,12v45.3c0,2.9-2.4,5.3-5.3,5.3H6.7c-2.9,0-5.3-2.4-5.3-5.3V12H62.7z"/>
			<path id="Path_732" class="st1" d="M62.7,6.7V12H1.3V6.7c0-2.9,2.4-5.3,5.3-5.3c0,0,0,0,0,0h50.7C60.3,1.3,62.7,3.7,62.7,6.7
				C62.7,6.7,62.7,6.7,62.7,6.7z"/>
			<g id="Group_584">
				<path id="Path_733" class="st0" d="M41.3,29.3h16v16h-16V29.3z"/>
				<path id="Path_734" class="st0" d="M22.7,45.3h18.7v12H22.7V45.3z"/>
				<path id="Path_735" class="st0" d="M22.7,17.3h18.7v12H22.7V17.3z"/>
				<path id="Path_736" class="st0" d="M6.7,29.3h16v16h-16V29.3z"/>
			</g>
			<g id="Group_585">
				<path id="Path_737" class="st1" d="M41.3,17.3h16v12h-16V17.3z"/>
				<path id="Path_738" class="st1" d="M41.3,45.3h16v12h-16V45.3z"/>
				<path id="Path_739" class="st1" d="M22.7,29.3h18.7v16H22.7V29.3z"/>
				<path id="Path_740" class="st1" d="M6.7,45.3h16v12h-16V45.3z"/>
				<path id="Path_741" class="st1" d="M6.7,17.3h16v12h-16V17.3z"/>
			</g>
			<g id="Group_586">
				<path id="Path_742" class="st2" d="M57.3,0H6.7C3,0,0,3,0,6.7v50.7C0,61,3,64,6.7,64h50.7c3.7,0,6.7-3,6.7-6.7V6.7
					C64,3,61,0,57.3,0z M61.3,57.3c0,2.2-1.8,4-4,4H6.7c-2.2,0-4-1.8-4-4V6.7c0-2.2,1.8-4,4-4h50.7c2.2,0,4,1.8,4,4V57.3z"/>
				<path id="Path_743" class="st2" d="M5.3,10.7h53.3v2.7H5.3V10.7z"/>
				<path id="Path_744" class="st2" d="M6.7,5.3h2.7V8H6.7V5.3z"/>
				<path id="Path_745" class="st2" d="M12,5.3h2.7V8H12V5.3z"/>
				<path id="Path_746" class="st2" d="M54.7,5.3h2.7V8h-2.7V5.3z"/>
				<path id="Path_747" class="st2" d="M57.3,16H6.7c-0.7,0-1.3,0.6-1.3,1.3l0,0v40c0,0.7,0.6,1.3,1.3,1.3h0h50.7
					c0.7,0,1.3-0.6,1.3-1.3l0,0v-40C58.7,16.6,58.1,16,57.3,16L57.3,16z M56,28H42.7v-9.3H56V28z M24,44V30.7h16V44H24z M40,46.7V56
					H24v-9.3H40z M21.3,44H8V30.7h13.3V44z M24,28v-9.3h16V28H24z M42.7,30.7H56V44H42.7V30.7z M21.3,18.7V28H8v-9.3H21.3L21.3,18.7
					z M8,46.7h13.3V56H8V46.7z M42.7,56v-9.3H56V56H42.7z"/>
			</g>
		</g>
	</g>
</g>
</svg>
