<?xml version="1.0" encoding="utf-8"?>
<!-- Generator: Adobe Illustrator 27.0.1, SVG Export Plug-In . SVG Version: 6.00 Build 0)  -->
<svg version="1.1" id="Layer_1" xmlns="http://www.w3.org/2000/svg" xmlns:xlink="http://www.w3.org/1999/xlink" x="0px" y="0px"
	 viewBox="0 0 64 64" style="enable-background:new 0 0 64 64;" xml:space="preserve">
<style type="text/css">
	.st0{fill:#917CC4;}
	.st1{fill:#FFFFFF;}
	.st2{fill:#F8CD9A;}
</style>
<g>
	<g id="Mask_Group_56" transform="translate(-454 -176)">
		<g id="certified" transform="translate(454 176)">
			<path id="Path_762" class="st0" d="M40,48.3c3.9,3.1,9.4,3.1,13.3,0v14.3l-6.7-5.3L40,62.7V48.3z"/>
			<path id="Path_763" class="st1" d="M53.3,48.3c-3.9,3.1-9.4,3.1-13.3,0c-1-0.8-1.9-1.8-2.6-3c-2.9-5.1-1.2-11.6,3.9-14.6
				s11.6-1.2,14.6,3.9C58.5,39.2,57.4,45,53.3,48.3L53.3,48.3z M52,40c0-2.9-2.4-5.3-5.3-5.3s-5.3,2.4-5.3,5.3s2.4,5.3,5.3,5.3l0,0
				C49.6,45.3,52,42.9,52,40z"/>
			<g id="Group_588">
				<circle id="Ellipse_101" class="st0" cx="46.7" cy="40" r="5.3"/>
				<path id="Path_764" class="st0" d="M18.7,14.7h26.7V20H18.7V14.7z"/>
			</g>
			<path id="Path_765" class="st1" d="M56,26.7v8.2c-2.8-5.2-9.3-7.1-14.5-4.3s-7.1,9.3-4.3,14.5c0,0.1,0.1,0.1,0.1,0.2
				c0,0.1,0.1,0.1,0.1,0.2H14.7c0-3.7-3-6.7-6.7-6.7c0,0,0,0,0,0v-24c3.7,0,6.7-3,6.7-6.7h34.7c0,3.7,3,6.7,6.7,6.7V26.7z M45.3,20
				v-5.3H18.7V20H45.3z"/>
			<path id="Path_766" class="st0" d="M53.3,48.3c2.5-2,4-5.1,4-8.3c0-1.8-0.5-3.6-1.3-5.2V14.7c-3.7,0-6.7-3-6.7-6.7H14.7
				c0,3.7-3,6.7-6.7,6.7v24c3.7,0,6.7,3,6.7,6.7h22.8c0.7,1.1,1.5,2.2,2.6,3V52H4c-1.5,0-2.7-1.2-2.7-2.7V4c0-1.5,1.2-2.7,2.7-2.7
				h56c1.5,0,2.7,1.2,2.7,2.7v45.3c0,1.5-1.2,2.7-2.7,2.7h-6.7V48.3L53.3,48.3z"/>
			<g id="Group_589">
				<path id="Path_767" class="st2" d="M60,0H4C1.8,0,0,1.8,0,4v45.3c0,2.2,1.8,4,4,4h32v-2.7H4c-0.7,0-1.3-0.6-1.3-1.3l0,0V4
					c0-0.7,0.6-1.3,1.3-1.3l0,0h56c0.7,0,1.3,0.6,1.3,1.3l0,0v45.3c0,0.7-0.6,1.3-1.3,1.3l0,0h-2.7v2.7H60c2.2,0,4-1.8,4-4V4
					C64,1.8,62.2,0,60,0z"/>
				<path id="Path_768" class="st2" d="M13.3,45.3c0,0.7,0.6,1.3,1.3,1.3c0,0,0,0,0,0H32V44H15.9c-0.6-3.4-3.2-6-6.6-6.6V15.9
					c3.4-0.6,6-3.2,6.6-6.6h32.2c0.6,3.4,3.2,6,6.6,6.6v10.8h2.7v-12c0-0.7-0.6-1.3-1.3-1.3l0,0c-2.9,0-5.3-2.4-5.3-5.3c0,0,0,0,0,0
					c0-0.7-0.6-1.3-1.3-1.3l0,0H14.7c-0.7,0-1.3,0.6-1.3,1.3c0,0,0,0,0,0c0,2.9-2.4,5.3-5.3,5.3c-0.7,0-1.3,0.6-1.3,1.3l0,0v24
					C6.7,39.4,7.3,40,8,40c0,0,0,0,0,0C10.9,40,13.3,42.4,13.3,45.3z"/>
				<path id="Path_769" class="st2" d="M58.7,40c0-6.6-5.4-12-12-12c-6.6,0-12,5.4-12,12c0,2.1,0.6,4.2,1.6,6
					c0.6,1.1,1.4,2.1,2.4,2.9v13.7c0,0.7,0.6,1.3,1.3,1.3c0.3,0,0.6-0.1,0.8-0.3l5.8-4.7l5.8,4.7c0.6,0.5,1.4,0.4,1.9-0.2
					c0.2-0.2,0.3-0.5,0.3-0.8V48.9C57.2,46.7,58.7,43.4,58.7,40L58.7,40z M37.3,40c0-5.2,4.2-9.3,9.3-9.3c3.4,0,6.5,1.8,8.2,4.8v0
					c2.5,4.5,0.8,10.2-3.7,12.7c-3.3,1.8-7.4,1.5-10.3-0.9c-0.9-0.7-1.7-1.6-2.2-2.6C37.8,43.2,37.3,41.6,37.3,40z M47.5,56.3
					c-0.5-0.4-1.2-0.4-1.7,0l-4.5,3.6v-9.2c3.4,1.7,7.3,1.7,10.7,0v9.2L47.5,56.3z"/>
				<path id="Path_770" class="st2" d="M46.7,20v-5.3c0-0.7-0.6-1.3-1.3-1.3l0,0H18.7c-0.7,0-1.3,0.6-1.3,1.3l0,0V20
					c0,0.7,0.6,1.3,1.3,1.3l0,0h26.7C46.1,21.3,46.7,20.7,46.7,20L46.7,20z M44,18.7H20V16h24V18.7z"/>
				<path id="Path_771" class="st2" d="M16,25.3h2.7V28H16V25.3z"/>
				<path id="Path_772" class="st2" d="M21.3,25.3H24V28h-2.7V25.3z"/>
				<path id="Path_773" class="st2" d="M16,30.7h16v2.7H16V30.7z"/>
				<path id="Path_774" class="st2" d="M46.7,46.7c3.7,0,6.7-3,6.7-6.7s-3-6.7-6.7-6.7S40,36.3,40,40c0,0,0,0,0,0
					C40,43.7,43,46.7,46.7,46.7z M46.7,36c2.2,0,4,1.8,4,4s-1.8,4-4,4s-4-1.8-4-4C42.7,37.8,44.5,36,46.7,36L46.7,36z"/>
				<path id="Path_775" class="st2" d="M6.7,44h2.7v2.7H6.7V44z"/>
				<path id="Path_776" class="st2" d="M54.7,6.7h2.7v2.7h-2.7V6.7z"/>
				<path id="Path_777" class="st2" d="M6.7,6.7h2.7v2.7H6.7V6.7z"/>
			</g>
		</g>
	</g>
</g>
</svg>
