<?xml version="1.0" encoding="utf-8"?>
<!-- Generator: Adobe Illustrator 27.0.1, SVG Export Plug-In . SVG Version: 6.00 Build 0)  -->
<svg version="1.1" id="Layer_1" xmlns="http://www.w3.org/2000/svg" xmlns:xlink="http://www.w3.org/1999/xlink" x="0px" y="0px"
	 viewBox="0 0 64 64" style="enable-background:new 0 0 64 64;" xml:space="preserve">
<style type="text/css">
	.st0{fill:#FFFFFF;}
	.st1{fill:#9081C4;}
	.st2{fill:#F8CD9A;}
</style>
<g>
	<g id="Mask_Group_57" transform="translate(-852 -176)">
		<g id="contract" transform="translate(852 176)">
			<g id="Group_590">
				<path id="Path_778" class="st0" d="M56,12h-8c-1.5,0-2.7-1.2-2.7-2.7v-8L56,12z"/>
				<path id="Path_779" class="st0" d="M56,12v48c0,1.5-1.2,2.7-2.7,2.7H10.7C9.2,62.7,8,61.5,8,60V4c0-1.5,1.2-2.7,2.7-2.7h34.7v8
					c0,1.5,1.2,2.7,2.7,2.7H56z"/>
				<path id="Path_780" class="st0" d="M16,22.7h21.3V36H16V22.7z"/>
				<path id="Path_781" class="st0" d="M45.3,41.7V56l-6.7-5.3L32,56V41.7C35.9,44.8,41.4,44.8,45.3,41.7z"/>
				<circle id="Ellipse_102" class="st0" cx="38.7" cy="33.3" r="5.3"/>
			</g>
			<path id="Path_782" class="st1" d="M45.3,41.7c-4.6,3.7-11.3,2.9-15-1.7S27.4,28.7,32,25s11.3-2.9,15,1.7
				c1.5,1.9,2.3,4.2,2.3,6.7C49.3,36.6,47.9,39.6,45.3,41.7z M44,33.3c0-2.9-2.4-5.3-5.3-5.3s-5.3,2.4-5.3,5.3s2.4,5.3,5.3,5.3l0,0
				C41.6,38.7,44,36.3,44,33.3z"/>
			<g id="Group_591">
				<path id="Path_783" class="st2" d="M14.7,8H28v2.7H14.7V8z"/>
				<path id="Path_784" class="st2" d="M14.7,13.3h2.7V16h-2.7V13.3z"/>
				<path id="Path_785" class="st2" d="M20,13.3h2.7V16H20V13.3z"/>
				<path id="Path_786" class="st2" d="M56.9,11.1L46.3,0.4C46,0.1,45.7,0,45.3,0H10.7c-2.2,0-4,1.8-4,4v56c0,2.2,1.8,4,4,4h42.7
					c2.2,0,4-1.8,4-4V12C57.3,11.6,57.2,11.3,56.9,11.1z M54.7,60c0,0.7-0.6,1.3-1.3,1.3l0,0H10.7c-0.7,0-1.3-0.6-1.3-1.3
					c0,0,0,0,0,0V4c0-0.7,0.6-1.3,1.3-1.3l0,0H44v6.7c0,2.2,1.8,4,4,4h2.7v-2.7H48c-0.7,0-1.3-0.6-1.3-1.3c0,0,0,0,0,0V4.6l8,8V60z"
					/>
				<path id="Path_787" class="st2" d="M38.7,21.3c-6.6,0-12,5.4-12,12c0,3.4,1.5,6.7,4,8.9V56c0,0.7,0.6,1.3,1.3,1.3
					c0.3,0,0.6-0.1,0.8-0.3l5.8-4.7l5.8,4.7c0.6,0.5,1.4,0.4,1.9-0.2c0.2-0.2,0.3-0.5,0.3-0.8V42.2c2.5-2.3,4-5.5,4-8.9
					C50.7,26.7,45.3,21.3,38.7,21.3L38.7,21.3z M39.5,49.6c-0.5-0.4-1.2-0.4-1.7,0l-4.5,3.6v-9.2c3.4,1.7,7.3,1.7,10.7,0v9.2
					L39.5,49.6z M44.5,40.6c-4,3.2-9.9,2.6-13.1-1.5c-3.2-4-2.6-9.9,1.5-13.1c4-3.2,9.9-2.6,13.1,1.5c2.7,3.4,2.7,8.3,0,11.7
					C45.5,39.7,45,40.2,44.5,40.6z"/>
				<path id="Path_788" class="st2" d="M38.7,26.7c-3.7,0-6.7,3-6.7,6.7s3,6.7,6.7,6.7s6.7-3,6.7-6.7l0,0
					C45.3,29.7,42.3,26.7,38.7,26.7z M38.7,37.3c-2.2,0-4-1.8-4-4s1.8-4,4-4s4,1.8,4,4C42.7,35.5,40.9,37.3,38.7,37.3L38.7,37.3z"/>
				<path id="Path_789" class="st2" d="M16,37.3h6.7v-2.7h-5.3V24h9.3v-2.7H16c-0.7,0-1.3,0.6-1.3,1.3l0,0V36
					C14.7,36.7,15.3,37.3,16,37.3C16,37.3,16,37.3,16,37.3z"/>
				<path id="Path_790" class="st2" d="M14.7,41.3h2.7V44h-2.7V41.3z"/>
				<path id="Path_791" class="st2" d="M20,41.3h5.3V44H20V41.3z"/>
				<path id="Path_792" class="st2" d="M14.7,46.7h12v2.7h-12V46.7z"/>
				<path id="Path_793" class="st2" d="M14.7,52h12v2.7h-12V52z"/>
			</g>
		</g>
	</g>
</g>
</svg>
