<?xml version="1.0" encoding="utf-8"?>
<!-- Generator: Adobe Illustrator 27.0.1, SVG Export Plug-In . SVG Version: 6.00 Build 0)  -->
<svg version="1.1" id="Layer_1" xmlns="http://www.w3.org/2000/svg" xmlns:xlink="http://www.w3.org/1999/xlink" x="0px" y="0px"
	 viewBox="0 0 64 64" style="enable-background:new 0 0 64 64;" xml:space="preserve">
<style type="text/css">
	.st0{fill:#917CC4;}
	.st1{fill:#FFFFFF;}
	.st2{fill:#F8CD9A;}
</style>
<g>
	<g id="Mask_Group_58" transform="translate(-1255 -182)">
		<g id="meter_1_" transform="translate(1255 182)">
			<path id="Path_794" class="st0" d="M36,34.7c0,2.2-1.8,4-4,4s-4-1.8-4-4c0-1,4-10.7,4-10.7S36,33.7,36,34.7z"/>
			<path id="Path_795" class="st1" d="M49.3,17.4c3.5,4.1,5.4,9.3,5.3,14.6v2.7H44V44c0,0.7-0.6,1.3-1.3,1.3c0,0,0,0,0,0H21.3
				c-0.7,0-1.3-0.6-1.3-1.3v-9.4H9.3V32C9.3,19.5,19.5,9.3,32,9.3C38.7,9.3,45,12.3,49.3,17.4z M32,38.7c2.2,0,4-1.8,4-4
				c0-1-4-10.7-4-10.7s-4,9.7-4,10.7C28,36.9,29.8,38.7,32,38.7z"/>
			<path id="Path_796" class="st0" d="M44,44v-9.3h10.7V32C54.7,19.5,44.5,9.3,32,9.3C19.5,9.3,9.3,19.5,9.3,32v2.7H20V44
				c0,0.7,0.6,1.3,1.3,1.3c0,0,0,0,0,0h21.4C43.4,45.3,44,44.8,44,44L44,44z M32,1.3c16.9,0,30.7,13.7,30.7,30.7S48.9,62.7,32,62.7
				S1.3,48.9,1.3,32c0,0,0,0,0,0C1.3,15.1,15.1,1.3,32,1.3z"/>
			<g id="Group_592">
				<path id="Path_797" class="st2" d="M32,0C14.3,0,0,14.3,0,32s14.3,32,32,32s32-14.3,32-32S49.7,0,32,0z M32,61.3
					C15.8,61.3,2.7,48.2,2.7,32S15.8,2.7,32,2.7S61.3,15.8,61.3,32l0,0C61.3,48.2,48.2,61.3,32,61.3z"/>
				<path id="Path_798" class="st2" d="M50.3,16.5C41.8,6.4,26.6,5.1,16.5,13.7C11.1,18.2,8,24.9,8,32v2.7C8,35.4,8.6,36,9.3,36
					c0,0,0,0,0,0h9.3v8c0,1.4,1.1,2.6,2.6,2.7c0,0,0,0,0,0h5.4V44h-5.3v-9.3c0-0.7-0.6-1.3-1.3-1.3c0,0,0,0,0,0h-9.3V32
					c0-4.6,1.5-9,4.2-12.7l4.2,4.2l1.9-1.9l-4.4-4.4c3.7-3.9,8.7-6.2,14.1-6.6v6.6h2.7v-6.6c5.4,0.3,10.4,2.7,14.1,6.6l-4.4,4.3
					l1.9,1.9l4.2-4.2c2.7,3.7,4.1,8.1,4.1,12.6v1.3H44c-0.7,0-1.3,0.6-1.3,1.3l0,0V44h-5.3v2.7h5.3c1.4,0,2.6-1.1,2.7-2.6
					c0,0,0,0,0,0V36h9.3c0.7,0,1.3-0.6,1.3-1.3c0,0,0,0,0,0V32C56,26.3,54,20.9,50.3,16.5z"/>
				<path id="Path_799" class="st2" d="M37.3,34.7c0-0.8-1.4-4.6-4.1-11.2c-0.3-0.7-1.1-1-1.7-0.7c-0.3,0.1-0.6,0.4-0.7,0.7
					c-2.7,6.6-4.1,10.3-4.1,11.2c0,2.9,2.4,5.3,5.3,5.3S37.3,37.6,37.3,34.7L37.3,34.7L37.3,34.7z M29.3,34.8
					c0.1-0.6,1.3-3.8,2.7-7.2c1.4,3.4,2.6,6.6,2.7,7.1c0,1.5-1.1,2.7-2.6,2.7C30.6,37.4,29.4,36.3,29.3,34.8
					C29.3,34.8,29.3,34.8,29.3,34.8L29.3,34.8z"/>
				<path id="Path_800" class="st2" d="M33.3,44h-2.7v6.7h-5.3v2.7h13.3v-2.7h-5.3V44z"/>
				<path id="Path_801" class="st2" d="M53.3,38.7H56v2.7h-2.7V38.7z"/>
				<path id="Path_802" class="st2" d="M48,38.7h2.7v2.7H48V38.7z"/>
				<path id="Path_803" class="st2" d="M8,38.7h2.7v2.7H8V38.7z"/>
				<path id="Path_804" class="st2" d="M13.3,38.7H16v2.7h-2.7V38.7z"/>
			</g>
		</g>
	</g>
</g>
</svg>
