<?xml version="1.0" encoding="utf-8"?>
<!-- Generator: Adobe Illustrator 27.0.1, SVG Export Plug-In . SVG Version: 6.00 Build 0)  -->
<svg version="1.1" id="Layer_1" xmlns="http://www.w3.org/2000/svg" xmlns:xlink="http://www.w3.org/1999/xlink" x="0px" y="0px"
	 viewBox="0 0 64 64" style="enable-background:new 0 0 64 64;" xml:space="preserve">
<style type="text/css">
	.st0{fill:#917CC4;}
	.st1{fill:#FFFFFF;}
	.st2{fill:#F8CD9A;}
</style>
<g>
	<g id="Mask_Group_60" transform="translate(-1255 -176)">
		<g id="people" transform="translate(1255 176)">
			<path id="Path_816" class="st0" d="M46.7,64H1.3V52c0.2-2.7,1.7-5.2,4-6.7c3.3-2.2,18.7-8,18.7-8v-2.7c-4.7-1.7-8-8.1-8-13.3v-8
				c0-5.3,5.4-12,12-12h2.7c6.6,0,12,6.7,12,12v8c0,5.2-3.3,11.7-8,13.3v2.7c0,0,15.3,5.8,18.7,8c2.3,1.5,3.8,3.9,4,6.7v12H46.7z"/>
			<path id="Path_817" class="st1" d="M62.7,4v21.3c0,1.5-1.2,2.7-2.7,2.7H44l-5.3,5.3V28h-8c-1.5,0-2.7-1.2-2.7-2.7V4
				c0-1.5,1.2-2.7,2.7-2.7H60C61.5,1.3,62.7,2.5,62.7,4z"/>
			<g id="Group_594">
				<path id="Path_818" class="st2" d="M24.4,33.4c-4.2-1.5-7.1-7.6-7.1-12.1v-8c0-3.4,2.6-7.4,6-9.4L22,1.7
					c-4.2,2.4-7.3,7.3-7.3,11.7v8c0,5.2,3,11.9,8,14.2v0.9c-3.3,1.3-15.1,5.8-18.1,7.8C1.9,45.9,0.2,48.8,0,52v12h2.7V52
					c0.2-2.3,1.5-4.3,3.4-5.6c2.5-1.7,13.1-5.9,18.4-7.9c0.5-0.2,0.9-0.7,0.9-1.2v-2.7C25.3,34.1,25,33.6,24.4,33.4L24.4,33.4z"/>
				<path id="Path_819" class="st2" d="M54.1,44.2c-3-2-14.7-6.5-18.1-7.8v-1.7h-2.7v2.7c0,0.6,0.3,1.1,0.9,1.2
					c4.2,1.6,15.8,6.1,18.4,7.9c1.9,1.2,3.2,3.3,3.4,5.6v12h2.7V52C58.5,48.8,56.8,45.9,54.1,44.2L54.1,44.2z"/>
				<path id="Path_820" class="st2" d="M10.7,52h2.7v12h-2.7V52z"/>
				<path id="Path_821" class="st2" d="M45.3,52H48v12h-2.7V52z"/>
				<path id="Path_822" class="st2" d="M28,52h2.7v2.7H28V52z"/>
				<path id="Path_823" class="st2" d="M33.3,52H36v2.7h-2.7V52z"/>
				<path id="Path_824" class="st2" d="M22.7,52h2.7v2.7h-2.7V52z"/>
				<path id="Path_825" class="st2" d="M60,0H30.7c-2.2,0-4,1.8-4,4v21.3c0,2.2,1.8,4,4,4h6.7v4c0,0.7,0.6,1.3,1.3,1.3
					c0.4,0,0.7-0.1,0.9-0.4l4.9-4.9H60c2.2,0,4-1.8,4-4V4C64,1.8,62.2,0,60,0z M61.3,25.3c0,0.7-0.6,1.3-1.3,1.3c0,0,0,0,0,0H44
					c-0.4,0-0.7,0.1-0.9,0.4L40,30.1V28c0-0.7-0.6-1.3-1.3-1.3l0,0h-8c-0.7,0-1.3-0.6-1.3-1.3l0,0V4c0-0.7,0.6-1.3,1.3-1.3l0,0H60
					c0.7,0,1.3,0.6,1.3,1.3l0,0V25.3z"/>
				<path id="Path_826" class="st2" d="M32,5.3h2.7V8H32V5.3z"/>
				<path id="Path_827" class="st2" d="M56,21.3h2.7V24H56V21.3z"/>
				<path id="Path_828" class="st2" d="M51.1,7.1l-5.7,5.7l-5.7-5.7l-1.9,1.9l5.7,5.7l-5.7,5.7l1.9,1.9l5.7-5.7l5.7,5.7l1.9-1.9
					l-5.7-5.7l5.7-5.7L51.1,7.1z"/>
			</g>
		</g>
	</g>
</g>
</svg>
