<?xml version="1.0" encoding="utf-8"?>
<!-- Generator: Adobe Illustrator 27.0.1, SVG Export Plug-In . SVG Version: 6.00 Build 0)  -->
<svg version="1.1" id="Layer_1" xmlns="http://www.w3.org/2000/svg" xmlns:xlink="http://www.w3.org/1999/xlink" x="0px" y="0px"
	 viewBox="0 0 44 44" style="enable-background:new 0 0 44 44;" xml:space="preserve">
<style type="text/css">
	.st0{fill:#917CC4;}
	.st1{fill:#FFFFFF;}
	.st2{fill:#F8CD9A;}
</style>
<g>
	<g id="Mask_Group_88" transform="translate(-852 -176.246)">
		<g id="exam" transform="translate(853.383 176)">
			<path id="Path_1277" class="st0" d="M38.7,8.3h-5.5c-1,0-1.8-0.8-1.8-1.8V0.9L38.7,8.3z"/>
			<path id="Path_1278" class="st1" d="M38.7,8.3v33.2c0,1-0.8,1.8-1.8,1.8H7.4c-1,0-1.8-0.8-1.8-1.8V2.8c0-1,0.8-1.8,1.8-1.8h24
				v5.5c0,1,0.8,1.8,1.8,1.8H38.7z"/>
			<circle id="Ellipse_169" class="st0" cx="12" cy="12" r="11.1"/>
			<path id="Path_1279" class="st1" d="M36,26.7h4.6v3.7H36V26.7z"/>
			<path id="Path_1280" class="st0" d="M36,26.7v3.7H5.5l-2.8-1.8l2.8-1.8L36,26.7L36,26.7z"/>
			<g id="Group_991">
				<path id="Path_1281" class="st2" d="M37.8,41.5c0,0.5-0.4,0.9-0.9,0.9l0,0H7.4c-0.5,0-0.9-0.4-0.9-0.9l0,0v-7.4H4.6v7.4
					c0,1.5,1.2,2.8,2.8,2.8h29.5c1.5,0,2.8-1.2,2.8-2.8v-7.4h-1.8L37.8,41.5z"/>
				<path id="Path_1282" class="st2" d="M30.4,6.5c0,1.5,1.2,2.8,2.8,2.8H35V7.4h-1.8c-0.5,0-0.9-0.4-0.9-0.9c0,0,0,0,0,0V3.1
					l5.5,5.5v10.7h1.8V8.3c0-0.2-0.1-0.5-0.3-0.7L32,0.3C31.8,0.1,31.6,0,31.3,0h-5.5v1.8h4.6V6.5z"/>
				<path id="Path_1283" class="st2" d="M12,24c6.6,0,12-5.4,12-12h-1.8c0,5.6-4.5,10.1-10.1,10.1S1.8,17.6,1.8,12
					C1.8,6.4,6.4,1.8,12,1.8c0,0,0,0,0,0V0C5.4,0,0,5.4,0,12S5.4,24,12,24z"/>
				<path id="Path_1284" class="st2" d="M40.6,25.8h-1.8V23c0-0.5-0.4-0.9-0.9-0.9l0,0H24V24h12.9v1.8H5.5c-0.2,0-0.4,0.1-0.5,0.2
					l-2.8,1.8c-0.4,0.3-0.5,0.9-0.3,1.3c0.1,0.1,0.2,0.2,0.3,0.3L5,31.2c0.2,0.1,0.3,0.2,0.5,0.2h35c0.5,0,0.9-0.4,0.9-0.9v-3.7
					C41.5,26.2,41.1,25.8,40.6,25.8z M4.4,28.6l1.4-0.9H35v1.8H5.8L4.4,28.6z M39.6,29.5h-2.8v-1.8h2.8L39.6,29.5z"/>
				<path id="Path_1285" class="st2" d="M7.4,8.3v9.2h1.8v-4.6h5.5v4.6h1.8V8.3c0-1.5-1.2-2.8-2.8-2.8c0,0,0,0,0,0h-3.7
					C8.6,5.5,7.4,6.8,7.4,8.3C7.4,8.3,7.4,8.3,7.4,8.3z M14.7,8.3v2.8H9.2V8.3c0-0.5,0.4-0.9,0.9-0.9h3.7
					C14.3,7.4,14.7,7.8,14.7,8.3L14.7,8.3z"/>
				<path id="Path_1286" class="st2" d="M9.2,34.1h9.2V36H9.2V34.1z"/>
				<path id="Path_1287" class="st2" d="M9.2,37.8h1.8v1.8H9.2V37.8z"/>
				<path id="Path_1288" class="st2" d="M12.9,37.8h1.8v1.8h-1.8V37.8z"/>
				<path id="Path_1289" class="st2" d="M20.3,8.3h1.8V5.5h2.8V3.7h-2.8V0.9h-1.8v2.8h-2.8v1.8h2.8V8.3z"/>
			</g>
		</g>
	</g>
</g>
</svg>
