<?xml version="1.0" encoding="utf-8"?>
<!-- Generator: Adobe Illustrator 27.0.1, SVG Export Plug-In . SVG Version: 6.00 Build 0)  -->
<svg version="1.1" id="Layer_1" xmlns="http://www.w3.org/2000/svg" xmlns:xlink="http://www.w3.org/1999/xlink" x="0px" y="0px"
	 viewBox="0 0 48.1 64.1" style="enable-background:new 0 0 48.1 64.1;" xml:space="preserve">
<style type="text/css">
	.st0{display:none;fill:#FFFFFF;}
	.st1{fill:#917CC4;}
	.st2{fill:#FFFFFF;}
	.st3{fill:#F8CD9A;}
</style>
<g id="business-and-finance_4_" transform="translate(-64.047)">
	<path id="Path_1326" class="st0" d="M84.1,56.1h8v8h-8V56.1z"/>
	<path id="Path_1327" class="st1" d="M92.1,52.1v4h-8v-4H92.1z"/>
	<path id="Path_1328" class="st2" d="M101.5,37.4v5c-8,5.8-18.8,5.8-26.7,0v-5c0,0,0-2.7,4-4c2.3-0.7,4.5-1.6,6.7-2.7v-1.8
		c-3.2-1.1-5.3-4.2-5.3-7.6v-4c0-4.4,3.6-8,8-8c4.4,0,8,3.6,8,8c0,0,0,0,0,0v4c0,3.4-2.1,6.4-5.3,7.6v1.8c2.2,1,4.4,1.9,6.7,2.7
		C101.5,34.7,101.5,37.4,101.5,37.4L101.5,37.4z"/>
	<path id="Path_1329" class="st1" d="M88.1,1.3c12.5,0,22.7,10.2,22.7,22.7c0,7.3-3.5,14.1-9.4,18.4v-5c0,0,0-2.7-4-4
		c-2.3-0.7-4.5-1.6-6.7-2.7v-1.8c3.2-1.1,5.3-4.2,5.3-7.6v-4c0-4.4-3.6-8-8-8c-4.4,0-8,3.6-8,8v4c0,3.4,2.1,6.4,5.3,7.6v1.8
		c-2.2,1-4.4,1.9-6.7,2.7c-4,1.3-4,4-4,4v5c-10.1-7.4-12.4-21.6-5-31.7C74,4.8,80.8,1.3,88.1,1.3L88.1,1.3z"/>
	<g id="Group_1043" transform="translate(64.047)">
		<path id="Path_1330" class="st3" d="M24.1,0C10.8,0,0,10.8,0,24C0,31.7,3.7,39,9.9,43.5c3.7,2.7,8.2,4.3,12.8,4.6v2.7H20
			c-0.7,0-1.3,0.6-1.3,1.3v2.7H16v2.7h2.7v6.7h2.7v-6.7h5.3v6.7h2.7v-6.7h2.7v-2.7h-2.7v-2.7c0-0.7-0.6-1.3-1.3-1.3h-2.7v-2.7
			c4.6-0.2,9.1-1.8,12.8-4.6c10.7-7.8,13.1-22.9,5.3-33.6C39,3.7,31.7,0,24.1,0z M26.7,54.8h-5.3v-1.3h5.3L26.7,54.8z M12,37.5
			c0-0.1,0.1-1.8,3.1-2.8c2.3-0.8,4.6-1.7,6.9-2.7c0.5-0.2,0.7-0.7,0.7-1.2v-1.8c0-0.6-0.4-1.1-0.9-1.3c-2.7-0.9-4.4-3.5-4.5-6.3v-4
			c0-3.7,3-6.7,6.7-6.7c3.7,0,6.7,3,6.7,6.7c0,0,0,0,0,0v4c0,2.8-1.8,5.3-4.5,6.3c-0.5,0.2-0.9,0.7-0.9,1.3v1.8c0,0.5,0.3,1,0.7,1.2
			c2.2,1.1,4.5,2,6.9,2.7c3,1,3.1,2.7,3.1,2.7v4.3c-7.2,5-16.8,5-24.1,0L12,37.5L12,37.5z M38.8,39.6v-2.1c0-0.1-0.1-3.7-4.9-5.3
			c-2-0.7-3.9-1.4-5.8-2.3v-0.1c3.3-1.5,5.3-4.8,5.3-8.4v-4c-0.1-5.2-4.3-9.3-9.5-9.3c-5.1,0.1-9.2,4.2-9.3,9.3v4
			c0,3.6,2.1,6.9,5.3,8.4v0.1c-1.9,0.8-3.8,1.6-5.8,2.3c-4.9,1.6-4.9,5.1-4.9,5.3v2.2C0.8,31.4,0.4,17.9,8.5,9.3s21.7-8.9,30.2-0.8
			s8.9,21.7,0.8,30.2c0,0,0,0,0,0C39.3,39,39,39.3,38.8,39.6L38.8,39.6z"/>
		<path id="Path_1331" class="st3" d="M22.7,37.4h2.7v2.7h-2.7V37.4z"/>
		<path id="Path_1332" class="st3" d="M28.1,37.4h2.7v2.7h-2.7V37.4z"/>
		<path id="Path_1333" class="st3" d="M17.4,37.4H20v2.7h-2.7V37.4z"/>
	</g>
</g>
</svg>
