<?xml version="1.0" encoding="utf-8"?>
<!-- Generator: Adobe Illustrator 27.0.1, SVG Export Plug-In . SVG Version: 6.00 Build 0)  -->
<svg version="1.1" id="Layer_1" xmlns="http://www.w3.org/2000/svg" xmlns:xlink="http://www.w3.org/1999/xlink" x="0px" y="0px"
	 viewBox="0 0 64 64" style="enable-background:new 0 0 64 64;" xml:space="preserve">
<style type="text/css">
	.st0{display:none;fill:#FFFFFF;}
	.st1{fill:#917CC4;}
	.st2{fill:#FFFFFF;}
	.st3{fill:#F8CD9A;}
</style>
<path class="st0" d="M60,24v37.3c0,0.7-0.6,1.3-1.3,1.3H5.3c-0.7,0-1.3-0.6-1.3-1.3c0,0,0,0,0,0V20h56V24z M53.3,56V26.7H10.7V56
	H53.3z"/>
<path class="st1" d="M42.7,49.3h10.7V56H42.7V49.3z"/>
<path class="st2" d="M42.7,41.3h10.7v8H42.7V41.3z"/>
<path class="st1" d="M42.7,34.7h10.7v6.7H42.7V34.7z"/>
<path class="st2" d="M42.7,26.7h10.7v8H42.7V26.7z"/>
<path class="st1" d="M57.3,4H52V1.3h-8V4h-8V1.3h-8V4h-8V1.3h-8V4H6.7C3.7,4,1.3,6.4,1.3,9.3V20h61.3V9.3C62.7,6.4,60.3,4,57.3,4
	C57.3,4,57.3,4,57.3,4z M48,16H16v-5.3h32V16z"/>
<g>
	<path class="st2" d="M16,10.7h32V16H16V10.7z"/>
	<path class="st2" d="M32,49.3h10.7V56H32V49.3z"/>
</g>
<path class="st1" d="M32,41.3h10.7v8H32V41.3z"/>
<path class="st2" d="M32,34.7h10.7v6.7H32V34.7z"/>
<g>
	<path class="st1" d="M32,26.7h10.7v8H32V26.7z"/>
	<path class="st1" d="M21.3,49.3H32V56H21.3L21.3,49.3z"/>
</g>
<path class="st2" d="M21.3,41.3H32v8H21.3L21.3,41.3z"/>
<path class="st1" d="M21.3,34.7H32v6.7H21.3L21.3,34.7z"/>
<g>
	<path class="st2" d="M21.3,26.7H32v8H21.3L21.3,26.7z"/>
	<path class="st2" d="M10.7,49.3h10.7V56H10.7V49.3z"/>
</g>
<path class="st1" d="M10.7,41.3h10.7v8H10.7V41.3z"/>
<path class="st2" d="M10.7,34.7h10.7v6.7H10.7V34.7z"/>
<path class="st1" d="M10.7,26.7h10.7v8H10.7V26.7z"/>
<g>
	<path class="st3" d="M58.7,61.3H5.3V24H2.7v37.3c0,1.5,1.2,2.7,2.7,2.7h53.3c1.5,0,2.7-1.2,2.7-2.7l0,0V24h-2.7V61.3z"/>
	<path class="st3" d="M53.3,57.3c0.7,0,1.3-0.6,1.3-1.3c0,0,0,0,0,0V26.7c0-0.7-0.6-1.3-1.3-1.3H10.7c-0.7,0-1.3,0.6-1.3,1.3
		c0,0,0,0,0,0V56c0,0.7,0.6,1.3,1.3,1.3c0,0,0,0,0,0H53.3z M12,50.7h8v4h-8V50.7z M30.7,50.7v4h-8v-4H30.7z M22.7,48v-5.3h8V48
		L22.7,48z M33.3,50.7h8v4h-8V50.7z M33.3,48v-5.3h8V48L33.3,48z M44,42.7h8V48h-8V42.7z M44,40v-4h8v4H44z M41.3,40h-8v-4h8V40z
		 M33.3,33.3V28h8v5.3H33.3z M30.7,33.3h-8V28h8L30.7,33.3z M30.7,36v4h-8v-4H30.7z M20,40h-8v-4h8V40z M20,42.7V48h-8v-5.3H20z
		 M44,54.7v-4h8v4H44z M52,33.3h-8V28h8V33.3z M20,28v5.3h-8V28H20z"/>
	<path class="st3" d="M57.3,2.7h-4V1.3C53.3,0.6,52.7,0,52,0c0,0,0,0,0,0h-8c-0.7,0-1.3,0.6-1.3,1.3c0,0,0,0,0,0v1.3h-5.3V1.3
		C37.3,0.6,36.7,0,36,0c0,0,0,0,0,0h-8c-0.7,0-1.3,0.6-1.3,1.3c0,0,0,0,0,0v1.3h-5.3V1.3C21.3,0.6,20.7,0,20,0c0,0,0,0,0,0h-8
		c-0.7,0-1.3,0.6-1.3,1.3c0,0,0,0,0,0v1.3h-4C3,2.7,0,5.7,0,9.3V20c0,0.7,0.6,1.3,1.3,1.3c0,0,0,0,0,0h61.3c0.7,0,1.3-0.6,1.3-1.3
		l0,0V9.3C64,5.7,61,2.7,57.3,2.7z M61.3,18.7H2.7V9.3c0-2.2,1.8-4,4-4h4v1.3h2.7v-4h5.3v4h2.7V5.3h5.3v1.3h2.7v-4h5.3v4h2.7V5.3
		h5.3v1.3h2.7v-4h5.3v4h2.7V5.3h4c2.2,0,4,1.8,4,4L61.3,18.7L61.3,18.7z"/>
	<path class="st3" d="M16,9.3h-4V12h2.7v4h2.7v-4h29.3v4h2.7v-4H52V9.3H16z"/>
	<path class="st3" d="M54.7,13.3h2.7V16h-2.7V13.3z"/>
	<path class="st3" d="M6.7,13.3h2.7V16H6.7V13.3z"/>
</g>
</svg>
