<?xml version="1.0" encoding="utf-8"?>
<!-- Generator: Adobe Illustrator 27.0.1, SVG Export Plug-In . SVG Version: 6.00 Build 0)  -->
<svg version="1.1" id="clock" xmlns="http://www.w3.org/2000/svg" xmlns:xlink="http://www.w3.org/1999/xlink" x="0px" y="0px"
	 viewBox="0 0 44 44" style="enable-background:new 0 0 44 44;" xml:space="preserve">
<style type="text/css">
	.st0{fill:#917CC4;}
	.st1{fill:#FFFFFF;}
	.st2{fill:#F8CD9A;}
</style>
<circle id="Ellipse_170" class="st0" cx="21.8" cy="21.8" r="16.4"/>
<path id="Path_1290" class="st1" d="M22,1c11.6,0,21,9.4,21,21s-9.4,21-21,21S1,33.6,1,22S10.4,1,22,1L22,1z M38.5,22
	c0-9.1-7.4-16.5-16.5-16.5S5.5,12.9,5.5,22S12.9,38.5,22,38.5l0,0C31.1,38.5,38.5,31.1,38.5,22C38.5,22,38.5,22,38.5,22z"/>
<g id="Group_992">
	<path id="Path_1291" class="st2" d="M22,0C9.8,0,0,9.8,0,22s9.8,22,22,22s22-9.8,22-22S34.2,0,22,0z M22,42.2
		c-11.1,0-20.2-9-20.2-20.2S10.9,1.8,22,1.8s20.2,9,20.2,20.2l0,0C42.2,33.1,33.1,42.2,22,42.2z"/>
	<path id="Path_1292" class="st2" d="M22,4.8C12.5,4.8,4.8,12.5,4.8,22S12.5,39.2,22,39.2c9.5,0,17.2-7.7,17.2-17.2
		C39.2,12.5,31.5,4.8,22,4.8C22,4.8,22,4.8,22,4.8z M37.3,22.9c-0.2,3.2-1.4,6.3-3.4,8.8l-2.2-2.2l-1.3,1.3l2.3,2.3
		c-2.6,2.6-6.1,4.1-9.8,4.3v-3.6h-1.8v3.6c-3.7-0.2-7.1-1.7-9.8-4.3l2.3-2.3l-1.3-1.3l-2.2,2.2c-2-2.5-3.2-5.6-3.4-8.8h3.6v-1.8H6.7
		c0.2-3.2,1.4-6.3,3.4-8.8l2.2,2.2l1.3-1.3L11.3,11c2.6-2.6,6.1-4.1,9.8-4.3v3.6h1.8V6.7c3.7,0.2,7.1,1.7,9.8,4.3l-2.3,2.3l1.3,1.3
		l2.2-2.2c2,2.5,3.2,5.6,3.4,8.8h-3.6v1.8L37.3,22.9z"/>
	<path id="Path_1293" class="st2" d="M22.8,13.4h-1.9v8.6c0,0.3,0.1,0.5,0.3,0.7l5.8,5.8l1.4-1.4l-5.5-5.5L22.8,13.4z"/>
</g>
</svg>
