<?xml version="1.0" encoding="utf-8"?>
<!-- Generator: Adobe Illustrator 27.0.1, SVG Export Plug-In . SVG Version: 6.00 Build 0)  -->
<svg version="1.1" id="Layer_1" xmlns="http://www.w3.org/2000/svg" xmlns:xlink="http://www.w3.org/1999/xlink" x="0px" y="0px"
	 viewBox="0 0 64 64" style="enable-background:new 0 0 64 64;" xml:space="preserve">
<style type="text/css">
	.st0{fill:#917CC4;}
	.st1{fill:#FFFFFF;}
	.st2{fill:#F8CD9A;}
</style>
<g>
	<g id="Mask_Group_33" transform="translate(-1653 -176)">
		<g id="business-and-finance_1_" transform="translate(1653 176)">
			<path id="Path_425" class="st0" d="M56,12h-8c-1.5,0-2.7-1.2-2.7-2.7v-8L56,12z"/>
			<g id="Group_502">
				<path id="Path_426" class="st1" d="M56,12h-8c-1.5,0-2.7-1.2-2.7-2.7v-8H10.7C9.2,1.3,8,2.5,8,4v24h48V12z"/>
				<circle id="Ellipse_69" class="st1" cx="32" cy="45.3" r="12"/>
			</g>
			<g id="Group_503">
				<path id="Path_427" class="st0" d="M57.3,40v10.7c-3.7,0-6.7,3-6.7,6.7H32c6.6,0,12-5.4,12-12s-5.4-12-12-12h18.7
					C50.7,37,53.7,40,57.3,40z"/>
				<path id="Path_428" class="st0" d="M20,33.3h12c-6.6,0-12,5.4-12,12s5.4,12,12,12H13.3c0-3.7-3-6.7-6.7-6.7V40
					c3.7,0,6.7-3,6.7-6.7H20z"/>
			</g>
			<path id="Path_429" class="st1" d="M1.3,60V30.7C1.3,29.2,2.5,28,4,28h56c1.5,0,2.7,1.2,2.7,2.7V60c0,1.5-1.2,2.7-2.7,2.7H4
				C2.5,62.7,1.3,61.5,1.3,60z M57.3,50.7V40c-3.7,0-6.7-3-6.7-6.7H13.3c0,3.7-3,6.7-6.7,6.7v10.7c3.7,0,6.7,3,6.7,6.7h37.3
				C50.7,53.7,53.7,50.7,57.3,50.7C57.3,50.7,57.3,50.7,57.3,50.7z"/>
			<g id="Group_504">
				<path id="Path_430" class="st2" d="M60,26.7h-9.3v2.7H60c0.7,0,1.3,0.6,1.3,1.3l0,0V60c0,0.7-0.6,1.3-1.3,1.3l0,0H4
					c-0.7,0-1.3-0.6-1.3-1.3l0,0V30.7c0-0.7,0.6-1.3,1.3-1.3c0,0,0,0,0,0h12v-2.7H4c-2.2,0-4,1.8-4,4V60c0,2.2,1.8,4,4,4h56
					c2.2,0,4-1.8,4-4V30.7C64,28.5,62.2,26.7,60,26.7z"/>
				<path id="Path_431" class="st2" d="M12,57.3c0,0.7,0.6,1.3,1.3,1.3c0,0,0,0,0,0H20V56h-5.4c-0.6-3.4-3.2-6-6.6-6.6v-8.2
					c3.4-0.6,6-3.2,6.6-6.6h2.8c0.4,0,0.7-0.1,0.9-0.4l7.6-7.6H40c0.4,0,0.7-0.1,0.9-0.4l4.4-4.4v4.8H48v-8c0-0.7-0.6-1.3-1.3-1.3
					l0,0h-8V20h4.8l-4,4H25.3c-0.4,0-0.7,0.1-0.9,0.4L16.8,32h-3.4c-0.7,0-1.3,0.6-1.3,1.3l0,0c0,2.9-2.4,5.3-5.3,5.3
					c-0.7,0-1.3,0.6-1.3,1.3c0,0,0,0,0,0v10.7c0,0.7,0.6,1.3,1.3,1.3c0,0,0,0,0,0C9.6,52,12,54.4,12,57.3z"/>
				<path id="Path_432" class="st2" d="M52,33.3c0-0.7-0.6-1.3-1.3-1.3l0,0H44v2.7h5.4c0.6,3.4,3.2,6,6.6,6.6v8.2
					c-3.4,0.6-6,3.2-6.6,6.6H44v2.7h6.7c0.7,0,1.3-0.6,1.3-1.3c0,0,0,0,0,0c0-2.9,2.4-5.3,5.3-5.3c0.7,0,1.3-0.6,1.3-1.3l0,0V40
					c0-0.7-0.6-1.3-1.3-1.3l0,0C54.4,38.7,52,36.3,52,33.3C52,33.3,52,33.3,52,33.3z"/>
				<path id="Path_433" class="st2" d="M5.3,32H8v2.7H5.3V32z"/>
				<path id="Path_434" class="st2" d="M56,32h2.7v2.7H56V32z"/>
				<path id="Path_435" class="st2" d="M56,56h2.7v2.7H56V56z"/>
				<path id="Path_436" class="st2" d="M5.3,56H8v2.7H5.3V56z"/>
				<path id="Path_437" class="st2" d="M32,58.7c7.4,0,13.3-6,13.3-13.3S39.4,32,32,32c-7.4,0-13.3,6-13.3,13.3
					C18.7,52.7,24.6,58.7,32,58.7C32,58.7,32,58.7,32,58.7z M32,34.7c5.9,0,10.7,4.8,10.7,10.7S37.9,56,32,56s-10.7-4.8-10.7-10.7
					c0,0,0,0,0,0C21.3,39.4,26.1,34.7,32,34.7z"/>
				<path id="Path_438" class="st2" d="M9.3,4c0-0.7,0.6-1.3,1.3-1.3l0,0H44v6.7c0,2.2,1.8,4,4,4h2.7v-2.7H48
					c-0.7,0-1.3-0.6-1.3-1.3c0,0,0,0,0,0V4.6l8,8V24h2.7V12c0-0.4-0.1-0.7-0.4-0.9L46.3,0.4C46,0.1,45.7,0,45.3,0H10.7
					c-2.2,0-4,1.8-4,4v20h2.7V4z"/>
				<path id="Path_439" class="st2" d="M13.3,6.7h13.3v2.7H13.3V6.7z"/>
				<path id="Path_440" class="st2" d="M13.3,12H16v2.7h-2.7V12z"/>
				<path id="Path_441" class="st2" d="M18.7,12h2.7v2.7h-2.7V12z"/>
			</g>
		</g>
	</g>
</g>
</svg>
