<?xml version="1.0" encoding="utf-8"?>
<!-- Generator: Adobe Illustrator 27.0.1, SVG Export Plug-In . SVG Version: 6.00 Build 0)  -->
<svg version="1.1" id="Layer_1" xmlns="http://www.w3.org/2000/svg" xmlns:xlink="http://www.w3.org/1999/xlink" x="0px" y="0px"
	 viewBox="0 0 58.7 64" style="enable-background:new 0 0 58.7 64;" xml:space="preserve">
<style type="text/css">
	.st0{fill:#917CC4;}
	.st1{fill:#FFFFFF;}
	.st2{fill:#F8CD9A;}
</style>
<path class="st0" d="M49.3,12h-8c-1.5,0-2.7-1.2-2.7-2.7v-8L49.3,12z"/>
<path class="st1" d="M49.3,12v48c0,1.5-1.2,2.7-2.7,2.7H4c-1.5,0-2.7-1.2-2.7-2.7V4c0-1.5,1.2-2.7,2.7-2.7h34.7v8
	c0,1.5,1.2,2.7,2.7,2.7H49.3z"/>
<g>
	<path class="st0" d="M10.7,48H16c0.7,0,1.3,0.6,1.3,1.3c0,0,0,0,0,0v5.3c0,0.7-0.6,1.3-1.3,1.3c0,0,0,0,0,0h-5.3
		c-0.7,0-1.3-0.6-1.3-1.3v-5.3C9.3,48.6,9.9,48,10.7,48z"/>
	<path class="st0" d="M10.7,34.7H16c0.7,0,1.3,0.6,1.3,1.3c0,0,0,0,0,0v5.3c0,0.7-0.6,1.3-1.3,1.3h0h-5.3c-0.7,0-1.3-0.6-1.3-1.3
		l0,0V36C9.3,35.3,9.9,34.7,10.7,34.7C10.7,34.7,10.7,34.7,10.7,34.7L10.7,34.7z"/>
	<path class="st0" d="M10.7,21.3H16c0.7,0,1.3,0.6,1.3,1.3c0,0,0,0,0,0V28c0,0.7-0.6,1.3-1.3,1.3h-5.3c-0.7,0-1.3-0.6-1.3-1.3
		c0,0,0,0,0,0v-5.3C9.3,21.9,9.9,21.3,10.7,21.3z"/>
</g>
<path class="st1" d="M33.3,54.7h5.3v8h-5.3V54.7z"/>
<g>
	<path class="st0" d="M38.7,25.3v29.3h-5.3V25.3l2.7-4L38.7,25.3z"/>
	<path class="st0" d="M45.3,17.3H56c0.7,0,1.3,0.6,1.3,1.3c0,0,0,0,0,0v42.7c0,0.7-0.6,1.3-1.3,1.3c0,0,0,0,0,0H45.3
		c-0.7,0-1.3-0.6-1.3-1.3l0,0V18.7C44,17.9,44.6,17.3,45.3,17.3L45.3,17.3L45.3,17.3z"/>
</g>
<g>
	<path class="st2" d="M37.1,20.6c-0.5-0.6-1.3-0.7-1.9-0.3c-0.1,0.1-0.2,0.2-0.3,0.3l-2.7,4c-0.1,0.2-0.2,0.5-0.2,0.7v37.3
		c0,0.7,0.6,1.3,1.3,1.3l0,0h5.3c0.7,0,1.3-0.6,1.3-1.3l0,0V25.3c0-0.3-0.1-0.5-0.2-0.7L37.1,20.6z M36,23.7l1.3,2v27.6h-2.7V25.7
		L36,23.7z M34.7,61.3V56h2.7v5.3H34.7z"/>
	<path class="st2" d="M56,16H45.3c-1.5,0-2.7,1.2-2.7,2.7v42.7c0,1.5,1.2,2.7,2.7,2.7c0,0,0,0,0,0H56c1.5,0,2.7-1.2,2.7-2.7
		c0,0,0,0,0,0V18.7C58.7,17.2,57.5,16,56,16C56,16,56,16,56,16z M56,61.3H45.3v-4H52v-2.7h-6.7v-5.3h4v-2.7h-4v-5.3H52v-2.7h-6.7
		v-5.3h4v-2.7h-4v-5.3H52v-2.7h-6.7v-4H56V61.3z"/>
	<path class="st2" d="M18.7,22.7c0-1.5-1.2-2.7-2.7-2.7l0,0h-5.3C9.2,20,8,21.2,8,22.7l0,0V28c0,1.5,1.2,2.7,2.7,2.7l0,0H16
		c1.5,0,2.7-1.2,2.7-2.7c0,0,0,0,0,0V22.7z M16,28h-5.3v-5.3H16V28z"/>
	<path class="st2" d="M18.7,36c0-1.5-1.2-2.7-2.7-2.7h-5.3C9.2,33.3,8,34.5,8,36v5.3c0,1.5,1.2,2.7,2.7,2.7c0,0,0,0,0,0H16
		c1.5,0,2.7-1.2,2.7-2.7c0,0,0,0,0,0V36z M16,41.3h-5.3V36H16V41.3z"/>
	<path class="st2" d="M16,46.7h-5.3c-1.5,0-2.7,1.2-2.7,2.7c0,0,0,0,0,0v5.3c0,1.5,1.2,2.7,2.7,2.7c0,0,0,0,0,0H16
		c1.5,0,2.7-1.2,2.7-2.7c0,0,0,0,0,0v-5.3C18.7,47.9,17.5,46.7,16,46.7C16,46.7,16,46.7,16,46.7z M16,54.7h-5.3v-5.3H16L16,54.7z"/>
	<path class="st2" d="M8,8h13.3v2.7H8V8z"/>
	<path class="st2" d="M8,13.3h2.7V16H8V13.3z"/>
	<path class="st2" d="M13.3,13.3H16V16h-2.7V13.3z"/>
	<path class="st2" d="M44,10.7h-2.7c-0.7,0-1.3-0.6-1.3-1.3c0,0,0,0,0,0V4.6l8,8v0.8h2.7V12c0-0.4-0.1-0.7-0.4-0.9L39.6,0.4
		C39.4,0.1,39,0,38.7,0H4C1.8,0,0,1.8,0,4v56c0,2.2,1.8,4,4,4h24v-2.7H4c-0.7,0-1.3-0.6-1.3-1.3V4c0-0.7,0.6-1.3,1.3-1.3l0,0h33.3
		v6.7c0,2.2,1.8,4,4,4H44V10.7z"/>
	<path class="st2" d="M22.7,21.3H28V24h-5.3L22.7,21.3z"/>
	<path class="st2" d="M22.7,26.7h6.7v2.7h-6.7V26.7z"/>
	<path class="st2" d="M22.7,34.7H28v2.7h-5.3L22.7,34.7z"/>
	<path class="st2" d="M22.7,40h6.7v2.7h-6.7V40z"/>
	<path class="st2" d="M22.7,48H28v2.7h-5.3L22.7,48z"/>
	<path class="st2" d="M22.7,53.3h6.7V56h-6.7V53.3z"/>
</g>
</svg>
