<?xml version="1.0" encoding="utf-8"?>
<!-- Generator: Adobe Illustrator 27.0.1, SVG Export Plug-In . SVG Version: 6.00 Build 0)  -->
<svg version="1.1" id="Layer_1" xmlns="http://www.w3.org/2000/svg" xmlns:xlink="http://www.w3.org/1999/xlink" x="0px" y="0px"
	 viewBox="0 0 64 64" style="enable-background:new 0 0 64 64;" xml:space="preserve">
<style type="text/css">
	.st0{fill:#FFFFFF;}
	.st1{fill:#917CC4;}
	.st2{fill:#F8CD9A;}
</style>
<g>
	<g id="Mask_Group_31" transform="translate(-852 -176)">
		<g id="meter" transform="translate(852 176)">
			<g id="Group_498">
				<path id="Path_401" class="st0" d="M32,36h17.3v9.3H14.7V36H32z"/>
				<path id="Path_402" class="st0" d="M32,36H10.7v-4c0-11.8,9.6-21.3,21.3-21.3S53.3,20.2,53.3,32v4H32z"/>
			</g>
			<path id="Path_403" class="st1" d="M32,1.3c16.9,0,30.7,13.7,30.7,30.7S48.9,62.7,32,62.7S1.3,48.9,1.3,32c0,0,0,0,0,0
				C1.3,15.1,15.1,1.3,32,1.3z M53.3,36v-4c0-11.8-9.6-21.3-21.3-21.3S10.7,20.2,10.7,32v4h4v9.3h34.7V36H53.3z"/>
			<g id="Group_499">
				<path id="Path_404" class="st2" d="M32,0C14.3,0,0,14.3,0,32s14.3,32,32,32s32-14.3,32-32S49.7,0,32,0z M32,61.3
					C15.8,61.3,2.7,48.2,2.7,32S15.8,2.7,32,2.7S61.3,15.8,61.3,32l0,0C61.3,48.2,48.2,61.3,32,61.3z"/>
				<path id="Path_405" class="st2" d="M32,9.3C19.5,9.3,9.3,19.5,9.3,32v4c0,0.7,0.6,1.3,1.3,1.3c0,0,0,0,0,0h16v-2.7H12V32
					c0-11,9-20,20-20s20,9,20,20v2.7H37.3v2.7h16c0.7,0,1.3-0.6,1.3-1.3c0,0,0,0,0,0v-4C54.7,19.5,44.5,9.3,32,9.3z"/>
				<path id="Path_406" class="st2" d="M48,44H16v-4h-2.7v5.3c0,0.7,0.6,1.3,1.3,1.3c0,0,0,0,0,0h34.7c0.7,0,1.3-0.6,1.3-1.3l0,0V40
					H48V44z"/>
				<path id="Path_407" class="st2" d="M16,49.3h2.7V52H16V49.3z"/>
				<path id="Path_408" class="st2" d="M21.3,49.3H24V52h-2.7V49.3z"/>
				<path id="Path_409" class="st2" d="M29.3,49.3H48V52H29.3V49.3z"/>
				<path id="Path_410" class="st2" d="M33.3,37.3V28c0-0.4-0.1-0.7-0.4-0.9l-8-8l-1.9,1.9l7.6,7.6v8.8L33.3,37.3z"/>
			</g>
		</g>
	</g>
</g>
</svg>
