<?xml version="1.0" encoding="utf-8"?>
<!-- Generator: Adobe Illustrator 27.0.1, SVG Export Plug-In . SVG Version: 6.00 Build 0)  -->
<svg version="1.1" id="Layer_1" xmlns="http://www.w3.org/2000/svg" xmlns:xlink="http://www.w3.org/1999/xlink" x="0px" y="0px"
	 viewBox="0 0 67.6 64.8" style="enable-background:new 0 0 67.6 64.8;" xml:space="preserve">
<style type="text/css">
	.st0{display:none;}
	.st1{display:inline;fill:#FFFFFF;}
	.st2{fill:#917CC4;}
	.st3{fill:#FFFFFF;}
	.st4{fill:#F8CD9A;}
</style>
<g id="pay" transform="translate(0 -10.66)">
	<g id="Group_534" transform="translate(8.455 27.806)" class="st0">
		<circle id="Ellipse_78" class="st1" cx="46.4" cy="3.8" r="4"/>
		<circle id="Ellipse_79" class="st1" cx="38.4" cy="3.8" r="4"/>
		<path id="Path_559" class="st1" d="M0,1.2h8.5v5.6H0V1.2z"/>
		<path id="Path_560" class="st1" d="M0,16.7h50.7v5.6H0V16.7z"/>
	</g>
	<path id="Path_561" class="st2" d="M50.7,31.8c0,2.3,1.9,4.2,4.2,4.2c2.3,0,4.2-1.9,4.2-4.2c0-2.3-1.9-4.2-4.2-4.2c0,0,0,0,0,0
		C52.6,27.6,50.7,29.5,50.7,31.8c0-2.3-1.9-4.2-4.2-4.2s-4.2,1.9-4.2,4.2c0,2.3,1.9,4.2,4.2,4.2l0,0C48.8,36,50.7,34.1,50.7,31.8z
		 M66.2,24.8v39.5c0,1.6-1.3,2.8-2.8,2.8H4.2c-1.6,0-2.8-1.3-2.8-2.8V24.8c0-1.6,1.3-2.8,2.8-2.8h59.2C65,21.9,66.2,23.2,66.2,24.8z
		 M59.2,50.1v-5.6H8.5v5.6H59.2z M16.9,34.6V29H8.5v5.6H16.9z"/>
	<circle id="Ellipse_80" class="st3" cx="24" cy="27.6" r="15.5"/>
	<g id="Group_535" transform="translate(0 10.66)">
		<path id="Path_562" class="st4" d="M62,55.8v-6.5c0.1-2.3-1.7-4.2-4-4.2H43.7v2.8h14.1c0.7-0.1,1.3,0.4,1.4,1.2c0,0.1,0,0.2,0,0.3
			v6.5L56,52.5l-2,2l5.6,5.6c0.6,0.6,1.4,0.6,2,0c0,0,0,0,0,0l5.6-5.6l-2-2L62,55.8z"/>
		<path id="Path_563" class="st4" d="M40.9,60.6v-6.5l3.2,3.2l2-2l-5.6-5.6c-0.6-0.6-1.4-0.6-2,0c0,0,0,0,0,0l-5.6,5.6l2,2l3.2-3.2
			v6.5c-0.1,2.3,1.7,4.2,4,4.2h14.3V62H42.3c-0.7,0.1-1.3-0.4-1.4-1.2C40.9,60.8,40.9,60.7,40.9,60.6z"/>
		<path id="Path_564" class="st4" d="M2.8,53.5V14.1c0-0.8,0.6-1.4,1.4-1.4V9.9C1.9,9.9,0,11.8,0,14.1v39.5c0,2.3,1.9,4.2,4.2,4.2
			c0,0,0,0,0,0h25.4V55H4.2C3.4,55,2.8,54.3,2.8,53.5C2.8,53.5,2.8,53.5,2.8,53.5L2.8,53.5z"/>
		<path id="Path_565" class="st4" d="M63.4,9.9H43.7v2.8h19.7c0.8,0,1.4,0.6,1.4,1.4v35.2h2.8V14.1C67.6,11.8,65.7,9.9,63.4,9.9z"/>
		<path id="Path_566" class="st4" d="M46.5,24v2.8c1.6,0,3.2-0.7,4.2-1.9c2,2.4,5.6,2.6,7.9,0.6c2.4-2,2.6-5.6,0.6-7.9
			c-2-2.4-5.6-2.6-7.9-0.6c-0.2,0.2-0.4,0.4-0.6,0.6c-1.1-1.2-2.6-1.9-4.2-1.9v2.8c1.6,0,2.8,1.3,2.8,2.8S48.1,24,46.5,24L46.5,24z
			 M55,18.3c1.6,0,2.8,1.3,2.8,2.8c0,1.6-1.3,2.8-2.8,2.8c-1.6,0-2.8-1.3-2.8-2.8v0C52.1,19.6,53.4,18.3,55,18.3z"/>
		<path id="Path_567" class="st4" d="M8.5,40.9h50.7c0.8,0,1.4-0.6,1.4-1.4v-5.6c0-0.8-0.6-1.4-1.4-1.4h-24v2.8h22.5V38H9.9v-2.8
			h2.8v-2.8H8.5C7.7,32.4,7,33,7,33.8v5.6C7,40.2,7.7,40.9,8.5,40.9C8.5,40.9,8.5,40.9,8.5,40.9z"/>
		<path id="Path_568" class="st4" d="M7,45.1h2.8v2.8H7V45.1z"/>
		<path id="Path_569" class="st4" d="M12.7,45.1h2.8v2.8h-2.8V45.1z"/>
		<path id="Path_570" class="st4" d="M18.3,45.1h16.9v2.8H18.3V45.1z"/>
		<path id="Path_571" class="st4" d="M24,33.8c9.3,0,16.9-7.6,16.9-16.9S33.3,0,24,0C14.6,0,7,7.6,7,16.9C7,26.2,14.6,33.8,24,33.8
			C24,33.8,24,33.8,24,33.8z M24,2.8C31.7,2.8,38,9.1,38,16.9S31.7,31,24,31S9.9,24.7,9.9,16.9c0,0,0,0,0,0C9.9,9.1,16.2,2.8,24,2.8
			L24,2.8z"/>
		<path id="Path_572" class="st4" d="M21.1,24h1.4v2.8h2.8V24h1.4c1.6,0,2.8-1.3,2.8-2.8v-2.8c0-1.6-1.3-2.8-2.8-2.8h-5.6v-2.8h5.6
			v1.4h2.8v-1.4c0-1.6-1.3-2.8-2.8-2.8h-1.4V7h-2.8v2.8h-1.4c-1.6,0-2.8,1.3-2.8,2.8v2.8c0,1.6,1.3,2.8,2.8,2.8h5.6v2.8h-5.6v-1.4
			h-2.8v1.4C18.3,22.7,19.6,24,21.1,24z"/>
	</g>
</g>
</svg>
