<?xml version="1.0" encoding="utf-8"?>
<!-- Generator: Adobe Illustrator 27.0.1, SVG Export Plug-In . SVG Version: 6.00 Build 0)  -->
<svg version="1.1" id="Layer_1" xmlns="http://www.w3.org/2000/svg" xmlns:xlink="http://www.w3.org/1999/xlink" x="0px" y="0px"
	 viewBox="0 0 64 64" style="enable-background:new 0 0 64 64;" xml:space="preserve">
<style type="text/css">
	.st0{display:none;fill:#FFFFFF;}
	.st1{fill:#917CC4;}
	.st2{fill:#F8CD9A;}
</style>
<path class="st0" d="M62.7,12v45.3c0,2.9-2.4,5.3-5.3,5.3H6.7c-2.9,0-5.3-2.4-5.3-5.3V12H62.7z"/>
<g>
	<path class="st1" d="M62.7,6.7V12H1.3V6.7c0-2.9,2.4-5.3,5.3-5.3c0,0,0,0,0,0h50.7C60.3,1.3,62.7,3.7,62.7,6.7
		C62.7,6.7,62.7,6.7,62.7,6.7z"/>
	<circle class="st1" cx="32" cy="37.3" r="17.3"/>
	<path class="st2" d="M38,32.2L36.8,31L32,35.8L27.2,31L26,32.2l4.8,4.8L26,41.8l1.2,1.2l4.8-4.8l4.8,4.8l1.2-1.2L33.2,37L38,32.2z"
		/>
</g>
<g>
	<path class="st2" d="M57.3,0H6.7C3,0,0,3,0,6.7v50.7C0,61,3,64,6.7,64h50.7c3.7,0,6.7-3,6.7-6.7V6.7C64,3,61,0,57.3,0z M61.3,57.3
		c0,2.2-1.8,4-4,4H6.7c-2.2,0-4-1.8-4-4V6.7c0-2.2,1.8-4,4-4h50.7c2.2,0,4,1.8,4,4V57.3z"/>
	<path class="st2" d="M5.3,10.7h53.3v2.7H5.3V10.7z"/>
	<path class="st2" d="M6.7,5.3h2.7V8H6.7V5.3z"/>
	<path class="st2" d="M12,5.3h2.7V8H12V5.3z"/>
	<path class="st2" d="M54.7,5.3h2.7V8h-2.7V5.3z"/>
	<path class="st2" d="M32,18.7c-10.3,0-18.7,8.4-18.7,18.7S21.7,56,32,56s18.7-8.4,18.7-18.7c0,0,0,0,0,0C50.7,27,42.3,18.7,32,18.7
		z M32,53.3c-8.8,0-16-7.2-16-16s7.2-16,16-16s16,7.2,16,16C48,46.2,40.8,53.3,32,53.3L32,53.3z"/>
</g>
</svg>
