<?xml version="1.0" encoding="utf-8"?>
<!-- Generator: Adobe Illustrator 27.0.1, SVG Export Plug-In . SVG Version: 6.00 Build 0)  -->
<svg version="1.1" id="Layer_1" xmlns:svgjs="http://svgjs.com/svgjs"
	 xmlns="http://www.w3.org/2000/svg" xmlns:xlink="http://www.w3.org/1999/xlink" x="0px" y="0px" viewBox="0 0 512 512"
	 style="enable-background:new 0 0 512 512;" xml:space="preserve">
<style type="text/css">
	.st0{display:none;}
	.st1{display:inline;fill:#FFFFFF;}
	.st2{fill:#917CC4;}
	.st3{fill:#FFFFFF;}
	.st4{fill:#F8CD9A;}
</style>
<g>
	<g class="st0">
		<path class="st1" d="M320,181.3v32h-42.7v-32c0-5.9,4.8-10.7,10.7-10.7h21.3C315.2,170.7,320,175.4,320,181.3z"/>
		<path class="st1" d="M106.7,181.3v32H64v-32c0-5.9,4.8-10.7,10.7-10.7H96C101.9,170.7,106.7,175.4,106.7,181.3z"/>
		<path class="st1" d="M437.3,117.3v384h-42.7L373.3,480V117.3h32H437.3z"/>
	</g>
	<g>
		<path class="st2" d="M85.3,170.7H74.7c-5.9,0-10.7,4.8-10.7,10.7v32h42.7v-32c0-5.9-4.8-10.7-10.7-10.7L85.3,170.7L85.3,170.7z
			 M298.7,170.7H288c-5.9,0-10.7,4.8-10.7,10.7v32H320v-32c0-5.9-4.8-10.7-10.7-10.7L298.7,170.7L298.7,170.7z M298.7,117.3h74.7
			V480L352,501.3H32c-11.8,0-21.3-9.6-21.3-21.3V117.3H298.7z"/>
		<path class="st2" d="M298.7,405.3h42.7V448h-42.7V405.3z"/>
		<path class="st2" d="M416,277.3v64h-85.3v-64v-32H416V277.3z"/>
	</g>
	<path class="st3" d="M501.3,266.7V480c0,11.8-9.6,21.3-21.3,21.3H266.7c-11.8,0-21.3-9.6-21.3-21.3V266.7
		c0-11.8,9.6-21.3,21.3-21.3h64v96H416v-96h64C491.8,245.4,501.3,254.9,501.3,266.7z M341.3,448v-42.7h-42.7V448H341.3z"/>
	<g>
		<path class="st4" d="M21.3,480V128h53.3v32c-11.8,0-21.3,9.6-21.3,21.3v32c0,5.9,4.8,10.7,10.7,10.7h42.7
			c5.9,0,10.7-4.8,10.7-10.7v-32c0-11.8-9.6-21.3-21.3-21.3v-32h192v32c-11.8,0-21.3,9.6-21.3,21.3v32H288v-32h21.3v32h21.3v-32
			c0-11.8-9.6-21.3-21.3-21.3v-32h53.3v74.7H384v-85.3c0-5.9-4.8-10.7-10.7-10.7h-64V32c0-17.7-14.3-32-32-32H106.7
			c-17.7,0-32,14.3-32,32v74.7h-64c-5.9,0-10.7,4.8-10.7,10.7V480c0,17.7,14.3,32,32,32h170.7v-21.3H32
			C26.1,490.7,21.3,485.9,21.3,480z M96,202.7H74.7v-21.3H96V202.7z M96,32c0-5.9,4.8-10.7,10.7-10.7h170.7
			c5.9,0,10.7,4.8,10.7,10.7v74.7H96V32z"/>
		<path class="st4" d="M426.7,202.7H448v-85.3c0-5.9-4.8-10.7-10.7-10.7h-32V128h21.3L426.7,202.7L426.7,202.7z"/>
		<path class="st4" d="M362.7,32v53.3H384V32c0-17.7-14.3-32-32-32h-21.3v21.3H352C357.9,21.3,362.7,26.1,362.7,32z"/>
		<path class="st4" d="M480,234.7H266.7c-17.7,0-32,14.3-32,32V480c0,17.7,14.3,32,32,32H480c17.7,0,32-14.3,32-32V266.7
			C512,249,497.7,234.7,480,234.7z M490.7,480c0,5.9-4.8,10.7-10.7,10.7H266.7c-5.9,0-10.7-4.8-10.7-10.7V266.7
			c0-5.9,4.8-10.7,10.7-10.7H480c5.9,0,10.7,4.8,10.7,10.7V480z"/>
		<path class="st4" d="M330.7,352H416c5.9,0,10.7-4.8,10.7-10.7v-64h-21.3v53.3h-64v-53.3H320v64C320,347.2,324.8,352,330.7,352z"/>
		<path class="st4" d="M341.3,394.7h-42.7c-5.9,0-10.7,4.8-10.7,10.7V448c0,5.9,4.8,10.7,10.7,10.7h42.7c5.9,0,10.7-4.8,10.7-10.7
			v-42.7C352,399.4,347.2,394.7,341.3,394.7z M330.7,437.3h-21.3V416h21.3V437.3z"/>
		<path class="st4" d="M373.3,394.7H448V416h-74.7V394.7z"/>
		<path class="st4" d="M373.3,437.3H416v21.3h-42.7V437.3z"/>
	</g>
</g>
</svg>
