<?xml version="1.0" encoding="utf-8"?>
<!-- Generator: Adobe Illustrator 27.0.1, SVG Export Plug-In . SVG Version: 6.00 Build 0)  -->
<svg version="1.1" id="Layer_1" xmlns="http://www.w3.org/2000/svg" xmlns:xlink="http://www.w3.org/1999/xlink" x="0px" y="0px"
	 viewBox="0 0 64 64" style="enable-background:new 0 0 64 64;" xml:space="preserve">
<style type="text/css">
	.st0{fill:#917CC4;}
	.st1{fill:#FFFFFF;}
	.st2{fill:#F8CD9A;}
</style>
<g>
	<g id="Mask_Group_32" transform="translate(-1255 -176)">
		<g id="investment_1_" transform="translate(1255 176)">
			<path id="Path_411" class="st0" d="M54.7,50.7v4H40l-1.3,2.7H25.3L24,54.7H9.3V20h45.3V50.7z"/>
			<path id="Path_412" class="st1" d="M60,50.7v4h-5.3V20H9.3v34.7H4V17.3c0-1.5,1.2-2.7,2.7-2.7h50.7c1.5,0,2.7,1.2,2.7,2.7V50.7z"
				/>
			<g id="Group_500">
				<path id="Path_413" class="st0" d="M62.7,54.7v6.7c0,0.7-0.6,1.3-1.3,1.3l0,0H2.7c-0.7,0-1.3-0.6-1.3-1.3l0,0v-6.7H24l1.3,2.7
					h13.3l1.3-2.7H62.7z"/>
				<path id="Path_414" class="st0" d="M32,4c0-1.5,1.2-2.7,2.7-2.7h10.7C46.8,1.3,48,2.5,48,4v8H16V4c0-1.5,1.2-2.7,2.7-2.7h10.7
					C30.8,1.3,32,2.5,32,4z"/>
			</g>
			<circle id="Ellipse_68" class="st1" cx="32" cy="29.3" r="13.3"/>
			<g id="Group_501">
				<path id="Path_415" class="st2" d="M62.7,53.3H40c-0.5,0-1,0.3-1.2,0.7l-1,1.9H26.2l-1-1.9c-0.2-0.5-0.7-0.7-1.2-0.7H1.3
					c-0.7,0-1.3,0.6-1.3,1.3c0,0,0,0,0,0v6.7C0,62.8,1.2,64,2.7,64h58.7c1.5,0,2.7-1.2,2.7-2.7v-6.7C64,53.9,63.4,53.3,62.7,53.3
					C62.7,53.3,62.7,53.3,62.7,53.3z M61.3,61.3H2.7V56h20.5l1,1.9c0.2,0.5,0.7,0.7,1.2,0.7h13.3c0.5,0,1-0.3,1.2-0.7l1-1.9h20.5
					L61.3,61.3z"/>
				<path id="Path_416" class="st2" d="M5.3,17.3c0-0.7,0.6-1.3,1.3-1.3c0,0,0,0,0,0h4v-2.7h-4c-2.2,0-4,1.8-4,4v33.3h2.7L5.3,17.3z
					"/>
				<path id="Path_417" class="st2" d="M58.7,17.3v33.3h2.7V17.3c0-2.2-1.8-4-4-4h-4V16h4C58.1,16,58.7,16.6,58.7,17.3L58.7,17.3z"
					/>
				<path id="Path_418" class="st2" d="M56,50.7V20c0-0.7-0.6-1.3-1.3-1.3l0,0h-5.3v2.7h4v29.3H56z"/>
				<path id="Path_419" class="st2" d="M8,20v30.7h2.7V21.3h4v-2.7H9.3C8.6,18.7,8,19.3,8,20L8,20z"/>
				<path id="Path_420" class="st2" d="M5.3,57.3H8V60H5.3V57.3z"/>
				<path id="Path_421" class="st2" d="M56,57.3h2.7V60H56V57.3z"/>
				<path id="Path_422" class="st2" d="M16,13.3h12v-2.7H17.3V4c0-0.7,0.6-1.3,1.3-1.3l0,0h10.7c0.7,0,1.3,0.6,1.3,1.3c0,0,0,0,0,0
					v1.3h-9.3V8h9.3v6.7c-8.1,0.7-14,7.9-13.3,15.9s7.9,14,15.9,13.3c8.1-0.7,14-7.9,13.3-15.9c-0.6-7-6.2-12.6-13.3-13.3V8h9.3V5.3
					h-9.3V4c0-0.7,0.6-1.3,1.3-1.3l0,0h10.7c0.7,0,1.3,0.6,1.3,1.3c0,0,0,0,0,0v6.7H36v2.7h12c0.7,0,1.3-0.6,1.3-1.3c0,0,0,0,0,0V4
					c0-2.2-1.8-4-4-4H34.7c-1,0-1.9,0.4-2.7,1c-0.7-0.7-1.7-1-2.7-1H18.7c-2.2,0-4,1.8-4,4v8C14.7,12.7,15.3,13.3,16,13.3
					C16,13.3,16,13.3,16,13.3z M44,29.3c0,6.6-5.4,12-12,12s-12-5.4-12-12s5.4-12,12-12S44,22.7,44,29.3z"/>
				<path id="Path_423" class="st2" d="M30.7,20v2.7h-1.3c-1.5,0-2.7,1.2-2.7,2.7V28c0,1.5,1.2,2.7,2.7,2.7h5.3v2.7h-5.3V32h-2.7
					v1.3c0,1.5,1.2,2.7,2.7,2.7h1.3v2.7h2.7V36h1.3c1.5,0,2.7-1.2,2.7-2.7v-2.7c0-1.5-1.2-2.7-2.7-2.7h-5.3v-2.7h5.3v1.3h2.7v-1.3
					c0-1.5-1.2-2.7-2.7-2.7h-1.3V20H30.7z"/>
				<path id="Path_424" class="st2" d="M13.3,45.3v4c0,0.7,0.6,1.3,1.3,1.3c0,0,0,0,0,0h4V48H16v-2.7H13.3z"/>
			</g>
		</g>
	</g>
</g>
</svg>
