<?xml version="1.0" encoding="utf-8"?>
<!-- Generator: Adobe Illustrator 27.0.1, SVG Export Plug-In . SVG Version: 6.00 Build 0)  -->
<svg version="1.1" id="Layer_1" xmlns="http://www.w3.org/2000/svg" xmlns:xlink="http://www.w3.org/1999/xlink" x="0px" y="0px"
	 viewBox="0 0 64 64" style="enable-background:new 0 0 64 64;" xml:space="preserve">
<style type="text/css">
	.st0{fill:#FFFFFF;}
	.st1{fill:#917CC4;}
	.st2{fill:#F8CD9A;}
</style>
<g>
	<g id="Mask_Group_35" transform="translate(-1631 -176)">
		<g id="video-camera" transform="translate(1631 176)">
			<path id="Path_457" class="st0" d="M32,36l-10.7,5.3V30.7L32,36z"/>
			<g id="Group_514">
				<path id="Path_458" class="st1" d="M62.7,24v34.7L52,49.3V60c0,1.5-1.2,2.7-2.7,2.7H4c-1.5,0-2.7-1.2-2.7-2.7V22.7
					C1.3,21.2,2.5,20,4,20h45.3c1.5,0,2.7,1.2,2.7,2.7v10.7L62.7,24z M21.3,41.3L32,36l-10.7-5.3V41.3z"/>
				<circle id="Ellipse_70" class="st1" cx="34.7" cy="10.7" r="4"/>
				<circle id="Ellipse_71" class="st1" cx="16" cy="10.7" r="4"/>
			</g>
			<g id="Group_515">
				<path id="Path_459" class="st0" d="M34.7,1.3c5.2,0,9.3,4.2,9.3,9.3S39.8,20,34.7,20s-9.3-4.2-9.3-9.3
					C25.3,5.5,29.5,1.3,34.7,1.3L34.7,1.3z M38.7,10.7c0-2.2-1.8-4-4-4s-4,1.8-4,4s1.8,4,4,4C36.9,14.7,38.7,12.9,38.7,10.7
					L38.7,10.7z"/>
				<path id="Path_460" class="st0" d="M25.3,10.7c0,5.2-4.2,9.3-9.3,9.3s-9.3-4.2-9.3-9.3s4.2-9.3,9.3-9.3
					C21.2,1.3,25.3,5.5,25.3,10.7L25.3,10.7z M20,10.7c0-2.2-1.8-4-4-4s-4,1.8-4,4s1.8,4,4,4C18.2,14.7,20,12.9,20,10.7L20,10.7z"/>
			</g>
			<g id="Group_516">
				<path id="Path_461" class="st2" d="M63.2,22.8c-0.5-0.2-1-0.1-1.4,0.2l-8.5,7.4v-7.7c0-2.2-1.8-4-4-4H44v2.7h5.3
					c0.7,0,1.3,0.6,1.3,1.3l0,0V44h2.7V33.9l8-7v28.8l-8.5-7.4c-0.6-0.5-1.4-0.4-1.9,0.1c-0.2,0.2-0.3,0.6-0.3,0.9V60
					c0,0.7-0.6,1.3-1.3,1.3l0,0H4c-0.7,0-1.3-0.6-1.3-1.3V22.7c0-0.7,0.6-1.3,1.3-1.3h2.7v-2.7H4c-2.2,0-4,1.8-4,4V60
					c0,2.2,1.8,4,4,4h45.3c2.2,0,4-1.8,4-4v-7.7l8.5,7.4c0.6,0.5,1.4,0.4,1.9-0.1c0.2-0.2,0.3-0.6,0.3-0.9V24
					C64,23.5,63.7,23,63.2,22.8L63.2,22.8z"/>
				<path id="Path_462" class="st2" d="M21.3,42.7c0.2,0,0.4,0,0.6-0.1l10.7-5.3c0.7-0.3,0.9-1.1,0.6-1.8c-0.1-0.3-0.3-0.5-0.6-0.6
					l-10.7-5.3c-0.7-0.3-1.5-0.1-1.8,0.6C20,30.3,20,30.5,20,30.7v10.7C20,42.1,20.6,42.7,21.3,42.7C21.3,42.7,21.3,42.7,21.3,42.7z
					 M22.7,32.8L29,36l-6.4,3.2V32.8z"/>
				<path id="Path_463" class="st2" d="M16,21.3c3.9,0,7.5-2.1,9.3-5.5c2.8,5.2,9.3,7,14.5,4.2s7-9.3,4.2-14.5
					c-2.8-5.2-9.3-7-14.5-4.2c-1.8,1-3.2,2.4-4.2,4.2c-2.8-5.2-9.3-7-14.5-4.2s-7,9.3-4.2,14.5C8.5,19.2,12.1,21.3,16,21.3z
					 M34.7,2.7c4.4,0,8,3.6,8,8s-3.6,8-8,8s-8-3.6-8-8l0,0C26.7,6.3,30.2,2.7,34.7,2.7z M16,2.7c4.4,0,8,3.6,8,8s-3.6,8-8,8
					s-8-3.6-8-8l0,0C8,6.3,11.6,2.7,16,2.7z"/>
				<path id="Path_464" class="st2" d="M16,16c2.9,0,5.3-2.4,5.3-5.3S18.9,5.3,16,5.3s-5.3,2.4-5.3,5.3l0,0C10.7,13.6,13.1,16,16,16
					z M16,8c1.5,0,2.7,1.2,2.7,2.7s-1.2,2.7-2.7,2.7s-2.7-1.2-2.7-2.7l0,0C13.3,9.2,14.5,8,16,8z"/>
				<path id="Path_465" class="st2" d="M34.7,16c2.9,0,5.3-2.4,5.3-5.3s-2.4-5.3-5.3-5.3s-5.3,2.4-5.3,5.3l0,0
					C29.3,13.6,31.7,16,34.7,16z M34.7,8c1.5,0,2.7,1.2,2.7,2.7s-1.2,2.7-2.7,2.7c-1.5,0-2.7-1.2-2.7-2.7C32,9.2,33.2,8,34.7,8
					C34.7,8,34.7,8,34.7,8z"/>
				<path id="Path_466" class="st2" d="M24,56v-2.7l12,0v-2.7l-12,0V48h-2.7v2.6l-14.7,0l0,2.7l14.7,0V56H24z"/>
				<path id="Path_467" class="st2" d="M38.7,50.7h2.7v2.7h-2.7V50.7z"/>
				<path id="Path_468" class="st2" d="M44,50.7h2.7v2.7H44V50.7z"/>
			</g>
		</g>
	</g>
</g>
</svg>
