<?xml version="1.0" encoding="utf-8"?>
<!-- Generator: Adobe Illustrator 27.0.1, SVG Export Plug-In . SVG Version: 6.00 Build 0)  -->
<svg version="1.1" id="Layer_1" xmlns="http://www.w3.org/2000/svg" xmlns:xlink="http://www.w3.org/1999/xlink" x="0px" y="0px"
	 viewBox="0 0 64 64" style="enable-background:new 0 0 64 64;" xml:space="preserve">
<style type="text/css">
	.st0{fill:#917CC4;}
	.st1{fill:#FFFFFF;}
	.st2{fill:#F8CD9A;}
</style>
<g>
	<g id="Mask_Group_30" transform="translate(-347 -173)">
		<g id="video-player" transform="translate(347 173)">
			<path id="Path_388" class="st0" d="M45.3,57.3v4c0,0.7-0.6,1.3-1.3,1.3l0,0H20c-0.7,0-1.3-0.6-1.3-1.3l0,0v-4H45.3z"/>
			<path id="Path_389" class="st1" d="M22.7,46.7h18.7v10.7H22.7V46.7z"/>
			<path id="Path_390" class="st0" d="M56,32v4H8V8h48V32z"/>
			<path id="Path_391" class="st1" d="M62.7,4v32H56V8H8v28H1.3V4c0-1.5,1.2-2.7,2.7-2.7h56C61.5,1.3,62.7,2.5,62.7,4z"/>
			<path id="Path_392" class="st0" d="M62.7,36v8c0,1.5-1.2,2.7-2.7,2.7H4c-1.5,0-2.7-1.2-2.7-2.7v-8H62.7z"/>
			<path id="Path_393" class="st1" d="M38.7,18.7V20H28v-6.7L38.7,18.7z"/>
			<g id="Group_497">
				<path id="Path_394" class="st2" d="M5.3,34.7h53.3v2.7H5.3V34.7z"/>
				<path id="Path_395" class="st2" d="M60,0H4C1.8,0,0,1.8,0,4v40c0,2.2,1.8,4,4,4h17.3v8h-2.7c-0.7,0-1.3,0.6-1.3,1.3l0,0v4h-2.7
					V64h34.7v-2.7h-2.7v-4c0-0.7-0.6-1.3-1.3-1.3l0,0h-2.7v-8H60c2.2,0,4-1.8,4-4V4C64,1.8,62.2,0,60,0z M44,61.3H20v-2.7h24V61.3z
					 M40,56H24v-8h16V56z M61.3,44c0,0.7-0.6,1.3-1.3,1.3l0,0H4c-0.7,0-1.3-0.6-1.3-1.3l0,0V4c0-0.7,0.6-1.3,1.3-1.3l0,0h56
					c0.7,0,1.3,0.6,1.3,1.3l0,0V44z"/>
				<path id="Path_396" class="st2" d="M9.3,9.3h45.3V24h2.7V8c0-0.7-0.6-1.3-1.3-1.3l0,0H8C7.3,6.7,6.7,7.3,6.7,8l0,0v16h2.7
					L9.3,9.3L9.3,9.3z"/>
				<path id="Path_397" class="st2" d="M28,32v-2.7h18.7v-2.7H28V24h-2.7v2.7h-16v2.7h16V32H28z"/>
				<path id="Path_398" class="st2" d="M54.7,26.7h2.7v2.7h-2.7V26.7z"/>
				<path id="Path_399" class="st2" d="M49.3,26.7H52v2.7h-2.7V26.7z"/>
				<path id="Path_400" class="st2" d="M40,20v-1.3c0-0.5-0.3-1-0.7-1.2l-10.7-5.3c-0.7-0.3-1.5-0.1-1.8,0.6
					c-0.1,0.2-0.1,0.4-0.1,0.6V20h2.7v-4.5l8,4V20H40z"/>
			</g>
		</g>
	</g>
</g>
</svg>
