<?xml version="1.0" encoding="utf-8"?>
<!-- Generator: Adobe Illustrator 27.0.1, SVG Export Plug-In . SVG Version: 6.00 Build 0)  -->
<svg version="1.1" id="Layer_1" xmlns="http://www.w3.org/2000/svg" xmlns:xlink="http://www.w3.org/1999/xlink" x="0px" y="0px"
	 viewBox="0 0 28 28" style="enable-background:new 0 0 28 28;" xml:space="preserve">
<style type="text/css">
	.st0{fill:#917CC4;}
	.st1{fill:#F8CD9A;}
</style>
<g id="Group_1289" transform="translate(-826 -943)">
	<g id="document" transform="translate(826.699 943.699)">
		<path id="Path_1561" class="st0" d="M2.3,26.8c0.3,0.2-1.2,0.1,21.5,0.1c1.7,0,3.2-1.4,3.2-3.2v-2.4c0-0.4-0.4-0.8-0.8-0.8h-1.8
			V3.3C24.3,1.5,22.8,0,21,0H0.8C0.4,0,0,0.4,0,0.8v23C0,25.2,0.9,26.4,2.3,26.8z M25.4,23.8c0,0.9-0.7,1.6-1.6,1.6H5.9
			c0.3-0.5,0.4-1,0.4-1.6v-1.6h19L25.4,23.8z M1.6,1.6H21c1,0,1.7,0.8,1.7,1.7v17.3H5.5c-0.4,0-0.8,0.4-0.8,0.8v2.3
			c0,0.9-0.7,1.6-1.6,1.6c-0.4,0-0.8-0.2-1.1-0.5c-0.3-0.3-0.5-0.7-0.5-1.1L1.6,1.6z"/>
		<path id="Path_1562" class="st1" d="M5.7,6.4h12.9c0.4,0,0.8-0.4,0.8-0.8S19,4.8,18.6,4.8H5.7c-0.4,0-0.8,0.4-0.8,0.8
			S5.3,6.4,5.7,6.4z"/>
		<path id="Path_1563" class="st1" d="M5.7,10h12.9c0.4,0,0.8-0.4,0.8-0.8S19,8.5,18.6,8.5H5.7c-0.4,0-0.8,0.4-0.8,0.8
			S5.3,10,5.7,10z"/>
		<path id="Path_1564" class="st1" d="M5.7,13.7h12.9c0.4,0,0.8-0.4,0.8-0.8s-0.4-0.8-0.8-0.8H5.7c-0.4,0-0.8,0.4-0.8,0.8
			S5.3,13.7,5.7,13.7z"/>
		<path id="Path_1565" class="st1" d="M5.7,17.4h12.9c0.4,0,0.8-0.4,0.8-0.8s-0.4-0.8-0.8-0.8H5.7c-0.4,0-0.8,0.4-0.8,0.8
			S5.3,17.4,5.7,17.4z"/>
	</g>
</g>
</svg>
