<?xml version="1.0" encoding="utf-8"?>
<!-- Generator: Adobe Illustrator 27.0.1, SVG Export Plug-In . SVG Version: 6.00 Build 0)  -->
<svg version="1.1" id="Layer_1" xmlns="http://www.w3.org/2000/svg" xmlns:xlink="http://www.w3.org/1999/xlink" x="0px" y="0px"
	 viewBox="0 0 28 28" style="enable-background:new 0 0 28 28;" xml:space="preserve">
<style type="text/css">
	.st0{fill:#917CC4;}
	.st1{fill:#F8CD9A;}
</style>
<g id="Group_1294" transform="translate(-1026 -943)">
	<g id="personal-data" transform="translate(987.323 943.427)">
		<path id="Path_1575" class="st0" d="M61.5,3.3h-0.8V2.4c0-1.3-1.1-2.4-2.4-2.4c0,0,0,0,0,0H47.1c-0.2,0-0.4,0.1-0.6,0.2l-5.3,5.3
			C41.1,5.7,41,5.9,41,6.1v15.5c0,1.3,1.1,2.4,2.4,2.4l0,0h0.8v0.8c0,1.3,1.1,2.4,2.4,2.4l0,0h14.9c1.3,0,2.4-1.1,2.4-2.4
			c0,0,0,0,0,0V5.7C63.9,4.4,62.8,3.3,61.5,3.3C61.5,3.3,61.5,3.3,61.5,3.3z M46.3,2.7v2.6h-2.6L46.3,2.7z M43.4,22.5
			c-0.4,0-0.8-0.4-0.8-0.8V6.9h4.5c0.4,0,0.8-0.4,0.8-0.8V1.6h10.4c0.4,0,0.8,0.4,0.8,0.8v19.3c0,0.4-0.4,0.8-0.8,0.8L43.4,22.5z
			 M62.3,24.9c0,0.4-0.4,0.8-0.8,0.8H46.6c-0.4,0-0.8-0.4-0.8-0.8v-0.8h12.5c1.3,0,2.4-1.1,2.4-2.4c0,0,0,0,0,0V4.9h0.8
			c0.4,0,0.8,0.4,0.8,0.8L62.3,24.9z"/>
		<path id="Path_1576" class="st1" d="M56,6.6c0.8-1.1,0.5-2.6-0.5-3.4c-1.1-0.8-2.6-0.5-3.4,0.5c-0.6,0.8-0.6,2,0,2.8
			c-0.9,0.6-1.5,1.7-1.5,2.9v1.1c0,0.4,0.4,0.8,0.8,0.8l0,0h5.3c0.4,0,0.8-0.4,0.8-0.8c0,0,0,0,0,0V9.4C57.5,8.3,56.9,7.2,56,6.6
			L56,6.6z M54,4.4c0.4,0,0.8,0.4,0.8,0.8C54.8,5.6,54.5,6,54,6c-0.4,0-0.8-0.4-0.8-0.8C53.2,4.7,53.6,4.4,54,4.4L54,4.4z M55.9,9.7
			h-3.7V9.4c0-1,0.8-1.9,1.8-1.9c1,0,1.9,0.8,1.9,1.8c0,0,0,0.1,0,0.1L55.9,9.7z"/>
		<path id="Path_1577" class="st1" d="M45,11.3h3.7c0.4,0,0.8-0.4,0.8-0.8s-0.4-0.8-0.8-0.8H45c-0.4,0-0.8,0.4-0.8,0.8
			S44.6,11.3,45,11.3z"/>
		<path id="Path_1578" class="st1" d="M56.7,12.9H45c-0.4,0-0.8,0.4-0.8,0.8s0.4,0.8,0.8,0.8h11.7c0.4,0,0.8-0.4,0.8-0.8
			S57.2,12.9,56.7,12.9L56.7,12.9z"/>
		<path id="Path_1579" class="st1" d="M56.7,16.1H45c-0.4,0-0.8,0.4-0.8,0.8c0,0.4,0.4,0.8,0.8,0.8h11.7c0.4,0,0.8-0.4,0.8-0.8
			C57.5,16.4,57.2,16.1,56.7,16.1L56.7,16.1z"/>
		<path id="Path_1580" class="st1" d="M56.7,19.3H45c-0.4,0-0.8,0.4-0.8,0.8c0,0.4,0.4,0.8,0.8,0.8h11.7c0.4,0,0.8-0.4,0.8-0.8
			C57.5,19.6,57.2,19.3,56.7,19.3L56.7,19.3z"/>
	</g>
</g>
</svg>
