<?xml version="1.0" encoding="utf-8"?>
<!-- Generator: Adobe Illustrator 27.0.1, SVG Export Plug-In . SVG Version: 6.00 Build 0)  -->
<svg version="1.1" id="Layer_1" xmlns="http://www.w3.org/2000/svg" xmlns:xlink="http://www.w3.org/1999/xlink" x="0px" y="0px"
	 viewBox="0 0 512 512" style="enable-background:new 0 0 512 512;" xml:space="preserve">
<style type="text/css">
	.st0{fill:#F8CD9A;}
	.st1{fill:#FFFFFF;}
	.st2{fill:#917CC4;}
</style>
<g>
	<circle class="st0" cx="256" cy="256" r="192"/>
	<path class="st1" d="M256,10.7c135.5,0,245.3,109.8,245.3,245.3S391.5,501.3,256,501.3S10.7,391.5,10.7,256S120.5,10.7,256,10.7z
		 M448,256c0-106-86-192-192-192S64,150,64,256s86,192,192,192S448,362,448,256z"/>
	<g>
		<path class="st2" d="M256,0C114.6,0,0,114.6,0,256s114.6,256,256,256s256-114.6,256-256C511.8,114.7,397.3,0.2,256,0z M256,490.7
			C126.4,490.7,21.3,385.6,21.3,256S126.4,21.3,256,21.3S490.7,126.4,490.7,256C490.5,385.5,385.5,490.5,256,490.7z"/>
		<path class="st2" d="M256,53.3C144.1,53.3,53.3,144.1,53.3,256S144.1,458.7,256,458.7S458.7,367.9,458.7,256
			C458.5,144.1,367.9,53.5,256,53.3z M436.8,266.7c-2.1,38-16.3,74.4-40.4,103.9l-26.2-26.2l-15.1,15.1l26.7,26.7
			c-31.1,30.1-72,48-115.2,50.5v-42.1h-21.3v42.1c-43.2-2.5-84.1-20.4-115.2-50.5l26.7-26.7l-15.1-15.1l-26.1,26.2
			c-24.1-29.5-38.3-65.9-40.4-103.9h42.1v-21.3H75.2c2.1-38.1,16.3-74.4,40.4-103.9l26.2,26.2l15.1-15.1l-26.7-26.7
			c31.1-30.1,72-48.1,115.2-50.6v42.1h21.3V75.2c43.2,2.5,84.1,20.4,115.2,50.5l-26.7,26.7l15.1,15.1l26.2-26.2
			c24.1,29.5,38.3,65.9,40.4,104h-42.1v21.3L436.8,266.7L436.8,266.7z"/>
		<path class="st2" d="M266.7,160h-21.3v96c0,2.8,1.1,5.5,3.1,7.5l64,64l15.1-15.1l-60.9-60.9V160z"/>
	</g>
</g>
</svg>
