<?xml version="1.0" encoding="utf-8"?>
<!-- Generator: Adobe Illustrator 27.0.1, SVG Export Plug-In . SVG Version: 6.00 Build 0)  -->
<svg version="1.1" id="Layer_1" xmlns="http://www.w3.org/2000/svg" xmlns:xlink="http://www.w3.org/1999/xlink" x="0px" y="0px"
	 viewBox="0 0 28 28" style="enable-background:new 0 0 28 28;" xml:space="preserve">
<style type="text/css">
	.st0{fill:#917CC4;}
	.st1{fill:#F8CD9A;}
</style>
<g id="Group_1290" transform="translate(-866 -943)">
	<g id="employment" transform="translate(866.463 943.463)">
		<path id="Path_1566" class="st0" d="M25.8,15.7h-2.4c0-0.1,0,0.1,0-1.3c0-1-0.8-1.8-1.8-1.8h-1.3v-7c0-0.2-0.1-0.4-0.2-0.6
			l-4.7-4.7C15.2,0.1,15,0,14.8,0h-14C0.3,0,0,0.3,0,0.8c0,0,0,0,0,0v25c0,0.4,0.3,0.8,0.8,0.8c0,0,0,0,0,0h23.4
			c1.3,0,2.3-1,2.3-2.3c0,0,0,0,0,0v-7.8C26.5,16,26.2,15.7,25.8,15.7L25.8,15.7z M25,19.6l-4.7,0.6c-0.1-0.4-0.4-0.7-0.9-0.7
			c-0.3,0-0.6,0.3-0.7,0.7l-4.7-0.6v-2.4H25L25,19.6z M21.8,14.4v1.3h-4.7c0-0.1,0,0.1,0-1.3c0-0.1,0.1-0.2,0.2-0.2l0,0h4.2
			C21.7,14.1,21.8,14.2,21.8,14.4C21.8,14.4,21.8,14.4,21.8,14.4L21.8,14.4z M15.6,2.7l2,2h-2V2.7z M1.6,1.6H14v3.9
			c0,0.4,0.3,0.8,0.8,0.8l0,0h3.9v6.3h-1.3c-1,0-1.8,0.8-1.8,1.8v1.3h-2.3c-0.4,0-0.8,0.3-0.8,0.8l0,0c0,8.1-0.1,7.9,0.1,8.6H1.6
			V1.6z M24.2,25h-9.3c-0.4,0-0.8-0.4-0.8-0.8v-3l4.7,0.6v0.1c0,0.4,0.3,0.8,0.8,0.8s0.8-0.3,0.8-0.8v-0.1l4.7-0.6v3
			C25,24.6,24.6,25,24.2,25C24.2,25,24.2,25,24.2,25z"/>
		<path id="Path_1567" class="st1" d="M10.1,9.4c1.3,0,2.3-1,2.3-2.3s-1-2.3-2.3-2.3s-2.3,1-2.3,2.3C7.8,8.3,8.8,9.4,10.1,9.4z
			 M10.1,6.3c0.4,0,0.8,0.3,0.8,0.8s-0.3,0.8-0.8,0.8c-0.4,0-0.8-0.3-0.8-0.8v0C9.4,6.6,9.7,6.3,10.1,6.3
			C10.1,6.3,10.1,6.3,10.1,6.3L10.1,6.3z"/>
		<path id="Path_1568" class="st1" d="M7,14.1h6.2c0.4,0,0.8-0.3,0.8-0.8c0-2.1-1.7-3.9-3.9-3.9c-2.1,0-3.9,1.7-3.9,3.9
			C6.2,13.7,6.6,14.1,7,14.1C7,14.1,7,14.1,7,14.1z M12.3,12.5H7.9c0.4-1.2,1.8-1.8,3-1.4C11.6,11.3,12.1,11.9,12.3,12.5z"/>
		<path id="Path_1569" class="st1" d="M10.2,15.7H6.3c-0.4,0-0.8,0.3-0.8,0.8s0.3,0.8,0.8,0.8l0,0h3.9c0.4,0,0.8-0.3,0.8-0.8
			S10.6,15.7,10.2,15.7z"/>
		<path id="Path_1570" class="st1" d="M10.2,18.7H6.3c-0.4,0-0.8,0.3-0.8,0.8s0.3,0.8,0.8,0.8l0,0h3.9c0.4,0,0.8-0.3,0.8-0.8
			S10.6,18.7,10.2,18.7z"/>
		<path id="Path_1571" class="st1" d="M10.2,21.8H6.3c-0.4,0-0.8,0.3-0.8,0.8s0.3,0.8,0.8,0.8l0,0h3.9c0.4,0,0.8-0.3,0.8-0.8
			S10.6,21.8,10.2,21.8z"/>
		<circle id="Ellipse_225" class="st1" cx="3.9" cy="16.4" r="0.8"/>
		<circle id="Ellipse_226" class="st1" cx="3.9" cy="19.5" r="0.8"/>
		<circle id="Ellipse_227" class="st1" cx="3.9" cy="22.6" r="0.8"/>
	</g>
</g>
</svg>
