<?xml version="1.0" encoding="utf-8"?>
<!-- Generator: Adobe Illustrator 27.0.1, SVG Export Plug-In . SVG Version: 6.00 Build 0)  -->
<svg version="1.1" id="Layer_1" xmlns="http://www.w3.org/2000/svg" xmlns:xlink="http://www.w3.org/1999/xlink" x="0px" y="0px"
	 viewBox="0 0 64 64" style="enable-background:new 0 0 64 64;" xml:space="preserve">
<style type="text/css">
	.st0{fill:#F8CD9A;}
	.st1{fill:#917CC4;}
</style>
<g>
	<g>
		<path class="st0" d="M15.8,41.7h32.4c1,0,1.9-0.8,1.9-1.9V17.7c0-1-0.8-1.9-1.9-1.9h-7.7V9.2c0-1-0.8-1.9-1.9-1.9H25.4
			c-1,0-1.9,0.8-1.9,1.9v6.6h-7.7c-1,0-1.9,0.8-1.9,1.9v22.2C13.9,40.9,14.8,41.7,15.8,41.7z M17.7,38V27.5l1.3,1.5
			c0.4,0.4,0.9,0.6,1.4,0.6h9.8v0.3c0,1,0.8,1.9,1.9,1.9c1,0,1.9-0.8,1.9-1.9v-0.3h9.7c0.5,0,1.1-0.2,1.4-0.6l1.3-1.5V38L17.7,38
			L17.7,38z M27.2,11h9.5v4.8h-9.5V11z M17.7,19.5h28.6v2.2l-3.6,4.1h-8.9v-0.3c0-1-0.8-1.9-1.9-1.9c-1,0-1.9,0.8-1.9,1.9v0.3h-8.9
			l-3.5-4.1L17.7,19.5L17.7,19.5z"/>
		<path class="st1" d="M64,3.8c0-1-0.3-1.9-1-2.6C62.3,0.4,61.3,0,60.3,0H3.7c-1,0-2,0.4-2.7,1.2C0.3,1.9,0,2.8,0,3.8v49.1
			c0,1,0.3,1.9,1,2.6c0.7,0.7,1.7,1.2,2.7,1.2h20.8v3.5h-4.3c-1,0-1.9,0.8-1.9,1.9c0,1,0.8,1.9,1.9,1.9h23.7c1,0,1.9-0.8,1.9-1.9
			c0-1-0.8-1.9-1.9-1.9h-4.3v-3.5h20.8c1,0,2-0.4,2.7-1.2c0.7-0.7,1-1.7,1-2.6V3.8z M60.2,3.8v41.7H3.8V3.8L60.2,3.8z M35.7,60.2
			h-7.5v-3.5h7.5V60.2z M3.8,53v-3.7h56.5V53L3.8,53z"/>
	</g>
</g>
</svg>
