<?xml version="1.0" encoding="utf-8"?>
<!-- Generator: Adobe Illustrator 27.0.1, SVG Export Plug-In . SVG Version: 6.00 Build 0)  -->
<svg version="1.1" id="Layer_1" xmlns="http://www.w3.org/2000/svg" xmlns:xlink="http://www.w3.org/1999/xlink" x="0px" y="0px"
	 viewBox="0 0 28 28" style="enable-background:new 0 0 28 28;" xml:space="preserve">
<style type="text/css">
	.st0{fill:#917CC4;}
	.st1{fill:#F8CD9A;}
</style>
<g id="Group_1295" transform="translate(-1066 -943)">
	<g>
		<g id="Mask_Group_90" transform="translate(1041.427 533.427)">
			<g id="money_1_" transform="translate(25.802 410)">
				<path id="Path_1581" class="st0" d="M23.2,20.9v-4.1c0-4.4-2.8-8.3-6.9-9.8c0.8-1.1,0.6-2.6-0.5-3.4c0,0-0.1-0.1-0.1-0.1
					c0.7-0.7,1.1-1.7,1.1-2.8C16.8,0.4,16.5,0,16,0H9.6C9.2,0,8.8,0.4,8.8,0.8c0,0,0,0,0,0c0,1,0.4,2,1.1,2.8
					C8.8,4.3,8.5,5.8,9.2,6.9C9.2,6.9,9.3,7,9.3,7c-4.1,1.5-6.9,5.4-6.9,9.8v4.1c-1.7,0.4-2.8,2.2-2.3,3.9c0.4,1.4,1.7,2.5,3.1,2.4
					h19.2c1.8,0,3.2-1.4,3.2-3.2C25.7,22.6,24.7,21.3,23.2,20.9L23.2,20.9z M15.1,1.6c-0.4,1.3-1.8,1.9-3.1,1.5
					c-0.7-0.2-1.2-0.8-1.5-1.5H15.1z M11.2,6.4c-0.4,0-0.8-0.4-0.8-0.8c0-0.4,0.4-0.8,0.8-0.8h3.2c0.4,0,0.8,0.4,0.8,0.8
					c0,0.4-0.4,0.8-0.8,0.8l0,0H11.2z M22.4,25.7H3.2c-0.9,0-1.6-0.7-1.6-1.6s0.7-1.6,1.6-1.6c0.4,0,0.8-0.4,0.8-0.8v-4.8
					C4,12,8,8,12.8,8s8.8,4,8.8,8.8v4.8c0,0.4,0.4,0.8,0.8,0.8c0.9,0,1.6,0.7,1.6,1.6S23.3,25.7,22.4,25.7L22.4,25.7z"/>
				<path id="Path_1582" class="st1" d="M12.8,14.4h1.6c0.4,0,0.8-0.4,0.8-0.8s-0.4-0.8-0.8-0.8h-0.8V12c0-0.4-0.4-0.8-0.8-0.8
					S12,11.6,12,12V13c-1.3,0.4-1.9,1.8-1.5,3.1c0.3,1,1.3,1.6,2.3,1.6c0.4,0,0.8,0.4,0.8,0.8s-0.4,0.8-0.8,0.8h-1.6
					c-0.4,0-0.8,0.4-0.8,0.8c0,0.4,0.4,0.8,0.8,0.8H12v0.8c0,0.4,0.4,0.8,0.8,0.8s0.8-0.4,0.8-0.8v-0.9c1.3-0.4,1.9-1.8,1.5-3.1
					c-0.3-1-1.3-1.6-2.3-1.6c-0.4,0-0.8-0.4-0.8-0.8C12,14.8,12.4,14.4,12.8,14.4C12.8,14.4,12.8,14.4,12.8,14.4z"/>
			</g>
		</g>
	</g>
</g>
</svg>
