<?xml version="1.0" encoding="utf-8"?>
<!-- Generator: Adobe Illustrator 27.0.1, SVG Export Plug-In . SVG Version: 6.00 Build 0)  -->
<svg version="1.1" id="Layer_1" xmlns="http://www.w3.org/2000/svg" xmlns:xlink="http://www.w3.org/1999/xlink" x="0px" y="0px"
	 viewBox="0 0 28 28" style="enable-background:new 0 0 28 28;" xml:space="preserve">
<style type="text/css">
	.st0{fill:#917CC4;}
	.st1{fill:#F8CD9A;}
</style>
<g id="Group_1292" transform="translate(-946 -943)">
	<g id="image" transform="translate(946.463 943.463)">
		<path id="Path_1573" class="st0" d="M23,3.9c-5.3-5.3-13.8-5.3-19.1,0s-5.3,13.8,0,19.1s13.8,5.3,19.1,0S28.3,9.2,23,3.9z
			 M5.1,5.1c4.6-4.6,12.2-4.6,16.8,0c2.2,2.2,3.5,5.3,3.5,8.4c0,0.9-0.1,1.7-0.3,2.6l-4-3.5c-1-0.9-2.6-0.9-3.6,0l-3.3,2.8
			c-0.4,0.3-1,0.4-1.4,0.1L10.5,14c-0.9-0.6-2-0.6-2.9-0.1l-5.4,3.2C0.8,12.9,1.9,8.2,5.1,5.1z M21.9,21.9c-4.7,4.6-12.2,4.6-16.9,0
			c-0.9-0.9-1.7-2-2.3-3.2l5.6-3.3c0.4-0.2,0.9-0.2,1.3,0l2.1,1.4c1,0.7,2.4,0.6,3.3-0.2l3.3-2.8c0.5-0.4,1.1-0.4,1.6,0l4.6,4
			C24,19.3,23.1,20.7,21.9,21.9L21.9,21.9z"/>
		<path id="Path_1574" class="st1" d="M8.4,11.7c1.7,0,3.1-1.4,3.1-3.1s-1.4-3.1-3.1-3.1c-1.7,0-3.1,1.4-3.1,3.1
			C5.3,10.3,6.7,11.7,8.4,11.7z M8.4,7.1c0.8,0,1.5,0.7,1.5,1.5s-0.7,1.5-1.5,1.5S6.9,9.5,6.9,8.6S7.5,7.1,8.4,7.1z"/>
	</g>
</g>
</svg>
