<?xml version="1.0" encoding="utf-8"?>
<!-- Generator: Adobe Illustrator 27.0.1, SVG Export Plug-In . SVG Version: 6.00 Build 0)  -->
<svg version="1.1" id="Iconly_Light-outline_Logout"
	 xmlns="http://www.w3.org/2000/svg" xmlns:xlink="http://www.w3.org/1999/xlink" x="0px" y="0px" viewBox="0 0 24 24"
	 style="enable-background:new 0 0 24 24;" xml:space="preserve">
<style type="text/css">
	.st0{fill:#917CC4;}
	.st1{fill:#F8CD9A;}
</style>
<g id="Logout" transform="translate(2 2)">
	<path id="Logout-2" class="st0" d="M4.5,20c-2.4,0-4.3-1.9-4.4-4.2v-0.2V4.5C0,2.1,1.9,0.1,4.2,0h0.2h4.9c2.4,0,4.3,1.9,4.4,4.2
		v0.2v0.9c0,0.4-0.3,0.7-0.8,0.7c-0.4,0-0.7-0.3-0.7-0.6l0-0.1V4.5c0-1.6-1.2-2.8-2.8-2.9H9.3H4.5c-1.6,0-2.8,1.2-2.9,2.8v0.2v11.1
		c0,1.6,1.2,2.8,2.8,2.9l0.2,0h4.9c1.5,0,2.8-1.2,2.9-2.8v-0.2v-0.9c0-0.4,0.3-0.7,0.8-0.7c0.4,0,0.7,0.3,0.7,0.6l0,0.1v0.9
		c0,2.4-1.9,4.3-4.2,4.4H9.3H4.5z"/>
</g>
<path class="st1" d="M18.3,15.5c-0.3-0.3-0.3-0.7-0.1-1l0.1-0.1l1.6-1.6H9.8C9.4,12.8,9,12.4,9,12c0-0.4,0.3-0.7,0.6-0.7l0.1,0H20
	l-1.6-1.6c-0.3-0.3-0.3-0.7-0.1-1l0.1-0.1c0.3-0.3,0.7-0.3,1-0.1l0.1,0.1l2.9,2.9c0.1,0.1,0.2,0.3,0.2,0.4l0,0v0l0,0v0l0,0
	c0,0,0,0,0,0.1l0,0l0,0c0,0,0,0,0,0l0,0c0,0,0,0,0,0v0c0,0.1,0,0.2-0.1,0.3l0,0l0,0l0,0l0,0l0,0l0,0l0,0l0,0l0,0l0,0l0,0l0,0l0,0
	l0,0l0,0l0,0l0,0l0,0c0,0-0.1,0.1-0.1,0.1l-2.9,2.9C19.1,15.7,18.7,15.7,18.3,15.5C18.4,15.4,18.4,15.4,18.3,15.5L18.3,15.5z"/>
</svg>
