<?xml version="1.0" encoding="utf-8"?>
<!-- Generator: Adobe Illustrator 27.0.1, SVG Export Plug-In . SVG Version: 6.00 Build 0)  -->
<svg version="1.1" id="Iconly_Light-outline_Chart" xmlns="http://www.w3.org/2000/svg" xmlns:xlink="http://www.w3.org/1999/xlink"
	 x="0px" y="0px" viewBox="0 0 24 24" style="enable-background:new 0 0 24 24;" xml:space="preserve">
<style type="text/css">
	.st0{fill:#917CC4;}
	.st1{fill:#F8CD9A;}
</style>
<g id="Chart" transform="translate(2 2)">
	<path id="Chart-2" class="st0" d="M5.6,20c-1.5,0-3-0.5-4.1-1.6c-1-1.2-1.6-2.7-1.5-4.3V5.9c-0.1-1.6,0.5-3.1,1.6-4.2
		C2.6,0.5,4.1,0,5.6,0h8.7c1.5,0,3,0.5,4.1,1.6c1,1.2,1.6,2.7,1.5,4.2v8.2c0.1,1.6-0.5,3.1-1.5,4.3c-1.1,1.1-2.6,1.7-4.1,1.6H5.6z
		 M1.4,5.9v8.2c0,2.7,1.7,4.5,4.2,4.5h8.7c2.6,0,4.2-1.8,4.2-4.5V5.9c0-2.7-1.7-4.5-4.2-4.5H5.6C3.1,1.4,1.4,3.2,1.4,5.9z"/>
</g>
<path class="st1" d="M15.6,16.8L15.6,16.8l0-3.1c0-0.4,0.3-0.7,0.7-0.7c0.3,0,0.6,0.3,0.7,0.6v0.1v3c0,0.4-0.3,0.7-0.7,0.7
	C15.9,17.4,15.7,17.1,15.6,16.8L15.6,16.8z"/>
<path class="st1" d="M11.3,16.8L11.3,16.8l0-9.5c0-0.4,0.3-0.7,0.7-0.7c0.3,0,0.6,0.3,0.7,0.6l0,0.1v9.4c0,0.4-0.3,0.7-0.7,0.7
	C11.7,17.4,11.4,17.1,11.3,16.8L11.3,16.8z"/>
<path class="st1" d="M7,16.8L7,16.8v-6.5c0-0.4,0.3-0.7,0.7-0.7c0.3,0,0.6,0.3,0.7,0.6l0,0.1v6.4c0,0.4-0.3,0.7-0.7,0.7
	C7.3,17.4,7,17.2,7,16.8z"/>
</svg>
