<?xml version="1.0" encoding="utf-8"?>
<!-- Generator: Adobe Illustrator 27.0.1, SVG Export Plug-In . SVG Version: 6.00 Build 0)  -->
<svg version="1.1" id="Layer_1" xmlns="http://www.w3.org/2000/svg" xmlns:xlink="http://www.w3.org/1999/xlink" x="0px" y="0px"
	 viewBox="0 0 512 512" style="enable-background:new 0 0 512 512;" xml:space="preserve">
<style type="text/css">
	.st0{fill:#FFFFFF;}
	.st1{fill:#F8CD9A;}
	.st2{fill:#917CC4;}
</style>
<g>
	<path class="st0" d="M501.3,96v362.7c0,23.6-19.1,42.7-42.7,42.7H53.3c-23.6,0-42.7-19.1-42.7-42.7V96H501.3z"/>
	<path class="st1" d="M501.3,53.3V96H10.7V53.3c0-23.6,19.1-42.7,42.7-42.7h405.3C482.2,10.7,501.3,29.8,501.3,53.3z"/>
	<path class="st0" d="M298.7,277.3L224,320v-85.3L298.7,277.3z"/>
	<path class="st1" d="M448,170.7V384H64V170.7c0-11.8,9.6-21.3,21.3-21.3h341.3C438.4,149.4,448,158.9,448,170.7z M224,320
		l74.7-42.7L224,234.7V320z"/>
	<g>
		<path class="st2" d="M458.7,0H53.3C23.9,0,0,23.9,0,53.3v405.3C0,488.1,23.9,512,53.3,512h405.3c29.4,0,53.3-23.9,53.3-53.3V53.3
			C512,23.9,488.1,0,458.7,0z M490.7,458.7c0,17.7-14.3,32-32,32H53.3c-17.7,0-32-14.3-32-32V53.3c0-17.7,14.3-32,32-32h405.3
			c17.7,0,32,14.3,32,32L490.7,458.7L490.7,458.7z"/>
		<path class="st2" d="M42.7,85.3h426.7v21.3H42.7V85.3z"/>
		<path class="st2" d="M53.3,42.7h21.3V64H53.3V42.7z"/>
		<path class="st2" d="M96,42.7h21.3V64H96V42.7z"/>
		<path class="st2" d="M437.3,42.7h21.3V64h-21.3V42.7z"/>
		<path class="st2" d="M53.3,416h21.3v21.3H53.3V416z"/>
		<path class="st2" d="M96,416h21.3v21.3H96V416z"/>
		<path class="st2" d="M437.3,416h21.3v21.3h-21.3V416z"/>
		<path class="st2" d="M224,394.7h-21.3V416h-64v21.3h64v21.3H224v-21.3h192V416H224V394.7z"/>
		<path class="st2" d="M426.7,138.7H85.3c-17.7,0-32,14.3-32,32V384h21.3V170.7c0-5.9,4.8-10.7,10.7-10.7h341.3
			c5.9,0,10.7,4.8,10.7,10.7V384h21.3V170.7C458.7,153,444.3,138.7,426.7,138.7z"/>
		<path class="st2" d="M224,330.7c1.9,0,3.7-0.5,5.3-1.4l74.7-42.7c5.1-2.9,6.9-9.4,4-14.6c-0.9-1.6-2.3-3-4-4l-74.7-42.7
			c-5.1-2.9-11.6-1.2-14.6,3.9c-0.9,1.6-1.4,3.5-1.4,5.4V320C213.3,325.9,218.1,330.7,224,330.7z M234.7,253l42.5,24.3l-42.5,24.3
			L234.7,253L234.7,253z"/>
	</g>
</g>
</svg>
