<?xml version="1.0" encoding="utf-8"?>
<!-- Generator: Adobe Illustrator 27.0.1, SVG Export Plug-In . SVG Version: 6.00 Build 0)  -->
<svg version="1.1" id="Iconly_Light-outline_Profile"
	 xmlns="http://www.w3.org/2000/svg" xmlns:xlink="http://www.w3.org/1999/xlink" x="0px" y="0px" viewBox="0 0 24 24"
	 style="enable-background:new 0 0 24 24;" xml:space="preserve">
<style type="text/css">
	.st0{fill:#917CC4;}
	.st1{fill:#F8CD9A;}
</style>
<g id="Profile" transform="translate(4 2)">
	<path id="Profile-2" class="st0" d="M6.7,20c-0.1,0-0.2,0-0.3,0l-0.1,0c-0.1,0-0.3,0-0.4,0c-0.8-0.1-1.6-0.2-2.3-0.3l-0.3-0.1
		c-1.2-0.1-2.3-0.8-3-1.9C0.1,17.2,0,16.8,0,16.4c0-0.4,0.1-0.9,0.3-1.3C1,14,2.2,13.3,3.5,13.2C4.3,13,5,12.9,5.8,12.8
		c0.7-0.1,1.4-0.1,2.2-0.1s1.5,0,2.2,0.1l0.5,0c0.6,0.1,1.3,0.2,1.9,0.3c1.7,0.4,2.7,1,3.2,2c0.4,0.8,0.4,1.7,0,2.5
		c-0.5,1-1.5,1.6-3.2,1.9L12,19.7c-0.6,0.1-1.2,0.2-1.9,0.2C9.5,20,8.7,20,8,20C7.6,20,7.1,20,6.7,20z M5.9,14.3
		c-0.7,0.1-1.4,0.2-2.2,0.3c-0.9,0.1-1.7,0.5-2.2,1.2c-0.1,0.2-0.1,0.4-0.1,0.6c0,0.2,0,0.4,0.1,0.6c0.3,0.5,1,0.9,2.2,1.2l0.4,0.1
		c0.6,0.1,1.2,0.2,1.9,0.2c0.1,0,0.2,0,0.3,0l0.4,0c0.4,0,0.9,0,1.3,0c0.7,0,1.4,0,2-0.1c0.7,0,1.5-0.2,2.2-0.3l0.2,0
		c1.1-0.2,1.7-0.6,2-1.1c0.2-0.4,0.2-0.9,0-1.3c-0.2-0.5-1-0.9-2.2-1.2c-0.7-0.1-1.4-0.3-2.2-0.3h0c-0.7-0.1-1.4-0.1-2-0.1
		S6.6,14.2,5.9,14.3L5.9,14.3z"/>
</g>
<path class="st1" d="M6.7,7.3C6.7,4.4,9.1,2,12,2c2.9,0,5.3,2.4,5.3,5.3c0,2.9-2.4,5.3-5.3,5.3C9.1,12.7,6.7,10.3,6.7,7.3z M8.1,7.3
	c0,2.1,1.7,3.9,3.9,3.9c2.1,0,3.9-1.7,3.9-3.9c0-2.1-1.7-3.9-3.9-3.9C9.9,3.5,8.1,5.2,8.1,7.3z"/>
</svg>
