<?xml version="1.0" encoding="utf-8"?>
<!-- Generator: Adobe Illustrator 27.0.1, SVG Export Plug-In . SVG Version: 6.00 Build 0)  -->
<svg version="1.1" id="Layer_1" xmlns="http://www.w3.org/2000/svg" xmlns:xlink="http://www.w3.org/1999/xlink" x="0px" y="0px"
	 viewBox="0 0 20 17.5" style="enable-background:new 0 0 20 17.5;" xml:space="preserve">
<style type="text/css">
	.st0{opacity:0.5;fill:#917CC4;enable-background:new    ;}
	.st1{opacity:0.5;fill:#F8CD9A;enable-background:new    ;}
</style>
<path class="st0" d="M18.1,0h-5c-1,0-1.9,0.8-1.9,1.9v5c0,1,0.8,1.9,1.9,1.9l0,0h3.1v2.5c0,1.4-1.1,2.5-2.5,2.5h-0.3
	c-0.5,0-0.9,0.4-0.9,0.9c0,0,0,0,0,0v1.9c0,0.5,0.4,0.9,0.9,0.9c0,0,0,0,0,0h0.3c3.5,0,6.2-2.8,6.2-6.2c0,0,0,0,0,0V1.9
	C20,0.8,19.2,0,18.1,0z"/>
<path class="st1" d="M6.9,0h-5C0.8,0,0,0.8,0,1.9v5c0,1,0.8,1.9,1.9,1.9l0,0H5v2.5c0,1.4-1.1,2.5-2.5,2.5H2.2
	c-0.5,0-0.9,0.4-0.9,0.9c0,0,0,0,0,0v1.9c0,0.5,0.4,0.9,0.9,0.9c0,0,0,0,0,0h0.3c3.5,0,6.2-2.8,6.2-6.2c0,0,0,0,0,0V1.9
	C8.8,0.8,7.9,0,6.9,0z"/>
</svg>
