<?xml version="1.0" encoding="utf-8"?>
<!-- Generator: Adobe Illustrator 27.0.1, SVG Export Plug-In . SVG Version: 6.00 Build 0)  -->
<svg version="1.1" id="Layer_1" xmlns="http://www.w3.org/2000/svg" xmlns:xlink="http://www.w3.org/1999/xlink" x="0px" y="0px"
	 viewBox="0 0 24 24" style="enable-background:new 0 0 24 24;" xml:space="preserve">
<style type="text/css">
	.st0{fill:none;stroke:#917CC4;stroke-width:1.5;stroke-linecap:round;stroke-linejoin:round;}
	.st1{fill:none;stroke:#F8CD9A;stroke-width:1.5;stroke-linecap:round;stroke-linejoin:round;}
</style>
<path class="st0" d="M18.9,5.1c0.4,0.2,0.7,0.6,0.7,1v6.8c0,1.9-0.7,3.7-1.9,5.1c-0.6,0.7-1.4,1.3-2.2,1.7l-3.6,1.9l-3.6-1.9
	c-0.8-0.4-1.6-1-2.2-1.7c-1.2-1.4-1.9-3.2-1.9-5.1V6.2c0-0.5,0.3-0.9,0.7-1l6.6-2.3c0.2-0.1,0.5-0.1,0.7,0L18.9,5.1z"/>
<path class="st1" d="M9.3,11.9l1.9,1.9l3.9-3.9"/>
</svg>
