<?xml version="1.0" encoding="utf-8"?>
<!-- Generator: Adobe Illustrator 27.0.1, SVG Export Plug-In . SVG Version: 6.00 Build 0)  -->
<svg version="1.1" id="Layer_1" xmlns="http://www.w3.org/2000/svg" xmlns:xlink="http://www.w3.org/1999/xlink" x="0px" y="0px"
	 viewBox="0 0 28 28" style="enable-background:new 0 0 28 28;" xml:space="preserve">
<style type="text/css">
	.st0{fill:#F8CD9A;}
	.st1{fill:#917CC4;}
</style>
<g>
	<g>
		<path class="st0" d="M6.9,19.2v2.6c0,0.4,0.4,0.8,0.8,0.8h1c0.2,0.4,0.4,0.7,0.6,1l-0.5,0.9c-0.2,0.4-0.1,0.9,0.3,1.1l2.8,1.6
			c0.4,0.2,0.9,0.1,1.1-0.3l0.5-0.9c0.4,0,0.8,0,1.2,0l0.5,0.9c0.2,0.4,0.7,0.5,1.1,0.3l2.8-1.6c0.4-0.2,0.5-0.7,0.3-1.1l-0.5-0.9
			c0.2-0.3,0.4-0.7,0.6-1h1c0.4,0,0.8-0.4,0.8-0.8v-2.6 M19.7,20.9h-0.8c-0.3,0-0.6,0.2-0.8,0.5c-0.2,0.5-0.5,1-0.9,1.5
			c-0.2,0.3-0.3,0.6-0.1,0.9l0.4,0.7l-1.4,0.8l-0.4-0.7c-0.2-0.3-0.5-0.5-0.9-0.4c-0.6,0.1-1.1,0.1-1.7,0c-0.3-0.1-0.7,0.1-0.9,0.4
			L12,25.4l-1.4-0.8l0.4-0.7c0.2-0.3,0.1-0.7-0.1-0.9c-0.4-0.4-0.7-0.9-0.9-1.5c-0.1-0.3-0.4-0.5-0.8-0.5H8.5v-1.5
			c0.9,0.1,1.8,0.2,2.7,0.3c0,0.1,0,0.3,0,0.4c0,1.6,1.3,2.9,2.9,2.9c1.6,0,2.9-1.3,2.9-2.9c0-0.1,0-0.3,0-0.4
			c0.9-0.1,1.8-0.2,2.7-0.3L19.7,20.9z M12.7,20.1c0-0.1,0-0.2,0.1-0.3c0.4,0,0.9,0,1.3,0s0.9,0,1.3,0c0,0.1,0.1,0.2,0.1,0.3
			c0,0.7-0.6,1.3-1.3,1.3C13.3,21.5,12.7,20.9,12.7,20.1z"/>
		<path class="st1" d="M27.6,17.3v-1.7c0-0.7-0.4-1.4-1.1-1.7l0,0c-0.3-5.3-3.9-9.9-9-11.4V2.3c0-1-0.8-1.9-1.9-1.9h-3.2
			c-1,0-1.9,0.8-1.9,1.9v0.2c-5.1,1.5-8.8,6-9,11.4c-0.7,0.3-1.1,1-1.1,1.7v1.7c2.6,1.2,7.5,3,13.8,2.9
			C20.4,20.2,25.1,18.5,27.6,17.3z M17.5,4.2c0.5,0.2,1.1,0.4,1.6,0.7v3h-1.6V4.2z M9,4.9c0.5-0.3,1-0.5,1.6-0.7v3.7H9L9,4.9z
			 M7.4,5.9v2.8c0,0.4,0.4,0.8,0.8,0.8h3.2c0.4,0,0.8-0.4,0.8-0.8l0,0V2.3c0-0.1,0.1-0.3,0.3-0.3h3.2c0.1,0,0.3,0.1,0.3,0.3
			c0,0,0,0,0,0v6.4c0,0.4,0.4,0.8,0.8,0.8h3.2c0.4,0,0.8-0.4,0.8-0.8V5.9c2.5,1.9,4,4.8,4.2,7.9H3.2C3.4,10.7,5,7.8,7.4,5.9z
			 M26,16.7c-7.8,2.5-16.1,2.5-23.9,0v-1.1c0-0.1,0.1-0.3,0.3-0.3h23.4c0.1,0,0.3,0.1,0.3,0.3c0,0,0,0,0,0L26,16.7z"/>
	</g>
</g>
</svg>
