<?xml version="1.0" encoding="utf-8"?>
<!-- Generator: Adobe Illustrator 27.0.1, SVG Export Plug-In . SVG Version: 6.00 Build 0)  -->
<svg version="1.1" id="Layer_1" xmlns="http://www.w3.org/2000/svg" xmlns:xlink="http://www.w3.org/1999/xlink" x="0px" y="0px"
	 viewBox="0 0 512 512" style="enable-background:new 0 0 512 512;" xml:space="preserve">
<style type="text/css">
	.st0{fill:#917CC4;}
	.st1{fill:#F8CD9A;}
</style>
<path class="st0" d="M511.8,29.2L512,0.5L396.8,42.3C355,14.7,306.5,0.1,256,0.1s-99,14.6-140.8,42.2L0,0.5l0.2,28.7
	c0.2,40.5,14.6,71.2,35.2,97.1C12.3,165.5,0.2,210.1,0.2,256v141.6l15.2,3.7c97.3,23.8,170.5,56,230.5,101.5l12.1,9.1l12.1-9.1
	c61.3-46.4,133.3-78.6,226.5-101.5l15.2-3.7V256c0-45.8-12.2-90.4-35.2-129.6C497.3,100.4,511.6,69.7,511.8,29.2L511.8,29.2z
	 M121.2,87l8.6-6.2c36.9-26.6,80.5-40.7,126.2-40.7s89.3,14.1,126.2,40.7l8.6,6.2l76.9-27.9c-11.2,39.7-43.8,66.7-80.4,97
	c-34.5,28.6-70.2,58.2-92.8,102.1l-38.5,66l-38.5-66c-22.6-43.9-58.3-73.5-92.8-102.1c-36.6-30.4-69.2-57.4-80.4-97L121.2,87z
	 M312.2,268.1L312,268L312.2,268.1L312.2,268.1z M350.8,245.3c4.6,4.1,10.7,6.6,17.3,6.6c14.2,0,25.8-11.4,26-25.6
	c1.8,4.4,2.8,9.2,2.8,14c0,21.5-18.2,39.6-39.8,39.6c-8.7,0-17.3-3.3-24.2-8.9C338.2,261.9,344.2,253.4,350.8,245.3L350.8,245.3z
	 M117.9,226.3c0.2,14.2,11.7,25.6,26,25.6c6.7,0,12.7-2.5,17.3-6.6c6.6,8.1,12.6,16.6,17.8,25.7c-6.9,5.6-15.4,8.9-24.2,8.9
	c-21.6,0-39.8-18.1-39.8-39.6C115.1,235.5,116.1,230.8,117.9,226.3z M199.8,268.1l0.2-0.1L199.8,268.1L199.8,268.1z M471.9,366.3
	C386.3,388.7,317.6,419.4,258,462c-58.8-41.8-128.8-72.5-217.8-95.7V256c0-34.7,8.3-68.6,24.1-99.1c10.8,10,22.1,19.4,33.4,28.8
	c-14.2,14.5-22.5,33.9-22.5,54.7c0,21.1,8.4,41,23.5,56.2c15.2,15.1,35.1,23.4,56.2,23.4c15.8,0,31.2-5.1,44.2-14l56.9,97.6
	l56.9-97.6c13,8.9,28.4,14,44.2,14c21.1,0,41-8.3,56.2-23.4c15.2-15.1,23.5-35.1,23.5-56.2c0-20.8-8.3-40.2-22.5-54.7
	c11.3-9.4,22.6-18.8,33.4-28.8c15.8,30.5,24.1,64.4,24.1,99.1V366.3z"/>
<path class="st1" d="M158.2,109.7c12.6-8.5,26.2-15.2,40.3-20.1c19.6,15.1,38.7,32.8,57.4,53.2c18.7-20.4,37.8-38.1,57.4-53.2
	c14.2,4.9,27.7,11.6,40.3,20.1c-28.4,19.4-55.7,44.6-82.5,76.2L256,203.9L240.8,186C213.9,154.3,186.6,129.1,158.2,109.7z"/>
</svg>
