<?xml version="1.0" encoding="utf-8"?>
<!-- Generator: Adobe Illustrator 27.0.1, SVG Export Plug-In . SVG Version: 6.00 Build 0)  -->
<svg version="1.1" id="Layer_1" xmlns="http://www.w3.org/2000/svg" xmlns:xlink="http://www.w3.org/1999/xlink" x="0px" y="0px"
	 viewBox="0 0 24 24" style="enable-background:new 0 0 24 24;" xml:space="preserve">
<style type="text/css">
	.st0{fill:none;stroke:#917CC4;stroke-width:1.5;stroke-linecap:round;stroke-linejoin:round;}
	.st1{fill:none;stroke:#F8CD9A;stroke-width:1.5;stroke-linecap:round;stroke-linejoin:round;}
</style>
<path class="st0" d="M17.9,20.4c1.9,0,3.4-1.5,3.4-3.4v-2.7c-1.2,0-2.2-1-2.2-2.2c0-1.2,1-2.2,2.2-2.2l0-2.7c0-1.9-1.5-3.4-3.4-3.4
	H6.1c-1.9,0-3.4,1.5-3.4,3.4l0,2.8C4,9.9,5,10.8,5,12.1c0,1.2-1,2.2-2.2,2.2V17c0,1.9,1.5,3.4,3.4,3.4H17.9z"/>
<path class="st1" d="M12,13.9l1.7,0.9c0.2,0.1,0.4-0.1,0.3-0.2l-0.3-1.9l1.4-1.4c0.1-0.1,0.1-0.4-0.1-0.4l-1.9-0.3l-0.9-1.8
	c-0.1-0.2-0.3-0.2-0.4,0l-0.9,1.8L9,10.8c-0.2,0-0.3,0.2-0.1,0.4l1.4,1.4l-0.3,1.9c0,0.2,0.2,0.3,0.3,0.2L12,13.9z"/>
</svg>
