<?xml version="1.0" encoding="utf-8"?>
<!-- Generator: Adobe Illustrator 27.0.1, SVG Export Plug-In . SVG Version: 6.00 Build 0)  -->
<svg version="1.1" id="Layer_1" xmlns="http://www.w3.org/2000/svg" xmlns:xlink="http://www.w3.org/1999/xlink" x="0px" y="0px"
	 viewBox="0 0 86.8 62.3" style="enable-background:new 0 0 86.8 62.3;" xml:space="preserve">
<style type="text/css">
	.st0{opacity:0.5;fill:#EAECF9;enable-background:new    ;}
	.st1{fill:#EAECF9;}
	.st2{fill:url(#SVGID_1_);}
	.st3{fill:url(#SVGID_00000085936978078160687590000010657493083350476184_);}
	.st4{fill:#FFFFFF;}
	.st5{fill:#F8CD9A;}
	.st6{fill:url(#SVGID_00000044884814572378135780000017628868448185484717_);}
	.st7{opacity:0.3;fill:#917CC4;enable-background:new    ;}
	.st8{fill:#917CC4;}
	.st9{fill:none;stroke:#EAECF9;stroke-width:2;stroke-linecap:round;stroke-linejoin:round;stroke-miterlimit:10;}
	.st10{opacity:0.41;fill:#F8CD9A;enable-background:new    ;}
	.st11{fill:url(#SVGID_00000043421003328232185520000015283887749543048623_);}
	.st12{fill:url(#SVGID_00000107561109478139824180000009426099819041443985_);}
</style>
<g>
	<g>
		<path class="st0" d="M44.1,62.3c16,0.1,29.1-12.9,29.1-28.9c0.1-16-12.9-29.1-28.9-29.1S15.2,17.1,15.2,33.2c0,0,0,0.1,0,0.1
			C15.1,49.3,28.1,62.3,44.1,62.3C44.1,62.3,44.1,62.3,44.1,62.3z"/>
		<path class="st1" d="M77.2,19c0.9-0.8,1-2.2,0.1-3.1c-0.8-0.9-2.2-1-3.1-0.1l0,0c-0.9,0.8-1,2.2-0.1,3.1
			C74.9,19.8,76.3,19.8,77.2,19z"/>
		<path class="st1" d="M27.4,6.7c0.8-0.2,1.2-1.1,0.9-1.8c-0.2-0.8-1.1-1.2-1.8-0.9c-0.8,0.2-1.2,1.1-0.9,1.8c0,0,0,0,0,0
			C25.8,6.5,26.6,7,27.4,6.7z"/>
		<path class="st1" d="M30.6,1.9c0.5-0.2,0.8-0.7,0.6-1.3s-0.7-0.8-1.3-0.6c-0.5,0.2-0.8,0.7-0.6,1.3C29.5,1.8,30,2.1,30.6,1.9z"/>
		<path class="st1" d="M77.4,9c0.4-0.3,0.4-0.9,0.1-1.3c-0.3-0.4-0.9-0.4-1.3-0.1C75.7,8,75.7,8.6,76.1,9C76.4,9.4,77,9.4,77.4,9z"
			/>
		<path class="st1" d="M54.4,2.1c0.3-0.2,0.3-0.6,0-0.9c-0.2-0.3-0.6-0.3-0.9,0c0,0,0,0,0,0c-0.3,0.2-0.3,0.6,0,0.9
			C53.7,2.3,54.1,2.3,54.4,2.1z"/>
		
			<linearGradient id="SVGID_1_" gradientUnits="userSpaceOnUse" x1="2.5777" y1="59.0357" x2="3.5827" y2="59.0357" gradientTransform="matrix(0.99 0 0 -0.994 48.889 61.0075)">
			<stop  offset="0" style="stop-color:#917CC4"/>
			<stop  offset="1" style="stop-color:#917CC4"/>
		</linearGradient>
		<path class="st2" d="M52.3,2.4V2.2l0.1-0.3c0-0.1,0-0.1-0.1-0.1h-0.1L52,1.9h-0.2l-0.3-0.1c-0.1,0-0.1,0-0.1,0.1v0.1l0.1,0.3v0.2
			l-0.1,0.3c0,0.1,0,0.1,0.1,0.1h0.1l0.3-0.1H52l0.3,0.1c0.1,0,0.1,0,0.1-0.1V2.7L52.3,2.4z"/>
		
			<linearGradient id="SVGID_00000012471641920801106940000010102669761399063714_" gradientUnits="userSpaceOnUse" x1="63.5704" y1="-61.7681" x2="64.5264" y2="-61.7681" gradientTransform="matrix(0.7998 0 0 -0.76 -5.6882 -46.0207)">
			<stop  offset="0" style="stop-color:#917CC4"/>
			<stop  offset="1" style="stop-color:#917CC4"/>
		</linearGradient>
		<path style="fill:url(#SVGID_00000012471641920801106940000010102669761399063714_);" d="M45.3,1.3l0.2-0.1h0.2l0.2,0.1H46V1.2
			L45.8,1V0.8L46,0.6V0.5h-0.1l-0.2,0.1h-0.2l-0.2-0.1h-0.1v0.1l0.1,0.2V1L45.3,1.3C45.1,1.3,45.1,1.3,45.3,1.3z"/>
		<path class="st4" d="M60.3,57.2H7.7l9.6-44.4H70L60.3,57.2z"/>
		<path class="st5" d="M60.3,57.2H7.7l9.6-44.4H70L60.3,57.2z"/>
		
			<linearGradient id="SVGID_00000062181707867324657550000002337017946419120571_" gradientUnits="userSpaceOnUse" x1="-236.3501" y1="442.5983" x2="-235.349" y2="442.5983" gradientTransform="matrix(14.391 0 0 -44.361 3416.865 19669.0918)">
			<stop  offset="0" style="stop-color:#F8CD9A"/>
			<stop  offset="1" style="stop-color:#F8CD9A"/>
		</linearGradient>
		<path style="fill:url(#SVGID_00000062181707867324657550000002337017946419120571_);" d="M29.9,57.2H19.1c-1.9,0-3.5-1.6-3.5-3.5
			c0-0.1,0-0.1,0-0.2l1.7-40.7h2.6L29.9,57.2z"/>
		<path class="st4" d="M81.5,57.2H28.9L20,23.1l-0.1-0.2l-2.6-10.1H70l2.3,8.7l0.3,1.3l0.1,0.2L81.5,57.2z"/>
		<path class="st5" d="M72.6,22.9H19.9l-2.6-10.1H70l2.3,8.7L72.6,22.9z"/>
		<path class="st7" d="M31.2,20c1,0,1.9-0.8,1.9-1.9c0-1-0.8-1.9-1.9-1.9c-1,0-1.9,0.8-1.9,1.9c0,0,0,0,0,0
			C29.3,19.2,30.1,20,31.2,20C31.2,20,31.2,20,31.2,20z"/>
		<path class="st7" d="M61.9,20c1,0,1.9-0.8,1.9-1.9c0-1-0.8-1.9-1.9-1.9c-1,0-1.9,0.8-1.9,1.9c0,0,0,0,0,0
			C60.1,19.2,60.9,20,61.9,20z"/>
		<path class="st8" d="M30.7,18.9c-0.4,0-0.6-0.3-0.6-0.6c0-0.4,0.3-0.6,0.6-0.6l0,0c1.3,0,2.6-1.8,2.6-4.6v-0.2
			c-0.1-2.7-1.4-4.3-2.6-4.3c-1.2,0-2.4,1.6-2.6,4h-1.3c0.2-3,1.9-5.3,3.9-5.3c2.2,0,3.8,2.5,4,5.7v0.2
			C34.7,16.3,32.9,18.9,30.7,18.9z"/>
		<path class="st8" d="M61.3,18.9c-0.4,0-0.6-0.3-0.6-0.6c0-0.4,0.3-0.6,0.6-0.6l0,0c1.3,0,2.6-1.8,2.6-4.6v-0.2
			c-0.1-2.7-1.4-4.3-2.6-4.3c-1.2,0-2.4,1.6-2.6,4h-1.3c0.2-3,1.9-5.3,3.9-5.3c2.2,0,3.8,2.5,4,5.7v0.2
			C65.2,16.3,63.5,18.9,61.3,18.9z"/>
		<path class="st9" d="M1,57.1h84.8"/>
		<path class="st5" d="M62.2,36c-0.3,0-0.6-0.3-0.6-0.6c0-0.3,0.2-0.6,0.5-0.6c0,0,0,0,0.1,0H64c0.3,0,0.6,0.3,0.6,0.6
			c0,0.3-0.3,0.5-0.6,0.6H62.2z"/>
		<path class="st10" d="M37.4,52.5c-0.3,0-0.5-0.2-0.6-0.4l-0.9-3.4h-4.6c-0.3,0-0.6-0.3-0.6-0.6s0.3-0.6,0.6-0.6h4.3l-1.5-5.1h-4.4
			c-0.3,0-0.6-0.3-0.6-0.6c0-0.3,0.2-0.6,0.5-0.6c0,0,0,0,0.1,0h4.1L32.3,36h-4.2c-0.3,0-0.6-0.3-0.6-0.6c0-0.3,0.2-0.6,0.5-0.6
			c0,0,0,0,0.1,0H32l-1.5-5.1h-4c-0.3,0-0.6-0.3-0.6-0.6c0-0.3,0.2-0.6,0.5-0.6c0,0,0,0,0.1,0h3.7l-0.6-2.1
			c-0.1-0.3,0.1-0.6,0.4-0.7h0.2c0.3,0,0.5,0.2,0.6,0.4l0.7,2.4h4.7c0.3,0,0.6,0.2,0.6,0.5c0,0,0,0,0,0.1c0,0.3-0.2,0.6-0.5,0.6
			c0,0,0,0-0.1,0h-4.3l1.5,5.1h7.3l-2.3-8.4c-0.1-0.3,0.1-0.6,0.4-0.7h0.2c0.3,0,0.5,0.2,0.6,0.4l0.7,2.4h2.5c0.3,0,0.6,0.2,0.6,0.5
			c0,0,0,0,0,0.1c0,0.3-0.3,0.6-0.6,0.6h-2.2l1.5,5.1h5c0.3,0,0.6,0.3,0.6,0.6c0,0.3-0.2,0.6-0.5,0.6c0,0,0,0-0.1,0h-4.6l1.5,5.1
			h7.4L48,29.7h-1.6c-0.3,0-0.6-0.3-0.6-0.6c0-0.3,0.3-0.5,0.6-0.6h1.2L47,26.4c0-0.2,0-0.3,0.1-0.5c0.1-0.1,0.2-0.2,0.4-0.3h0.2
			c0.3,0,0.5,0.2,0.6,0.4l0.7,2.4h1.2c0.3,0,0.6,0.2,0.6,0.5c0,0,0,0,0,0.1c0,0.3-0.2,0.6-0.5,0.6c0,0,0,0-0.1,0h-0.9l1.5,5.1h7.4
			l-1.5-5.1h-3.8c-0.3,0-0.6-0.3-0.6-0.6c0-0.3,0.3-0.6,0.6-0.6h3.3l-0.6-2.1c-0.1-0.3,0.1-0.6,0.4-0.7h0.2c0.3,0,0.5,0.2,0.6,0.4
			l0.7,2.4h7.4l-0.6-2.1c-0.1-0.3,0.1-0.6,0.4-0.7h0.2c0.3,0,0.5,0.2,0.6,0.4l0.7,2.4h4.5c0.3,0,0.6,0.2,0.6,0.5c0,0,0,0,0,0.1
			c0,0.3-0.2,0.6-0.5,0.6c0,0,0,0-0.1,0h-4.4l1.5,5.1h4.4c0.3,0,0.6,0.3,0.6,0.6c0,0.3-0.2,0.6-0.5,0.6c0,0,0,0-0.1,0h-4l1.5,5.1
			h4.2c0.3,0,0.6,0.3,0.6,0.6c0,0.3-0.2,0.6-0.5,0.6c0,0,0,0-0.1,0h-3.8l1.5,5.1h4c0.3,0,0.6,0.3,0.6,0.6c0,0.3-0.3,0.6-0.6,0.6
			h-3.7l0.9,3.1c0.1,0.3-0.1,0.6-0.4,0.7h-0.2c-0.3,0-0.5-0.2-0.6-0.4l-0.9-3.4H63l0.9,3c0,0.2,0,0.3-0.1,0.5
			c-0.1,0.1-0.2,0.2-0.3,0.3h-0.2c-0.3,0-0.5-0.2-0.6-0.4l-0.9-3.3h-7.4l0.9,3c0.1,0.3-0.1,0.6-0.4,0.7h-0.2c-0.3,0-0.5-0.2-0.6-0.4
			l-0.9-3.3h-7.4l0.9,3c0.1,0.3-0.1,0.6-0.4,0.7H46c-0.3,0-0.5-0.2-0.6-0.4l-0.9-3.3h-7.4l0.9,3.1c0,0.2,0,0.3-0.1,0.5
			c-0.1,0.1-0.2,0.2-0.4,0.3L37.4,52.5z"/>
		
			<linearGradient id="SVGID_00000005228285923116136640000001954232068530081180_" gradientUnits="userSpaceOnUse" x1="-236.2223" y1="420.2135" x2="-236.0733" y2="421.1905" gradientTransform="matrix(14.63 0 0 -12.7106 3501.7373 5385.6035)">
			<stop  offset="0" style="stop-color:#917CC4"/>
			<stop  offset="1" style="stop-color:#917CC4"/>
		</linearGradient>
		<path style="fill:url(#SVGID_00000005228285923116136640000001954232068530081180_);" d="M41.8,32.6c-0.8,1.2-1.1,2.6-1,4
			c0.1,1.4,0.6,2.7,1.4,3.8c0.8,1.1,2,1.9,3.3,2.3c1.3,0.4,2.7,0.4,4,0c1.2-0.4,2.3-1.2,2.9-2.3c0.6-1.1,0.6-2.4,0.1-3.5
			c-0.6-1.1-1.6-2-2.9-2.4c-1.3-0.5-2.6-0.8-4-0.8c-0.5,0-0.9-0.4-0.9-0.9c0-0.5,0.4-0.9,0.9-0.9c0,0,0,0,0,0c1.6,0.1,3.1,0.4,4.6,1
			c1.6,0.6,2.9,1.8,3.7,3.3c0.4,0.8,0.6,1.7,0.5,2.6c0,0.9-0.3,1.7-0.7,2.5c-0.8,1.5-2.2,2.6-3.8,3c-1.6,0.5-3.2,0.4-4.8-0.1
			c-1.5-0.6-2.8-1.6-3.8-2.9c-0.9-1.3-1.5-2.8-1.5-4.4c0-1.6,0.4-3.2,1.3-4.5c0.2-0.2,0.4-0.2,0.6-0.1
			C41.8,32.2,41.9,32.4,41.8,32.6z"/>
		
			<linearGradient id="SVGID_00000150793126675676237640000010053926803089505163_" gradientUnits="userSpaceOnUse" x1="-144.5464" y1="206.036" x2="-147.2274" y2="209.973" gradientTransform="matrix(2.3467 0 0 -1.5954 418.2312 384.1113)">
			<stop  offset="1.100000e-02" style="stop-color:#917CC4"/>
			<stop  offset="1" style="stop-color:#FFFFFF"/>
		</linearGradient>
		<path style="fill:url(#SVGID_00000150793126675676237640000010053926803089505163_);" d="M76.9,54.7c-0.6-0.2-0.9-0.8-0.6-1.4
			c0,0,0,0,0,0c0-0.1,0.1-0.1,0.2-0.1h1.9c0.1,0,0.2,0.1,0.2,0.1c0.1,0.4,0,0.9-0.3,1.2C77.8,54.8,77.3,54.8,76.9,54.7z"/>
	</g>
</g>
</svg>
