<?xml version="1.0" encoding="utf-8"?>
<!-- Generator: Adobe Illustrator 27.0.1, SVG Export Plug-In . SVG Version: 6.00 Build 0)  -->
<svg version="1.1" id="Layer_1" xmlns="http://www.w3.org/2000/svg" xmlns:xlink="http://www.w3.org/1999/xlink" x="0px" y="0px"
	 viewBox="0 0 512 512" style="enable-background:new 0 0 512 512;" xml:space="preserve">
<style type="text/css">
	.st0{fill:#FFFFFF;}
	.st1{fill:#F8CD9A;}
	.st2{fill:#917CC4;}
</style>
<g>
	<g>
		<path class="st0" d="M384,380.3v14.4c17.3,8.2,35.1,15.4,53.3,21.3c32,10.7,32,32,32,32v64H256v-64c0,0,0-21.3,32-32
			c18.2-6,36-13.1,53.3-21.3v-14.4c-25.6-9-42.7-33.2-42.7-60.3v-32c0-35.3,28.7-64,64-64s64,28.7,64,64v32
			C426.7,347.1,409.6,371.3,384,380.3z"/>
		<path class="st0" d="M170.7,380.3v14.4C188,402.9,205.8,410,224,416c32,10.7,32,32,32,32v64H42.7v-64c0,0,0-21.3,32-32
			c18.2-6,36-13.1,53.3-21.3v-14.4c-25.6-9-42.7-33.2-42.7-60.3v-32c0-35.3,28.7-64,64-64s64,28.7,64,64v32
			C213.3,347.1,196.2,371.3,170.7,380.3z"/>
	</g>
	<g>
		<path class="st1" d="M277.3,380.3v14.4c17.3,8.2,35.1,15.4,53.3,21.3c32,10.7,32,32,32,32v64H149.3v-64c0,0,0-21.3,32-32
			c18.2-6,36-13.1,53.3-21.3v-14.4c-25.6-9-42.7-33.2-42.7-60.3v-32c0-35.3,28.7-64,64-64s64,28.7,64,64v32
			C320,347.1,302.9,371.3,277.3,380.3z"/>
		<path class="st1" d="M501.3,53.3V224H10.7V53.3c0-23.6,19.1-42.7,42.7-42.7h405.3C482.2,10.7,501.3,29.8,501.3,53.3z"/>
	</g>
	<path class="st0" d="M74.7,64h192v42.7h-192C74.7,106.7,74.7,64,74.7,64z"/>
	<g>
		<path class="st2" d="M458.7,0H53.3C23.9,0,0,23.9,0,53.3V224h21.3V53.3c0-17.7,14.3-32,32-32h405.3c17.7,0,32,14.3,32,32V224H512
			V53.3C512,23.9,488.1,0,458.7,0z"/>
		<path class="st2" d="M334,405.9c-15.6-5.2-31-11.2-46-18v-0.5c26-12.4,42.6-38.6,42.7-67.4v-32c0-41.2-33.4-74.7-74.7-74.7
			s-74.7,33.4-74.7,74.7v32c0.1,28.8,16.6,55,42.7,67.4v0.5c-15,6.8-30.4,12.8-46,18c-38.8,12.9-39.3,40.9-39.3,42.1v64H160v-63.7
			c0-0.6,1.1-14.3,24.7-22.2c18.7-6.1,37-13.4,54.7-21.9c3.6-1.8,5.9-5.5,5.9-9.6v-14.4c0-4.5-2.8-8.5-7.1-10.1
			c-21.3-7.5-35.5-27.6-35.6-50.2v-32c0-29.5,23.9-53.3,53.3-53.3s53.3,23.9,53.3,53.3v32c0,22.6-14.3,42.7-35.6,50.2
			c-4.3,1.5-7.1,5.5-7.1,10.1v14.4c0,4.1,2.3,7.8,5.9,9.6c17.8,8.5,36,15.8,54.7,21.9C350.9,434,352,447.7,352,448v64h21.3v-64
			C373.3,446.8,372.9,418.8,334,405.9L334,405.9z"/>
		<path class="st2" d="M138.7,380.3c0-4.5-2.8-8.5-7.1-10.1C110.3,362.7,96,342.6,96,320v-32c0-29.5,23.8-53.4,53.3-53.4
			c8.9,0,17.7,2.2,25.5,6.5l10.2-18.8c-36.2-19.7-81.6-6.2-101.2,30c-5.9,11-9.1,23.2-9,35.7v32c0.1,28.8,16.6,55,42.7,67.4v0.5
			c-15,6.8-30.4,12.8-46,18C32.4,418.8,32,446.8,32,448v64h21.3v-63.7c0-0.6,1.1-14.3,24.7-22.2c18.7-6.1,37-13.4,54.7-21.9
			c3.6-1.8,5.9-5.5,5.9-9.6V380.3z"/>
		<path class="st2" d="M245.3,458.7h21.3V480h-21.3L245.3,458.7L245.3,458.7z"/>
		<path class="st2" d="M288,458.7h21.3V480H288V458.7z"/>
		<path class="st2" d="M202.7,458.7H224V480h-21.3L202.7,458.7L202.7,458.7z"/>
		<path class="st2" d="M440.7,405.9c-15.6-5.2-31-11.2-46-18v-0.5c26-12.4,42.6-38.6,42.7-67.4v-30.3c1-41.2-31.6-75.4-72.9-76.4
			c-13-0.3-26,2.8-37.4,9l10.2,18.7c11.6-6.3,25.1-8.1,37.9-5c24.4,6.3,41.4,28.5,40.9,53.7V320c0,22.6-14.3,42.7-35.6,50.2
			c-4.3,1.5-7.1,5.5-7.1,10.1v14.4c0,4.1,2.3,7.8,5.9,9.6c17.8,8.5,36,15.8,54.7,21.9c23.6,7.8,24.7,21.5,24.7,21.8v64H480v-64
			C480,446.8,479.6,418.8,440.7,405.9L440.7,405.9z"/>
		<path class="st2" d="M266.7,53.3h-192C68.8,53.3,64,58.1,64,64v42.7c0,5.9,4.8,10.7,10.7,10.7h192c5.9,0,10.7-4.8,10.7-10.7V64
			C277.3,58.1,272.6,53.3,266.7,53.3z M256,96H85.3V74.7H256V96z"/>
		<path class="st2" d="M298.7,53.3H320v21.3h-21.3V53.3z"/>
		<path class="st2" d="M341.3,53.3h21.3v21.3h-21.3V53.3z"/>
		<path class="st2" d="M298.7,96H448v21.3H298.7V96z"/>
		<path class="st2" d="M170.8,149.3c-5.4,0.6-10.2-3.3-10.8-8.7c-0.1-0.6-0.1-1.3,0-2h-21.3c-0.5,17.2,13,31.5,30.2,32
			c0.6,0,1.2,0,1.8,0h74.7V192h21.3v-21.3h74.7c17.2,0.5,31.5-13,32-30.2c0-0.6,0-1.2,0-1.8H352c0.5,5.4-3.4,10.1-8.8,10.7
			c-0.6,0.1-1.3,0.1-1.9,0L170.8,149.3L170.8,149.3z"/>
	</g>
</g>
</svg>
