<?xml version="1.0" encoding="utf-8"?>
<!-- Generator: Adobe Illustrator 27.0.1, SVG Export Plug-In . SVG Version: 6.00 Build 0)  -->
<svg version="1.1" id="Layer_1" xmlns="http://www.w3.org/2000/svg" xmlns:xlink="http://www.w3.org/1999/xlink" x="0px" y="0px"
	 viewBox="0 0 512 512" style="enable-background:new 0 0 512 512;" xml:space="preserve">
<style type="text/css">
	.st0{fill:#FFFFFF;}
	.st1{fill:#F8CD9A;}
	.st2{fill:#917CC4;}
</style>
<g>
	<g>
		<path class="st0" d="M458.7,160v213.3c0,0-10.7,53.3-53.3,53.3v74.7h-224V416c0-32-21.3-32-21.3-32H96
			c-17.3,0.4-31.6-13.4-32-30.7c0-0.4,0-0.9,0-1.3v-39.8c-8.7-8.1-20.1-12.9-32-13.5c-11.5,0.2-21.1-8.9-21.3-20.4
			c0-0.3,0-0.6,0-0.9L64,180.7V160c0-82.5,66.9-149.3,149.3-149.3h85.3C381.1,10.7,458.7,77.5,458.7,160L458.7,160z"/>
		<path class="st0" d="M501.3,170.7V224l-10.7,10.7h-21.3v-64H501.3z"/>
	</g>
	<g>
		<path class="st1" d="M437.3,123l-138.7,58.3L160,123L96,96l202.7-85.3L501.3,96L437.3,123z"/>
		<path class="st1" d="M437.3,123v165l-138.7,64L160,288V123l138.7,58.3L437.3,123z"/>
	</g>
	<g>
		<path class="st2" d="M448,372.2c-1.5,6.4-11.8,43.8-42.7,43.8c-5.9,0-10.7,4.8-10.7,10.7v64H192V416c0-33.7-20.9-42.7-32-42.7H96
			c-11.1,0.7-20.6-7.7-21.3-18.8c-0.1-0.9-0.1-1.7,0-2.6v-39.8c0-3.1-1.3-6-3.6-8C60.4,294.4,46.5,288.6,32,288
			c-5.1,0.6-9.8-3-10.4-8.2c0,0,0-0.1,0-0.1l51.8-93.9c0.9-1.6,1.3-3.4,1.3-5.2v-31.3H53.3v28.6l-52,94.2c-0.9,1.6-1.3,3.4-1.3,5.2
			c-0.5,17.2,13,31.5,30.2,32c0.6,0,1.2,0,1.8,0c7.8,0.4,15.2,3.2,21.3,8V352c-0.7,22.9,17.3,42,40.2,42.7c0.8,0,1.6,0,2.4,0h63.7
			c1.8,0.1,11,1.7,11,21.3v85.3c0,5.9,4.8,10.7,10.7,10.7h224c5.9,0,10.7-4.8,10.7-10.7v-65c33.3-6.3,49.2-41.5,53.1-60.9
			c0.1-0.7,0.2-1.4,0.2-2.1v-42.7H448L448,372.2L448,372.2z"/>
		<path class="st2" d="M505.5,86.2L302.8,0.8c-2.6-1.1-5.6-1.1-8.3,0L91.9,86.2c-5.4,2.3-8,8.5-5.7,14c1.1,2.6,3.1,4.6,5.7,5.7
			l57.5,24.2v158c0,4.2,2.4,7.9,6.2,9.7l138.7,64c2.8,1.3,6.1,1.3,8.9,0l138.7-64c3.8-1.7,6.2-5.5,6.2-9.7V130l42.7-18V160h-21.3
			c-5.9,0-10.7,4.8-10.7,10.7v64c0,5.9,4.8,10.7,10.7,10.7h21.3c2.8,0,5.5-1.1,7.5-3.1l10.7-10.7c2-2,3.1-4.7,3.1-7.5V96
			C512,91.7,509.4,87.8,505.5,86.2z M426.7,281.2l-128,59.1l-128-59.1V139L288,188.4V256h21.3v-67.6L426.7,139L426.7,281.2
			L426.7,281.2z M298.7,169.8L123.5,96l175.2-73.8L473.9,96L298.7,169.8z M490.7,219.6l-4.4,4.4H480v-42.7h10.7V219.6z"/>
		<path class="st2" d="M277.3,85.3H320v21.3h-42.7V85.3z"/>
	</g>
</g>
</svg>
