<?xml version="1.0" encoding="utf-8"?>
<!-- Generator: Adobe Illustrator 27.0.1, SVG Export Plug-In . SVG Version: 6.00 Build 0)  -->
<svg version="1.1" id="Layer_1" xmlns="http://www.w3.org/2000/svg" xmlns:xlink="http://www.w3.org/1999/xlink" x="0px" y="0px"
	 viewBox="0 0 512 512" style="enable-background:new 0 0 512 512;" xml:space="preserve">
<style type="text/css">
	.st0{fill:#FFFFFF;}
	.st1{fill:#F8D29C;}
	.st2{fill:#917CC4;}
</style>
<g>
	<circle class="st0" cx="202.7" cy="384" r="21.3"/>
	<path class="st1" d="M501.3,192v277.3L416,394.7V480c0,11.8-9.6,21.3-21.3,21.3H32c-11.8,0-21.3-9.6-21.3-21.3V181.3
		c0-11.8,9.6-21.3,21.3-21.3h362.7c11.8,0,21.3,9.6,21.3,21.3v85.3L501.3,192z M224,384c0-11.8-9.6-21.3-21.3-21.3
		c-11.8,0-21.3,9.6-21.3,21.3s9.6,21.3,21.3,21.3C214.4,405.3,224,395.8,224,384z"/>
	<path class="st0" d="M277.3,10.7c41.2,0,74.7,33.4,74.7,74.7S318.6,160,277.3,160s-74.7-33.4-74.7-74.7c0-41.2,33.4-74.6,74.6-74.7
		C277.3,10.7,277.3,10.7,277.3,10.7z M309.3,85.3c0-17.7-14.3-32-32-32s-32,14.3-32,32s14.3,32,32,32S309.3,103,309.3,85.3z"/>
	<circle class="st1" cx="277.3" cy="85.3" r="32"/>
	<path class="st0" d="M128,10.7c41.2,0,74.7,33.4,74.7,74.7S169.2,160,128,160s-74.7-33.4-74.7-74.7c0-41.2,33.4-74.6,74.6-74.7
		C127.9,10.7,128,10.7,128,10.7z M160,85.3c0-17.7-14.3-32-32-32s-32,14.3-32,32s14.3,32,32,32S160,103,160,85.3z"/>
	<circle class="st1" cx="128" cy="85.3" r="32"/>
	<g>
		<path class="st2" d="M505.7,182.3c-3.8-1.7-8.3-1.1-11.4,1.7l-67.6,59.2v-61.9c0-17.7-14.3-32-32-32H352v21.3h42.7
			c5.9,0,10.7,4.8,10.7,10.7V352h21.3v-80.5l64-56v230.3L423,386.7c-4.4-3.9-11.2-3.4-15.1,1c-1.7,1.9-2.6,4.4-2.6,7V480
			c0,5.9-4.8,10.7-10.7,10.7H32c-5.9,0-10.7-4.8-10.7-10.7V181.3c0-5.9,4.8-10.7,10.7-10.7h21.3v-21.3H32c-17.7,0-32,14.3-32,32V480
			c0,17.7,14.3,32,32,32h362.7c17.7,0,32-14.3,32-32v-61.9l67.6,59.2c4.4,3.9,11.2,3.4,15.1-1c1.7-1.9,2.6-4.4,2.6-7V192
			C512,187.8,509.5,184,505.7,182.3L505.7,182.3z"/>
		<path class="st2" d="M170.7,384c0,17.7,14.3,32,32,32s32-14.3,32-32s-14.3-32-32-32S170.7,366.3,170.7,384z M213.3,384
			c0,5.9-4.8,10.7-10.7,10.7c-5.9,0-10.7-4.8-10.7-10.7s4.8-10.7,10.7-10.7C208.6,373.3,213.3,378.1,213.3,384z"/>
		<path class="st2" d="M128,170.7c31.1,0,59.7-16.9,74.7-44.1c22.8,41.3,74.7,56.3,115.9,33.5s56.3-74.7,33.5-115.9
			c-22.8-41.3-74.7-56.3-115.9-33.5c-14.1,7.8-25.7,19.4-33.5,33.5C179.9,2.9,128-12.1,86.7,10.6S30.5,85.3,53.2,126.6
			C68.3,153.8,96.9,170.7,128,170.7z M277.3,21.3c35.3,0,64,28.7,64,64s-28.7,64-64,64s-64-28.7-64-64C213.4,50,242,21.4,277.3,21.3
			z M128,21.3c35.3,0,64,28.7,64,64s-28.7,64-64,64s-64-28.7-64-64C64,50,92.7,21.4,128,21.3z"/>
		<path class="st2" d="M128,128c23.6,0,42.7-19.1,42.7-42.7S151.6,42.7,128,42.7S85.3,61.8,85.3,85.3S104.4,128,128,128z M128,64
			c11.8,0,21.3,9.6,21.3,21.3s-9.6,21.3-21.3,21.3s-21.3-9.6-21.3-21.3S116.2,64,128,64z"/>
		<path class="st2" d="M277.3,128c23.6,0,42.7-19.1,42.7-42.7s-19.1-42.7-42.7-42.7s-42.7,19.1-42.7,42.7S253.8,128,277.3,128z
			 M277.3,64c11.8,0,21.3,9.6,21.3,21.3s-9.6,21.3-21.3,21.3S256,97.1,256,85.3S265.6,64,277.3,64z"/>
		<path class="st2" d="M309.3,362.7h21.3c0-70.7-57.3-128-128-128s-128,57.3-128,128H96C96,303.8,143.8,256,202.7,256
			S309.3,303.8,309.3,362.7z"/>
		<path class="st2" d="M256,362.7h21.3c0-41.2-33.4-74.7-74.7-74.7S128,321.4,128,362.7h21.3c0-29.5,23.9-53.3,53.3-53.3
			S256,333.2,256,362.7z"/>
	</g>
</g>
</svg>
