<?xml version="1.0" encoding="utf-8"?>
<!-- Generator: Adobe Illustrator 27.0.1, SVG Export Plug-In . SVG Version: 6.00 Build 0)  -->
<svg version="1.1" id="Layer_1" xmlns="http://www.w3.org/2000/svg" xmlns:xlink="http://www.w3.org/1999/xlink" x="0px" y="0px"
	 viewBox="0 0 28 28" style="enable-background:new 0 0 28 28;" xml:space="preserve">
<style type="text/css">
	.st0{fill:#917CC4;}
	.st1{fill:#F8CD9A;}
	.st2{fill:#F8CD9A;stroke:#F8CD9A;stroke-miterlimit:10;}
</style>
<g id="surface1">
	<path class="st0" d="M27.2,19.5L27.2,19.5L27.1,3.9c0-1.1-0.9-1.9-1.9-1.9H2.8C1.7,2,0.9,2.8,0.9,3.9v15.6H0.8
		c-0.5,0-0.8,0.4-0.8,0.8v1.6C0,24.2,1.8,26,4.1,26h19.8c2.3,0,4.1-1.8,4.1-4.1v-1.6C28,19.8,27.6,19.5,27.2,19.5z M2.5,3.9
		c0-0.2,0.1-0.3,0.3-0.3h22.4c0.2,0,0.3,0.1,0.3,0.3v15.6h-6.6c-0.4,0-0.7,0.2-0.8,0.6l-0.4,1.1h-7.6L9.9,20
		c-0.1-0.3-0.4-0.6-0.8-0.6H2.5V3.9z M26.4,21.9c0,1.4-1.1,2.5-2.5,2.5H4.1c-1.4,0-2.5-1.1-2.5-2.5v-0.8h6.8l0.4,1.1
		c0.1,0.3,0.4,0.6,0.8,0.6h8.8c0.4,0,0.7-0.2,0.8-0.6l0.4-1.1h6.8V21.9z"/>
	<path class="st1" d="M5.8,6.1c0,0.5-0.4,0.8-0.8,0.8c-0.5,0-0.8-0.4-0.8-0.8c0-0.5,0.4-0.8,0.8-0.8C5.4,5.2,5.8,5.6,5.8,6.1z"/>
	<path class="st2" d="M18.9,15.6v-0.3l3.2,1.6c0.5,0.3,1.2-0.1,1.2-0.7V9.1c0-0.6-0.6-1-1.2-0.7l-3.2,1.6V9.6c0-1.1-0.9-1.9-1.9-1.9
		H7.7c-1.1,0-1.9,0.9-1.9,1.9v6c0,1.1,0.9,1.9,1.9,1.9H17C18.1,17.6,18.9,16.7,18.9,15.6z M21.7,10.4v4.5l-2.7-1.4v-1.7L21.7,10.4z
		 M7.4,15.6v-6c0-0.2,0.1-0.3,0.3-0.3H17c0.2,0,0.3,0.1,0.3,0.3v6c0,0.2-0.1,0.3-0.3,0.3H7.7C7.6,15.9,7.4,15.8,7.4,15.6z"/>
	<path class="st1" d="M11.5,11H9.9c-0.5,0-0.8,0.4-0.8,0.8s0.4,0.8,0.8,0.8h1.6c0.5,0,0.8-0.4,0.8-0.8S12,11,11.5,11z"/>
</g>
</svg>
