<?xml version="1.0" encoding="utf-8"?>
<!-- Generator: Adobe Illustrator 27.0.1, SVG Export Plug-In . SVG Version: 6.00 Build 0)  -->
<svg version="1.1" id="Layer_1" xmlns="http://www.w3.org/2000/svg" xmlns:xlink="http://www.w3.org/1999/xlink" x="0px" y="0px"
	 viewBox="0 0 1000 1000" style="enable-background:new 0 0 1000 1000;" xml:space="preserve">
<style type="text/css">
	.st0{fill:#917CC4;}
	.st1{fill:#F8CD9A;stroke:#FFFFFF;stroke-width:30;stroke-miterlimit:10;}
</style>
<circle class="st0" cx="500" cy="500" r="500"/>
<path class="st1" d="M486.5,564.2c0,0-111.2-95.7-130.5-125.1s-29-58.6-29-87.9c0-42.2,16.1-78.3,48.2-108.5
	c32.1-30.2,71.8-45.3,119-45.3c30.2,0,59.9,7.2,86.7,21.1c20,10.2,86.7,72.1,133.8,119.4c21.9,21.9,21.9,57.5,0,79.4
	c-0.8,0.8-1.7,1.6-2.5,2.4l0,0c-22.4,19.8-56.4,18.5-77.3-2.9c-46.9-47.8-119-108.6-142.5-108.6c-15.2,0-27.6,4.1-37.3,12.2
	c-9.7,8.1-14.5,17.3-14.5,27.5c0,10.2,3.5,19.9,10.4,29c9.4,12.1,84.9,80.3,84.9,80.3s88.8,74.3,108.1,103.7s29,58.6,29,87.9
	c0,42.2-16.1,78.3-48.2,108.5s-71.8,45.3-119,45.3c-30.2,0-59.9-7.2-86.7-21.1c-20-10.2-86.7-72.1-133.8-119.4
	c-21.9-21.9-21.9-57.5,0-79.4c0.8-0.8,1.7-1.6,2.5-2.4l0,0c22.4-19.8,56.4-18.5,77.3,2.8C411.9,631,484,691.7,507.6,691.7
	c15.2,0,27.6-4.1,37.3-12.2c9.7-8.1,14.5-17.3,14.5-27.5c0-10.2-3.4-19.9-10.3-29C539.6,611,486.5,564.2,486.5,564.2z"/>
</svg>
