<?xml version="1.0" encoding="utf-8"?>
<!-- Generator: Adobe Illustrator 27.0.1, SVG Export Plug-In . SVG Version: 6.00 Build 0)  -->
<svg version="1.1" id="Layer_1" xmlns="http://www.w3.org/2000/svg" xmlns:xlink="http://www.w3.org/1999/xlink" x="0px" y="0px"
	 viewBox="0 0 24 24" style="enable-background:new 0 0 24 24;" xml:space="preserve">
<style type="text/css">
	.st0{fill:none;stroke:#F8CD9A;stroke-width:1.5;stroke-linecap:round;stroke-linejoin:round;stroke-miterlimit:10;}
	.st1{fill:none;stroke:#917CC4;stroke-width:1.5;stroke-linecap:round;stroke-linejoin:round;stroke-miterlimit:10;}
</style>
<path class="st0" d="M16.3,10l3.3-2.7c0.5-0.4,1.3-0.4,1.8,0.2c0.2,0.2,0.3,0.5,0.3,0.8l0,7.3c0,0.7-0.6,1.2-1.3,1.2
	c-0.3,0-0.6-0.1-0.8-0.3l-3.3-2.7"/>
<path class="st1" d="M16.3,15.5c0,1.9-1.4,3.4-3.3,3.5c0,0,0,0,0,0c-0.1,0-7,0-7,0c-1.9,0.2-3.5-1.2-3.7-3c0-0.1,0-7.5,0-7.5
	C2.2,6.6,3.7,5.1,5.6,5c0,0,0,0,0,0l7,0c1.9-0.2,3.5,1.2,3.7,3.1C16.3,8.2,16.3,15.5,16.3,15.5z"/>
</svg>
