<?xml version="1.0" encoding="utf-8"?>
<!-- Generator: Adobe Illustrator 27.0.1, SVG Export Plug-In . SVG Version: 6.00 Build 0)  -->
<svg version="1.1" id="Layer_1" xmlns="http://www.w3.org/2000/svg" xmlns:xlink="http://www.w3.org/1999/xlink" x="0px" y="0px"
	 viewBox="0 0 24 24" style="enable-background:new 0 0 24 24;" xml:space="preserve">
<style type="text/css">
	.st0{fill:none;stroke:#917CC4;stroke-width:1.5;stroke-linecap:round;stroke-linejoin:round;stroke-miterlimit:10;}
	.st1{fill:none;stroke:#F8CD9A;stroke-width:1.5;stroke-linecap:round;stroke-linejoin:round;stroke-miterlimit:10;}
</style>
<g transform="translate(2.5 1.5)">
	<path class="st0" d="M18.3,6.1L17.7,5c-0.5-0.9-1.7-1.2-2.6-0.7l0,0c-0.9,0.5-2.1,0.2-2.6-0.7c0,0,0,0,0,0
		c-0.2-0.3-0.3-0.6-0.3-0.9l0,0c0-1.1-0.8-1.9-1.9-2c0,0,0,0-0.1,0H9c-1,0-1.9,0.9-1.9,1.9c0,0,0,0,0,0l0,0c0,1-0.9,1.9-1.9,1.9
		c-0.3,0-0.6-0.1-0.9-0.3l0,0C3.4,3.8,2.2,4.1,1.7,5L1,6.1C0.5,7,0.8,8.2,1.7,8.7l0,0c0.6,0.3,1,1,1,1.7c0,0.7-0.4,1.3-1,1.7l0,0
		c-0.9,0.5-1.2,1.7-0.7,2.6c0,0,0,0,0,0l0,0l0.6,1.1c0.5,0.9,1.7,1.3,2.6,0.8c0,0,0,0,0,0l0,0c0.9-0.5,2.1-0.2,2.6,0.7c0,0,0,0,0,0
		c0.2,0.3,0.3,0.6,0.3,0.9l0,0C7.1,19.1,8,20,9,20l0,0h1.2c1.1,0,1.9-0.8,1.9-1.9l0,0c0-1,0.8-1.9,1.9-1.9c0,0,0,0,0,0
		c0.3,0,0.6,0.1,0.9,0.3l0,0c0.9,0.5,2.1,0.2,2.6-0.7l0,0l0.7-1.1c0.5-0.9,0.2-2.1-0.7-2.6c0,0,0,0,0,0l0,0
		c-0.9-0.5-1.2-1.7-0.7-2.6c0,0,0,0,0,0c0.2-0.3,0.4-0.5,0.7-0.7l0,0C18.5,8.2,18.8,7,18.3,6.1L18.3,6.1L18.3,6.1z"/>
	<circle class="st1" cx="9.7" cy="10.4" r="2.6"/>
</g>
</svg>
