<?xml version="1.0" encoding="utf-8"?>
<!-- Generator: Adobe Illustrator 27.0.1, SVG Export Plug-In . SVG Version: 6.00 Build 0)  -->
<svg version="1.1" id="Layer_1" xmlns="http://www.w3.org/2000/svg" xmlns:xlink="http://www.w3.org/1999/xlink" x="0px" y="0px"
	 viewBox="0 0 24 24" style="enable-background:new 0 0 24 24;" xml:space="preserve">
<style type="text/css">
	.st0{fill:none;stroke:#917CC4;stroke-width:1.5;stroke-linecap:round;stroke-linejoin:round;stroke-miterlimit:10;}
	.st1{fill:none;stroke:#F8CD9A;stroke-width:2;stroke-linecap:round;stroke-linejoin:round;stroke-miterlimit:10;}
</style>
<path class="st0" d="M19.1,19.1c-3,3-7.5,3.8-11.3,2c-0.4-0.2-0.9-0.4-1.4-0.4c-1.2,0-2.7,1.2-3.4,0.4s0.4-2.2,0.4-3.4
	c0-0.5-0.2-1-0.4-1.4c-2.3-5-0.1-11,4.9-13.3s11-0.1,13.3,4.9C22.8,11.6,22,16.1,19.1,19.1z"/>
<path class="st1" d="M15.9,12.4L15.9,12.4"/>
<path class="st1" d="M11.9,12.4L11.9,12.4"/>
<path class="st1" d="M7.9,12.4L7.9,12.4"/>
</svg>
