<svg width="19" height="13" viewBox="0 0 19 13" fill="none" xmlns="http://www.w3.org/2000/svg">
<path d="M1.13199 2.26398H9.203C9.82844 2.26398 10.335 1.75743 10.335 1.13199C10.335 0.506553 9.82844 0 9.203 0H1.13199C0.506553 0 0 0.506553 0 1.13199C0 1.75743 0.506553 2.26398 1.13199 2.26398Z" fill="#7061A1"/>
<path d="M1.13199 7.45832H17.274C17.8995 7.45832 18.406 6.95177 18.406 6.32633C18.406 5.70089 17.8995 5.19434 17.274 5.19434H1.13199C0.506553 5.19434 0 5.70089 0 6.32633C0 6.95177 0.506553 7.45832 1.13199 7.45832Z" fill="#7061A1"/>
<path d="M17.274 10.3887H9.20304C8.5776 10.3887 8.07104 10.8952 8.07104 11.5207C8.07104 12.1461 8.5776 12.6527 9.20304 12.6527H17.274C17.8995 12.6527 18.406 12.1461 18.406 11.5207C18.406 10.8952 17.8995 10.3887 17.274 10.3887Z" fill="#7061A1"/>
</svg>
