<svg width="32" height="32" viewBox="0 0 32 32" fill="none" xmlns="http://www.w3.org/2000/svg">
<g clip-path="url(#clip0_2340_4187)">
<path d="M0.682827 15.8086C0.682077 18.4972 1.39008 21.1224 2.73633 23.4363L0.554077 31.3423L8.70808 29.2209C10.9634 30.4391 13.4903 31.0775 16.0581 31.0776H16.0648C24.5417 31.0776 31.4421 24.2332 31.4457 15.8206C31.4473 11.7441 29.8488 7.91076 26.9446 5.02679C24.0408 2.14307 20.179 0.554107 16.0642 0.552246C7.58633 0.552246 0.686452 7.39628 0.682952 15.8086" fill="#FCFCFF"/>
<path d="M0.13375 15.8035C0.132875 18.5889 0.86625 21.308 2.2605 23.7048L0 31.8942L8.44637 29.6967C10.7736 30.9558 13.3939 31.6196 16.0601 31.6206H16.067C24.848 31.6206 31.9963 24.53 32 15.8162C32.0015 11.5932 30.3455 7.62208 27.3375 4.63479C24.3291 1.64788 20.3291 0.00173643 16.067 0C7.2845 0 0.13725 7.08961 0.13375 15.8035ZM5.16388 23.292L4.8485 22.7953C3.52275 20.7036 2.823 18.2865 2.824 15.8045C2.82675 8.56174 8.76725 2.66915 16.072 2.66915C19.6095 2.67064 22.934 4.03895 25.4345 6.52155C27.9349 9.0044 29.3108 12.3049 29.3099 15.8152C29.3066 23.058 23.366 28.9513 16.067 28.9513H16.0618C13.6851 28.9501 11.3542 28.3168 9.3215 27.12L8.83775 26.8353L3.8255 28.1393L5.16388 23.292Z" fill="#7DE08F"/>
<path d="M12.0847 9.19662C11.7864 8.53888 11.4726 8.52561 11.1889 8.51407C10.9567 8.50415 10.6912 8.5049 10.4259 8.5049C10.1604 8.5049 9.72907 8.604 9.36445 8.99904C8.99945 9.39445 7.97095 10.35 7.97095 12.2934C7.97095 14.237 9.39757 16.1152 9.59645 16.379C9.79557 16.6423 12.3506 20.7582 16.3971 22.3415C19.7601 23.6574 20.4444 23.3957 21.1743 23.3297C21.9043 23.264 23.5298 22.3744 23.8614 21.452C24.1933 20.5297 24.1933 19.7391 24.0938 19.5739C23.9943 19.4093 23.7288 19.3105 23.3307 19.113C22.9324 18.9154 20.9752 17.9598 20.6103 17.8279C20.2453 17.6962 19.9799 17.6305 19.7144 18.026C19.4489 18.4209 18.6866 19.3105 18.4542 19.5739C18.2221 19.838 17.9897 19.8708 17.5917 19.6733C17.1933 19.4751 15.9112 19.0584 14.3901 17.7128C13.2066 16.6658 12.4076 15.3727 12.1753 14.9772C11.9431 14.5823 12.1504 14.3682 12.3501 14.1714C12.5289 13.9944 12.7483 13.7101 12.9476 13.4795C13.1461 13.2488 13.2123 13.0842 13.3451 12.8208C13.4779 12.5571 13.4114 12.3264 13.3121 12.1288C13.2123 11.9313 12.4387 9.97764 12.0847 9.19662Z" fill="#7DE08F"/>
</g>
<defs>
<clipPath id="clip0_2340_4187">
<rect width="32" height="32" fill="white"/>
</clipPath>
</defs>
</svg>
