<?xml version="1.0" encoding="utf-8"?>
<!-- Generator: Adobe Illustrator 27.0.1, SVG Export Plug-In . SVG Version: 6.00 Build 0)  -->
<svg version="1.1" id="Layer_1" xmlns="http://www.w3.org/2000/svg" xmlns:xlink="http://www.w3.org/1999/xlink" x="0px" y="0px"
	 viewBox="0 0 29 24.5" style="enable-background:new 0 0 29 24.5;" xml:space="preserve">
<style type="text/css">
	.st0{fill:url(#SVGID_1_);}
	.st1{fill:url(#SVGID_00000122713247967993860470000008268925357844459188_);}
	.st2{fill:url(#SVGID_00000035503150613196192360000018183067772838467242_);}
	.st3{fill:url(#SVGID_00000031887864992087613240000009744015989544444853_);}
	.st4{fill:url(#SVGID_00000052090845445341341720000005112942616344154780_);}
	.st5{fill:url(#SVGID_00000140693532491442726440000004486609082866423194_);}
</style>
<g>
	<g>
		<linearGradient id="SVGID_1_" gradientUnits="userSpaceOnUse" x1="0.9489" y1="0.9308" x2="5.532" y2="5.5139">
			<stop  offset="4.130889e-07" style="stop-color:#9589EA"/>
			<stop  offset="0.2458" style="stop-color:#978AE7"/>
			<stop  offset="0.423" style="stop-color:#9D8DDE"/>
			<stop  offset="0.5787" style="stop-color:#A692CE"/>
			<stop  offset="0.7221" style="stop-color:#B499B8"/>
			<stop  offset="0.8568" style="stop-color:#C6A29B"/>
			<stop  offset="0.9836" style="stop-color:#DCAC78"/>
			<stop  offset="1" style="stop-color:#DFAE73"/>
		</linearGradient>
		<path class="st0" d="M3.2,1.8c0.8,0,1.5,0.7,1.5,1.5S4,4.7,3.2,4.7S1.8,4,1.8,3.2S2.4,1.8,3.2,1.8 M3.2,0C1.5,0,0,1.4,0,3.2
			s1.5,3.2,3.2,3.2S6.5,5,6.5,3.2S5,0,3.2,0L3.2,0z"/>
	</g>
	<g>
		
			<linearGradient id="SVGID_00000069365687610858659310000008002148515400270720_" gradientUnits="userSpaceOnUse" x1="12.6449" y1="-2.668" x2="24.454" y2="9.1411">
			<stop  offset="4.130889e-07" style="stop-color:#9589EA"/>
			<stop  offset="0.2458" style="stop-color:#978AE7"/>
			<stop  offset="0.423" style="stop-color:#9D8DDE"/>
			<stop  offset="0.5787" style="stop-color:#A692CE"/>
			<stop  offset="0.7221" style="stop-color:#B499B8"/>
			<stop  offset="0.8568" style="stop-color:#C6A29B"/>
			<stop  offset="0.9836" style="stop-color:#DCAC78"/>
			<stop  offset="1" style="stop-color:#DFAE73"/>
		</linearGradient>
		<path style="fill:url(#SVGID_00000069365687610858659310000008002148515400270720_);" d="M25.8,1.8c0.8,0,1.5,0.7,1.5,1.5
			s-0.7,1.5-1.5,1.5H11.3c-0.8,0-1.5-0.7-1.5-1.5s0.7-1.5,1.5-1.5H25.8 M25.8,0H11.3C9.5,0,8.1,1.4,8.1,3.2c0,1.8,1.5,3.3,3.3,3.3
			h14.4C27.6,6.5,29,5,29,3.2C29,1.4,27.6,0,25.8,0L25.8,0z"/>
	</g>
	<g>
		
			<linearGradient id="SVGID_00000122699560137511772680000003405118801117547172_" gradientUnits="userSpaceOnUse" x1="0.9489" y1="9.9443" x2="5.532" y2="14.5274">
			<stop  offset="4.130889e-07" style="stop-color:#9589EA"/>
			<stop  offset="0.2458" style="stop-color:#978AE7"/>
			<stop  offset="0.423" style="stop-color:#9D8DDE"/>
			<stop  offset="0.5787" style="stop-color:#A692CE"/>
			<stop  offset="0.7221" style="stop-color:#B499B8"/>
			<stop  offset="0.8568" style="stop-color:#C6A29B"/>
			<stop  offset="0.9836" style="stop-color:#DCAC78"/>
			<stop  offset="1" style="stop-color:#DFAE73"/>
		</linearGradient>
		<path style="fill:url(#SVGID_00000122699560137511772680000003405118801117547172_);" d="M3.2,10.8c0.8,0,1.5,0.7,1.5,1.5
			S4,13.7,3.2,13.7S1.8,13,1.8,12.2S2.4,10.8,3.2,10.8 M3.2,9C1.5,9,0,10.4,0,12.2s1.5,3.2,3.2,3.2s3.2-1.5,3.2-3.2S5,9,3.2,9L3.2,9
			z"/>
	</g>
	<g>
		
			<linearGradient id="SVGID_00000108277569208292829710000015712084323628520854_" gradientUnits="userSpaceOnUse" x1="12.6449" y1="6.3454" x2="24.454" y2="18.1546">
			<stop  offset="4.130889e-07" style="stop-color:#9589EA"/>
			<stop  offset="0.2458" style="stop-color:#978AE7"/>
			<stop  offset="0.423" style="stop-color:#9D8DDE"/>
			<stop  offset="0.5787" style="stop-color:#A692CE"/>
			<stop  offset="0.7221" style="stop-color:#B499B8"/>
			<stop  offset="0.8568" style="stop-color:#C6A29B"/>
			<stop  offset="0.9836" style="stop-color:#DCAC78"/>
			<stop  offset="1" style="stop-color:#DFAE73"/>
		</linearGradient>
		<path style="fill:url(#SVGID_00000108277569208292829710000015712084323628520854_);" d="M25.8,10.8c0.8,0,1.5,0.7,1.5,1.5
			s-0.7,1.5-1.5,1.5H11.3c-0.8,0-1.5-0.7-1.5-1.5s0.7-1.5,1.5-1.5H25.8 M25.8,9H11.3c-1.8,0-3.3,1.5-3.3,3.3s1.5,3.3,3.3,3.3h14.4
			c1.8,0,3.3-1.5,3.3-3.3S27.6,9,25.8,9L25.8,9z"/>
	</g>
	<g>
		
			<linearGradient id="SVGID_00000039105598543485396120000001954037557104546729_" gradientUnits="userSpaceOnUse" x1="0.9489" y1="18.9577" x2="5.532" y2="23.5408">
			<stop  offset="4.130889e-07" style="stop-color:#9589EA"/>
			<stop  offset="0.2458" style="stop-color:#978AE7"/>
			<stop  offset="0.423" style="stop-color:#9D8DDE"/>
			<stop  offset="0.5787" style="stop-color:#A692CE"/>
			<stop  offset="0.7221" style="stop-color:#B499B8"/>
			<stop  offset="0.8568" style="stop-color:#C6A29B"/>
			<stop  offset="0.9836" style="stop-color:#DCAC78"/>
			<stop  offset="1" style="stop-color:#DFAE73"/>
		</linearGradient>
		<path style="fill:url(#SVGID_00000039105598543485396120000001954037557104546729_);" d="M3.2,19.8c0.8,0,1.5,0.7,1.5,1.5
			c0,0.8-0.7,1.5-1.5,1.5s-1.5-0.7-1.5-1.5C1.8,20.4,2.4,19.8,3.2,19.8 M3.2,18C1.5,18,0,19.5,0,21.2s1.5,3.2,3.2,3.2
			s3.2-1.5,3.2-3.2S5,18,3.2,18L3.2,18z"/>
	</g>
	<g>
		
			<linearGradient id="SVGID_00000127034674068878571060000000936836373766273705_" gradientUnits="userSpaceOnUse" x1="10.7426" y1="17.2611" x2="18.7472" y2="25.2658">
			<stop  offset="4.130889e-07" style="stop-color:#9589EA"/>
			<stop  offset="0.2458" style="stop-color:#978AE7"/>
			<stop  offset="0.423" style="stop-color:#9D8DDE"/>
			<stop  offset="0.5787" style="stop-color:#A692CE"/>
			<stop  offset="0.7221" style="stop-color:#B499B8"/>
			<stop  offset="0.8568" style="stop-color:#C6A29B"/>
			<stop  offset="0.9836" style="stop-color:#DCAC78"/>
			<stop  offset="1" style="stop-color:#DFAE73"/>
		</linearGradient>
		<path style="fill:url(#SVGID_00000127034674068878571060000000936836373766273705_);" d="M18.1,19.8c0.8,0,1.5,0.7,1.5,1.5
			c0,0.8-0.7,1.5-1.5,1.5h-6.8c-0.8,0-1.5-0.7-1.5-1.5c0-0.8,0.7-1.5,1.5-1.5H18.1 M18.1,18h-6.8c-1.8,0-3.3,1.5-3.3,3.3
			c0,1.8,1.5,3.3,3.3,3.3h6.8c1.8,0,3.3-1.5,3.3-3.3C21.4,19.5,19.9,18,18.1,18L18.1,18z"/>
	</g>
</g>
</svg>
