<?xml version="1.0" encoding="utf-8"?>
<!-- Generator: Adobe Illustrator 27.0.1, SVG Export Plug-In . SVG Version: 6.00 Build 0)  -->
<svg version="1.1" id="Layer_1" xmlns="http://www.w3.org/2000/svg" xmlns:xlink="http://www.w3.org/1999/xlink" x="0px" y="0px"
	 viewBox="0 0 32 32" style="enable-background:new 0 0 32 32;" xml:space="preserve">
<style type="text/css">
	.st0{fill:url(#Ellipse_110_00000101821712843784339030000011572398570174677426_);}
	.st1{fill:url(#Ellipse_111_00000049916758532247148160000015369808609229737864_);}
	.st2{fill:url(#Path_909_00000062887753992967838930000011257658126681241742_);}
	.st3{fill:url(#Path_910_00000168835736490655552140000007952638173782640807_);}
	.st4{fill:url(#Path_911_00000107555300600622213650000016939475711620657074_);}
	.st5{fill:url(#Path_912_00000000223521469469127090000001085976569424264594_);}
	.st6{fill:url(#Path_913_00000036222192537865848310000008441580755961352843_);}
	.st7{fill:url(#Path_914_00000047747151218294355960000003089122233274907821_);}
	.st8{fill:url(#Path_915_00000070080219690984677620000018119276196833188741_);}
	.st9{fill:url(#Path_916_00000155121249373495446910000005314424628314645437_);}
	.st10{fill:url(#Path_917_00000168830066165294984500000016319627677376935075_);}
	.st11{fill:url(#Path_918_00000021824996789107163330000001559870218440721837_);}
	.st12{fill:url(#Path_919_00000020363604015700844230000003920546851848976279_);}
	.st13{fill:url(#Path_920_00000120543428670679232930000008296058681943737489_);}
	.st14{fill:url(#Path_921_00000148647772290129356410000003719994772459087033_);}
	.st15{fill:url(#Path_922_00000161611104292971202270000008080635921364610705_);}
	.st16{fill:url(#Path_923_00000091013883186478787270000017600589823639535756_);}
</style>
<g>
	<g>
		<g id="Mask_Group_70" transform="translate(-1232 -2185)">
			<g id="book" transform="translate(1232 2185)">
				
					<linearGradient id="Ellipse_110_00000015354338565797575150000001586077733420720286_" gradientUnits="userSpaceOnUse" x1="-816.5098" y1="398.0675" x2="-815.8018" y2="398.7756" gradientTransform="matrix(32 0 0 -32 26133 12765.4746)">
					<stop  offset="0" style="stop-color:#8055C4"/>
					<stop  offset="1" style="stop-color:#917CC4"/>
				</linearGradient>
				
					<circle id="Ellipse_110" style="fill:url(#Ellipse_110_00000015354338565797575150000001586077733420720286_);" cx="16" cy="16" r="16"/>
				
					<radialGradient id="Ellipse_111_00000158021820145138658330000004126384837871641535_" cx="-816.1562" cy="398.4211" r="0.5" gradientTransform="matrix(32 0 0 -32 26133 12765.4746)" gradientUnits="userSpaceOnUse">
					<stop  offset="0" style="stop-color:#8055C4;stop-opacity:0.8"/>
					<stop  offset="0.109" style="stop-color:#7759C4;stop-opacity:0.714"/>
					<stop  offset="0.317" style="stop-color:#8173C4;stop-opacity:0.545"/>
					<stop  offset="0.603" style="stop-color:#9963C4;stop-opacity:0.318"/>
					<stop  offset="0.952" style="stop-color:#917CC4;stop-opacity:3.900000e-02"/>
					<stop  offset="1" style="stop-color:#917CC4;stop-opacity:0"/>
				</radialGradient>
				
					<circle id="Ellipse_111" style="fill:url(#Ellipse_111_00000158021820145138658330000004126384837871641535_);" cx="16" cy="16" r="16"/>
				
					<linearGradient id="Path_909_00000024692014327232279860000015278509572222808207_" gradientUnits="userSpaceOnUse" x1="-805.0436" y1="370.4359" x2="-804.0986" y2="371.568" gradientTransform="matrix(22.229 0 0 -18.5665 17900.9355 6904.4341)">
					<stop  offset="0" style="stop-color:#917CC4"/>
					<stop  offset="1" style="stop-color:#F8CD9A"/>
				</linearGradient>
				<path id="Path_909" style="fill:url(#Path_909_00000024692014327232279860000015278509572222808207_);" d="M7,7.9H6
					c-0.5,0-1,0.4-1,1C4.8,13.9,4.8,19,5,24c0,0.5,0.5,0.9,1,1c2.5,0.1,5,0.1,7.4,0.2c0.4,0,0.8,0.2,1,0.5c0.6,0.8,1.8,1,2.6,0.4
					c0.2-0.1,0.3-0.3,0.4-0.4c0.2-0.3,0.6-0.5,1-0.5c2.5,0,5-0.1,7.4-0.2c0.5,0,1-0.4,1-1c0.2-5,0.2-10.1,0-15.1c0-0.5-0.5-0.9-1-1
					h-0.9C24.9,7.9,7,7.9,7,7.9z"/>
				
					<linearGradient id="Path_910_00000042700458062410752940000012993605711802152341_" gradientUnits="userSpaceOnUse" x1="-779.1553" y1="356.7696" x2="-777.1564" y2="358.4506" gradientTransform="matrix(13.0344 0 0 -15.497 10157.168 5561.3345)">
					<stop  offset="0" style="stop-color:#917CC4"/>
					<stop  offset="0.118" style="stop-color:#917CC4"/>
					<stop  offset="0.309" style="stop-color:#F8CD9A"/>
					<stop  offset="0.55" style="stop-color:#F8CD9A"/>
					<stop  offset="0.829" style="stop-color:#F8CD9A"/>
					<stop  offset="1" style="stop-color:#FFFFFF"/>
				</linearGradient>
				<path id="Path_910" style="fill:url(#Path_910_00000042700458062410752940000012993605711802152341_);" d="M24.5,6
					c-2.2-0.1-4.4-0.1-6.6-0.1c-1,0-1.9,0.9-1.9,1.9c-1.3,2.3-2.6,4.5-3.8,6.8c1.3,2.3,2.6,4.5,3.8,6.8c3-0.6,6.1-1.3,9.2-2
					c0.1-4.3,0-8.6-0.2-12.9C25,6.2,24.8,6,24.5,6z"/>
				
					<linearGradient id="Path_911_00000124123644822499777840000003936263057852807300_" gradientUnits="userSpaceOnUse" x1="-752.9422" y1="356.6815" x2="-750.0702" y2="358.3855" gradientTransform="matrix(9.1925 0 0 -15.495 6913.083 5560.4575)">
					<stop  offset="0" style="stop-color:#917CC4"/>
					<stop  offset="0.136" style="stop-color:#917CC4"/>
					<stop  offset="0.397" style="stop-color:#F8CD9A"/>
					<stop  offset="0.753" style="stop-color:#F8CD9A"/>
					<stop  offset="1" style="stop-color:#FFFFFF"/>
				</linearGradient>
				<path id="Path_911" style="fill:url(#Path_911_00000124123644822499777840000003936263057852807300_);" d="M14.1,5.8
					c-2.2,0-4.4,0.1-6.6,0.2C7.2,6,7,6.2,7,6.5c-0.2,4.3-0.2,8.6-0.2,12.9c3.1,0.7,6.1,1.3,9.2,2V7.8C16,6.7,15.2,5.9,14.1,5.8z"/>
				
					<linearGradient id="Path_912_00000143619761643542060820000008430726814563038375_" gradientUnits="userSpaceOnUse" x1="-684.9451" y1="121.1585" x2="-683.5461" y2="123.0855" gradientTransform="matrix(5.325 0 0 -3.867 3654.7358 482.368)">
					<stop  offset="0" style="stop-color:#8E5BC4"/>
					<stop  offset="0.361" style="stop-color:#A08AC4"/>
					<stop  offset="0.667" style="stop-color:#917CC4"/>
					<stop  offset="0.887" style="stop-color:#917CC4"/>
					<stop  offset="1" style="stop-color:#917CC4"/>
				</linearGradient>
				<path id="Path_912" style="fill:url(#Path_912_00000143619761643542060820000008430726814563038375_);" d="M8.8,7.9
					c0,1.3-0.1,2.6-0.1,3.9c1.8,0,3.6,0,5.3,0C12.3,10.4,10.6,9.2,8.8,7.9z"/>
				
					<linearGradient id="Path_913_00000076599566918988047980000007974177223594247870_" gradientUnits="userSpaceOnUse" x1="-683.5553" y1="123.251" x2="-681.5663" y2="125.932" gradientTransform="matrix(5.264 0 0 -3.9 3603.3962 496.7094)">
					<stop  offset="0" style="stop-color:#8E5BC4"/>
					<stop  offset="0.361" style="stop-color:#A08AC4"/>
					<stop  offset="0.667" style="stop-color:#917CC4"/>
					<stop  offset="0.887" style="stop-color:#917CC4"/>
					<stop  offset="1" style="stop-color:#917CC4"/>
				</linearGradient>
				<path id="Path_913" style="fill:url(#Path_913_00000076599566918988047980000007974177223594247870_);" d="M8.8,7.9
					c1.2,1.9,3.1,3.2,5.2,3.8c0-1.3,0-2.6,0-3.9C12.4,7.9,10.6,7.9,8.8,7.9L8.8,7.9z"/>
				
					<linearGradient id="Path_914_00000078749701182424039450000004373628120952676284_" gradientUnits="userSpaceOnUse" x1="-685.688" y1="122.222" x2="-684.304" y2="124.1301" gradientTransform="matrix(5.3501 0 0 -3.88 3675.8677 493.7526)">
					<stop  offset="0" style="stop-color:#8E5BC4"/>
					<stop  offset="0.361" style="stop-color:#A08AC4"/>
					<stop  offset="0.667" style="stop-color:#917CC4"/>
					<stop  offset="0.887" style="stop-color:#917CC4"/>
					<stop  offset="1" style="stop-color:#917CC4"/>
				</linearGradient>
				<path id="Path_914" style="fill:url(#Path_914_00000078749701182424039450000004373628120952676284_);" d="M8.7,13.6
					c0,1.3,0,2.6,0,3.9c1.8,0,3.6,0,5.3,0C12.3,16.2,10.5,14.9,8.7,13.6z"/>
				
					<linearGradient id="Path_915_00000167369982140534437000000003937276695769093550_" gradientUnits="userSpaceOnUse" x1="-685.8417" y1="123.2565" x2="-683.8817" y2="125.9365" gradientTransform="matrix(5.341 0 0 -3.9 3668.2009 502.4703)">
					<stop  offset="0" style="stop-color:#8E5BC4"/>
					<stop  offset="0.361" style="stop-color:#A08AC4"/>
					<stop  offset="0.667" style="stop-color:#917CC4"/>
					<stop  offset="0.887" style="stop-color:#917CC4"/>
					<stop  offset="1" style="stop-color:#917CC4"/>
				</linearGradient>
				<path id="Path_915" style="fill:url(#Path_915_00000167369982140534437000000003937276695769093550_);" d="M8.7,13.6
					c1.3,1.9,3.2,3.3,5.3,3.9v-3.9C12.3,13.6,10.5,13.6,8.7,13.6L8.7,13.6z"/>
				
					<linearGradient id="Path_916_00000178165153331284385340000016999094967650911162_" gradientUnits="userSpaceOnUse" x1="-685.6205" y1="127.6397" x2="-684.2505" y2="129.4957" gradientTransform="matrix(5.348 0 0 -3.948 3683.3489 517.6719)">
					<stop  offset="0" style="stop-color:#8E5BC4"/>
					<stop  offset="0.361" style="stop-color:#A08AC4"/>
					<stop  offset="0.667" style="stop-color:#917CC4"/>
					<stop  offset="0.887" style="stop-color:#917CC4"/>
					<stop  offset="1" style="stop-color:#917CC4"/>
				</linearGradient>
				<path id="Path_916" style="fill:url(#Path_916_00000178165153331284385340000016999094967650911162_);" d="M18,7.8
					c0,1.3,0,2.6,0,3.9c1.8,0,3.6,0,5.3,0C21.5,10.5,19.7,9.1,18,7.8L18,7.8z"/>
				
					<linearGradient id="Path_917_00000054268222273769285100000000002075139322583189_" gradientUnits="userSpaceOnUse" x1="-686.0139" y1="127.2638" x2="-684.1139" y2="129.8378" gradientTransform="matrix(5.348 0 0 -3.95 3683.3489 518.549)">
					<stop  offset="0" style="stop-color:#8E5BC4"/>
					<stop  offset="0.361" style="stop-color:#A08AC4"/>
					<stop  offset="0.667" style="stop-color:#917CC4"/>
					<stop  offset="0.887" style="stop-color:#917CC4"/>
					<stop  offset="1" style="stop-color:#917CC4"/>
				</linearGradient>
				<path id="Path_917" style="fill:url(#Path_917_00000054268222273769285100000000002075139322583189_);" d="M18,7.8
					c1.3,1.9,3.2,3.3,5.3,3.9c0-1.3-0.1-2.6-0.1-3.9C21.5,7.9,19.7,7.8,18,7.8L18,7.8z"/>
				
					<linearGradient id="Path_918_00000049194902365618281210000007824486300276882050_" gradientUnits="userSpaceOnUse" x1="-685.5962" y1="123.8261" x2="-684.2063" y2="125.7321" gradientTransform="matrix(5.347 0 0 -3.9 3682.5352 502.4703)">
					<stop  offset="0" style="stop-color:#8E5BC4"/>
					<stop  offset="0.361" style="stop-color:#A08AC4"/>
					<stop  offset="0.667" style="stop-color:#917CC4"/>
					<stop  offset="0.887" style="stop-color:#917CC4"/>
					<stop  offset="1" style="stop-color:#917CC4"/>
				</linearGradient>
				<path id="Path_918" style="fill:url(#Path_918_00000049194902365618281210000007824486300276882050_);" d="M18,13.6v3.9
					c1.8,0,3.6,0,5.3,0C21.6,16.2,19.8,14.9,18,13.6z"/>
				
					<linearGradient id="Path_919_00000005974630022268106350000010083903754776524975_" gradientUnits="userSpaceOnUse" x1="-686.1553" y1="122.541" x2="-684.2142" y2="125.2101" gradientTransform="matrix(5.3521 0 0 -3.891 3686.8384 498.5386)">
					<stop  offset="0" style="stop-color:#8E5BC4"/>
					<stop  offset="0.361" style="stop-color:#A08AC4"/>
					<stop  offset="0.667" style="stop-color:#917CC4"/>
					<stop  offset="0.887" style="stop-color:#917CC4"/>
					<stop  offset="1" style="stop-color:#917CC4"/>
				</linearGradient>
				<path id="Path_919" style="fill:url(#Path_919_00000005974630022268106350000010083903754776524975_);" d="M18,13.6
					c1.3,1.9,3.2,3.3,5.3,3.9c0-1.3,0-2.6,0-3.9C21.6,13.6,19.8,13.6,18,13.6z"/>
				
					<linearGradient id="Path_920_00000158746673262837460550000008560004769519191729_" gradientUnits="userSpaceOnUse" x1="-759.5717" y1="123.7945" x2="-758.6267" y2="126.2485" gradientTransform="matrix(10.123 0 0 -3.898 7705.7363 507.365)">
					<stop  offset="0" style="stop-color:#917CC4"/>
					<stop  offset="0.155" style="stop-color:#917CC4"/>
					<stop  offset="0.394" style="stop-color:#F8CD9A"/>
					<stop  offset="0.688" style="stop-color:#F8CD9A"/>
					<stop  offset="1" style="stop-color:#F8CD9A"/>
				</linearGradient>
				<path id="Path_920" style="fill:url(#Path_920_00000158746673262837460550000008560004769519191729_);" d="M17.9,19.4
					c-1.1,0-1.9,0.9-1.9,1.9l-1,0.8l1,1.1c3-0.6,6.1-1.3,9.1-2c0-0.6,0-1.3,0-1.9C22.8,19.4,20.3,19.4,17.9,19.4z"/>
				
					<linearGradient id="Path_921_00000141438539038510140690000012127777271771246256_" gradientUnits="userSpaceOnUse" x1="-750.9525" y1="-171.9217" x2="-749.4775" y2="-165.2147" gradientTransform="matrix(9.136 0 0 -2.009 6874.6475 -316.0308)">
					<stop  offset="0" style="stop-color:#917CC4"/>
					<stop  offset="0.121" style="stop-color:#917CC4"/>
					<stop  offset="0.308" style="stop-color:#917CC4"/>
					<stop  offset="0.538" style="stop-color:#917CC4"/>
					<stop  offset="0.798" style="stop-color:#F8CD9A"/>
					<stop  offset="1" style="stop-color:#F8CD9A"/>
				</linearGradient>
				<path id="Path_921" style="fill:url(#Path_921_00000141438539038510140690000012127777271771246256_);" d="M17.9,21.3
					c-1.1,0-1.9,0.9-1.9,1.9c3,0,6.1,0,9.1-0.1c0-0.6,0-1.3,0-1.9C22.7,21.3,20.3,21.3,17.9,21.3z"/>
				
					<linearGradient id="Path_922_00000008847212404305386810000008064530946702974124_" gradientUnits="userSpaceOnUse" x1="-751.0504" y1="123.5948" x2="-749.7964" y2="126.5448" gradientTransform="matrix(9.17 0 0 -3.898 6894.1401 507.365)">
					<stop  offset="0" style="stop-color:#917CC4"/>
					<stop  offset="0.155" style="stop-color:#917CC4"/>
					<stop  offset="0.394" style="stop-color:#F8CD9A"/>
					<stop  offset="0.688" style="stop-color:#F8CD9A"/>
					<stop  offset="1" style="stop-color:#F8CD9A"/>
				</linearGradient>
				<path id="Path_922" style="fill:url(#Path_922_00000008847212404305386810000008064530946702974124_);" d="M14.1,19.4
					c-2.4,0-4.8,0-7.3-0.1c0,0.6,0,1.3,0,1.9c3.1,0.7,6.1,1.4,9.1,2v-1.9C16,20.3,15.1,19.4,14.1,19.4z"/>
				
					<linearGradient id="Path_923_00000138555025736024525030000014878679571833701293_" gradientUnits="userSpaceOnUse" x1="-750.7664" y1="-170.8409" x2="-749.5174" y2="-165.1609" gradientTransform="matrix(9.136 0 0 -2.009 6865.5117 -316.0298)">
					<stop  offset="0" style="stop-color:#917CC4"/>
					<stop  offset="0.121" style="stop-color:#917CC4"/>
					<stop  offset="0.308" style="stop-color:#917CC4"/>
					<stop  offset="0.538" style="stop-color:#917CC4"/>
					<stop  offset="0.798" style="stop-color:#F8CD9A"/>
					<stop  offset="1" style="stop-color:#F8CD9A"/>
				</linearGradient>
				<path id="Path_923" style="fill:url(#Path_923_00000138555025736024525030000014878679571833701293_);" d="M14.1,21.3
					c-2.4,0-4.8,0-7.2-0.1c0,0.6,0,1.3,0.1,1.9c3,0.1,6.1,0.1,9.1,0.1C16,22.2,15.1,21.4,14.1,21.3z"/>
			</g>
		</g>
	</g>
</g>
</svg>
