<?xml version="1.0" encoding="utf-8"?>
<!-- Generator: Adobe Illustrator 27.0.1, SVG Export Plug-In . SVG Version: 6.00 Build 0)  -->
<svg version="1.1" id="Layer_1" xmlns="http://www.w3.org/2000/svg" xmlns:xlink="http://www.w3.org/1999/xlink" x="0px" y="0px"
	 viewBox="0 0 32 32" style="enable-background:new 0 0 32 32;" xml:space="preserve">
<style type="text/css">
	.st0{fill:#917CC4;}
	.st1{fill:#9C89D3;}
	.st2{fill:#F4D0A8;}
	.st3{fill:#F4BD82;}
	.st4{fill:#F8CD9A;}
	.st5{display:none;fill:url(#Path_927_00000113334673064475870530000010153563318667731370_);}
	.st6{fill:#F7D7B5;}
	.st7{fill:#E5B785;}
</style>
<g>
	<g id="Mask_Group_71" transform="translate(-1280 -2185)">
		<g id="vinyl" transform="translate(1280 2185)">
			<circle id="Ellipse_112" class="st0" cx="16" cy="16" r="16"/>
			<circle id="Ellipse_113" class="st1" cx="16" cy="16" r="16"/>
			<path id="Path_924" class="st2" d="M27.4,10.5c-2.1,0-4.3-0.1-6.4-0.1c0,1.3,0,2.6,0,3.9c0.3-0.2,0.6-0.3,1-0.3
				c1.1,0,1.9,0.9,1.9,1.9c0,1.1-0.9,1.9-1.9,1.9c-0.3,0-0.7-0.1-1-0.3c0,1.3,0,2.6,0,3.9c2.1,0,4.3,0,6.4-0.1
				c1.5-1.4,2.4-3.4,2.4-5.5C29.8,13.9,28.9,12,27.4,10.5z"/>
			<path id="Path_925" class="st3" d="M23.3,17.4c-0.4,0.4-0.9,0.6-1.4,0.6c-1.1,0-1.9-0.9-1.9-1.9c0-1.1,0.9-1.9,1.9-1.9
				c0,0,0,0,0,0c0.5,0,1,0.2,1.4,0.6c1.4-1.4,2.8-2.8,4.1-4.1c-1.5-1.5-3.5-2.3-5.5-2.4c-1.2,2.6-2.5,5.2-3.7,7.8
				c1.3,2.6,2.6,5.2,3.7,7.8c2.1,0,4.1-0.9,5.5-2.4C26.1,20.1,24.7,18.7,23.3,17.4z"/>
			<path id="Path_926" class="st4" d="M21.9,12c-0.9,1.3-1.9,2.7-2.9,4c1,1.3,1.9,2.7,2.9,4c2.2,0,4-1.7,4.1-3.9
				c0-2.2-1.7-4-3.9-4.1C22,12,22,12,21.9,12L21.9,12z M22,17c-0.5,0-1-0.4-1-1c0-0.5,0.4-1,1-1c0.5,0,1,0.4,1,1
				C22.9,16.5,22.5,17,22,17C22,17,22,17,22,17L22,17z"/>
			
				<linearGradient id="Path_927_00000079482652553607686400000014150826359544205721_" gradientUnits="userSpaceOnUse" x1="-262.6717" y1="410.493" x2="-261.9757" y2="410.493" gradientTransform="matrix(15.6736 0 0 -15.639 4137.4116 6435.7002)">
				<stop  offset="0" style="stop-color:#230BE0;stop-opacity:0.659"/>
				<stop  offset="1.400000e-02" style="stop-color:#3110E2;stop-opacity:0.651"/>
				<stop  offset="6.400000e-02" style="stop-color:#5B1EE8;stop-opacity:0.62"/>
				<stop  offset="0.118" style="stop-color:#822BEE;stop-opacity:0.58"/>
				<stop  offset="0.178" style="stop-color:#A336F2;stop-opacity:0.541"/>
				<stop  offset="0.243" style="stop-color:#BF3FF6;stop-opacity:0.502"/>
				<stop  offset="0.316" style="stop-color:#D647FA;stop-opacity:0.451"/>
				<stop  offset="0.4" style="stop-color:#E74DFC;stop-opacity:0.396"/>
				<stop  offset="0.503" style="stop-color:#F351FE;stop-opacity:0.329"/>
				<stop  offset="0.644" style="stop-color:#FA53FF;stop-opacity:0.235"/>
				<stop  offset="1" style="stop-color:#FC54FF;stop-opacity:0"/>
			</linearGradient>
			<path id="Path_927" style="display:none;fill:url(#Path_927_00000079482652553607686400000014150826359544205721_);" d="M29.8,16
				c-0.2,4.3-3.6,7.7-7.9,7.8c-4.3,0-7.8-3.6-7.7-7.9c0-4.2,3.5-7.7,7.7-7.7C26.2,8.3,29.6,11.7,29.8,16z"/>
			<path id="Path_928" class="st6" d="M4.6,8.3c-0.3,5.1-0.3,10.2,0,15.3c0,0.5,0.5,0.9,1,1c5.1,0.2,10.2,0.2,15.3,0.2
				c0.5,0,1-0.4,1-1c0.1-5.2,0.1-10.4,0-15.6c0-0.5-0.4-1-1-1c-5.1-0.1-10.2,0-15.3,0.2C5.1,7.4,4.6,7.8,4.6,8.3z"/>
			<path id="Path_929" class="st4" d="M6.3,19c0,1.3,0.1,2.5,0.1,3.8c4.5,0.1,9,0.1,13.6,0.1c0-1.3,0-2.6,0-3.8
				c-2.3-1-4.6-1.9-6.9-2.9C10.9,17.1,8.6,18.1,6.3,19L6.3,19z"/>
			<path id="Path_930" class="st7" d="M6.4,9.2c-0.2,3.3-0.2,6.5-0.1,9.8c4.6,0,9.2,0.1,13.7,0C15.5,15.7,10.8,12.4,6.4,9.2L6.4,9.2
				z"/>
			<path id="Path_931" class="st4" d="M20,9.1c0,3.3,0.1,6.6,0,9.9c-4-0.9-7.7-2.9-10.6-5.8c-1.2-1.2-2.2-2.5-3-4
				C11,9.1,15.5,9.1,20,9.1z"/>
		</g>
	</g>
</g>
</svg>
