<?xml version="1.0" encoding="utf-8"?>
<!-- Generator: Adobe Illustrator 27.0.1, SVG Export Plug-In . SVG Version: 6.00 Build 0)  -->
<svg version="1.1" id="Layer_1" xmlns="http://www.w3.org/2000/svg" xmlns:xlink="http://www.w3.org/1999/xlink" x="0px" y="0px"
	 viewBox="0 0 32 32" style="enable-background:new 0 0 32 32;" xml:space="preserve">
<style type="text/css">
	.st0{fill:url(#Ellipse_114_00000165195919494577666640000013584901678585716399_);}
	.st1{fill:url(#Ellipse_115_00000145761163543115745280000004969716528989782703_);}
	.st2{fill:url(#Path_932_00000108276872877968042460000013162369979836561073_);}
	.st3{fill:url(#Path_933_00000049919621509335586070000000133475762463892614_);}
	.st4{fill:url(#Path_934_00000070821506376456242710000015622719386789507509_);}
	.st5{fill:url(#Path_935_00000083770633374728321420000005146595568754175403_);}
	.st6{fill:url(#Path_936_00000128479638243589763300000015827871091791803777_);}
	.st7{fill:url(#Path_937_00000041297425186532877800000000196806775151888283_);}
	.st8{fill:url(#Path_938_00000059996590793226445230000009743415356598544531_);}
	.st9{fill:url(#Path_939_00000176014449279516122900000004728007066475979940_);}
	.st10{fill:url(#Path_940_00000096742551555807166740000007348206552748438686_);}
	.st11{fill:url(#Path_941_00000124144065978131734280000016465420798711253136_);}
</style>
<g>
	<g>
		<g id="Mask_Group_72" transform="translate(-1328 -2185)">
			<g id="tshirt" transform="translate(1328 2185)">
				
					<linearGradient id="Ellipse_114_00000148629665783182106780000012544026728832047764_" gradientUnits="userSpaceOnUse" x1="-544.2911" y1="26.1661" x2="-543.5831" y2="25.458" gradientTransform="matrix(32 0 0 32 17422 -810)">
					<stop  offset="0" style="stop-color:#917CC4"/>
					<stop  offset="1" style="stop-color:#917CC4"/>
				</linearGradient>
				
					<circle id="Ellipse_114" style="fill:url(#Ellipse_114_00000148629665783182106780000012544026728832047764_);" cx="16" cy="16" r="16"/>
				
					<radialGradient id="Ellipse_115_00000044873343778421795810000012850996771784208821_" cx="-543.9375" cy="25.8125" r="0.5" gradientTransform="matrix(32 0 0 32 17422 -810)" gradientUnits="userSpaceOnUse">
					<stop  offset="0" style="stop-color:#7C64C4;stop-opacity:0.6"/>
					<stop  offset="0.131" style="stop-color:#917CC4;stop-opacity:0.522"/>
					<stop  offset="0.326" style="stop-color:#917CC4;stop-opacity:0.404"/>
					<stop  offset="0.562" style="stop-color:#917CC4;stop-opacity:0.263"/>
					<stop  offset="0.826" style="stop-color:#AD9DC4;stop-opacity:0.106"/>
					<stop  offset="1" style="stop-color:#917CC4;stop-opacity:0"/>
				</radialGradient>
				
					<circle id="Ellipse_115" style="fill:url(#Ellipse_115_00000044873343778421795810000012850996771784208821_);" cx="16" cy="16" r="16"/>
				
					<linearGradient id="Path_932_00000066476966074680276080000013942564835725661861_" gradientUnits="userSpaceOnUse" x1="-479.2373" y1="90.8566" x2="-475.3462" y2="87.9776" gradientTransform="matrix(6.72 0 0 9.0812 3218.0879 -804.42)">
					<stop  offset="0" style="stop-color:#F8BD7B"/>
					<stop  offset="1" style="stop-color:#FFFFFF"/>
				</linearGradient>
				<path id="Path_932" style="fill:url(#Path_932_00000066476966074680276080000013942564835725661861_);" d="M8.4,5.6
					C7,6.3,5.5,7,4.1,7.7C3.8,7.9,3.6,8.2,3.5,8.6c0,1.7-0.1,3.5-0.1,5.2c0,0.5,0.4,0.9,0.9,0.9l0,0c1.9,0,3.8,0,5.8,0
					C9.5,11.6,8.9,8.6,8.4,5.6L8.4,5.6z"/>
				
					<linearGradient id="Path_933_00000083068501084663599650000001611505134508595388_" gradientUnits="userSpaceOnUse" x1="-478.5724" y1="89.2487" x2="-477.3264" y2="90.1717" gradientTransform="matrix(6.72 0 0 9.0812 3218.0879 -804.42)">
					<stop  offset="0" style="stop-color:#F8CD9A;stop-opacity:0"/>
					<stop  offset="0.698" style="stop-color:#F8CD9A;stop-opacity:0.698"/>
					<stop  offset="1" style="stop-color:#F8CD9A"/>
				</linearGradient>
				<path id="Path_933" style="fill:url(#Path_933_00000083068501084663599650000001611505134508595388_);" d="M8.4,5.6
					C7,6.3,5.5,7,4.1,7.7C3.8,7.9,3.6,8.2,3.5,8.6c0,1.7-0.1,3.5-0.1,5.2c0,0.5,0.4,0.9,0.9,0.9l0,0c1.9,0,3.8,0,5.8,0
					C9.5,11.6,8.9,8.6,8.4,5.6L8.4,5.6z"/>
				
					<linearGradient id="Path_934_00000099657093450056671970000018022630166237408433_" gradientUnits="userSpaceOnUse" x1="-479.3053" y1="90.8383" x2="-475.5183" y2="88.0353" gradientTransform="matrix(6.72 0 0 9.0802 3236.4668 -804.4192)">
					<stop  offset="0" style="stop-color:#F8BD7B"/>
					<stop  offset="1" style="stop-color:#FFFFFF"/>
				</linearGradient>
				<path id="Path_934" style="fill:url(#Path_934_00000099657093450056671970000018022630166237408433_);" d="M27.9,7.7
					C26.5,7,25,6.3,23.6,5.6c-0.6,3-1.2,6-1.8,9.1c1.9,0,3.8,0,5.8,0c0.5,0,0.9-0.4,1-0.9l0,0c0-1.7,0-3.5-0.1-5.2
					C28.4,8.2,28.2,7.9,27.9,7.7L27.9,7.7z"/>
				
					<linearGradient id="Path_935_00000116954979031323377850000011342476369781292707_" gradientUnits="userSpaceOnUse" x1="-480.3748" y1="87.9886" x2="-479.1277" y2="88.9117" gradientTransform="matrix(6.72 0 0 9.0812 3236.4717 -804.42)">
					<stop  offset="0" style="stop-color:#F8CD9A;stop-opacity:0"/>
					<stop  offset="0.698" style="stop-color:#F8CD9A;stop-opacity:0.698"/>
					<stop  offset="1" style="stop-color:#F8CD9A"/>
				</linearGradient>
				<path id="Path_935" style="fill:url(#Path_935_00000116954979031323377850000011342476369781292707_);" d="M23.6,5.6
					C25,6.3,26.5,7,27.9,7.7c0.3,0.2,0.6,0.5,0.6,0.9c0,1.7,0.1,3.5,0.1,5.2c0,0.5-0.4,0.9-0.9,0.9l0,0c-1.9,0-3.8,0-5.8,0
					C22.5,11.6,23.1,8.6,23.6,5.6L23.6,5.6z"/>
				
					<linearGradient id="Path_936_00000028310960008498494750000000702593046825405867_" gradientUnits="userSpaceOnUse" x1="-525.5033" y1="171.859" x2="-523.1443" y2="164.36" gradientTransform="matrix(15.278 0 0 4.8005 8032.5972 -786.5615)">
					<stop  offset="0" style="stop-color:#F8BD7B"/>
					<stop  offset="0.194" style="stop-color:#F8CD9A"/>
					<stop  offset="0.489" style="stop-color:#F8CD9A"/>
					<stop  offset="0.731" style="stop-color:#F8CD9A"/>
					<stop  offset="0.907" style="stop-color:#FFFEF1"/>
					<stop  offset="1" style="stop-color:#FFFFFF"/>
				</linearGradient>
				<path id="Path_936" style="fill:url(#Path_936_00000028310960008498494750000000702593046825405867_);" d="M8.4,25.3
					c0,0.6,0,1.3,0,1.9c0,0.5,0.4,1,1,1c4.4,0.1,8.8,0.1,13.2,0c0.5,0,0.9-0.5,1-1c0-0.6,0-1.3,0-1.9c-2.5-0.6-5.1-1.2-7.6-1.8
					C13.4,24.1,10.9,24.7,8.4,25.3z"/>
				
					<linearGradient id="Path_937_00000098209593741110428340000005485523951177389494_" gradientUnits="userSpaceOnUse" x1="-526.7212" y1="38.4144" x2="-524.5652" y2="36.8934" gradientTransform="matrix(15.5022 0 0 21.977 8158.4727 -805.6594)">
					<stop  offset="0" style="stop-color:#F8BD7B"/>
					<stop  offset="0.194" style="stop-color:#F8CD9A"/>
					<stop  offset="0.489" style="stop-color:#F8CD9A"/>
					<stop  offset="0.731" style="stop-color:#F8CD9A"/>
					<stop  offset="0.907" style="stop-color:#FFFEF1"/>
					<stop  offset="1" style="stop-color:#FFFFFF"/>
				</linearGradient>
				<path id="Path_937" style="fill:url(#Path_937_00000098209593741110428340000005485523951177389494_);" d="M23.6,5.6l-2.5-1.2
					c-3.4-0.1-6.9-0.1-10.3,0L8.4,5.6c-0.2,6.6-0.2,13.1,0,19.7c0,0.5,0.4,1,1,1c4.4,0.1,8.9,0.1,13.3,0c0.5,0,1-0.4,1-1
					C23.8,18.7,23.8,12.2,23.6,5.6z"/>
				
					<linearGradient id="Path_938_00000110470531480264149810000003982717530208643227_" gradientUnits="userSpaceOnUse" x1="-508.5425" y1="132.3274" x2="-506.3735" y2="128.7344" gradientTransform="matrix(10.349 0 0 6.2442 5264.9639 -806.8679)">
					<stop  offset="0" style="stop-color:#F8BD7B"/>
					<stop  offset="1" style="stop-color:#FFFFFF"/>
				</linearGradient>
				<path id="Path_938" style="fill:url(#Path_938_00000110470531480264149810000003982717530208643227_);" d="M17.8,3.1
					c-1.2,0-2.4,0-3.6,0c-0.6,0-1.1,0.1-1.6,0.4l-1.7,0.9c0.1,2.9,2.5,5.1,5.4,5c2.7-0.1,4.9-2.3,5-5l-1.7-0.9
					C18.9,3.3,18.4,3.1,17.8,3.1L17.8,3.1z"/>
				
					<linearGradient id="Path_939_00000003796377316295954720000002797370799958805911_" gradientUnits="userSpaceOnUse" x1="-470.5959" y1="341.3799" x2="-468.6729" y2="336.515" gradientTransform="matrix(6.077 0 0 2.4025 2866.2344 -804.931)">
					<stop  offset="0" style="stop-color:#917CC4"/>
					<stop  offset="1" style="stop-color:#917CC4"/>
				</linearGradient>
				<path id="Path_939" style="fill:url(#Path_939_00000003796377316295954720000002797370799958805911_);" d="M16,7.5
					c-1.3,0-2.5-0.8-3-2l0.4-0.2c0.3-0.1,0.5-0.2,0.8-0.2c1.2,0,2.4,0,3.7,0c0.3,0,0.6,0.1,0.8,0.2L19,5.4C18.5,6.7,17.3,7.5,16,7.5
					L16,7.5z"/>
				
					<linearGradient id="Path_940_00000145019013750798812650000017818382863086536090_" gradientUnits="userSpaceOnUse" x1="-514.2937" y1="83.1484" x2="-512.4867" y2="81.0223" gradientTransform="matrix(11.659 0 0 9.909 6000.5293 -798.6965)">
					<stop  offset="0" style="stop-color:#F8BD7B"/>
					<stop  offset="1" style="stop-color:#FFFFFF"/>
				</linearGradient>
				<path id="Path_940" style="fill:url(#Path_940_00000145019013750798812650000017818382863086536090_);" d="M10.2,11.3
					c0,2.8,0,5.6,0,8.4c1.9,0.5,3.9,1,5.8,1.5c1.9-1.8,3.9-3.5,5.8-5.3c0-1.5,0-3.1,0-4.6C17.9,11.3,14.1,11.3,10.2,11.3L10.2,11.3z
					"/>
				
					<linearGradient id="Path_941_00000146498140994474372690000017788573383061632417_" gradientUnits="userSpaceOnUse" x1="-514.2404" y1="97.6905" x2="-512.1334" y2="94.7945" gradientTransform="matrix(11.644 0 0 8.474 5992.1128 -794.074)">
					<stop  offset="0" style="stop-color:#F8CD9A"/>
					<stop  offset="0.191" style="stop-color:#F8CD9A"/>
					<stop  offset="0.585" style="stop-color:#F8CD9A"/>
					<stop  offset="0.864" style="stop-color:#F8CD9A"/>
					<stop  offset="1" style="stop-color:#F8CD9A"/>
				</linearGradient>
				<path id="Path_941" style="fill:url(#Path_941_00000146498140994474372690000017788573383061632417_);" d="M10.2,24.4
					c3.8,0.1,7.7,0.1,11.5,0c0-2.8,0.1-5.6,0.1-8.4c-5.8,0-5.8,3.9-11.6,3.8C10.2,21.3,10.2,22.8,10.2,24.4z"/>
			</g>
		</g>
	</g>
</g>
</svg>
