<?xml version="1.0" encoding="utf-8"?>
<!-- Generator: Adobe Illustrator 27.0.1, SVG Export Plug-In . SVG Version: 6.00 Build 0)  -->
<svg version="1.1" id="Layer_1" xmlns="http://www.w3.org/2000/svg" xmlns:xlink="http://www.w3.org/1999/xlink" x="0px" y="0px"
	 viewBox="0 0 32 32" style="enable-background:new 0 0 32 32;" xml:space="preserve">
<style type="text/css">
	.st0{fill:url(#Ellipse_116_00000160166953259824987980000005733218806133412233_);}
	.st1{fill:url(#Ellipse_117_00000166656454319334651990000006723548367266699669_);}
	.st2{fill:url(#Path_942_00000114045700058343469950000002499680869413351042_);}
	.st3{fill:url(#Path_943_00000098929021311451186230000016893872876627116477_);}
	.st4{fill:url(#Path_944_00000058584823707945723050000003846871305841281981_);}
	.st5{fill:url(#Path_945_00000093148856982054222550000003504607904017441927_);}
	.st6{fill:url(#Path_946_00000171717767361274954220000012535160576996492680_);}
	.st7{fill:url(#Path_947_00000160190371378667243900000011519578735215920015_);}
	.st8{fill:url(#Path_948_00000050628511125339434550000006821037756336163241_);}
	.st9{fill:url(#Path_949_00000031175308664023041170000012416076904333564818_);}
	.st10{fill:url(#Path_950_00000067946244092584437660000003424348264711910302_);}
	.st11{fill:url(#Path_951_00000135662237339772284860000006985235778000809861_);}
	.st12{fill:url(#Path_952_00000175304051853724785150000000998849509725783431_);}
	.st13{fill:url(#Path_953_00000024711051601838586110000011800363402347431325_);}
	.st14{fill:url(#Path_954_00000024682670834258837430000011957183280279796110_);}
	.st15{fill:url(#Path_955_00000041983644715125193440000003869263489951954319_);}
	.st16{fill:url(#Path_956_00000041260422147862663310000004046169112931883935_);}
	.st17{fill:url(#Path_957_00000018209498137641121370000013605614888722697617_);}
</style>
<g>
	<g>
		<g id="Mask_Group_73" transform="translate(-1376 -2185)">
			<g id="diamond" transform="translate(1376 2185)">
				
					<linearGradient id="Ellipse_116_00000150060377528876719190000017360476037424465819_" gradientUnits="userSpaceOnUse" x1="-544.2911" y1="26.1661" x2="-543.5831" y2="25.458" gradientTransform="matrix(32 0 0 32 17422 -810)">
					<stop  offset="0" style="stop-color:#917CC4"/>
					<stop  offset="0.246" style="stop-color:#917CC4"/>
					<stop  offset="0.595" style="stop-color:#917CC4"/>
					<stop  offset="0.857" style="stop-color:#917CC4"/>
					<stop  offset="1" style="stop-color:#F8CD9A"/>
				</linearGradient>
				
					<circle id="Ellipse_116" style="fill:url(#Ellipse_116_00000150060377528876719190000017360476037424465819_);" cx="16" cy="16" r="16"/>
				
					<radialGradient id="Ellipse_117_00000074405559231672011640000012138119247176842129_" cx="-543.9375" cy="25.8125" r="0.5" gradientTransform="matrix(32 0 0 32 17422 -810)" gradientUnits="userSpaceOnUse">
					<stop  offset="0" style="stop-color:#917CC4"/>
					<stop  offset="0.133" style="stop-color:#917CC4;stop-opacity:0.867"/>
					<stop  offset="0.365" style="stop-color:#917CC4;stop-opacity:0.635"/>
					<stop  offset="0.667" style="stop-color:#917CC4;stop-opacity:0.333"/>
					<stop  offset="1" style="stop-color:#F8CD9A;stop-opacity:0"/>
				</radialGradient>
				
					<circle id="Ellipse_117" style="fill:url(#Ellipse_117_00000074405559231672011640000012138119247176842129_);" cx="16" cy="16" r="16"/>
				
					<linearGradient id="Path_942_00000177467302421091664830000004443439961490576571_" gradientUnits="userSpaceOnUse" x1="-513.7433" y1="58.9285" x2="-512.2123" y2="57.6425" gradientTransform="matrix(11.6905 0 0 13.924 6024.0601 -800.9619)">
					<stop  offset="6.000000e-03" style="stop-color:#F8CD9A"/>
					<stop  offset="3.800000e-02" style="stop-color:#F8CD9A"/>
					<stop  offset="0.148" style="stop-color:#F8CD9A"/>
					<stop  offset="0.261" style="stop-color:#F8CD9A"/>
					<stop  offset="0.376" style="stop-color:#F8CD9A"/>
					<stop  offset="0.492" style="stop-color:#F9C48C"/>
					<stop  offset="0.611" style="stop-color:#D5FCF5"/>
					<stop  offset="0.733" style="stop-color:#F0FEFA"/>
					<stop  offset="0.86" style="stop-color:#FBFFFE"/>
					<stop  offset="1" style="stop-color:#FFFFFF"/>
				</linearGradient>
				<path id="Path_942" style="fill:url(#Path_942_00000177467302421091664830000004443439961490576571_);" d="M27.6,9.2
					C23.7,9.1,19.9,9,16,9v14c3.9,0,7.7-0.1,11.6-0.2c0-0.1,0.1-0.1,0.1-0.2c0.1-4.4,0.1-8.7,0-13.1C27.6,9.4,27.6,9.3,27.6,9.2
					L27.6,9.2z"/>
				
					<linearGradient id="Path_943_00000104686937431564109200000003394910370019070629_" gradientUnits="userSpaceOnUse" x1="-507.9768" y1="59.6347" x2="-506.9798" y2="58.8777" gradientTransform="matrix(10.4385 0 0 13.754 5308.7456 -800.7936)">
					<stop  offset="6.000000e-03" style="stop-color:#F8CD9A"/>
					<stop  offset="0.561" style="stop-color:#F8CD9A"/>
					<stop  offset="1" style="stop-color:#FFFFFF"/>
				</linearGradient>
				<path id="Path_943" style="fill:url(#Path_943_00000104686937431564109200000003394910370019070629_);" d="M4.4,9.4
					c-0.1,4.4-0.1,8.8,0,13.1c0,0.1,0,0.2,0.1,0.2c3.4,0.1,6.9,0.2,10.3,0.2c-3.4-4.7-7-9.3-10.3-13.8C4.4,9.3,4.4,9.4,4.4,9.4
					L4.4,9.4z"/>
				
					<linearGradient id="Path_944_00000147930031868043019630000017453059231299942841_" gradientUnits="userSpaceOnUse" x1="-520.3651" y1="59.2168" x2="-519.263" y2="58.1508" gradientTransform="matrix(13.48 0 0 13.9232 7018.2017 -800.9742)">
					<stop  offset="6.000000e-03" style="stop-color:#F8CD9A"/>
					<stop  offset="0.127" style="stop-color:#F8CD9A"/>
					<stop  offset="0.288" style="stop-color:#F4CEA4"/>
					<stop  offset="0.454" style="stop-color:#F8CD9A"/>
					<stop  offset="0.625" style="stop-color:#F0FFFB"/>
					<stop  offset="0.803" style="stop-color:#FBFFFE"/>
					<stop  offset="1" style="stop-color:#FFFFFF"/>
				</linearGradient>
				<path id="Path_944" style="fill:url(#Path_944_00000147930031868043019630000017453059231299942841_);" d="M17.9,9
					c-4.5,0-9,0-13.5,0.2C6,14,8.2,18.7,10.9,22.9c2.3,0,4.7,0,7,0C17.9,18.3,17.9,13.7,17.9,9z"/>
				
					<linearGradient id="Path_945_00000116946707013636491600000003512882901235210886_" gradientUnits="userSpaceOnUse" x1="-525.4697" y1="59.3828" x2="-524.2387" y2="58.0227" gradientTransform="matrix(15.378 0 0 13.918 8084.8779 -807.9179)">
					<stop  offset="6.000000e-03" style="stop-color:#F8CD9A"/>
					<stop  offset="0.127" style="stop-color:#F8CD9A"/>
					<stop  offset="0.288" style="stop-color:#F4CEA4"/>
					<stop  offset="0.454" style="stop-color:#F8CD9A"/>
					<stop  offset="0.625" style="stop-color:#F0FFFB"/>
					<stop  offset="0.803" style="stop-color:#FBFFFE"/>
					<stop  offset="1" style="stop-color:#FFFFFF"/>
				</linearGradient>
				<path id="Path_945" style="fill:url(#Path_945_00000116946707013636491600000003512882901235210886_);" d="M16,2.1
					c1.2,2.3,2.5,4.7,3.8,7c-1.3,2.3-2.5,4.6-3.8,6.9c-3.9-2.3-7.8-4.6-11.6-6.8c0-0.1,0.1-0.1,0.2-0.2c3.8-2.3,7.5-4.6,11.1-6.9
					C15.8,2.1,15.9,2.1,16,2.1z"/>
				
					<linearGradient id="Path_946_00000086657226227124831440000013819854829168234132_" gradientUnits="userSpaceOnUse" x1="-513.3866" y1="58.8802" x2="-512.2946" y2="57.9733" gradientTransform="matrix(11.558 0 0 13.918 5949.5962 -807.9179)">
					<stop  offset="6.000000e-03" style="stop-color:#F8CD9A"/>
					<stop  offset="0.127" style="stop-color:#F8CD9A"/>
					<stop  offset="0.288" style="stop-color:#F4CEA4"/>
					<stop  offset="0.454" style="stop-color:#F8CD9A"/>
					<stop  offset="0.625" style="stop-color:#F0FFFB"/>
					<stop  offset="0.803" style="stop-color:#FBFFFE"/>
					<stop  offset="1" style="stop-color:#FFFFFF"/>
				</linearGradient>
				<path id="Path_946" style="fill:url(#Path_946_00000086657226227124831440000013819854829168234132_);" d="M27.4,9
					c0.1,0,0.1,0.1,0.2,0.2c-3.8,2.2-7.7,4.5-11.6,6.8V2.1c0.1,0,0.2,0,0.2,0.1C19.9,4.4,23.6,6.7,27.4,9z"/>
				
					<linearGradient id="Path_947_00000071538577922756854820000006202026528718089150_" gradientUnits="userSpaceOnUse" x1="-513.0829" y1="82.9291" x2="-512.39" y2="82.1181" gradientTransform="matrix(11.558 0 0 9.872 5938.0376 -789.9521)">
					<stop  offset="6.000000e-03" style="stop-color:#F8CD9A"/>
					<stop  offset="0.153" style="stop-color:#F8CD9A"/>
					<stop  offset="0.478" style="stop-color:#F8CD9A"/>
					<stop  offset="0.954" style="stop-color:#F2FEFA"/>
					<stop  offset="1" style="stop-color:#FFFFFF"/>
				</linearGradient>
				<path id="Path_947" style="fill:url(#Path_947_00000071538577922756854820000006202026528718089150_);" d="M4.4,22.8
					c0,0.1,0.1,0.1,0.2,0.2c3.8,2.3,7.5,4.6,11.1,6.9c0.1,0,0.2,0.1,0.2,0.1c-1.2-3.3-2.5-6.6-3.8-9.8c-1,0-2,0-3,0
					C7.6,21,6,21.9,4.4,22.8L4.4,22.8z"/>
				
					<linearGradient id="Path_948_00000064334255323019979040000001180578006641886099_" gradientUnits="userSpaceOnUse" x1="-509.5132" y1="59.4145" x2="-508.3992" y2="58.5655" gradientTransform="matrix(10.62 0 0 13.918 5415.6396 -794.0004)">
					<stop  offset="6.000000e-03" style="stop-color:#F8CD9A"/>
					<stop  offset="0.153" style="stop-color:#F8CD9A"/>
					<stop  offset="0.478" style="stop-color:#F8CD9A"/>
					<stop  offset="0.954" style="stop-color:#F2FEFA"/>
					<stop  offset="1" style="stop-color:#FFFFFF"/>
				</linearGradient>
				<path id="Path_948" style="fill:url(#Path_948_00000064334255323019979040000001180578006641886099_);" d="M16,16
					c-2.3,1.4-4.5,2.7-6.8,4c2,3.5,4.2,6.8,6.8,9.9c1.2-2.3,2.5-4.7,3.8-7C18.6,20.6,17.3,18.3,16,16z"/>
				
					<linearGradient id="Path_949_00000171001194865730180590000017477215072701467529_" gradientUnits="userSpaceOnUse" x1="-513.7017" y1="59.1305" x2="-512.0117" y2="57.7275" gradientTransform="matrix(11.558 0 0 13.919 5949.5962 -793.9996)">
					<stop  offset="6.000000e-03" style="stop-color:#F8CD9A"/>
					<stop  offset="0.153" style="stop-color:#F8CD9A"/>
					<stop  offset="0.478" style="stop-color:#F8CD9A"/>
					<stop  offset="0.954" style="stop-color:#F2FEFA"/>
					<stop  offset="1" style="stop-color:#FFFFFF"/>
				</linearGradient>
				<path id="Path_949" style="fill:url(#Path_949_00000171001194865730180590000017477215072701467529_);" d="M27.6,22.8
					c0,0.1-0.1,0.1-0.2,0.2c-3.8,2.3-7.5,4.6-11.1,6.9c-0.1,0-0.2,0.1-0.2,0.1V16C19.9,18.3,23.8,20.6,27.6,22.8z"/>
				
					<linearGradient id="Path_950_00000023273572489159415960000013204826134162436766_" gradientUnits="userSpaceOnUse" x1="-392.7354" y1="318.1973" x2="-387.3754" y2="311.2614" gradientTransform="matrix(3.312 0 0 2.559 1307.5011 -791.879)">
					<stop  offset="6.000000e-03" style="stop-color:#D8B488"/>
					<stop  offset="0.684" style="stop-color:#F8CD9A"/>
					<stop  offset="1" style="stop-color:#F8CD9A"/>
				</linearGradient>
				<path id="Path_950" style="fill:url(#Path_950_00000023273572489159415960000013204826134162436766_);" d="M8.2,20.6
					c1.1,0,2.2,0,3.3,0c-1.1-0.9-2.2-1.7-3.3-2.6C8.2,19,8.2,19.8,8.2,20.6z"/>
				
					<linearGradient id="Path_951_00000078747898390464700970000010921034286747109292_" gradientUnits="userSpaceOnUse" x1="-498.6755" y1="87.6195" x2="-496.6495" y2="85.7195" gradientTransform="matrix(8.8109 0 0 9.3955 4397.8867 -798.6849)">
					<stop  offset="6.000000e-03" style="stop-color:#D8B488"/>
					<stop  offset="0.684" style="stop-color:#F8CD9A"/>
					<stop  offset="1" style="stop-color:#F8CD9A"/>
				</linearGradient>
				<path id="Path_951" style="fill:url(#Path_951_00000078747898390464700970000010921034286747109292_);" d="M17,11.3
					c-2.9,0-5.9,0-8.8,0.1c0,2.3,0,4.5,0,6.8c0.4,0.9,0.9,1.7,1.4,2.5c2.5,0,4.9,0,7.4,0C17,17.6,17,14.4,17,11.3z"/>
				
					<linearGradient id="Path_952_00000176745661929461478670000007176833268909163652_" gradientUnits="userSpaceOnUse" x1="-490.1452" y1="86.8761" x2="-488.5522" y2="85.545" gradientTransform="matrix(7.848 0 0 9.4 3864.5759 -798.6995)">
					<stop  offset="6.000000e-03" style="stop-color:#D8B488"/>
					<stop  offset="8.000000e-03" style="stop-color:#F8D798"/>
					<stop  offset="0.161" style="stop-color:#F8D3AA"/>
					<stop  offset="0.316" style="stop-color:#F8CD9A"/>
					<stop  offset="0.476" style="stop-color:#917CC4"/>
					<stop  offset="0.64" style="stop-color:#917CC4"/>
					<stop  offset="0.811" style="stop-color:#F8CD9A"/>
					<stop  offset="1" style="stop-color:#F8CD9A"/>
				</linearGradient>
				<path id="Path_952" style="fill:url(#Path_952_00000176745661929461478670000007176833268909163652_);" d="M16,11.3v9.4
					c2.6,0,5.2,0,7.8-0.1c0-3.1,0-6.2,0-9.3C21.2,11.3,18.6,11.3,16,11.3z"/>
				
					<linearGradient id="Path_953_00000007416310305204234780000012817203289504437904_" gradientUnits="userSpaceOnUse" x1="-509.7908" y1="87.6958" x2="-508.3688" y2="86.0758" gradientTransform="matrix(10.701 0 0 9.4 5460.1362 -803.4)">
					<stop  offset="6.000000e-03" style="stop-color:#F8CD9A"/>
					<stop  offset="7.500000e-02" style="stop-color:#917CC4"/>
					<stop  offset="0.196" style="stop-color:#F8CD9A"/>
					<stop  offset="0.321" style="stop-color:#F8CD9A"/>
					<stop  offset="0.447" style="stop-color:#F8CD9A"/>
					<stop  offset="0.576" style="stop-color:#F8CD9A"/>
					<stop  offset="0.709" style="stop-color:#E5C29C"/>
					<stop  offset="0.847" style="stop-color:#EAC496"/>
					<stop  offset="1" style="stop-color:#757FF4"/>
				</linearGradient>
				<path id="Path_953" style="fill:url(#Path_953_00000007416310305204234780000012817203289504437904_);" d="M16,6.6
					c0.9,1.6,1.9,3.1,2.9,4.7c-1,1.6-1.9,3.1-2.9,4.7c-2.6-1.6-5.2-3.1-7.8-4.6C10.8,9.8,13.4,8.2,16,6.6z"/>
				
					<linearGradient id="Path_954_00000083062304458396021140000000384214961001844671_" gradientUnits="userSpaceOnUse" x1="-490.7195" y1="87.283" x2="-488.6335" y2="85.546" gradientTransform="matrix(7.826 0 0 9.4 3852.2122 -803.4)">
					<stop  offset="6.000000e-03" style="stop-color:#F8CD9A"/>
					<stop  offset="7.500000e-02" style="stop-color:#917CC4"/>
					<stop  offset="0.196" style="stop-color:#F8CD9A"/>
					<stop  offset="0.321" style="stop-color:#F8CD9A"/>
					<stop  offset="0.447" style="stop-color:#F8CD9A"/>
					<stop  offset="0.576" style="stop-color:#F8CD9A"/>
					<stop  offset="0.709" style="stop-color:#E5C29C"/>
					<stop  offset="0.847" style="stop-color:#EAC496"/>
					<stop  offset="1" style="stop-color:#757FF4"/>
				</linearGradient>
				<path id="Path_954" style="fill:url(#Path_954_00000083062304458396021140000000384214961001844671_);" d="M23.8,11.4
					c-2.6,1.5-5.2,3.1-7.8,4.6V6.6C18.6,8.2,21.2,9.8,23.8,11.4z"/>
				
					<linearGradient id="Path_955_00000115499273712837603180000015947862609582362555_" gradientUnits="userSpaceOnUse" x1="-299.8499" y1="429.812" x2="-295.3028" y2="424.683" gradientTransform="matrix(2.137 0 0 1.894 647.168 -789.9536)">
					<stop  offset="6.000000e-03" style="stop-color:#917CC4"/>
					<stop  offset="1" style="stop-color:#F8CD9A"/>
				</linearGradient>
				<path id="Path_955" style="fill:url(#Path_955_00000115499273712837603180000015947862609582362555_);" d="M8.2,20.6
					c0.7,0.4,1.4,0.9,2.1,1.3c0-0.6,0-1.3,0-1.9H9.2L8.2,20.6z"/>
				
					<linearGradient id="Path_956_00000088829774166222825660000008671632670088721574_" gradientUnits="userSpaceOnUse" x1="-503.6843" y1="87.0102" x2="-502.4993" y2="85.7902" gradientTransform="matrix(9.675 0 0 9.4 4884.5503 -794.0001)">
					<stop  offset="6.000000e-03" style="stop-color:#F8C366"/>
					<stop  offset="9.200000e-02" style="stop-color:#F8B171"/>
					<stop  offset="0.303" style="stop-color:#F8CD9A"/>
					<stop  offset="0.521" style="stop-color:#F8CD9A"/>
					<stop  offset="0.748" style="stop-color:#F8CD9A"/>
					<stop  offset="1" style="stop-color:#F8CD9A"/>
				</linearGradient>
				<path id="Path_956" style="fill:url(#Path_956_00000088829774166222825660000008671632670088721574_);" d="M18.9,20.7
					c-1-1.6-1.9-3.1-2.9-4.7c-2.3,1.4-4.5,2.7-6.8,4c0.4,0.6,0.7,1.3,1.1,1.9c1.9,1.2,3.8,2.3,5.7,3.5
					C16.9,23.8,17.9,22.3,18.9,20.7z"/>
				
					<linearGradient id="Path_957_00000078742514249841002070000016851329625097462158_" gradientUnits="userSpaceOnUse" x1="-490.07" y1="86.7318" x2="-487.765" y2="84.8109" gradientTransform="matrix(7.826 0 0 9.4 3852.2122 -794.0001)">
					<stop  offset="6.000000e-03" style="stop-color:#F8C366"/>
					<stop  offset="9.200000e-02" style="stop-color:#F8B171"/>
					<stop  offset="0.303" style="stop-color:#F8CD9A"/>
					<stop  offset="0.521" style="stop-color:#F8CD9A"/>
					<stop  offset="0.748" style="stop-color:#F8CD9A"/>
					<stop  offset="1" style="stop-color:#F8CD9A"/>
				</linearGradient>
				<path id="Path_957" style="fill:url(#Path_957_00000078742514249841002070000016851329625097462158_);" d="M23.8,20.6
					c-2.6,1.6-5.2,3.2-7.8,4.8V16C18.6,17.6,21.2,19.1,23.8,20.6z"/>
			</g>
		</g>
	</g>
</g>
</svg>
