<?xml version="1.0" encoding="utf-8"?>
<!-- Generator: Adobe Illustrator 27.0.1, SVG Export Plug-In . SVG Version: 6.00 Build 0)  -->
<svg version="1.1" id="Layer_1" xmlns="http://www.w3.org/2000/svg" xmlns:xlink="http://www.w3.org/1999/xlink" x="0px" y="0px"
	 viewBox="0 0 32 32" style="enable-background:new 0 0 32 32;" xml:space="preserve">
<style type="text/css">
	.st0{fill:url(#Ellipse_118_00000125588097265261509680000000254524399655160504_);}
	.st1{fill:url(#Ellipse_119_00000036950954411346995350000013325214696247362186_);}
	.st2{fill:url(#Path_958_00000178188149210055904790000013035464105379556781_);}
	.st3{fill:url(#Path_959_00000130633003919589084230000016199339428810034582_);}
	.st4{fill:url(#Path_960_00000132810540533212087110000016430964671753858458_);}
	.st5{fill:url(#Path_961_00000027570761862541746070000010537792462568273044_);}
	.st6{fill:url(#Path_962_00000082326773642004820410000012425760743630238340_);}
	.st7{fill:url(#Path_963_00000155848414026936059610000004669295171175373473_);}
	.st8{fill:url(#Path_964_00000046332476936664197330000002638396062053968004_);}
</style>
<g>
	<g id="Mask_Group_74" transform="translate(-1424 -2185)">
		<g id="maps-and-flags" transform="translate(1424 2185)">
			
				<linearGradient id="Ellipse_118_00000116956709096993876280000006105507262133073319_" gradientUnits="userSpaceOnUse" x1="-272.0723" y1="423.38" x2="-271.3643" y2="424.088" gradientTransform="matrix(32 0 0 -32 8711 13575.4746)">
				<stop  offset="0.1" style="stop-color:#917CC4"/>
				<stop  offset="1" style="stop-color:#9884C4"/>
			</linearGradient>
			
				<circle id="Ellipse_118" style="fill:url(#Ellipse_118_00000116956709096993876280000006105507262133073319_);" cx="16" cy="16" r="16"/>
			
				<radialGradient id="Ellipse_119_00000145770417044688964740000011769345311243770786_" cx="-271.7127" cy="423.8876" r="0.662" gradientTransform="matrix(32 0 0 -32 8711 13575.4746)" gradientUnits="userSpaceOnUse">
				<stop  offset="0" style="stop-color:#917CC4"/>
				<stop  offset="0.139" style="stop-color:#9E93C4;stop-opacity:0.863"/>
				<stop  offset="0.303" style="stop-color:#906EC4;stop-opacity:0.698"/>
				<stop  offset="0.463" style="stop-color:#917CC4;stop-opacity:0.537"/>
				<stop  offset="0.617" style="stop-color:#917CC4;stop-opacity:0.384"/>
				<stop  offset="0.761" style="stop-color:#FFEBF1;stop-opacity:0.239"/>
				<stop  offset="0.892" style="stop-color:#FFFAFB;stop-opacity:0.11"/>
				<stop  offset="1" style="stop-color:#FFFFFF;stop-opacity:0"/>
			</radialGradient>
			
				<circle id="Ellipse_119" style="fill:url(#Ellipse_119_00000145770417044688964740000011769345311243770786_);" cx="16" cy="16" r="16"/>
			
				<linearGradient id="Path_958_00000115472605344586298790000003346635959731690924_" gradientUnits="userSpaceOnUse" x1="-260.0446" y1="398.63" x2="-256.6086" y2="402.186" gradientTransform="matrix(12.0676 0 0 -11.6584 3124.5203 4698.5923)">
				<stop  offset="0" style="stop-color:#F8C57F"/>
				<stop  offset="1" style="stop-color:#F8CD9A"/>
			</linearGradient>
			<path id="Path_958" style="fill:url(#Path_958_00000115472605344586298790000003346635959731690924_);" d="M25.6,10.3
				c-2.7-0.1-5.5-0.1-8.2-0.1c0,0-2.9,6.7-2.9,10.2c0,0.8,0.6,1.4,1.4,1.4c3.2,0,6.4,0,9.6-0.1c0.5,0,1-0.4,1-1c0-3.2,0-6.3,0-9.5
				C26.5,10.7,26.1,10.3,25.6,10.3z"/>
			
				<linearGradient id="Path_959_00000109744483726432327120000012020281665780714379_" gradientUnits="userSpaceOnUse" x1="-201.7819" y1="404.522" x2="-195.8889" y2="406.066" gradientTransform="matrix(3.4242 0 0 -13.068 701.4794 5308.71)">
				<stop  offset="0" style="stop-color:#F8C57F"/>
				<stop  offset="0.5" style="stop-color:#F8CD9A"/>
				<stop  offset="1" style="stop-color:#FFE3F1"/>
			</linearGradient>
			<path id="Path_959" style="fill:url(#Path_959_00000109744483726432327120000012020281665780714379_);" d="M22.2,4.5
				c-0.6,0-1.3,0-1.9-0.1c0,4.4,0.1,8.7,0.1,13.1c1.1,0,2.2,0,3.4,0c0-3.8,0-7.7-0.1-11.5C23.6,5.2,23,4.5,22.2,4.5L22.2,4.5z"/>
			
				<linearGradient id="Path_960_00000127766245203381809910000001106048146988963760_" gradientUnits="userSpaceOnUse" x1="-262.3097" y1="401.5117" x2="-257.4567" y2="406.1897" gradientTransform="matrix(12.6194 0 0 -13.0928 3274.24 5319.52)">
				<stop  offset="0" style="stop-color:#F8C57F"/>
				<stop  offset="1" style="stop-color:#F8CD9A"/>
			</linearGradient>
			<path id="Path_960" style="fill:url(#Path_960_00000127766245203381809910000001106048146988963760_);" d="M20.3,4.4
				c-3.6-0.1-7.3,0-10.9,0.2c-0.1,3.8-0.2,7.6-0.2,11.4h5.3c2.4,0.5,4.8,1,7.3,1.4c0-3.9,0-7.7-0.1-11.6C21.7,5.1,21.1,4.5,20.3,4.4
				L20.3,4.4z"/>
			
				<linearGradient id="Path_961_00000173148082246557904320000017940303357506051235_" gradientUnits="userSpaceOnUse" x1="-261.7749" y1="405.4293" x2="-260.4939" y2="405.4293" gradientTransform="matrix(14.5422 0 0 -13.0812 3814.5227 5314.439)">
				<stop  offset="0" style="stop-color:#917CC4"/>
				<stop  offset="2.700000e-02" style="stop-color:#917CC4;stop-opacity:0.973"/>
				<stop  offset="7.500000e-02" style="stop-color:#917CC4;stop-opacity:0.925"/>
				<stop  offset="0.129" style="stop-color:#F8CD9A;stop-opacity:0.871"/>
				<stop  offset="0.187" style="stop-color:#F8CD9A;stop-opacity:0.812"/>
				<stop  offset="0.251" style="stop-color:#F8D199;stop-opacity:0.749"/>
				<stop  offset="0.323" style="stop-color:#F8CFA4;stop-opacity:0.678"/>
				<stop  offset="0.406" style="stop-color:#F8CA9A;stop-opacity:0.592"/>
				<stop  offset="0.508" style="stop-color:#FFF6F9;stop-opacity:0.49"/>
				<stop  offset="0.647" style="stop-color:#FFFDFE;stop-opacity:0.353"/>
				<stop  offset="1" style="stop-color:#FFFFFF;stop-opacity:0"/>
			</linearGradient>
			<path id="Path_961" style="fill:url(#Path_961_00000173148082246557904320000017940303357506051235_);" d="M22.2,4.5
				c-4.3-0.1-8.6-0.1-12.8,0.1c-0.1,3.8-0.2,7.6-0.2,11.4h5.3c3.1,0.5,6.1,1,9.2,1.4c0-3.8,0-7.7-0.1-11.5C23.6,5.2,23,4.5,22.2,4.5
				L22.2,4.5z"/>
			
				<linearGradient id="Path_962_00000072269350059324661740000010395654395245015951_" gradientUnits="userSpaceOnUse" x1="-149.5093" y1="419.5389" x2="-137.7713" y2="420.5269" gradientTransform="matrix(2.0701 0 0 -24.6282 308.9044 10358.5166)">
				<stop  offset="0" style="stop-color:#F8CD9A"/>
				<stop  offset="1" style="stop-color:#FFFFFF"/>
			</linearGradient>
			<path id="Path_962" style="fill:url(#Path_962_00000072269350059324661740000010395654395245015951_);" d="M9.4,3.7
				c-0.5,0-0.9,0.5-1,1c-0.3,7.5-0.3,15.1,0,22.6c0,0.5,0.4,1,1,1c0.5,0,0.9-0.3,0.9-0.8c0,0,0-0.1,0-0.1c-0.2-7.6-0.2-15.2,0-22.8
				c0-0.5-0.3-0.9-0.8-0.9C9.4,3.7,9.4,3.7,9.4,3.7z"/>
			
				<linearGradient id="Path_963_00000049198779288129273560000016048367495261506705_" gradientUnits="userSpaceOnUse" x1="-252.1079" y1="338.1377" x2="-248.2769" y2="346.2987" gradientTransform="matrix(9.189 0 0 -4.315 2315.6318 1496.252)">
				<stop  offset="0" style="stop-color:#F8C57F"/>
				<stop  offset="1" style="stop-color:#F8CD9A"/>
			</linearGradient>
			<path id="Path_963" style="fill:url(#Path_963_00000049198779288129273560000016048367495261506705_);" d="M14.5,16.1
				c0,1.4,0,2.9,0,4.3c0-0.8,0.6-1.4,1.4-1.4c0,0,0,0,0,0c2.1,0,4.2,0,6.3,0c0.8,0,1.4-0.6,1.4-1.4c0-0.8-0.6-1.4-1.4-1.4
				c0,0,0,0,0,0L14.5,16.1L14.5,16.1z"/>
			
				<linearGradient id="Path_964_00000026131333509715242340000009337800773781568697_" gradientUnits="userSpaceOnUse" x1="-249.92" y1="341.3107" x2="-249.92" y2="343.7177" gradientTransform="matrix(9.189 0 0 -4.315 2315.6318 1496.252)">
				<stop  offset="0" style="stop-color:#FFFFFF;stop-opacity:0"/>
				<stop  offset="0.108" style="stop-color:#FFFAFB;stop-opacity:0.11"/>
				<stop  offset="0.239" style="stop-color:#FFEBF1;stop-opacity:0.239"/>
				<stop  offset="0.383" style="stop-color:#917CC4;stop-opacity:0.384"/>
				<stop  offset="0.536" style="stop-color:#917CC4;stop-opacity:0.537"/>
				<stop  offset="0.697" style="stop-color:#906EC4;stop-opacity:0.698"/>
				<stop  offset="0.86" style="stop-color:#917CC4;stop-opacity:0.859"/>
				<stop  offset="1" style="stop-color:#917CC4"/>
			</linearGradient>
			<path id="Path_964" style="fill:url(#Path_964_00000026131333509715242340000009337800773781568697_);" d="M14.5,16.1
				c0,1.4,0,2.9,0,4.3c0-0.8,0.6-1.4,1.4-1.4c0,0,0,0,0,0c2.1,0,4.2,0,6.3,0c0.8,0,1.4-0.6,1.4-1.4c0-0.8-0.6-1.4-1.4-1.4
				c0,0,0,0,0,0L14.5,16.1L14.5,16.1z"/>
		</g>
	</g>
</g>
</svg>
