<?xml version="1.0" encoding="utf-8"?>
<!-- Generator: Adobe Illustrator 27.0.1, SVG Export Plug-In . SVG Version: 6.00 Build 0)  -->
<svg version="1.1" id="Layer_1" xmlns="http://www.w3.org/2000/svg" xmlns:xlink="http://www.w3.org/1999/xlink" x="0px" y="0px"
	 viewBox="0 0 32 32" style="enable-background:new 0 0 32 32;" xml:space="preserve">
<style type="text/css">
	.st0{fill:#F8CD9A;}
	.st1{fill:#917CC4;}
</style>
<g>
	<g>
		<g id="Mask_Group_78" transform="translate(-1271 -680)">
			<g id="calendar" transform="translate(1271 680)">
				<path id="Path_974" class="st0" d="M7.2,10.4c-0.3,0-0.6,0.3-0.6,0.6s0.3,0.6,0.6,0.6s0.6-0.3,0.6-0.6S7.6,10.4,7.2,10.4z"/>
				<path id="Path_975" class="st1" d="M1.9,32h28.2c1,0,1.9-0.8,1.9-1.9V4.4c0-1-0.8-1.9-1.9-1.9h-1V1.9c0-1-0.8-1.9-1.9-1.9
					s-1.9,0.8-1.9,1.9v0.6h-3.8V1.9c0-1-0.8-1.9-1.9-1.9s-1.9,0.8-1.9,1.9v0.6h-3.8V1.9c0-1-0.8-1.9-1.9-1.9s-1.9,0.8-1.9,1.9v0.6
					H6.6V1.9c0-1-0.8-1.9-1.9-1.9S2.9,0.8,2.9,1.9v0.6h-1C0.8,2.5,0,3.3,0,4.4v25.8C0,31.2,0.8,32,1.9,32z M30.1,30.8H1.9
					c-0.3,0-0.6-0.3-0.6-0.6v-21h29.5v21C30.7,30.5,30.5,30.7,30.1,30.8z M26.6,1.9c0-0.3,0.3-0.6,0.6-0.6s0.6,0.3,0.6,0.6v0.6h-1.2
					V1.9z M19.1,1.9c0-0.3,0.3-0.6,0.6-0.6s0.6,0.3,0.6,0.6v0.6h-1.2V1.9z M11.6,1.9c0-0.3,0.3-0.6,0.6-0.6s0.6,0.3,0.6,0.6v0.6
					h-1.2C11.6,2.5,11.6,1.9,11.6,1.9z M4.1,1.9c0-0.3,0.3-0.6,0.6-0.6s0.6,0.3,0.6,0.6v0.6H4.1V1.9z M1.9,3.8h1v0.8
					c0,1,0.8,1.9,1.9,1.9c0.3,0,0.6-0.3,0.6-0.6S5.1,5.2,4.8,5.2c-0.3,0-0.6-0.3-0.6-0.6V3.8h6.2v0.8c0,1,0.8,1.9,1.9,1.9
					c0.3,0,0.6-0.3,0.6-0.6s-0.3-0.6-0.6-0.6S11.7,5,11.7,4.7V3.8h6.2v0.8c0,1,0.8,1.9,1.9,1.9c0.3,0,0.6-0.3,0.6-0.6
					s-0.3-0.6-0.6-0.6c-0.3,0-0.6-0.3-0.6-0.6V3.8h6.2v0.8c0,1,0.8,1.9,1.9,1.9c0.3,0,0.6-0.3,0.6-0.6s-0.3-0.6-0.6-0.6
					c-0.3,0-0.6-0.3-0.6-0.6V3.8h3.5c0.3,0,0.6,0.3,0.6,0.6v3.5H1.2V4.4C1.3,4,1.5,3.8,1.9,3.8z"/>
				<path id="Path_976" class="st0" d="M24.8,10.4h-15c-0.3,0-0.6,0.3-0.6,0.6s0.3,0.6,0.6,0.6h15c0.3,0,0.6-0.3,0.6-0.6
					S25.1,10.4,24.8,10.4z"/>
				<path id="Path_977" class="st0" d="M16,14.1c-3.8,0-6.9,3.1-6.9,6.9s3.1,6.9,6.9,6.9s6.9-3.1,6.9-6.9S19.8,14.1,16,14.1z
					 M16,26.6c-3.1,0-5.6-2.5-5.6-5.6s2.5-5.6,5.6-5.6s5.6,2.5,5.6,5.6S19.1,26.6,16,26.6z"/>
				<path id="Path_978" class="st0" d="M18.1,19.3L15.4,22L14,20.6c-0.2-0.2-0.6-0.2-0.9,0c-0.2,0.2-0.2,0.6,0,0.9l1.9,1.9
					c0.2,0.2,0.6,0.2,0.9,0l0,0l3.1-3.1c0.2-0.2,0.2-0.6,0-0.9S18.3,19.1,18.1,19.3z"/>
			</g>
		</g>
	</g>
</g>
</svg>
