<?xml version="1.0" encoding="utf-8"?>
<!-- Generator: Adobe Illustrator 27.0.1, SVG Export Plug-In . SVG Version: 6.00 Build 0)  -->
<svg version="1.1" id="Layer_1" xmlns="http://www.w3.org/2000/svg" xmlns:xlink="http://www.w3.org/1999/xlink" x="0px" y="0px"
	 viewBox="0 0 32 32" style="enable-background:new 0 0 32 32;" xml:space="preserve">
<style type="text/css">
	.st0{fill:#F8CD9A;}
	.st1{fill:#917CC4;}
</style>
<g>
	<g id="Mask_Group_77" transform="translate(-1079 -680)">
		<g id="dialogue" transform="translate(1079 680)">
			<circle id="Ellipse_121" class="st0" cx="31.4" cy="12.4" r="0.6"/>
			<path id="Path_967" class="st1" d="M31.3,2c-0.5-0.5-1.1-0.7-1.8-0.7H12.6c-1.4,0-2.5,1.1-2.5,2.5c0,0,0,0,0,0v10H2.5
				c-1.4,0-2.5,1.1-2.5,2.5v13.8c0,0.3,0.3,0.6,0.6,0.6c0.1,0,0.3-0.1,0.4-0.1l3.6-3h14.8c1.4,0,2.5-1.1,2.5-2.5v-7.6h5.5l3.6,3
				c0.3,0.2,0.7,0.2,0.9-0.1c0.1-0.1,0.1-0.3,0.1-0.4v-4.7c0-0.3-0.3-0.6-0.6-0.6s-0.6,0.3-0.6,0.6v3.4L28,16.3
				c-0.1-0.1-0.3-0.1-0.4-0.1h-5.8c-0.1-1.3-1.2-2.4-2.5-2.4h-8v-10c0-0.7,0.6-1.2,1.2-1.2h16.9c0.7,0,1.2,0.6,1.2,1.2v5.8
				c0,0.3,0.3,0.6,0.6,0.6S32,9.9,32,9.6V3.8C32,3.1,31.7,2.5,31.3,2z M19.4,15.1c0.7,0,1.2,0.6,1.2,1.2v8.8c0,0.7-0.6,1.2-1.2,1.2
				h-15c-0.1,0-0.3,0.1-0.4,0.1l-2.7,2.3V16.3c0-0.7,0.6-1.2,1.2-1.2H19.4z"/>
			<path id="Path_968" class="st0" d="M13.9,11.9h6.6c0.3,0,0.6-0.3,0.6-0.6s-0.3-0.6-0.6-0.6h-6.6c-0.3,0-0.6,0.3-0.6,0.6
				S13.5,11.9,13.9,11.9z"/>
			<path id="Path_969" class="st0" d="M27.7,6.6l-2.4,3.6l-1.2-1.8c-0.2-0.3-0.6-0.4-0.9-0.2c-0.3,0.2-0.4,0.6-0.2,0.9l1.8,2.5
				c0.1,0.2,0.3,0.3,0.5,0.3h0c0.2,0,0.4-0.1,0.5-0.3l2.9-4.4C29,7,28.9,6.6,28.6,6.4C28.3,6.2,27.9,6.3,27.7,6.6L27.7,6.6z"/>
			<path id="Path_970" class="st0" d="M13.9,8.8h3.8c0.3,0,0.6-0.3,0.6-0.6c0-0.3-0.3-0.6-0.6-0.6h-3.8c-0.3,0-0.6,0.3-0.6,0.6
				C13.2,8.5,13.5,8.8,13.9,8.8z"/>
			<circle id="Ellipse_122" class="st0" cx="20.4" cy="8.2" r="0.6"/>
			<path id="Path_971" class="st0" d="M4.4,21.3h3.8c0.3,0,0.6-0.3,0.6-0.6s-0.3-0.6-0.6-0.6H4.4c-0.3,0-0.6,0.3-0.6,0.6
				S4,21.3,4.4,21.3z"/>
			<path id="Path_972" class="st0" d="M17.5,20.1h-3.8c-0.3,0-0.6,0.3-0.6,0.6s0.3,0.6,0.6,0.6h3.8c0.3,0,0.6-0.3,0.6-0.6
				S17.8,20.1,17.5,20.1z"/>
			<circle id="Ellipse_123" class="st0" cx="10.9" cy="20.7" r="0.6"/>
			<path id="Path_973" class="st0" d="M7.5,18.2h10c0.3,0,0.6-0.3,0.6-0.6s-0.3-0.6-0.6-0.6h-10c-0.3,0-0.6,0.3-0.6,0.6
				S7.2,18.2,7.5,18.2z"/>
		</g>
	</g>
</g>
</svg>
