<?xml version="1.0" encoding="utf-8"?>
<!-- Generator: Adobe Illustrator 27.0.1, SVG Export Plug-In . SVG Version: 6.00 Build 0)  -->
<svg version="1.1" id="Layer_1" xmlns="http://www.w3.org/2000/svg" xmlns:xlink="http://www.w3.org/1999/xlink" x="0px" y="0px"
	 viewBox="0 0 32 32" style="enable-background:new 0 0 32 32;" xml:space="preserve">
<style type="text/css">
	.st0{fill:#917CC4;}
	.st1{fill:#F8CD9A;}
</style>
<g>
	<g id="Mask_Group_75" transform="translate(-695 -680)">
		<g id="XMLID_1366_" transform="translate(695 680)">
			<g id="XMLID_267_">
				<path id="XMLID_1361_" class="st0" d="M30.5,20v-8.5c0-0.2-0.1-0.4-0.3-0.6L15.5,3.4c-0.2-0.1-0.4-0.1-0.6,0l-4,2
					c-0.3,0.1-0.5,0.5-0.3,0.8c0.1,0.3,0.5,0.5,0.8,0.3c0,0,0.1,0,0.1,0l3.7-1.9l12,6.2H17c-0.3-1-1.4-1.5-2.4-1.1s-1.5,1.4-1.1,2.4
					s1.4,1.5,2.4,1.1c0.5-0.2,1-0.6,1.1-1.1h10.3l-12,6.2L2,11.5l4.5-2.3C6.8,9,6.9,8.6,6.8,8.3C6.6,8,6.3,7.9,6,8.1l-5.6,2.9
					c-0.3,0.2-0.4,0.5-0.3,0.8c0.1,0.1,0.2,0.2,0.3,0.3l5.1,2.6V20c0,0.7,0.4,1.3,1,1.7l7.9,4.1c0.5,0.3,1.2,0.3,1.7,0l7.9-4.1
					c0.6-0.3,1-1,1-1.7v-5.4l4.2-2.1V20c-0.9,0.3-1.5,1.1-1.5,2v6c0,0.3,0.3,0.6,0.6,0.6h3c0.3,0,0.6-0.3,0.6-0.6v-6
					C32,21.1,31.4,20.2,30.5,20z M15.2,12.1c-0.3,0-0.6-0.3-0.6-0.6s0.3-0.6,0.6-0.6s0.6,0.3,0.6,0.6C15.9,11.8,15.6,12.1,15.2,12.1
					z M23.8,20c0,0.2-0.1,0.4-0.3,0.6l-7.9,4.1c-0.2,0.1-0.4,0.1-0.6,0L7,20.6c-0.2-0.1-0.3-0.3-0.3-0.6v-4.7l8.3,4.2
					c0.2,0.1,0.4,0.1,0.6,0l8.3-4.2V20z M30.8,27.4H29V22c0-0.5,0.4-0.9,0.9-0.9s0.9,0.4,0.9,0.9V27.4z"/>
				<path id="XMLID_1595_" class="st1" d="M8.8,8c0.3,0,0.6-0.3,0.6-0.6c0-0.3-0.3-0.6-0.6-0.6C8.4,6.7,8.1,7,8.1,7.3
					c0,0.2,0.1,0.3,0.2,0.4C8.4,7.9,8.6,8,8.8,8z"/>
			</g>
		</g>
	</g>
</g>
</svg>
