<?xml version="1.0" encoding="utf-8"?>
<!-- Generator: Adobe Illustrator 27.0.1, SVG Export Plug-In . SVG Version: 6.00 Build 0)  -->
<svg version="1.1" id="Layer_1" xmlns="http://www.w3.org/2000/svg" xmlns:xlink="http://www.w3.org/1999/xlink" x="0px" y="0px"
	 viewBox="0 0 32 32" style="enable-background:new 0 0 32 32;" xml:space="preserve">
<style type="text/css">
	.st0{clip-path:url(#SVGID_00000095340675176914258090000011960142580061466296_);}
	.st1{fill:#F8CD9A;}
	.st2{fill:#917CC4;}
</style>
<g>
	<defs>
		<rect id="SVGID_1_" y="0" width="32" height="32"/>
	</defs>
	<clipPath id="SVGID_00000016046987136474595110000014153392537612329874_">
		<use xlink:href="#SVGID_1_"  style="overflow:visible;"/>
	</clipPath>
	
		<g id="Mask_Group_76" transform="translate(-887 -680)" style="clip-path:url(#SVGID_00000016046987136474595110000014153392537612329874_);">
		<g id="video_1_" transform="translate(887 680)">
			<path id="Path_965" class="st1" d="M18.5,16c0-1.4-1.1-2.5-2.5-2.5s-2.5,1.1-2.5,2.5s1.1,2.5,2.5,2.5S18.5,17.4,18.5,16z
				 M16,17.2c-0.7,0-1.2-0.6-1.2-1.2c0-0.7,0.6-1.2,1.2-1.2c0.7,0,1.2,0.6,1.2,1.2C17.2,16.7,16.7,17.2,16,17.2z"/>
			<path id="Path_966" class="st2" d="M4.4,29.8h8.8c0.3,0,0.6-0.3,0.6-0.6s-0.3-0.6-0.6-0.6H4.4c-1.5,0-2.8-1-3.1-2.5h29.4
				c-0.3,1.5-1.6,2.5-3.1,2.5h-8.8c-0.3,0-0.6,0.3-0.6,0.6s0.3,0.6,0.6,0.6h8.8c2.4,0,4.4-2,4.4-4.4c0-0.3-0.3-0.6-0.6-0.6h-2.2V8.5
				c0-0.3-0.3-0.6-0.6-0.6h-4.4v-5c0-0.3-0.3-0.6-0.6-0.6c-0.1,0-0.2,0-0.3,0.1l-4.7,3.1V2.9c0-0.3-0.3-0.6-0.6-0.6H8.5
				c-0.3,0-0.6,0.3-0.6,0.6v5H3.4c-0.3,0-0.6,0.3-0.6,0.6v16.2H0.6C0.3,24.8,0,25,0,25.4C0,27.8,2,29.7,4.4,29.8z M19.1,24.8h-6.2
				v-1.9c0-1.7,1.4-3.1,3.1-3.1s3.1,1.4,3.1,3.1V24.8z M22.9,4v5.2L19,6.6L22.9,4z M9.1,3.5h8.1v6.2H9.1V3.5z M4.1,9.1h3.8v1.2
				c0,0.3,0.3,0.6,0.6,0.6h9.4c0.3,0,0.6-0.3,0.6-0.6V7.8l4.7,3.1c0.3,0.2,0.7,0.1,0.9-0.2c0.1-0.1,0.1-0.2,0.1-0.3V9.1h3.8v15.6
				h-7.6v-1.9c0-2.4-2-4.4-4.4-4.4s-4.4,2-4.4,4.4v1.9H4.1V9.1z"/>
			<circle id="Ellipse_120" class="st1" cx="16" cy="29.1" r="0.6"/>
		</g>
	</g>
</g>
</svg>
