<?xml version="1.0" encoding="utf-8"?>
<!-- Generator: Adobe Illustrator 27.0.1, SVG Export Plug-In . SVG Version: 6.00 Build 0)  -->
<svg version="1.1" id="Layer_1" xmlns="http://www.w3.org/2000/svg" xmlns:xlink="http://www.w3.org/1999/xlink" x="0px" y="0px"
	 viewBox="0 0 333 279.4" style="enable-background:new 0 0 333 279.4;" xml:space="preserve">
<style type="text/css">
	.st0{fill:#FFFCF9;}
	.st1{fill:#FFFFFF;}
	.st2{fill:url(#SVGID_1_);}
	.st3{fill:#FDF3F3;}
	.st4{opacity:0.6;fill:#FDF3F3;enable-background:new    ;}
	.st5{opacity:0.4;fill:#FDF3F3;enable-background:new    ;}
	.st6{fill:#FEFBF6;}
	.st7{fill:#FEF5EB;}
	.st8{fill:url(#SVGID_00000150101146920836641350000003404596445419053228_);}
	.st9{fill:url(#SVGID_00000070806162798952424920000008394651484608306049_);}
	.st10{fill:#F8CD9A;}
	.st11{fill:#F9D5A9;}
	.st12{fill:url(#SVGID_00000069399080658757366740000003077186747289559451_);}
	.st13{fill:#FEFBF7;}
	.st14{fill:url(#SVGID_00000042697748449476603410000001866812610170588560_);}
	.st15{fill:url(#SVGID_00000111184511076442976090000003445951511140476854_);}
	.st16{fill:url(#SVGID_00000147919511842020029850000014385847779784425402_);}
	.st17{fill:url(#SVGID_00000045599068376540039680000006649062736053502122_);}
	.st18{fill:url(#SVGID_00000052077380586738428970000004884609865958821538_);}
</style>
<g transform="translate(33)">
	<path class="st0" d="M134,270c68.6,0,124.3-55.9,124.3-124.8S202.6,20.3,134,20.3S9.8,76.2,9.8,145.2S65.4,270,134,270z"/>
	<g>
		<path class="st1" d="M267,62.8v165c0.1,4.1-3.2,7.5-7.2,7.5c-0.1,0-0.2,0-0.3,0H7.5c-4.1,0.1-7.4-3.2-7.5-7.3c0-0.1,0-0.2,0-0.3
			v-165c-0.1-4.1,3.2-7.5,7.2-7.5c0.1,0,0.2,0,0.3,0h252c4.1-0.1,7.4,3.2,7.5,7.3C267,62.6,267,62.7,267,62.8L267,62.8z"/>
	</g>
	
		<linearGradient id="SVGID_1_" gradientUnits="userSpaceOnUse" x1="-162.5132" y1="543.0643" x2="-161.5132" y2="543.0643" gradientTransform="matrix(267.0296 0 0 -16.2189 43396.0703 8871.2725)">
		<stop  offset="0" style="stop-color:#B6A4D4"/>
		<stop  offset="1" style="stop-color:#CEC2E2"/>
	</linearGradient>
	<path class="st2" d="M267.3,62.8v8.7H0.2v-8.7c-0.1-4.1,3.2-7.5,7.2-7.5c0.1,0,0.2,0,0.3,0h252C263.9,55.3,267.3,58.7,267.3,62.8z"
		/>
	<circle class="st3" cx="9.1" cy="63.5" r="2.3"/>
	<circle class="st4" cx="15.9" cy="63.5" r="2.3"/>
	<circle class="st5" cx="22.7" cy="63.5" r="2.3"/>
	<path class="st1" d="M184.5,224.8h-103c-2.5,0-4.5-2-4.5-4.5c0,0,0,0,0,0V89.9c0-2.5,2-4.5,4.5-4.5c0,0,0,0,0,0h103
		c2.5,0,4.5,2,4.5,4.5c0,0,0,0,0,0v130.4C189,222.8,187,224.8,184.5,224.8C184.5,224.8,184.5,224.8,184.5,224.8L184.5,224.8z"/>
	<path class="st6" d="M174.8,189.4H92.3c-1.9,0-3.5-1.5-3.5-3.3c0-0.1,0-0.1,0-0.2v-52.8c-0.1-1.9,1.4-3.5,3.3-3.5
		c0.1,0,0.1,0,0.2,0h82.3c1.9,0,3.5,1.5,3.5,3.4c0,0.1,0,0.1,0,0.2v52.8c0.2,1.7-1,3.3-2.6,3.5C175.2,189.4,175,189.4,174.8,189.4z"
		/>
	<path class="st7" d="M137,181.4H98.8l19.3-21.6L137,181.4z"/>
	<path class="st1" d="M168.3,181.4h-54.8l27.5-31.2L168.3,181.4z"/>
	<path class="st7" d="M113.3,151.7c4,0,7.3-3.2,7.3-7.3c0-4-3.2-7.3-7.3-7.3c-4,0-7.3,3.2-7.3,7.3c0,0,0,0,0,0
		C106,148.5,109.2,151.7,113.3,151.7C113.3,151.7,113.3,151.7,113.3,151.7z"/>
	<path class="st6" d="M253,222.8h-50.8c-1.2,0-2.2-1-2.3-2.2c0,0,0,0,0,0v-32.7c0-1.2,1-2.3,2.2-2.3c0,0,0,0,0,0H253
		c1.2,0,2.2,1,2.2,2.2c0,0,0,0,0,0v32.7C255.3,221.8,254.3,222.8,253,222.8C253,222.8,253,222.8,253,222.8z"/>
	<path class="st7" d="M229.5,217.8h-23.3l11.8-13.3L229.5,217.8z"/>
	<path class="st1" d="M249,217.8h-33.8l16.8-19.1L249,217.8z"/>
	<path class="st7" d="M215,199.7c2.5,0,4.5-2,4.5-4.5c0-2.5-2-4.5-4.5-4.5c-2.5,0-4.5,2-4.5,4.5c0,0,0,0,0,0
		C210.5,197.7,212.5,199.7,215,199.7C215,199.7,215,199.7,215,199.7z"/>
	<path class="st6" d="M253,173.8h-50.8c-1.2,0-2.2-1-2.3-2.2c0,0,0,0,0,0v-32.7c0-1.2,1-2.3,2.2-2.3c0,0,0,0,0,0H253
		c1.2,0,2.2,1,2.2,2.2c0,0,0,0,0,0v32.7C255.3,172.8,254.3,173.8,253,173.8C253,173.8,253,173.8,253,173.8z"/>
	<path class="st7" d="M229.5,168.8h-23.3l11.8-13.3L229.5,168.8z"/>
	<path class="st1" d="M249,168.8h-33.8l16.8-19.3L249,168.8z"/>
	<path class="st7" d="M215,150.5c2.5,0,4.5-2,4.5-4.5c0-2.5-2-4.5-4.5-4.5c-2.5,0-4.5,2-4.5,4.5c0,0,0,0,0,0
		C210.5,148.4,212.5,150.5,215,150.5C215,150.5,215,150.5,215,150.5z"/>
	<path class="st6" d="M253,124.6h-50.8c-1.2,0-2.2-1-2.3-2.2c0,0,0,0,0,0V89.7c0-1.2,1-2.3,2.2-2.3c0,0,0,0,0,0H253
		c1.2,0,2.2,1,2.2,2.2c0,0,0,0,0,0v32.7C255.3,123.6,254.3,124.6,253,124.6C253,124.6,253,124.6,253,124.6z"/>
	<path class="st7" d="M229.5,119.6h-23.3l11.8-13.3L229.5,119.6z"/>
	<path class="st1" d="M249,119.6h-33.8l16.8-19.1L249,119.6z"/>
	<path class="st7" d="M215,101.5c2.5,0,4.5-2,4.5-4.5c0-2.5-2-4.5-4.5-4.5c-2.5,0-4.5,2-4.5,4.5c0,0,0,0,0,0
		C210.5,99.5,212.5,101.5,215,101.5C215,101.5,215,101.5,215,101.5z"/>
	<path class="st6" d="M177.3,99.2H90c-0.8,0-1.5-0.6-1.5-1.4c0,0,0-0.1,0-0.1c0-0.8,0.6-1.5,1.4-1.5c0,0,0.1,0,0.1,0h87
		c0.8,0,1.5,0.6,1.5,1.4c0,0,0,0.1,0,0.1c0.1,0.7-0.3,1.3-1,1.5C177.4,99.2,177.4,99.2,177.3,99.2z"/>
	<path class="st6" d="M177.3,108.3H90c-0.8,0-1.5-0.6-1.5-1.4c0,0,0-0.1,0-0.1c0-0.8,0.6-1.5,1.4-1.5c0,0,0.1,0,0.1,0h87
		c0.8,0,1.5,0.6,1.5,1.4c0,0,0,0.1,0,0.1c0.1,0.7-0.3,1.3-1,1.5C177.4,108.3,177.4,108.3,177.3,108.3z"/>
	<path class="st6" d="M152.8,203H90c-0.8,0-1.5-0.6-1.5-1.4c0,0,0-0.1,0-0.1c0-0.8,0.6-1.5,1.4-1.5c0,0,0.1,0,0.1,0h62.8
		c0.8,0,1.5,0.6,1.5,1.4c0,0,0,0.1,0,0.1C154.2,202.3,153.6,202.9,152.8,203z"/>
	
		<linearGradient id="SVGID_00000005969280898976418950000017075888655404612022_" gradientUnits="userSpaceOnUse" x1="-160.2231" y1="467.2309" x2="-159.2161" y2="467.2309" gradientTransform="matrix(46.7811 0 0 -3.0163 7583.8315 1525.8914)">
		<stop  offset="0" style="stop-color:#C0B0DA"/>
		<stop  offset="1" style="stop-color:#AA95CD"/>
	</linearGradient>
	<path style="fill:url(#SVGID_00000005969280898976418950000017075888655404612022_);" d="M134,118.1H90c-0.8,0-1.5-0.6-1.5-1.4
		c0,0,0-0.1,0-0.1c0-0.8,0.6-1.5,1.4-1.5c0,0,0.1,0,0.1,0h43.8c0.8,0,1.5,0.6,1.5,1.4c0,0,0,0.1,0,0.1c0.1,0.7-0.3,1.3-1,1.5
		C134.2,118.1,134.1,118.1,134,118.1z"/>
	<path class="st6" d="M177.3,212.3H90c-0.8,0-1.5-0.6-1.5-1.4c0,0,0-0.1,0-0.1c0-0.8,0.6-1.5,1.4-1.5c0,0,0.1,0,0.1,0h87
		c0.8,0,1.5,0.6,1.5,1.4c0,0,0,0.1,0,0.1c0.1,0.7-0.3,1.3-1,1.5C177.4,212.3,177.4,212.3,177.3,212.3z"/>
	
		<linearGradient id="SVGID_00000090265145478228978890000005486239552338374559_" gradientUnits="userSpaceOnUse" x1="-156.512" y1="467.2907" x2="-155.501" y2="467.2907" gradientTransform="matrix(20.003 0 0 -3.0183 3289.2483 1611.8853)">
		<stop  offset="0" style="stop-color:#C0B0DA"/>
		<stop  offset="1" style="stop-color:#AA95CD"/>
	</linearGradient>
	<path style="fill:url(#SVGID_00000090265145478228978890000005486239552338374559_);" d="M177.3,203h-17c-0.8,0-1.5-0.6-1.5-1.4
		c0,0,0-0.1,0-0.1c0-0.8,0.6-1.5,1.4-1.5c0,0,0.1,0,0.1,0h17c0.8,0,1.5,0.6,1.5,1.4c0,0,0,0.1,0,0.1
		C178.7,202.3,178.1,202.9,177.3,203z"/>
	<path class="st10" d="M62.8,224.1H15c-2.8,0.1-5.2-2.2-5.3-5c0-0.1,0-0.2,0-0.3V89.9c-0.1-2.8,2.2-5.2,5-5.3c0.1,0,0.2,0,0.3,0
		h47.5c2.8-0.1,5.2,2.2,5.3,5c0,0.1,0,0.2,0,0.3v128.9c0.2,2.7-1.9,5.1-4.6,5.3C63,224.1,62.9,224.1,62.8,224.1z"/>
	<path class="st11" d="M39,102.2c3.2,0,5.8-2.6,5.8-5.7c0-3.2-2.6-5.8-5.7-5.8s-5.8,2.6-5.8,5.7c0,0,0,0,0,0
		C33.2,99.6,35.8,102.2,39,102.2z"/>
	<path class="st11" d="M57.3,109.3H20.8c-0.5,0-1-0.5-1-1c0-0.5,0.5-1,1-1h36.5c0.5,0,1,0.5,1,1C58.2,108.8,57.8,109.2,57.3,109.3z"
		/>
	<path class="st11" d="M57.3,117.1H20.8c-0.5,0-1-0.5-1-1c0-0.5,0.5-1,1-1h36.5c0.5,0,1,0.5,1,1C58.2,116.6,57.8,117,57.3,117.1z"/>
	<path class="st11" d="M57.3,130.4H20.8c-0.5,0-1-0.5-1-1c0-0.8,0.2-1.3,1-1.3h36.5c0.5,0,1,0.5,1,1
		C58.3,129.7,57.9,130.3,57.3,130.4z"/>
	<path class="st11" d="M34,138.2H20.3c-0.4,0-0.7-0.3-0.7-0.8v-0.8c0-0.4,0.3-0.7,0.7-0.8h13.5c0.4,0,0.7,0.3,0.8,0.8v0.8
		C34.5,137.9,34.3,138.2,34,138.2z"/>
	<path class="st11" d="M57.3,152H20.8c-0.5,0-1-0.5-1-1c0-0.5,0.5-1,1-1h36.5c0.5,0,1,0.5,1,1C58.2,151.5,57.8,151.9,57.3,152z"/>
	<path class="st11" d="M34,159.8H20.3c-0.4,0-0.7-0.3-0.7-0.8v-0.8c0-0.4,0.3-0.7,0.7-0.8h13.5c0.4,0,0.7,0.4,0.8,0.8v0.8
		C34.5,159.5,34.3,159.8,34,159.8z"/>
	<path class="st11" d="M57.3,173.6H20.8c-0.5,0-1-0.5-1-1c0-0.5,0.5-1,1-1h36.5c0.5,0,1,0.5,1,1c0.1,0.5-0.3,1-0.8,1
		C57.4,173.6,57.3,173.6,57.3,173.6z"/>
	
		<linearGradient id="SVGID_00000045612207579821705650000014261541833763528084_" gradientUnits="userSpaceOnUse" x1="-154.3243" y1="436.2732" x2="-153.3283" y2="436.2732" gradientTransform="matrix(15 0 0 -2.264 2334.502 1167.9615)">
		<stop  offset="0" style="stop-color:#C0B0DA"/>
		<stop  offset="1" style="stop-color:#AA95CD"/>
	</linearGradient>
	<path style="fill:url(#SVGID_00000045612207579821705650000014261541833763528084_);" d="M34,181.4H20.3c-0.4,0-0.7-0.3-0.7-0.8
		v-0.8c0-0.4,0.3-0.7,0.7-0.8h13.5c0.4,0,0.7,0.4,0.8,0.8v1C34.5,181.1,34.3,181.4,34,181.4z"/>
	<path class="st13" d="M233.5,48.2c5.3,0,9.6-4.2,9.6-9.5s-4.2-9.6-9.5-9.6c-5.3,0-9.6,4.2-9.6,9.5c0,0,0,0,0,0
		C224,43.9,228.3,48.2,233.5,48.2z"/>
	<path class="st13" d="M59.5,20.3c3.5,0,6.3-2.8,6.3-6.2S63,7.8,59.6,7.8c-3.5,0-6.3,2.8-6.3,6.2c0,0,0,0,0,0
		C53.2,17.5,56,20.3,59.5,20.3z"/>
	<path class="st13" d="M31,36.4c2.4,0,4.3-1.9,4.3-4.2s-1.9-4.3-4.2-4.3c-2.4,0-4.3,1.9-4.3,4.2c0,0,0,0,0,0
		C26.7,34.5,28.6,36.4,31,36.4C31,36.4,31,36.4,31,36.4z"/>
	<path class="st13" d="M222.5,8c2.2,0,4-1.8,4-4c0-2.2-1.8-4-4-4c-2.2,0-4,1.8-4,4c0,0,0,0,0,0C218.5,6.2,220.3,8,222.5,8z"/>
	
		<linearGradient id="SVGID_00000069387526376036343030000007680071447847443341_" gradientUnits="userSpaceOnUse" x1="-144.5164" y1="520.441" x2="-143.5514" y2="520.441" gradientTransform="matrix(7.034 0 0 -7.034 1054.0486 3925.8052)">
		<stop  offset="0" style="stop-color:#C0B0DA"/>
		<stop  offset="1" style="stop-color:#AA95CD"/>
	</linearGradient>
	<path style="fill:url(#SVGID_00000069387526376036343030000007680071447847443341_);" d="M41,268.5c1.9,0,3.5-1.6,3.5-3.5
		c0-1.9-1.6-3.5-3.5-3.5c-1.9,0-3.5,1.6-3.5,3.5c0,0,0,0,0,0C37.5,267,39.1,268.5,41,268.5z"/>
	
		<linearGradient id="SVGID_00000025442145224250095700000004244577992291442069_" gradientUnits="userSpaceOnUse" x1="-144.4921" y1="520.4296" x2="-143.5271" y2="520.4296" gradientTransform="matrix(7.032 0 0 -7.032 1191.4865 3665.1899)">
		<stop  offset="0" style="stop-color:#FCE9D3"/>
		<stop  offset="1" style="stop-color:#FBE0BF"/>
	</linearGradient>
	<path style="fill:url(#SVGID_00000025442145224250095700000004244577992291442069_);" d="M178.8,9c1.9,0,3.5-1.6,3.5-3.5
		S180.7,2,178.8,2c-1.9,0-3.5,1.6-3.5,3.5c0,0,0,0,0,0C175.3,7.5,176.8,9,178.8,9z"/>
	
		<linearGradient id="SVGID_00000155109698411888700590000001879504688598955926_" gradientUnits="userSpaceOnUse" x1="-161.8167" y1="557.2051" x2="-160.8167" y2="557.2051" gradientTransform="matrix(110.0498 0 0 -88.2348 17970.3828 49380.0586)">
		<stop  offset="0" style="stop-color:#C0B0DA"/>
		<stop  offset="1" style="stop-color:#AA95CD"/>
	</linearGradient>
	<path style="fill:url(#SVGID_00000155109698411888700590000001879504688598955926_);" d="M269.8,189.9c-1.5-5.6-5.1-10.3-10-13.3
		c-5.5-3.3-11.3-3.8-17.5-4.3c-11.1-1.2-22.3-1.6-33.5-1c-10,0.2-21.5-0.3-30.8,4c-13.3,5.8-15,18.6-15.5,32.4
		c-0.5,10.3-0.5,22.6,2.2,32.7c2.1,8.1,8.6,14.3,16.8,16.1c10.5,2.5,33,3,44,2.8h3c8.8-0.3,18-0.3,26-3.3
		c5.8-1.7,10.6-5.8,13.3-11.3c3-6,3.8-13.6,4-21.9C272.8,212,272.5,199.7,269.8,189.9z"/>
	
		<linearGradient id="SVGID_00000030482283538451899190000010676443451986819989_" gradientUnits="userSpaceOnUse" x1="-160.7501" y1="554.5578" x2="-160.1951" y2="553.7898" gradientTransform="matrix(63.257 0 0 -45.466 10385.9131 25433.9414)">
		<stop  offset="0" style="stop-color:#9B82C4"/>
		<stop  offset="1" style="stop-color:#9D84C5;stop-opacity:0"/>
	</linearGradient>
	<path style="fill:url(#SVGID_00000030482283538451899190000010676443451986819989_);" d="M268.3,244.4c-2.6,5.5-7.5,9.6-13.3,11.3
		c-8.3,2.8-17.5,3-26,3.3l-24-24.1l9.5-13.8l23-7.5L268.3,244.4z"/>
	
		<linearGradient id="SVGID_00000026882845652185547930000001025864161354199468_" gradientUnits="userSpaceOnUse" x1="-158.5446" y1="553.1348" x2="-159.2616" y2="553.7358" gradientTransform="matrix(34.1915 0 0 -40.6611 5647.2354 22720.1406)">
		<stop  offset="1.100000e-02" style="stop-color:#E9E3F2"/>
		<stop  offset="1" style="stop-color:#FFFFFF"/>
	</linearGradient>
	<path style="fill:url(#SVGID_00000026882845652185547930000001025864161354199468_);" d="M204,198.7c0-3.8,2-5,5.3-3
		c8.7,5.3,17.7,10.8,26.5,16.1c3.2,2,3.2,4.3,0,6.5c-8.8,5.3-17.5,10.8-26.3,16.1c-3.5,2-5.2,1-5.5-2.5V198.7z"/>
</g>
</svg>
