<?xml version="1.0" encoding="utf-8"?>
<!-- Generator: Adobe Illustrator 27.0.1, SVG Export Plug-In . SVG Version: 6.00 Build 0)  -->
<svg version="1.1" id="Layer_1" xmlns="http://www.w3.org/2000/svg" xmlns:xlink="http://www.w3.org/1999/xlink" x="0px" y="0px"
	 viewBox="0 0 246.5 263.3" style="enable-background:new 0 0 246.5 263.3;" xml:space="preserve">
<style type="text/css">
	.st0{fill:url(#Path-2_00000158009290384945833160000015704222021420710040_);}
	.st1{fill:#917CC4;}
	.st2{fill:url(#Path-5_00000127007112455631860130000015044710486779071405_);}
	.st3{fill:url(#Path-8_00000020395601505545512510000015939191589282120066_);}
	.st4{filter:url(#Path);}
	.st5{fill:#FFFFFF;}
	.st6{fill:#DDE1F0;}
	.st7{fill:url(#Path-15_00000113321340514649560160000017829570425556880819_);}
	.st8{opacity:0.6;fill:#917CC4;enable-background:new    ;}
	.st9{fill:url(#Path-17_00000005241724067892384790000000703164074765502083_);}
	.st10{fill:#F8CD9A;}
	.st11{font-family:'Montserrat-Bold';}
	.st12{font-size:30px;}
	.st13{fill:url(#Path-20_00000173848455578407696390000008327743086194681992_);}
	.st14{fill:url(#Path-21_00000100359447981452096260000003486266426811154326_);}
	.st15{fill:url(#Path-22_00000152966833126625703440000005152933331599950721_);}
</style>
<filter  filterUnits="userSpaceOnUse" height="207.137" id="Path" width="217.483" x="17.748" y="56.171">
	<feOffset  dy="11"></feOffset>
	<feGaussianBlur  result="blur" stdDeviation="11"></feGaussianBlur>
	<feFlood  flood-color="#657a93" flood-opacity=".18"></feFlood>
	<feComposite  in2="blur" operator="in"></feComposite>
	<feComposite  in="SourceGraphic" operator="over"></feComposite>
</filter>
<g id="Group_1331" transform="translate(-320.473 -413.262)">
	<g id="_41" transform="translate(320.473 413.262)">
		
			<linearGradient id="Path-2_00000043436805139185966370000012025871773702711942_" gradientUnits="userSpaceOnUse" x1="-172.7516" y1="551.6553" x2="-172.7516" y2="550.6553" gradientTransform="matrix(232.4821 0 0 -234.1003 40287.5352 129153.0547)">
			<stop  offset="0" style="stop-color:#EAEEF9;stop-opacity:0"/>
			<stop  offset="1" style="stop-color:#F6F6F6"/>
		</linearGradient>
		<path id="Path-2" style="fill:url(#Path-2_00000043436805139185966370000012025871773702711942_);" d="M242.1,127.4
			c0,25.5-8.3,50.4-23.7,70.8c-8.1,10.7-17.9,19.9-29.1,27.2c-18.8,12.5-40.8,19.1-63.3,19c-64.3,0-116.4-52.5-116.4-117
			c0-64.8,52.1-117.1,116.1-117.1c36.3,0,70.6,17,92.5,46C233.8,76.8,242.2,101.8,242.1,127.4L242.1,127.4z"/>
		<path id="Path-3" class="st1" d="M158.3,65.4c17.9-7,43.5-21.4,54-27.7c0.9-0.5,2.1-0.2,2.6,0.7c0.3,0.5,0.3,1.1,0.1,1.7
			c-1.6,4.1-3.6,7.9-6,11.6c0,0,5.5,1.2,9.1,4.3c1.1,0.8,1.3,2.3,0.5,3.3c-0.2,0.3-0.6,0.6-0.9,0.7c-9.3,4.6-21.3,6.8-21.3,6.8
			l-32,2.6L158.3,65.4z"/>
		<path id="Path-4" class="st1" d="M93.5,65.4c-17.9-7-43.5-21.4-54-27.7c-0.9-0.5-2.1-0.2-2.6,0.7c-0.3,0.5-0.3,1.1-0.1,1.7
			c1.6,4.1,3.6,7.9,6,11.6c0,0-5.5,1.2-9.1,4.3c-1.1,0.8-1.3,2.3-0.5,3.3c0.2,0.3,0.6,0.6,0.9,0.7c9.3,4.6,21.3,6.8,21.3,6.8l32,2.6
			L93.5,65.4z"/>
		
			<linearGradient id="Path-5_00000132070105676574977300000006603852442815459237_" gradientUnits="userSpaceOnUse" x1="-171.3655" y1="548.0826" x2="-170.3675" y2="548.0826" gradientTransform="matrix(65.946 0 0 -67.0973 11432.5889 36808.918)">
			<stop  offset="0" style="stop-color:#9C88C4"/>
			<stop  offset="1" style="stop-color:#8868C4"/>
		</linearGradient>
		<path id="Path-5" style="fill:url(#Path-5_00000132070105676574977300000006603852442815459237_);" d="M197.2,33.1
			c-0.7,4.2-2.6,8.2-5.3,11.6c-5.5,7-13.6,11.6-21.3,15.4c-5.7,3-11.7,5.4-17.9,7.2c-4.1,1-11.2-1.2-16-3.1
			c-2.9-1.2-4.8-1.9-4.8-1.9v-5.8c1.2-9.4,1.9-19.2,5.7-27.9c3.4-8.1,8.9-15.1,16-20.2c6.9-5.1,15.3-9.9,24.4-7
			c11,3.6,19.1,14.4,19.8,26C197.7,29.3,197.5,31.2,197.2,33.1z"/>
		<path id="Path-6" class="st1" d="M197.2,33.1c-0.7,4.2-2.6,8.2-5.3,11.6c-5.5,7-13.6,11.6-21.3,15.4c-5.7,3-11.7,5.4-17.9,7.2
			c-4.1,1-11.2-1.2-16-3.1l23.7-8c7.4-2.4,14.8-5.1,21.5-9.2c6.7-4.1,12.4-9.9,15.1-17.3c0.2-0.7,0.5-1.7,0.7-2.6
			C197.7,29.1,197.5,31.1,197.2,33.1z"/>
		<path id="Path-7" class="st1" d="M144.2,49.5c-2,0.5-4.1-0.6-4.6-2.6c-0.2-0.7-0.2-1.5,0.1-2.2c4.1-14.7,9.3-21,14.3-25.5
			c4.5-4.1,12.2-7.7,19.1-9.1c2.1-0.4,4.1,1,4.5,3.1c0.1,0.4,0.1,0.8,0,1.2c-1,9.4-4.8,18.6-11.7,23.8
			C157.1,45.2,149.2,48.3,144.2,49.5z"/>
		
			<linearGradient id="Path-8_00000138530883628554768040000002939298527293090188_" gradientUnits="userSpaceOnUse" x1="-171.349" y1="548.1015" x2="-170.346" y2="548.1015" gradientTransform="matrix(65.5114 0 0 -67.392 11280.4629 36971.3789)">
			<stop  offset="0" style="stop-color:#9C88C4"/>
			<stop  offset="1" style="stop-color:#8868C4"/>
		</linearGradient>
		<path id="Path-8" style="fill:url(#Path-8_00000138530883628554768040000002939298527293090188_);" d="M121,56.3V62
			c-0.4,0.2-0.8,0.3-1.2,0.5c-3.6,1.7-14.3,6-19.6,4.6C94,65.7,88,62.8,82.3,59.9c-7.6-3.9-16-8.4-21.3-15.4
			c-2.7-3.3-4.5-7.3-5.3-11.5C55,27.5,55.8,22,58.2,17c0.9-1.9,1.9-3.8,3.1-5.5c3.5-4.9,8.4-8.6,14.1-10.6c8.8-2.9,17.2,1.9,24.4,7
			c7.2,5.1,12.7,12.1,16,20.2C118.8,37,119.8,46.9,121,56.3z"/>
		<path id="Path-9" class="st1" d="M119.6,62.8c-3.6,1.7-14.3,6-19.6,4.6C93.8,65.9,87.8,63,82,60.1c-7.6-3.8-16-8.4-21.3-15.4
			c-2.7-3.3-4.5-7.3-5.3-11.6c-0.8-5.4,0.1-10.9,2.4-15.9c-0.3,2.1-0.5,4.2-0.5,6.2c0.4,8,3.8,15.6,9.6,21.2
			c5.7,5.5,13.1,8.7,20.8,10.4s15.5,2.2,23.4,3.1C114.5,58.4,118.6,59.6,119.6,62.8z"/>
		<path id="Path-10" class="st1" d="M126.7,85.9c9.4,0.1,17.2-7.5,17.2-17s-7.5-17.2-17-17.2s-17.2,7.5-17.2,17c0,0,0,0.1,0,0.1
			C109.7,78.2,117.3,85.9,126.7,85.9z"/>
		<path id="Path-11" class="st1" d="M108.3,49.5c2,0.5,4.1-0.6,4.6-2.6c0.2-0.7,0.2-1.5-0.1-2.2c-4.1-14.7-9.3-21-14.3-25.5
			C94,15.1,86.3,11.5,79.4,10c-2.1-0.4-4.1,1-4.5,3.1c-0.1,0.4-0.1,0.8,0,1.2c1,9.4,4.8,18.6,11.7,23.8
			C95.7,45.2,103.3,48.3,108.3,49.5z"/>
		<g class="st4">
			<path id="Path-12_00000038387654392911977470000010646458979654085543_" class="st5" d="M202.2,89.5V208c0,6.2-5,11.3-11.2,11.3
				c0,0,0,0,0,0H62c-6.2,0-11.2-5.1-11.2-11.3c0,0,0,0,0,0V89.5c0-6.2,5-11.3,11.2-11.3c0,0,0,0,0,0h129
				C197.2,78.2,202.3,83.3,202.2,89.5C202.2,89.5,202.2,89.5,202.2,89.5z"/>
		</g>
		<path id="Path-13" class="st6" d="M202.2,89.5v26.3H50.7V89.5c0-6.2,5-11.3,11.2-11.3c0,0,0,0,0,0h129
			C197.2,78.2,202.3,83.3,202.2,89.5C202.2,89.5,202.2,89.5,202.2,89.5z"/>
		<path id="Path-14" class="st5" d="M210.1,69.5v30.4c0,3.7-3,6.7-6.7,6.7c0,0,0,0,0,0H49.6c-3.7,0-6.7-3-6.7-6.7c0,0,0,0,0,0V69.5
			c0-3.7,3-6.7,6.7-6.7c0,0,0,0,0,0h154.1C207.3,62.9,210.2,65.9,210.1,69.5z"/>
		
			<linearGradient id="Path-15_00000075146597561610316070000014484846103525893558_" gradientUnits="userSpaceOnUse" x1="-169.7644" y1="550.147" x2="-168.7674" y2="550.147" gradientTransform="matrix(41.1 0 0 -128.852 7081.4297 71042.6641)">
			<stop  offset="0" style="stop-color:#9C88C4"/>
			<stop  offset="1" style="stop-color:#8868C4"/>
		</linearGradient>
		<path id="Path-15" style="fill:url(#Path-15_00000075146597561610316070000014484846103525893558_);" d="M145.1,90.7H104v128.9
			h41.1V90.7z"/>
		<path id="Path-16" class="st8" d="M145.1,90.7H104v25h41.1V90.7z"/>
		
			<linearGradient id="Path-17_00000027582751486432247060000010137522011674315926_" gradientUnits="userSpaceOnUse" x1="-169.7845" y1="545.8278" x2="-169.7845" y2="545.3468" gradientTransform="matrix(46.831 0 0 -43.841 8075.7573 24013.0059)">
			<stop  offset="0" style="stop-color:#9C88C4"/>
			<stop  offset="1" style="stop-color:#8868C4"/>
		</linearGradient>
		<path id="Path-17" style="fill:url(#Path-17_00000027582751486432247060000010137522011674315926_);" d="M148,62.8h-46.8v43.8H148
			V62.8z"/>
		<g id="Group" transform="translate(143.164 58.921)">
			<path id="Shape" class="st10" d="M31.8,80.8L11.7,42.2c-0.5-0.9-0.6-2.1-0.3-3.1l3.4-11.8c0.3-1,1-1.9,1.9-2.4l8.7-4.8
				c0.9-0.5,2-0.6,3-0.3L40,23.4c1,0.3,1.9,1,2.3,2l20.1,38.5c1,2,0.3,4.4-1.6,5.5L37.1,82.4c-0.6,0.3-1.2,0.5-1.9,0.5
				C33.8,82.9,32.4,82.1,31.8,80.8z"/>
			<path id="Path-18" class="st10" d="M27,26.1c-0.9-0.5-1.9-0.7-2.9-0.5c0.3,0.8,0.4,1.6,0.4,2.4c-1-0.1-1.9-0.4-2.8-0.9
				c-1.4-0.8-2.8-1.7-4.1-2.7c-2.5-1.9-4.7-4.1-6.8-6.5C3.8,9.7,2,3.6,2.8,2.8c0.1-0.1,0.3-0.2,0.4-0.1c0.8,0,2.6,0.7,4.8,2.4
				c3.1,2.3,5.9,5,8.4,7.9c2.4,2.7,4.4,5.7,6,8.9l2.4-1.3c-1.8-3.4-3.9-6.5-6.4-9.4C12.4,4,4.3-2.2,1,0.8c-3.3,3,1.8,12,7.9,19.1
				c2,2.3,4.2,4.4,6.5,6.4c1.6,1.4,3.4,2.6,5.4,3.6c1.1,0.6,2.3,1,3.5,1.1h0.1c0.8,0,1.5-0.3,2-0.8c0.6-0.6,0.8-1.5,0.8-2.3
				C27.2,27.2,27.1,26.7,27,26.1z"/>
			<text transform="matrix(0.8746 -0.4848 0.4848 0.8746 33.781 67.248)" class="st5 st11 st12">$</text>
		</g>
		<path id="Path-19" class="st10" d="M10.6,82c-0.2-0.8-0.2-1.6,0-2.4l1.7-3.6c0.2-0.5,0-1-0.4-1.2c0,0,0,0,0,0h-0.7l-3.6,1.7
			c-0.8,0.2-1.6,0.2-2.4,0l-3.6-1.7c-0.4-0.2-1,0-1.2,0.4c0,0,0,0,0,0.1V76L2,79.6c0.2,0.8,0.2,1.6,0,2.4l-1.9,3.9
			c-0.2,0.4,0,0.9,0.4,1.2c0,0,0.1,0,0.1,0h0.7l3.6-1.7c0.8-0.2,1.6-0.2,2.4,0l3.8,1.7c0.4,0.2,1,0,1.2-0.4c0,0,0,0,0-0.1v-0.7
			L10.6,82z"/>
		
			<linearGradient id="Path-20_00000081613164649952192670000006800423439137583774_" gradientUnits="userSpaceOnUse" x1="-159.915" y1="528.7277" x2="-158.916" y2="528.7277" gradientTransform="matrix(12.3579 0 0 -12.2136 1993.0109 6619.4194)">
			<stop  offset="0" style="stop-color:#9C88C4"/>
			<stop  offset="1" style="stop-color:#8868C4"/>
		</linearGradient>
		<path id="Path-20" style="fill:url(#Path-20_00000081613164649952192670000006800423439137583774_);" d="M27.3,163
			c-0.2-0.8-0.2-1.6,0-2.4L29,157c0.2-0.4,0-1-0.4-1.2c0,0,0,0-0.1,0h-0.7l-3.6,1.7c-0.8,0.2-1.6,0.2-2.4,0l-3.6-1.7
			c-0.4-0.2-1,0-1.2,0.4c0,0,0,0,0,0.1v0.7l1.7,3.6c0.2,0.8,0.2,1.6,0,2.4l-1.9,3.6c-0.2,0.4,0,1,0.4,1.2c0,0,0,0,0.1,0H18l3.6-1.7
			c0.8-0.2,1.6-0.2,2.4,0l3.6,1.7c0.4,0.2,1,0,1.2-0.4c0,0,0,0,0-0.1v-0.7L27.3,163z"/>
		
			<linearGradient id="Path-21_00000074415741598539432520000011502934015504197813_" gradientUnits="userSpaceOnUse" x1="-159.9224" y1="529.1914" x2="-158.9234" y2="529.1914" gradientTransform="matrix(12.36 0 0 -12.4577 2210.8083 6708.3999)">
			<stop  offset="0" style="stop-color:#9C88C4"/>
			<stop  offset="1" style="stop-color:#8868C4"/>
		</linearGradient>
		<path id="Path-21" style="fill:url(#Path-21_00000074415741598539432520000011502934015504197813_);" d="M244.8,117
			c-0.2-0.8-0.2-1.6,0-2.4l1.7-3.6c0.2-0.4,0-1-0.4-1.2c0,0,0,0-0.1,0h-0.7l-3.6,1.7c-0.8,0.2-1.6,0.2-2.4,0l-3.6-1.7
			c-0.4-0.2-1,0-1.2,0.4c0,0,0,0,0,0.1v0.7l1.7,3.6c0.2,0.8,0.2,1.6,0,2.4l-1.9,3.8c-0.2,0.4,0,1,0.4,1.2c0,0,0,0,0.1,0h0.7l3.6-1.7
			c0.8-0.2,1.6-0.2,2.4,0l3.6,1.7c0.4,0.2,1,0,1.2-0.4c0,0,0,0,0-0.1v-0.7L244.8,117z"/>
		
			<linearGradient id="Path-22_00000031205361747907688460000006225347687169925264_" gradientUnits="userSpaceOnUse" x1="-159.663" y1="528.7505" x2="-158.645" y2="528.7505" gradientTransform="matrix(12.1162 0 0 -12.2254 2147.3484 6481.4165)">
			<stop  offset="0" style="stop-color:#9C88C4"/>
			<stop  offset="1" style="stop-color:#8868C4"/>
		</linearGradient>
		<path id="Path-22" style="fill:url(#Path-22_00000031205361747907688460000006225347687169925264_);" d="M223.5,18.4
			c-0.2-0.8-0.2-1.6,0-2.4l1.7-3.6c0.2-0.4,0-1-0.4-1.2c0,0,0,0-0.1,0H224l-3.6,1.7c-0.8,0.2-1.6,0.2-2.4,0l-3.6-1.7
			c-0.4-0.2-1,0-1.2,0.4c0,0,0,0,0,0.1v0.7l1.7,3.6c0.2,0.8,0.2,1.6,0,2.4l-1.7,3.6c-0.2,0.5,0,1,0.4,1.2c0,0,0,0,0,0h0.7l3.6-1.7
			c0.8-0.2,1.6-0.2,2.4,0l3.6,1.7c0.4,0.2,1,0,1.2-0.4c0,0,0,0,0-0.1v-0.7L223.5,18.4z"/>
		<path id="Path-23" class="st10" d="M230.9,189.7c-0.2-0.8-0.2-1.6,0-2.4l1.7-3.6c0.2-0.4,0-1-0.4-1.2c0,0,0,0-0.1,0h-0.7l-3.6,1.7
			c-0.8,0.2-1.6,0.2-2.4,0l-3.6-1.7c-0.4-0.2-0.9,0-1.2,0.4c0,0,0,0.1,0,0.1v0.7l1.7,3.6c0.2,0.8,0.2,1.6,0,2.4l-1.7,3.6
			c-0.2,0.4,0,1,0.4,1.2c0,0,0,0,0.1,0h0.7l3.6-1.7c0.8-0.2,1.6-0.2,2.4,0l3.6,1.7c0.4,0.2,0.9,0,1.2-0.4c0,0,0-0.1,0-0.1v-0.7
			L230.9,189.7z"/>
	</g>
</g>
</svg>
