<?xml version="1.0" encoding="utf-8"?>
<!-- Generator: Adobe Illustrator 27.0.1, SVG Export Plug-In . SVG Version: 6.00 Build 0)  -->
<svg version="1.1" id="Layer_1" xmlns="http://www.w3.org/2000/svg" xmlns:xlink="http://www.w3.org/1999/xlink" x="0px" y="0px"
	 viewBox="0 0 98.6 96.7" style="enable-background:new 0 0 98.6 96.7;" xml:space="preserve">
<style type="text/css">
	.st0{opacity:0.1;fill:url(#SVGID_1_);enable-background:new    ;}
	.st1{opacity:5.000000e-02;fill:url(#SVGID_00000159451505640323508190000014212148634357954747_);enable-background:new    ;}
	.st2{opacity:0.31;fill:url(#SVGID_00000057850635640611213760000010798837066944377225_);enable-background:new    ;}
	.st3{opacity:5.000000e-02;fill:url(#SVGID_00000085248679428965589540000016075385623053026719_);enable-background:new    ;}
	.st4{fill-rule:evenodd;clip-rule:evenodd;fill:#F8CF9D;}
	.st5{fill-rule:evenodd;clip-rule:evenodd;fill:#917CC4;}
</style>
<g transform="translate(-474 -955)">
	
		<linearGradient id="SVGID_1_" gradientUnits="userSpaceOnUse" x1="231.9117" y1="1419.6123" x2="231.1437" y2="1420.4133" gradientTransform="matrix(68.3671 28.3186 28.3186 -68.3671 -55519.1719 91529.1953)">
		<stop  offset="0" style="stop-color:#000000"/>
		<stop  offset="1" style="stop-color:#000000;stop-opacity:0"/>
	</linearGradient>
	<path class="st0" d="M520.8,962.7l31.4,13c10.2,4.2,15.1,15.9,10.8,26.1l-13,31.4c-4.2,10.2-15.9,15.1-26.1,10.8l-31.4-13
		c-10.2-4.2-15.1-15.9-10.8-26.1l13-31.4C498.9,963.3,510.6,958.4,520.8,962.7z"/>
	
		<linearGradient id="SVGID_00000054251020833108051770000010311289174623234692_" gradientUnits="userSpaceOnUse" x1="282.7116" y1="1418.6903" x2="281.9436" y2="1419.4913" gradientTransform="matrix(4.9275 6.3024 6.3024 -4.9275 -9768.0361 6188.8008)">
		<stop  offset="0" style="stop-color:#000000"/>
		<stop  offset="1" style="stop-color:#000000;stop-opacity:0"/>
	</linearGradient>
	
		<path style="opacity:5.000000e-02;fill:url(#SVGID_00000054251020833108051770000010311289174623234692_);enable-background:new    ;" d="
		M569.9,973.1L569.9,973.1c1.4,1.7,1.1,4.3-0.7,5.6l0,0c-1.7,1.4-4.3,1.1-5.6-0.7l0,0c-1.4-1.7-1.1-4.3,0.7-5.6l0,0
		C566,971,568.6,971.3,569.9,973.1z"/>
	
		<linearGradient id="SVGID_00000083801504324460200990000017858608940070170543_" gradientUnits="userSpaceOnUse" x1="310.2386" y1="1416.5718" x2="309.4706" y2="1417.3728" gradientTransform="matrix(3.3002 4.221 4.221 -3.3002 -6520.8286 4402.1812)">
		<stop  offset="0" style="stop-color:#FCEDDA"/>
		<stop  offset="1" style="stop-color:#F8CD9A"/>
	</linearGradient>
	<path style="opacity:0.31;fill:url(#SVGID_00000083801504324460200990000017858608940070170543_);enable-background:new    ;" d="
		M484.9,1032.1L484.9,1032.1c0.9,1.2,0.7,2.8-0.5,3.8l0,0c-1.2,0.9-2.8,0.7-3.8-0.5l0,0c-0.9-1.2-0.7-2.8,0.5-3.8l0,0
		C482.3,1030.8,484,1031,484.9,1032.1z"/>
	
		<linearGradient id="SVGID_00000072995146446165987200000002926333694036528813_" gradientUnits="userSpaceOnUse" x1="282.7116" y1="1418.6903" x2="281.9436" y2="1419.4913" gradientTransform="matrix(4.9275 6.3024 6.3024 -4.9275 -9855.0713 6194.3994)">
		<stop  offset="0" style="stop-color:#000000"/>
		<stop  offset="1" style="stop-color:#000000;stop-opacity:0"/>
	</linearGradient>
	
		<path style="opacity:5.000000e-02;fill:url(#SVGID_00000072995146446165987200000002926333694036528813_);enable-background:new    ;" d="
		M482.9,978.7L482.9,978.7c1.4,1.7,1.1,4.3-0.7,5.6l0,0c-1.7,1.4-4.3,1.1-5.6-0.7l0,0c-1.4-1.7-1.1-4.3,0.7-5.6l0,0
		C479,976.6,481.5,976.9,482.9,978.7z"/>
	<g>
		<path class="st4" d="M552.3,975.7c-1.7-1.7-4.1-2.7-6.5-2.7h-45.9c-5.1,0-9.2,4.1-9.2,9.2c0,0,0,0,0,0v45.9c0,5.1,4.1,9.2,9.2,9.2
			c0,0,0,0,0,0h18.3c-0.2-0.4-0.3-0.8-0.3-1.2c-4.3-1.8-7.1-6.1-7.1-10.8v-17.9c0-7.6,6.2-13.8,13.8-13.8h21.2
			c3.4,0,6.7,1.3,9.2,3.6v-14.9C555,979.7,554,977.4,552.3,975.7z M502.2,986.8c-1.3,0-2.3-1-2.3-2.3c0-1.3,1-2.3,2.3-2.3
			c1.2,0,2.3,1,2.3,2.3C504.5,985.7,503.5,986.8,502.2,986.8C502.2,986.8,502.2,986.8,502.2,986.8z M511.4,986.8
			c-1.3,0-2.3-1-2.3-2.3c0-1.3,1-2.3,2.3-2.3c1.3,0,2.3,1,2.3,2.3C513.7,985.8,512.7,986.8,511.4,986.8L511.4,986.8z"/>
		<path class="st5" d="M545.8,998.1h-21.3c-5.1,0-9.2,4.1-9.2,9.2v17.9c0,3.9,3.2,7.1,7.1,7.1v2.6c0,1.3,1,2.3,2.3,2.3
			c0.5,0,1-0.1,1.4-0.4l6.3-4.5h13.5c5,0,9.1-4.1,9.2-9.1v-15.9C555,1002.2,550.9,998.1,545.8,998.1z M539.8,1007.4
			c1.2,0,2.2,1,2.2,2.3s-1,2.2-2.3,2.2s-2.2-1-2.2-2.3C537.5,1008.4,538.5,1007.4,539.8,1007.4L539.8,1007.4z M542.1,1016.5
			c0,3.8-3.1,6.8-6.8,6.8c-3.8,0-6.8-3.1-6.8-6.8H542.1z M530.7,1007.4c1.2,0,2.2,1,2.2,2.3s-1,2.2-2.3,2.2s-2.2-1-2.2-2.3
			C528.4,1008.4,529.4,1007.4,530.7,1007.4L530.7,1007.4z"/>
	</g>
</g>
</svg>
