<?xml version="1.0" encoding="utf-8"?>
<!-- Generator: Adobe Illustrator 27.0.1, SVG Export Plug-In . SVG Version: 6.00 Build 0)  -->
<svg version="1.1" id="Layer_1" xmlns="http://www.w3.org/2000/svg" xmlns:xlink="http://www.w3.org/1999/xlink" x="0px" y="0px"
	 viewBox="0 0 98.6 96.7" style="enable-background:new 0 0 98.6 96.7;" xml:space="preserve">
<style type="text/css">
	.st0{opacity:0.1;fill:url(#SVGID_1_);enable-background:new    ;}
	.st1{opacity:5.000000e-02;fill:url(#SVGID_00000100372447872484354460000014046693024751788447_);enable-background:new    ;}
	.st2{opacity:0.31;fill:url(#SVGID_00000011719405127490286500000011924006264280720260_);enable-background:new    ;}
	.st3{opacity:5.000000e-02;fill:url(#SVGID_00000049926949910113575660000016145220014305350283_);enable-background:new    ;}
	.st4{fill-rule:evenodd;clip-rule:evenodd;fill:#F8CD9A;}
	.st5{fill-rule:evenodd;clip-rule:evenodd;fill:#9184C2;}
	.st6{fill:#9184C2;}
</style>
<g transform="translate(-474 -955)">
	
		<linearGradient id="SVGID_1_" gradientUnits="userSpaceOnUse" x1="462.9365" y1="7.6523" x2="462.1685" y2="6.8512" gradientTransform="matrix(68.3671 28.3186 -28.3186 68.3671 -30895.5703 -12591.0322)">
		<stop  offset="0" style="stop-color:#000000"/>
		<stop  offset="1" style="stop-color:#000000;stop-opacity:0"/>
	</linearGradient>
	<path class="st0" d="M520.8,962.7l31.4,13c10.2,4.2,15.1,15.9,10.8,26.1l-13,31.4c-4.2,10.2-15.9,15.1-26.1,10.8l-31.4-13
		c-10.2-4.2-15.1-15.9-10.8-26.1l13-31.4C498.9,963.3,510.6,958.4,520.8,962.7z"/>
	
		<linearGradient id="SVGID_00000005247358947974239180000007697430445756713635_" gradientUnits="userSpaceOnUse" x1="564.5306" y1="9.5013" x2="563.7626" y2="8.7003" gradientTransform="matrix(4.9275 6.3024 -6.3024 4.9275 -2155.7275 -2624.7585)">
		<stop  offset="0" style="stop-color:#000000"/>
		<stop  offset="1" style="stop-color:#000000;stop-opacity:0"/>
	</linearGradient>
	
		<path style="opacity:5.000000e-02;fill:url(#SVGID_00000005247358947974239180000007697430445756713635_);enable-background:new    ;" d="
		M569.9,973.1L569.9,973.1c1.4,1.7,1.1,4.3-0.7,5.6l0,0c-1.7,1.4-4.3,1.1-5.6-0.7l0,0c-1.4-1.7-1.1-4.3,0.7-5.6l0,0
		C566,971,568.6,971.3,569.9,973.1z"/>
	
		<linearGradient id="SVGID_00000022543906979805826340000017054080255356791937_" gradientUnits="userSpaceOnUse" x1="619.584" y1="13.7394" x2="618.8161" y2="12.9384" gradientTransform="matrix(3.3002 4.221 -4.221 3.3002 -1504.4346 -1623.8861)">
		<stop  offset="0" style="stop-color:#CD923F"/>
		<stop  offset="1" style="stop-color:#513B9E"/>
	</linearGradient>
	<path style="opacity:0.31;fill:url(#SVGID_00000022543906979805826340000017054080255356791937_);enable-background:new    ;" d="
		M484.9,1032.1L484.9,1032.1c0.9,1.2,0.7,2.8-0.5,3.8l0,0c-1.2,0.9-2.8,0.7-3.8-0.5l0,0c-0.9-1.2-0.7-2.8,0.5-3.8l0,0
		C482.3,1030.8,484,1031,484.9,1032.1z"/>
	
		<linearGradient id="SVGID_00000038407151819630213780000015579964286629976252_" gradientUnits="userSpaceOnUse" x1="564.5338" y1="9.4983" x2="563.7658" y2="8.6972" gradientTransform="matrix(4.9275 6.3024 -6.3024 4.9275 -2242.7627 -2619.1599)">
		<stop  offset="0" style="stop-color:#000000"/>
		<stop  offset="1" style="stop-color:#000000;stop-opacity:0"/>
	</linearGradient>
	
		<path style="opacity:5.000000e-02;fill:url(#SVGID_00000038407151819630213780000015579964286629976252_);enable-background:new    ;" d="
		M482.9,978.7L482.9,978.7c1.4,1.7,1.1,4.3-0.7,5.6l0,0c-1.7,1.4-4.3,1.1-5.6-0.7l0,0c-1.4-1.7-1.1-4.3,0.7-5.6l0,0
		C479,976.6,481.5,976.9,482.9,978.7z"/>
	<g>
		<path class="st4" d="M545.1,982.1h2.4v-2.4c0-5.3-4.3-9.7-9.7-9.7l0,0h-28.1c-2.7,0-5.2,1.1-7.1,3.1l-5.8,6.2
			c-1.7,1.8-2.6,4.2-2.6,6.6v42.2c0,5.3,4.3,9.7,9.7,9.7h33.9c5.3-0.1,9.6-4.4,9.7-9.7c-0.6,0-1.3-0.3-1.7-0.7l-5.8-5.9
			c-1.4-1.4-2.1-3.2-2.1-5.1v-27C537.9,985.4,541.1,982.1,545.1,982.1L545.1,982.1L545.1,982.1z M528.2,1023.2H504v-4.8h24.2V1023.2
			z M528.2,1013.6H504v-4.8h24.2V1013.6z M528.2,1003.9H504V999h24.2V1003.9z"/>
		<path class="st5" d="M552.4,989.4v4.8h-9.7v-4.8c0-1.3,1.1-2.4,2.4-2.4h4.8C551.3,987,552.4,988,552.4,989.4z"/>
		<path class="st5" d="M542.7,999h9.7v17.3c0,0.6-0.3,1.3-0.7,1.7l-4.1,4.2l-4.2-4.2c-0.5-0.5-0.7-1.1-0.7-1.7V999z"/>
	</g>
	<path class="st6" d="M504,986.9h14.5v4.8H504V986.9z"/>
</g>
</svg>
