<?xml version="1.0" encoding="utf-8"?>
<!-- Generator: Adobe Illustrator 27.0.1, SVG Export Plug-In . SVG Version: 6.00 Build 0)  -->
<svg version="1.1" id="Layer_1" xmlns="http://www.w3.org/2000/svg" xmlns:xlink="http://www.w3.org/1999/xlink" x="0px" y="0px"
	 viewBox="0 0 98.6 96.7" style="enable-background:new 0 0 98.6 96.7;" xml:space="preserve">
<style type="text/css">
	.st0{opacity:0.1;fill:url(#SVGID_1_);enable-background:new    ;}
	.st1{opacity:5.000000e-02;fill:url(#SVGID_00000027563194708956139930000008826203603637583005_);enable-background:new    ;}
	.st2{opacity:0.31;fill:url(#SVGID_00000148654335055790511060000017487025376710861222_);enable-background:new    ;}
	.st3{opacity:5.000000e-02;fill:url(#SVGID_00000056404629969289383610000016983232745163218081_);enable-background:new    ;}
	.st4{fill-rule:evenodd;clip-rule:evenodd;fill:#F8CD9A;}
	.st5{fill-rule:evenodd;clip-rule:evenodd;fill:#917CC4;}
</style>
<g transform="translate(-474 -955)">
	
		<linearGradient id="SVGID_1_" gradientUnits="userSpaceOnUse" x1="231.9117" y1="1419.6123" x2="231.1437" y2="1420.4133" gradientTransform="matrix(68.3671 28.3186 28.3186 -68.3671 -55519.1719 91529.1953)">
		<stop  offset="0" style="stop-color:#000000"/>
		<stop  offset="1" style="stop-color:#000000;stop-opacity:0"/>
	</linearGradient>
	<path class="st0" d="M520.8,962.7l31.4,13c10.2,4.2,15.1,15.9,10.8,26.1l-13,31.4c-4.2,10.2-15.9,15.1-26.1,10.8l-31.4-13
		c-10.2-4.2-15.1-15.9-10.8-26.1l13-31.4C498.9,963.3,510.6,958.4,520.8,962.7z"/>
	
		<linearGradient id="SVGID_00000119106788927661372500000008101524020521127558_" gradientUnits="userSpaceOnUse" x1="282.7116" y1="1418.6903" x2="281.9436" y2="1419.4913" gradientTransform="matrix(4.9275 6.3024 6.3024 -4.9275 -9768.0361 6188.8008)">
		<stop  offset="0" style="stop-color:#000000"/>
		<stop  offset="1" style="stop-color:#000000;stop-opacity:0"/>
	</linearGradient>
	
		<path style="opacity:5.000000e-02;fill:url(#SVGID_00000119106788927661372500000008101524020521127558_);enable-background:new    ;" d="
		M569.9,973.1L569.9,973.1c1.4,1.7,1.1,4.3-0.7,5.6l0,0c-1.7,1.4-4.3,1.1-5.6-0.7l0,0c-1.4-1.7-1.1-4.3,0.7-5.6l0,0
		C566,971,568.6,971.3,569.9,973.1z"/>
	
		<linearGradient id="SVGID_00000036944703081821049700000005388270109818885784_" gradientUnits="userSpaceOnUse" x1="310.2386" y1="1416.5718" x2="309.4706" y2="1417.3728" gradientTransform="matrix(3.3002 4.221 4.221 -3.3002 -6520.8286 4402.1812)">
		<stop  offset="0" style="stop-color:#F8CD9A"/>
		<stop  offset="1" style="stop-color:#F8CD9A"/>
	</linearGradient>
	<path style="opacity:0.31;fill:url(#SVGID_00000036944703081821049700000005388270109818885784_);enable-background:new    ;" d="
		M484.9,1032.1L484.9,1032.1c0.9,1.2,0.7,2.8-0.5,3.8l0,0c-1.2,0.9-2.8,0.7-3.8-0.5l0,0c-0.9-1.2-0.7-2.8,0.5-3.8l0,0
		C482.3,1030.8,484,1031,484.9,1032.1z"/>
	
		<linearGradient id="SVGID_00000053509988064302941090000002505726602650956967_" gradientUnits="userSpaceOnUse" x1="282.7116" y1="1418.6903" x2="281.9436" y2="1419.4913" gradientTransform="matrix(4.9275 6.3024 6.3024 -4.9275 -9855.0713 6194.3994)">
		<stop  offset="0" style="stop-color:#000000"/>
		<stop  offset="1" style="stop-color:#000000;stop-opacity:0"/>
	</linearGradient>
	
		<path style="opacity:5.000000e-02;fill:url(#SVGID_00000053509988064302941090000002505726602650956967_);enable-background:new    ;" d="
		M482.9,978.7L482.9,978.7c1.4,1.7,1.1,4.3-0.7,5.6l0,0c-1.7,1.4-4.3,1.1-5.6-0.7l0,0c-1.4-1.7-1.1-4.3,0.7-5.6l0,0
		C479,976.6,481.5,976.9,482.9,978.7z"/>
	<g>
		<path class="st4" d="M531.6,1022.4l8.1,6.9c-1.9,2.4-4.7,3.7-7.7,3.8h-21.4l-9.6,8.2c-0.7,0.6-1.8,0.8-2.7,0.4
			c-0.9-0.4-1.4-1.2-1.4-2.2v-6.4c-5.4,0-9.8-4.4-9.8-9.8c0,0,0-0.1,0-0.1v-25.7c0-5.5,4.5-10,10-10v19.9c0,8.3,6.7,15,15,15H531.6z
			"/>
		<path class="st5" d="M547,971.9h-35c-5.5,0-10,4.5-10,10v25.5c0,5.5,4.5,10,10,10h21.4l9.6,8.2c1.1,0.9,2.6,0.8,3.5-0.3
			c0.4-0.4,0.6-1,0.6-1.6v-6.3c5.4,0,9.8-4.4,9.8-9.8c0,0,0,0,0,0v-25.7C557,976.4,552.5,971.9,547,971.9
			C547,971.9,547,971.9,547,971.9z M522,996.9h-5v-5h5V996.9z M532,996.9h-5v-5h5L532,996.9z M542,996.9h-5v-5h5L542,996.9z"/>
	</g>
</g>
</svg>
