<?xml version="1.0" encoding="utf-8"?>
<!-- Generator: Adobe Illustrator 27.0.1, SVG Export Plug-In . SVG Version: 6.00 Build 0)  -->
<svg version="1.1" id="Layer_1" xmlns="http://www.w3.org/2000/svg" xmlns:xlink="http://www.w3.org/1999/xlink" x="0px" y="0px"
	 viewBox="0 0 98.6 96.7" style="enable-background:new 0 0 98.6 96.7;" xml:space="preserve">
<style type="text/css">
	.st0{opacity:0.1;fill:url(#SVGID_1_);enable-background:new    ;}
	.st1{opacity:5.000000e-02;fill:url(#SVGID_00000114062727059995042390000005354045204119811238_);enable-background:new    ;}
	.st2{opacity:0.31;fill:url(#SVGID_00000181085228779524630590000000469301155287491738_);enable-background:new    ;}
	.st3{opacity:5.000000e-02;fill:url(#SVGID_00000166642033570433822000000006718912863881263035_);enable-background:new    ;}
	.st4{fill:#F8CD9A;}
	.st5{fill-rule:evenodd;clip-rule:evenodd;fill:#917CC4;}
</style>
<g transform="translate(-474 -955)">
	
		<linearGradient id="SVGID_1_" gradientUnits="userSpaceOnUse" x1="231.9117" y1="1419.6123" x2="231.1437" y2="1420.4133" gradientTransform="matrix(68.3671 28.3186 28.3186 -68.3671 -55519.1719 91529.1953)">
		<stop  offset="0" style="stop-color:#000000"/>
		<stop  offset="1" style="stop-color:#000000;stop-opacity:0"/>
	</linearGradient>
	<path class="st0" d="M520.8,962.7l31.4,13c10.2,4.2,15.1,15.9,10.8,26.1l-13,31.4c-4.2,10.2-15.9,15.1-26.1,10.8l-31.4-13
		c-10.2-4.2-15.1-15.9-10.8-26.1l13-31.4C498.9,963.3,510.6,958.4,520.8,962.7z"/>
	
		<linearGradient id="SVGID_00000033337093047164747770000015926499090998887084_" gradientUnits="userSpaceOnUse" x1="282.7116" y1="1418.6903" x2="281.9436" y2="1419.4913" gradientTransform="matrix(4.9275 6.3024 6.3024 -4.9275 -9768.0361 6188.8008)">
		<stop  offset="0" style="stop-color:#000000"/>
		<stop  offset="1" style="stop-color:#000000;stop-opacity:0"/>
	</linearGradient>
	
		<path style="opacity:5.000000e-02;fill:url(#SVGID_00000033337093047164747770000015926499090998887084_);enable-background:new    ;" d="
		M569.9,973.1L569.9,973.1c1.4,1.7,1.1,4.3-0.7,5.6l0,0c-1.7,1.4-4.3,1.1-5.6-0.7l0,0c-1.4-1.7-1.1-4.3,0.7-5.6l0,0
		C566,971,568.6,971.3,569.9,973.1z"/>
	
		<linearGradient id="SVGID_00000026880530936079512680000014642986374746775682_" gradientUnits="userSpaceOnUse" x1="310.2386" y1="1416.5718" x2="309.4706" y2="1417.3728" gradientTransform="matrix(3.3002 4.221 4.221 -3.3002 -6520.8286 4402.1812)">
		<stop  offset="0" style="stop-color:#F8CD9A"/>
		<stop  offset="1" style="stop-color:#F8CD9A"/>
	</linearGradient>
	<path style="opacity:0.31;fill:url(#SVGID_00000026880530936079512680000014642986374746775682_);enable-background:new    ;" d="
		M484.9,1032.1L484.9,1032.1c0.9,1.2,0.7,2.8-0.5,3.8l0,0c-1.2,0.9-2.8,0.7-3.8-0.5l0,0c-0.9-1.2-0.7-2.8,0.5-3.8l0,0
		C482.3,1030.8,484,1031,484.9,1032.1z"/>
	
		<linearGradient id="SVGID_00000050636909287764023890000014196588171947636624_" gradientUnits="userSpaceOnUse" x1="282.7116" y1="1418.6903" x2="281.9436" y2="1419.4913" gradientTransform="matrix(4.9275 6.3024 6.3024 -4.9275 -9855.0713 6194.3994)">
		<stop  offset="0" style="stop-color:#000000"/>
		<stop  offset="1" style="stop-color:#000000;stop-opacity:0"/>
	</linearGradient>
	
		<path style="opacity:5.000000e-02;fill:url(#SVGID_00000050636909287764023890000014196588171947636624_);enable-background:new    ;" d="
		M482.9,978.7L482.9,978.7c1.4,1.7,1.1,4.3-0.7,5.6l0,0c-1.7,1.4-4.3,1.1-5.6-0.7l0,0c-1.4-1.7-1.1-4.3,0.7-5.6l0,0
		C479,976.6,481.5,976.9,482.9,978.7z"/>
	<g>
		<g>
			<g>
				<g>
					<path class="st4" d="M532.6,1020.8c0-0.1,0-0.2,0-0.3c0-3-3.4-4.4-10.3-4.4c-2.4-0.1-4.9,0.2-7.2,0.9c-2,0.7-3.1,1.9-3.1,3.5
						c-2.1-1.6-3.8-3.7-5-6c-4.4-8.6-0.9-19.2,7.7-23.5c8.6-4.4,19.2-0.9,23.5,7.7c1.2,2.4,1.9,5.2,1.9,7.9
						C540,1012.2,537.2,1017.5,532.6,1020.8L532.6,1020.8z M522.3,999.1c-3.8,0-6.8,3.1-6.8,6.8s3.1,6.8,6.8,6.8
						c3.8,0,6.8-3.1,6.8-6.8C529.1,1002.1,526,999.1,522.3,999.1z"/>
				</g>
				<path class="st5" d="M557.9,999.5l-12-20.9c-2.4-4.1-6.8-6.7-11.6-6.7h-24.1c-4.8,0-9.2,2.5-11.6,6.7l-12.1,20.9
					c-2.4,4.1-2.4,9.2,0,13.3l12,20.9c2.4,4.1,6.8,6.7,11.6,6.7h24.1c4.8,0,9.2-2.5,11.6-6.7l12-20.9
					C560.3,1008.8,560.3,1003.7,557.9,999.5L557.9,999.5z M522.3,1028.9c-12.5,0-22.7-10.2-22.7-22.7s10.2-22.7,22.7-22.7
					s22.7,10.2,22.7,22.7l0,0C545,1018.8,534.8,1028.9,522.3,1028.9z"/>
			</g>
		</g>
	</g>
</g>
</svg>
