<?xml version="1.0" encoding="utf-8"?>
<!-- Generator: Adobe Illustrator 27.0.1, SVG Export Plug-In . SVG Version: 6.00 Build 0)  -->
<svg version="1.1" id="Layer_1" xmlns="http://www.w3.org/2000/svg" xmlns:xlink="http://www.w3.org/1999/xlink" x="0px" y="0px"
	 viewBox="0 0 213.3 173.9" style="enable-background:new 0 0 213.3 173.9;" xml:space="preserve">
<style type="text/css">
	.st0{fill:#EFF3FF;}
	.st1{filter:url(#l1lsg0x1tb);}
	.st2{fill:#FFFFFF;}
	.st3{fill:url(#SVGID_1_);}
	.st4{fill:#FDFDFD;}
	.st5{opacity:0.6;fill:#FDFDFD;enable-background:new    ;}
	.st6{opacity:0.4;fill:#FDFDFD;enable-background:new    ;}
	.st7{fill:#E6EDF5;}
	.st8{fill:#CED7E2;}
	.st9{fill:url(#SVGID_00000047060186658650374750000010076184291235856302_);}
	.st10{opacity:0.22;fill:url(#SVGID_00000118369928023515884840000004729345434571129740_);enable-background:new    ;}
	.st11{fill:#F8CD9A;}
	.st12{fill:#917CC4;}
	.st13{fill:url(#SVGID_00000056420080710389976160000008929891676104332440_);}
	.st14{fill:#EAEEF9;}
	.st15{fill:url(#SVGID_00000000182847295976517240000005064290074855651493_);}
	.st16{fill:url(#SVGID_00000068646283247913721190000001310807231234736288_);}
	.st17{fill:url(#SVGID_00000072983703111569081420000012632098159981464510_);}
	.st18{fill:url(#SVGID_00000085969790859229911310000003437101528677752737_);}
	.st19{fill:url(#SVGID_00000005985075175617877890000006182141215658377631_);}
</style>
<filter  filterUnits="userSpaceOnUse" height="165.38" id="l1lsg0x1tb" width="213.335" x="0" y="8.492">
	<feOffset  dy="11"></feOffset>
	<feGaussianBlur  result="blur" stdDeviation="11"></feGaussianBlur>
	<feFlood  flood-color="#657a93" flood-opacity=".18"></feFlood>
	<feComposite  in2="blur" operator="in"></feComposite>
	<feComposite  in="SourceGraphic" operator="over"></feComposite>
</filter>
<g transform="translate(33)">
	<path class="st0" d="M73.9,149c38,0.2,69-30.5,69.2-68.6s-30.5-69-68.6-69.2c-38-0.2-69,30.5-69.2,68.6c0,0.1,0,0.2,0,0.3
		C5.3,118.1,36,148.9,73.9,149z"/>
	<g class="st1">
		<path class="st2" d="M147.3,34.6v91.1c0,2.3-1.7,4.1-4,4.2c0,0-0.1,0-0.1,0H4.1c-2.2,0-4.1-1.8-4.1-4c0,0,0-0.1,0-0.1V34.6
			c0-2.3,1.7-4.1,4-4.2c0,0,0.1,0,0.1,0h139.1c2.3,0,4.1,1.8,4.1,4C147.3,34.6,147.3,34.6,147.3,34.6L147.3,34.6z"/>
	</g>
	
		<linearGradient id="SVGID_1_" gradientUnits="userSpaceOnUse" x1="-221.7104" y1="470.0693" x2="-220.7104" y2="470.0693" gradientTransform="matrix(147.3359 0 0 -8.9495 32666.0352 4241.8511)">
		<stop  offset="0" style="stop-color:#917CC4"/>
		<stop  offset="1" style="stop-color:#FFFFFF"/>
	</linearGradient>
	<path class="st3" d="M147.5,34.7v4.8H0.1v-4.8c0-2.3,1.7-4.1,4-4.2c0,0,0.1,0,0.1,0h139.1C145.6,30.5,147.5,32.4,147.5,34.7
		L147.5,34.7z"/>
	<circle class="st4" cx="5" cy="35.1" r="1.3"/>
	<circle class="st5" cx="8.8" cy="35.1" r="1.3"/>
	<circle class="st6" cx="12.5" cy="35.1" r="1.3"/>
	<path class="st2" d="M101.8,124.1H45c-1.4,0-2.5-1.1-2.5-2.5c0,0,0,0,0,0V49.6c0-1.4,1.1-2.5,2.5-2.5c0,0,0,0,0,0h56.8
		c1.4,0,2.5,1.1,2.5,2.5c0,0,0,0,0,0v71.9C104.3,122.9,103.2,124,101.8,124.1C101.8,124,101.8,124.1,101.8,124.1z"/>
	<path class="st7" d="M96.4,104.5H50.9c-1,0-1.9-0.8-1.9-1.8c0,0,0-0.1,0-0.1V73.5c0-1,0.8-1.9,1.8-1.9c0,0,0.1,0,0.1,0h45.4
		c1,0,1.9,0.8,1.9,1.8c0,0,0,0.1,0,0.1v29.1c0.1,0.9-0.5,1.8-1.5,1.9C96.7,104.5,96.5,104.5,96.4,104.5z"/>
	<path class="st8" d="M75.6,100.1H54.5l10.6-11.9L75.6,100.1z"/>
	<path class="st2" d="M92.8,100.1H62.6l15.2-17.2L92.8,100.1z"/>
	<path class="st8" d="M62.5,83.7c2.2,0,4-1.8,4-4c0-2.2-1.8-4-4-4c-2.2,0-4,1.8-4,4c0,0,0,0,0,0C58.5,81.9,60.3,83.7,62.5,83.7z"/>
	<path class="st7" d="M139.6,122.9h-28c-0.7,0-1.2-0.5-1.2-1.2c0,0,0,0,0,0v-18c0-0.7,0.5-1.2,1.2-1.2c0,0,0,0,0,0h28
		c0.7,0,1.2,0.6,1.2,1.2c0,0,0,0,0,0v18C140.9,122.4,140.3,122.9,139.6,122.9C139.6,122.9,139.6,122.9,139.6,122.9z"/>
	<path class="st8" d="M126.6,120.2h-12.8l6.5-7.3L126.6,120.2z"/>
	<path class="st2" d="M137.4,120.2h-18.6l9.2-10.5L137.4,120.2z"/>
	<path class="st8" d="M118.6,110.2c1.4,0,2.5-1.1,2.5-2.5c0-1.4-1.1-2.5-2.5-2.5c-1.4,0-2.5,1.1-2.5,2.5c0,0,0,0,0,0
		C116.2,109.1,117.3,110.2,118.6,110.2C118.6,110.2,118.6,110.2,118.6,110.2z"/>
	<path class="st7" d="M139.6,95.9h-28c-0.7,0-1.2-0.5-1.2-1.2c0,0,0,0,0,0v-18c0-0.7,0.5-1.2,1.2-1.2c0,0,0,0,0,0h28
		c0.7,0,1.2,0.6,1.2,1.2c0,0,0,0,0,0v18C140.9,95.4,140.3,95.9,139.6,95.9C139.6,95.9,139.6,95.9,139.6,95.9z"/>
	<path class="st8" d="M126.6,93.1h-12.8l6.5-7.3L126.6,93.1z"/>
	<path class="st2" d="M137.4,93.1h-18.6l9.2-10.7L137.4,93.1z"/>
	<path class="st8" d="M118.6,83c1.4,0,2.5-1.1,2.5-2.5c0-1.4-1.1-2.5-2.5-2.5c-1.4,0-2.5,1.1-2.5,2.5c0,0,0,0,0,0
		C116.2,81.9,117.3,83,118.6,83C118.6,83,118.6,83,118.6,83z"/>
	<path class="st7" d="M139.6,68.7h-28c-0.7,0-1.2-0.5-1.2-1.2c0,0,0,0,0,0v-18c0-0.7,0.5-1.2,1.2-1.2c0,0,0,0,0,0h28
		c0.7,0,1.2,0.6,1.2,1.2c0,0,0,0,0,0v18C140.9,68.2,140.3,68.7,139.6,68.7C139.6,68.7,139.6,68.7,139.6,68.7z"/>
	<path class="st8" d="M126.6,66h-12.8l6.5-7.3L126.6,66z"/>
	<path class="st2" d="M137.4,66h-18.6l9.2-10.5L137.4,66z"/>
	<path class="st8" d="M118.6,56c1.4,0,2.5-1.1,2.5-2.5c0-1.4-1.1-2.5-2.5-2.5c-1.4,0-2.5,1.1-2.5,2.5c0,0,0,0,0,0
		C116.2,54.9,117.3,56,118.6,56C118.6,56,118.6,56,118.6,56z"/>
	<path class="st7" d="M97.8,54.7H49.7c-0.4,0-0.8-0.3-0.8-0.8c0,0,0,0,0-0.1c0-0.4,0.3-0.8,0.8-0.8c0,0,0,0,0.1,0h48
		c0.4,0,0.8,0.3,0.8,0.8c0,0,0,0,0,0.1c0.1,0.4-0.2,0.7-0.5,0.8C97.9,54.7,97.9,54.7,97.8,54.7z"/>
	<path class="st7" d="M97.8,59.7H49.7c-0.4,0-0.8-0.3-0.8-0.8c0,0,0,0,0-0.1c0-0.4,0.3-0.8,0.8-0.8c0,0,0,0,0.1,0h48
		c0.4,0,0.8,0.3,0.8,0.8c0,0,0,0,0,0.1c0.1,0.4-0.2,0.7-0.5,0.8C97.9,59.7,97.9,59.7,97.8,59.7z"/>
	<path class="st7" d="M84.3,112H49.7c-0.4,0-0.8-0.3-0.8-0.8c0,0,0,0,0-0.1c0-0.4,0.3-0.8,0.8-0.8c0,0,0,0,0.1,0h34.6
		c0.4,0,0.8,0.3,0.8,0.8c0,0,0,0,0,0.1C85.1,111.6,84.7,112,84.3,112z"/>
	
		<linearGradient id="SVGID_00000116205125992830361710000004785753980126988947_" gradientUnits="userSpaceOnUse" x1="-215.6419" y1="306.688" x2="-214.6349" y2="306.688" gradientTransform="matrix(25.8149 0 0 -1.6642 5615.5605 574.6916)">
		<stop  offset="0" style="stop-color:#F8CD9A"/>
		<stop  offset="1" style="stop-color:#F8CD9A"/>
	</linearGradient>
	<path style="fill:url(#SVGID_00000116205125992830361710000004785753980126988947_);" d="M73.9,65.1H49.7c-0.4,0-0.8-0.3-0.8-0.8
		c0,0,0,0,0-0.1c0-0.4,0.3-0.8,0.8-0.8c0,0,0,0,0.1,0h24.1c0.4,0,0.8,0.3,0.8,0.8c0,0,0,0,0,0.1c0.1,0.4-0.2,0.7-0.5,0.8
		C74,65.1,74,65.1,73.9,65.1z"/>
	<path class="st7" d="M97.8,117.1H49.7c-0.4,0-0.8-0.3-0.8-0.8c0,0,0,0,0-0.1c0-0.4,0.3-0.8,0.8-0.8c0,0,0,0,0.1,0h48
		c0.4,0,0.8,0.3,0.8,0.8c0,0,0,0,0,0.1c0.1,0.4-0.2,0.7-0.5,0.8C97.9,117.1,97.9,117.1,97.8,117.1z"/>
	
		<linearGradient id="SVGID_00000101077627357843496740000010519061957747629987_" gradientUnits="userSpaceOnUse" x1="-205.7984" y1="306.7949" x2="-204.7874" y2="306.7949" gradientTransform="matrix(11.0384 0 0 -1.665 2359.1672 621.9889)">
		<stop  offset="0" style="stop-color:#BBBBBB"/>
		<stop  offset="1" style="stop-color:#ECECEC"/>
	</linearGradient>
	<path style="opacity:0.22;fill:url(#SVGID_00000101077627357843496740000010519061957747629987_);enable-background:new    ;" d="
		M97.8,112h-9.4c-0.4,0-0.8-0.3-0.8-0.8c0,0,0,0,0-0.1c0-0.4,0.3-0.8,0.8-0.8c0,0,0,0,0.1,0h9.4c0.4,0,0.8,0.3,0.8,0.8
		c0,0,0,0,0,0.1C98.6,111.6,98.3,112,97.8,112z"/>
	<path class="st11" d="M34.6,123.6H8.3c-1.6,0-2.9-1.2-2.9-2.8c0,0,0-0.1,0-0.1V49.6c0-1.6,1.2-2.9,2.8-2.9c0,0,0.1,0,0.1,0h26.2
		c1.6,0,2.9,1.2,2.9,2.8c0,0,0,0.1,0,0.1v71.1c0.1,1.5-1,2.8-2.5,2.9C34.8,123.6,34.7,123.6,34.6,123.6z"/>
	<path class="st12" d="M21.5,56.4c1.8,0,3.2-1.4,3.2-3.2c0-1.8-1.4-3.2-3.2-3.2c-1.8,0-3.2,1.4-3.2,3.2c0,0,0,0,0,0
		C18.3,55,19.8,56.4,21.5,56.4z"/>
	<path class="st12" d="M31.6,60.3H11.4c-0.3,0-0.5-0.3-0.6-0.6c0-0.3,0.3-0.5,0.6-0.6h20.1c0.3,0,0.5,0.3,0.6,0.6
		C32.1,60,31.9,60.3,31.6,60.3z"/>
	<path class="st12" d="M31.6,64.6H11.4c-0.3,0-0.5-0.3-0.6-0.6c0-0.3,0.3-0.5,0.6-0.6h20.1c0.3,0,0.5,0.3,0.6,0.6
		C32.1,64.3,31.9,64.6,31.6,64.6z"/>
	<path class="st12" d="M31.6,71.9H11.4c-0.3,0-0.5-0.3-0.6-0.6c0-0.4,0.1-0.7,0.6-0.7h20.1c0.3,0,0.5,0.3,0.6,0.6
		C32.2,71.6,31.9,71.9,31.6,71.9z"/>
	<path class="st12" d="M18.8,76.2h-7.6c-0.2,0-0.4-0.2-0.4-0.4v-0.4c0-0.2,0.2-0.4,0.4-0.4h7.5c0.2,0,0.4,0.2,0.4,0.4v0.4
		C19,76.1,18.9,76.2,18.8,76.2z"/>
	<path class="st12" d="M31.6,83.9H11.4c-0.3,0-0.5-0.3-0.6-0.6c0-0.3,0.3-0.5,0.6-0.6h20.1c0.3,0,0.5,0.3,0.6,0.6
		C32.1,83.6,31.9,83.8,31.6,83.9z"/>
	<path class="st12" d="M18.8,88.2h-7.6c-0.2,0-0.4-0.2-0.4-0.4v-0.4c0-0.2,0.2-0.4,0.4-0.4h7.5c0.2,0,0.4,0.2,0.4,0.4v0.4
		C19,88,18.9,88.2,18.8,88.2z"/>
	<path class="st12" d="M31.6,95.8H11.4c-0.3,0-0.5-0.3-0.6-0.6c0-0.3,0.3-0.5,0.6-0.6h20.1c0.3,0,0.5,0.3,0.6,0.6
		C32.2,95.5,32,95.7,31.6,95.8C31.7,95.8,31.6,95.8,31.6,95.8z"/>
	
		<linearGradient id="SVGID_00000066492353967281369840000005303456962493851583_" gradientUnits="userSpaceOnUse" x1="-200.0358" y1="240.1898" x2="-199.0398" y2="240.1898" gradientTransform="matrix(8.277 0 0 -1.25 1666.5319 399.6853)">
		<stop  offset="0" style="stop-color:#917CC4"/>
		<stop  offset="1" style="stop-color:#917CC4"/>
	</linearGradient>
	<path style="fill:url(#SVGID_00000066492353967281369840000005303456962493851583_);" d="M18.8,100.1h-7.6c-0.2,0-0.4-0.2-0.4-0.4
		v-0.4c0-0.2,0.2-0.4,0.4-0.4h7.5c0.2,0,0.4,0.2,0.4,0.4v0.6C19,99.9,18.9,100.1,18.8,100.1z"/>
	<path class="st14" d="M128.8,26.6c2.9,0,5.3-2.3,5.3-5.2c0-2.9-2.3-5.3-5.2-5.3c-2.9,0-5.3,2.3-5.3,5.2c0,0,0,0,0,0
		C123.6,24.2,125.9,26.6,128.8,26.6C128.8,26.6,128.8,26.6,128.8,26.6z"/>
	<path class="st14" d="M32.8,11.2c1.9,0,3.5-1.5,3.5-3.4c0-1.9-1.5-3.5-3.4-3.5s-3.5,1.5-3.5,3.4c0,0,0,0,0,0
		C29.4,9.7,30.9,11.2,32.8,11.2z"/>
	<path class="st14" d="M17.1,20.1c1.3,0,2.4-1,2.4-2.3c0-1.3-1-2.4-2.3-2.4c-1.3,0-2.4,1-2.4,2.3c0,0,0,0,0,0
		C14.8,19,15.8,20.1,17.1,20.1C17.1,20.1,17.1,20.1,17.1,20.1z"/>
	<path class="st14" d="M122.8,4.4c1.2,0,2.2-1,2.2-2.2S124,0,122.8,0s-2.2,1-2.2,2.2c0,0,0,0,0,0C120.6,3.4,121.6,4.4,122.8,4.4
		C122.8,4.4,122.8,4.4,122.8,4.4z"/>
	
		<linearGradient id="SVGID_00000152982471371548517610000010562470958732473273_" gradientUnits="userSpaceOnUse" x1="-174.0542" y1="421.3517" x2="-173.0892" y2="421.3517" gradientTransform="matrix(3.882 0 0 -3.882 696.3801 1781.9158)">
		<stop  offset="0" style="stop-color:#917CC4"/>
		<stop  offset="1" style="stop-color:#917CC4"/>
	</linearGradient>
	<path style="fill:url(#SVGID_00000152982471371548517610000010562470958732473273_);" d="M22.6,148.2c1.1,0,1.9-0.9,2-1.9
		c0-1.1-0.9-1.9-1.9-2s-1.9,0.9-2,1.9c0,0,0,0,0,0C20.7,147.3,21.6,148.2,22.6,148.2z"/>
	
		<linearGradient id="SVGID_00000091710374722328645290000014338076367072279974_" gradientUnits="userSpaceOnUse" x1="-174.01" y1="421.3074" x2="-173.045" y2="421.3074" gradientTransform="matrix(3.88 0 0 -3.88 771.9466 1637.722)">
		<stop  offset="0" style="stop-color:#F8CD9A"/>
		<stop  offset="1" style="stop-color:#917CC4"/>
	</linearGradient>
	<path style="fill:url(#SVGID_00000091710374722328645290000014338076367072279974_);" d="M98.6,5c1.1,0,1.9-0.9,1.9-1.9
		c0-1.1-0.9-1.9-1.9-1.9c-1.1,0-1.9,0.9-1.9,1.9c0,0,0,0,0,0C96.7,4.1,97.6,5,98.6,5z"/>
	
		<linearGradient id="SVGID_00000170261291515877817420000016455571406865890744_" gradientUnits="userSpaceOnUse" x1="-219.869" y1="500.5294" x2="-218.869" y2="500.5294" gradientTransform="matrix(60.7224 0 0 -48.6849 13440.624 24486.9473)">
		<stop  offset="0" style="stop-color:#917CC4"/>
		<stop  offset="1" style="stop-color:#917CC4"/>
	</linearGradient>
	<path style="fill:url(#SVGID_00000170261291515877817420000016455571406865890744_);" d="M148.9,104.8c-0.8-3.1-2.8-5.7-5.5-7.3
		c-3-1.8-6.2-2.1-9.7-2.4c-6.1-0.7-12.3-0.9-18.5-0.6c-5.5,0.1-11.9-0.1-17,2.2c-7.3,3.2-8.3,10.3-8.6,17.9
		c-0.3,5.7-0.3,12.5,1.2,18c1.2,4.5,4.7,7.9,9.2,8.9c5.8,1.4,18.2,1.7,24.3,1.5h1.7c4.8-0.1,9.9-0.1,14.3-1.8c3.2-1,5.9-3.2,7.3-6.2
		c1.7-3.3,2.1-7.5,2.2-12.1C150.5,117,150.4,110.2,148.9,104.8z"/>
	
		<linearGradient id="SVGID_00000173864174194466184320000001214165181806934715_" gradientUnits="userSpaceOnUse" x1="-217.361" y1="494.4241" x2="-216.806" y2="493.6561" gradientTransform="matrix(34.9 0 0 -25.086 7705.8223 12524.7373)">
		<stop  offset="0" style="stop-color:#917CC4"/>
		<stop  offset="1" style="stop-color:#917CC4"/>
	</linearGradient>
	<path style="fill:url(#SVGID_00000173864174194466184320000001214165181806934715_);" d="M148,134.9c-1.5,3-4.1,5.3-7.3,6.2
		c-4.6,1.5-9.7,1.7-14.3,1.8l-13.2-13.3l5.2-7.6l12.7-4.2L148,134.9z"/>
	
		<linearGradient id="SVGID_00000118375144263740642760000011600147714253008026_" gradientUnits="userSpaceOnUse" x1="-212.2756" y1="492.1585" x2="-212.9926" y2="492.7595" gradientTransform="matrix(18.8657 0 0 -22.4356 4129.6323 11168.2832)">
		<stop  offset="0" style="stop-color:#917CC4"/>
		<stop  offset="1.100000e-02" style="stop-color:#917CC4"/>
		<stop  offset="1" style="stop-color:#FFFFFF"/>
	</linearGradient>
	<path style="fill:url(#SVGID_00000118375144263740642760000011600147714253008026_);" d="M112.6,109.6c0-2.1,1.1-2.8,2.9-1.7
		c4.8,2.9,9.8,6,14.6,8.9c1.8,1.1,1.8,2.4,0,3.6c-4.8,2.9-9.7,6-14.5,8.9c-1.9,1.1-2.9,0.6-3-1.4V109.6z"/>
</g>
</svg>
