<?xml version="1.0" encoding="utf-8"?>
<!-- Generator: Adobe Illustrator 27.0.1, SVG Export Plug-In . SVG Version: 6.00 Build 0)  -->
<svg version="1.1" id="Layer_1" xmlns="http://www.w3.org/2000/svg" xmlns:xlink="http://www.w3.org/1999/xlink" x="0px" y="0px"
	 viewBox="0 0 22 22" style="enable-background:new 0 0 22 22;" xml:space="preserve">
<style type="text/css">
	.st0{fill:#B5AECB;}
</style>
<path class="st0" d="M17.4,3.7h-1.8V2.8c0-0.2-0.1-0.5-0.3-0.6c-0.2-0.2-0.4-0.3-0.6-0.3c-0.2,0-0.5,0.1-0.6,0.3
	c-0.2,0.2-0.3,0.4-0.3,0.6v0.9H8.3V2.8c0-0.2-0.1-0.5-0.3-0.6C7.8,1.9,7.6,1.8,7.3,1.8c-0.2,0-0.5,0.1-0.6,0.3
	C6.5,2.3,6.4,2.5,6.4,2.8v0.9H4.6C3.9,3.7,3.2,4,2.6,4.5C2.1,5,1.8,5.7,1.8,6.4v11c0,0.7,0.3,1.4,0.8,1.9c0.5,0.5,1.2,0.8,1.9,0.8
	h12.8c0.7,0,1.4-0.3,1.9-0.8c0.5-0.5,0.8-1.2,0.8-1.9v-11c0-0.7-0.3-1.4-0.8-1.9C18.8,4,18.1,3.7,17.4,3.7z M18.3,17.4
	c0,0.2-0.1,0.5-0.3,0.6s-0.4,0.3-0.6,0.3H4.6c-0.2,0-0.5-0.1-0.6-0.3s-0.3-0.4-0.3-0.6V11h14.7V17.4z M18.3,9.2H3.7V6.4
	c0-0.2,0.1-0.5,0.3-0.6c0.2-0.2,0.4-0.3,0.6-0.3h1.8v0.9c0,0.2,0.1,0.5,0.3,0.6c0.2,0.2,0.4,0.3,0.6,0.3c0.2,0,0.5-0.1,0.6-0.3
	c0.2-0.2,0.3-0.4,0.3-0.6V5.5h5.5v0.9c0,0.2,0.1,0.5,0.3,0.6c0.2,0.2,0.4,0.3,0.6,0.3c0.2,0,0.5-0.1,0.6-0.3
	c0.2-0.2,0.3-0.4,0.3-0.6V5.5h1.8c0.2,0,0.5,0.1,0.6,0.3c0.2,0.2,0.3,0.4,0.3,0.6V9.2z"/>
</svg>
