<?xml version="1.0" encoding="utf-8"?>
<!-- Generator: Adobe Illustrator 27.0.1, SVG Export Plug-In . SVG Version: 6.00 Build 0)  -->
<svg version="1.1" id="Layer_1" xmlns="http://www.w3.org/2000/svg" xmlns:xlink="http://www.w3.org/1999/xlink" x="0px" y="0px"
	 viewBox="0 0 22 22" style="enable-background:new 0 0 22 22;" xml:space="preserve">
<style type="text/css">
	.st0{fill:#B5AECB;stroke:#B5AECB;stroke-width:0.5;}
</style>
<path class="st0" d="M9.9,20.2L9.9,20.2L9.6,20l0,0c-4.3-3.8-6.6-7.3-6.6-10.6c0-2.1,0.8-4.1,2.3-5.6C6.9,2.4,8.9,1.5,11,1.5
	c2.1,0,4.1,0.8,5.6,2.3c1.5,1.5,2.3,3.5,2.3,5.6c0,3.4-2.4,6.9-6.9,10.8L9.9,20.2z M9.9,20.2c0.3,0.3,0.7,0.4,1.1,0.4
	c0.4,0,0.8-0.1,1.1-0.4L9.9,20.2z M10.9,19.2c0,0,0.1,0,0.1,0c0,0,0.1,0,0.1,0L11,18.9 M10.9,19.2L11,19l0,0l0,0l0,0l0,0 M10.9,19.2
	l-0.3-0.3L11,19 M10.9,19.2L11,19l0,0l0,0 M11,19L11,19 M11,18.9c4.2-3.6,6.2-6.8,6.2-9.5c0-0.8-0.2-1.6-0.5-2.4S16,5.6,15.4,5
	c-0.6-0.6-1.3-1-2-1.4c-0.8-0.3-1.6-0.5-2.4-0.5C9.3,3.2,7.8,3.9,6.6,5C5.4,6.2,4.8,7.8,4.8,9.4c0,2.6,1.9,5.7,6,9.3c0,0,0,0,0,0
	L11,18.9z M13.3,7.2c-0.6-0.6-1.4-0.9-2.3-0.9c-0.8,0-1.7,0.3-2.3,0.9S7.8,8.6,7.8,9.4c0,0.8,0.3,1.7,0.9,2.3
	c0.6,0.6,1.4,0.9,2.3,0.9c0.8,0,1.7-0.3,2.3-0.9c0.6-0.6,0.9-1.4,0.9-2.3C14.2,8.6,13.9,7.8,13.3,7.2z M9.9,8.4
	c0.3-0.3,0.7-0.4,1.1-0.4c0.4,0,0.8,0.2,1.1,0.4c0.3,0.3,0.4,0.7,0.4,1.1s-0.2,0.8-0.4,1.1c-0.3,0.3-0.7,0.4-1.1,0.4
	c-0.4,0-0.8-0.2-1.1-0.4c-0.3-0.3-0.4-0.7-0.4-1.1S9.6,8.6,9.9,8.4z"/>
</svg>
