<?xml version="1.0" encoding="utf-8"?>
<!-- Generator: Adobe Illustrator 27.0.1, SVG Export Plug-In . SVG Version: 6.00 Build 0)  -->
<svg version="1.1" id="Layer_1" xmlns="http://www.w3.org/2000/svg" xmlns:xlink="http://www.w3.org/1999/xlink" x="0px" y="0px"
	 viewBox="0 0 197 560.6" style="enable-background:new 0 0 197 560.6;" xml:space="preserve">
<style type="text/css">
	.st0{opacity:4.000000e-02;}
	.st1{fill:#F1F0F1;}
	.st2{fill:none;stroke:#6F6C70;stroke-dasharray:5;}
	.st3{opacity:0.31;fill:#F1F0F1;enable-background:new    ;}
	.st4{fill:#672BE9;}
	.st5{fill:url(#SVGID_1_);}
	.st6{fill:#A787F2;}
	.st7{fill:url(#SVGID_00000100384760104661634930000017946311226439370653_);}
</style>
<g transform="translate(-1149 -414.386)">
	<g transform="translate(1149 427)" class="st0">
		<path class="st1" d="M35,0h127c19.3,0,35,15.7,35,35v478c0,19.3-15.7,35-35,35H35c-19.3,0-35-15.7-35-35V35C0,15.7,15.7,0,35,0z"
			/>
		<path class="st2" d="M35,0.5h127c19.1,0,34.5,15.4,34.5,34.5v478c0,19.1-15.4,34.5-34.5,34.5H35c-19.1,0-34.5-15.4-34.5-34.5V35
			C0.5,15.9,15.9,0.5,35,0.5z"/>
	</g>
	<path class="st3" d="M1189,437h117c16.6,0,30,13.4,30,30v468c0,16.6-13.4,30-30,30h-117c-16.6,0-30-13.4-30-30V467
		C1159,450.4,1172.4,437,1189,437z"/>
	<g>
		<g>
			<path class="st4" d="M1259.6,436.7c6.9-2.7,16.8-8.3,20.9-10.7c0.4-0.2,0.8-0.1,1,0.3c0.1,0.2,0.1,0.4,0,0.6
				c-0.6,1.6-1.4,3.1-2.3,4.5c1.3,0.3,2.5,0.9,3.5,1.7c0.4,0.3,0.5,0.9,0.2,1.3c-0.1,0.1-0.2,0.2-0.4,0.3c-2.6,1.2-5.4,2.1-8.2,2.6
				l-12.4,1L1259.6,436.7z"/>
			<path class="st4" d="M1235.4,436.7c-6.9-2.7-16.8-8.3-20.9-10.7c-0.4-0.2-0.8-0.1-1,0.3c-0.1,0.2-0.1,0.4,0,0.6
				c0.6,1.6,1.4,3.1,2.3,4.5c-1.3,0.3-2.5,0.9-3.5,1.7c-0.4,0.3-0.5,0.9-0.2,1.3c0.1,0.1,0.2,0.2,0.4,0.3c2.6,1.2,5.4,2.1,8.2,2.6
				l12.4,1L1235.4,436.7z"/>
			
				<linearGradient id="SVGID_1_" gradientUnits="userSpaceOnUse" x1="957.7966" y1="1109.3435" x2="958.7946" y2="1109.3435" gradientTransform="matrix(25.511 0 0 -25.9559 -23184.5938 29221.5625)">
				<stop  offset="0" style="stop-color:#A787F2"/>
				<stop  offset="1" style="stop-color:#7C49EC"/>
			</linearGradient>
			<path class="st5" d="M1275.1,427.2c-0.3,1.6-1,3.2-2,4.5c-2.1,2.7-5.3,4.5-8.2,6c-2.2,1.2-4.5,2.1-6.9,2.8
				c-1.6,0.4-4.3-0.5-6.2-1.2c-1.1-0.5-1.8-0.7-1.8-0.7v-2.2c0.5-3.6,0.7-7.4,2.2-10.8c1.3-3.1,3.4-5.8,6.2-7.8
				c2.7-2,5.9-3.8,9.4-2.7c4.3,1.5,7.3,5.5,7.7,10.1C1275.3,425.7,1275.2,426.5,1275.1,427.2z"/>
			<path class="st6" d="M1275.1,427.2c-0.3,1.6-1,3.2-2,4.5c-2.1,2.7-5.3,4.5-8.2,6c-2.2,1.2-4.5,2.1-6.9,2.8
				c-1.6,0.4-4.3-0.5-6.2-1.2l9.2-3.1c2.9-0.9,5.7-2,8.3-3.5c2.7-1.5,4.7-3.9,5.8-6.7c0.1-0.3,0.2-0.7,0.3-1
				C1275.3,425.7,1275.2,426.4,1275.1,427.2z"/>
			<path class="st4" d="M1254.6,433.5c-0.8,0.2-1.6-0.2-1.8-1c-0.1-0.3-0.1-0.6,0-0.8c1.6-5.7,3.6-8.1,5.5-9.9
				c2.1-1.8,4.7-3,7.4-3.5c0.8-0.1,1.6,0.4,1.7,1.2c0,0.2,0,0.3,0,0.5c-0.4,3.6-1.8,7.2-4.5,9.2
				C1260.5,431.2,1257.7,432.7,1254.6,433.5z"/>
			
				<linearGradient id="SVGID_00000060711829391297693280000008059956197324891788_" gradientUnits="userSpaceOnUse" x1="957.8466" y1="1109.3672" x2="958.8495" y2="1109.3672" gradientTransform="matrix(25.3453 0 0 -26.0697 -23056.7676 29348.2441)">
				<stop  offset="0" style="stop-color:#A787F2"/>
				<stop  offset="1" style="stop-color:#7C49EC"/>
			</linearGradient>
			<path style="fill:url(#SVGID_00000060711829391297693280000008059956197324891788_);" d="M1245.6,436.2v2.2
				c-0.1,0.1-0.3,0.1-0.5,0.2c-1.4,0.7-5.5,2.3-7.6,1.8c-2.4-0.7-4.7-1.6-6.9-2.8c-3-1.5-6.2-3.3-8.2-6c-1-1.3-1.7-2.8-2-4.5
				c-0.3-2.1,0-4.2,0.9-6.2c0.3-0.7,0.7-1.5,1.2-2.1c1.4-1.9,3.3-3.3,5.5-4.1c3.4-1.1,6.7,0.7,9.4,2.7c2.8,2,4.9,4.7,6.2,7.8
				C1244.6,428.8,1245.3,432.5,1245.6,436.2z"/>
			<path class="st6" d="M1245.1,438.7c-1.4,0.7-5.5,2.3-7.6,1.8c-2.4-0.7-4.7-1.6-6.9-2.8c-3-1.5-6.2-3.3-8.2-6
				c-1-1.3-1.7-2.8-2-4.5c-0.3-2.1,0-4.2,0.9-6.1c-0.1,0.8-0.2,1.6-0.2,2.4c0.2,3.1,1.5,6,3.7,8.2c2.3,2.1,5,3.4,8,4
				c3,0.7,6,0.8,9.1,1.2C1243.1,437,1244.7,437.5,1245.1,438.7z"/>
			<path class="st4" d="M1247.8,444.6c3.7,0,6.6-2.9,6.7-6.6c0-3.7-2.9-6.6-6.6-6.7c-3.7,0-6.6,2.9-6.7,6.6c0,0,0,0,0,0
				C1241.2,441.6,1244.2,444.6,1247.8,444.6z"/>
			<path class="st4" d="M1240.7,433.5c0.8,0.2,1.6-0.2,1.8-1c0.1-0.3,0.1-0.6,0-0.8c-1.6-5.7-3.6-8.1-5.5-9.9
				c-2.1-1.8-4.7-3-7.4-3.5c-0.8-0.1-1.6,0.4-1.7,1.2c0,0.2,0,0.3,0,0.5c0.4,3.6,1.8,7.2,4.5,9.2
				C1234.8,431.2,1237.6,432.7,1240.7,433.5z"/>
		</g>
	</g>
</g>
</svg>
