<svg width="410" height="73" viewBox="0 0 410 73" fill="none" xmlns="http://www.w3.org/2000/svg">
<rect width="410" height="73"   fill="#DFDBF7"/>
<mask id="mask0_1736_3519" style="mask-type:alpha" maskUnits="userSpaceOnUse" x="35" y="1" width="220" height="71">
<path d="M35 1H255C255 1 252.255 17.2831 242.188 36.5C232.121 55.7169 229.376 72 229.376 72H35V1Z" fill="#FCF8F4"/>
</mask>
<g mask="url(#mask0_1736_3519)">
<path d="M32.3762 84.6516C42.492 48.3722 69.8174 62.4364 36.9738 -21.9089L40.6422 -23.0492C40.6422 -23.0492 61.1968 23.7827 59.5983 45.1324C58.0863 65.171 40.5835 60.2711 58.3891 124.54L35.488 125.23C31.3386 112.913 28.6506 98.1068 32.4007 84.6294L32.3762 84.6516Z" fill="#9589EA" fill-opacity="0.09"/>
<path d="M70.383 53.5613C76.0647 36.4324 54.6584 -6.54955 54.6584 -6.54955L58.1373 -7.79061C58.1373 -7.79061 73.5389 18.093 82.5089 57.2049C88.0694 81.3912 100.779 106.091 110.749 122.963L82.8208 123.804C71.6455 94.6205 66.951 63.9122 70.3837 53.5827L70.383 53.5613Z" fill="#9589EA" fill-opacity="0.09"/>
<path d="M46.8725 -45.3281L51.1069 -47.1501C51.1069 -47.1501 62.3297 -23.8734 78.0781 6.40935C93.8019 36.7143 105.609 37.5168 120.985 52.9254C129.882 61.8373 154.223 99.2609 168.232 121.231L138.184 122.137C127.234 99.5379 106.393 58.5127 90.4446 39.1748C81.4366 28.2715 46.8725 -45.3281 46.8725 -45.3281Z" fill="#9589EA" fill-opacity="0.09"/>
<path d="M118.441 39.0718C91.3385 22.6821 78.5635 -7.41947 78.5635 -7.41947L82.4358 -8.52305C82.4358 -8.52305 100.554 25.7943 123.809 32.4094C136.999 36.1741 177.647 53.4844 199.904 75.3011L167.682 76.2721C157.066 67.6455 139.049 51.5165 118.491 39.0703L118.441 39.0718Z" fill="#9589EA" fill-opacity="0.09"/>
<path d="M94.3894 -0.224411L97.6146 -2.97332C97.6146 -2.97332 119.687 15.3243 129.026 19.225C155.946 30.4683 189.109 31.2443 225.919 74.5183L209.069 75.026C176.002 38.1488 157.591 36.1193 133.347 26.8575C109.104 17.5956 94.3641 -0.223651 94.3641 -0.223651L94.3894 -0.224411Z" fill="#9589EA" fill-opacity="0.09"/>
</g>
</svg>
