<?xml version="1.0" encoding="utf-8"?>
<!-- Generator: Adobe Illustrator 27.0.1, SVG Export Plug-In . SVG Version: 6.00 Build 0)  -->
<svg version="1.1" id="Layer_1" xmlns="http://www.w3.org/2000/svg" xmlns:xlink="http://www.w3.org/1999/xlink" x="0px" y="0px"
	 viewBox="0 0 246.5 263.3" style="enable-background:new 0 0 246.5 263.3;" xml:space="preserve">
<style type="text/css">
	.st0{fill:url(#SVGID_1_);}
	.st1{fill:#A87CC4;}
	.st2{fill:url(#SVGID_00000125568729963836176730000007023455933834126763_);}
	.st3{fill:#B48ECC;}
	.st4{fill:url(#SVGID_00000126290911722597417810000003135363429713282986_);}
	.st5{fill:#FFFFFF;}
	.st6{fill:#FEFAF1;}
	.st7{fill:url(#SVGID_00000121981012192993154540000006035103636116220342_);}
	.st8{opacity:0.6;fill:#A87CC4;enable-background:new    ;}
	.st9{fill:url(#SVGID_00000078037158576789135810000008005067366865402014_);}
	.st10{fill:#FCEFD1;}
	.st11{fill:#F8DC9A;}
	.st12{fill:url(#SVGID_00000142159517227968478890000010350689269229489854_);}
	.st13{fill:url(#SVGID_00000087406457622331979920000006879442500282044292_);}
	.st14{fill:url(#SVGID_00000101793506320752700590000013909452933975053488_);}
</style>
<g>
	<g>
		
			<linearGradient id="SVGID_1_" gradientUnits="userSpaceOnUse" x1="-172.7516" y1="551.6553" x2="-172.7516" y2="550.6553" gradientTransform="matrix(232.4821 0 0 -234.1003 40287.5352 129153.0547)">
			<stop  offset="0" style="stop-color:#FCEAD4;stop-opacity:0"/>
			<stop  offset="1" style="stop-color:#F8CD9A"/>
		</linearGradient>
		<path class="st0" d="M242.1,127.4c0,25.5-8.3,50.4-23.7,70.8c-8.1,10.7-17.9,19.9-29.1,27.2c-18.8,12.5-40.8,19.1-63.3,19
			c-64.3,0-116.4-52.5-116.4-117c0-64.8,52.1-117.1,116.1-117.1c36.3,0,70.6,17,92.5,46C233.8,76.8,242.2,101.8,242.1,127.4
			L242.1,127.4z"/>
		<path class="st1" d="M158.3,65.4c17.9-7,43.5-21.4,54-27.7c0.9-0.5,2.1-0.2,2.6,0.7c0.3,0.5,0.3,1.1,0.1,1.7
			c-1.6,4.1-3.6,7.9-6,11.6c0,0,5.5,1.2,9.1,4.3c1.1,0.8,1.3,2.3,0.5,3.3c-0.2,0.3-0.6,0.6-0.9,0.7c-9.3,4.6-21.3,6.8-21.3,6.8
			l-32,2.6L158.3,65.4z"/>
		<path class="st1" d="M93.5,65.4c-17.9-7-43.5-21.4-54-27.7c-0.9-0.5-2.1-0.2-2.6,0.7c-0.3,0.5-0.3,1.1-0.1,1.7
			c1.6,4.1,3.6,7.9,6,11.6c0,0-5.5,1.2-9.1,4.3c-1.1,0.8-1.3,2.3-0.5,3.3c0.2,0.3,0.6,0.6,0.9,0.7c9.3,4.6,21.3,6.8,21.3,6.8l32,2.6
			L93.5,65.4z"/>
		
			<linearGradient id="SVGID_00000023253286791995145800000006950724417308325509_" gradientUnits="userSpaceOnUse" x1="-171.3655" y1="548.0826" x2="-170.3675" y2="548.0826" gradientTransform="matrix(65.946 0 0 -67.0973 11432.5889 36808.918)">
			<stop  offset="0" style="stop-color:#C9AEDA"/>
			<stop  offset="1" style="stop-color:#B792CE"/>
		</linearGradient>
		<path style="fill:url(#SVGID_00000023253286791995145800000006950724417308325509_);" d="M197.2,33.1c-0.7,4.2-2.6,8.2-5.3,11.6
			c-5.5,7-13.6,11.6-21.3,15.4c-5.7,3-11.7,5.4-17.9,7.2c-4.1,1-11.2-1.2-16-3.1c-2.9-1.2-4.8-1.9-4.8-1.9v-5.8
			c1.2-9.4,1.9-19.2,5.7-27.9c3.4-8.1,8.9-15.1,16-20.2c6.9-5.1,15.3-9.9,24.4-7c11,3.6,19.1,14.4,19.8,26
			C197.7,29.3,197.5,31.2,197.2,33.1z"/>
		<path class="st3" d="M197.2,33.1c-0.7,4.2-2.6,8.2-5.3,11.6c-5.5,7-13.6,11.6-21.3,15.4c-5.7,3-11.7,5.4-17.9,7.2
			c-4.1,1-11.2-1.2-16-3.1l23.7-8c7.4-2.4,14.8-5.1,21.5-9.2c6.7-4.1,12.4-9.9,15.1-17.3c0.2-0.7,0.5-1.7,0.7-2.6
			C197.7,29.1,197.5,31.1,197.2,33.1z"/>
		<path class="st1" d="M144.2,49.5c-2,0.5-4.1-0.6-4.6-2.6c-0.2-0.7-0.2-1.5,0.1-2.2c4.1-14.7,9.3-21,14.3-25.5
			c4.5-4.1,12.2-7.7,19.1-9.1c2.1-0.4,4.1,1,4.5,3.1c0.1,0.4,0.1,0.8,0,1.2c-1,9.4-4.8,18.6-11.7,23.8
			C157.1,45.2,149.2,48.3,144.2,49.5z"/>
		
			<linearGradient id="SVGID_00000105417790841488713160000015662545111907688584_" gradientUnits="userSpaceOnUse" x1="-171.349" y1="548.1015" x2="-170.346" y2="548.1015" gradientTransform="matrix(65.5114 0 0 -67.392 11280.4629 36971.3789)">
			<stop  offset="0" style="stop-color:#C9AEDA"/>
			<stop  offset="1" style="stop-color:#B792CE"/>
		</linearGradient>
		<path style="fill:url(#SVGID_00000105417790841488713160000015662545111907688584_);" d="M121,56.3V62c-0.4,0.2-0.8,0.3-1.2,0.5
			c-3.6,1.7-14.3,6-19.6,4.6C94,65.7,88,62.8,82.3,59.9c-7.6-3.9-16-8.4-21.3-15.4c-2.7-3.3-4.5-7.3-5.3-11.5
			C55,27.5,55.8,22,58.2,17c0.9-1.9,1.9-3.8,3.1-5.5c3.5-4.9,8.4-8.6,14.1-10.6c8.8-2.9,17.2,1.9,24.4,7c7.2,5.1,12.7,12.1,16,20.2
			C118.8,37,119.8,46.9,121,56.3z"/>
		<path class="st3" d="M119.6,62.8c-3.6,1.7-14.3,6-19.6,4.6C93.8,65.9,87.8,63,82,60.1c-7.6-3.8-16-8.4-21.3-15.4
			c-2.7-3.3-4.5-7.3-5.3-11.6c-0.8-5.4,0.1-10.9,2.4-15.9c-0.3,2.1-0.5,4.2-0.5,6.2c0.4,8,3.8,15.6,9.6,21.2
			c5.7,5.5,13.1,8.7,20.8,10.4s15.5,2.2,23.4,3.1C114.5,58.4,118.6,59.6,119.6,62.8z"/>
		<path class="st1" d="M126.7,85.9c9.4,0.1,17.2-7.5,17.2-17s-7.5-17.2-17-17.2s-17.2,7.5-17.2,17c0,0,0,0.1,0,0.1
			C109.7,78.2,117.3,85.9,126.7,85.9z"/>
		<path class="st1" d="M108.3,49.5c2,0.5,4.1-0.6,4.6-2.6c0.2-0.7,0.2-1.5-0.1-2.2c-4.1-14.7-9.3-21-14.3-25.5
			C94,15.1,86.3,11.5,79.4,10c-2.1-0.4-4.1,1-4.5,3.1c-0.1,0.4-0.1,0.8,0,1.2c1,9.4,4.8,18.6,11.7,23.8
			C95.7,45.2,103.3,48.3,108.3,49.5z"/>
		<g>
			<path class="st5" d="M202.2,89.5V208c0,6.2-5,11.3-11.2,11.3c0,0,0,0,0,0H62c-6.2,0-11.2-5.1-11.2-11.3c0,0,0,0,0,0V89.5
				c0-6.2,5-11.3,11.2-11.3c0,0,0,0,0,0h129C197.2,78.2,202.3,83.3,202.2,89.5C202.2,89.5,202.2,89.5,202.2,89.5z"/>
		</g>
		<path class="st6" d="M202.2,89.5v26.3H50.7V89.5c0-6.2,5-11.3,11.2-11.3c0,0,0,0,0,0h129C197.2,78.2,202.3,83.3,202.2,89.5
			C202.2,89.5,202.2,89.5,202.2,89.5z"/>
		<path class="st5" d="M210.1,69.5v30.4c0,3.7-3,6.7-6.7,6.7c0,0,0,0,0,0H49.6c-3.7,0-6.7-3-6.7-6.7c0,0,0,0,0,0V69.5
			c0-3.7,3-6.7,6.7-6.7c0,0,0,0,0,0h154.1C207.3,62.9,210.2,65.9,210.1,69.5z"/>
		
			<linearGradient id="SVGID_00000176033623722082952210000011855198262953710258_" gradientUnits="userSpaceOnUse" x1="-169.7644" y1="550.147" x2="-168.7674" y2="550.147" gradientTransform="matrix(41.1 0 0 -128.852 7081.4297 71042.6641)">
			<stop  offset="0" style="stop-color:#C9AEDA"/>
			<stop  offset="1" style="stop-color:#B792CE"/>
		</linearGradient>
		<path style="fill:url(#SVGID_00000176033623722082952210000011855198262953710258_);" d="M145.1,90.7H104v128.9h41.1V90.7z"/>
		<path class="st8" d="M145.1,90.7H104v25h41.1V90.7z"/>
		
			<linearGradient id="SVGID_00000119099763070362845450000010706369526503586445_" gradientUnits="userSpaceOnUse" x1="-169.7845" y1="545.8278" x2="-169.7845" y2="545.3468" gradientTransform="matrix(46.831 0 0 -43.841 8075.7573 24013.0059)">
			<stop  offset="0" style="stop-color:#C9AEDA"/>
			<stop  offset="1" style="stop-color:#B792CE"/>
		</linearGradient>
		<path style="fill:url(#SVGID_00000119099763070362845450000010706369526503586445_);" d="M148,62.8h-46.8v43.8H148V62.8z"/>
		<path class="st10" d="M174.9,139.7l-20.1-38.5c-0.5-0.9-0.6-2.1-0.3-3.1l3.4-11.8c0.3-1,1-1.9,1.9-2.4l8.7-4.8
			c0.9-0.5,2-0.6,3-0.3l11.5,3.6c1,0.3,1.9,1,2.3,2l20.1,38.5c1,2,0.3,4.4-1.6,5.5l-23.7,13.1c-0.6,0.3-1.2,0.5-1.9,0.5
			C176.9,141.8,175.6,141,174.9,139.7z"/>
		<path class="st11" d="M170.2,85.1c-0.9-0.5-1.9-0.7-2.9-0.5c0.3,0.8,0.4,1.6,0.4,2.4c-1-0.1-1.9-0.4-2.8-0.9
			c-1.4-0.8-2.8-1.7-4.1-2.7c-2.5-1.9-4.7-4.1-6.8-6.5c-7.1-8.3-8.9-14.4-8.1-15.1c0.1-0.1,0.3-0.2,0.4-0.1c0.8,0,2.6,0.7,4.8,2.4
			c3.1,2.3,5.9,5,8.4,7.9c2.4,2.7,4.4,5.7,6,8.9l2.4-1.3c-1.8-3.4-3.9-6.5-6.4-9.4c-6.1-7.2-14.2-13.4-17.5-10.4
			c-3.3,3,1.8,12,7.9,19.1c2,2.3,4.2,4.4,6.5,6.4c1.6,1.4,3.4,2.6,5.4,3.6c1.1,0.6,2.3,1,3.5,1.1h0.1c0.8,0,1.5-0.3,2-0.8
			c0.6-0.6,0.8-1.5,0.8-2.3C170.3,86.2,170.3,85.6,170.2,85.1z"/>
		<path class="st10" d="M10.6,82c-0.2-0.8-0.2-1.6,0-2.4l1.7-3.6c0.2-0.5,0-1-0.4-1.2c0,0,0,0,0,0h-0.7l-3.6,1.7
			c-0.8,0.2-1.6,0.2-2.4,0l-3.6-1.7c-0.4-0.2-1,0-1.2,0.4c0,0,0,0,0,0.1V76L2,79.6c0.2,0.8,0.2,1.6,0,2.4l-1.9,3.9
			c-0.2,0.4,0,0.9,0.4,1.2c0,0,0.1,0,0.1,0h0.7l3.6-1.7c0.8-0.2,1.6-0.2,2.4,0l3.8,1.7c0.4,0.2,1,0,1.2-0.4c0,0,0,0,0-0.1v-0.7
			L10.6,82z"/>
		
			<linearGradient id="SVGID_00000124125357144201915890000003976545016371386763_" gradientUnits="userSpaceOnUse" x1="-159.915" y1="528.7277" x2="-158.916" y2="528.7277" gradientTransform="matrix(12.3579 0 0 -12.2136 1993.0109 6619.4194)">
			<stop  offset="0" style="stop-color:#C9AEDA"/>
			<stop  offset="1" style="stop-color:#B792CE"/>
		</linearGradient>
		<path style="fill:url(#SVGID_00000124125357144201915890000003976545016371386763_);" d="M27.3,163c-0.2-0.8-0.2-1.6,0-2.4L29,157
			c0.2-0.4,0-1-0.4-1.2c0,0,0,0-0.1,0h-0.7l-3.6,1.7c-0.8,0.2-1.6,0.2-2.4,0l-3.6-1.7c-0.4-0.2-1,0-1.2,0.4c0,0,0,0,0,0.1v0.7
			l1.7,3.6c0.2,0.8,0.2,1.6,0,2.4l-1.9,3.6c-0.2,0.4,0,1,0.4,1.2c0,0,0,0,0.1,0H18l3.6-1.7c0.8-0.2,1.6-0.2,2.4,0l3.6,1.7
			c0.4,0.2,1,0,1.2-0.4c0,0,0,0,0-0.1v-0.7L27.3,163z"/>
		
			<linearGradient id="SVGID_00000168087477531724503190000009714476142420536739_" gradientUnits="userSpaceOnUse" x1="-159.9224" y1="529.1914" x2="-158.9234" y2="529.1914" gradientTransform="matrix(12.36 0 0 -12.4577 2210.8083 6708.3999)">
			<stop  offset="0" style="stop-color:#C9AEDA"/>
			<stop  offset="1" style="stop-color:#B792CE"/>
		</linearGradient>
		<path style="fill:url(#SVGID_00000168087477531724503190000009714476142420536739_);" d="M244.8,117c-0.2-0.8-0.2-1.6,0-2.4
			l1.7-3.6c0.2-0.4,0-1-0.4-1.2c0,0,0,0-0.1,0h-0.7l-3.6,1.7c-0.8,0.2-1.6,0.2-2.4,0l-3.6-1.7c-0.4-0.2-1,0-1.2,0.4c0,0,0,0,0,0.1
			v0.7l1.7,3.6c0.2,0.8,0.2,1.6,0,2.4l-1.9,3.8c-0.2,0.4,0,1,0.4,1.2c0,0,0,0,0.1,0h0.7l3.6-1.7c0.8-0.2,1.6-0.2,2.4,0l3.6,1.7
			c0.4,0.2,1,0,1.2-0.4c0,0,0,0,0-0.1v-0.7L244.8,117z"/>
		
			<linearGradient id="SVGID_00000132807390463993339350000014686178679269984160_" gradientUnits="userSpaceOnUse" x1="-159.663" y1="528.7505" x2="-158.645" y2="528.7505" gradientTransform="matrix(12.1162 0 0 -12.2254 2147.3484 6481.4165)">
			<stop  offset="0" style="stop-color:#C9AEDA"/>
			<stop  offset="1" style="stop-color:#B792CE"/>
		</linearGradient>
		<path style="fill:url(#SVGID_00000132807390463993339350000014686178679269984160_);" d="M223.5,18.4c-0.2-0.8-0.2-1.6,0-2.4
			l1.7-3.6c0.2-0.4,0-1-0.4-1.2c0,0,0,0-0.1,0H224l-3.6,1.7c-0.8,0.2-1.6,0.2-2.4,0l-3.6-1.7c-0.4-0.2-1,0-1.2,0.4c0,0,0,0,0,0.1
			v0.7l1.7,3.6c0.2,0.8,0.2,1.6,0,2.4l-1.7,3.6c-0.2,0.5,0,1,0.4,1.2c0,0,0,0,0,0h0.7l3.6-1.7c0.8-0.2,1.6-0.2,2.4,0l3.6,1.7
			c0.4,0.2,1,0,1.2-0.4c0,0,0,0,0-0.1v-0.7L223.5,18.4z"/>
		<path class="st10" d="M230.9,189.7c-0.2-0.8-0.2-1.6,0-2.4l1.7-3.6c0.2-0.4,0-1-0.4-1.2c0,0,0,0-0.1,0h-0.7l-3.6,1.7
			c-0.8,0.2-1.6,0.2-2.4,0l-3.6-1.7c-0.4-0.2-0.9,0-1.2,0.4c0,0,0,0.1,0,0.1v0.7l1.7,3.6c0.2,0.8,0.2,1.6,0,2.4l-1.7,3.6
			c-0.2,0.4,0,1,0.4,1.2c0,0,0,0,0.1,0h0.7l3.6-1.7c0.8-0.2,1.6-0.2,2.4,0l3.6,1.7c0.4,0.2,0.9,0,1.2-0.4c0,0,0-0.1,0-0.1v-0.7
			L230.9,189.7z"/>
	</g>
</g>
</svg>
