<?xml version="1.0" encoding="utf-8"?>
<!-- Generator: Adobe Illustrator 27.0.1, SVG Export Plug-In . SVG Version: 6.00 Build 0)  -->
<svg version="1.1" id="Layer_1" xmlns="http://www.w3.org/2000/svg" xmlns:xlink="http://www.w3.org/1999/xlink" x="0px" y="0px"
	 viewBox="0 0 251 280.3" style="enable-background:new 0 0 251 280.3;" xml:space="preserve">
<style type="text/css">
	.st0{fill:#EAEEF9;}
	.st1{fill:none;stroke:#917CC4;stroke-width:2;stroke-linecap:round;stroke-linejoin:round;stroke-miterlimit:10;}
	.st2{fill:#FFFFFF;}
	.st3{opacity:0.44;fill:url(#SVGID_1_);enable-background:new    ;}
	.st4{fill:#F3F5FA;}
	.st5{opacity:0.23;fill:url(#SVGID_00000156581548789427331940000016792591155116844477_);enable-background:new    ;}
	.st6{fill:url(#SVGID_00000148649214044028776340000017927862097337787305_);}
	.st7{opacity:0.41;fill:url(#SVGID_00000113320876301097538470000015451420037150606209_);enable-background:new    ;}
	.st8{fill:url(#SVGID_00000063604256202605767800000015611580278324232104_);}
	.st9{fill:url(#SVGID_00000101094188760188299440000011745368425081729680_);}
	.st10{opacity:0.46;fill:url(#SVGID_00000108305003025856491990000012474425240079099837_);enable-background:new    ;}
	.st11{fill:url(#SVGID_00000085936777516491680490000017390236286082119574_);}
	.st12{fill:url(#SVGID_00000135657738924426814250000004906059310513217201_);}
	.st13{fill:url(#SVGID_00000013885625800249635720000002992102911145642901_);}
	.st14{opacity:0.53;fill:url(#SVGID_00000041977144947091600740000004219427610881822091_);enable-background:new    ;}
	.st15{fill:#E3E7F5;}
	.st16{fill:url(#SVGID_00000043442877003430572230000005380295424610434222_);}
	.st17{fill:#917CC4;}
	.st18{fill:url(#SVGID_00000067204147683370784540000007637503246588752297_);}
	.st19{fill:#E3EAF2;stroke:#917CC4;stroke-miterlimit:10;}
</style>
<path class="st0" d="M23,12.2c1.9-0.6,2.9-2.7,2.3-4.6s-2.6-2.9-4.5-2.3C18.9,6,17.9,8,18.5,9.9S21.1,12.8,23,12.2L23,12.2z"/>
<path class="st0" d="M241.6,50.5c3.3-3,3.5-8.1,0.5-11.4c-3-3.3-8.1-3.5-11.3-0.6l0,0c-3.3,3-3.5,8.1-0.5,11.4
	C233.2,53.2,238.3,53.5,241.6,50.5L241.6,50.5z"/>
<path class="st0" d="M249.9,15.7c1.4-1.3,1.5-3.4,0.2-4.8c-1.2-1.4-3.4-1.5-4.8-0.3l0,0c-1.4,1.3-1.5,3.4-0.2,4.8
	C246.3,16.9,248.5,17,249.9,15.7L249.9,15.7z"/>
<path class="st0" d="M12.1,232.2c1.4-1.3,1.5-3.4,0.2-4.8c-1.2-1.4-3.4-1.5-4.8-0.3l0,0c-1.4,1.3-1.5,3.4-0.2,4.8
	S10.7,233.4,12.1,232.2L12.1,232.2z"/>
<path class="st0" d="M120,244c65.7,0,119-53.6,119-119.7S185.7,4.6,120,4.6S1,58.1,1,124.2C1,190.4,54.3,244,120,244L120,244z"/>
<g>
	<path class="st0" d="M8.3,44.3c3.3-1.1,5.1-4.6,4-7.9s-4.6-5.1-7.9-4c-3.3,1.1-5.1,4.6-4,7.9C1.4,43.6,5,45.4,8.3,44.3z"/>
	<path class="st0" d="M215.1,19.8c1.3-1.2,1.4-3.3,0.2-4.6l0,0c-1.2-1.3-3.3-1.4-4.6-0.2s-1.4,3.3-0.2,4.6l0,0
		C211.6,21,213.7,21.1,215.1,19.8z"/>
	<path class="st0" d="M228.5,215.5c0.9-0.8,1-2.2,0.2-3.1l0,0c-0.8-0.9-2.2-1-3.1-0.1c-0.9,0.8-1,2.2-0.2,3.1l0,0
		C226.2,216.2,227.6,216.3,228.5,215.5z"/>
	<path class="st1" d="M120.5,46.1l19.7-41"/>
	<g>
		<path class="st2" d="M196.7,32.1v194.2c0,5.6-4.6,10.1-10.1,10.1H53.9c-5.6,0-10.1-4.5-10.1-10.1V32.1c0-5.6,4.6-10.1,10.1-10.1
			h132.6C192.1,22,196.6,26.5,196.7,32.1z"/>
	</g>
	<path class="st0" d="M53.2,112h-4.8v4.8h4.8V112z"/>
	<path class="st0" d="M53.2,102.5h-4.8v4.8h4.8V102.5z"/>
	<path class="st0" d="M53.2,92.9h-4.8v4.8h4.8V92.9z"/>
	
		<linearGradient id="SVGID_1_" gradientUnits="userSpaceOnUse" x1="-272.4624" y1="118.0952" x2="-271.4524" y2="118.0952" gradientTransform="matrix(4.809 0 0 4.779 1358.661 -478.3769)">
		<stop  offset="0" style="stop-color:#917CC4"/>
		<stop  offset="1" style="stop-color:#917CC4"/>
	</linearGradient>
	<path class="st3" d="M53.2,83.6h-4.8v4.8h4.8V83.6z"/>
	<path class="st4" d="M53.2,64.5h-4.8v4.8h4.8V64.5z"/>
	<path class="st0" d="M63,121.4h-4.8v4.8H63V121.4z"/>
	<path class="st0" d="M63,112h-4.8v4.8H63V112z"/>
	<path class="st0" d="M63,83.6h-4.8v4.8H63V83.6z"/>
	
		<linearGradient id="SVGID_00000072975513872984256260000007248918898362016401_" gradientUnits="userSpaceOnUse" x1="-272.4554" y1="118.091" x2="-271.4454" y2="118.091" gradientTransform="matrix(4.809 0 0 4.779 1368.531 -516.3569)">
		<stop  offset="0" style="stop-color:#917CC4"/>
		<stop  offset="1" style="stop-color:#917CC4"/>
	</linearGradient>
	<path style="opacity:0.23;fill:url(#SVGID_00000072975513872984256260000007248918898362016401_);enable-background:new    ;" d="
		M63,45.6h-4.8v4.8H63V45.6z"/>
	<path class="st0" d="M72.9,121.4h-4.8v4.8h4.8V121.4z"/>
	<path class="st0" d="M72.9,102.5h-4.8v4.8h4.8V102.5z"/>
	<path class="st0" d="M72.9,92.9h-4.8v4.8h4.8V92.9z"/>
	
		<linearGradient id="SVGID_00000033335746269909186070000004752926380757124495_" gradientUnits="userSpaceOnUse" x1="-272.4494" y1="118.0952" x2="-271.4394" y2="118.0952" gradientTransform="matrix(4.809 0 0 4.779 1378.403 -478.3769)">
		<stop  offset="0" style="stop-color:#F8CD9A"/>
		<stop  offset="1" style="stop-color:#F8CD9A"/>
	</linearGradient>
	<path style="fill:url(#SVGID_00000033335746269909186070000004752926380757124495_);" d="M72.9,83.6h-4.8v4.8h4.8V83.6z"/>
	<path class="st4" d="M72.9,74.1h-4.8v4.8h4.8V74.1z"/>
	<path class="st0" d="M72.9,64.5h-4.8v4.8h4.8V64.5z"/>
	<path class="st0" d="M72.9,45.6h-4.8v4.8h4.8V45.6z"/>
	<path class="st4" d="M72.9,36.1h-4.8v4.8h4.8V36.1z"/>
	<path class="st0" d="M82.8,112H78v4.8h4.8V112z"/>
	<path class="st0" d="M82.8,102.5H78v4.8h4.8V102.5z"/>
	<path class="st4" d="M82.8,74.1H78v4.8h4.8V74.1z"/>
	<path class="st0" d="M82.8,55.2H78V60h4.8V55.2z"/>
	<path class="st0" d="M92.9,121.4h-4.8v4.8h4.8V121.4z"/>
	<path class="st0" d="M92.9,112h-4.8v4.8h4.8V112z"/>
	<path class="st0" d="M92.9,83.6h-4.8v4.8h4.8V83.6z"/>
	
		<linearGradient id="SVGID_00000037673391564933766580000011925248133896017330_" gradientUnits="userSpaceOnUse" x1="-272.4894" y1="118.1071" x2="-271.4794" y2="118.1071" gradientTransform="matrix(4.809 0 0 4.779 1398.396 -487.9341)">
		<stop  offset="0" style="stop-color:#917CC4"/>
		<stop  offset="1" style="stop-color:#917CC4"/>
	</linearGradient>
	<path style="opacity:0.41;fill:url(#SVGID_00000037673391564933766580000011925248133896017330_);enable-background:new    ;" d="
		M92.9,74.1h-4.8v4.8h4.8V74.1z"/>
	<path class="st4" d="M92.9,64.5h-4.8v4.8h4.8V64.5z"/>
	<path class="st0" d="M102.8,121.4H98v4.8h4.8V121.4z"/>
	<path class="st0" d="M102.8,112H98v4.8h4.8V112z"/>
	<path class="st0" d="M102.8,102.5H98v4.8h4.8V102.5z"/>
	<path class="st0" d="M102.8,92.9H98v4.8h4.8V92.9z"/>
	<path class="st0" d="M102.8,83.6H98v4.8h4.8V83.6z"/>
	<path class="st0" d="M102.8,74.1H98v4.8h4.8V74.1z"/>
	<path class="st0" d="M102.8,45.6H98v4.8h4.8V45.6z"/>
	<path class="st0" d="M112.7,121.4h-4.8v4.8h4.8V121.4z"/>
	<path class="st0" d="M112.7,112h-4.8v4.8h4.8V112z"/>
	<path class="st0" d="M112.7,102.5h-4.8v4.8h4.8V102.5z"/>
	<path class="st0" d="M112.7,83.6h-4.8v4.8h4.8V83.6z"/>
	<path class="st4" d="M112.7,74.1h-4.8v4.8h4.8V74.1z"/>
	
		<linearGradient id="SVGID_00000008865580346559127660000010053422292923705757_" gradientUnits="userSpaceOnUse" x1="-272.4699" y1="118.1103" x2="-271.46" y2="118.1103" gradientTransform="matrix(4.809 0 0 4.779 1428.0079 -440.6489)">
		<stop  offset="0" style="stop-color:#F8CD9A"/>
		<stop  offset="1" style="stop-color:#F8CD9A"/>
	</linearGradient>
	<path style="fill:url(#SVGID_00000008865580346559127660000010053422292923705757_);" d="M122.5,121.4h-4.8v4.8h4.8V121.4z"/>
	<path class="st0" d="M122.5,112h-4.8v4.8h4.8V112z"/>
	<path class="st0" d="M122.5,102.5h-4.8v4.8h4.8V102.5z"/>
	<path class="st4" d="M122.5,92.9h-4.8v4.8h4.8V92.9z"/>
	<path class="st0" d="M122.5,83.6h-4.8v4.8h4.8V83.6z"/>
	<path class="st0" d="M122.5,64.5h-4.8v4.8h4.8V64.5z"/>
	<path class="st0" d="M132.4,121.4h-4.8v4.8h4.8V121.4z"/>
	<path class="st0" d="M132.4,112h-4.8v4.8h4.8V112z"/>
	
		<linearGradient id="SVGID_00000075143198444897634920000004677029679970193851_" gradientUnits="userSpaceOnUse" x1="-272.4641" y1="118.1027" x2="-271.4541" y2="118.1027" gradientTransform="matrix(4.809 0 0 4.779 1437.88 -459.5129)">
		<stop  offset="0" style="stop-color:#FF66A9"/>
		<stop  offset="1" style="stop-color:#F53689"/>
	</linearGradient>
	<path style="fill:url(#SVGID_00000075143198444897634920000004677029679970193851_);" d="M132.4,102.5h-4.8v4.8h4.8V102.5z"/>
	<path class="st0" d="M132.4,92.9h-4.8v4.8h4.8V92.9z"/>
	<path class="st0" d="M132.4,83.6h-4.8v4.8h4.8V83.6z"/>
	<path class="st0" d="M132.4,74.1h-4.8v4.8h4.8V74.1z"/>
	<path class="st0" d="M142.3,121.4h-4.8v4.8h4.8V121.4z"/>
	<path class="st0" d="M142.3,112h-4.8v4.8h4.8V112z"/>
	<path class="st0" d="M142.3,102.5h-4.8v4.8h4.8V102.5z"/>
	<path class="st4" d="M142.3,83.6h-4.8v4.8h4.8V83.6z"/>
	<path class="st0" d="M142.3,64.5h-4.8v4.8h4.8V64.5z"/>
	<path class="st4" d="M142.3,36.1h-4.8v4.8h4.8V36.1z"/>
	<path class="st0" d="M152.1,112h-4.8v4.8h4.8V112z"/>
	<path class="st4" d="M152.1,102.5h-4.8v4.8h4.8V102.5z"/>
	<path class="st0" d="M152.1,92.9h-4.8v4.8h4.8V92.9z"/>
	<path class="st0" d="M152.1,55.2h-4.8V60h4.8V55.2z"/>
	<path class="st0" d="M162,121.4h-4.8v4.8h4.8V121.4z"/>
	<path class="st0" d="M162,102.5h-4.8v4.8h4.8V102.5z"/>
	
		<linearGradient id="SVGID_00000101065289996740171640000005009634002192965785_" gradientUnits="userSpaceOnUse" x1="-272.4454" y1="118.0938" x2="-271.4354" y2="118.0938" gradientTransform="matrix(4.809 0 0 4.779 1467.491 -469.07)">
		<stop  offset="0" style="stop-color:#917CC4"/>
		<stop  offset="1" style="stop-color:#917CC4"/>
	</linearGradient>
	<path style="opacity:0.46;fill:url(#SVGID_00000101065289996740171640000005009634002192965785_);enable-background:new    ;" d="
		M162,92.9h-4.8v4.8h4.8V92.9z"/>
	<path class="st0" d="M162,83.6h-4.8v4.8h4.8V83.6z"/>
	<path class="st4" d="M162,74.1h-4.8v4.8h4.8V74.1z"/>
	
		<linearGradient id="SVGID_00000098204054248340085400000007809368735402600849_" gradientUnits="userSpaceOnUse" x1="-272.4454" y1="118.0985" x2="-271.4354" y2="118.0985" gradientTransform="matrix(4.809 0 0 4.779 1467.491 -497.4929)">
		<stop  offset="0" style="stop-color:#F8CD9A"/>
		<stop  offset="1" style="stop-color:#F8CD9A"/>
	</linearGradient>
	<path style="fill:url(#SVGID_00000098204054248340085400000007809368735402600849_);" d="M162,64.5h-4.8v4.8h4.8V64.5z"/>
	<path class="st0" d="M172.1,121.4h-4.8v4.8h4.8V121.4z"/>
	<path class="st4" d="M172.1,92.9h-4.8v4.8h4.8V92.9z"/>
	<path class="st0" d="M172.1,74.1h-4.8v4.8h4.8V74.1z"/>
	<path class="st0" d="M182,121.4h-4.8v4.8h4.8V121.4z"/>
	<path class="st0" d="M182,112h-4.8v4.8h4.8V112z"/>
	<path class="st0" d="M182,102.5h-4.8v4.8h4.8V102.5z"/>
	<path class="st0" d="M182,92.9h-4.8v4.8h4.8V92.9z"/>
	<path class="st4" d="M182,83.6h-4.8v4.8h4.8V83.6z"/>
	<path class="st0" d="M182,55.2h-4.8V60h4.8V55.2z"/>
	<path class="st0" d="M191.9,121.4h-4.8v4.8h4.8V121.4z"/>
	<path class="st0" d="M191.9,102.5h-4.8v4.8h4.8V102.5z"/>
	<path class="st4" d="M191.9,92.9h-4.8v4.8h4.8V92.9z"/>
	<path class="st0" d="M187,154.7h4.8V150H187V154.7z"/>
	<path class="st0" d="M187,145.1h4.8v-4.8H187V145.1z"/>
	<path class="st0" d="M187,135.7h4.8V131H187V135.7z"/>
	<path class="st0" d="M177,164.1h4.8v-4.8H177V164.1z"/>
	<path class="st0" d="M177,154.7h4.8V150H177V154.7z"/>
	<path class="st0" d="M177,135.7h4.8V131H177V135.7z"/>
	<path class="st0" d="M167.1,164.1h4.8v-4.8h-4.8V164.1z"/>
	<path class="st0" d="M167.1,154.7h4.8V150h-4.8V154.7z"/>
	<path class="st0" d="M167.1,145.1h4.8v-4.8h-4.8V145.1z"/>
	<path class="st0" d="M167.1,135.7h4.8V131h-4.8V135.7z"/>
	<path class="st0" d="M157.4,164.1h4.8v-4.8h-4.8V164.1z"/>
	<path class="st0" d="M157.4,154.7h4.8V150h-4.8V154.7z"/>
	<path class="st0" d="M157.4,145.1h4.8v-4.8h-4.8V145.1z"/>
	<path class="st0" d="M157.4,135.7h4.8V131h-4.8V135.7z"/>
	<path class="st0" d="M147.5,164.1h4.8v-4.8h-4.8V164.1z"/>
	<path class="st0" d="M147.5,154.7h4.8V150h-4.8V154.7z"/>
	<path class="st0" d="M147.5,145.1h4.8v-4.8h-4.8V145.1z"/>
	<path class="st0" d="M137.6,164.1h4.8v-4.8h-4.8V164.1z"/>
	<path class="st0" d="M137.6,154.7h4.8V150h-4.8V154.7z"/>
	<path class="st0" d="M137.6,145.1h4.8v-4.8h-4.8V145.1z"/>
	<path class="st0" d="M137.6,135.7h4.8V131h-4.8V135.7z"/>
	<path class="st0" d="M127.6,164.1h4.8v-4.8h-4.8C127.6,159.3,127.6,164.1,127.6,164.1z"/>
	<path class="st0" d="M127.6,154.7h4.8V150h-4.8C127.6,150,127.6,154.7,127.6,154.7z"/>
	<path class="st0" d="M127.6,145.1h4.8v-4.8h-4.8C127.6,140.3,127.6,145.1,127.6,145.1z"/>
	
		<linearGradient id="SVGID_00000127753001739056783880000006190071396754958992_" gradientUnits="userSpaceOnUse" x1="-271.4624" y1="118.0445" x2="-272.4724" y2="118.0445" gradientTransform="matrix(4.809 0 0 4.781 1428.0079 -402.671)">
		<stop  offset="0" style="stop-color:#F8CD9A"/>
		<stop  offset="1" style="stop-color:#F8CD9A"/>
	</linearGradient>
	<path style="fill:url(#SVGID_00000127753001739056783880000006190071396754958992_);" d="M117.7,164.1h4.8v-4.8h-4.8V164.1z"/>
	<path class="st0" d="M117.7,154.7h4.8V150h-4.8V154.7z"/>
	<path class="st0" d="M117.7,145.1h4.8v-4.8h-4.8V145.1z"/>
	<path class="st4" d="M117.7,135.7h4.8V131h-4.8V135.7z"/>
	<path class="st0" d="M107.8,164.1h4.8v-4.8h-4.8V164.1z"/>
	<path class="st0" d="M107.8,154.7h4.8V150h-4.8V154.7z"/>
	
		<linearGradient id="SVGID_00000092448315631454993160000003836651049886877069_" gradientUnits="userSpaceOnUse" x1="-271.4674" y1="118.037" x2="-272.4784" y2="118.037" gradientTransform="matrix(4.809 0 0 4.781 1418.1379 -421.535)">
		<stop  offset="0" style="stop-color:#FF66A9"/>
		<stop  offset="1" style="stop-color:#F53689"/>
	</linearGradient>
	<path style="fill:url(#SVGID_00000092448315631454993160000003836651049886877069_);" d="M107.8,145.2h4.8v-4.8h-4.8V145.2z"/>
	<path class="st0" d="M107.8,135.7h4.8V131h-4.8V135.7z"/>
	<path class="st0" d="M97.8,164.1h4.8v-4.8h-4.8V164.1z"/>
	<path class="st0" d="M97.8,154.7h4.8V150h-4.8V154.7z"/>
	<path class="st0" d="M97.8,145.1h4.8v-4.8h-4.8V145.1z"/>
	<path class="st0" d="M87.9,154.7h4.8V150h-4.8V154.7z"/>
	<path class="st4" d="M87.9,145.1h4.8v-4.8h-4.8V145.1z"/>
	<path class="st0" d="M87.9,135.7h4.8V131h-4.8V135.7z"/>
	<path class="st0" d="M78.2,164.1H83v-4.8h-4.8V164.1z"/>
	<path class="st0" d="M78.2,145.1H83v-4.8h-4.8V145.1z"/>
	
		<linearGradient id="SVGID_00000096763567167069709560000011554794629625632935_" gradientUnits="userSpaceOnUse" x1="-275.0482" y1="118.0984" x2="-276.0082" y2="118.0984" gradientTransform="matrix(5.061 0 0 4.779 1474.9609 -431.092)">
		<stop  offset="0" style="stop-color:#917CC4"/>
		<stop  offset="1" style="stop-color:#917CC4"/>
	</linearGradient>
	<path style="opacity:0.53;fill:url(#SVGID_00000096763567167069709560000011554794629625632935_);enable-background:new    ;" d="
		M78,135.7h5v-4.8h-5V135.7z"/>
	<path class="st0" d="M68.3,164.1h4.8v-4.8h-4.8V164.1z"/>
	<path class="st4" d="M68.3,135.7h4.8V131h-4.8V135.7z"/>
	<path class="st0" d="M58.4,164.1h4.8v-4.8h-4.8V164.1z"/>
	<path class="st0" d="M58.4,154.7h4.8V150h-4.8V154.7z"/>
	<path class="st0" d="M58.4,145.1h4.8v-4.8h-4.8V145.1z"/>
	<path class="st0" d="M48.4,164.1h4.8v-4.8h-4.8V164.1z"/>
	<path class="st0" d="M48.4,145.1h4.8v-4.8h-4.8V145.1z"/>
	<path class="st4" d="M48.4,135.7h4.8V131h-4.8V135.7z"/>
	<path class="st0" d="M120.2,56c5.8,0,10.5-4.8,10.5-10.6s-4.8-10.5-10.6-10.5c-5.8,0-10.5,4.8-10.5,10.6
		C109.6,51.2,114.4,56,120.2,56z"/>
	<path class="st1" d="M120,46.1l-20-41"/>
	<path class="st0" d="M165.8,156.1c-0.9,1-1.8,1.9-2.8,2.8c-11.8,10.9-27.4,17-43.5,16.9c-13,0.1-25.8-3.9-36.4-11.3
		c-3-2.1-5.8-4.4-8.4-7c1.3-1.8,3.8-3,8.9-5l2-0.8c3.8-1.5,9.1-3.5,15.9-6.3c1-0.4,1.9-1.1,2.5-2c0.3-0.5,0.8-1,0.8-1.5
		c0.4-0.9,0.6-1.8,0.5-2.8v-12.8c-0.3-0.3-0.3-0.5-0.5-0.8c-1-1.7-1.7-3.6-2-5.5l-1-0.5c-3.3,0.8-3-2.8-3.8-9.6
		c-0.3-2.8,0-3.3,1.3-3.8l1-1.5c-2.5-5.5-3.5-10.1-3.5-14.1c0-6.3,2.8-10.6,6.6-12.6c-0.9-1.8-1.6-3.8-2-5.8c0,0,13.4,2.3,18,1.3
		c5.8-1.3,14.9,0.3,18.2,8c0.8,0.3,1.3,0.5,2,0.8c4.3,2.3,5.8,5.3,6.3,8.6c0.8,6-2.5,12.6-3.3,15.3c0,0.1,0.1,0.2,0.2,0.3l0,0
		c1,0.5,1.3,1.3,0.8,3.8c-0.8,6.5-0.5,10.3-3.8,9.6l-3,5c0,0.5-0.3,0.8-0.3,1.3v14.3c0.1,0.9,0.4,1.8,1,2.5l0.8,0.8
		c0.7,0.7,1.6,1.3,2.5,1.8c7.6,3.3,13.2,5.3,17.2,6.8C160.7,153.2,163.3,154.5,165.8,156.1z"/>
	<path class="st15" d="M143.8,110c-0.8,6.5-0.5,10.3-3.8,9.6l-3,5c0,0.5-0.3,0.8-0.3,1.3v14.3H122V82.1h17.7
		c4.3,2.3,5.8,5.3,6.3,8.6c0.8,6-2.5,12.6-3.3,15.3c0,0.1,0.1,0.2,0.2,0.3l0,0C143.8,106.8,144,107.5,143.8,110z"/>
	<path class="st2" d="M171.9,174.9c-11.4,10.6-35.4,1-52.4,1c-13.4,0-41.5,10.6-51.9,3.5c-2-1.5,0.5-7.3,1.3-9.1
		c1.2-3.5,2.6-7,4.3-10.3c3.8-7.3,21.3-10.8,28.3-14.6c1-0.5,1.8-1.2,2.5-2c6.8,9.4,20,11.5,29.4,4.7c1.7-1.2,3.3-2.8,4.5-4.5
		c0.7,0.7,1.6,1.3,2.5,1.8c0.3,0,0.5,0.3,0.8,0.3c23.5,9.6,25.1,8.3,28.1,17.1C169.9,164.4,172.9,173.9,171.9,174.9z"/>
	
		<linearGradient id="SVGID_00000142857793258776945060000001467327085756450945_" gradientUnits="userSpaceOnUse" x1="-340.7315" y1="15.9475" x2="-339.7325" y2="15.9475" gradientTransform="matrix(105.2497 0 0 36.3771 35928.7305 -416.4997)">
		<stop  offset="0" style="stop-color:#F8CD9A"/>
		<stop  offset="1" style="stop-color:#F8CD9A"/>
	</linearGradient>
	<path style="fill:url(#SVGID_00000142857793258776945060000001467327085756450945_);" d="M171.9,174.9c-11.4,10.6-35.4,1-52.4,1
		c-13.4,0-41.5,10.6-51.9,3.5c-2-1.5,0.5-7.3,1.3-9.1c1.2-3.5,2.6-7,4.3-10.3c3.8-7.3,21.3-10.8,28.3-14.6h0.3
		c7.9,10.9,23.2,13.3,34.1,5.4c2-1.4,3.7-3.2,5.2-5.1h0.3c23.5,9.6,25.1,8.3,28.1,17.1C169.9,164.4,172.9,173.9,171.9,174.9z"/>
	<path class="st17" d="M142.5,106c0.3-1.5-0.5-3.5-1-5c0-0.3-0.3-0.5-0.3-0.8c-2.5-5-8.4-7.3-13.7-7.5c-13.9-0.8-15.2,2-19.7-2
		c1.3,2,1.5,5.3-0.5,9.3c-1.5,2.8-4.3,4-6.8,4.8c-6.3-14.3-3.3-23.4,3-26.7c-1-1.9-1.8-3.9-2.3-6c0,0,13.4,2.3,18,1.3
		c5.8-1.3,14.9,0.3,18.2,8c5.6,2.3,7.8,5.8,8.4,9.6C146.8,97,143.3,103.5,142.5,106z"/>
	
		<linearGradient id="SVGID_00000002384347422333114790000002157918221247315342_" gradientUnits="userSpaceOnUse" x1="-332.6243" y1="37.0765" x2="-332.6243" y2="36.5025" gradientTransform="matrix(31.637 0 0 15.594 10644.1855 -436.8763)">
		<stop  offset="0" style="stop-color:#EAEEF9"/>
		<stop  offset="0.991" style="stop-color:#CED5E6"/>
	</linearGradient>
	<path style="fill:url(#SVGID_00000002384347422333114790000002157918221247315342_);" d="M105.6,139.5v-12.8
		c-0.3-0.3-0.5-0.5-0.5-0.8v-0.8c0.7,1.2,1.6,2.3,2.8,3l10.1,7c2.3,2,5.8,2,8.1,0l9.4-8.6c0.3-0.2,0.8-0.5,1-1V139
		c-0.1,0.6,0,1.2,0.3,1.8h-31.4C105.6,140.7,105.6,140,105.6,139.5z"/>
	<path class="st2" d="M196.7,164.6v61.6c0,5.6-4.6,10.1-10.1,10.1H53.9c-5.6,0-10.1-4.5-10.1-10.1v-61.6H196.7z"/>
	<path class="st17" d="M140,188.3h-39.5c-1.9,0.1-3.5-1.4-3.5-3.4c0-0.1,0-0.1,0-0.2c0-1.9,1.5-3.5,3.4-3.5c0.1,0,0.1,0,0.2,0H140
		c1.9-0.1,3.5,1.4,3.5,3.4c0,0.1,0,0.1,0,0.2c0,1.9-1.5,3.5-3.4,3.5H140z"/>
	<path class="st19" d="M156.2,203.9H84.6c-1.9,0.1-3.5-1.4-3.5-3.4c0-0.1,0-0.1,0-0.2c0-1.9,1.5-3.5,3.4-3.5c0.1,0,0.1,0,0.2,0h71.6
		c1.9-0.1,3.5,1.4,3.5,3.4c0,0.1,0,0.1,0,0.2C159.7,202.3,158.1,203.8,156.2,203.9z"/>
	<path class="st19" d="M134.4,219.7h-28.1c-1.2,0-2.3-1-2.3-2.2l0,0V215c0-1.2,1-2.3,2.3-2.3l0,0h28.1c1.2,0,2.3,1,2.3,2.2l0,0v2.5
		C136.7,218.7,135.7,219.7,134.4,219.7L134.4,219.7z"/>
</g>
</svg>
