<?xml version="1.0" encoding="utf-8"?>
<!-- Generator: Adobe Illustrator 27.0.1, SVG Export Plug-In . SVG Version: 6.00 Build 0)  -->
<svg version="1.1" id="Layer_1" xmlns="http://www.w3.org/2000/svg" xmlns:xlink="http://www.w3.org/1999/xlink" x="0px" y="0px"
	 viewBox="0 0 273.6 242.2" style="enable-background:new 0 0 273.6 242.2;" xml:space="preserve">
<style type="text/css">
	.st0{fill:#EAEEF9;}
	.st1{filter:url(#ln1nhuebuc);}
	.st2{fill:#968CC4;}
	.st3{fill:#7C5FC4;}
	.st4{fill:#FFFFFF;}
	.st5{fill:#E7EBF2;stroke:#F8CD9A;stroke-miterlimit:10;}
	.st6{fill:#F8CD9A;}
	.st7{opacity:0.67;fill:url(#SVGID_1_);enable-background:new    ;}
	.st8{fill:#917CC4;}
	.st9{fill:url(#SVGID_00000046321326970246850720000005929238775076736435_);}
	.st10{fill:url(#SVGID_00000052814052638488825210000011217967174447632298_);}
	.st11{stroke:#917CC4;stroke-width:0.5;stroke-miterlimit:10;}
	.st12{fill:url(#SVGID_00000066475602804724996720000017095094454308106680_);}
	.st13{fill:url(#SVGID_00000017478533294282573040000003588732469800024203_);}
	.st14{fill:url(#SVGID_00000181793801669969101910000000867243773533940131_);}
	.st15{opacity:0.3;fill:#968CC4;enable-background:new    ;}
</style>
<filter  filterUnits="userSpaceOnUse" height="241.473" id="ln1nhuebuc" width="247.184" x="18.71" y="0">
	<feOffset  dy="5"></feOffset>
	<feGaussianBlur  result="blur" stdDeviation="4"></feGaussianBlur>
	<feFlood  flood-color="#1d4bff" flood-opacity=".22"></feFlood>
	<feComposite  in2="blur" operator="in"></feComposite>
	<feComposite  in="SourceGraphic" operator="over"></feComposite>
</filter>
<path class="st0" d="M34.1,27.8c2.8-0.9,4.3-3.9,3.4-6.7c-0.9-2.8-3.9-4.3-6.7-3.4s-4.3,3.9-3.4,6.7C28.3,27.2,31.3,28.7,34.1,27.8
	C34.1,27.8,34.1,27.8,34.1,27.8z"/>
<path class="st0" d="M45.6,10.4c1.9-0.6,2.9-2.7,2.3-4.6C47.3,4,45.3,3,43.4,3.6c-1.9,0.6-2.9,2.7-2.3,4.6
	C41.7,10,43.7,11.1,45.6,10.4C45.6,10.4,45.6,10.4,45.6,10.4z"/>
<path class="st0" d="M246.8,28.7c3.3-3,3.5-8.1,0.5-11.4c-3-3.3-8.1-3.5-11.3-0.6c0,0,0,0,0,0c-3.3,3-3.5,8.1-0.5,11.4
	C238.4,31.5,243.5,31.7,246.8,28.7C246.8,28.7,246.8,28.7,246.8,28.7z"/>
<path class="st0" d="M272.5,14c1.4-1.3,1.5-3.4,0.2-4.8c-1.2-1.4-3.4-1.5-4.8-0.3c0,0,0,0,0,0c-1.4,1.3-1.5,3.4-0.2,4.8
	C268.9,15.1,271.1,15.2,272.5,14C272.5,14,272.5,14,272.5,14z"/>
<path class="st0" d="M34.7,230.4c1.4-1.3,1.5-3.4,0.2-4.8c-1.2-1.4-3.4-1.5-4.8-0.3c0,0,0,0,0,0c-1.4,1.3-1.5,3.4-0.2,4.8
	C31.2,231.6,33.3,231.7,34.7,230.4C34.7,230.4,34.7,230.4,34.7,230.4z"/>
<path class="st0" d="M142.6,242.2c65.7,0,119-53.6,119-119.7c0-66.1-53.3-119.7-119-119.7s-119,53.6-119,119.7
	C23.6,188.6,76.9,242.2,142.6,242.2L142.6,242.2z"/>
<g>
	<g class="st1">
		<path class="st2" d="M253.9,91.5v111.7c-0.3,6.1-3.1,11.8-7.7,15.7c-4.1,3.6-9.3,5.6-14.8,5.6H53c-3.8,0-7.5-0.9-10.8-2.8
			c-1.5-0.7-2.8-1.7-4-2.8c-2.7-2.1-4.7-5-5.9-8.2c-1-2.3-1.6-4.7-1.6-7.2v-112c0,0,9.4-8,22.7-18.9c13.8-11.7,32.1-26.7,48.1-40
			c9.1-7.7,8.2-6.8,22.3-18.7c10.8-9.1,26.5-9.1,37.3,0c2.8,2.3,5.6,4.9,8.4,7.2c5.9,4.7,12.4,10.3,19.2,15.9
			c14.3,11.9,30,25,42.4,35.3C243.8,82.8,253,90.5,253.9,91.5z"/>
	</g>
	<path class="st3" d="M231.2,72.3V112l-38.9,23.4l-11.7,7l-24.6,14.7l-11.7,7l-4.9,3l-4.7-3l-11-7l-23.4-14.7l-11-7L53,112.7V72.5
		c13.8-11.7,32.1-26.7,48.1-40l87.2,4.4C203.3,48.9,219,62,231.2,72.3z"/>
	<path class="st4" d="M223.4,40.7v69.7l-35.6,21.3l-10.5,6.3l-22.5,13.3l-10.5,6.3l-4.5,2.6l-4.2-2.6l-10.1-6.3L104.1,138L94,131.7
		l-32.8-20.6V40.7c0-7.4,6-13.3,13.4-13.3c0,0,0,0,0,0h135.5C217.4,27.5,223.3,33.4,223.4,40.7z"/>
	<path class="st5" d="M194.3,79.1H94.2c-1.7-0.1-3.1-1.5-3-3.3c0,0,0,0,0,0c-0.1-1.7,1.3-3.2,3-3.3c0,0,0,0,0,0h100.1
		c1.7,0.1,3.1,1.5,3.1,3.3c0,0,0,0,0,0C197.5,77.5,196.1,79,194.3,79.1C194.4,79.1,194.4,79.1,194.3,79.1z"/>
	<path class="st5" d="M194.3,98.7H94.2c-1.7-0.1-3.1-1.5-3-3.3c0,0,0,0,0,0c-0.1-1.7,1.3-3.2,3-3.3c0,0,0,0,0,0h100.1
		c1.7,0.1,3.1,1.5,3.1,3.3c0,0,0,0,0,0C197.5,97.2,196.1,98.6,194.3,98.7C194.4,98.7,194.4,98.7,194.3,98.7z"/>
	<path class="st5" d="M194.3,118.3H94.2c-1.7-0.1-3.1-1.5-3-3.3c0,0,0,0,0,0c-0.1-1.7,1.3-3.2,3-3.3c0,0,0,0,0,0h100.1
		c1.7,0.1,3.1,1.5,3.1,3.3c0,0,0,0,0,0C197.5,116.8,196.1,118.3,194.3,118.3C194.4,118.3,194.4,118.3,194.3,118.3z"/>
	<path class="st5" d="M187.8,131.7l-10.5,6.3h-73.1L94,131.7H187.8z"/>
	<path class="st5" d="M154.7,151.3l-10.5,6.5h-8.7l-10.1-6.5H154.7z"/>
	<path class="st6" d="M172.8,56.6H116c-1.7-0.1-3.1-1.5-3-3.3c0,0,0,0,0,0c-0.1-1.7,1.3-3.2,3-3.3c0,0,0,0,0,0h56.7
		c1.7,0.1,3.1,1.5,3,3.3c0,0,0,0,0,0C175.9,55.1,174.5,56.6,172.8,56.6C172.8,56.6,172.8,56.6,172.8,56.6z"/>
	
		<linearGradient id="SVGID_1_" gradientUnits="userSpaceOnUse" x1="-158.7747" y1="536.6263" x2="-158.7747" y2="537.8753" gradientTransform="matrix(220.605 0 0 -75.978 35168.4492 40962.6875)">
		<stop  offset="0" style="stop-color:#9D80C4"/>
		<stop  offset="1" style="stop-color:#917CC4;stop-opacity:0"/>
	</linearGradient>
	<path class="st7" d="M31.6,91l107.1,7l113.5-7l-4.2,20.3c0,0-106.7,55.6-106,55.6S31.9,101,31.9,101L31.6,91z"/>
	<path class="st8" d="M253.9,91.5v111.7c-0.3,6.1-3.1,11.8-7.7,15.7c-4.1,3.6-9.3,5.6-14.8,5.6H53c-3.8,0-7.5-0.9-10.8-2.8
		c-1.5-0.7-2.8-1.7-4-2.8c-2.7-2.1-4.7-5-5.9-8.2c-1-2.3-1.6-4.7-1.6-7.2v-112l99.9,62.4l8.7,5.4l3-1.9l2.8-1.6L253.9,91.5z"/>
	
		<linearGradient id="SVGID_00000076605936629801548620000009314010035932989098_" gradientUnits="userSpaceOnUse" x1="-159.2462" y1="539.1346" x2="-158.2372" y2="539.1346" gradientTransform="matrix(215.683 0 0 -133.0225 34379.9883 71874.9688)">
		<stop  offset="0" style="stop-color:#917CC4"/>
		<stop  offset="1" style="stop-color:#917CC4"/>
	</linearGradient>
	<path style="fill:url(#SVGID_00000076605936629801548620000009314010035932989098_);" d="M246.4,218.9c-4.1,3.6-9.3,5.6-14.8,5.6
		H53c-3.8,0-7.5-0.9-10.8-2.8c-1.5-0.7-2.8-1.7-4-2.8c-2.7-2.1-4.7-5-5.9-8.2c-1-2.3-1.6-4.7-1.6-7.2v-112l11.7,7l99.9,59.1l2.8,1.6
		l0.2,0.2l89.6,52.8L246.4,218.9z"/>
	
		<linearGradient id="SVGID_00000144333674016507340750000012084178004864666250_" gradientUnits="userSpaceOnUse" x1="-158.0249" y1="537.02" x2="-158.1019" y2="537.203" gradientTransform="matrix(112.764 0 0 -70.134 17914.5918 37856.4375)">
		<stop  offset="0" style="stop-color:#9D80C4"/>
		<stop  offset="1" style="stop-color:#917CC4;stop-opacity:0"/>
	</linearGradient>
	<path style="fill:url(#SVGID_00000144333674016507340750000012084178004864666250_);" d="M145.1,155.7v7.7L42.2,221.7
		c-1.5-0.7-2.8-1.7-4-2.8c-2.7-2.1-4.7-5-5.9-8.2l100.1-59.1l8.7,5.4l1.2,0.5L145.1,155.7z"/>
	<path class="st11" d="M30.7,91.5l111.6,66.2"/>
	
		<linearGradient id="SVGID_00000166656148867231959260000002156848471170813587_" gradientUnits="userSpaceOnUse" x1="-158.3002" y1="539.1346" x2="-159.2902" y2="539.1346" gradientTransform="matrix(215.681 0 0 -133.0225 34387.1719 71874.9688)">
		<stop  offset="0" style="stop-color:#917CC4"/>
		<stop  offset="1" style="stop-color:#917CC4"/>
	</linearGradient>
	<path style="fill:url(#SVGID_00000166656148867231959260000002156848471170813587_);" d="M253.9,91.5v111.7
		c-0.3,6.1-3.1,11.8-7.7,15.7c-4.1,3.6-9.3,5.6-14.8,5.6H53c-3.8,0-7.5-0.9-10.8-2.8c-1.5-0.7-2.8-1.7-4-2.8l11.5-6.8l89.6-52.8
		l3-1.9l2.8-1.6l97.1-57.5L253.9,91.5z"/>
	<path class="st11" d="M253.9,91.5l-108.8,64.3l-2.8,1.6l-3,1.9l-101,59.6"/>
	
		<linearGradient id="SVGID_00000106128554720988337720000006149445511048566402_" gradientUnits="userSpaceOnUse" x1="-157.5202" y1="483.0581" x2="-156.5182" y2="483.0581" gradientTransform="matrix(64.469 0 0 -5.143 10320.3193 2651.3306)">
		<stop  offset="0" style="stop-color:#917CC4"/>
		<stop  offset="1" style="stop-color:#917CC4"/>
	</linearGradient>
	<path style="fill:url(#SVGID_00000106128554720988337720000006149445511048566402_);" d="M227.2,169.5h-59.3
		c-1.4,0-2.6-1.2-2.6-2.6c0-1.4,1.2-2.6,2.6-2.6h59.3c1.4,0,2.6,1.2,2.6,2.6C229.7,168.4,228.6,169.5,227.2,169.5z"/>
	
		<linearGradient id="SVGID_00000166645424114161685920000000309250869474469554_" gradientUnits="userSpaceOnUse" x1="-157.5202" y1="483.0581" x2="-156.5182" y2="483.0581" gradientTransform="matrix(64.469 0 0 -5.143 10320.3193 2668.3975)">
		<stop  offset="0" style="stop-color:#917CC4"/>
		<stop  offset="1" style="stop-color:#917CC4"/>
	</linearGradient>
	<path style="fill:url(#SVGID_00000166645424114161685920000000309250869474469554_);" d="M227.2,186.6h-59.3
		c-1.4,0-2.6-1.2-2.6-2.6c0-1.4,1.2-2.6,2.6-2.6h59.3c1.4,0,2.6,1.2,2.6,2.6C229.7,185.4,228.6,186.6,227.2,186.6z"/>
	<path class="st0" d="M4,63.4c2.2,0,4-1.8,4-4c0-2.2-1.8-4-4-4c-2.2,0-4,1.8-4,4C0,61.6,1.8,63.4,4,63.4C4,63.4,4,63.4,4,63.4z"/>
	<path class="st0" d="M254.4,43.3c2.1,0,3.7-1.7,3.7-3.7c0-2.1-1.7-3.7-3.7-3.7c-2.1,0-3.7,1.7-3.7,3.7
		C250.6,41.6,252.3,43.3,254.4,43.3C254.4,43.3,254.4,43.3,254.4,43.3z"/>
	<path class="st0" d="M269.4,165.1c2.1,0,3.7-1.7,3.7-3.7s-1.7-3.7-3.7-3.7c-2.1,0-3.7,1.7-3.7,3.7
		C265.6,163.4,267.3,165.1,269.4,165.1C269.4,165.1,269.4,165.1,269.4,165.1z"/>
	<path class="st15" d="M184,224.5l24.6-11.7h21.6l-24.6,11.7H184z M128,224.5l24.6-11.7h26.7l-24.6,11.7H128z M72.2,224.5l24.6-11.7
		h26.7l-24.6,11.7H72.2z M239.4,222.1l7.5-3.5c-0.2,0.2-0.2,0.5-0.5,0.5h-0.2c-3,2.5-6.5,4.1-10.3,4.9L239.4,222.1z M42.2,222.1
		c-1.4-0.8-2.8-1.7-4-2.8c-0.7-0.7-1.2-1.2-1.9-1.9l11.3-5.8h0.2c0.7,0.2,1.2,0.5,1.9,0.7c1.1,0.3,2.2,0.4,3.3,0.5v0.2h14.3
		l-21.8,10.5C44.3,223.3,43.2,222.8,42.2,222.1L42.2,222.1z M240.5,207.6c0.9-1.5,1.5-3.2,1.6-4.9v-14.5l11.7-5.8v18.9l-13.8,7
		C240.3,208.1,240.3,207.9,240.5,207.6L240.5,207.6z M30.7,203.4v-15.9l11.7-6.1v18.9l-11.3,5.8C30.9,205.3,30.8,204.4,30.7,203.4z
		 M242.2,156l11.7-5.8v18.9l-11.7,5.8V156z M30.7,155l11.7-5.8v18.9L30.7,174V155z M242.2,123.5l11.7-5.8v18.9l-11.7,5.8V123.5z
		 M30.7,122.5l11.7-5.8v18.9l-11.7,5.8V122.5z M242.2,98.2l11.7-6.8v12.6l-11.7,5.8V98.2z M30.7,91.5l11.7,7v4.9l-11.7,5.8V91.5z"/>
	<path class="st2" d="M239.4,222.1l7.3-3.7c-0.2,0.2-0.2,0.2-0.5,0.5h-0.2L239.4,222.1z"/>
</g>
</svg>
