<?xml version="1.0" encoding="utf-8"?>
<!-- Generator: Adobe Illustrator 27.0.1, SVG Export Plug-In . SVG Version: 6.00 Build 0)  -->
<svg version="1.1" id="Layer_1" xmlns="http://www.w3.org/2000/svg" xmlns:xlink="http://www.w3.org/1999/xlink" x="0px" y="0px"
	 viewBox="0 0 16 16" style="enable-background:new 0 0 16 16;" xml:space="preserve">
<style type="text/css">
	.st0{fill:#917CC4;enable-background:new    ;}
	.st1{fill:#F8CD9A;}
</style>
<path class="st0" d="M10.2,2H5.8C3.7,2,2,3.7,2,5.8v4.5C2,12.3,3.7,14,5.8,14h4.5c2.1,0,3.7-1.7,3.8-3.8V5.8C14,3.7,12.3,2,10.2,2z
	 M11.9,9.7c0,1.2-1,2.2-2.2,2.2c0,0,0,0,0,0H6.3c-1.2,0-2.2-1-2.2-2.2c0,0,0,0,0,0V6.3c0-1.2,1-2.2,2.2-2.2c0,0,0,0,0,0h3.4
	c1.2,0,2.2,1,2.2,2.2c0,0,0,0,0,0L11.9,9.7L11.9,9.7z"/>
<path class="st1" d="M5.9,0.8V2H5.8c-0.5,0-1,0.1-1.4,0.2V0.8C4.4,0.3,4.7,0,5.1,0C5.5,0,5.9,0.3,5.9,0.8C5.9,0.7,5.9,0.7,5.9,0.8
	L5.9,0.8z"/>
<path class="st1" d="M8.8,0.8V2H7.2V0.8C7.2,0.3,7.6,0,8,0S8.8,0.3,8.8,0.8z"/>
<path class="st1" d="M11.6,0.8v1.5c-0.5-0.1-1-0.2-1.4-0.2h-0.1V0.8c0-0.4,0.3-0.8,0.8-0.8C11.3,0,11.7,0.3,11.6,0.8L11.6,0.8z"/>
<path class="st1" d="M16,5.1c0,0.4-0.3,0.7-0.7,0.8c0,0,0,0,0,0H14V5.8c0-0.5-0.1-1-0.2-1.4h1.5C15.7,4.3,16,4.7,16,5.1
	C16,5.1,16,5.1,16,5.1z"/>
<path class="st1" d="M16,8c0,0.4-0.3,0.7-0.7,0.8c0,0,0,0,0,0H14V7.2h1.2C15.7,7.2,16,7.6,16,8C16,8,16,8,16,8z"/>
<path class="st1" d="M16,10.9c0,0.4-0.3,0.7-0.7,0.8c0,0,0,0,0,0h-1.5c0.1-0.5,0.2-1,0.2-1.5v-0.1h1.2C15.7,10.1,16,10.5,16,10.9
	C16,10.9,16,10.9,16,10.9z"/>
<path class="st1" d="M11.6,13.8v1.5c0,0.4-0.3,0.8-0.8,0.8s-0.8-0.3-0.8-0.8V14h0.1C10.7,14,11.2,13.9,11.6,13.8z"/>
<path class="st1" d="M8.8,14v1.2C8.8,15.7,8.4,16,8,16s-0.8-0.3-0.8-0.8V14H8.8z"/>
<path class="st1" d="M5.9,14v1.2c0,0.4-0.3,0.8-0.8,0.8c-0.4,0-0.8-0.3-0.8-0.8v-1.5C4.8,13.9,5.3,14,5.9,14L5.9,14z"/>
<path class="st1" d="M2.2,4.4C2.1,4.8,2,5.3,2,5.8v0.1H0.8C0.3,5.9,0,5.5,0,5.1c0-0.4,0.3-0.8,0.8-0.8H2.2z"/>
<path class="st1" d="M2,7.2v1.5H0.8C0.3,8.8,0,8.4,0,8s0.3-0.8,0.8-0.8H2z"/>
<path class="st1" d="M2.2,11.7H0.8c-0.4,0-0.8-0.3-0.8-0.8s0.3-0.8,0.8-0.8H2v0C2,10.7,2.1,11.2,2.2,11.7z"/>
<path class="st1" d="M9.4,4.7H6.6c-1,0-1.9,0.8-1.9,1.9c0,0,0,0,0,0v2.8c0,1,0.8,1.9,1.9,1.9c0,0,0,0,0,0h2.8c1,0,1.9-0.8,1.9-1.9
	c0,0,0,0,0,0V6.6C11.3,5.6,10.4,4.7,9.4,4.7C9.4,4.7,9.4,4.7,9.4,4.7z M9,8.6l-0.6,1C8.3,9.8,8.2,9.9,8,9.9c-0.1,0-0.2,0-0.2-0.1
	C7.6,9.7,7.5,9.4,7.6,9.2L8,8.5H7.7C7.4,8.5,7.1,8.3,7,8.1C6.9,7.9,6.9,7.6,7,7.4l0.6-1C7.7,6.1,8,6,8.2,6.2s0.3,0.4,0.2,0.6L8,7.5
	h0.4c0.3,0,0.5,0.1,0.7,0.4C9.1,8.1,9.1,8.4,9,8.6L9,8.6z"/>
</svg>
