<?xml version="1.0" encoding="utf-8"?>
<!-- Generator: Adobe Illustrator 27.0.1, SVG Export Plug-In . SVG Version: 6.00 Build 0)  -->
<svg version="1.1" id="Layer_1" xmlns="http://www.w3.org/2000/svg" xmlns:xlink="http://www.w3.org/1999/xlink" x="0px" y="0px"
	 viewBox="0 0 196.7 218.6" style="enable-background:new 0 0 196.7 218.6;" xml:space="preserve">
<style type="text/css">
	.st0{fill:#E3E3E3;}
	.st1{fill:#FFFFFF;}
	.st2{filter:url(#jay0zoptec);}
	.st3{filter:url(#b70ka2ezrd);}
	.st4{fill:#F8CD9A;}
	.st5{fill:url(#SVGID_1_);}
	.st6{fill:url(#SVGID_00000067954263794321220970000007678289676913343164_);}
	.st7{fill:#917CC4;}
	.st8{fill:url(#SVGID_00000099660792665389496180000011292803362881359280_);}
	.st9{fill:url(#SVGID_00000155863513394777356280000013592352690994346913_);}
	.st10{fill:url(#SVGID_00000134221171215633071060000008911236307050002610_);}
</style>
<filter  filterUnits="userSpaceOnUse" height="218.622" id="jay0zoptec" width="191.039" x="0" y="0">
	<feOffset  dy="11"></feOffset>
	<feGaussianBlur  result="blur-2" stdDeviation="11"></feGaussianBlur>
	<feFlood  flood-color="#657a93" flood-opacity=".18"></feFlood>
	<feComposite  in2="blur-2" operator="in"></feComposite>
	<feComposite  in="SourceGraphic" operator="over"></feComposite>
</filter>
<filter  filterUnits="userSpaceOnUse" height="193.809" id="b70ka2ezrd" width="164.771" x="17.749" y="10.594">
	<feOffset  dy="11"></feOffset>
	<feGaussianBlur  result="blur-3" stdDeviation="11"></feGaussianBlur>
	<feFlood  flood-color="#657a93" flood-opacity=".18"></feFlood>
	<feComposite  in2="blur-3" operator="in"></feComposite>
	<feComposite  in="SourceGraphic" operator="over"></feComposite>
</filter>
<g>
	<path class="st0" d="M29.5,43.5c1.9-0.6,2.9-2.7,2.3-4.6c-0.6-1.9-2.6-3-4.5-2.4c-1.9,0.6-3,2.6-2.4,4.5c0,0,0,0.1,0,0.1
		C25.5,43,27.6,44.1,29.5,43.5C29.5,43.5,29.5,43.5,29.5,43.5z"/>
	<path class="st0" d="M37.3,31.6c1.3-0.4,2-1.8,1.6-3.1c-0.4-1.3-1.8-2-3.1-1.6c-1.3,0.4-2,1.8-1.6,3.1C34.7,31.3,36,32,37.3,31.6
		C37.3,31.6,37.3,31.6,37.3,31.6z"/>
	<path class="st0" d="M155.7,44.1c2.2-2.1,2.4-5.5,0.4-7.8c-2-2.2-5.5-2.4-7.7-0.4c0,0,0,0,0,0c-2.2,2.1-2.4,5.6-0.3,7.8
		C150,46,153.4,46.1,155.7,44.1C155.7,44.1,155.7,44.1,155.7,44.1z"/>
	<path class="st0" d="M173.2,34c0.9-0.9,1-2.3,0.1-3.3c-0.9-0.9-2.3-1-3.2-0.2c0,0,0,0,0,0c-0.9,0.9-1,2.3-0.2,3.3
		C170.8,34.8,172.3,34.9,173.2,34C173.2,34,173.2,34,173.2,34z"/>
	<path class="st0" d="M35.8,163c0.9-0.9,1-2.3,0.1-3.3c-0.9-0.9-2.3-1-3.2-0.2c0,0,0,0,0,0c-0.9,0.9-1,2.3-0.2,3.3
		C33.4,163.8,34.8,163.9,35.8,163C35.8,163,35.8,163,35.8,163z"/>
	<path class="st0" d="M94.1,170.7c39.6,0,71.8-32.3,71.8-72.2s-32.1-72.2-71.8-72.2S22.3,58.7,22.3,98.5S54.4,170.7,94.1,170.7z"/>
	<g>
		<path class="st1" d="M49.9,89.4l-9.4-40.1c-0.7-3,1.1-5.9,4-6.7l61.9-14.8l35.1,24l21.9,88.2c0.7,3-1.1,5.9-4,6.7L74,166.9
			c-3,0.7-5.9-1.1-6.6-4.1L49.2,86.3"/>
	</g>
	<g class="st2">
		<path class="st1" d="M158,86.6L125,171.1c-1.1,2.8-4.3,4.2-7.1,3.1c0,0-0.1,0-0.1-0.1l-81.3-33.4c-2.8-1.1-4.2-4.3-3.1-7.2
			c0,0,0-0.1,0-0.1L77.2,25.5c1.1-2.8,4.3-4.2,7.1-3.1c0,0,0.1,0,0.1,0.1l59.1,24.3L158,86.6z"/>
	</g>
	<path class="st1" d="M143.3,46.7l-9.4,23.2c-1.2,3.3,0.4,7,3.6,8.4l20.5,8.3"/>
	<g class="st3">
		<path class="st1" d="M149.5,154.9c0,3-2.4,5.5-5.5,5.5c0,0,0,0,0,0H56.2c-3,0-5.5-2.5-5.5-5.5c0,0,0,0,0,0V38.1
			c0-3,2.4-5.5,5.5-5.5c0,0,0,0,0,0h63.7l28.6,31.5l0.6,52.9L149.5,154.9z"/>
	</g>
	<path class="st4" d="M133.4,127H80.6c-0.9,0-1.6-0.7-1.6-1.6c0-0.9,0.7-1.6,1.6-1.6h52.7c0.9,0,1.6,0.7,1.6,1.6
		C134.9,126.3,134.2,126.9,133.4,127z"/>
	
		<linearGradient id="SVGID_1_" gradientUnits="userSpaceOnUse" x1="-182.9745" y1="431.6455" x2="-181.9805" y2="431.6455" gradientTransform="matrix(12.42 0 0 -3.192 2335.8911 1503.2073)">
		<stop  offset="0" style="stop-color:#F8CD9A"/>
		<stop  offset="1" style="stop-color:#F8CD9A"/>
	</linearGradient>
	<path class="st5" d="M74.1,127h-9.2c-0.9,0-1.6-0.7-1.6-1.6c0-0.9,0.7-1.6,1.6-1.6h9.2c0.9,0,1.6,0.7,1.6,1.6
		C75.7,126.3,75,127,74.1,127z"/>
	<path class="st4" d="M133.2,112.6h-23.5c-0.9,0-1.6-0.7-1.6-1.6c0-0.9,0.7-1.6,1.6-1.6h23.5c0.9,0,1.6,0.7,1.6,1.6
		C134.6,112,134.1,112.6,133.2,112.6z"/>
	<path class="st4" d="M99.7,112.6H65.3c-0.9,0-1.6-0.7-1.6-1.6c0-0.9,0.7-1.6,1.6-1.6h34.4c0.9,0,1.6,0.7,1.6,1.6
		c0,0.8-0.6,1.6-1.4,1.6C99.8,112.6,99.8,112.6,99.7,112.6z"/>
	
		<linearGradient id="SVGID_00000045613913354854452630000011012822261196894616_" gradientUnits="userSpaceOnUse" x1="-182.7921" y1="432.0419" x2="-181.7961" y2="432.0419" gradientTransform="matrix(12.278 0 0 -3.205 2367.271 1481.4789)">
		<stop  offset="0" style="stop-color:#F8CD9A"/>
		<stop  offset="1" style="stop-color:#F8CD9A"/>
	</linearGradient>
	<path style="fill:url(#SVGID_00000045613913354854452630000011012822261196894616_);" d="M133.6,98.4h-9.1c-0.9,0-1.6-0.7-1.6-1.6
		c0-0.9,0.7-1.6,1.6-1.6h9.1c0.9,0,1.6,0.7,1.6,1.6C135.2,97.7,134.5,98.4,133.6,98.4z"/>
	<path class="st4" d="M116,98.4H65.8c-0.9,0-1.6-0.7-1.6-1.6c0-0.9,0.7-1.6,1.6-1.6H116c0.9,0,1.6,0.7,1.6,1.6
		C117.6,97.7,116.9,98.4,116,98.4z"/>
	<path class="st4" d="M93.5,142.7h-3.2c-0.9,0-1.6-0.7-1.6-1.6c0-0.9,0.7-1.6,1.6-1.6h3.2c0.9,0,1.6,0.7,1.6,1.6
		C95,141.9,94.3,142.6,93.5,142.7z"/>
	<path class="st4" d="M84.5,142.7H65.8c-0.9,0-1.6-0.7-1.6-1.6c0-0.9,0.7-1.6,1.6-1.6h18.6c0.9,0,1.6,0.7,1.6,1.6
		c0.1,0.8-0.4,1.5-1.2,1.6C84.7,142.7,84.6,142.7,84.5,142.7z"/>
	<path class="st4" d="M134.1,84.2h-32.3c-0.9,0-1.6-0.7-1.6-1.6c0-0.9,0.7-1.6,1.6-1.6h32.3c0.9,0,1.6,0.7,1.6,1.6
		C135.7,83.4,134.9,84.1,134.1,84.2z"/>
	<path class="st4" d="M91.3,84.2H66.2c-0.9,0-1.6-0.7-1.6-1.6c0-0.9,0.7-1.6,1.6-1.6h25c0.9,0,1.6,0.7,1.6,1.6
		C92.8,83.4,92.2,84.1,91.3,84.2C91.4,84.2,91.3,84.2,91.3,84.2z"/>
	<path class="st7" d="M108.9,51.9H66.8c-1.1,0-2-0.8-2-1.9c0,0,0-0.1,0-0.1c0-1.1,0.8-2,1.9-2c0,0,0.1,0,0.1,0h42.2
		c1.1,0,2,0.8,2,1.9c0,0,0,0.1,0,0.1C110.9,51,110,51.8,108.9,51.9z"/>
	<path class="st7" d="M82.8,62.1h-16c-1.1,0-2-0.9-2-1.9c0,0,0-0.1,0-0.1c0-1.1,0.8-2,1.9-2c0,0,0.1,0,0.1,0h16.2c1.1,0,2,0.8,2,1.9
		c0,0,0,0.1,0,0.1C84.8,61.2,83.9,62,82.8,62.1z"/>
	<path class="st0" d="M119.9,32.6v25c0.1,3.5,3,6.4,6.5,6.4h22.1"/>
	<g>
		
			<linearGradient id="SVGID_00000072242694952883137980000007792862491484555679_" gradientUnits="userSpaceOnUse" x1="-195.0886" y1="524.0219" x2="-194.5316" y2="523.1879" gradientTransform="matrix(54.0325 0 0 -54.03 10666.4297 28433.9141)">
			<stop  offset="0" style="stop-color:#917CC4"/>
			<stop  offset="1" style="stop-color:#917CC4"/>
		</linearGradient>
		<path style="fill:url(#SVGID_00000072242694952883137980000007792862491484555679_);" d="M167,143c0,3.3-0.6,6.6-1.9,9.7
			c-2.9,7.5-9.1,13.4-16.8,16c-2.7,0.9-5.4,1.3-8.2,1.3c-14.9,0.1-27.1-11.9-27.2-26.9s11.9-27.1,26.9-27.2
			c14.9-0.1,27.1,11.9,27.2,26.9C167,142.9,167,142.9,167,143z"/>
	</g>
	
		<linearGradient id="SVGID_00000174589341135530618590000012471914693734140298_" gradientUnits="userSpaceOnUse" x1="-192.6819" y1="521.4431" x2="-192.0789" y2="520.9412" gradientTransform="matrix(31.768 0 0 -37.914 6256.1787 19909.0137)">
		<stop  offset="0" style="stop-color:#917CC4"/>
		<stop  offset="1" style="stop-color:#917CC4;stop-opacity:0"/>
	</linearGradient>
	<path style="fill:url(#SVGID_00000174589341135530618590000012471914693734140298_);" d="M165.1,152.7c-2.9,7.5-9.1,13.4-16.8,16
		l-15-15.1l1.6-9.6l1.3-10.8l3.6-2.3l1.9,0.3l1.6-0.4L165.1,152.7z"/>
	
		<linearGradient id="SVGID_00000087381520217980804990000004757498907191048878_" gradientUnits="userSpaceOnUse" x1="-187.1655" y1="517.3874" x2="-187.8245" y2="517.8334" gradientTransform="matrix(18.2121 0 0 -26.678 3556.251 13954.1523)">
		<stop  offset="1.100000e-02" style="stop-color:#F8CD9A"/>
		<stop  offset="1" style="stop-color:#FFFFFF"/>
	</linearGradient>
	<path style="fill:url(#SVGID_00000087381520217980804990000004757498907191048878_);" d="M131,147.3c0-1.6,0.4-3.1,1.2-4.5
		c0.8-1.3,1.9-2.5,3.2-3.3v-4.8c0-1.3,0.5-2.6,1.4-3.5c0.9-0.9,2.2-1.4,3.5-1.5c2.6,0,4.8,2.2,4.8,4.8v4.8c2.8,1.7,4.4,4.8,4.2,8
		c0,5-4.1,9.1-9.1,9.1C135.1,156.4,131,152.4,131,147.3z"/>
</g>
</svg>
