<?xml version="1.0" encoding="utf-8"?>
<!-- Generator: Adobe Illustrator 27.0.1, SVG Export Plug-In . SVG Version: 6.00 Build 0)  -->
<svg version="1.1" id="Layer_1" xmlns="http://www.w3.org/2000/svg" xmlns:xlink="http://www.w3.org/1999/xlink" x="0px" y="0px"
	 viewBox="0 0 156.1 192.3" style="enable-background:new 0 0 156.1 192.3;" xml:space="preserve">
<style type="text/css">
	.st0{fill:#EAEEF9;}
	.st1{fill:none;stroke:#F8CD9A;stroke-width:2;stroke-linecap:round;stroke-linejoin:round;stroke-miterlimit:10;}
	.st2{filter:url(#i5z77wuvtc);}
	.st3{fill:#FFFFFF;}
	.st4{fill:url(#SVGID_1_);}
	.st5{fill:#F3F5FA;}
	.st6{fill:url(#SVGID_00000053534833453996064170000005418921581993210248_);}
	.st7{fill:url(#SVGID_00000080202777325449803900000006634854029599702459_);}
	.st8{fill:url(#SVGID_00000038374208969494309660000005961363808353588124_);}
	.st9{fill:url(#SVGID_00000165930164834776455690000011029758512651382930_);}
	.st10{fill:url(#SVGID_00000016775410142314126520000016039234493424910760_);}
	.st11{fill:url(#SVGID_00000013191624728253257140000002485431799928677292_);}
	.st12{fill:url(#SVGID_00000178180519062619883320000001383351086304155030_);}
	.st13{fill:url(#SVGID_00000026156119510460464340000013973934817117448116_);}
	.st14{fill:url(#SVGID_00000174566668466267526550000007804304865493216953_);}
	.st15{fill:url(#SVGID_00000077285968249783808460000012587320382568255389_);}
	.st16{fill:#E3E7F5;}
	.st17{fill:url(#SVGID_00000062901527408493841480000002922687645189882554_);}
	.st18{fill:#917CC4;}
	.st19{fill:url(#SVGID_00000087399432063776958290000013693448838157750948_);}
	.st20{fill:url(#SVGID_00000018922343199038430730000002770902462676209070_);}
	.st21{fill:#E3EAF2;stroke:#917CC4;stroke-miterlimit:10;}
</style>
<filter  filterUnits="userSpaceOnUse" height="192.278" id="i5z77wuvtc" width="156.082" x="0" y="0">
	<feOffset  dy="11"></feOffset>
	<feGaussianBlur  result="blur" stdDeviation="11"></feGaussianBlur>
	<feFlood  flood-color="#657a93" flood-opacity=".18"></feFlood>
	<feComposite  in2="blur" operator="in"></feComposite>
	<feComposite  in="SourceGraphic" operator="over"></feComposite>
</filter>
<g>
	<path class="st0" d="M12.1,35.2c1.9-0.6,3-2.7,2.4-4.7c-0.6-1.9-2.7-3-4.7-2.4c0,0,0,0,0,0c-2,0.6-3.1,2.7-2.5,4.6s2.7,3.1,4.6,2.5
		C12,35.2,12,35.2,12.1,35.2L12.1,35.2z"/>
	<path class="st0" d="M20.2,23.1c1.3-0.4,2-1.9,1.6-3.2s-1.9-2-3.2-1.6c-1.3,0.4-2,1.9-1.6,3.2C17.5,22.8,18.9,23.5,20.2,23.1z"/>
	<path class="st0" d="M133.9,20.7c0.8-0.7,0.8-1.9,0.1-2.7c0,0,0,0,0,0c-0.7-0.8-1.9-0.8-2.7-0.1c-0.8,0.7-0.8,1.9-0.1,2.7
		c0,0,0,0,0,0C131.9,21.4,133.1,21.4,133.9,20.7z"/>
	<path class="st0" d="M21.6,144.4c1-0.9,1-2.4,0.2-3.3c0,0,0,0,0,0c-0.9-1-2.4-1-3.4-0.1c-1,0.9-1,2.4-0.2,3.3c0,0,0,0,0,0
		C19.2,145.2,20.7,145.3,21.6,144.4z"/>
	<path class="st0" d="M147.4,56.5v55.9c0,0.8,0,1.7-0.1,2.5c-0.8,6.4-4.5,12.1-10.1,15.3l-48.6,27.9c-4.6,2.7-10.1,3.4-15.2,2.1
		c-1.9-0.4-3.7-1.1-5.4-2.1l-48.8-28c-6.4-3.6-10.4-10.4-10.4-17.8V56.5c0-7.4,3.9-14.2,10.3-17.8l48.8-27.9
		c4.7-2.7,10.2-3.4,15.4-2.1c1.9,0.5,3.7,1.2,5.4,2.1l48.6,27.9C143.4,42.4,147.4,49.2,147.4,56.5L147.4,56.5z"/>
	<path class="st1" d="M78.2,36.2l11.6-24.2"/>
	<g class="st2">
		<path class="st3" d="M123.1,27.9v114.4c0,3.3-2.7,5.9-6,5.9H39c-3.3,0-5.9-2.6-6-5.9V27.9c0-3.3,2.7-5.9,6-5.9h78.2
			C120.4,22,123.1,24.6,123.1,27.9z"/>
	</g>
	<path class="st0" d="M38.5,75.1h-2.8v2.8h2.8V75.1z"/>
	<path class="st0" d="M38.5,69.4h-2.8v2.8h2.8V69.4z"/>
	<path class="st0" d="M38.5,63.8h-2.8v2.8h2.8V63.8z"/>
	
		<linearGradient id="SVGID_1_" gradientUnits="userSpaceOnUse" x1="-141.7191" y1="400.9779" x2="-140.7091" y2="400.9779" gradientTransform="matrix(2.834 0 0 -2.816 437.331 1188.8748)">
		<stop  offset="0" style="stop-color:#917CC4"/>
		<stop  offset="1" style="stop-color:#917CC4"/>
	</linearGradient>
	<path class="st4" d="M38.5,58.3h-2.8v2.8h2.8V58.3z"/>
	<path class="st5" d="M38.5,47h-2.8v2.8h2.8V47z"/>
	<path class="st0" d="M44.3,80.5h-2.8v2.8h2.8V80.5z"/>
	<path class="st0" d="M44.3,75.1h-2.8v2.8h2.8V75.1z"/>
	<path class="st0" d="M44.3,58.3h-2.8v2.8h2.8V58.3z"/>
	
		<linearGradient id="SVGID_00000168795797236762751610000002533681429116837555_" gradientUnits="userSpaceOnUse" x1="-141.7121" y1="400.9779" x2="-140.7021" y2="400.9779" gradientTransform="matrix(2.834 0 0 -2.816 443.147 1166.4938)">
		<stop  offset="0" style="stop-color:#917CC4"/>
		<stop  offset="1" style="stop-color:#917CC4"/>
	</linearGradient>
	<path style="fill:url(#SVGID_00000168795797236762751610000002533681429116837555_);" d="M44.3,35.9h-2.8v2.8h2.8V35.9z"/>
	<path class="st0" d="M50.2,80.5h-2.8v2.8h2.8V80.5z"/>
	<path class="st0" d="M50.2,69.4h-2.8v2.8h2.8V69.4z"/>
	<path class="st0" d="M50.2,63.8h-2.8v2.8h2.8V63.8z"/>
	
		<linearGradient id="SVGID_00000176732171622486201540000001652582792196279455_" gradientUnits="userSpaceOnUse" x1="-141.7061" y1="400.9779" x2="-140.6961" y2="400.9779" gradientTransform="matrix(2.834 0 0 -2.816 448.965 1188.8748)">
		<stop  offset="0" style="stop-color:#F8CD9A"/>
		<stop  offset="1" style="stop-color:#F8CD9A"/>
	</linearGradient>
	<path style="fill:url(#SVGID_00000176732171622486201540000001652582792196279455_);" d="M50.2,58.3h-2.8v2.8h2.8V58.3z"/>
	<path class="st5" d="M50.2,52.7h-2.8v2.8h2.8V52.7z"/>
	<path class="st0" d="M50.2,47h-2.8v2.8h2.8V47z"/>
	<path class="st0" d="M50.2,35.9h-2.8v2.8h2.8V35.9z"/>
	<path class="st5" d="M50.2,30.3h-2.8v2.8h2.8V30.3z"/>
	<path class="st0" d="M56,75.1h-2.8v2.8H56V75.1z"/>
	<path class="st0" d="M56,69.4h-2.8v2.8H56V69.4z"/>
	<path class="st5" d="M56,52.7h-2.8v2.8H56V52.7z"/>
	<path class="st0" d="M56,41.6h-2.8v2.8H56V41.6z"/>
	<path class="st0" d="M61.9,80.5h-2.8v2.8h2.8V80.5z"/>
	<path class="st0" d="M61.9,75.1h-2.8v2.8h2.8V75.1z"/>
	<path class="st0" d="M61.9,58.3h-2.8v2.8h2.8V58.3z"/>
	
		<linearGradient id="SVGID_00000164505304501053157760000017383350970787099829_" gradientUnits="userSpaceOnUse" x1="-141.7461" y1="400.9779" x2="-140.7361" y2="400.9779" gradientTransform="matrix(2.834 0 0 -2.816 460.746 1183.2428)">
		<stop  offset="0" style="stop-color:#917CC4"/>
		<stop  offset="1" style="stop-color:#917CC4"/>
	</linearGradient>
	<path style="fill:url(#SVGID_00000164505304501053157760000017383350970787099829_);" d="M61.9,52.7h-2.8v2.8h2.8V52.7z"/>
	<path class="st5" d="M61.9,47h-2.8v2.8h2.8V47z"/>
	<path class="st0" d="M67.8,80.5h-2.8v2.8h2.8V80.5z"/>
	<path class="st0" d="M67.8,75.1h-2.8v2.8h2.8V75.1z"/>
	<path class="st0" d="M67.8,69.4h-2.8v2.8h2.8V69.4z"/>
	<path class="st0" d="M67.8,63.8h-2.8v2.8h2.8V63.8z"/>
	<path class="st0" d="M67.8,58.3h-2.8v2.8h2.8V58.3z"/>
	<path class="st0" d="M67.8,52.7h-2.8v2.8h2.8V52.7z"/>
	<path class="st0" d="M67.8,35.9h-2.8v2.8h2.8V35.9z"/>
	<path class="st0" d="M73.6,80.5h-2.8v2.8h2.8V80.5z"/>
	<path class="st0" d="M73.6,75.1h-2.8v2.8h2.8V75.1z"/>
	<path class="st0" d="M73.6,69.4h-2.8v2.8h2.8V69.4z"/>
	<path class="st0" d="M73.6,58.3h-2.8v2.8h2.8V58.3z"/>
	<path class="st5" d="M73.6,52.7h-2.8v2.8h2.8V52.7z"/>
	
		<linearGradient id="SVGID_00000173878752236569728780000002056071853055749773_" gradientUnits="userSpaceOnUse" x1="-141.7271" y1="400.9779" x2="-140.7171" y2="400.9779" gradientTransform="matrix(2.834 0 0 -2.816 478.196 1211.1068)">
		<stop  offset="0" style="stop-color:#F8CD9A"/>
		<stop  offset="1" style="stop-color:#F8CD9A"/>
	</linearGradient>
	<path style="fill:url(#SVGID_00000173878752236569728780000002056071853055749773_);" d="M79.4,80.5h-2.8v2.8h2.8V80.5z"/>
	<path class="st0" d="M79.4,75.1h-2.8v2.8h2.8V75.1z"/>
	<path class="st0" d="M79.4,69.4h-2.8v2.8h2.8V69.4z"/>
	<path class="st5" d="M79.4,63.8h-2.8v2.8h2.8V63.8z"/>
	<path class="st0" d="M79.4,58.3h-2.8v2.8h2.8V58.3z"/>
	<path class="st0" d="M79.4,47h-2.8v2.8h2.8V47z"/>
	<path class="st0" d="M85.2,80.5h-2.8v2.8h2.8V80.5z"/>
	<path class="st0" d="M85.2,75.1h-2.8v2.8h2.8V75.1z"/>
	
		<linearGradient id="SVGID_00000019640397972911196440000015970572453103964835_" gradientUnits="userSpaceOnUse" x1="-141.7211" y1="400.9779" x2="-140.7111" y2="400.9779" gradientTransform="matrix(2.834 0 0 -2.816 484.013 1199.9907)">
		<stop  offset="0" style="stop-color:#917CC4"/>
		<stop  offset="1" style="stop-color:#917CC4"/>
	</linearGradient>
	<path style="fill:url(#SVGID_00000019640397972911196440000015970572453103964835_);" d="M85.2,69.4h-2.8v2.8h2.8V69.4z"/>
	<path class="st0" d="M85.2,63.8h-2.8v2.8h2.8V63.8z"/>
	<path class="st0" d="M85.2,58.3h-2.8v2.8h2.8V58.3z"/>
	<path class="st0" d="M85.2,52.7h-2.8v2.8h2.8V52.7z"/>
	<path class="st0" d="M91,80.5h-2.8v2.8H91V80.5z"/>
	<path class="st0" d="M91,75.1h-2.8v2.8H91V75.1z"/>
	<path class="st0" d="M91,69.4h-2.8v2.8H91V69.4z"/>
	<path class="st5" d="M91,58.3h-2.8v2.8H91V58.3z"/>
	<path class="st0" d="M91,47h-2.8v2.8H91V47z"/>
	<path class="st5" d="M91,30.3h-2.8v2.8H91V30.3z"/>
	<path class="st0" d="M96.8,75.1H94v2.8h2.8V75.1z"/>
	<path class="st5" d="M96.8,69.4H94v2.8h2.8V69.4z"/>
	<path class="st0" d="M96.8,63.8H94v2.8h2.8V63.8z"/>
	<path class="st0" d="M96.8,41.6H94v2.8h2.8V41.6z"/>
	<path class="st0" d="M102.7,80.5h-2.8v2.8h2.8V80.5z"/>
	<path class="st0" d="M102.7,69.4h-2.8v2.8h2.8V69.4z"/>
	
		<linearGradient id="SVGID_00000077305237924563600390000012786934750161333393_" gradientUnits="userSpaceOnUse" x1="-141.7021" y1="400.9779" x2="-140.6921" y2="400.9779" gradientTransform="matrix(2.834 0 0 -2.816 501.462 1194.3588)">
		<stop  offset="0" style="stop-color:#917CC4"/>
		<stop  offset="1" style="stop-color:#917CC4"/>
	</linearGradient>
	<path style="fill:url(#SVGID_00000077305237924563600390000012786934750161333393_);" d="M102.7,63.8h-2.8v2.8h2.8V63.8z"/>
	<path class="st0" d="M102.7,58.3h-2.8v2.8h2.8V58.3z"/>
	<path class="st5" d="M102.7,52.7h-2.8v2.8h2.8V52.7z"/>
	
		<linearGradient id="SVGID_00000030478699317397106320000008379203286298248104_" gradientUnits="userSpaceOnUse" x1="-141.7021" y1="400.9779" x2="-140.6921" y2="400.9779" gradientTransform="matrix(2.834 0 0 -2.816 501.462 1177.6097)">
		<stop  offset="0" style="stop-color:#F8CD9A"/>
		<stop  offset="1" style="stop-color:#F8CD9A"/>
	</linearGradient>
	<path style="fill:url(#SVGID_00000030478699317397106320000008379203286298248104_);" d="M102.7,47h-2.8v2.8h2.8V47z"/>
	<path class="st0" d="M108.6,80.5h-2.8v2.8h2.8V80.5z"/>
	<path class="st5" d="M108.6,63.8h-2.8v2.8h2.8V63.8z"/>
	<path class="st0" d="M108.6,52.7h-2.8v2.8h2.8V52.7z"/>
	<path class="st0" d="M114.4,80.5h-2.8v2.8h2.8V80.5z"/>
	<path class="st0" d="M114.4,75.1h-2.8v2.8h2.8V75.1z"/>
	<path class="st0" d="M114.4,69.4h-2.8v2.8h2.8V69.4z"/>
	<path class="st0" d="M114.4,63.8h-2.8v2.8h2.8V63.8z"/>
	<path class="st5" d="M114.4,58.3h-2.8v2.8h2.8V58.3z"/>
	<path class="st0" d="M114.4,41.6h-2.8v2.8h2.8V41.6z"/>
	<path class="st0" d="M120.2,80.5h-2.8v2.8h2.8V80.5z"/>
	<path class="st0" d="M120.2,69.4h-2.8v2.8h2.8V69.4z"/>
	<path class="st5" d="M120.2,63.8h-2.8v2.8h2.8V63.8z"/>
	<path class="st0" d="M117.4,100.2h2.8v-2.8h-2.8V100.2z"/>
	<path class="st0" d="M117.4,94.5h2.8v-2.8h-2.8V94.5z"/>
	<path class="st0" d="M117.4,89h2.8v-2.8h-2.8V89z"/>
	<path class="st0" d="M111.5,105.7h2.8v-2.8h-2.8V105.7z"/>
	<path class="st0" d="M111.5,100.2h2.8v-2.8h-2.8V100.2z"/>
	<path class="st0" d="M111.5,89h2.8v-2.8h-2.8V89z"/>
	<path class="st0" d="M105.7,105.7h2.8v-2.8h-2.8V105.7z"/>
	<path class="st0" d="M105.7,100.2h2.8v-2.8h-2.8V100.2z"/>
	<path class="st0" d="M105.7,94.5h2.8v-2.8h-2.8V94.5z"/>
	<path class="st0" d="M105.7,89h2.8v-2.8h-2.8V89z"/>
	<path class="st0" d="M100,105.7h2.8v-2.8H100V105.7z"/>
	<path class="st0" d="M100,100.2h2.8v-2.8H100V100.2z"/>
	<path class="st0" d="M100,94.5h2.8v-2.8H100V94.5z"/>
	<path class="st0" d="M100,89h2.8v-2.8H100V89z"/>
	<path class="st0" d="M94.1,105.7h2.8v-2.8h-2.8V105.7z"/>
	<path class="st0" d="M94.1,100.2h2.8v-2.8h-2.8V100.2z"/>
	<path class="st0" d="M94.1,94.5h2.8v-2.8h-2.8V94.5z"/>
	<path class="st0" d="M88.3,105.7h2.8v-2.8h-2.8V105.7z"/>
	<path class="st0" d="M88.3,100.2h2.8v-2.8h-2.8V100.2z"/>
	<path class="st0" d="M88.3,94.5h2.8v-2.8h-2.8V94.5z"/>
	<path class="st0" d="M88.3,89h2.8v-2.8h-2.8V89z"/>
	<path class="st0" d="M82.4,105.7h2.8v-2.8h-2.8V105.7z"/>
	<path class="st0" d="M82.4,100.2h2.8v-2.8h-2.8V100.2z"/>
	<path class="st0" d="M82.4,94.5h2.8v-2.8h-2.8V94.5z"/>
	
		<linearGradient id="SVGID_00000160150389607203130390000005356554710298531770_" gradientUnits="userSpaceOnUse" x1="-140.7191" y1="401.0189" x2="-141.7291" y2="401.0189" gradientTransform="matrix(2.834 0 0 -2.817 478.196 1234.0026)">
		<stop  offset="0" style="stop-color:#F8CD9A"/>
		<stop  offset="1" style="stop-color:#F8CD9A"/>
	</linearGradient>
	<path style="fill:url(#SVGID_00000160150389607203130390000005356554710298531770_);" d="M76.6,105.7h2.8v-2.8h-2.8V105.7z"/>
	<path class="st0" d="M76.5,100.2h2.8v-2.8h-2.8V100.2z"/>
	<path class="st0" d="M76.5,94.5h2.8v-2.8h-2.8V94.5z"/>
	<path class="st5" d="M76.5,89h2.8v-2.8h-2.8V89z"/>
	<path class="st0" d="M70.7,105.7h2.8v-2.8h-2.8V105.7z"/>
	<path class="st0" d="M70.7,100.2h2.8v-2.8h-2.8V100.2z"/>
	
		<linearGradient id="SVGID_00000086687885047021644140000004827162295609352329_" gradientUnits="userSpaceOnUse" x1="-140.7241" y1="401.0189" x2="-141.7351" y2="401.0189" gradientTransform="matrix(2.834 0 0 -2.817 472.379 1222.8866)">
		<stop  offset="0" style="stop-color:#917CC4"/>
		<stop  offset="1" style="stop-color:#917CC4"/>
	</linearGradient>
	<path style="fill:url(#SVGID_00000086687885047021644140000004827162295609352329_);" d="M70.7,94.6h2.8v-2.8h-2.8V94.6z"/>
	<path class="st0" d="M70.7,89h2.8v-2.8h-2.8V89z"/>
	<path class="st0" d="M64.8,105.7h2.8v-2.8h-2.8V105.7z"/>
	<path class="st0" d="M64.8,100.2h2.8v-2.8h-2.8V100.2z"/>
	<path class="st0" d="M64.8,94.5h2.8v-2.8h-2.8V94.5z"/>
	<path class="st0" d="M59,100.2h2.8v-2.8H59V100.2z"/>
	<path class="st5" d="M59,94.5h2.8v-2.8H59V94.5z"/>
	<path class="st0" d="M59,89h2.8v-2.8H59V89z"/>
	<path class="st0" d="M53.3,105.7h2.8v-2.8h-2.8V105.7z"/>
	<path class="st0" d="M53.3,94.5h2.8v-2.8h-2.8V94.5z"/>
	
		<linearGradient id="SVGID_00000067925903798129446730000003404538224992280470_" gradientUnits="userSpaceOnUse" x1="-144.5784" y1="400.9779" x2="-145.5384" y2="400.9779" gradientTransform="matrix(2.982 0 0 -2.816 487.193 1216.7378)">
		<stop  offset="0" style="stop-color:#917CC4"/>
		<stop  offset="1" style="stop-color:#917CC4"/>
	</linearGradient>
	<path style="fill:url(#SVGID_00000067925903798129446730000003404538224992280470_);" d="M53.1,89h3v-2.8h-3V89z"/>
	<path class="st0" d="M47.4,105.7h2.8v-2.8h-2.8V105.7z"/>
	<path class="st5" d="M47.4,89h2.8v-2.8h-2.8V89z"/>
	<path class="st0" d="M41.6,105.7h2.8v-2.8h-2.8V105.7z"/>
	<path class="st0" d="M41.6,100.2h2.8v-2.8h-2.8V100.2z"/>
	<path class="st0" d="M41.6,94.5h2.8v-2.8h-2.8V94.5z"/>
	<path class="st0" d="M35.7,105.7h2.8v-2.8h-2.8V105.7z"/>
	<path class="st0" d="M35.7,94.5h2.8v-2.8h-2.8V94.5z"/>
	<path class="st5" d="M35.7,89h2.8v-2.8h-2.8V89z"/>
	<path class="st0" d="M78,42c3.4,0,6.2-2.8,6.2-6.3c0-3.4-2.8-6.2-6.3-6.2c-3.4,0-6.2,2.8-6.2,6.2C71.8,39.2,74.6,42,78,42
		C78,42,78,42,78,42z"/>
	<path class="st1" d="M77.9,36.2L66.1,12.1"/>
	<path class="st0" d="M104.9,101c-0.5,0.6-1.1,1.1-1.6,1.6c-7,6.5-16.1,10-25.7,9.9c-7.7,0-15.2-2.3-21.5-6.7
		c-1.8-1.2-3.4-2.6-4.9-4.1c0.7-1,2.2-1.8,5.2-3l1.2-0.4c2.2-0.9,5.4-2.1,9.4-3.7c0.6-0.2,1.1-0.6,1.5-1.2c0.1-0.3,0.4-0.6,0.4-0.9
		c0.3-0.5,0.4-1.1,0.3-1.6v-7.6c-0.1-0.1-0.1-0.3-0.3-0.4c-0.6-1-1-2.1-1.2-3.3l-0.6-0.3c-1.9,0.4-1.8-1.6-2.2-5.6
		c-0.1-1.6,0-1.9,0.7-2.2l0.6-0.9c-1.3-2.6-2-5.4-2.1-8.3c0-3.7,1.6-6.2,3.9-7.4c-0.5-1.1-0.9-2.2-1.2-3.4c0,0,7.9,1.3,10.6,0.7
		c3.4-0.7,8.8,0.1,10.7,4.7c0.4,0.1,0.7,0.3,1.2,0.4c2,0.9,3.4,2.8,3.7,5c0.4,3.6-1.5,7.4-1.9,9c0,0.1,0.1,0.1,0.1,0.1c0,0,0,0,0,0
		c0.6,0.3,0.7,0.7,0.4,2.2c-0.4,3.9-0.3,6.1-2.2,5.6l-1.8,3c0,0.3-0.1,0.4-0.1,0.7v8.4c0,0.5,0.3,1.1,0.6,1.5l0.4,0.4
		c0.4,0.4,0.9,0.8,1.5,1c4.5,1.9,7.8,3.1,10.1,4C101.9,99.3,103.4,100.1,104.9,101z"/>
	<path class="st16" d="M91.9,73.9c-0.4,3.9-0.3,6.1-2.2,5.6l-1.8,3c0,0.3-0.1,0.4-0.1,0.7v8.4h-8.7V57.4h10.4c2,0.9,3.4,2.8,3.7,5
		c0.4,3.6-1.5,7.4-1.9,9c0,0.1,0.1,0.1,0.1,0.1c0,0,0,0,0,0C91.9,71.9,92.1,72.4,91.9,73.9z"/>
	<path class="st3" d="M108.5,112.1c-6.7,6.2-20.9,0.6-30.9,0.6c-7.9,0-24.5,6.2-30.6,2.1c-1.2-0.9,0.3-4.3,0.7-5.3
		c0.7-2.1,1.5-4.1,2.5-6.1c2.2-4.3,12.5-6.4,16.7-8.6c0.6-0.3,1.1-0.7,1.5-1.2c4,5.5,11.8,6.8,17.3,2.8c1-0.7,1.9-1.6,2.7-2.6
		c0.4,0.4,0.9,0.8,1.5,1c0.1,0,0.3,0.1,0.4,0.1c13.9,5.6,14.8,4.9,16.6,10.1C107.3,105.9,109.1,111.5,108.5,112.1z"/>
	
		<linearGradient id="SVGID_00000155830682388608765670000012554856797878136213_" gradientUnits="userSpaceOnUse" x1="-215.469" y1="501.2282" x2="-214.47" y2="501.2282" gradientTransform="matrix(62.0214 0 0 -21.4357 13410.2432 10849.6768)">
		<stop  offset="0" style="stop-color:#F8CD9A"/>
		<stop  offset="1" style="stop-color:#F8CD9A"/>
	</linearGradient>
	<path style="fill:url(#SVGID_00000155830682388608765670000012554856797878136213_);" d="M108.5,112.1c-6.7,6.2-20.9,0.6-30.9,0.6
		c-7.9,0-24.5,6.2-30.6,2.1c-1.2-0.9,0.3-4.3,0.7-5.3c0.7-2.1,1.5-4.1,2.5-6.1c2.2-4.3,12.5-6.4,16.7-8.6h0.2
		c4.7,6.4,13.7,7.8,20.1,3.2c1.2-0.8,2.2-1.9,3-3h0.2c13.9,5.6,14.8,4.9,16.6,10.1C107.3,105.9,109.1,111.5,108.5,112.1z"/>
	<path class="st18" d="M91.2,71.5c0-1-0.2-2-0.6-3c0-0.1-0.1-0.3-0.1-0.4c-1.5-3-4.9-4.3-8.1-4.4c-8.2-0.4-8.9,1.2-11.6-1.2
		c0.7,1.2,0.9,3.1-0.3,5.5c-0.9,1.4-2.4,2.5-4,2.8c-3.7-8.5-1.9-13.8,1.8-15.7c-0.6-1.1-1.1-2.3-1.3-3.6c0,0,7.9,1.3,10.6,0.7
		c3.4-0.7,8.8,0.1,10.7,4.7c3.3,1.3,4.6,3.4,4.9,5.6C93.7,66.2,91.6,70,91.2,71.5z"/>
	
		<linearGradient id="SVGID_00000022528910033430959830000009824407879129916065_" gradientUnits="userSpaceOnUse" x1="-206.7567" y1="480.4845" x2="-206.7567" y2="481.0585" gradientTransform="matrix(18.649 0 0 -9.189 3934.2241 4507.4688)">
		<stop  offset="0" style="stop-color:#EAEEF9"/>
		<stop  offset="0.991" style="stop-color:#CED5E6"/>
	</linearGradient>
	<path style="fill:url(#SVGID_00000022528910033430959830000009824407879129916065_);" d="M69.4,91.2v-7.6c-0.2-0.1-0.3-0.3-0.3-0.4
		v-0.4c0.4,0.7,0.9,1.3,1.6,1.8l6,4.2c1.4,1.2,3.4,1.2,4.8,0l5.5-5c0.1-0.1,0.4-0.3,0.6-0.6v7.9c0,0.4,0,0.7,0.1,1H69.2
		C69.4,92,69.4,91.5,69.4,91.2z"/>
	<path class="st3" d="M123.1,106v36.3c0,3.3-2.7,5.9-6,5.9H39c-3.3,0-5.9-2.6-6-5.9V106H123.1z"/>
	
		<linearGradient id="SVGID_00000030462120928511703140000010334660052547781525_" gradientUnits="userSpaceOnUse" x1="-210.9055" y1="438.1057" x2="-210.0605" y2="438.1057" gradientTransform="matrix(27.442 0 0 -4.1515 5855.1123 1936.7086)">
		<stop  offset="0" style="stop-color:#917CC4"/>
		<stop  offset="1" style="stop-color:#917CC4"/>
	</linearGradient>
	<path style="fill:url(#SVGID_00000030462120928511703140000010334660052547781525_);" d="M89.7,120H66.4c-1.1,0-2.1-0.9-2.1-2
		c0,0,0-0.1,0-0.1c0-1.1,0.9-2.1,2-2.1c0,0,0.1,0,0.1,0h23.3c1.1,0,2.1,0.9,2.1,2c0,0,0,0.1,0,0.1C91.8,119,90.9,119.9,89.7,120
		C89.7,120,89.7,120,89.7,120z"/>
	<path class="st21" d="M99.2,129.2H57c-1.1,0-2.1-0.9-2.1-2c0,0,0-0.1,0-0.1c0-1.1,0.9-2.1,2-2.1c0,0,0.1,0,0.1,0h42.2
		c1.1,0,2.1,0.9,2.1,2c0,0,0,0.1,0,0.1C101.3,128.2,100.4,129.1,99.2,129.2z"/>
	<path class="st21" d="M86.4,138.5H69.8c-0.7,0-1.3-0.6-1.3-1.3c0,0,0,0,0,0v-1.5c0-0.7,0.6-1.3,1.3-1.3c0,0,0,0,0,0h16.6
		c0.7,0,1.3,0.6,1.3,1.3c0,0,0,0,0,0v1.5C87.7,137.9,87.1,138.5,86.4,138.5C86.4,138.5,86.4,138.5,86.4,138.5z"/>
</g>
</svg>
