<?xml version="1.0" encoding="utf-8"?>
<!-- Generator: Adobe Illustrator 27.0.1, SVG Export Plug-In . SVG Version: 6.00 Build 0)  -->
<svg version="1.1" id="Layer_1" xmlns="http://www.w3.org/2000/svg" xmlns:xlink="http://www.w3.org/1999/xlink" x="0px" y="0px"
	 viewBox="0 0 233.6 222.3" style="enable-background:new 0 0 233.6 222.3;" xml:space="preserve">
<style type="text/css">
	.st0{fill:#F8F4E8;}
	.st1{fill:#FFFFFF;}
	.st2{fill:#F8CD9A;}
	.st3{opacity:0.5;fill:#F8CD9A;enable-background:new    ;}
	.st4{fill:#E6EDF5;}
	.st5{fill:#E1EAF2;}
	.st6{fill:url(#SVGID_1_);}
</style>
<g>
	<path class="st0" d="M119.9,181.2c45.6,0.1,82.7-36.7,82.8-82.3S166,16.2,120.4,16.1C74.8,16,37.7,52.8,37.6,98.4
		c0,0.1,0,0.2,0,0.3C37.5,144.2,74.4,181.1,119.9,181.2z"/>
	<g>
		<path class="st1" d="M107.1,51.5l63.9,53.4c3.7,3,4.2,8.4,1.2,12.1c-0.1,0.1-0.1,0.1-0.2,0.2l-48.3,57.9c-3,3.7-8.4,4.3-12,1.3
			c-0.1-0.1-0.2-0.1-0.3-0.2l-75.3-62.9c-3.7-3-4.2-8.4-1.2-12.1c0.1-0.1,0.1-0.1,0.2-0.2l38.7-46.5L107.1,51.5z"/>
	</g>
	<path class="st2" d="M107.1,51.5L95.5,65.6c-2,2.4-5.6,2.6-7.9,0.6c0,0-0.1,0-0.1-0.1L73.6,54.5L107.1,51.5z"/>
	<g>
		<path class="st1" d="M186,127.1l-5.3,3.8l-64.3,45.6c-4.3,3.2-10.4,2.2-13.6-2.1c0-0.1-0.1-0.1-0.1-0.2L38.5,82.9
			c-3.2-4.4-2.2-10.5,2.2-13.7l0.1-0.1l55.9-39.5l37.4,6.4l48.6,69l5.7,8C191.5,117.7,190.4,123.8,186,127.1L186,127.1z"/>
	</g>
	<path class="st2" d="M134.1,36.1l-16.6,12c-2.9,2.1-6.9,1.4-8.9-1.4c0-0.1-0.1-0.1-0.1-0.2L96.7,29.7h0.2L134.1,36.1z"/>
	<path class="st2" d="M186,127.1l-5.3,3.8v-25.7h2l5.7,8C191.5,117.6,190.5,123.8,186,127.1z"/>
	<g>
		<path class="st1" d="M200.6,76.7l-28.1,90.1c-1.5,5.1-6.9,8-12,6.5c-0.1,0-0.2-0.1-0.3-0.1l-81.4-25.6c-5.2-1.7-8.1-7.3-6.4-12.5
			l33.1-106.2c1.5-5.1,6.9-8,12-6.5c0.1,0,0.2,0.1,0.3,0.1l65.4,20.4"/>
	</g>
	<path class="st3" d="M187.8,81.8L175.9,120c-0.6,2.1-2.8,3.3-4.9,2.7h-0.1L98.8,100c-2.1-0.6-3.3-2.8-2.7-4.9V95L108,56.8
		c0.6-2.1,2.8-3.3,4.9-2.7h0.1l72.1,22.7c2.1,0.6,3.3,2.7,2.7,4.8C187.8,81.7,187.8,81.8,187.8,81.8z"/>
	<path class="st4" d="M200.6,76.7L181,70.6c-3.4-1.1-5.4-4.8-4.3-8.2l6.1-19.7h0.2L200.6,76.7z"/>
	<path class="st2" d="M173.5,64.5l-21.7-2.1c-3.7-0.4-6.5-3.7-6.1-7.4c0-0.1,0-0.2,0-0.3l2.3-21.8h0.2L173.5,64.5z"/>
	<g>
		<path class="st1" d="M173.5,58.1v100.6c0.1,5.8-4.6,10.5-10.3,10.5c-0.1,0-0.1,0-0.2,0H72c-5.8,0-10.5-4.6-10.5-10.4
			c0-0.1,0-0.1,0-0.2V39.9c0-5.8,4.7-10.5,10.5-10.5h72.9L173.5,58.1z"/>
	</g>
	<path class="st5" d="M173.5,58.1l-21.9,0.2c-3.8,0.1-6.9-3-6.9-6.8c0-0.1,0-0.1,0-0.2v-22h0.2L173.5,58.1z"/>
	<path class="st4" d="M153.4,112.6H84.1c-1.6,0-2.8-1.2-2.9-2.8c0,0,0,0,0-0.1v-40c0-1.6,1.2-2.8,2.8-2.9c0,0,0,0,0.1,0h69.3
		c1.6,0,2.8,1.2,2.8,2.8c0,0,0,0,0,0.1v39.9c0.1,1.6-1.1,2.9-2.7,3H153.4z"/>
	<path class="st2" d="M121.3,106.3H92.5l14.4-16.4L121.3,106.3z"/>
	<path class="st1" d="M145.4,106.3h-41.7l20.8-23.6L145.4,106.3z"/>
	<path class="st2" d="M103.3,84c3.1,0,5.5-2.5,5.6-5.5s-2.5-5.5-5.5-5.6s-5.5,2.5-5.6,5.5l0,0C97.8,81.5,100.3,84,103.3,84L103.3,84
		z"/>
	<path class="st2" d="M154.8,126.7H83.4c-1.1,0-2-0.9-2-2s0.9-2,2-2h71.4c1.1,0,2,0.9,2,2C156.8,125.8,155.9,126.7,154.8,126.7z"/>
	<path class="st2" d="M154.8,137.8H83.4c-1.1,0-2-0.9-2-2s0.9-2,2-2h71.4c1.1,0,2,0.9,2,2C156.8,136.9,155.9,137.8,154.8,137.8z"/>
	<path class="st2" d="M118.6,146.9c0,1.1-0.9,2-2,2H83.4c-1.1,0-2-0.9-2-2s0.9-2,2-2h33.3C117.8,144.9,118.6,145.8,118.6,146.9z"/>
	<path class="st2" d="M120.1,45.4H83.4c-1.1,0-2-0.9-2-2s0.9-2,2-2h36.7c1.1,0,2,0.9,2,2C122,44.5,121.1,45.4,120.1,45.4z"/>
	<path class="st2" d="M99.6,56.5H83.4c-1.1,0-2-0.9-2-2s0.9-2,2-2h16.2c1.1,0,2,0.9,2,2C101.5,55.6,100.6,56.4,99.6,56.5z"/>
	
		<linearGradient id="SVGID_1_" gradientUnits="userSpaceOnUse" x1="-347.7752" y1="15.0977" x2="-347.7752" y2="16.0217" gradientTransform="matrix(30.6982 0 0 41.0875 10801.2754 -475.8407)">
		<stop  offset="0" style="stop-color:#917CC4"/>
		<stop  offset="1" style="stop-color:#917CC4"/>
	</linearGradient>
	<path class="st6" d="M133.2,177.1c-1,2.9-3,5.3-5.7,6.8c-9.6,5-20.1-4.5-17.1-14.7h3c-3.6,11.6,10.2,17.2,15.9,9.5
		c1.4-1.8,1.1-1.8,8-24.1c1.8-5.9-3.9-8.9-8-6.8c-2.7,1.4-2.3,2.1-8.4,21.4c-0.1,0.2-0.2,0.5-0.2,0.7c-0.3,1.2,0.4,2.5,1.6,2.8
		c0.2,0.1,0.5,0.1,0.7,0.1c1.6,0,1.8-2.1,2.3-3.6c2.7-8.6,3.2-10.2,3.2-10.4c0.7-1.6,3.4-1.1,2.7,1.3c-4.1,14.1-4.1,14.1-6.1,15
		c-4.5,2.3-8.7-2.9-7.3-5.9c6.2-20.2,6.1-22.2,9.8-23.9c5.9-3,12.1,0.5,12.8,6.3C140.7,153.3,141.1,152.8,133.2,177.1z"/>
</g>
</svg>
