<?xml version="1.0" encoding="utf-8"?>
<!-- Generator: Adobe Illustrator 27.0.1, SVG Export Plug-In . SVG Version: 6.00 Build 0)  -->
<svg version="1.1" id="Layer_1" xmlns="http://www.w3.org/2000/svg" xmlns:xlink="http://www.w3.org/1999/xlink" x="0px" y="0px"
	 viewBox="0 0 193.5 201.5" style="enable-background:new 0 0 193.5 201.5;" xml:space="preserve">
<style type="text/css">
	.st0{fill:#FEFBF7;}
	.st1{fill:url(#Path-6_00000160152788236518536780000006904521936171659178_);}
	.st2{fill:url(#Path-8_00000064317716860753943250000008542532378031098762_);}
	.st3{filter:url(#Path);}
	.st4{fill:#FFFFFF;}
	.st5{fill:#E4E9F2;}
	.st6{fill:#DAE1ED;}
	.st7{fill:url(#Shape_00000003808238418566640920000002773333970738924943_);}
	.st8{filter:url(#Path-2);}
	.st9{fill:url(#Path-19_00000083791166172566602510000005285453614828478081_);}
	.st10{opacity:0.3;fill:#FFFFFF;enable-background:new    ;}
	.st11{fill:#F1F3F8;}
	.st12{fill:url(#Path-22_00000183943187490473222490000007695287361652432531_);}
	.st13{fill:url(#Path-23_00000081635527171938668410000007383591898261200566_);}
	.st14{fill:#F8CD9A;}
	.st15{fill:none;stroke:#FFFFFF;stroke-width:1.492;stroke-linecap:round;stroke-linejoin:round;stroke-miterlimit:10;}
</style>
<filter  filterUnits="userSpaceOnUse" height="78.096" id="Path-2" width="76.968" x="116.576" y="70.038">
	<feOffset  dy="5"></feOffset>
	<feGaussianBlur  result="blur-2" stdDeviation="4"></feGaussianBlur>
	<feFlood  flood-color="#1d4bff" flood-opacity=".22"></feFlood>
	<feComposite  in2="blur-2" operator="in"></feComposite>
	<feComposite  in="SourceGraphic" operator="over"></feComposite>
</filter>
<filter  filterUnits="userSpaceOnUse" height="201.462" id="Path" width="164.737" x="8.089" y="0">
	<feOffset  dy="11"></feOffset>
	<feGaussianBlur  result="blur" stdDeviation="11"></feGaussianBlur>
	<feFlood  flood-color="#657a93" flood-opacity=".18"></feFlood>
	<feComposite  in2="blur" operator="in"></feComposite>
	<feComposite  in="SourceGraphic" operator="over"></feComposite>
</filter>
<g id="_47" transform="translate(0 8.031)">
	<path id="Path-3" class="st0" d="M168,81.9c0,16.7-5.4,32.9-15.5,46.2c-5.3,6.9-11.8,12.9-19.2,17.6
		c-35.3,22.9-82.5,12.9-105.5-22.5S15.1,40.7,50.4,17.8c12.3-8,26.7-12.3,41.4-12.3c14.7,0,29.2,4.3,41.5,12.3
		c7.3,4.8,13.8,10.8,19.2,17.8C162.7,48.9,168.1,65.2,168,81.9z"/>
	<path id="Path-4" class="st0" d="M23.8,18.5c2.2-0.7,3.4-3,2.6-5.2c-0.7-2.2-3-3.4-5.2-2.6c-2.2,0.7-3.4,3-2.6,5.2
		C19.3,18.1,21.6,19.2,23.8,18.5C23.8,18.5,23.8,18.5,23.8,18.5z"/>
	<path id="Path-5" class="st0" d="M32.7,5.1c1.4-0.4,2.1-1.9,1.7-3.3c-0.4-1.4-1.9-2.1-3.3-1.7C29.7,0.6,29,2,29.4,3.4
		C29.9,4.8,31.3,5.5,32.7,5.1C32.7,5.1,32.7,5.1,32.7,5.1z"/>
	
		<linearGradient id="Path-6_00000141441353919658069740000014486339805482773137_" gradientUnits="userSpaceOnUse" x1="-161.6857" y1="452.0562" x2="-160.7137" y2="452.0562" gradientTransform="matrix(5.22 0 0 -5.22 843.9968 2449.0339)">
		<stop  offset="0" style="stop-color:#FCEAD4"/>
		<stop  offset="1" style="stop-color:#FBE0C0"/>
	</linearGradient>
	<path id="Path-6" style="fill:url(#Path-6_00000141441353919658069740000014486339805482773137_);" d="M2.6,91.9
		c1.4,0,2.6-1.2,2.6-2.6c0-1.4-1.2-2.6-2.6-2.6c-1.4,0-2.6,1.2-2.6,2.6C0,90.7,1.2,91.9,2.6,91.9z"/>
	<path id="Path-7" class="st0" d="M170.3,46.1c2.4-2.2,2.6-5.9,0.4-8.2c-2.2-2.4-5.9-2.6-8.2-0.4c-2.4,2.2-2.6,5.9-0.4,8.2
		c0,0,0,0,0,0C164.2,48.1,167.9,48.3,170.3,46.1C170.3,46.1,170.3,46.1,170.3,46.1z"/>
	
		<linearGradient id="Path-8_00000003792742992199582550000004951816939197288075_" gradientUnits="userSpaceOnUse" x1="-159.2935" y1="448.2653" x2="-158.3235" y2="448.2653" gradientTransform="matrix(4.916 0 0 -4.916 949.7028 2221.9451)">
		<stop  offset="0" style="stop-color:#AE9ED3"/>
		<stop  offset="1" style="stop-color:#917CC4"/>
	</linearGradient>
	<path id="Path-8" style="fill:url(#Path-8_00000003792742992199582550000004951816939197288075_);" d="M169,20.7
		c1.4,0,2.5-1.1,2.5-2.5c0-1.4-1.1-2.5-2.5-2.5c-1.4,0-2.5,1.1-2.5,2.4C166.5,19.6,167.6,20.7,169,20.7z"/>
	<path id="Path-9" class="st0" d="M91.4,10.1c1.4,0,2.6-1.2,2.6-2.6s-1.2-2.6-2.6-2.6c-1.4,0-2.6,1.2-2.6,2.6c0,0,0,0,0,0
		C88.8,9,89.9,10.1,91.4,10.1C91.4,10.1,91.4,10.1,91.4,10.1z"/>
	<g transform="translate(0 -8.03)" class="st3">
		<path id="Path-10_00000147194645587909521550000005345928567343026856_" class="st4" d="M139.8,22H41.1v135.5h98.7V22z"/>
	</g>
	<path id="Path-11" class="st5" d="M54.1,52.8c-0.7,0-1.2-0.6-1.2-1.2c0-0.7,0.6-1.2,1.2-1.2h72.5c0.7,0,1.2,0.6,1.2,1.2
		c0,0.7-0.6,1.2-1.2,1.2L54.1,52.8z"/>
	<path id="Path-12" class="st5" d="M54.1,62c-0.7,0-1.2-0.6-1.2-1.2c0-0.7,0.6-1.2,1.2-1.2h72.5c0.7,0,1.2,0.6,1.2,1.2
		c0,0.7-0.6,1.2-1.2,1.2L54.1,62z"/>
	<path id="Path-13" class="st5" d="M54.1,71.2c-0.7,0-1.2-0.6-1.2-1.2c0-0.7,0.6-1.2,1.2-1.2h72.5c0.7,0,1.2,0.6,1.2,1.2
		c0,0.7-0.6,1.2-1.2,1.2H54.1z"/>
	<path id="Path-14" class="st5" d="M54.1,80.5c-0.7,0-1.2-0.6-1.2-1.2c0-0.7,0.6-1.2,1.2-1.2h72.5c0.7,0,1.2,0.6,1.2,1.2
		c0,0.7-0.6,1.2-1.2,1.2L54.1,80.5z"/>
	<path id="Path-15" class="st5" d="M54.1,89.7c-0.7,0-1.2-0.6-1.2-1.2c0-0.7,0.6-1.2,1.2-1.2h72.5c0.7,0,1.2,0.6,1.2,1.2
		c0,0.7-0.6,1.2-1.2,1.2L54.1,89.7z"/>
	<path id="Path-16" class="st5" d="M54.1,99c-0.7,0-1.2-0.6-1.2-1.2c0-0.7,0.6-1.2,1.2-1.2H86c0.7,0,1.2,0.6,1.2,1.2
		c0,0.7-0.6,1.2-1.2,1.2L54.1,99z"/>
	<path id="Path-17" class="st6" d="M107.3,29.6H73.4c-0.8,0-1.4-0.6-1.4-1.4c0-0.8,0.6-1.4,1.4-1.4h33.9c0.8,0,1.4,0.6,1.4,1.4
		C108.7,29,108.1,29.6,107.3,29.6z"/>
	<path id="Path-18" class="st6" d="M98.7,36.8H82c-0.8,0-1.4-0.6-1.4-1.4c0,0,0,0,0,0c0-0.8,0.6-1.4,1.4-1.4c0,0,0,0,0,0h16.7
		c0.8,0,1.4,0.6,1.4,1.4c0,0,0,0,0,0C100.1,36.2,99.5,36.8,98.7,36.8C98.8,36.8,98.7,36.8,98.7,36.8z"/>
	
		<linearGradient id="Shape_00000155125298048543841400000017697437902134712224_" gradientUnits="userSpaceOnUse" x1="-194.175" y1="499.8835" x2="-193.18" y2="499.8835" gradientTransform="matrix(34.3583 0 0 -23.747 6763.3242 11993.2217)">
		<stop  offset="0" style="stop-color:#FCEAD4"/>
		<stop  offset="1" style="stop-color:#FBE0C0"/>
	</linearGradient>
	<path id="Shape" style="fill:url(#Shape_00000155125298048543841400000017697437902134712224_);" d="M92.1,133.8
		c-0.3-0.5-0.2-1.2,0.3-1.5c0.8-0.5,1.5-1.1,2.1-1.7c-3.4-4.1-3.8-11.5-1.4-16.3c2.4-4.4,7.8-4.9,9.8-1.2c0.9,1.9,1.2,4.1,0.8,6.1
		c-0.5,3.9-2.2,7.6-4.8,10.6v0.2c2.5-0.3,4.9-1.1,7.1-2.3c0.3-0.1,0.5-0.4,0.5-0.8c0.2-3.8-0.5-5.4,1.7-8c0.8-1,2.2-1.3,3.4-0.8
		c1.2,0.4,2,1.5,2.1,2.8c0.2,1.9-0.4,3.7-1.7,5.1c-2.6,2.9-3.2,2-2.6,3.8c0.2,0.6,0.8,0.3,1.1,0.2c1-0.6,1.9-1.2,2.8-2
		c2.3-2.5,3.1-5.7,5.5-5.1c1.5,0.5,1.7,2,2,4.1c0.9-1.5,1.8-3.1,3.5-3.8c0.6-0.3,1.3,0,1.6,0.6c0.1,0.2,0.1,0.3,0.1,0.5
		c0,0.5-0.3,0.9-0.8,1.1c-1.4,0.8-1.8,2.6-3.1,4c-1.1,1.4-2.8,1.1-3.4-0.6c-0.3-0.9-0.3-1.8-0.6-2.9c-1.3,1.8-2.8,3.5-4.3,5.1
		c-1,0.9-2.3,1.5-3.7,1.7c-1.8,0.2-2.8-0.5-3.2-2.1c-0.1-0.1-0.1-0.2-0.2-0.3c-0.2,0-4.3,1.5-4.9,1.7c-1.3,0.2-2.7,0.3-4,0.3
		c-0.5-0.1-0.9-0.1-1.4,0c-0.3,0.2-0.2,0-2.6,2c-0.2,0.2-0.5,0.3-0.8,0.3C92.8,134.4,92.4,134.2,92.1,133.8z"/>
	<g transform="translate(0 -8.03)" class="st8">
		
			<linearGradient id="Path-19_00000141425774609682887720000005419044027340742041_" gradientUnits="userSpaceOnUse" x1="-196" y1="515.8779" x2="-195.4429" y2="515.0439" gradientTransform="matrix(52.9729 0 0 -54.1 10523.1611 27991.2383)">
			<stop  offset="0" style="stop-color:#FCEAD4"/>
			<stop  offset="1" style="stop-color:#FBE0C0"/>
		</linearGradient>
		
			<path id="Path-19_00000142171683220098012160000010960455240376230846_" style="fill:url(#Path-19_00000141425774609682887720000005419044027340742041_);" d="
			M180.9,80.5c-2.1,3.1-4.3,6-6.1,9.2c-2.6,4.3-4,3.1-10.6,5.1l5.8,1.4c0.2,0,0.2,0,0.3,0.2c0.3,0.2,0.4,0.7,0.2,1.1c0,0,0,0,0,0
			c-0.9,1.4-1.8,2.8-2.8,4.1c-6.9,9.2-17,15.5-28.4,17.6c-1.5,0.3-2.9,1.3-3.5,2.8c-1.4,2.8-2.6,5.5-4,8.3c-0.4,0.8-1.3,1.2-2.1,0.9
			c-0.1,0-0.1-0.1-0.2-0.1c-0.8-0.4-1.2-1.3-0.9-2.1c0-0.1,0.1-0.1,0.1-0.2c0.8-1.7,1.5-3.4,2.3-4.9c0.5-1.3,0.5-2.8,0-4.1
			c-0.8-2.4-1.3-4.9-1.5-7.5c0.1-2.5,0.4-5.1,1.1-7.5c1-4,2.7-7.8,4.9-11.2l0.2-0.2c0.2,0,0.5,0,0.5,0.3c0.2,0.6,0.4,1.2,0.6,1.8
			c0.3-1.5,0.8-3.1,1.2-4.6c0.2-0.7,0.6-1.3,1.1-1.8c2.4-2.5,5.2-4.6,8.3-6.3h0.2c0.2,0,0.3,0.1,0.3,0.3v2.9
			c1.2-1.8,2.6-3.5,4.1-5.1c0.5-0.5,1-0.9,1.7-1.1c8.6-3.1,17.9-3.5,26.7-1.1C181.8,78.9,181.8,79.2,180.9,80.5z"/>
	</g>
	<path id="Path-20" class="st10" d="M165,79.3c-17.3,6.4-26.5,20.7-33.9,36.2c0.5-1.3,0.5-2.8,0-4.1c-0.3-0.9-0.5-1.7-0.8-2.6
		c0.2,0,0.2-0.2,0.3-0.2c7.5-14.3,16.9-26.5,33.1-32.7c0.9-0.3,1.8,0.1,2.1,1c0,0,0,0.1,0,0.1C166.2,77.9,165.8,78.9,165,79.3z"/>
	<path id="Path-21" class="st11" d="M59.8,36.5c0,6.4-2.6,12.4-7.4,16.7c-1.2,1.1-2.6,2.1-4,2.9c-3.5,2.1-7.5,3.1-11.5,3.1
		c-4,0-8-1-11.5-3.1c-0.5-0.3-1.1-0.6-1.5-0.9C17.7,51,14.1,44,14.1,36.5c0-12.6,10.2-22.8,22.8-22.8S59.8,23.9,59.8,36.5z"/>
	<path id="Shape-2" class="st4" d="M25.4,55.7l-1.4-0.5v-0.3c0.4-2.5,1.6-4.7,3.5-6.3c0.4-0.2,0.8-0.4,1.2-0.5
		c-0.3,0-0.5-0.1-0.8-0.2c-0.2,0-0.2,0-0.3-0.2c-0.5-0.1-1-0.4-1.4-0.8c-0.2-0.2-0.3-0.2-0.3-0.3l-0.3-0.3l-0.3-0.3
		c-0.2-0.1-0.3-0.4-0.3-0.6C25,45.4,25,45.3,24.8,45c0-0.2-0.2-0.3-0.2-0.6c-0.1-0.6,0-1.1,0.2-1.7c0-0.2,0.2-0.3,0.2-0.5
		c0.2-0.3,0.2-0.5,0.3-0.8c0.2-0.3,0.4-0.5,0.6-0.8c0.2-0.2,0.2-0.2,0.3-0.3l0.5-0.5c0.3-0.3,0.7-0.5,1.1-0.8
		c0.6-0.3,1.2-0.6,1.8-0.8l1.1-0.3c0.1,0,0.2-0.1,0.2-0.1c0,0,0,0,0,0c-0.9-0.8-1.8-0.6-2.3-2c-0.2-0.6-0.1-1.3,0.2-1.8
		c0-0.2,0.2-0.2,0.2-0.3c0.2-0.3,0.2-0.2,0-0.5v-2.6c0-0.8,0.2-1.6,0.5-2.3c0.5-1.5,1.3-2.8,2.5-3.8l0.2-0.2
		c0.2-0.2,0.5-0.3,0.6-0.5c1.1-0.8,2.3-1.3,3.5-1.7c0.7-0.2,1.4-0.3,2.1-0.3h1.1c0.3,0,0.6,0,0.9,0.2c0.3,0,0.6,0.1,0.9,0.3
		c0.3,0,0.5,0.2,0.8,0.3c0.5,0.2,1,0.5,1.4,0.8c0.3,0.1,0.7,0.4,0.9,0.6l0.2,0.2c0.3,0.2,0.6,0.4,0.8,0.8c0.6,0.7,1.1,1.4,1.5,2.1
		c0.2,0.3,0.3,0.6,0.5,0.9c0.1,0.2,0.2,0.4,0.2,0.6c0,0.2,0.2,0.3,0.2,0.5c0.1,0.4,0.2,0.8,0.2,1.2v2.1c0.1,0.6,0.2,1.2,0.5,1.7
		c0.1,1.3-0.7,2.4-2,2.8c-0.3,1.3-0.8,2.5-1.5,3.5c-0.7,1-1.6,1.9-2.6,2.8v3.2c0,0,0.2,0.3,1.7,0.3h1.4c1.1,0,2.2,0.3,3.2,0.8
		c1.9,1,3.4,2.6,4.3,4.6c0.2,0.2,0.2,0.5,0.3,0.6c-1.2,1.1-2.6,2.1-4,2.9L25.4,55.7z"/>
	
		<linearGradient id="Path-22_00000026843539732526074770000015288975975458012863_" gradientUnits="userSpaceOnUse" x1="-192.9844" y1="488.8232" x2="-191.9864" y2="488.8232" gradientTransform="matrix(28.516 0 0 -13.0423 5527.1182 6428.0728)">
		<stop  offset="0" style="stop-color:#AE9ED3"/>
		<stop  offset="1" style="stop-color:#917CC4"/>
	</linearGradient>
	<path id="Path-22" style="fill:url(#Path-22_00000026843539732526074770000015288975975458012863_);" d="M52.4,53.2
		c-1.2,1.1-2.6,2.1-4,2.9c-3.5,2.1-7.5,3.1-11.5,3.1c-4,0-8-1-11.5-3.1c-0.5-0.3-1.1-0.6-1.5-0.9v-0.3c0.4-2.5,1.6-4.7,3.5-6.3
		c0.4-0.2,0.8-0.4,1.2-0.5c-0.3,0-0.5-0.1-0.8-0.2c-0.2,0-0.2,0-0.3-0.2h-0.2c-0.2,0-0.4-0.1-0.6-0.3c-0.2-0.1-0.4-0.3-0.6-0.5
		c-0.2-0.2-0.3-0.2-0.3-0.3l-0.3-0.3l-0.3-0.3h5.4c1.5,2,3.8,3.3,6.3,3.4h0.5c2.3,0,4.5-0.9,6-2.6h1.4c1.1,0,2.2,0.3,3.2,0.8
		c1.9,1,3.4,2.6,4.3,4.6C52.2,52.6,52.3,53,52.4,53.2z"/>
	
		<linearGradient id="Path-23_00000051351928901844968580000015892033593916081035_" gradientUnits="userSpaceOnUse" x1="-177.0053" y1="418.4059" x2="-177.0053" y2="418.8589" gradientTransform="matrix(8.891 0 0 -3.374 1611.011 1457.1837)">
		<stop  offset="0" style="stop-color:#FFFFFF"/>
		<stop  offset="0.991" style="stop-color:#EEF1F7"/>
	</linearGradient>
	<path id="Path-23" style="fill:url(#Path-23_00000051351928901844968580000015892033593916081035_);" d="M41.7,43.4v3.1l-8.9,0.3
		l0.5-2c0.2,0,0.2,0.2,0.3,0.2c0.3,0.1,0.7,0.4,0.9,0.6c0.2,0.2,0.4,0.4,0.6,0.5l0.2,0.2v-2L35.1,44C36.5,44.6,38.6,45.1,41.7,43.4z
		"/>
	<path id="Path-24" class="st14" d="M47.4,31.2c-1.8,0.6-3.6,0.9-5.5,0.8c-3-0.2-5.8-1.4-8-3.4c-0.9,2.1-2.5,3.7-4.6,4.6
		c-0.2,0.1-0.5,0.2-0.8,0.3v-0.2c-0.2-1.5-0.1-3.1,0.5-4.6c0.4-1.5,1.3-2.8,2.5-3.8l0.2-0.2c0.2-0.2,0.5-0.3,0.6-0.5
		c1.1-0.8,2.3-1.4,3.5-1.7c0.7-0.2,1.4-0.3,2.1-0.3c3.5,0,6.8,1.9,8.4,5.1c0.5,1,0.9,2.1,1.1,3.2V31.2z"/>
	<path id="Path-25" class="st14" d="M36.2,52c-0.8,0.9-2.1,1.1-3.5,0.9c1.2-1.2,0.6-5.4-4-4.9c-6.3-1.2-5.5-7.7,0.5-9.5l1.1-0.3
		l0.2,0.2c0.4,1.2,1.1,2.3,1.8,3.2c-2.5,2.1,0.9,2.8,2.6,4.3C36.3,46.6,37.6,50.3,36.2,52z"/>
	<path id="Path-26" class="st15" d="M59.8,36.5c0,6.4-2.6,12.4-7.4,16.7c-1.2,1.1-2.6,2.1-4,2.9c-3.5,2.1-7.5,3.1-11.5,3.1
		c-4,0-8-1-11.5-3.1c-0.5-0.3-1.1-0.6-1.5-0.9C17.7,51,14.1,44,14.1,36.5c0-12.6,10.2-22.8,22.8-22.8S59.8,23.9,59.8,36.5z"/>
	<path id="Shape-3" class="st5" d="M62.9,134c-1.8-1.4-2.5-1.7-3.7-1.8c-1.5-0.2-2.9-0.3-3.4-2c-0.1-0.4-0.2-0.8-0.2-1.2
		c-0.2-1.1-0.6-2.2-1.4-3.1c-1.1-1.2-1.8-2.3-1.1-3.7c0.9-1.5,1.8-2.1,1.8-4c0-0.5,0-1,0.1-1.5c0.3-1.2,1.4-2.1,2.6-2.1
		c0.5,0,0.9-0.2,1.4-0.2c1.5-0.2,2-1.2,4-2c0.6-0.3,1.3-0.2,1.8,0.2c0.5,0.3,0.9,0.6,1.5,1.1c1.4,1.1,2.3,0.6,4.3,1.2
		c0.8,0.3,1.4,1,1.5,1.8c0,1,0.2,1.9,0.6,2.8c0.8,1.5,2.3,2.3,2.1,4c0,0.3-0.1,0.7-0.3,0.9c-0.8,1-1.4,2.2-1.8,3.4
		c-0.1,0.4-0.2,0.8-0.2,1.2c0.1,0.8-0.3,1.6-0.9,2.1c-1.8,1.8-3.5,0.5-5.2,2.1c-0.6,0.7-1.5,1.2-2.5,1.2
		C63.8,134.5,63.3,134.3,62.9,134z"/>
	<path id="Path-27" class="st5" d="M60.2,118.4c3-2,7-1.2,9,1.8c0,0,0,0,0,0c1.9,2.8,1.3,6.6-1.5,8.6l-0.2,0.2c-3,1.9-7,1.1-9-1.8
		c-1.9-2.8-1.3-6.6,1.5-8.6C60,118.4,60,118.4,60.2,118.4z"/>
</g>
</svg>
