<?xml version="1.0" encoding="utf-8"?>
<!-- Generator: Adobe Illustrator 27.0.1, SVG Export Plug-In . SVG Version: 6.00 Build 0)  -->
<svg version="1.1" id="Layer_1" xmlns="http://www.w3.org/2000/svg" xmlns:xlink="http://www.w3.org/1999/xlink" x="0px" y="0px"
	 viewBox="0 0 167 195.6" style="enable-background:new 0 0 167 195.6;" xml:space="preserve">
<style type="text/css">
	.st0{fill:#EAEEF9;}
	.st1{filter:url(#Path);}
	.st2{fill:#FFFFFF;}
	.st3{fill:#F8CD9A;}
	.st4{fill:url(#Shape-2_00000000945551637854414780000001178984403447800724_);}
	.st5{fill:url(#Path-15_00000014621950529958126430000006236802229112847277_);}
	.st6{fill:url(#Path-16_00000099658428794930684950000013513733853120454538_);}
	.st7{filter:url(#Path-2);}
	.st8{fill:url(#Path-17_00000158712261977188109140000009037795881247073470_);}
	.st9{fill:url(#Path-18_00000118376156611339840420000004878992381080428950_);}
	.st10{fill:url(#Path-19_00000037659384936450190140000005368968183554628225_);}
	.st11{fill:url(#Path-20_00000003788046361132830320000015824083679850760093_);}
	.st12{fill:url(#Path-21_00000096021409214597534000000001614866927018307981_);}
</style>
<filter  filterUnits="userSpaceOnUse" height="75.181" id="Path-2" width="75.201" x="81.44" y="107.356">
	<feOffset  dy="5"></feOffset>
	<feGaussianBlur  result="blur-2" stdDeviation="4"></feGaussianBlur>
	<feFlood  flood-color="#1d4bff" flood-opacity=".22"></feFlood>
	<feComposite  in2="blur-2" operator="in"></feComposite>
	<feComposite  in="SourceGraphic" operator="over"></feComposite>
</filter>
<filter  filterUnits="userSpaceOnUse" height="195.646" id="Path" width="166.574" x=".385" y="0">
	<feOffset  dy="11"></feOffset>
	<feGaussianBlur  result="blur" stdDeviation="11"></feGaussianBlur>
	<feFlood  flood-color="#657a93" flood-opacity=".18"></feFlood>
	<feComposite  in2="blur" operator="in"></feComposite>
	<feComposite  in="SourceGraphic" operator="over"></feComposite>
</filter>
<g id="_34" transform="translate(0 6.068)">
	<path id="Path-3" class="st0" d="M82.6,153.7c38.6,0.1,70.1-31.1,70.2-69.7c0.1-38.6-31.1-70.1-69.7-70.2
		C44.4,13.7,13,44.9,12.9,83.5c0,0.1,0,0.2,0,0.2C12.8,122.4,44,153.7,82.6,153.7C82.6,153.7,82.6,153.7,82.6,153.7z"/>
	<path id="Path-4" class="st0" d="M14,42.8c1.8-0.6,2.9-2.6,2.3-4.4c-0.6-1.8-2.6-2.9-4.4-2.3C10,36.7,9,38.7,9.6,40.5c0,0,0,0,0,0
		C10.2,42.4,12.2,43.4,14,42.8z"/>
	<path id="Path-5" class="st0" d="M21.7,31.3c1.3-0.4,2-1.7,1.6-3c-0.4-1.3-1.7-2-3-1.6c-1.3,0.4-2,1.7-1.6,3c0,0,0,0,0,0
		C19.1,31,20.4,31.7,21.7,31.3z"/>
	<path id="Path-6" class="st0" d="M159.6,66.2c2.1-2,2.2-5.4,0.2-7.6c-2-2.1-5.2-2.2-7.4-0.3c-2.1,2-2.2,5.4-0.2,7.6
		C154.2,67.9,157.5,68.1,159.6,66.2z"/>
	<path id="Path-7" class="st0" d="M160,42.2c0.9-0.9,0.9-2.3,0.1-3.2c-0.8-0.9-2.2-0.9-3.1-0.1c-0.9,0.8-1,2.3-0.1,3.2
		C157.7,43,159.1,43.1,160,42.2C160,42.2,160,42.2,160,42.2z"/>
	<g transform="translate(0 -6.07)" class="st1">
		<path id="Path-8_00000088849218935276140940000018010157327709523897_" class="st2" d="M132.8,53.9L134,146c0,3.1-2.5,5.6-5.6,5.6
			H39c-3.1,0-5.6-2.5-5.6-5.6V27.6c0-3.1,2.5-5.6,5.6-5.6h64.8L132.8,53.9z"/>
	</g>
	<path id="Path-9" class="st3" d="M76.9,127.3h-3.2c-0.7,0-1.3-0.6-1.3-1.3c0-0.7,0.6-1.3,1.3-1.3c0,0,0,0,0,0h3.2
		c0.7,0,1.3,0.6,1.3,1.3C78.1,126.7,77.6,127.3,76.9,127.3C76.9,127.3,76.9,127.3,76.9,127.3z"/>
	<path id="Path-10" class="st3" d="M67.8,127.3H48.8c-0.7,0-1.3-0.6-1.3-1.3c0-0.7,0.6-1.3,1.3-1.3c0,0,0,0,0,0h18.9
		c0.7,0,1.3,0.6,1.3,1.2c0,0,0,0,0,0C69.2,126.7,68.6,127.3,67.8,127.3z"/>
	<path id="Path-11" class="st3" d="M92.6,35.2H49.8c-1,0-1.8-0.8-1.8-1.8c0-1,0.8-1.8,1.8-1.8h42.8c1,0,1.8,0.8,1.8,1.8
		C94.4,34.4,93.6,35.2,92.6,35.2z"/>
	<path id="Path-12" class="st3" d="M66.1,45.5H49.8c-1,0-1.8-0.8-1.8-1.8c0-1,0.8-1.8,1.8-1.8h16.4c1,0,1.8,0.8,1.8,1.8
		C68,44.7,67.1,45.5,66.1,45.5z"/>
	<path id="Path-13" class="st3" d="M103.8,16.1v25.3c0.1,3.6,3,6.4,6.6,6.5h22.4"/>
	<path id="Shape" class="st3" d="M51.3,112.9c-2.4-0.1-4.4-2.1-4.3-4.5V69.3c-0.1-2.4,1.9-4.4,4.3-4.5c0,0,0,0,0,0h67.5
		c2.4,0,4.3,2,4.2,4.4c0,0,0,0.1,0,0.1v39.1c0.1,2.4-1.9,4.5-4.3,4.5c0,0,0,0,0,0L51.3,112.9z"/>
	<path id="Path-14" class="st0" d="M41,67.6H20.5c-1.1,0-1.9-0.8-1.9-1.9c0,0,0,0,0,0v-9.4c0-1.1,0.8-1.9,1.9-1.9c0,0,0,0,0,0H41
		c1.1,0,1.9,0.8,1.9,1.9c0,0,0,0,0,0v9.4C43,66.7,42.1,67.6,41,67.6z"/>
	
		<linearGradient id="Shape-2_00000145754701848636800300000017228697955796382909_" gradientUnits="userSpaceOnUse" x1="-198.4424" y1="488.9478" x2="-197.4424" y2="488.9478" gradientTransform="matrix(13.7553 0 0 -13.8187 2729.6392 6869.4131)">
		<stop  offset="0" style="stop-color:#917CC4"/>
		<stop  offset="1" style="stop-color:#917CC4"/>
	</linearGradient>
	<path id="Shape-2" style="fill:url(#Shape-2_00000145754701848636800300000017228697955796382909_);" d="M6.2,119.7
		c-0.3,0-0.5-0.2-0.6-0.5c0,0,0-0.1,0-0.1l-0.1-0.3c0-0.3-0.1-0.4-0.4-0.6s-0.4-0.1-0.6-0.3c-0.2-0.2-0.5-0.2-0.7,0l-0.4,0.3
		c-0.2,0.2-0.5,0.3-0.7,0.1c0,0-0.1-0.1-0.1-0.1l-0.8-0.8c-0.1-0.3-0.1-0.6,0-0.8l0.3-0.4c0.1-0.2,0.1-0.5,0-0.7
		c-0.1-0.2-0.2-0.3-0.3-0.6c-0.1-0.1-0.3-0.4-0.6-0.4l-0.6-0.2c-0.3-0.1-0.5-0.4-0.6-0.7v-1.3c0-0.3,0.2-0.7,0.6-0.7l0.6-0.1
		c0.3-0.2,0.4-0.3,0.4-0.4c0.1-0.3,0.1-0.4,0.3-0.6c0.1-0.2,0.1-0.5,0-0.7l-0.3-0.6c-0.2-0.2-0.3-0.5-0.1-0.7c0,0,0.1-0.1,0.1-0.1
		l1-0.8c0.3-0.1,0.6-0.1,0.8,0l0.4,0.3c0.2,0.1,0.5,0.1,0.7,0c0.3-0.1,0.4-0.3,0.6-0.3c0.1-0.1,0.4-0.3,0.4-0.6v-0.6
		c0.1-0.3,0.4-0.5,0.7-0.6h1.3c0.4,0,0.7,0.2,0.7,0.6l0.1,0.6c0,0.3,0.1,0.6,0.4,0.6c0.3,0.1,0.4,0.1,0.6,0.3c0.2,0.1,0.5,0.1,0.7,0
		l0.4-0.3c0.2-0.2,0.5-0.3,0.8-0.1c0,0,0.1,0.1,0.1,0.1l0.8,1c0.1,0.3,0.1,0.6,0,0.8l-0.3,0.4c-0.1,0.2-0.1,0.5,0,0.7
		c0.1,0.3,0.3,0.4,0.3,0.6c0.1,0.1,0.3,0.4,0.6,0.4h0.6c0.3,0,0.6,0.3,0.6,0.8v1.3c0,0.3-0.2,0.7-0.6,0.7c0,0,0,0,0,0l-0.6,0.1
		c-0.3,0-0.4,0.1-0.6,0.4s-0.1,0.4-0.3,0.6c-0.1,0.2-0.1,0.5,0,0.7l0.3,0.4c0.2,0.2,0.3,0.5,0.1,0.7c0,0-0.1,0.1-0.1,0.1l-0.8,0.8
		c-0.3,0.2-0.6,0.2-0.8,0l-0.4-0.6c-0.2-0.1-0.5-0.1-0.7,0C9,117.9,8.8,118,8.7,118c-0.1,0.1-0.4,0.3-0.4,0.6l-0.1,0.6
		c-0.1,0.3-0.4,0.5-0.7,0.6L6.2,119.7z"/>
	
		<linearGradient id="Path-15_00000152258215064516686210000002256761548316550528_" gradientUnits="userSpaceOnUse" x1="-203.5848" y1="496.0501" x2="-202.6119" y2="496.2673" gradientTransform="matrix(20.573 0 0 -19.9687 4314.0283 9920.5068)">
		<stop  offset="0" style="stop-color:#917CC4"/>
		<stop  offset="1" style="stop-color:#917CC4"/>
	</linearGradient>
	<path id="Path-15" style="fill:url(#Path-15_00000152258215064516686210000002256761548316550528_);" d="M144.6,10.9l-8.1,1.8
		c-0.4,0.1-0.9-0.1-1-0.5c0,0,0,0,0,0L133.6,4c-0.1-0.6-0.6-1-1.2-0.9c-0.1,0-0.1,0-0.2,0h-0.1c-5.3,2-8,7.9-6,13.3
		c2,5.3,7.9,8,13.3,6c4.3-1.6,7-5.8,6.6-10.4c0-0.6-0.5-1.1-1.2-1.1c0,0-0.1,0-0.1,0C144.6,10.8,144.6,10.8,144.6,10.9z"/>
	
		<linearGradient id="Path-16_00000120553577340176522510000017840581905080444336_" gradientUnits="userSpaceOnUse" x1="-195.8716" y1="480.3221" x2="-195.0316" y2="480.5371" gradientTransform="matrix(11.8519 0 0 -10.1015 2457.585 4857.3071)">
		<stop  offset="0" style="stop-color:#917CC4"/>
		<stop  offset="1" style="stop-color:#917CC4"/>
	</linearGradient>
	<path id="Path-16" style="fill:url(#Path-16_00000120553577340176522510000017840581905080444336_);" d="M135.3,1.2l1.8,8.2
		c0.1,0.5,0.5,0.8,1,0.7c0,0,0.1,0,0.1,0l8.1-1.8c0.5-0.1,0.8-0.5,0.7-1c0,0,0-0.1,0-0.1c-1.5-4.6-6.1-7.6-10.9-7
		C135.6,0.2,135.2,0.7,135.3,1.2z"/>
	<g transform="translate(0 -6.07)" class="st7">
		
			<linearGradient id="Path-17_00000023974265773344562680000006010558845684755886_" gradientUnits="userSpaceOnUse" x1="-209.5993" y1="512.4841" x2="-209.0423" y2="511.6501" gradientTransform="matrix(51.2865 0 0 -51.1559 10854.6895 26335.7695)">
			<stop  offset="0" style="stop-color:#917CC4"/>
			<stop  offset="1" style="stop-color:#917CC4"/>
		</linearGradient>
		
			<path id="Path-17_00000097501751509902034590000001766451336474725507_" style="fill:url(#Path-17_00000023974265773344562680000006010558845684755886_);" d="
			M144.1,145.1c-0.3,1.5-0.7,3-1.3,4.4c-3.3,8.3-10.8,14.3-19.6,15.8c-3.1,0.5-6.3,0.5-9.4-0.1c-13.8-2.9-22.7-16.4-19.9-30.2
			c2.9-13.8,16.4-22.7,30.2-19.9c0,0,0,0,0,0c4.9,1,9.4,3.4,12.9,7C143.3,127.9,145.9,136.7,144.1,145.1z"/>
	</g>
	
		<linearGradient id="Path-18_00000149342353609512977110000014079904789350728096_" gradientUnits="userSpaceOnUse" x1="-207.5847" y1="503.7684" x2="-206.9777" y2="503.2044" gradientTransform="matrix(34.367 0 0 -36.882 7248.9673 18713.1113)">
		<stop  offset="0" style="stop-color:#917CC4"/>
		<stop  offset="1" style="stop-color:#917CC4;stop-opacity:0"/>
	</linearGradient>
	<path id="Path-18" style="fill:url(#Path-18_00000149342353609512977110000014079904789350728096_);" d="M142.8,143.3
		c-3.3,8.3-10.8,14.3-19.6,15.8l-2.2-2.3l-12.5-13.2l0.7-1l13.7,0.3l-9.1-11.8l7.7-3.5l-4.8-4.2l5.1-1.1L142.8,143.3z"/>
	
		<linearGradient id="Path-19_00000075862967978032957070000006726621701789928847_" gradientUnits="userSpaceOnUse" x1="-195.5067" y1="486.9754" x2="-196.8787" y2="488.2794" gradientTransform="matrix(12.5878 0 0 -13.2008 2592.7808 6571.7773)">
		<stop  offset="1.100000e-02" style="stop-color:#F8CD9A"/>
		<stop  offset="1" style="stop-color:#FFFFFF"/>
	</linearGradient>
	<path id="Path-19" style="fill:url(#Path-19_00000075862967978032957070000006726621701789928847_);" d="M118.2,137.8
		c0.4,0.6,1.2,0.7,1.8,0.3c0.1,0,0.1-0.1,0.3-0.3l5.1-6.3c0.4-0.6,0.3-1.4-0.3-1.8c-0.3-0.2-0.5-0.3-0.8-0.3h-2.4v-3.8
		c0-0.2-0.1-0.4-0.3-0.4c0,0-0.1,0-0.1,0h-4.3c-0.2,0-0.4,0.1-0.4,0.3c0,0,0,0.1,0,0.1v3.8h-2.4c-0.7,0-1.3,0.6-1.3,1.3c0,0,0,0,0,0
		c0,0.3,0.1,0.6,0.3,0.8L118.2,137.8z"/>
	
		<linearGradient id="Path-20_00000031905082753396045300000015080838790064783787_" gradientUnits="userSpaceOnUse" x1="-172.4327" y1="278.1419" x2="-173.6817" y2="282.8609" gradientTransform="matrix(5.33 0 0 -1.4 1043.259 516.9766)">
		<stop  offset="1.100000e-02" style="stop-color:#F8CD9A"/>
		<stop  offset="1" style="stop-color:#FFFFFF"/>
	</linearGradient>
	<path id="Path-20" style="fill:url(#Path-20_00000031905082753396045300000015080838790064783787_);" d="M121.5,123.4h-4.5
		c-0.2,0-0.4-0.2-0.4-0.4v-0.6c0-0.2,0.2-0.4,0.4-0.4h4.5c0.2,0,0.4,0.2,0.4,0.4v0.6C122,123.2,121.8,123.4,121.5,123.4z"/>
	
		<linearGradient id="Path-21_00000144319871843820010790000004929601808151826084_" gradientUnits="userSpaceOnUse" x1="-204.0752" y1="478.3003" x2="-204.8342" y2="480.1353" gradientTransform="matrix(23.563 0 0 -9.7188 4936.0029 4795.8281)">
		<stop  offset="1.100000e-02" style="stop-color:#F8CD9A"/>
		<stop  offset="1" style="stop-color:#FFFFFF"/>
	</linearGradient>
	<path id="Path-21" style="fill:url(#Path-21_00000144319871843820010790000004929601808151826084_);" d="M110.7,144.6
		c-1.7,0-3.2-1.3-3.2-3.1c0,0,0,0,0,0v-5.1c0-0.9,0.7-1.5,1.5-1.6c0.8,0,1.4,0.7,1.4,1.5c0,0,0,0,0,0.1v5.2h17.7v-5.2
		c0-0.8,0.6-1.4,1.4-1.4c0.8,0,1.5,0.6,1.5,1.4v5.1c0,1.7-1.5,3.1-3.2,3.1c0,0,0,0,0,0H110.7z"/>
</g>
</svg>
