<?xml version="1.0" encoding="utf-8"?>
<!-- Generator: Adobe Illustrator 27.0.1, SVG Export Plug-In . SVG Version: 6.00 Build 0)  -->
<svg version="1.1" id="Layer_1" xmlns="http://www.w3.org/2000/svg" xmlns:xlink="http://www.w3.org/1999/xlink" x="0px" y="0px"
	 viewBox="0 0 227 224.2" style="enable-background:new 0 0 227 224.2;" xml:space="preserve">
<style type="text/css">
	.st0{fill:#EAEEF9;}
	.st1{fill:#F8CD9A;}
	.st2{fill:#F2F6FA;}
	.st3{fill:url(#SVGID_1_);}
	.st4{fill:url(#SVGID_00000049915572195561733600000010967420791437605792_);}
	.st5{fill:none;stroke:#917CC4;stroke-width:3;stroke-linecap:round;stroke-linejoin:round;stroke-miterlimit:10;}
	.st6{fill:#FFFFFF;}
	.st7{filter:url(#v143u9hx1c);}
	.st8{fill:#917CC4;}
	.st9{filter:url(#xwxd8t1phd);}
	.st10{fill:url(#SVGID_00000051363968475811133260000011696371250639636363_);}
	.st11{fill:url(#SVGID_00000140012985853193859260000016200311426294848945_);}
</style>
<filter  filterUnits="userSpaceOnUse" height="91.072" id="xwxd8t1phd" width="91.125" x="121.882" y="128.812">
	<feOffset  dy="5"></feOffset>
	<feGaussianBlur  result="blur-2" stdDeviation="4"></feGaussianBlur>
	<feFlood  flood-color="#43d477" flood-opacity=".161"></feFlood>
	<feComposite  in2="blur-2" operator="in"></feComposite>
	<feComposite  in="SourceGraphic" operator="over"></feComposite>
</filter>
<filter  filterUnits="userSpaceOnUse" height="151.26" id="v143u9hx1c" width="213.348" x="9.652" y="72.936">
	<feOffset  dy="11"></feOffset>
	<feGaussianBlur  result="blur" stdDeviation="11"></feGaussianBlur>
	<feFlood  flood-color="#657a93" flood-opacity=".18"></feFlood>
	<feComposite  in2="blur" operator="in"></feComposite>
	<feComposite  in="SourceGraphic" operator="over"></feComposite>
</filter>
<path class="st0" d="M114.3,199c52.4,0,94.8-42.4,94.8-94.8S166.7,9.4,114.4,9.4c-52.4,0-94.8,42.4-94.8,94.8c0,0,0,0,0,0
	C19.5,156.5,62,198.9,114.3,199C114.3,199,114.3,199,114.3,199z"/>
<path class="st1" d="M60.7,80.7h104.7c4.1,0,7.4,3.3,7.4,7.4v66c0,4.1-3.3,7.4-7.4,7.4H60.7c-4.1,0-7.4-3.3-7.4-7.4v-66
	C53.4,84,56.7,80.7,60.7,80.7z"/>
<path class="st0" d="M224.6,80.5c3-2.7,3.2-7.3,0.5-10.2c-2.7-3-7.3-3.2-10.2-0.5c-3,2.7-3.2,7.3-0.5,10.2
	C217.1,83,221.7,83.2,224.6,80.5C224.6,80.5,224.6,80.5,224.6,80.5z"/>
<path class="st0" d="M225.2,48.2c1.2-1.1,1.3-3.1,0.2-4.3c-1.1-1.2-3.1-1.3-4.3-0.2c-1.2,1.1-1.3,3.1-0.2,4.3c0,0,0,0,0,0
	C222,49.3,223.9,49.4,225.2,48.2z"/>
<path class="st0" d="M148.2,3.6c0.9-0.8,0.9-2.1,0.1-3c-0.8-0.9-2.1-0.9-3-0.1s-0.9,2.1-0.1,3c0,0,0,0,0,0
	C146,4.4,147.3,4.4,148.2,3.6z"/>
<path class="st2" d="M210.9,45.9l-26.1,46.4c-0.9,1.5-2.8,2-4.3,1.2c0,0,0,0-0.1,0l-44.6-25.9c-1.5-0.9-2-2.8-1.2-4.3c0,0,0,0,0-0.1
	L168.9,4c0.9-1.5,2.8-2,4.3-1.2c0,0,0,0,0.1,0l32.4,18.9L210.9,45.9z"/>
<path class="st1" d="M205.5,21.5l-7.4,12.6c-1,1.8-0.4,4,1.3,5.2l11.3,6.5"/>
<path class="st1" d="M166,64.4c-0.4-0.3-0.8-0.6-1.1-1c-0.2-0.4-0.6-0.8-0.6-1.1c-0.2-0.4-0.2-0.9,0-1.3c0-0.5,0.1-0.9,0.4-1.3
	c0.3-0.4,0.6-0.8,1-1.1c0.4-0.2,0.8-0.6,1.1-0.6c0.9-0.3,1.9-0.1,2.7,0.4c0.4,0.3,0.8,0.6,1.1,1l0.6,1.1c0.5,1.9-0.5,3.8-2.4,4.4
	c0,0,0,0-0.1,0c-0.3,0-0.5,0.1-0.8,0.1C167.3,64.9,166.6,64.7,166,64.4z M170.6,53.2l1.5-3.4c0.3-0.6,0.7-1.1,1.1-1.5
	c0.5-0.3,1.1-0.6,1.7-0.8c0.8-0.2,1.3-0.2,2.1-0.4c0.8,0,1.5-0.2,2.3-0.4c0.7-0.2,1.4-0.4,2.1-0.8c0.7-0.4,1.2-1,1.5-1.7
	c0.2-0.5,0.4-1,0.6-1.5c0-0.5,0-0.9-0.2-1.3c-0.1-0.5-0.4-1-0.8-1.3c-0.4-0.4-0.9-0.8-1.3-1.1c-0.6-0.4-1.4-0.8-2.1-1
	c-0.6-0.2-1.1-0.2-1.7-0.2h-1.3c-0.3,0-0.5,0-0.8-0.2c-0.4-0.2-0.7-0.7-0.8-1.1l0.2-2.7c0.7-0.2,1.4-0.2,2.1-0.2h2.3
	c0.8,0.2,1.7,0.4,2.5,0.6c1,0.4,1.7,0.8,2.5,1.1c1.1,0.5,2.1,1.3,2.9,2.3c0.8,0.8,1.4,1.8,1.7,2.9c0.3,1,0.4,2,0.4,3
	c-0.2,1.1-0.6,2.2-1.1,3.2c-0.5,0.9-1.2,1.7-1.9,2.5c-0.7,0.6-1.5,1-2.3,1.3c-0.7,0.4-1.5,0.6-2.3,0.6l-2.1,0.2
	c-0.6,0.1-1.3,0.2-1.9,0.4c-0.5,0.1-1,0.4-1.3,0.8l-2.1,2.7L170.6,53.2z"/>
<path class="st2" d="M43.2,25.7l29.9,31.1c1,1.1,0.9,2.8-0.2,3.8L42.5,89.4c-1.1,1-2.8,0.9-3.8-0.2L0.7,49c-1-1.1-0.9-2.8,0.2-3.8
	L23,24.4L43.2,25.7z"/>
<path class="st1" d="M23,24.2l8.2,8.6c1.2,1.1,3.1,1.1,4.4,0l7.6-7.2"/>
<path class="st1" d="M44.4,65.4c-0.5-0.1-0.9-0.4-1.1-0.8c-0.2-0.3-0.4-0.6-0.6-1c-0.2-0.4-0.2-0.8-0.2-1.1c0-0.8,0.4-1.6,1-2.1
	c0.3-0.2,0.6-0.4,1-0.6c0.4-0.2,0.8-0.2,1.1-0.2c1.2,0,2.3,0.8,2.7,1.9c0.2,0.4,0.2,0.8,0.2,1.1c0,0.4-0.2,0.8-0.2,1.1
	c-0.2,0.4-0.5,0.7-0.8,1c-0.2,0.3-0.6,0.5-1,0.6c-0.4,0.1-0.7,0.1-1.1,0.1C45,65.5,44.7,65.5,44.4,65.4z M37.1,56.4
	c-0.4-0.4-0.8-0.8-1-1.3c-0.2-0.5-0.2-1-0.2-1.5c0-0.6,0.2-1.1,0.2-1.7c0.2-0.6,0.2-1.1,0.2-1.7c0-0.6,0-1.2-0.2-1.7
	c-0.2-0.6-0.6-1.2-1-1.7c-0.2-0.4-0.6-0.6-1-0.8c-0.4-0.2-0.8-0.2-1.1-0.2c-0.4,0-0.8,0.2-1.1,0.4c-0.4,0.2-0.8,0.4-1.1,0.8
	c-0.4,0.4-0.8,1-1.1,1.3c-0.2,0.4-0.4,0.9-0.6,1.3c-0.1,0.3-0.2,0.6-0.2,1c0,0.2-0.2,0.4-0.4,0.6c-0.2,0.4-0.8,0.4-1.1,0.2l-2.1-0.4
	c0-0.6,0.2-1.2,0.4-1.7c0.2-0.6,0.4-1.1,0.6-1.7c0.2-0.6,0.6-1.2,1-1.7c0.5-0.6,1-1.2,1.5-1.7c0.7-0.7,1.5-1.3,2.5-1.7
	c0.8-0.4,1.6-0.6,2.5-0.6c0.8,0,1.7,0.2,2.5,0.4c0.8,0.4,1.6,1,2.3,1.5c0.6,0.6,1.1,1.3,1.3,2.1c0.2,0.6,0.4,1.3,0.6,2.1v1.9
	c-0.2,0.6-0.2,1.1-0.4,1.7c0,0.6-0.2,1-0.2,1.5c-0.1,0.4,0.1,0.8,0.4,1.1l1.5,2.3l-2.3,2.1L37.1,56.4z"/>
<path class="st2" d="M121,74.7l-11.6,41.4c-0.4,1.3-1.7,2.1-3.1,1.8c-0.1,0-0.1,0-0.2-0.1L65.9,106c-1.3-0.4-2.1-1.7-1.8-3.1
	c0-0.1,0-0.1,0.1-0.2l15.6-53.2c0.4-1.3,1.7-2.1,3.1-1.8c0.1,0,0.1,0,0.2,0.1l29.2,8.6L121,74.7z"/>
<path class="st1" d="M112.3,56.6L108.8,68c-0.3,1.6,0.6,3.2,2.1,3.8l10.1,3"/>
<path class="st1" d="M89.4,98c-0.4-0.2-0.8-0.2-1-0.6c-0.4-0.2-0.6-0.6-0.8-0.8c-0.2-0.4-0.2-0.6-0.4-1c0-0.4,0-0.8,0.2-1.1
	c0.2-0.4,0.2-0.8,0.6-1c0.2-0.4,0.6-0.6,0.8-0.8c0.6-0.3,1.4-0.4,2.1-0.2c0.3,0.1,0.7,0.3,1,0.6l0.8,0.8c0.7,1.4,0.2,3.1-1.1,3.8
	c-0.4,0.2-0.8,0.3-1.3,0.3C89.9,98.1,89.6,98.1,89.4,98z M91.3,88.1l0.6-3.1c0.1-0.5,0.3-1,0.8-1.3c0.4-0.4,0.8-0.7,1.3-1
	c0.5-0.2,1-0.4,1.5-0.6c0.6-0.2,1.2-0.4,1.7-0.8c0.5-0.2,1.1-0.6,1.5-1c0.5-0.5,0.8-1.1,1-1.7c0.2-0.4,0.2-0.8,0.2-1.1
	c0-0.4-0.2-0.8-0.4-1.1c-0.2-0.4-0.6-0.6-1-1c-0.4-0.2-0.9-0.4-1.3-0.6c-0.6-0.2-1.3-0.2-1.9-0.2c-0.5,0-0.9,0-1.3,0.2
	c-0.3,0-0.6,0.1-1,0.2c-0.2,0-0.4,0.2-0.8,0c-0.4,0-0.7-0.4-0.8-0.8L90.3,72l1.7-0.6c0.6-0.2,1.3-0.4,1.9-0.4h2.1
	c0.8,0,1.5,0.2,2.3,0.4c1,0.2,1.9,0.7,2.7,1.3c0.7,0.5,1.4,1.2,1.9,1.9c0.4,0.7,0.7,1.5,1,2.3c0.1,0.9,0.1,1.8-0.2,2.7
	c-0.2,0.8-0.6,1.6-1.1,2.3c-0.4,0.6-0.9,1.1-1.5,1.5c-0.5,0.4-1.1,0.7-1.7,1L97.6,85c-0.4,0.2-1,0.4-1.3,0.6c-0.4,0.2-0.7,0.5-0.8,1
	L94.3,89L91.3,88.1z"/>
<path class="st2" d="M215.5,145.4l-38,20.7c-1.2,0.7-2.7,0.3-3.4-0.9c0-0.1-0.1-0.1-0.1-0.2l-19-37c-0.7-1.2-0.2-2.8,1-3.4
	c0,0,0.1,0,0.1-0.1l49.4-26.1c1.2-0.7,2.7-0.3,3.4,0.9c0,0.1,0.1,0.1,0.1,0.2l13.8,26.8L215.5,145.4z"/>
<path class="st1" d="M222.5,126.5l-10.7,5.6c-1.4,0.9-2,2.6-1.3,4.2l4.7,9.3"/>
<path class="st1" d="M179.5,140.2l-1.1,0c-0.7-0.2-1.3-0.7-1.6-1.4c-0.1-0.3-0.2-0.7-0.2-1.1c-0.1-0.4,0-0.7,0-1.1
	c0.1-0.4,0.4-0.7,0.4-0.9c0.3-0.3,0.7-0.4,1-0.7c0.4-0.1,0.7-0.4,1.1-0.3c0.4-0.1,0.7-0.1,1.1,0c0.7,0.2,1.3,0.7,1.6,1.4
	c0.1,0.3,0.2,0.7,0.2,1.1c0,0.3,0,0.8,0,1.1c-0.2,0.7-0.7,1.3-1.4,1.6C180.3,140,179.9,140.1,179.5,140.2L179.5,140.2z M195.2,137.1
	c-0.6-0.1-1.3-0.3-1.9-0.6l-1.6-0.8c-0.4-0.1-0.9-0.4-1.3-0.5c-0.4-0.2-0.9-0.1-1.2,0.1l-2.6,0.9l-1.4-2.8l2.6-1.7
	c0.4-0.3,1-0.5,1.5-0.4c0.6,0,1.1,0.1,1.6,0.3c0.5,0.3,1,0.5,1.5,0.7c0.5,0.3,1.1,0.5,1.7,0.7c0.6,0.2,1.1,0.4,1.7,0.4
	c0.7,0,1.3-0.2,1.9-0.5c0.7-0.4,1.3-1.1,1.4-1.9c0.1-0.4,0.1-0.9,0-1.3c-0.1-0.5-0.3-0.9-0.5-1.4c-0.3-0.5-0.6-0.9-1-1.6
	c-0.3-0.3-0.6-0.6-1.1-0.8c-0.3-0.2-0.5-0.4-0.8-0.5c-0.1-0.1-0.4-0.1-0.5-0.5c-0.3-0.3-0.2-0.8,0-1.1l0.9-2.1l1.6,0.8
	c0.6,0.3,1.1,0.6,1.6,1.1c0.5,0.5,0.9,0.9,1.4,1.5c0.5,0.6,0.9,1.2,1.3,1.9c0.5,0.9,0.8,1.8,0.9,2.8c0.1,0.9,0.1,1.8-0.1,2.7
	c-0.3,0.8-0.6,1.6-1,2.3c-0.6,0.7-1.3,1.3-2.1,1.7c-0.8,0.4-1.6,0.7-2.4,0.8C196.7,137.2,195.9,137.2,195.2,137.1L195.2,137.1z"/>
<linearGradient id="SVGID_1_" gradientUnits="userSpaceOnUse" x1="-177.4253" y1="521.4466" x2="-176.4353" y2="521.4466" gradientTransform="matrix(28.037 0 0 -28.2366 5068.3887 14749.9512)">
	<stop  offset="0" style="stop-color:#917CC4"/>
	<stop  offset="1" style="stop-color:#917CC4"/>
</linearGradient>
<path class="st3" d="M106.2,40.2c-0.7,0-1.2-0.5-1.3-1.1l-0.2-1.1c-0.2-0.6-0.4-1-1-1.1c-0.3-0.1-0.7-0.2-1-0.4
	c-0.4-0.2-1-0.1-1.3,0.2l-1,0.6c-0.5,0.4-1.3,0.3-1.7-0.2L96.8,35c-0.5-0.5-0.6-1.3-0.2-1.9l0.6-1c0.3-0.4,0.4-1,0.2-1.5
	c-0.2-0.2-0.2-0.6-0.4-1c-0.1-0.5-0.6-0.9-1.1-1l-1.1-0.2c-0.7-0.1-1.2-0.7-1.1-1.3v-2.7c0-0.7,0.5-1.2,1.1-1.3l1.1-0.2
	c0.6-0.2,1-0.4,1.1-1c0.1-0.3,0.2-0.7,0.4-1c0.2-0.4,0.1-1-0.2-1.3l-0.6-1c-0.4-0.5-0.3-1.3,0.2-1.7l1.9-1.9
	c0.4-0.5,1.2-0.6,1.7-0.2c0,0,0,0,0,0l1,0.6c0.4,0.3,0.9,0.4,1.3,0.2c0.2-0.2,0.6-0.2,1-0.4c0.5-0.1,0.9-0.6,1-1.1l0.2-1.1
	c0.1-0.7,0.7-1.2,1.3-1.1h2.7c0.7,0,1.2,0.5,1.3,1.1l0.2,1.1c0.2,0.6,0.4,1,1,1.1c0.3,0.1,0.7,0.2,1,0.4c0.5,0.2,1.1,0.2,1.5-0.2
	l1-0.6c0.5-0.4,1.3-0.3,1.7,0.2l1.9,1.9c0.5,0.4,0.6,1.2,0.2,1.7c0,0,0,0,0,0l-0.6,1c-0.3,0.4-0.4,0.9-0.2,1.3
	c0.2,0.2,0.2,0.6,0.4,1c0.1,0.5,0.6,0.9,1.1,1l1.1,0.2c0.8,0,1.1,0.6,1.1,1.3v2.7c0,0.7-0.5,1.2-1.1,1.3l-1.1,0.2
	c-0.6,0.2-1,0.4-1.1,1c-0.1,0.3-0.2,0.7-0.4,1c-0.2,0.5-0.2,1.1,0.2,1.5l0.6,1c0.4,0.6,0.3,1.4-0.2,1.9l-1.9,1.9
	c-0.4,0.5-1.2,0.6-1.7,0.2c0,0,0,0,0,0l-1-0.6c-0.4-0.3-1-0.4-1.5-0.2c-0.2,0.2-0.6,0.2-1,0.4c-0.5,0.1-0.9,0.6-1,1.1l-0.2,1.1
	c-0.1,0.7-0.7,1.2-1.3,1.1L106.2,40.2z"/>
<linearGradient id="SVGID_00000088822912255526984000000009210052194480746171_" gradientUnits="userSpaceOnUse" x1="-174.5502" y1="516.5143" x2="-173.5642" y2="516.5143" gradientTransform="matrix(19.5086 0 0 -19.4639 3413.7019 10181.5166)">
	<stop  offset="0" style="stop-color:#917CC4"/>
	<stop  offset="1" style="stop-color:#917CC4"/>
</linearGradient>
<path style="fill:url(#SVGID_00000088822912255526984000000009210052194480746171_);" d="M17.1,137.9c-0.5,0-0.9-0.3-1-0.8l-0.2-0.8
	c0-0.4-0.2-0.6-0.6-0.8c-0.2-0.2-0.6-0.2-0.8-0.4c-0.3-0.1-0.7,0-1,0.2l-0.6,0.4c-0.4,0.4-0.9,0.4-1.3,0c0,0,0,0,0,0l-1.3-1.3
	c-0.2-0.4-0.2-0.9,0-1.3l0.4-0.6c0.2-0.3,0.2-0.7,0-1c-0.2-0.2-0.3-0.5-0.4-0.8c-0.2-0.2-0.4-0.6-0.8-0.6L8.9,130
	c-0.5-0.1-0.8-0.5-0.8-1v-1.7c0-0.5,0.3-0.9,0.8-1l0.8-0.2c0.4,0,0.6-0.2,0.8-0.6c0.2-0.2,0.2-0.6,0.4-0.8c0.2-0.3,0.2-0.7,0-1
	l-0.4-0.6c-0.4-0.3-0.4-0.9,0-1.3c0,0,0,0,0,0l1.3-1.3c0.4-0.2,1-0.4,1.3,0l0.6,0.4c0.3,0.2,0.7,0.2,1,0c0.2-0.2,0.5-0.3,0.8-0.4
	c0.2-0.2,0.6-0.4,0.6-0.8l0.2-0.8c0.1-0.5,0.5-0.8,1-0.8h1.7c0.5,0,0.9,0.3,1,0.8l0.2,0.8c0,0.4,0.2,0.6,0.6,0.8
	c0.2,0.2,0.6,0.2,0.8,0.4c0.3,0.2,0.7,0.2,1,0l0.6-0.4c0.4-0.4,0.9-0.4,1.3,0c0,0,0,0,0,0l1.3,1.3c0.2,0.4,0.2,0.9,0,1.3l-0.4,0.6
	c-0.4,0.2-0.4,0.6-0.2,1c0.2,0.2,0.3,0.5,0.4,0.8c0.2,0.2,0.4,0.6,0.8,0.6l0.8,0.2c0.6,0,1,0.4,0.8,1v1.7c0,0.5-0.3,0.9-0.8,1
	l-0.8,0.2c-0.4,0-0.6,0.2-0.8,0.6c-0.2,0.2-0.2,0.6-0.4,0.8c0,0.3,0.1,0.7,0.2,1l0.4,0.6c0.4,0.4,0.4,0.9,0,1.3c0,0,0,0,0,0
	l-1.3,1.3c-0.4,0.2-0.9,0.2-1.3,0l-0.6-0.4c-0.2-0.4-0.6-0.4-1-0.2c-0.2,0.2-0.5,0.3-0.8,0.4c-0.2,0.2-0.6,0.4-0.6,0.8l-0.2,0.8
	c-0.1,0.5-0.5,0.8-1,0.8L17.1,137.9z"/>
<path class="st5" d="M174.8,123.2v32.6c0,4.2-3.4,7.6-7.6,7.6H59.6c-4.2,0-7.6-3.4-7.6-7.6v-35.3"/>
<path class="st6" d="M170.7,102.3h-36.9c-3.5,0-7,1.2-9.7,3.5l-9.7,7.9c-2.8,2.2-6.2,3.5-9.7,3.5h-42c-4.2,0-7.6,3.4-7.7,7.6
	c0,0.4,0,0.7,0.2,1.1l7.7,40.4c0.6,3.8,3.8,6.6,7.7,6.6h89.5c3.8,0,7.1-2.7,7.7-6.5l10.7-55.2c0.7-4.1-2.1-8-6.2-8.7
	c-0.1,0-0.1,0-0.2,0C171.4,102.3,171.1,102.3,170.7,102.3z"/>
<g class="st7">
	<path class="st6" d="M180.9,94.9h-44.1c-4.2,0-8.4,1.5-11.6,4.2l-11.6,9.5c-3.3,2.7-7.4,4.2-11.6,4.2H51.8c-5.1,0-9.2,4.1-9.2,9.2
		c0,0.5,0,0.9,0.2,1.3l9.2,48.8c0.7,4.6,4.6,7.9,9.2,8H168c4.6,0,8.5-3.3,9.2-7.8l12.8-66.8c0.8-5-2.5-9.6-7.5-10.5c0,0-0.1,0-0.1,0
		C181.8,95,181.4,94.9,180.9,94.9z"/>
</g>
<path class="st8" d="M95.5,145.7c2.6,0,4.8-2.1,4.8-4.8c0-2.6-2.1-4.8-4.8-4.8c-2.6,0-4.8,2.1-4.8,4.8c0,0,0,0,0,0
	C90.7,143.5,92.8,145.7,95.5,145.7z"/>
<path class="st8" d="M132.9,145.5c2.6,0,4.8-2.1,4.8-4.8c0-2.6-2.1-4.8-4.8-4.8s-4.8,2.1-4.8,4.8c0,0,0,0,0,0
	C128.1,143.3,130.2,145.5,132.9,145.5z"/>
<path class="st8" d="M124.5,153.5H122c-2-4.2-7-6-11.3-4c-0.1,0.1-0.3,0.1-0.4,0.2c-1.7,0.8-3,2.1-3.8,3.8h-2.5
	c2.1-5.7,8.4-8.6,14.1-6.5C121.1,148.2,123.4,150.5,124.5,153.5z"/>
<g class="st9">
	
		<linearGradient id="SVGID_00000086686685054677506610000001093985820232507836_" gradientUnits="userSpaceOnUse" x1="-181.03" y1="528.1873" x2="-180.473" y2="527.3533" gradientTransform="matrix(67.1239 0 0 -67.0367 12300.6865 35550.0078)">
		<stop  offset="0" style="stop-color:#917CC4"/>
		<stop  offset="1" style="stop-color:#917CC4"/>
	</linearGradient>
	<path style="fill:url(#SVGID_00000086686685054677506610000001093985820232507836_);" d="M200.2,176.2c-0.6,2.4-1.3,4.8-2.3,7.1
		c-0.2,0.5-0.4,1.1-0.8,1.5c-3.2,6.3-8.4,11.4-14.7,14.5c-0.7,0.4-1.4,0.7-2.1,1c-17.1,7.2-36.7-0.9-43.9-17.9
		c-7.2-17.1,0.9-36.7,17.9-43.9c6.3-2.6,13.2-3.3,19.8-1.9c6.4,1.4,12.3,4.6,17,9.2C199.3,153.6,202.7,165.2,200.2,176.2z"/>
</g>
<path class="st8" d="M197.9,183.2c-0.2,0.6-0.4,1-0.6,1.5c-3.2,6.3-8.4,11.4-14.7,14.5c-0.7,0.4-1.4,0.7-2.1,1l-23.5-23.5l5.7,0.2
	l6.1,0.2l4.4-3.1c0,0,3.4-5.9,3.2-6.3s-4-6.3-4-6.3l4.2,0.8L197.9,183.2z"/>
<linearGradient id="SVGID_00000030487320513594117600000015836717239990420148_" gradientUnits="userSpaceOnUse" x1="-176.6201" y1="521.1188" x2="-177.2031" y2="521.7009" gradientTransform="matrix(28.2761 0 0 -28.3469 5172.4263 14952.5557)">
	<stop  offset="1.100000e-02" style="stop-color:#F8CD9A"/>
	<stop  offset="1" style="stop-color:#FFFFFF"/>
</linearGradient>
<path style="fill:url(#SVGID_00000030487320513594117600000015836717239990420148_);" d="M177.7,183.4l-5-5c-4.1,2.7-9.4,2.7-13.5,0
	c-5.7-3.8-7.3-11.4-3.5-17.1c3.8-5.7,11.4-7.3,17.1-3.5c0,0,0.1,0,0.1,0.1c5.7,3.8,7.2,11.4,3.5,17.1c0,0,0,0.1-0.1,0.1l5,5
	c0.9,1.1,0.8,2.6-0.3,3.5C180,184.3,178.6,184.3,177.7,183.4L177.7,183.4z"/>
</svg>
