<?xml version="1.0" encoding="utf-8"?>
<!-- Generator: Adobe Illustrator 27.0.1, SVG Export Plug-In . SVG Version: 6.00 Build 0)  -->
<svg version="1.1" id="Layer_1" xmlns="http://www.w3.org/2000/svg" xmlns:xlink="http://www.w3.org/1999/xlink" x="0px" y="0px"
	 viewBox="0 0 151.9 139.9" style="enable-background:new 0 0 151.9 139.9;" xml:space="preserve">
<style type="text/css">
	.st0{fill:#EAEEF9;}
	.st1{fill:none;stroke:#E1E1E1;stroke-width:2;stroke-linecap:round;stroke-linejoin:round;stroke-miterlimit:10;}
	.st2{fill:url(#Path-7_00000059295537844047084530000016894329183486312322_);}
	.st3{fill:#EBF0F6;}
	.st4{fill:#F5F8FF;}
	.st5{fill:#F8CD9A;}
	.st6{fill:#FFFFFF;}
	.st7{fill:#DBDFE6;}
	.st8{fill:url(#Path-16_00000129925542427088357590000013201930904286196656_);}
	.st9{fill:#F3F5FA;}
	.st10{fill:url(#Path-26_00000126284463015038934840000008257587963719757732_);}
	.st11{fill:url(#Path-31_00000141457262501866548190000011768367071280021427_);}
	.st12{fill:url(#Path-49_00000110443529580051518410000001361354317317640079_);}
	.st13{fill:url(#Path-65_00000183248874523218332730000009933846327830120349_);}
	.st14{fill:url(#Path-74_00000003100894923583757740000012173457620790442933_);}
	.st15{fill:url(#Path-92_00000007405030445418333590000013691921353974569651_);}
	.st16{fill:url(#Path-108_00000104676155445462604020000014275294400054306966_);}
	.st17{fill:url(#Path-113_00000060710868590132266880000015674472481240962960_);}
	.st18{fill:url(#Path-118_00000000183832187277714060000007052419133007095219_);}
	.st19{fill:url(#Path-137_00000024694773753925392520000001347115332491517061_);}
	.st20{fill:url(#Path-142_00000039122339207665359360000003418095662526336672_);}
	.st21{fill:url(#Path-145_00000116944091899643946350000017830078882939040918_);}
	.st22{fill:url(#Path-156_00000033351244632383550430000001829446440859543743_);}
	.st23{fill:url(#Path-165_00000151513333044396612760000000149822087837264534_);}
	.st24{fill:#917CC4;}
	.st25{fill:#E9F0F8;}
	.st26{fill:url(#Path-170_00000025423474747535963170000000173434942740084660_);}
	.st27{fill:url(#Path-171_00000078012507153446864290000014955376143309551017_);}
	.st28{fill:none;stroke:#FFFFFF;stroke-width:1.492;stroke-linecap:round;stroke-linejoin:round;stroke-miterlimit:10;}
	.st29{fill:url(#Path-178_00000021088214125030545870000010370016002332732581_);}
	.st30{fill:url(#Path-180_00000026864107937601905840000017201909152498151563_);}
	.st31{fill:none;stroke:#FFFFFF;stroke-width:1.934;stroke-linecap:round;stroke-linejoin:round;stroke-miterlimit:10;}
</style>
<g id="Group_1316" transform="translate(-488 -160.82)">
	<path id="Path" class="st0" d="M561.2,300.7c38.6,0.1,70.1-31.1,70.2-69.7c0.1-38.6-31.1-70.1-69.7-70.2
		c-38.6-0.1-70.1,31.1-70.2,69.7c0,0.1,0,0.2,0,0.2C491.4,269.4,522.6,300.7,561.2,300.7C561.2,300.7,561.2,300.7,561.2,300.7z"/>
	<path id="Path-2" class="st0" d="M492.6,189.8c1.8-0.6,2.9-2.6,2.3-4.4s-2.6-2.9-4.4-2.3c-1.8,0.6-2.9,2.6-2.3,4.4c0,0,0,0,0,0
		C488.8,189.4,490.8,190.4,492.6,189.8z"/>
	<path id="Path-3" class="st0" d="M500.2,178.3c1.3-0.4,2-1.7,1.6-3c-0.4-1.3-1.7-2-3-1.6c-1.3,0.4-2,1.7-1.6,3c0,0,0,0,0,0
		C497.6,178,499,178.7,500.2,178.3z"/>
	<path id="Path-4" class="st0" d="M638.2,213.2c2.1-2,2.2-5.4,0.2-7.6c-2-2.1-5.2-2.2-7.4-0.3c-2.1,2-2.2,5.4-0.2,7.6
		C632.8,214.9,636.1,215.1,638.2,213.2z"/>
	<path id="Path-5" class="st0" d="M638.6,189.2c0.9-0.9,0.9-2.3,0.1-3.2c-0.8-0.9-2.2-0.9-3.1-0.1c-0.9,0.8-1,2.3-0.1,3.2
		C636.3,190,637.7,190.1,638.6,189.2C638.6,189.2,638.6,189.2,638.6,189.2z"/>
	<g id="_02" transform="translate(495.227 162.045)">
		<path id="Path-6" class="st1" d="M8.1,123.6h123.8"/>
		
			<linearGradient id="Path-7_00000088813325280901204550000002996914804418537121_" gradientUnits="userSpaceOnUse" x1="-223.777" y1="472.1351" x2="-223.777" y2="473.0261" gradientTransform="matrix(55.95 0 0 -21.1922 12589.3545 10127.6094)">
			<stop  offset="0" style="stop-color:#F5F8FF"/>
			<stop  offset="0.991" style="stop-color:#D8E0EB"/>
		</linearGradient>
		<path id="Path-7" style="fill:url(#Path-7_00000088813325280901204550000002996914804418537121_);" d="M97,122.6
			c-9.2,0.2-20.2,0-28-0.1c-7.8,0.2-18.8,0.4-28,0.1c9.1-5.2,12.2-14.8,12.7-21.1h30.4C84.8,107.9,87.9,117.4,97,122.6z"/>
		<path id="Path-8" class="st3" d="M42,124.2h54c0.8,0,1.4-0.7,1.5-1.5c0-0.8-0.7-1.4-1.5-1.4H42c-0.8,0-1.4,0.7-1.5,1.5
			c0,0.8,0.6,1.4,1.4,1.4C42,124.2,42,124.2,42,124.2z"/>
		<path id="Path-9" class="st4" d="M126.6,21.4v79c0,1.9-1.5,3.4-3.4,3.4c0,0,0,0,0,0H15.5c-1.9,0-3.4-1.5-3.4-3.4v-79
			c0-1.9,1.5-3.4,3.4-3.4h107.7C125,18,126.6,19.5,126.6,21.4C126.6,21.4,126.6,21.4,126.6,21.4z"/>
		<path id="Path-10" class="st5" d="M126.6,21.4v68.1H12.1V21.4c0-1.9,1.5-3.4,3.4-3.4h107.7C125,18,126.6,19.5,126.6,21.4
			C126.6,21.4,126.6,21.4,126.6,21.4z"/>
		<path id="Path-11" class="st6" d="M122.1,22.3H15.9v63.4h106.2V22.3z"/>
		<path id="Path-12" class="st7" d="M69,99.9c1.5,0,2.8-1.2,2.8-2.8s-1.2-2.8-2.8-2.8c-1.5,0-2.8,1.2-2.8,2.8
			C66.2,98.6,67.5,99.9,69,99.9C69,99.9,69,99.9,69,99.9z"/>
		<path id="Path-13" class="st0" d="M20.7,76h-2.4v2.4h2.4V76z"/>
		<path id="Path-14" class="st0" d="M20.7,71.2h-2.4v2.4h2.4V71.2z"/>
		<path id="Path-15" class="st0" d="M20.7,66.5h-2.4v2.4h2.4V66.5z"/>
		
			<linearGradient id="Path-16_00000022543514575501990070000017963316088406401689_" gradientUnits="userSpaceOnUse" x1="-136.9941" y1="344.1235" x2="-135.9911" y2="344.1235" gradientTransform="matrix(2.422 0 0 -2.42 350.0528 895.7209)">
			<stop  offset="0" style="stop-color:#917CC4"/>
			<stop  offset="1" style="stop-color:#917CC4"/>
		</linearGradient>
		<path id="Path-16" style="fill:url(#Path-16_00000022543514575501990070000017963316088406401689_);" d="M20.7,61.7h-2.4v2.4h2.4
			V61.7z"/>
		<path id="Path-17" class="st0" d="M20.7,56.9h-2.4v2.4h2.4V56.9z"/>
		<path id="Path-18" class="st9" d="M20.7,52.2h-2.4v2.4h2.4V52.2z"/>
		<path id="Path-19" class="st0" d="M25.7,80.7h-2.4v2.4h2.4V80.7z"/>
		<path id="Path-20" class="st0" d="M25.7,76h-2.4v2.4h2.4V76z"/>
		<path id="Path-21" class="st0" d="M25.7,66.5h-2.4v2.4h2.4V66.5z"/>
		<path id="Path-22" class="st0" d="M25.7,61.7h-2.4v2.4h2.4V61.7z"/>
		<path id="Path-23" class="st0" d="M25.7,56.9h-2.4v2.4h2.4V56.9z"/>
		<path id="Path-24" class="st0" d="M25.7,52.2h-2.4v2.4h2.4V52.2z"/>
		<path id="Path-25" class="st0" d="M25.7,47.4h-2.4v2.4h2.4V47.4z"/>
		
			<linearGradient id="Path-26_00000150786801197802240130000009687793894483449272_" gradientUnits="userSpaceOnUse" x1="-136.9991" y1="344.1834" x2="-135.9951" y2="344.1834" gradientTransform="matrix(2.422 0 0 -2.421 355.0178 877.0856)">
			<stop  offset="0" style="stop-color:#917CC4"/>
			<stop  offset="1" style="stop-color:#917CC4"/>
		</linearGradient>
		<path id="Path-26" style="fill:url(#Path-26_00000150786801197802240130000009687793894483449272_);" d="M25.7,42.6h-2.4V45h2.4
			V42.6z"/>
		<path id="Path-27" class="st0" d="M30.6,80.7h-2.4v2.4h2.4V80.7z"/>
		<path id="Path-28" class="st0" d="M30.6,76h-2.4v2.4h2.4V76z"/>
		<path id="Path-29" class="st0" d="M30.6,71.2h-2.4v2.4h2.4V71.2z"/>
		<path id="Path-30" class="st0" d="M30.6,66.5h-2.4v2.4h2.4V66.5z"/>
		
			<linearGradient id="Path-31_00000000219017320254623580000009913326996684288668_" gradientUnits="userSpaceOnUse" x1="-137.0031" y1="344.1235" x2="-136.0001" y2="344.1235" gradientTransform="matrix(2.422 0 0 -2.42 359.9828 895.7209)">
			<stop  offset="0" style="stop-color:#917CC4"/>
			<stop  offset="1" style="stop-color:#917CC4"/>
		</linearGradient>
		<path id="Path-31" style="fill:url(#Path-31_00000000219017320254623580000009913326996684288668_);" d="M30.6,61.7h-2.4v2.4h2.4
			V61.7z"/>
		<path id="Path-32" class="st9" d="M30.6,56.9h-2.4v2.4h2.4V56.9z"/>
		<path id="Path-33" class="st0" d="M30.6,52.2h-2.4v2.4h2.4V52.2z"/>
		<path id="Path-34" class="st9" d="M30.6,47.4h-2.4v2.4h2.4V47.4z"/>
		<path id="Path-35" class="st0" d="M30.6,42.6h-2.4V45h2.4V42.6z"/>
		<path id="Path-36" class="st9" d="M30.6,37.9h-2.4v2.4h2.4V37.9z"/>
		<path id="Path-37" class="st0" d="M35.5,80.7h-2.4v2.4h2.4V80.7z"/>
		<path id="Path-38" class="st0" d="M35.5,76h-2.4v2.4h2.4V76z"/>
		<path id="Path-39" class="st0" d="M35.5,71.2h-2.4v2.4h2.4V71.2z"/>
		<path id="Path-40" class="st0" d="M35.5,66.5h-2.4v2.4h2.4V66.5z"/>
		<path id="Path-41" class="st0" d="M35.5,61.7h-2.4v2.4h2.4V61.7z"/>
		<path id="Path-42" class="st9" d="M35.5,56.9h-2.4v2.4h2.4V56.9z"/>
		<path id="Path-43" class="st0" d="M35.5,52.2h-2.4v2.4h2.4V52.2z"/>
		<path id="Path-44" class="st0" d="M35.5,47.4h-2.4v2.4h2.4V47.4z"/>
		<path id="Path-45" class="st0" d="M40.4,80.7H38v2.4h2.4V80.7z"/>
		<path id="Path-46" class="st0" d="M40.4,76H38v2.4h2.4V76z"/>
		<path id="Path-47" class="st0" d="M40.4,71.2H38v2.4h2.4V71.2z"/>
		<path id="Path-48" class="st0" d="M40.4,61.7H38v2.4h2.4V61.7z"/>
		
			<linearGradient id="Path-49_00000054947386071423973680000014815510161741510301_" gradientUnits="userSpaceOnUse" x1="-136.9244" y1="344.1834" x2="-135.9204" y2="344.1834" gradientTransform="matrix(2.421 0 0 -2.421 369.5645 891.3686)">
			<stop  offset="0" style="stop-color:#917CC4"/>
			<stop  offset="1" style="stop-color:#917CC4"/>
		</linearGradient>
		<path id="Path-49" style="fill:url(#Path-49_00000054947386071423973680000014815510161741510301_);" d="M40.4,56.9H38v2.4h2.4
			V56.9z"/>
		<path id="Path-50" class="st9" d="M40.4,52.2H38v2.4h2.4V52.2z"/>
		<path id="Path-51" class="st0" d="M45.4,80.7H43v2.4h2.4V80.7z"/>
		<path id="Path-52" class="st0" d="M45.4,76H43v2.4h2.4V76z"/>
		<path id="Path-53" class="st0" d="M45.4,71.2H43v2.4h2.4V71.2z"/>
		<path id="Path-54" class="st0" d="M45.4,66.5H43v2.4h2.4V66.5z"/>
		<path id="Path-55" class="st0" d="M45.4,61.7H43v2.4h2.4V61.7z"/>
		<path id="Path-56" class="st0" d="M45.4,56.9H43v2.4h2.4V56.9z"/>
		<path id="Path-57" class="st9" d="M45.4,52.2H43v2.4h2.4V52.2z"/>
		<path id="Path-58" class="st0" d="M45.4,47.4H43v2.4h2.4V47.4z"/>
		<path id="Path-59" class="st0" d="M45.4,42.6H43V45h2.4V42.6z"/>
		<path id="Path-60" class="st0" d="M50.4,80.7H48v2.4h2.4V80.7z"/>
		<path id="Path-61" class="st0" d="M50.4,76H48v2.4h2.4V76z"/>
		<path id="Path-62" class="st0" d="M50.4,71.2H48v2.4h2.4V71.2z"/>
		<path id="Path-63" class="st0" d="M50.4,61.7H48v2.4h2.4V61.7z"/>
		<path id="Path-64" class="st9" d="M50.4,56.9H48v2.4h2.4V56.9z"/>
		
			<linearGradient id="Path-65_00000165214084178826393700000010226966699628831361_" gradientUnits="userSpaceOnUse" x1="-136.9751" y1="344.1834" x2="-135.9711" y2="344.1834" gradientTransform="matrix(2.422 0 0 -2.421 384.6877 915.2136)">
			<stop  offset="0" style="stop-color:#917CC4"/>
			<stop  offset="1" style="stop-color:#917CC4"/>
		</linearGradient>
		<path id="Path-65" style="fill:url(#Path-65_00000165214084178826393700000010226966699628831361_);" d="M55.3,80.7h-2.4v2.4h2.4
			V80.7z"/>
		<path id="Path-66" class="st0" d="M55.3,76h-2.4v2.4h2.4V76z"/>
		<path id="Path-67" class="st0" d="M55.3,71.2h-2.4v2.4h2.4V71.2z"/>
		<path id="Path-68" class="st9" d="M55.3,66.5h-2.4v2.4h2.4V66.5z"/>
		<path id="Path-69" class="st0" d="M55.3,61.7h-2.4v2.4h2.4V61.7z"/>
		<path id="Path-70" class="st0" d="M55.3,52.2h-2.4v2.4h2.4V52.2z"/>
		<path id="Path-71" class="st9" d="M55.3,47.4h-2.4v2.4h2.4V47.4z"/>
		<path id="Path-72" class="st0" d="M60.3,80.7h-2.4v2.4h2.4V80.7z"/>
		<path id="Path-73" class="st0" d="M60.3,76h-2.4v2.4h2.4V76z"/>
		
			<linearGradient id="Path-74_00000058567389770575150580000011595970128131029905_" gradientUnits="userSpaceOnUse" x1="-136.9801" y1="344.1834" x2="-135.9761" y2="344.1834" gradientTransform="matrix(2.422 0 0 -2.421 389.6537 905.6516)">
			<stop  offset="0" style="stop-color:#917CC4"/>
			<stop  offset="1" style="stop-color:#917CC4"/>
		</linearGradient>
		<path id="Path-74" style="fill:url(#Path-74_00000058567389770575150580000011595970128131029905_);" d="M60.3,71.2h-2.4v2.4h2.4
			V71.2z"/>
		<path id="Path-75" class="st0" d="M60.3,66.5h-2.4v2.4h2.4V66.5z"/>
		<path id="Path-76" class="st0" d="M60.3,61.7h-2.4v2.4h2.4V61.7z"/>
		<path id="Path-77" class="st0" d="M60.3,56.9h-2.4v2.4h2.4V56.9z"/>
		<path id="Path-78" class="st9" d="M60.3,52.2h-2.4v2.4h2.4V52.2z"/>
		<path id="Path-79" class="st0" d="M60.3,42.6h-2.4V45h2.4V42.6z"/>
		<path id="Path-80" class="st9" d="M60.3,37.9h-2.4v2.4h2.4V37.9z"/>
		<path id="Path-81" class="st0" d="M95.1,76h-2.4v2.4h2.4V76z"/>
		<path id="Path-82" class="st0" d="M95.1,66.5h-2.4v2.4h2.4V66.5z"/>
		<path id="Path-83" class="st0" d="M95.1,61.7h-2.4v2.4h2.4V61.7z"/>
		<path id="Path-84" class="st9" d="M95.1,56.9h-2.4v2.4h2.4V56.9z"/>
		<path id="Path-85" class="st0" d="M95.1,52.2h-2.4v2.4h2.4V52.2z"/>
		<path id="Path-86" class="st0" d="M95.1,47.4h-2.4v2.4h2.4V47.4z"/>
		<path id="Path-87" class="st0" d="M100,80.7h-2.4v2.4h2.4V80.7z"/>
		<path id="Path-88" class="st0" d="M100,76h-2.4v2.4h2.4V76z"/>
		<path id="Path-89" class="st0" d="M100,71.2h-2.4v2.4h2.4V71.2z"/>
		<path id="Path-90" class="st0" d="M100,66.5h-2.4v2.4h2.4V66.5z"/>
		<path id="Path-91" class="st0" d="M100,61.7h-2.4v2.4h2.4V61.7z"/>
		
			<linearGradient id="Path-92_00000013898612746697055540000009266404759100020890_" gradientUnits="userSpaceOnUse" x1="-136.9991" y1="344.1834" x2="-135.9951" y2="344.1834" gradientTransform="matrix(2.422 0 0 -2.421 429.3758 891.3686)">
			<stop  offset="0" style="stop-color:#917CC4"/>
			<stop  offset="1" style="stop-color:#917CC4"/>
		</linearGradient>
		<path id="Path-92" style="fill:url(#Path-92_00000013898612746697055540000009266404759100020890_);" d="M100,56.9h-2.4v2.4h2.4
			V56.9z"/>
		<path id="Path-93" class="st9" d="M100,52.2h-2.4v2.4h2.4V52.2z"/>
		<path id="Path-94" class="st0" d="M105,80.7h-2.4v2.4h2.4V80.7z"/>
		<path id="Path-95" class="st0" d="M105,76h-2.4v2.4h2.4V76z"/>
		<path id="Path-96" class="st0" d="M105,71.2h-2.4v2.4h2.4V71.2z"/>
		<path id="Path-97" class="st0" d="M105,66.5h-2.4v2.4h2.4V66.5z"/>
		<path id="Path-98" class="st0" d="M105,61.7h-2.4v2.4h2.4V61.7z"/>
		<path id="Path-99" class="st0" d="M105,56.9h-2.4v2.4h2.4V56.9z"/>
		<path id="Path-100" class="st9" d="M105,52.2h-2.4v2.4h2.4V52.2z"/>
		<path id="Path-101" class="st0" d="M105,47.4h-2.4v2.4h2.4V47.4z"/>
		<path id="Path-102" class="st0" d="M105,42.6h-2.4V45h2.4V42.6z"/>
		<path id="Path-103" class="st0" d="M109.8,80.7h-2.4v2.4h2.4V80.7z"/>
		<path id="Path-104" class="st0" d="M109.8,76h-2.4v2.4h2.4V76z"/>
		<path id="Path-105" class="st0" d="M109.8,71.2h-2.4v2.4h2.4V71.2z"/>
		<path id="Path-106" class="st0" d="M109.8,66.5h-2.4v2.4h2.4V66.5z"/>
		<path id="Path-107" class="st0" d="M109.8,61.7h-2.4v2.4h2.4V61.7z"/>
		
			<linearGradient id="Path-108_00000181777817066314105780000007975243394188827542_" gradientUnits="userSpaceOnUse" x1="-136.9621" y1="344.1834" x2="-135.9591" y2="344.1834" gradientTransform="matrix(2.422 0 0 -2.421 444.1508 915.2136)">
			<stop  offset="0" style="stop-color:#917CC4"/>
			<stop  offset="1" style="stop-color:#917CC4"/>
		</linearGradient>
		<path id="Path-108" style="fill:url(#Path-108_00000181777817066314105780000007975243394188827542_);" d="M114.8,80.7h-2.4v2.4
			h2.4V80.7z"/>
		<path id="Path-109" class="st0" d="M114.8,76h-2.4v2.4h2.4V76z"/>
		<path id="Path-110" class="st0" d="M114.8,71.2h-2.4v2.4h2.4V71.2z"/>
		<path id="Path-111" class="st9" d="M114.8,66.5h-2.4v2.4h2.4V66.5z"/>
		<path id="Path-112" class="st0" d="M114.8,61.7h-2.4v2.4h2.4V61.7z"/>
		
			<linearGradient id="Path-113_00000096047969513101823750000009693108457708245377_" gradientUnits="userSpaceOnUse" x1="-136.9621" y1="344.1834" x2="-135.9591" y2="344.1834" gradientTransform="matrix(2.422 0 0 -2.421 444.1508 891.3686)">
			<stop  offset="0" style="stop-color:#917CC4"/>
			<stop  offset="1" style="stop-color:#917CC4"/>
		</linearGradient>
		<path id="Path-113" style="fill:url(#Path-113_00000096047969513101823750000009693108457708245377_);" d="M114.8,56.9h-2.4v2.4
			h2.4V56.9z"/>
		<path id="Path-114" class="st0" d="M114.8,52.2h-2.4v2.4h2.4V52.2z"/>
		<path id="Path-115" class="st9" d="M114.8,47.4h-2.4v2.4h2.4V47.4z"/>
		<path id="Path-116" class="st0" d="M119.8,80.7h-2.4v2.4h2.4V80.7z"/>
		<path id="Path-117" class="st0" d="M119.8,76h-2.4v2.4h2.4V76z"/>
		
			<linearGradient id="Path-118_00000155142908267626429210000007863528944530204346_" gradientUnits="userSpaceOnUse" x1="-136.9661" y1="344.1834" x2="-135.9631" y2="344.1834" gradientTransform="matrix(2.422 0 0 -2.421 449.1158 905.6516)">
			<stop  offset="0" style="stop-color:#917CC4"/>
			<stop  offset="1" style="stop-color:#917CC4"/>
		</linearGradient>
		<path id="Path-118" style="fill:url(#Path-118_00000155142908267626429210000007863528944530204346_);" d="M119.8,71.2h-2.4v2.4
			h2.4V71.2z"/>
		<path id="Path-119" class="st0" d="M119.8,66.5h-2.4v2.4h2.4V66.5z"/>
		<path id="Path-120" class="st0" d="M119.8,61.7h-2.4v2.4h2.4V61.7z"/>
		<path id="Path-121" class="st0" d="M119.8,56.9h-2.4v2.4h2.4V56.9z"/>
		<path id="Path-122" class="st9" d="M119.8,52.2h-2.4v2.4h2.4V52.2z"/>
		<path id="Path-123" class="st0" d="M119.8,42.6h-2.4V45h2.4V42.6z"/>
		<path id="Path-124" class="st9" d="M119.8,37.9h-2.4v2.4h2.4V37.9z"/>
		<path id="Path-125" class="st0" d="M65.3,80.7h-2.4v2.4h2.4V80.7z"/>
		<path id="Path-126" class="st0" d="M65.3,76h-2.4v2.4h2.4V76z"/>
		<path id="Path-127" class="st0" d="M65.3,71.2h-2.4v2.4h2.4V71.2z"/>
		<path id="Path-128" class="st9" d="M65.3,61.7h-2.4v2.4h2.4V61.7z"/>
		<path id="Path-129" class="st0" d="M65.3,52.2h-2.4v2.4h2.4V52.2z"/>
		<path id="Path-130" class="st9" d="M65.3,47.4h-2.4v2.4h2.4V47.4z"/>
		<path id="Path-131" class="st0" d="M65.3,42.6h-2.4V45h2.4V42.6z"/>
		<path id="Path-132" class="st9" d="M65.3,37.9h-2.4v2.4h2.4V37.9z"/>
		<path id="Path-133" class="st0" d="M70.2,76h-2.4v2.4h2.4V76z"/>
		<path id="Path-134" class="st9" d="M70.2,71.2h-2.4v2.4h2.4V71.2z"/>
		<path id="Path-135" class="st0" d="M70.2,66.5h-2.4v2.4h2.4V66.5z"/>
		<path id="Path-136" class="st0" d="M70.2,61.7h-2.4v2.4h2.4V61.7z"/>
		
			<linearGradient id="Path-137_00000119088505877220466200000002097409332346101652_" gradientUnits="userSpaceOnUse" x1="-136.9881" y1="344.1834" x2="-135.9851" y2="344.1834" gradientTransform="matrix(2.422 0 0 -2.421 399.5847 891.3686)">
			<stop  offset="0" style="stop-color:#917CC4"/>
			<stop  offset="1" style="stop-color:#917CC4"/>
		</linearGradient>
		<path id="Path-137" style="fill:url(#Path-137_00000119088505877220466200000002097409332346101652_);" d="M70.2,56.9h-2.4v2.4
			h2.4V56.9z"/>
		<path id="Path-138" class="st0" d="M70.2,52.2h-2.4v2.4h2.4V52.2z"/>
		<path id="Path-139" class="st0" d="M70.2,47.4h-2.4v2.4h2.4V47.4z"/>
		<path id="Path-140" class="st0" d="M75.2,80.7h-2.4v2.4h2.4V80.7z"/>
		<path id="Path-141" class="st0" d="M75.2,71.2h-2.4v2.4h2.4V71.2z"/>
		
			<linearGradient id="Path-142_00000078012981058284050650000014497984855732854686_" gradientUnits="userSpaceOnUse" x1="-136.9931" y1="344.1834" x2="-135.9901" y2="344.1834" gradientTransform="matrix(2.422 0 0 -2.421 404.5497 900.9306)">
			<stop  offset="0" style="stop-color:#917CC4"/>
			<stop  offset="1" style="stop-color:#917CC4"/>
		</linearGradient>
		<path id="Path-142" style="fill:url(#Path-142_00000078012981058284050650000014497984855732854686_);" d="M75.2,66.5h-2.4v2.4
			h2.4V66.5z"/>
		<path id="Path-143" class="st0" d="M75.2,61.7h-2.4v2.4h2.4V61.7z"/>
		<path id="Path-144" class="st9" d="M75.2,56.9h-2.4v2.4h2.4V56.9z"/>
		
			<linearGradient id="Path-145_00000102519335137258641580000013450914801557240763_" gradientUnits="userSpaceOnUse" x1="-136.9931" y1="344.1834" x2="-135.9901" y2="344.1834" gradientTransform="matrix(2.422 0 0 -2.421 404.5497 886.6486)">
			<stop  offset="0" style="stop-color:#917CC4"/>
			<stop  offset="1" style="stop-color:#917CC4"/>
		</linearGradient>
		<path id="Path-145" style="fill:url(#Path-145_00000102519335137258641580000013450914801557240763_);" d="M75.2,52.2h-2.4v2.4
			h2.4V52.2z"/>
		<path id="Path-146" class="st0" d="M80.2,80.7h-2.4v2.4h2.4V80.7z"/>
		<path id="Path-147" class="st9" d="M80.2,66.5h-2.4v2.4h2.4V66.5z"/>
		<path id="Path-148" class="st0" d="M80.2,61.7h-2.4v2.4h2.4V61.7z"/>
		<path id="Path-149" class="st0" d="M80.2,56.9h-2.4v2.4h2.4V56.9z"/>
		<path id="Path-150" class="st0" d="M85.1,80.7h-2.4v2.4h2.4V80.7z"/>
		<path id="Path-151" class="st0" d="M85.1,76h-2.4v2.4h2.4V76z"/>
		<path id="Path-152" class="st0" d="M85.1,71.2h-2.4v2.4h2.4V71.2z"/>
		<path id="Path-153" class="st0" d="M85.1,66.5h-2.4v2.4h2.4V66.5z"/>
		<path id="Path-154" class="st9" d="M85.1,61.7h-2.4v2.4h2.4V61.7z"/>
		<path id="Path-155" class="st0" d="M85.1,56.9h-2.4v2.4h2.4V56.9z"/>
		
			<linearGradient id="Path-156_00000103965401221433994300000011185010840080744616_" gradientUnits="userSpaceOnUse" x1="-137.0021" y1="344.1834" x2="-135.9981" y2="344.1834" gradientTransform="matrix(2.422 0 0 -2.421 414.4807 886.6486)">
			<stop  offset="0" style="stop-color:#917CC4"/>
			<stop  offset="1" style="stop-color:#917CC4"/>
		</linearGradient>
		<path id="Path-156" style="fill:url(#Path-156_00000103965401221433994300000011185010840080744616_);" d="M85.1,52.2h-2.4v2.4
			h2.4V52.2z"/>
		<path id="Path-157" class="st0" d="M85.1,47.4h-2.4v2.4h2.4V47.4z"/>
		<path id="Path-158" class="st0" d="M90,80.7h-2.4v2.4H90V80.7z"/>
		<path id="Path-159" class="st0" d="M90,71.2h-2.4v2.4H90V71.2z"/>
		<path id="Path-160" class="st9" d="M90,66.5h-2.4v2.4H90V66.5z"/>
		<path id="Path-161" class="st5" d="M89.1,75.9h-39c-1.5,0-2.6-1.2-2.7-2.7V33.5c0-1.5,1.2-2.7,2.7-2.7h39c1.5,0,2.7,1.2,2.7,2.7
			v39.7C91.8,74.7,90.6,75.9,89.1,75.9z"/>
		<path id="Path-162" class="st5" d="M69.4,46c2.3,0,4.2-1.9,4.2-4.2s-1.9-4.2-4.2-4.2c-2.3,0-4.2,1.9-4.2,4.2c0,0,0,0,0,0
			C65.2,44.1,67.1,46,69.4,46z"/>
		<path id="Path-163" class="st5" d="M84.5,53.6H54.1c-0.4,0-0.7-0.3-0.7-0.7v-3.3c0-0.4,0.3-0.7,0.7-0.7h30.4
			c0.4,0,0.7,0.3,0.7,0.7v3.3C85.2,53.3,84.9,53.6,84.5,53.6z"/>
		<path id="Path-164" class="st5" d="M84.5,61.7H54.1c-0.4,0-0.7-0.3-0.7-0.7v-3.3c0-0.4,0.3-0.7,0.7-0.7h30.4
			c0.4,0,0.7,0.3,0.7,0.7V61C85.2,61.4,84.9,61.7,84.5,61.7z"/>
		
			<linearGradient id="Path-165_00000091717907766347026730000006061756469113216179_" gradientUnits="userSpaceOnUse" x1="-209.9761" y1="403.8883" x2="-208.9871" y2="403.8883" gradientTransform="matrix(12.111 0 0 -4.116 2616.3284 1728.6233)">
			<stop  offset="0" style="stop-color:#917CC4"/>
			<stop  offset="1" style="stop-color:#917CC4"/>
		</linearGradient>
		<path id="Path-165" style="fill:url(#Path-165_00000091717907766347026730000006061756469113216179_);" d="M84.7,64.2H74
			c-0.4,0-0.7,0.3-0.7,0.7c0,0,0,0,0,0.1v2.7c0,0.4,0.3,0.7,0.7,0.7c0,0,0,0,0.1,0h10.7c0.4,0,0.7-0.3,0.7-0.7c0,0,0,0,0-0.1v-2.7
			C85.3,64.5,85,64.2,84.7,64.2z"/>
		<path id="Path-166" class="st6" d="M82.1,65.7h-5.7c-0.3,0-0.5,0.2-0.5,0.5c0,0.3,0.2,0.5,0.5,0.5h5.7c0.3,0,0.5-0.2,0.5-0.5
			C82.6,66,82.4,65.7,82.1,65.7C82.2,65.7,82.1,65.7,82.1,65.7z"/>
		<path id="Path-167" class="st24" d="M70.6,59.1H56.1c-0.3,0-0.5,0.2-0.5,0.5c0,0.3,0.2,0.5,0.5,0.5h14.5c0.3,0,0.5-0.2,0.5-0.5
			C71,59.2,70.8,59.1,70.6,59.1z"/>
		<path id="Path-168" class="st24" d="M70.6,50.7H56.1c-0.3,0-0.5,0.2-0.5,0.5c0,0.3,0.2,0.5,0.5,0.5h14.5c0.3,0,0.5-0.2,0.5-0.5
			C71,51,70.8,50.7,70.6,50.7z"/>
		<path id="Path-169" class="st25" d="M113.2,88.1c0,4.3-1.8,8.4-5,11.3c-2.8,2.6-6.5,4.1-10.4,4.1c-3.1,0-6.2-0.9-8.7-2.7
			c-7-4.8-8.7-14.4-3.9-21.4s14.4-8.7,21.4-3.9C110.7,78.5,113.2,83.1,113.2,88.1L113.2,88.1z"/>
		<path id="Shape" class="st6" d="M90,101.7c-0.4,0-0.7-0.3-0.7-0.7c0,0,0-0.1,0-0.1c0.3-1.7,1.1-3.2,2.4-4.2
			c0.2-0.2,0.4-0.3,0.7-0.4c-0.9-0.1-1.8-0.6-2.4-1.3c-1.2-1.6-0.2-4.1,2.8-5.1l0.7-0.2c0-0.1,0-0.1,0.1-0.1c0,0,0,0,0,0
			C93,89,92.4,89.1,92,88.1c-0.1-0.4-0.1-0.8,0.1-1.2l0.1-0.1c0.1-0.2,0-0.1,0-0.4v-0.2c-0.2-1.1-0.1-2.1,0.2-3.1
			c0.3-1,0.9-1.9,1.7-2.7c0-0.1,0-0.1,0.1-0.1l0.4-0.4c0.7-0.5,1.6-0.9,2.4-1.1c0.5-0.1,1-0.1,1.5-0.1c2.4,0,4.6,1.3,5.7,3.4
			c0.4,0.7,0.6,1.4,0.7,2.2v1.3c0,0.4,0.2,0.7,0.2,1.1c0.1,0.9-0.5,1.6-1.3,1.8c-0.2,0.8-0.6,1.6-1.1,2.3c-0.5,0.7-1.1,1.4-1.8,1.9
			v2.2c0,0,0.1,0.2,1.5,0.2h0.6c0.8,0,1.5,0.1,2.2,0.5c1.3,0.7,2.3,1.8,2.9,3.1c0.1,0.2,0.2,0.4,0.2,0.5c0.1,0.4,0.1,0.7,0.2,1.1
			c0.1,0.5-0.2,1-0.8,1.3L90,101.7z"/>
		
			<linearGradient id="Path-170_00000137848772147181873630000009227903247543485602_" gradientUnits="userSpaceOnUse" x1="-216.6749" y1="449.4435" x2="-215.6739" y2="449.4435" gradientTransform="matrix(19.134 0 0 -8.8366 4235.0283 4070.4902)">
			<stop  offset="0" style="stop-color:#917CC4"/>
			<stop  offset="1" style="stop-color:#917CC4"/>
		</linearGradient>
		<path id="Path-170" style="fill:url(#Path-170_00000137848772147181873630000009227903247543485602_);" d="M108.3,99.3
			c-2.8,2.6-6.5,4.1-10.4,4.1c-3.1,0-6.2-0.9-8.7-2.7v-0.2c0.3-1.7,1.1-3.2,2.4-4.2c0.2-0.1,0.5-0.4,0.7-0.4
			c-0.9-0.2-1.8-0.6-2.4-1.3h3.6c1,1.5,2.8,2.4,4.6,2.3c1.5,0,3-0.6,4-1.7h1c0.8,0,1.5,0.2,2.2,0.5c1.3,0.7,2.3,1.8,2.9,3.1
			C108.1,99,108.3,99.1,108.3,99.3z"/>
		
			<linearGradient id="Path-171_00000080915696162613480350000004247807511703825083_" gradientUnits="userSpaceOnUse" x1="-190.4903" y1="336.1721" x2="-190.4903" y2="336.5741" gradientTransform="matrix(5.935 0 0 -2.3 1228.5941 867.9481)">
			<stop  offset="0" style="stop-color:#FFFFFF"/>
			<stop  offset="0.991" style="stop-color:#E6EDF7"/>
		</linearGradient>
		<path id="Path-171" style="fill:url(#Path-171_00000080915696162613480350000004247807511703825083_);" d="M101,92.7v2.1L95.1,95
			l0.4-1.3c0.1,0,0.1,0.1,0.2,0.1c0.2,0.1,0.4,0.2,0.6,0.4c0.1,0.1,0.2,0.1,0.4,0.2l0.1,0.1v-1.3c-0.1,0-0.1,0-0.1-0.1c0,0,0,0,0,0
			C98,93.8,99.7,93.7,101,92.7z"/>
		<path id="Path-172" class="st5" d="M104.9,84.6c-1.2,0.4-2.4,0.6-3.6,0.5c-2-0.1-3.9-1-5.3-2.3c-0.5,1.5-1.7,2.6-3.1,3.1
			c-0.2,0.1-0.4,0.1-0.6,0.2v-0.1c-0.1-1.1,0-2.1,0.2-3.1c0.4-1,1-1.9,1.7-2.7c0.1,0,0.1,0,0.1-0.1c0,0,0,0,0,0l0.4-0.4
			c0.7-0.5,1.6-0.9,2.4-1.1c0.5-0.1,1-0.1,1.5-0.1c2.4,0,4.6,1.3,5.7,3.4c0.3,0.7,0.6,1.3,0.7,2.1V84.6z"/>
		<path id="Path-173" class="st5" d="M97.4,98.5c-0.6,0.6-1.5,0.8-2.3,0.6c0.8-0.8,0.4-3.6-2.7-3.3c-4.2-0.8-3.8-5.1,0.4-6.4
			l0.7-0.2l0.1,0.1c0.3,0.8,0.7,1.5,1.2,2.2c-1.7,1.5,0.6,1.8,1.8,2.9C97.5,95,98.3,97.3,97.4,98.5z"/>
		<path id="Path-174" class="st28" d="M113.2,88.1c0,4.3-1.8,8.4-5,11.3c-2.8,2.6-6.5,4.1-10.4,4.1c-3.1,0-6.2-0.9-8.7-2.7
			c-7-4.8-8.7-14.4-3.9-21.4s14.4-8.7,21.4-3.9C110.7,78.5,113.2,83.1,113.2,88.1L113.2,88.1z"/>
		<path id="Path-175" class="st25" d="M40.7,20.3c0,5.2-2,10.2-5.6,14c-0.3,0.4-0.6,0.7-1,1c-3.7,3.5-8.7,5.5-13.8,5.4
			c-4.2,0-8.2-1.3-11.6-3.6c-0.9-0.7-1.8-1.4-2.7-2.2C-2,27.1-2.2,14.2,5.7,6.1s20.8-8.2,28.8-0.3C38.5,9.6,40.7,14.9,40.7,20.3z"/>
		<path id="Path-176" class="st25" d="M40.7,20.3c0,5.7-2.4,11.1-6.5,14.9c-3.7,3.5-8.7,5.5-13.8,5.4c-4.2,0-8.2-1.3-11.6-3.6
			C-0.5,30.6-2.8,17.9,3.7,8.7C7.5,3.3,13.7,0,20.3,0C31.6,0,40.7,9.1,40.7,20.3C40.7,20.3,40.7,20.3,40.7,20.3z"/>
		<path id="Path-177" class="st6" d="M35.1,34.4c-0.3,0.4-0.6,0.7-1,1c-3.7,3.5-8.7,5.5-13.8,5.4c-4.2,0-8.2-1.3-11.6-3.6
			c-0.9-0.7-1.8-1.4-2.7-2.2c0.8-0.8,1.7-1.3,2.8-1.6l0.6-0.2c1.2-0.5,2.9-1.1,5.1-2.1c0.3-0.1,0.6-0.3,0.8-0.6
			c0.2-0.1,0.2-0.3,0.2-0.5c0.1-0.3,0.2-0.6,0.2-0.8v-4.1l-0.2-0.2C15.2,24.3,15,23.7,15,23l-0.4-0.1c-1.1,0.2-1-0.8-1.2-3
			c-0.1-1,0-1.1,0.5-1.2l0.4-0.5c-0.6-1.4-1-2.9-1.1-4.5c-0.2-1.6,0.6-3.2,2.1-4c-0.3-0.7-0.6-1.5-0.7-2.3c1.9,0.4,3.9,0.5,5.8,0.5
			c1.8-0.4,4.7,0.1,5.8,2.5c1.4,0.4,2.4,1.6,2.7,3c0.2,1.9-0.8,4.1-1.1,4.8v0.1c0.2,0.1,0.4,0.4,0.2,1.2c-0.2,2.1-0.2,3.3-1.2,3
			l-1,1.6c0,0.2,0,0.2-0.1,0.4v4.4c0,0.4,0.1,0.8,0.4,1.1c0.1,0.1,0.1,0.2,0.2,0.2c0.2,0.2,0.5,0.4,0.7,0.6l5.4,2.2
			C33.4,33.3,34.3,33.8,35.1,34.4z"/>
		
			<linearGradient id="Path-178_00000083781893174879634540000003396393966925933959_" gradientUnits="userSpaceOnUse" x1="-220.6243" y1="455.0508" x2="-219.6243" y2="455.0508" gradientTransform="matrix(29.065 0 0 -10.289 6418.4736 4717.6724)">
			<stop  offset="0" style="stop-color:#917CC4"/>
			<stop  offset="1" style="stop-color:#917CC4"/>
		</linearGradient>
		<path id="Path-178" style="fill:url(#Path-178_00000083781893174879634540000003396393966925933959_);" d="M35.1,34.4
			c-0.3,0.4-0.6,0.7-1,1c-3.7,3.5-8.7,5.5-13.8,5.4c-4.2,0-8.2-1.3-11.6-3.6c-0.9-0.7-1.8-1.4-2.7-2.2c0.8-0.8,1.7-1.3,2.8-1.6
			l0.6-0.2c1.2-0.5,2.9-1.1,5.1-2.1c0.3-0.1,0.6-0.3,0.8-0.6c1.3,1.8,3.3,2.8,5.4,2.8c2.1,0,4.1-1,5.3-2.7c0.2,0.2,0.5,0.4,0.7,0.6
			l5.4,2.2C33.3,33.4,34.3,33.8,35.1,34.4z"/>
		<path id="Path-179" class="st5" d="M27.6,18.3c0.1-0.6-0.1-1.1-0.4-1.6c0-0.1-0.1-0.1-0.1-0.2c-0.9-1.5-2.6-2.5-4.4-2.4
			c-4.5-0.2-4.8,0.6-6.3-0.6c0.5,0.6,0.5,1.7-0.2,2.9c-0.5,0.8-1.3,1.4-2.2,1.6c-2.1-4.6-1-7.5,1-8.5c-0.2-0.7-0.4-1.4-0.5-2.1
			c1.9,0.4,3.9,0.5,5.8,0.5c1.8-0.4,4.7,0.1,5.8,2.5c1.4,0.4,2.4,1.6,2.7,3C28.9,15.4,27.9,17.4,27.6,18.3z"/>
		
			<linearGradient id="Path-180_00000156557761491123085660000014622139119320384947_" gradientUnits="userSpaceOnUse" x1="-206.2582" y1="422.7158" x2="-206.2582" y2="423.2548" gradientTransform="matrix(10.294 0 0 -5.321 2143.9917 2278.8354)">
			<stop  offset="0" style="stop-color:#FFFFFF"/>
			<stop  offset="0.991" style="stop-color:#E6EDF7"/>
		</linearGradient>
		<path id="Path-180" style="fill:url(#Path-180_00000156557761491123085660000014622139119320384947_);" d="M15.9,28.9v-4.1
			l-0.2-0.2v-0.2c0.2,0.4,0.5,0.7,0.8,1l3.3,2.3c0.8,0.6,1.9,0.6,2.7,0l3-2.7c0.1-0.1,0.2-0.2,0.4-0.2V29c0,0.2,0,0.4,0.1,0.6H16
			C15.9,29.4,15.8,29.2,15.9,28.9z"/>
		<path id="Path-181" class="st31" d="M40.7,20.3c0,5.7-2.4,11.1-6.5,14.9c-3.7,3.5-8.7,5.5-13.8,5.4c-4.2,0-8.2-1.3-11.6-3.6
			C-0.5,30.6-2.8,17.9,3.7,8.7C7.5,3.3,13.7,0,20.3,0C31.6,0,40.7,9.1,40.7,20.3C40.7,20.3,40.7,20.3,40.7,20.3z"/>
	</g>
</g>
</svg>
