<?xml version="1.0" encoding="utf-8"?>
<!-- Generator: Adobe Illustrator 27.0.1, SVG Export Plug-In . SVG Version: 6.00 Build 0)  -->
<svg version="1.1" id="Layer_1" xmlns="http://www.w3.org/2000/svg" xmlns:xlink="http://www.w3.org/1999/xlink" x="0px" y="0px"
	 viewBox="0 0 24 24" style="enable-background:new 0 0 24 24;" xml:space="preserve">
<style type="text/css">
	.st0{opacity:0.2;fill:#F8CD9A;enable-background:new    ;}
	.st1{fill:none;stroke:#917CC4;stroke-width:1.3;stroke-linecap:round;stroke-linejoin:round;}
</style>
<g transform="translate(-1081 -2080)">
	<circle class="st0" cx="1093" cy="2092" r="12"/>
	<g>
		<path class="st1" d="M1088.8,2091.4h8.5c0.7,0,1.2,0.5,1.2,1.2v4.3c0,0.7-0.5,1.2-1.2,1.2h-8.5c-0.7,0-1.2-0.5-1.2-1.2
			c0,0,0,0,0,0v-4.3C1087.5,2091.9,1088.1,2091.4,1088.8,2091.4z"/>
		<path class="st1" d="M1090,2091.4v-2.4c0-1.7,1.4-3,3-3s3,1.4,3,3c0,0,0,0,0,0v2.4"/>
	</g>
</g>
</svg>
