<?xml version="1.0" encoding="utf-8"?>
<!-- Generator: Adobe Illustrator 27.0.1, SVG Export Plug-In . SVG Version: 6.00 Build 0)  -->
<svg version="1.1" id="Layer_1" xmlns="http://www.w3.org/2000/svg" xmlns:xlink="http://www.w3.org/1999/xlink" x="0px" y="0px"
	 viewBox="0 0 217.5 180.1" style="enable-background:new 0 0 217.5 180.1;" xml:space="preserve">
<style type="text/css">
	.st0{fill:#EAE6F4;}
	.st1{fill:none;stroke:#FEF6EC;stroke-width:2;stroke-linecap:round;stroke-linejoin:round;stroke-miterlimit:10;}
	.st2{fill:#FBE6CB;}
	.st3{fill:#FADAB4;}
	.st4{fill:#F8CD9A;}
	.st5{fill:#FDF0E0;}
	.st6{fill:#F0EDF7;}
	.st7{fill:url(#Path-16_00000152972189267864700240000004256474815930295719_);}
	.st8{fill:url(#Path-17_00000045608505496285465510000010559662306368899517_);}
	.st9{fill:url(#Path-18_00000008868460044416423750000010699928894360048575_);}
	.st10{fill:#FFFFFF;}
	.st11{fill:#FDF2E4;}
	.st12{fill:url(#Path-26_00000044154824124458268990000007605081335390244237_);}
	.st13{fill:url(#Path-29_00000158009908015095547550000018443678483870701216_);}
	.st14{fill:#9581C6;}
	.st15{fill:#A594CF;}
	.st16{fill:#A999D1;}
	.st17{opacity:0.5;fill:#9581C6;enable-background:new    ;}
	.st18{fill:url(#Path-38_00000129911017476266917040000008006034955893497734_);}
	.st19{fill:#917CC4;}
	.st20{fill:url(#Path-42_00000015315348615018888560000001934566359764835737_);}
	.st21{fill:#937FC5;}
	.st22{fill:#FCECD9;}
	.st23{fill:#9F8DCC;}
	.st24{fill:#B0A1D5;}
</style>
<g id="_43" transform="translate(0 1.251)">
	<path id="Path-5" class="st0" d="M185.9,80.9c0,16.7-5.5,32.9-15.5,46.3c-5.4,7-11.9,13-19.2,17.8c-35.3,23.1-82.6,13.2-105.7-22.1
		S32.2,40.2,67.5,17.1C80,9,94.5,4.6,109.4,4.7c14.8,0,29.3,4.3,41.7,12.3c7.4,4.8,13.9,10.8,19.2,17.8
		C180.6,48,186,64.2,185.9,80.9z"/>
	<path id="Path-6" class="st0" d="M46.6,20.7c2-0.7,3.1-2.8,2.5-4.9c-0.6-2-2.8-3.2-4.8-2.5c-2,0.6-3.2,2.8-2.5,4.8c0,0,0,0.1,0,0.1
		C42.4,20.3,44.6,21.4,46.6,20.7C46.6,20.7,46.6,20.7,46.6,20.7z"/>
	<path id="Path-7" class="st0" d="M55,8.1c1.4-0.5,2.1-1.9,1.7-3.3c-0.4-1.4-1.9-2.2-3.3-1.7S51.2,5,51.7,6.3c0,0,0,0,0,0.1
		C52.1,7.8,53.6,8.5,55,8.1C55,8.1,55,8.1,55,8.1z"/>
	<path id="Path-8" class="st0" d="M185.1,30.6c2.4-2.2,2.5-5.9,0.4-8.3c-2.2-2.4-5.8-2.6-8.2-0.4c0,0,0,0,0,0
		c-2.4,2.2-2.6,5.9-0.4,8.3C179,32.6,182.7,32.8,185.1,30.6C185.1,30.6,185.1,30.6,185.1,30.6z"/>
	<path id="Path-9" class="st0" d="M185.7,4.3c1-0.9,1.1-2.5,0.2-3.5c-0.9-1-2.4-1.1-3.5-0.2c0,0,0,0,0,0c-1,0.9-1.1,2.5-0.2,3.5
		C183.1,5.2,184.6,5.2,185.7,4.3C185.7,4.3,185.7,4.3,185.7,4.3z"/>
	<path id="Path-10" class="st1" d="M34.3,148.6h158.5"/>
	<path id="Path-11" class="st2" d="M157.9,12.2c2.4,0,4.3,1.9,4.3,4.3c0,0,0,0,0,0v127.3c0,2.4-1.9,4.3-4.3,4.3c0,0,0,0,0,0H63.4
		c-2.4,0-4.3-1.9-4.3-4.3c0,0,0,0,0,0V16.5c0-2.4,1.9-4.3,4.3-4.3c0,0,0,0,0,0H157.9z"/>
	<path id="Path-12" class="st3" d="M162.2,25.7v118c0,2.4-1.9,4.3-4.3,4.3c0,0,0,0,0,0H71.6l-7.5-7.5l85.7-117l7.4-2.8L162.2,25.7z"
		/>
	<path id="Path-13" class="st4" d="M158.2,22.9H64.8V141c0,0.8,0.7,1.5,1.5,1.5h91.9L158.2,22.9z"/>
	<path id="Path-14" class="st5" d="M157.5,22.1c0-0.8-0.6-1.4-1.4-1.4c0,0,0,0,0,0H65.4c-0.8,0-1.4,0.6-1.4,1.4c0,0,0,0,0,0v116.7
		c0,0.8,0.6,1.4,1.4,1.4c0,0,0,0,0,0h90.5c0.8,0,1.4-0.6,1.4-1.4c0,0,0,0,0,0V22.1H157.5z"/>
	<g transform="translate(0 -1.25)">
		<path id="Path-15" class="st6" d="M157.5,23.4c0-0.8-0.6-1.4-1.4-1.4c0,0,0,0,0,0H65.4c-0.8,0-1.5,0.6-1.4,1.4
			c1.1,46.5,1.5,99-3.7,112.7l86.8-1.2C152.5,111.2,156.5,68.8,157.5,23.4z"/>
	</g>
	<g transform="translate(0 -1.25)">
		
			<linearGradient id="Path-16_00000088101343891041907200000003375554447226685875_" gradientUnits="userSpaceOnUse" x1="-182.7422" y1="501.8863" x2="-182.1862" y2="501.0503" gradientTransform="matrix(37.3587 0 0 -37.1526 6854.7183 18762.9922)">
			<stop  offset="0" style="stop-color:#BAACDA"/>
			<stop  offset="1" style="stop-color:#A290CD"/>
		</linearGradient>
		<path id="Path-16" style="fill:url(#Path-16_00000088101343891041907200000003375554447226685875_);" d="M56.6,140.6
			c0.1,5.1-3.9,9.4-9.1,9.6h-2.5l-6.8,0.2c-10.3,0.3-18.8-7.9-19-18.1s7.9-18.8,18.1-19c10.2-0.2,18.7,7.9,18.9,18.1l0.2,3.9
			L56.6,140.6z"/>
	</g>
	
		<linearGradient id="Path-17_00000049908410167454225990000014985468207069781928_" gradientUnits="userSpaceOnUse" x1="-179.4848" y1="495.852" x2="-179.0848" y2="495.481" gradientTransform="matrix(22.7836 0 0 -24.451 4127.1895 12254.1611)">
		<stop  offset="0" style="stop-color:#917CC4"/>
		<stop  offset="1" style="stop-color:#937FC5;stop-opacity:0"/>
	</linearGradient>
	<path id="Path-17" style="fill:url(#Path-17_00000049908410167454225990000014985468207069781928_);" d="M54.6,138.8
		c0.1,5.1-3.9,9.4-9.1,9.6h-2.5l-11.2-11.3l9.5-11.1l3.5-2l9.5,9.6L54.6,138.8z"/>
	
		<linearGradient id="Path-18_00000106132922809290257390000001824450125176349333_" gradientUnits="userSpaceOnUse" x1="-174.0186" y1="485.7206" x2="-174.8346" y2="486.5386" gradientTransform="matrix(14.3972 0 0 -14.3966 2550.147 7129.5171)">
		<stop  offset="1.100000e-02" style="stop-color:#E7E2F2"/>
		<stop  offset="1" style="stop-color:#FFFFFF"/>
	</linearGradient>
	<path id="Path-18" style="fill:url(#Path-18_00000106132922809290257390000001824450125176349333_);" d="M41.9,130.6l3.2-3.3
		c0.9-0.9,0.9-2.3,0.1-3.2c0,0,0,0-0.1-0.1c-0.8-0.9-2.3-0.9-3.2-0.1c0,0-0.1,0.1-0.1,0.1l-3.2,3.2l-3.2-3.2
		c-0.8-0.9-2.3-0.9-3.2-0.1c0,0-0.1,0.1-0.1,0.1c-0.9,0.9-0.9,2.3-0.1,3.2c0,0,0,0,0.1,0.1l3.2,3.3l-3.2,3.2
		c-0.9,0.9-0.9,2.3-0.1,3.2c0,0,0,0,0.1,0.1c0.5,0.4,1.1,0.7,1.7,0.6c0.6,0,1.2-0.2,1.7-0.6l3.2-3.2l3.2,3.2
		c0.8,0.9,2.2,0.9,3.1,0.1c0,0,0.1-0.1,0.1-0.1c0.4-0.5,0.6-1.1,0.6-1.7c0-0.6-0.2-1.2-0.6-1.7L41.9,130.6z"/>
	<g transform="translate(0 -1.25)">
		<path id="Path-19" class="st10" d="M157.3,22.1c0,0-0.2,7.1-2.3,52.2v0.9c-2.6,44.3-41.9,53.5-46.6,54c-2.2,0.1-6.3,0.5-13.9,0.6
			c-9.2,0.3-23.4,0.5-45.4,0.8c-0.5,0-1-0.4-1-1c0-0.1,0-0.3,0.1-0.4C63.6,98.4,63.7,22.3,63.7,22.3h93.6L157.3,22.1z"/>
	</g>
	<path id="Path-20" class="st2" d="M135.8,99.8H91c-0.3,0-0.6-0.5-0.6-1.2c0-0.6,0.3-1.3,0.6-1.3h44.9c0.3,0,0.6,0.5,0.6,1.3
		C136.5,99.2,136.2,99.8,135.8,99.8z"/>
	<path id="Path-21" class="st11" d="M112.8,106.7H90.7c-0.3,0-0.6-0.5-0.6-1.2c0-0.6,0.3-1.2,0.6-1.2h22.2c0.3,0,0.6,0.5,0.6,1.2
		C113.4,106.1,113.1,106.7,112.8,106.7z"/>
	<path id="Path-22" class="st2" d="M143,43.5H98.1c-0.3,0-0.6-0.5-0.6-1.2c0-0.6,0.3-1.3,0.6-1.3H143c0.3,0,0.6,0.5,0.6,1.3
		C143.6,43,143.3,43.5,143,43.5z"/>
	<path id="Path-23" class="st2" d="M142.7,50.4h-17.9c-0.3,0-0.6-0.5-0.6-1.2c0-0.6,0.3-1.3,0.6-1.3h17.9c0.3,0,0.6,0.5,0.6,1.3
		C143.3,50,143,50.4,142.7,50.4z"/>
	<path id="Path-24" class="st11" d="M119.9,50.4H97.7c-0.3,0-0.6-0.5-0.6-1.2c0-0.6,0.3-1.3,0.6-1.3h22.2c0.3,0,0.6,0.5,0.6,1.3
		C120.5,50,120.2,50.4,119.9,50.4z"/>
	<path id="Path-25" class="st0" d="M154.9,73.1c-2.6,44.3-41.9,53.6-46.6,54c-2.2,0.2-6.3,0.5-13.9,0.6c19.6-9.1,30-25.4,29.9-38.1
		C133.8,90.4,150.1,89.6,154.9,73.1z"/>
	
		<linearGradient id="Path-26_00000088130558649180621670000017449774186267202446_" gradientUnits="userSpaceOnUse" x1="-175.6019" y1="478.2663" x2="-174.5969" y2="478.2663" gradientTransform="matrix(15.1624 0 0 -10.7215 2736.375 5173.3193)">
		<stop  offset="0" style="stop-color:#917CC4"/>
		<stop  offset="1" style="stop-color:#9884C8"/>
	</linearGradient>
	<path id="Path-26" style="fill:url(#Path-26_00000088130558649180621670000017449774186267202446_);" d="M79.6,50.9
		c-0.4,0-0.7-0.2-0.9-0.5l-4.5-4.3c-0.5-0.5-0.5-1.3,0-1.8c0.5-0.5,1.3-0.5,1.8,0l3.5,3.6l7.2-7.3c0.5-0.5,1.3-0.5,1.8,0
		c0.5,0.5,0.5,1.3,0,1.8l-8.2,8.2C80.2,50.8,79.9,50.9,79.6,50.9z"/>
	<path id="Path-27" class="st2" d="M141,71H96.1c-0.3,0-0.6-0.5-0.6-1.2c0-0.6,0.3-1.2,0.6-1.2H141c0.3,0,0.6,0.5,0.6,1.2
		C141.6,70.4,141.3,71,141,71z"/>
	<path id="Path-28" class="st11" d="M117.9,77.9H95.7c-0.3,0-0.6-0.5-0.6-1.2c0-0.6,0.3-1.2,0.6-1.2h22.2c0.3,0,0.6,0.5,0.6,1.2
		C118.7,77.3,118.4,77.9,117.9,77.9z"/>
	
		<linearGradient id="Path-29_00000125580019091497816580000012106462401584332202_" gradientUnits="userSpaceOnUse" x1="-175.6079" y1="478.2888" x2="-174.6039" y2="478.2888" gradientTransform="matrix(15.1624 0 0 -10.7293 2734.5281 5204.7871)">
		<stop  offset="0" style="stop-color:#917CC4"/>
		<stop  offset="1" style="stop-color:#9884C8"/>
	</linearGradient>
	<path id="Path-29" style="fill:url(#Path-29_00000125580019091497816580000012106462401584332202_);" d="M77.6,78.4
		c-0.4,0-0.7-0.2-0.9-0.5l-4.3-4.3c-0.5-0.5-0.5-1.3,0-1.8c0.5-0.5,1.3-0.5,1.8,0l3.5,3.6l7.2-7.3c0.5-0.5,1.3-0.5,1.8,0
		c0.5,0.5,0.5,1.3,0,1.8L78.5,78C78.3,78.3,77.9,78.5,77.6,78.4z"/>
	<path id="Path-30" class="st14" d="M132.7,12.5l-0.9-0.9c-0.3,0.1-0.5,0.3-0.8,0.5h-14v-0.9c0-3-2.3-5.4-5.3-5.5s-5.4,2.3-5.5,5.3
		c0,0,0,0.1,0,0.1c0,0.3,0,0.5,0.2,0.8H91.6c-0.9,0-1.5,0.7-1.5,1.5v4.8c0,3.6,2.5,5.7,6,5.7h30.2c3.5,0,6.8-2.2,6.8-5.7v-4.8
		C133.1,13.2,133,12.8,132.7,12.5z"/>
	<path id="Path-31" class="st15" d="M132.2,12.5v5.7c-0.4,3.2-3.1,5.5-6.3,5.6H95.6c-3.2,0-5.9-2.4-6.3-5.6v-5.7
		c0-0.8,0.7-1.5,1.5-1.5c0,0,0,0,0,0h14.8v-0.8c0-3,2.3-5.4,5.3-5.5s5.4,2.3,5.5,5.3c0,0,0,0.1,0,0.1V11h14.8
		C131.8,11.3,132.2,11.9,132.2,12.5z"/>
	<path id="Path-32" class="st0" d="M110.7,12.7c1.4,0,2.5-1.1,2.5-2.5s-1.1-2.5-2.5-2.5c-1.4,0-2.5,1.1-2.5,2.5c0,0,0,0,0,0
		C108.2,11.6,109.3,12.7,110.7,12.7z"/>
	<path id="Path-33" class="st16" d="M132.1,18.3c-0.4,3.2-3.1,5.5-6.3,5.6H95.6c-3.2,0-5.9-2.4-6.3-5.6H132.1z"/>
	<path id="Path-34" class="st17" d="M120.4,16.1h-19.7c-0.4,0-0.7-0.3-0.8-0.7c0,0,0-0.1,0-0.1c0-0.4,0.3-0.8,0.7-0.8
		c0,0,0.1,0,0.1,0h19.7c0.4,0,0.7,0.3,0.8,0.7c0,0,0,0.1,0,0.1C121.2,15.7,120.9,16.1,120.4,16.1C120.4,16.1,120.4,16.1,120.4,16.1z
		"/>
	<path id="Path-35" class="st2" d="M18.6,64.2c0,0-15.2,3.9-10.6,7c4.6,2.9,15.5,8,25.9,4.6c10.3-3.4,0-8.2,0.2-8.2
		S18.6,64.2,18.6,64.2z"/>
	<path id="Path-36" class="st5" d="M0,63c5.5,1.7,22.6-1.1,33.6-8.2c8.6,10.7,11.9,13.5,14.9,13.8c-4.8,4.8-20.6,12.5-29.6,2.5
		C8.5,77.7,0,63,0,63z"/>
	<path id="Path-37" class="st5" d="M169.2,116.2c5.8,0.3,21.7-6.8,30.3-16.4c11.1,8.2,14.8,10.1,18,9.6
		c-3.5,5.9-14.3,18.7-29.6,19.6C181.4,125.2,175.1,120.9,169.2,116.2z"/>
	
		<linearGradient id="Path-38_00000160170125530102338920000000361992091498397860_" gradientUnits="userSpaceOnUse" x1="-162.702" y1="464.6017" x2="-161.695" y2="464.6017" gradientTransform="matrix(7.432 0 0 -7.432 1282.4884 3554.3682)">
		<stop  offset="0" style="stop-color:#BAACDA"/>
		<stop  offset="1" style="stop-color:#A290CD"/>
	</linearGradient>
	<path id="Path-38" style="fill:url(#Path-38_00000160170125530102338920000000361992091498397860_);" d="M77,105.2
		c2.1,0,3.7-1.6,3.7-3.7c0-2.1-1.6-3.7-3.7-3.7s-3.7,1.6-3.7,3.7c0,0,0,0,0,0C73.3,103.5,74.9,105.2,77,105.2z"/>
	<path id="Path-39" class="st19" d="M162.2,28.3h-6.3v4.2h6.3V28.3z"/>
	<path id="Path-40" class="st19" d="M138.3,36.5l-3.5,3.5l2.5,2.5l3.5-3.5L138.3,36.5z"/>
	<path id="Path-41" class="st19" d="M178.5,38.8l3.5,3.5l2.3-2.3l-3.5-3.5L178.5,38.8z"/>
	<g transform="translate(0 -1.25)">
		
			<linearGradient id="Path-42_00000147916152820976901520000004783246609057508009_" gradientUnits="userSpaceOnUse" x1="-184.704" y1="505.394" x2="-184.147" y2="504.5601" gradientTransform="matrix(61.2821 0 0 -61.282 11462.1836 31010.5371)">
			<stop  offset="0" style="stop-color:#917CC4"/>
			<stop  offset="1" style="stop-color:#9884C8"/>
		</linearGradient>
		<path id="Path-42" style="fill:url(#Path-42_00000147916152820976901520000004783246609057508009_);" d="M159.6,94.5
			c16.9,0.1,30.7-13.6,30.8-30.5S176.9,33.3,160,33.2s-30.7,13.6-30.8,30.5c0,0.1,0,0.1,0,0.2C129.1,80.8,142.8,94.5,159.6,94.5z"/>
	</g>
	<path id="Path-43" class="st21" d="M132.8,64.4c-0.8,0-1.4-0.6-1.4-1.4v-0.5c0-14.3,10.6-26.4,24.8-28.3c0.7-0.1,1.4,0.4,1.5,1.2
		c0,0,0,0,0,0.1c0.1,0.7-0.4,1.4-1.2,1.5c0,0,0,0-0.1,0c-12.8,1.7-22.4,12.6-22.5,25.5v0.3C134.1,63.6,133.6,64.3,132.8,64.4z"/>
	<path id="Path-44" class="st19" d="M159.8,90.8c-3,0-6-0.5-8.9-1.4c-0.7-0.2-1.1-1-0.9-1.7s1-1.1,1.7-0.9c2.6,0.9,5.3,1.3,8,1.3
		c12.9-0.1,23.7-9.7,25.4-22.5c0.1-0.7,0.7-1.2,1.4-1.1c0,0,0.1,0,0.1,0c0.7,0.1,1.2,0.7,1.1,1.4c0,0,0,0.1,0,0.1
		c-0.9,6.8-4.2,13.1-9.4,17.6C173.2,88.3,166.6,90.8,159.8,90.8z"/>
	<path id="Path-45" class="st10" d="M183.6,62.6C183.3,75.9,172.2,86.3,159,86c-12.8-0.3-23-10.6-23.4-23.4c0.4-13,11-23.3,24-23.4
		C172.7,39.1,183.4,49.6,183.6,62.6z"/>
	<path id="Path-46" class="st22" d="M180.1,63.5h-3.8c-0.6,0-1.1-0.5-1.1-1c0,0,0,0,0,0c0-0.6,0.4-1.1,1-1.1c0,0,0,0,0,0h3.9
		c0.6,0,1.1,0.5,1.1,1c0,0,0,0,0,0C181.2,63,180.7,63.5,180.1,63.5C180.1,63.5,180.1,63.5,180.1,63.5z"/>
	<path id="Path-47" class="st22" d="M141.9,63.5h-3.8c-0.6,0-1.1-0.5-1.1-1c0,0,0,0,0,0c0-0.6,0.4-1.1,1-1.1c0,0,0,0,0,0h3.8
		c0.6,0,1.1,0.5,1.1,1c0,0,0,0,0,0C143,63,142.5,63.5,141.9,63.5C141.9,63.5,141.9,63.5,141.9,63.5z"/>
	<path id="Path-48" class="st22" d="M159,84.6c-0.6,0-1.1-0.5-1.1-1c0,0,0,0,0,0v-3.9c0-0.6,0.4-1.1,1-1.1c0,0,0,0,0.1,0
		c0.6,0,1.1,0.4,1.1,1c0,0,0,0,0,0.1v3.9C160.1,84.1,159.6,84.6,159,84.6C159,84.6,159,84.6,159,84.6z"/>
	<path id="Path-49" class="st22" d="M159,46.5c-0.6,0-1.1-0.5-1.1-1c0,0,0,0,0,0v-3.9c0-0.6,0.4-1.1,1-1.1c0,0,0,0,0,0
		c0.6,0,1.1,0.5,1.1,1c0,0,0,0,0,0v3.9C160.1,46,159.6,46.4,159,46.5C159,46.5,159,46.5,159,46.5z"/>
	<path id="Path-50" class="st22" d="M159.3,65.5c2,0,3.6-1.6,3.6-3.5c0-2-1.6-3.6-3.5-3.6c-2,0-3.6,1.6-3.6,3.5c0,0,0,0,0,0
		C155.8,63.9,157.4,65.5,159.3,65.5C159.3,65.5,159.3,65.5,159.3,65.5z"/>
	<path id="Path-51" class="st23" d="M173.5,46.9c-0.4-0.4-1.1-0.4-1.5,0l-12.6,13.3h-0.2c-0.9,0-1.7,0.8-1.7,1.7V62l-2,2.2
		c-0.4,0.4-0.4,1.1,0,1.5c0.2,0.2,0.5,0.3,0.8,0.3c0.3,0,0.6-0.1,0.8-0.3l2-2.2h0.2c0.9,0,1.7-0.8,1.7-1.7v-0.3l12.6-13.3
		c0.4-0.3,0.5-0.8,0.2-1.2C173.6,47,173.5,46.9,173.5,46.9z"/>
	<path id="Path-52" class="st24" d="M173.2,47.3l-17.1,18h-0.3c-0.2-0.2-0.2-0.5,0.2-0.8l16.5-17.3c0.1-0.2,0.4-0.3,0.6-0.2
		c0.1,0,0.1,0.1,0.2,0.2L173.2,47.3z"/>
	<path id="Path-53" class="st19" d="M165.3,22.6v4c0,1.5-1.2,2.8-2.8,2.8c0,0,0,0,0,0h-6.8c-1.5,0-2.8-1.2-2.8-2.8c0,0,0,0,0,0v-4
		c0-1.5,1.2-2.8,2.8-2.8c0,0,0,0,0,0h6.8C164.1,19.8,165.3,21.1,165.3,22.6C165.3,22.6,165.3,22.6,165.3,22.6z"/>
	<path id="Path-54" class="st19" d="M138.8,36.9l-3.7,3.7c-0.9,0.8-2.2,0.8-3.1,0l-2.2-2.2c-0.8-0.9-0.8-2.2,0-3.1l3.7-3.7
		c0.9-0.8,2.2-0.8,3.1,0l2.2,2.2C139.6,34.7,139.6,36,138.8,36.9z"/>
	<path id="Path-55" class="st19" d="M180.1,36.9l3.7,3.7c0.9,0.8,2.2,0.8,3.1,0l2.2-2.2c0.8-0.9,0.8-2.2,0-3.1l-3.7-3.7
		c-0.9-0.8-2.2-0.8-3.1,0l-2.2,2.2C179.3,34.7,179.3,36,180.1,36.9z"/>
	<path id="Path-56" class="st14" d="M159.3,62.3c0.2,0,0.3-0.2,0.3-0.3c0,0,0,0,0,0c0-0.2-0.1-0.3-0.3-0.3c-0.2,0-0.3,0.1-0.3,0.3
		C159,62.1,159.1,62.3,159.3,62.3C159.3,62.3,159.3,62.3,159.3,62.3z"/>
</g>
</svg>
