<?xml version="1.0" encoding="utf-8"?>
<!-- Generator: Adobe Illustrator 27.0.1, SVG Export Plug-In . SVG Version: 6.00 Build 0)  -->
<svg version="1.1" id="Layer_1" xmlns="http://www.w3.org/2000/svg" xmlns:xlink="http://www.w3.org/1999/xlink" x="0px" y="0px"
	 viewBox="0 0 24 24" style="enable-background:new 0 0 24 24;" xml:space="preserve">
<style type="text/css">
	.st0{opacity:0.2;fill:#F8CD9A;enable-background:new    ;}
	.st1{fill:#917CC4;}
</style>
<g transform="translate(-1081 -2080)">
	<circle class="st0" cx="1093" cy="2092" r="12"/>
	<path class="st1" d="M1099.8,2090.2l-5-5c-0.2-0.2-0.6-0.2-0.8,0c0,0,0,0,0,0l-1.8,1.8c-0.2,0.2-0.2,0.6,0,0.8c0,0,0,0,0,0l0.4,0.4
		l-1.7,1.7c-0.8-0.2-3.2-0.6-4.4,0.7c-0.2,0.2-0.2,0.6,0,0.8c0,0,0,0,0,0l3.2,3.2l-3.6,3.6c-0.2,0.2-0.2,0.6,0,0.8c0,0,0,0,0,0
		c0.2,0.2,0.6,0.2,0.8,0l3.6-3.6l3.2,3.2c0.2,0.2,0.5,0.2,0.8,0c0,0,0,0,0,0c1.2-1.2,0.8-3.6,0.7-4.4l1.7-1.7l0.4,0.4
		c0.2,0.2,0.6,0.2,0.8,0c0,0,0,0,0,0l1.8-1.8C1100.1,2090.8,1100,2090.4,1099.8,2090.2z M1097.6,2091.6l-0.4-0.4
		c-0.2-0.2-0.6-0.2-0.8,0c0,0,0,0,0,0l-2.3,2.4c-0.2,0.1-0.2,0.4-0.2,0.6c0.3,1,0.3,2.1,0,3.2l-6.2-6.2c1-0.3,2.1-0.3,3.2,0
		c0.2,0.1,0.4,0,0.6-0.2l2.3-2.3c0.2-0.2,0.3-0.5,0.1-0.7c0,0-0.1-0.1-0.1-0.1l-0.4-0.4l1.1-1l4.2,4.2L1097.6,2091.6z"/>
</g>
</svg>
